%
M48
M72
T01C0.0197
%
T01
X16098Y3550
X22348Y6300
X23848Y5750
X23148Y7650
X24498Y8050
X25648Y8150
X23698Y9450
X22748Y9450
X17748Y9450
X26898Y4850
X28448Y6000
X29398Y5900
X30198Y5900
X32648Y11100
X34348Y11100
X30098Y13150
X27898Y12300
X32998Y15950
X33848Y18450
X26098Y22200
X21098Y22000
X7848Y12550
X7748Y10250
X8748Y10250
X9748Y10250
X10748Y10250
X11748Y10250
X12748Y10250
X12748Y7250
X11748Y7250
X10748Y7250
X9748Y7250
X8748Y7250
X7748Y7250
X6748Y7250
X5748Y7250
X5748Y10250
X6748Y10250
X14265Y15283
X15265Y15283
X15840Y18039
X16840Y18039
X15265Y20794
X14265Y20794
X31798Y9450
X31798Y7550
X34098Y6400
X35098Y6400
X36098Y6400
X27639Y14692
X26639Y14692
X25639Y14692
X24639Y14692
X23639Y14692
X22639Y14692
X22639Y20692
X23639Y20692
X24639Y20692
X25639Y20692
X26639Y20692
X27639Y20692
X8958Y19909
X8958Y21680
X6399Y21680
X6399Y19909
X6399Y15775
X6399Y14003
X8958Y14003
X8958Y15775
X8248Y5000
X9248Y5000
X10248Y5000
X11248Y5000
X12248Y5000
X18498Y4500
X19498Y4500
X20498Y4500
X21498Y4500
X22498Y4500
X23498Y4500
X24498Y4500
X28398Y4750
X32398Y4750
X35238Y8393
X34647Y22369
X4332Y22369
X3742Y8393
M30
