<?xml version="1.0" encoding="UTF-8"?>
<svg xmlns="http://www.w3.org/2000/svg" xmlns:xlink="http://www.w3.org/1999/xlink" width="147pt" height="72pt" viewBox="0 0 147 72" version="1.1">
<g id="surface123110">
<path style="fill:none;stroke-width:0.008;stroke-linecap:round;stroke-linejoin:miter;stroke:rgb(0%,0%,0%);stroke-opacity:1;stroke-miterlimit:10;" d="M 0.0139967 0.0139967 L 0.0139967 0.926486 " transform="matrix(72,0,0,-72,5.9688,69.4062)"/>
<path style="fill:none;stroke-width:0.008;stroke-linecap:round;stroke-linejoin:miter;stroke:rgb(0%,0%,0%);stroke-opacity:1;stroke-miterlimit:10;" d="M 0.0139967 0.926486 L 1.863986 0.926486 " transform="matrix(72,0,0,-72,5.9688,69.4062)"/>
<path style="fill:none;stroke-width:0.008;stroke-linecap:round;stroke-linejoin:miter;stroke:rgb(0%,0%,0%);stroke-opacity:1;stroke-miterlimit:10;" d="M 1.863986 0.926486 L 1.863986 0.0139967 " transform="matrix(72,0,0,-72,5.9688,69.4062)"/>
<path style="fill:none;stroke-width:0.008;stroke-linecap:round;stroke-linejoin:miter;stroke:rgb(0%,0%,0%);stroke-opacity:1;stroke-miterlimit:10;" d="M 1.863986 0.0139967 L 0.0139967 0.0139967 " transform="matrix(72,0,0,-72,5.9688,69.4062)"/>
<path style=" stroke:none;fill-rule:evenodd;fill:rgb(0%,0%,0%);fill-opacity:1;" d="M 43.410156 61.953125 L 47.671875 61.953125 L 47.671875 56.84375 L 43.410156 56.84375 Z M 43.410156 61.953125 "/>
<path style=" stroke:none;fill-rule:evenodd;fill:rgb(0%,0%,0%);fill-opacity:1;" d="M 49.082031 61.953125 L 53.34375 61.953125 L 53.34375 56.84375 L 49.082031 56.84375 Z M 49.082031 61.953125 "/>
<path style=" stroke:none;fill-rule:evenodd;fill:rgb(0%,0%,0%);fill-opacity:1;" d="M 93.8125 63.753906 L 98.074219 63.753906 L 98.074219 58.644531 L 93.8125 58.644531 Z M 93.8125 63.753906 "/>
<path style=" stroke:none;fill-rule:evenodd;fill:rgb(0%,0%,0%);fill-opacity:1;" d="M 99.480469 63.753906 L 103.742188 63.753906 L 103.742188 58.644531 L 99.480469 58.644531 Z M 99.480469 63.753906 "/>
<path style=" stroke:none;fill-rule:evenodd;fill:rgb(0%,0%,0%);fill-opacity:1;" d="M 97.722656 53.238281 L 102.265625 53.238281 L 102.265625 47.558594 L 97.722656 47.558594 Z M 97.722656 53.238281 "/>
<path style=" stroke:none;fill-rule:evenodd;fill:rgb(0%,0%,0%);fill-opacity:1;" d="M 88.085938 53.238281 L 92.628906 53.238281 L 92.628906 47.558594 L 88.085938 47.558594 Z M 88.085938 53.238281 "/>
<path style=" stroke:none;fill-rule:evenodd;fill:rgb(0%,0%,0%);fill-opacity:1;" d="M 88.085938 46.039062 L 92.628906 46.039062 L 92.628906 40.359375 L 88.085938 40.359375 Z M 88.085938 46.039062 "/>
<path style=" stroke:none;fill-rule:evenodd;fill:rgb(0%,0%,0%);fill-opacity:1;" d="M 97.722656 46.039062 L 102.265625 46.039062 L 102.265625 40.359375 L 97.722656 40.359375 Z M 97.722656 46.039062 "/>
<path style=" stroke:none;fill-rule:evenodd;fill:rgb(0%,0%,0%);fill-opacity:1;" d="M 18.523438 43.335938 L 23.066406 43.335938 L 23.066406 37.65625 L 18.523438 37.65625 Z M 18.523438 43.335938 "/>
<path style=" stroke:none;fill-rule:evenodd;fill:rgb(0%,0%,0%);fill-opacity:1;" d="M 8.886719 43.335938 L 13.429688 43.335938 L 13.429688 37.65625 L 8.886719 37.65625 Z M 8.886719 43.335938 "/>
<path style=" stroke:none;fill-rule:evenodd;fill:rgb(0%,0%,0%);fill-opacity:1;" d="M 8.886719 50.539062 L 13.429688 50.539062 L 13.429688 44.859375 L 8.886719 44.859375 Z M 8.886719 50.539062 "/>
<path style=" stroke:none;fill-rule:evenodd;fill:rgb(0%,0%,0%);fill-opacity:1;" d="M 18.523438 50.539062 L 23.066406 50.539062 L 23.066406 44.859375 L 18.523438 44.859375 Z M 18.523438 50.539062 "/>
<path style=" stroke:none;fill-rule:evenodd;fill:rgb(0%,0%,0%);fill-opacity:1;" d="M 68.71875 59.398438 C 68.71875 52.679688 58.636719 52.679688 58.636719 59.398438 C 58.636719 66.117188 68.71875 66.117188 68.71875 59.398438 "/>
<path style=" stroke:none;fill-rule:evenodd;fill:rgb(0%,0%,0%);fill-opacity:1;" d="M 80.417969 59.398438 C 80.417969 52.679688 70.335938 52.679688 70.335938 59.398438 C 70.335938 66.117188 80.417969 66.117188 80.417969 59.398438 "/>
<path style=" stroke:none;fill-rule:evenodd;fill:rgb(0%,0%,0%);fill-opacity:1;" d="M 92.117188 59.398438 C 92.117188 52.679688 82.035156 52.679688 82.035156 59.398438 C 82.035156 66.117188 92.117188 66.117188 92.117188 59.398438 "/>
<path style=" stroke:none;fill-rule:evenodd;fill:rgb(0%,0%,0%);fill-opacity:1;" d="M 92.117188 16.199219 C 92.117188 9.476562 82.035156 9.476562 82.035156 16.199219 C 82.035156 22.917969 92.117188 22.917969 92.117188 16.199219 "/>
<path style=" stroke:none;fill-rule:evenodd;fill:rgb(0%,0%,0%);fill-opacity:1;" d="M 80.417969 16.199219 C 80.417969 9.476562 70.335938 9.476562 70.335938 16.199219 C 70.335938 22.917969 80.417969 22.917969 80.417969 16.199219 "/>
<path style=" stroke:none;fill-rule:evenodd;fill:rgb(0%,0%,0%);fill-opacity:1;" d="M 68.71875 16.199219 C 68.71875 9.476562 58.636719 9.476562 58.636719 16.199219 C 58.636719 22.917969 68.71875 22.917969 68.71875 16.199219 "/>
<path style="fill:none;stroke-width:0.074;stroke-linecap:round;stroke-linejoin:miter;stroke:rgb(0%,0%,0%);stroke-opacity:1;stroke-miterlimit:10;" d="M 0.524956 0.308919 L 0.524956 0.242892 " transform="matrix(72,0,0,-72,5.9688,69.4062)"/>
<path style="fill:none;stroke-width:0.074;stroke-linecap:round;stroke-linejoin:miter;stroke:rgb(0%,0%,0%);stroke-opacity:1;stroke-miterlimit:10;" d="M 0.426486 0.242892 L 0.426486 0.308919 " transform="matrix(72,0,0,-72,5.9688,69.4062)"/>
<path style="fill:none;stroke-width:0.074;stroke-linecap:round;stroke-linejoin:miter;stroke:rgb(0%,0%,0%);stroke-opacity:1;stroke-miterlimit:10;" d="M 0.32807 0.308919 L 0.32807 0.242892 " transform="matrix(72,0,0,-72,5.9688,69.4062)"/>
<path style="fill:none;stroke-width:0.074;stroke-linecap:round;stroke-linejoin:miter;stroke:rgb(0%,0%,0%);stroke-opacity:1;stroke-miterlimit:10;" d="M 1.403048 0.242892 L 1.403048 0.308919 " transform="matrix(72,0,0,-72,5.9688,69.4062)"/>
<path style="fill:none;stroke-width:0.074;stroke-linecap:round;stroke-linejoin:miter;stroke:rgb(0%,0%,0%);stroke-opacity:1;stroke-miterlimit:10;" d="M 1.501518 0.308919 L 1.501518 0.242892 " transform="matrix(72,0,0,-72,5.9688,69.4062)"/>
<path style="fill:none;stroke-width:0.074;stroke-linecap:round;stroke-linejoin:miter;stroke:rgb(0%,0%,0%);stroke-opacity:1;stroke-miterlimit:10;" d="M 1.599934 0.242892 L 1.599934 0.308919 " transform="matrix(72,0,0,-72,5.9688,69.4062)"/>
<path style=" stroke:none;fill-rule:evenodd;fill:rgb(0%,0%,0%);fill-opacity:1;" d="M 121.136719 35.394531 L 132.53125 35.394531 L 132.53125 24 L 121.136719 24 Z M 121.136719 35.394531 "/>
<path style=" stroke:none;fill-rule:evenodd;fill:rgb(0%,0%,0%);fill-opacity:1;" d="M 95.625 35.394531 L 107.019531 35.394531 L 107.019531 24 L 95.625 24 Z M 95.625 35.394531 "/>
<path style=" stroke:none;fill-rule:evenodd;fill:rgb(0%,0%,0%);fill-opacity:1;" d="M 43.738281 35.394531 L 55.132812 35.394531 L 55.132812 24 L 43.738281 24 Z M 43.738281 35.394531 "/>
<path style=" stroke:none;fill-rule:evenodd;fill:rgb(0%,0%,0%);fill-opacity:1;" d="M 18.222656 35.394531 L 29.617188 35.394531 L 29.617188 24 L 18.222656 24 Z M 18.222656 35.394531 "/>
<path style=" stroke:none;fill-rule:evenodd;fill:rgb(0%,0%,0%);fill-opacity:1;" d="M 117.199219 19.777344 C 117.199219 15.613281 110.953125 15.613281 110.953125 19.777344 C 110.953125 23.941406 117.199219 23.941406 117.199219 19.777344 "/>
<path style=" stroke:none;fill-rule:evenodd;fill:rgb(0%,0%,0%);fill-opacity:1;" d="M 117.199219 41.035156 C 117.199219 36.875 110.953125 36.875 110.953125 41.035156 C 110.953125 45.199219 117.199219 45.199219 117.199219 41.035156 "/>
<path style=" stroke:none;fill-rule:evenodd;fill:rgb(0%,0%,0%);fill-opacity:1;" d="M 39.800781 41.035156 C 39.800781 36.875 33.554688 36.875 33.554688 41.035156 C 33.554688 45.199219 39.800781 45.199219 39.800781 41.035156 "/>
<path style=" stroke:none;fill-rule:evenodd;fill:rgb(0%,0%,0%);fill-opacity:1;" d="M 39.800781 19.777344 C 39.800781 15.613281 33.554688 15.613281 33.554688 19.777344 C 33.554688 23.941406 39.800781 23.941406 39.800781 19.777344 "/>
<path style=" stroke:none;fill-rule:evenodd;fill:rgb(0%,0%,0%);fill-opacity:1;" d="M 50.269531 45.328125 L 53.679688 45.328125 L 53.679688 40.5 L 50.269531 40.5 Z M 50.269531 45.328125 "/>
<path style=" stroke:none;fill-rule:evenodd;fill:rgb(0%,0%,0%);fill-opacity:1;" d="M 50.269531 51.296875 L 53.679688 51.296875 L 53.679688 46.46875 L 50.269531 46.46875 Z M 50.269531 51.296875 "/>
<path style=" stroke:none;fill-rule:evenodd;fill:rgb(0%,0%,0%);fill-opacity:1;" d="M 126.769531 52.195312 L 130.179688 52.195312 L 130.179688 47.367188 L 126.769531 47.367188 Z M 126.769531 52.195312 "/>
<path style=" stroke:none;fill-rule:evenodd;fill:rgb(0%,0%,0%);fill-opacity:1;" d="M 126.769531 46.230469 L 130.179688 46.230469 L 130.179688 41.402344 L 126.769531 41.402344 Z M 126.769531 46.230469 "/>
</g>
</svg>
