<?xml version="1.0" encoding="UTF-8"?>
<svg xmlns="http://www.w3.org/2000/svg" xmlns:xlink="http://www.w3.org/1999/xlink" width="69pt" height="38pt" viewBox="0 0 69 38" version="1.1">
<g id="surface29655">
<path style="fill:none;stroke-width:0.012;stroke-linecap:round;stroke-linejoin:miter;stroke:rgb(100%,100%,100%);stroke-opacity:1;stroke-miterlimit:10;" d="M 0.0159957 0.324997 L 0.0159957 0.799607 " transform="matrix(72,0,0,-72,2.426436,59.216204)"/>
<path style="fill:none;stroke-width:0.012;stroke-linecap:round;stroke-linejoin:miter;stroke:rgb(100%,100%,100%);stroke-opacity:1;stroke-miterlimit:10;" d="M 0.0159957 0.799607 L 0.878029 0.799607 " transform="matrix(72,0,0,-72,2.426436,59.216204)"/>
<path style="fill:none;stroke-width:0.012;stroke-linecap:round;stroke-linejoin:miter;stroke:rgb(100%,100%,100%);stroke-opacity:1;stroke-miterlimit:10;" d="M 0.878029 0.799607 L 0.878029 0.324997 " transform="matrix(72,0,0,-72,2.426436,59.216204)"/>
<path style="fill:none;stroke-width:0.012;stroke-linecap:round;stroke-linejoin:miter;stroke:rgb(100%,100%,100%);stroke-opacity:1;stroke-miterlimit:10;" d="M 0.878029 0.324997 L 0.0159957 0.324997 " transform="matrix(72,0,0,-72,2.426436,59.216204)"/>
<path style="fill:none;stroke-width:0.06;stroke-linecap:round;stroke-linejoin:miter;stroke:rgb(100%,100%,100%);stroke-opacity:1;stroke-miterlimit:10;" d="M 0.103018 0.419995 L 0.103018 0.479999 " transform="matrix(72,0,0,-72,2.426436,59.216204)"/>
<path style="fill:none;stroke-width:0.06;stroke-linecap:round;stroke-linejoin:miter;stroke:rgb(100%,100%,100%);stroke-opacity:1;stroke-miterlimit:10;" d="M 0.203007 0.479999 L 0.203007 0.419995 " transform="matrix(72,0,0,-72,2.426436,59.216204)"/>
<path style="fill:none;stroke-width:0.06;stroke-linecap:round;stroke-linejoin:miter;stroke:rgb(100%,100%,100%);stroke-opacity:1;stroke-miterlimit:10;" d="M 0.302997 0.419995 L 0.302997 0.479999 " transform="matrix(72,0,0,-72,2.426436,59.216204)"/>
<path style="fill:none;stroke-width:0.06;stroke-linecap:round;stroke-linejoin:miter;stroke:rgb(100%,100%,100%);stroke-opacity:1;stroke-miterlimit:10;" d="M 0.402986 0.479999 L 0.402986 0.419995 " transform="matrix(72,0,0,-72,2.426436,59.216204)"/>
<path style="fill:none;stroke-width:0.06;stroke-linecap:round;stroke-linejoin:miter;stroke:rgb(100%,100%,100%);stroke-opacity:1;stroke-miterlimit:10;" d="M 0.503029 0.419995 L 0.503029 0.479999 " transform="matrix(72,0,0,-72,2.426436,59.216204)"/>
<path style="fill:none;stroke-width:0.06;stroke-linecap:round;stroke-linejoin:miter;stroke:rgb(100%,100%,100%);stroke-opacity:1;stroke-miterlimit:10;" d="M 0.603018 0.479999 L 0.603018 0.419995 " transform="matrix(72,0,0,-72,2.426436,59.216204)"/>
<path style="fill:none;stroke-width:0.06;stroke-linecap:round;stroke-linejoin:miter;stroke:rgb(100%,100%,100%);stroke-opacity:1;stroke-miterlimit:10;" d="M 0.703007 0.419995 L 0.703007 0.479999 " transform="matrix(72,0,0,-72,2.426436,59.216204)"/>
<path style="fill:none;stroke-width:0.06;stroke-linecap:round;stroke-linejoin:miter;stroke:rgb(100%,100%,100%);stroke-opacity:1;stroke-miterlimit:10;" d="M 0.802997 0.479999 L 0.802997 0.419995 " transform="matrix(72,0,0,-72,2.426436,59.216204)"/>
<path style=" stroke:none;fill-rule:evenodd;fill:rgb(100%,100%,100%);fill-opacity:1;" d="M 39.296875 18.667969 L 45.53125 18.667969 L 45.53125 16.96875 L 39.296875 16.96875 Z M 39.296875 18.667969 "/>
<path style=" stroke:none;fill-rule:evenodd;fill:rgb(100%,100%,100%);fill-opacity:1;" d="M 39.296875 15.066406 L 45.53125 15.066406 L 45.53125 13.367188 L 39.296875 13.367188 Z M 39.296875 15.066406 "/>
<path style=" stroke:none;fill-rule:evenodd;fill:rgb(100%,100%,100%);fill-opacity:1;" d="M 39.296875 11.464844 L 45.53125 11.464844 L 45.53125 9.765625 L 39.296875 9.765625 Z M 39.296875 11.464844 "/>
<path style=" stroke:none;fill-rule:evenodd;fill:rgb(100%,100%,100%);fill-opacity:1;" d="M 39.296875 7.867188 L 45.53125 7.867188 L 45.53125 6.167969 L 39.296875 6.167969 Z M 39.296875 7.867188 "/>
<path style=" stroke:none;fill-rule:evenodd;fill:rgb(100%,100%,100%);fill-opacity:1;" d="M 24.554688 7.867188 L 30.789062 7.867188 L 30.789062 6.167969 L 24.554688 6.167969 Z M 24.554688 7.867188 "/>
<path style=" stroke:none;fill-rule:evenodd;fill:rgb(100%,100%,100%);fill-opacity:1;" d="M 24.554688 11.464844 L 30.789062 11.464844 L 30.789062 9.765625 L 24.554688 9.765625 Z M 24.554688 11.464844 "/>
<path style=" stroke:none;fill-rule:evenodd;fill:rgb(100%,100%,100%);fill-opacity:1;" d="M 24.554688 15.066406 L 30.789062 15.066406 L 30.789062 13.367188 L 24.554688 13.367188 Z M 24.554688 15.066406 "/>
<path style=" stroke:none;fill-rule:evenodd;fill:rgb(100%,100%,100%);fill-opacity:1;" d="M 24.554688 18.667969 L 30.789062 18.667969 L 30.789062 16.96875 L 24.554688 16.96875 Z M 24.554688 18.667969 "/>
<path style="fill:none;stroke-width:0.024;stroke-linecap:round;stroke-linejoin:miter;stroke:rgb(100%,100%,100%);stroke-opacity:1;stroke-miterlimit:10;" d="M 0.350631 0.574997 L 0.378029 0.574997 " transform="matrix(72,0,0,-72,2.426436,59.216204)"/>
<path style="fill:none;stroke-width:0.024;stroke-linecap:round;stroke-linejoin:miter;stroke:rgb(100%,100%,100%);stroke-opacity:1;stroke-miterlimit:10;" d="M 0.378029 0.574997 L 0.402986 0.549986 " transform="matrix(72,0,0,-72,2.426436,59.216204)"/>
<path style="fill:none;stroke-width:0.024;stroke-linecap:round;stroke-linejoin:miter;stroke:rgb(100%,100%,100%);stroke-opacity:1;stroke-miterlimit:10;" d="M 0.402986 0.549986 L 0.402986 0.449997 " transform="matrix(72,0,0,-72,2.426436,59.216204)"/>
<path style="fill:none;stroke-width:0.024;stroke-linecap:round;stroke-linejoin:miter;stroke:rgb(100%,100%,100%);stroke-opacity:1;stroke-miterlimit:10;" d="M 0.503029 0.449997 L 0.503029 0.549986 " transform="matrix(72,0,0,-72,2.426436,59.216204)"/>
<path style="fill:none;stroke-width:0.024;stroke-linecap:round;stroke-linejoin:miter;stroke:rgb(100%,100%,100%);stroke-opacity:1;stroke-miterlimit:10;" d="M 0.503029 0.549986 L 0.527986 0.574997 " transform="matrix(72,0,0,-72,2.426436,59.216204)"/>
<path style="fill:none;stroke-width:0.024;stroke-linecap:round;stroke-linejoin:miter;stroke:rgb(100%,100%,100%);stroke-opacity:1;stroke-miterlimit:10;" d="M 0.527986 0.574997 L 0.555384 0.574997 " transform="matrix(72,0,0,-72,2.426436,59.216204)"/>
<path style="fill:none;stroke-width:0.024;stroke-linecap:round;stroke-linejoin:miter;stroke:rgb(100%,100%,100%);stroke-opacity:1;stroke-miterlimit:10;" d="M 0.555384 0.625019 L 0.603018 0.625019 " transform="matrix(72,0,0,-72,2.426436,59.216204)"/>
<path style="fill:none;stroke-width:0.024;stroke-linecap:round;stroke-linejoin:miter;stroke:rgb(100%,100%,100%);stroke-opacity:1;stroke-miterlimit:10;" d="M 0.603018 0.625019 L 0.652986 0.574997 " transform="matrix(72,0,0,-72,2.426436,59.216204)"/>
<path style="fill:none;stroke-width:0.024;stroke-linecap:round;stroke-linejoin:miter;stroke:rgb(100%,100%,100%);stroke-opacity:1;stroke-miterlimit:10;" d="M 0.652986 0.574997 L 0.652986 0.549986 " transform="matrix(72,0,0,-72,2.426436,59.216204)"/>
<path style="fill:none;stroke-width:0.024;stroke-linecap:round;stroke-linejoin:miter;stroke:rgb(100%,100%,100%);stroke-opacity:1;stroke-miterlimit:10;" d="M 0.652986 0.549986 L 0.603018 0.500019 " transform="matrix(72,0,0,-72,2.426436,59.216204)"/>
<path style="fill:none;stroke-width:0.024;stroke-linecap:round;stroke-linejoin:miter;stroke:rgb(100%,100%,100%);stroke-opacity:1;stroke-miterlimit:10;" d="M 0.603018 0.500019 L 0.603018 0.449997 " transform="matrix(72,0,0,-72,2.426436,59.216204)"/>
<path style="fill:none;stroke-width:0.024;stroke-linecap:round;stroke-linejoin:miter;stroke:rgb(100%,100%,100%);stroke-opacity:1;stroke-miterlimit:10;" d="M 0.703007 0.449997 L 0.703007 0.600008 " transform="matrix(72,0,0,-72,2.426436,59.216204)"/>
<path style="fill:none;stroke-width:0.024;stroke-linecap:round;stroke-linejoin:miter;stroke:rgb(100%,100%,100%);stroke-opacity:1;stroke-miterlimit:10;" d="M 0.703007 0.600008 L 0.628029 0.674986 " transform="matrix(72,0,0,-72,2.426436,59.216204)"/>
<path style="fill:none;stroke-width:0.024;stroke-linecap:round;stroke-linejoin:miter;stroke:rgb(100%,100%,100%);stroke-opacity:1;stroke-miterlimit:10;" d="M 0.628029 0.674986 L 0.555384 0.674986 " transform="matrix(72,0,0,-72,2.426436,59.216204)"/>
<path style="fill:none;stroke-width:0.024;stroke-linecap:round;stroke-linejoin:miter;stroke:rgb(100%,100%,100%);stroke-opacity:1;stroke-miterlimit:10;" d="M 0.555384 0.725008 L 0.652986 0.725008 " transform="matrix(72,0,0,-72,2.426436,59.216204)"/>
<path style="fill:none;stroke-width:0.024;stroke-linecap:round;stroke-linejoin:miter;stroke:rgb(100%,100%,100%);stroke-opacity:1;stroke-miterlimit:10;" d="M 0.652986 0.725008 L 0.802997 0.574997 " transform="matrix(72,0,0,-72,2.426436,59.216204)"/>
<path style="fill:none;stroke-width:0.024;stroke-linecap:round;stroke-linejoin:miter;stroke:rgb(100%,100%,100%);stroke-opacity:1;stroke-miterlimit:10;" d="M 0.802997 0.574997 L 0.802997 0.449997 " transform="matrix(72,0,0,-72,2.426436,59.216204)"/>
<path style="fill:none;stroke-width:0.024;stroke-linecap:round;stroke-linejoin:miter;stroke:rgb(100%,100%,100%);stroke-opacity:1;stroke-miterlimit:10;" d="M 0.350631 0.625019 L 0.302997 0.625019 " transform="matrix(72,0,0,-72,2.426436,59.216204)"/>
<path style="fill:none;stroke-width:0.024;stroke-linecap:round;stroke-linejoin:miter;stroke:rgb(100%,100%,100%);stroke-opacity:1;stroke-miterlimit:10;" d="M 0.302997 0.625019 L 0.253029 0.574997 " transform="matrix(72,0,0,-72,2.426436,59.216204)"/>
<path style="fill:none;stroke-width:0.024;stroke-linecap:round;stroke-linejoin:miter;stroke:rgb(100%,100%,100%);stroke-opacity:1;stroke-miterlimit:10;" d="M 0.253029 0.574997 L 0.253029 0.549986 " transform="matrix(72,0,0,-72,2.426436,59.216204)"/>
<path style="fill:none;stroke-width:0.024;stroke-linecap:round;stroke-linejoin:miter;stroke:rgb(100%,100%,100%);stroke-opacity:1;stroke-miterlimit:10;" d="M 0.253029 0.549986 L 0.302997 0.500019 " transform="matrix(72,0,0,-72,2.426436,59.216204)"/>
<path style="fill:none;stroke-width:0.024;stroke-linecap:round;stroke-linejoin:miter;stroke:rgb(100%,100%,100%);stroke-opacity:1;stroke-miterlimit:10;" d="M 0.302997 0.500019 L 0.302997 0.449997 " transform="matrix(72,0,0,-72,2.426436,59.216204)"/>
<path style="fill:none;stroke-width:0.024;stroke-linecap:round;stroke-linejoin:miter;stroke:rgb(100%,100%,100%);stroke-opacity:1;stroke-miterlimit:10;" d="M 0.203007 0.449997 L 0.203007 0.600008 " transform="matrix(72,0,0,-72,2.426436,59.216204)"/>
<path style="fill:none;stroke-width:0.024;stroke-linecap:round;stroke-linejoin:miter;stroke:rgb(100%,100%,100%);stroke-opacity:1;stroke-miterlimit:10;" d="M 0.203007 0.600008 L 0.277986 0.674986 " transform="matrix(72,0,0,-72,2.426436,59.216204)"/>
<path style="fill:none;stroke-width:0.024;stroke-linecap:round;stroke-linejoin:miter;stroke:rgb(100%,100%,100%);stroke-opacity:1;stroke-miterlimit:10;" d="M 0.277986 0.674986 L 0.350631 0.674986 " transform="matrix(72,0,0,-72,2.426436,59.216204)"/>
<path style="fill:none;stroke-width:0.024;stroke-linecap:round;stroke-linejoin:miter;stroke:rgb(100%,100%,100%);stroke-opacity:1;stroke-miterlimit:10;" d="M 0.350631 0.725008 L 0.253029 0.725008 " transform="matrix(72,0,0,-72,2.426436,59.216204)"/>
<path style="fill:none;stroke-width:0.024;stroke-linecap:round;stroke-linejoin:miter;stroke:rgb(100%,100%,100%);stroke-opacity:1;stroke-miterlimit:10;" d="M 0.253029 0.725008 L 0.103018 0.574997 " transform="matrix(72,0,0,-72,2.426436,59.216204)"/>
<path style="fill:none;stroke-width:0.024;stroke-linecap:round;stroke-linejoin:miter;stroke:rgb(100%,100%,100%);stroke-opacity:1;stroke-miterlimit:10;" d="M 0.103018 0.574997 L 0.103018 0.449997 " transform="matrix(72,0,0,-72,2.426436,59.216204)"/>
<path style=" stroke:none;fill-rule:evenodd;fill:rgb(0%,0%,0%);fill-opacity:1;" d="M 10.554688 26.816406 C 10.554688 25.867188 9.128906 25.867188 9.128906 26.816406 C 9.128906 27.765625 10.554688 27.765625 10.554688 26.816406 "/>
<path style=" stroke:none;fill-rule:evenodd;fill:rgb(0%,0%,0%);fill-opacity:1;" d="M 17.753906 26.816406 C 17.753906 25.867188 16.328125 25.867188 16.328125 26.816406 C 16.328125 27.765625 17.753906 27.765625 17.753906 26.816406 "/>
<path style=" stroke:none;fill-rule:evenodd;fill:rgb(0%,0%,0%);fill-opacity:1;" d="M 24.957031 26.816406 C 24.957031 25.867188 23.53125 25.867188 23.53125 26.816406 C 23.53125 27.765625 24.957031 27.765625 24.957031 26.816406 "/>
<path style=" stroke:none;fill-rule:evenodd;fill:rgb(0%,0%,0%);fill-opacity:1;" d="M 32.15625 26.816406 C 32.15625 25.867188 30.730469 25.867188 30.730469 26.816406 C 30.730469 27.765625 32.15625 27.765625 32.15625 26.816406 "/>
<path style=" stroke:none;fill-rule:evenodd;fill:rgb(0%,0%,0%);fill-opacity:1;" d="M 39.355469 26.816406 C 39.355469 25.867188 37.929688 25.867188 37.929688 26.816406 C 37.929688 27.765625 39.355469 27.765625 39.355469 26.816406 "/>
<path style=" stroke:none;fill-rule:evenodd;fill:rgb(0%,0%,0%);fill-opacity:1;" d="M 46.554688 26.816406 C 46.554688 25.867188 45.128906 25.867188 45.128906 26.816406 C 45.128906 27.765625 46.554688 27.765625 46.554688 26.816406 "/>
<path style=" stroke:none;fill-rule:evenodd;fill:rgb(0%,0%,0%);fill-opacity:1;" d="M 53.753906 26.816406 C 53.753906 25.867188 52.328125 25.867188 52.328125 26.816406 C 52.328125 27.765625 53.753906 27.765625 53.753906 26.816406 "/>
<path style=" stroke:none;fill-rule:evenodd;fill:rgb(0%,0%,0%);fill-opacity:1;" d="M 60.957031 26.816406 C 60.957031 25.867188 59.53125 25.867188 59.53125 26.816406 C 59.53125 27.765625 60.957031 27.765625 60.957031 26.816406 "/>
</g>
</svg>
