G75*
%MOIN*%
%OFA0B0*%
%FSLAX25Y25*%
%IPPOS*%
%LPD*%
%AMOC8*
5,1,8,0,0,1.08239X$1,22.5*
%
%ADD10C,0.01200*%
%ADD11C,0.06000*%
%ADD12R,0.08661X0.02362*%
%ADD13C,0.02400*%
D10*
X0001600Y0032500D02*
X0001600Y0079961D01*
X0087801Y0079961D01*
X0087801Y0032500D01*
X0001600Y0032500D01*
D11*
X0010301Y0042000D02*
X0010301Y0048000D01*
X0020301Y0048000D02*
X0020301Y0042000D01*
X0030301Y0042000D02*
X0030301Y0048000D01*
X0040301Y0048000D02*
X0040301Y0042000D01*
X0050301Y0042000D02*
X0050301Y0048000D01*
X0060301Y0048000D02*
X0060301Y0042000D01*
X0070301Y0042000D02*
X0070301Y0048000D01*
X0080301Y0048000D02*
X0080301Y0042000D01*
D12*
X0055537Y0057500D03*
X0055537Y0062500D03*
X0055537Y0067500D03*
X0055537Y0072500D03*
X0035065Y0072500D03*
X0035065Y0067500D03*
X0035065Y0062500D03*
X0035065Y0057500D03*
D13*
X0037801Y0057500D01*
X0040301Y0055000D01*
X0040301Y0045000D01*
X0050301Y0045000D02*
X0050301Y0055000D01*
X0052801Y0057500D01*
X0055537Y0057500D01*
X0055537Y0062500D02*
X0060301Y0062500D01*
X0065301Y0057500D01*
X0065301Y0055000D01*
X0060301Y0050000D01*
X0060301Y0045000D01*
X0070301Y0045000D02*
X0070301Y0060000D01*
X0062801Y0067500D01*
X0055537Y0067500D01*
X0055537Y0072500D02*
X0065301Y0072500D01*
X0080301Y0057500D01*
X0080301Y0045000D01*
X0035065Y0062500D02*
X0030301Y0062500D01*
X0025301Y0057500D01*
X0025301Y0055000D01*
X0030301Y0050000D01*
X0030301Y0045000D01*
X0020301Y0045000D02*
X0020301Y0060000D01*
X0027801Y0067500D01*
X0035065Y0067500D01*
X0035065Y0072500D02*
X0025301Y0072500D01*
X0010301Y0057500D01*
X0010301Y0045000D01*
M02*
