<?xml version="1.0" encoding="UTF-8"?>
<svg xmlns="http://www.w3.org/2000/svg" xmlns:xlink="http://www.w3.org/1999/xlink" width="85pt" height="59pt" viewBox="0 0 85 59" version="1.1">
<g id="surface53527">
<path style="fill:none;stroke-width:0.016;stroke-linecap:round;stroke-linejoin:miter;stroke:rgb(0%,0%,0%);stroke-opacity:1;stroke-miterlimit:10;" d="M 0.0285682 0.0243864 L 1.091068 0.0243864 " transform="matrix(72,0,0,-72,2.40012,57.46676)"/>
<path style="fill:none;stroke-width:0.016;stroke-linecap:round;stroke-linejoin:miter;stroke:rgb(0%,0%,0%);stroke-opacity:1;stroke-miterlimit:10;" d="M 1.091068 0.0243864 L 1.091068 0.761854 " transform="matrix(72,0,0,-72,2.40012,57.46676)"/>
<path style="fill:none;stroke-width:0.016;stroke-linecap:round;stroke-linejoin:miter;stroke:rgb(0%,0%,0%);stroke-opacity:1;stroke-miterlimit:10;" d="M 1.091068 0.761854 L 0.0285682 0.761854 " transform="matrix(72,0,0,-72,2.40012,57.46676)"/>
<path style="fill:none;stroke-width:0.016;stroke-linecap:round;stroke-linejoin:miter;stroke:rgb(0%,0%,0%);stroke-opacity:1;stroke-miterlimit:10;" d="M 0.0285682 0.761854 L 0.0285682 0.0243864 " transform="matrix(72,0,0,-72,2.40012,57.46676)"/>
<path style=" stroke:none;fill-rule:evenodd;fill:rgb(0%,0%,0%);fill-opacity:1;" d="M 78.726562 50.3125 C 78.726562 46.085938 72.390625 46.085938 72.390625 50.3125 C 72.390625 54.535156 78.726562 54.535156 78.726562 50.3125 "/>
<path style=" stroke:none;fill-rule:evenodd;fill:rgb(0%,0%,0%);fill-opacity:1;" d="M 78.726562 8.011719 C 78.726562 3.789062 72.390625 3.789062 72.390625 8.011719 C 72.390625 12.234375 78.726562 12.234375 78.726562 8.011719 "/>
<path style=" stroke:none;fill-rule:evenodd;fill:rgb(0%,0%,0%);fill-opacity:1;" d="M 13.027344 8.011719 C 13.027344 3.789062 6.691406 3.789062 6.691406 8.011719 C 6.691406 12.234375 13.027344 12.234375 13.027344 8.011719 "/>
<path style=" stroke:none;fill-rule:evenodd;fill:rgb(0%,0%,0%);fill-opacity:1;" d="M 13.027344 50.3125 C 13.027344 46.085938 6.691406 46.085938 6.691406 50.3125 C 6.691406 54.535156 13.027344 54.535156 13.027344 50.3125 "/>
<path style=" stroke:none;fill-rule:evenodd;fill:rgb(0%,0%,0%);fill-opacity:1;" d="M 46.453125 45.265625 L 52.980469 45.265625 L 52.980469 40.4375 L 46.453125 40.4375 Z M 46.453125 45.265625 "/>
<path style=" stroke:none;fill-rule:evenodd;fill:rgb(0%,0%,0%);fill-opacity:1;" d="M 46.453125 35.058594 L 52.980469 35.058594 L 52.980469 30.230469 L 46.453125 30.230469 Z M 46.453125 35.058594 "/>
<path style=" stroke:none;fill-rule:evenodd;fill:rgb(0%,0%,0%);fill-opacity:1;" d="M 28.109375 32.300781 L 32.9375 32.300781 L 32.9375 25.773438 L 28.109375 25.773438 Z M 28.109375 32.300781 "/>
<path style=" stroke:none;fill-rule:evenodd;fill:rgb(0%,0%,0%);fill-opacity:1;" d="M 17.902344 32.300781 L 22.730469 32.300781 L 22.730469 25.773438 L 17.902344 25.773438 Z M 17.902344 32.300781 "/>
<path style=" stroke:none;fill-rule:evenodd;fill:rgb(0%,0%,0%);fill-opacity:1;" d="M 17.625 27.8125 C 17.625 24.789062 15.175781 22.339844 12.152344 22.339844 C 9.132812 22.339844 6.679688 24.789062 6.679688 27.8125 C 6.679688 30.832031 9.132812 33.285156 12.152344 33.285156 C 15.175781 33.285156 17.625 30.832031 17.625 27.8125 "/>
<path style=" stroke:none;fill-rule:evenodd;fill:rgb(0%,0%,0%);fill-opacity:1;" d="M 17.644531 39.972656 C 17.644531 36.949219 15.191406 34.5 12.171875 34.5 C 9.148438 34.5 6.699219 36.949219 6.699219 39.972656 C 6.699219 42.992188 9.148438 45.441406 12.171875 45.441406 C 15.191406 45.441406 17.644531 42.992188 17.644531 39.972656 "/>
<path style=" stroke:none;fill-rule:evenodd;fill:rgb(0%,0%,0%);fill-opacity:1;" d="M 36.03125 18.8125 C 36.03125 15.789062 33.582031 13.339844 30.558594 13.339844 C 27.535156 13.339844 25.085938 15.789062 25.085938 18.8125 C 25.085938 21.835938 27.535156 24.285156 30.558594 24.285156 C 33.582031 24.285156 36.03125 21.835938 36.03125 18.8125 "/>
<path style=" stroke:none;fill-rule:evenodd;fill:rgb(0%,0%,0%);fill-opacity:1;" d="M 48.628906 17.929688 C 48.628906 14.90625 46.179688 12.457031 43.160156 12.457031 C 40.136719 12.457031 37.6875 14.90625 37.6875 17.929688 C 37.6875 20.953125 40.136719 23.402344 43.160156 23.402344 C 46.179688 23.402344 48.628906 20.953125 48.628906 17.929688 "/>
<path style=" stroke:none;fill-rule:evenodd;fill:rgb(0%,0%,0%);fill-opacity:1;" d="M 60.332031 23.3125 C 60.332031 20.289062 57.878906 17.839844 54.859375 17.839844 C 51.835938 17.839844 49.386719 20.289062 49.386719 23.3125 C 49.386719 26.335938 51.835938 28.785156 54.859375 28.785156 C 57.878906 28.785156 60.332031 26.335938 60.332031 23.3125 "/>
<path style=" stroke:none;fill-rule:evenodd;fill:rgb(0%,0%,0%);fill-opacity:1;" d="M 68.429688 14.292969 C 68.429688 11.273438 65.980469 8.820312 62.957031 8.820312 C 59.9375 8.820312 57.488281 11.273438 57.488281 14.292969 C 57.488281 17.316406 59.9375 19.765625 62.957031 19.765625 C 65.980469 19.765625 68.429688 17.316406 68.429688 14.292969 "/>
<path style=" stroke:none;fill-rule:evenodd;fill:rgb(0%,0%,0%);fill-opacity:1;" d="M 77.429688 23.3125 C 77.429688 20.289062 74.980469 17.839844 71.957031 17.839844 C 68.9375 17.839844 66.488281 20.289062 66.488281 23.3125 C 66.488281 26.335938 68.9375 28.785156 71.957031 28.785156 C 74.980469 28.785156 77.429688 26.335938 77.429688 23.3125 "/>
<path style=" stroke:none;fill-rule:evenodd;fill:rgb(0%,0%,0%);fill-opacity:1;" d="M 23.429688 16.113281 C 23.429688 13.089844 20.980469 10.640625 17.957031 10.640625 C 14.9375 10.640625 12.488281 13.089844 12.488281 16.113281 C 12.488281 19.132812 14.9375 21.585938 17.957031 21.585938 C 20.980469 21.585938 23.429688 19.132812 23.429688 16.113281 "/>
<path style=" stroke:none;fill-rule:evenodd;fill:rgb(0%,0%,0%);fill-opacity:1;" d="M 57.765625 37.050781 L 60.609375 37.050781 L 60.609375 33.921875 L 57.765625 33.921875 Z M 57.765625 37.050781 "/>
<path style=" stroke:none;fill-rule:evenodd;fill:rgb(0%,0%,0%);fill-opacity:1;" d="M 63.148438 37.050781 L 65.992188 37.050781 L 65.992188 33.921875 L 63.148438 33.921875 Z M 63.148438 37.050781 "/>
<path style=" stroke:none;fill-rule:evenodd;fill:rgb(0%,0%,0%);fill-opacity:1;" d="M 60.457031 31.382812 L 63.300781 31.382812 L 63.300781 28.253906 L 60.457031 28.253906 Z M 60.457031 31.382812 "/>
<path style=" stroke:none;fill-rule:evenodd;fill:rgb(0%,0%,0%);fill-opacity:1;" d="M 59.71875 45.640625 L 62.5625 45.640625 L 62.5625 42.511719 L 59.71875 42.511719 Z M 59.71875 45.640625 "/>
<path style=" stroke:none;fill-rule:evenodd;fill:rgb(0%,0%,0%);fill-opacity:1;" d="M 62.410156 51.308594 L 65.253906 51.308594 L 65.253906 48.179688 L 62.410156 48.179688 Z M 62.410156 51.308594 "/>
<path style=" stroke:none;fill-rule:evenodd;fill:rgb(0%,0%,0%);fill-opacity:1;" d="M 57.027344 51.308594 L 59.871094 51.308594 L 59.871094 48.179688 L 57.027344 48.179688 Z M 57.027344 51.308594 "/>
<path style=" stroke:none;fill-rule:evenodd;fill:rgb(0%,0%,0%);fill-opacity:1;" d="M 34.929688 49.246094 L 41.742188 49.246094 L 41.742188 46.96875 L 34.929688 46.96875 Z M 34.929688 49.246094 "/>
<path style=" stroke:none;fill-rule:evenodd;fill:rgb(0%,0%,0%);fill-opacity:1;" d="M 34.929688 45.644531 L 41.742188 45.644531 L 41.742188 43.367188 L 34.929688 43.367188 Z M 34.929688 45.644531 "/>
<path style=" stroke:none;fill-rule:evenodd;fill:rgb(0%,0%,0%);fill-opacity:1;" d="M 34.929688 42.046875 L 41.742188 42.046875 L 41.742188 39.769531 L 34.929688 39.769531 Z M 34.929688 42.046875 "/>
<path style=" stroke:none;fill-rule:evenodd;fill:rgb(0%,0%,0%);fill-opacity:1;" d="M 34.929688 38.445312 L 41.742188 38.445312 L 41.742188 36.167969 L 34.929688 36.167969 Z M 34.929688 38.445312 "/>
<path style=" stroke:none;fill-rule:evenodd;fill:rgb(0%,0%,0%);fill-opacity:1;" d="M 20.1875 38.445312 L 27 38.445312 L 27 36.167969 L 20.1875 36.167969 Z M 20.1875 38.445312 "/>
<path style=" stroke:none;fill-rule:evenodd;fill:rgb(0%,0%,0%);fill-opacity:1;" d="M 20.1875 42.046875 L 27 42.046875 L 27 39.769531 L 20.1875 39.769531 Z M 20.1875 42.046875 "/>
<path style=" stroke:none;fill-rule:evenodd;fill:rgb(0%,0%,0%);fill-opacity:1;" d="M 20.1875 45.644531 L 27 45.644531 L 27 43.367188 L 20.1875 43.367188 Z M 20.1875 45.644531 "/>
<path style=" stroke:none;fill-rule:evenodd;fill:rgb(0%,0%,0%);fill-opacity:1;" d="M 20.1875 49.246094 L 27 49.246094 L 27 46.96875 L 20.1875 46.96875 Z M 20.1875 49.246094 "/>
<path style=" stroke:none;fill-rule:evenodd;fill:rgb(0%,0%,0%);fill-opacity:1;" d="M 35.75 34.699219 L 39.160156 34.699219 L 39.160156 31.003906 L 35.75 31.003906 Z M 35.75 34.699219 "/>
<path style=" stroke:none;fill-rule:evenodd;fill:rgb(0%,0%,0%);fill-opacity:1;" d="M 40.570312 34.699219 L 43.980469 34.699219 L 43.980469 31.003906 L 40.570312 31.003906 Z M 40.570312 34.699219 "/>
<path style=" stroke:none;fill-rule:evenodd;fill:rgb(0%,0%,0%);fill-opacity:1;" d="M 39.027344 28.335938 L 42.4375 28.335938 L 42.4375 24.640625 L 39.027344 24.640625 Z M 39.027344 28.335938 "/>
<path style=" stroke:none;fill-rule:evenodd;fill:rgb(0%,0%,0%);fill-opacity:1;" d="M 43.84375 28.335938 L 47.253906 28.335938 L 47.253906 24.640625 L 43.84375 24.640625 Z M 43.84375 28.335938 "/>
<path style=" stroke:none;fill-rule:evenodd;fill:rgb(0%,0%,0%);fill-opacity:1;" d="M 55.925781 41.855469 L 59.335938 41.855469 L 59.335938 38.160156 L 55.925781 38.160156 Z M 55.925781 41.855469 "/>
<path style=" stroke:none;fill-rule:evenodd;fill:rgb(0%,0%,0%);fill-opacity:1;" d="M 60.746094 41.855469 L 64.15625 41.855469 L 64.15625 38.160156 L 60.746094 38.160156 Z M 60.746094 41.855469 "/>
<path style=" stroke:none;fill-rule:evenodd;fill:rgb(0%,0%,0%);fill-opacity:1;" d="M 67.84375 40.070312 L 71.253906 40.070312 L 71.253906 36.375 L 67.84375 36.375 Z M 67.84375 40.070312 "/>
<path style=" stroke:none;fill-rule:evenodd;fill:rgb(0%,0%,0%);fill-opacity:1;" d="M 72.664062 40.070312 L 76.074219 40.070312 L 76.074219 36.375 L 72.664062 36.375 Z M 72.664062 40.070312 "/>
<path style=" stroke:none;fill-rule:evenodd;fill:rgb(0%,0%,0%);fill-opacity:1;" d="M 74.867188 34.160156 L 78.277344 34.160156 L 78.277344 30.464844 L 74.867188 30.464844 Z M 74.867188 34.160156 "/>
<path style=" stroke:none;fill-rule:evenodd;fill:rgb(0%,0%,0%);fill-opacity:1;" d="M 70.046875 34.160156 L 73.457031 34.160156 L 73.457031 30.464844 L 70.046875 30.464844 Z M 70.046875 34.160156 "/>
<path style=" stroke:none;fill-rule:evenodd;fill:rgb(0%,0%,0%);fill-opacity:1;" d="M 51.847656 51.015625 L 55.257812 51.015625 L 55.257812 47.320312 L 51.847656 47.320312 Z M 51.847656 51.015625 "/>
<path style=" stroke:none;fill-rule:evenodd;fill:rgb(0%,0%,0%);fill-opacity:1;" d="M 47.027344 51.015625 L 50.4375 51.015625 L 50.4375 47.320312 L 47.027344 47.320312 Z M 47.027344 51.015625 "/>
</g>
</svg>
