<?xml version="1.0" encoding="UTF-8"?>
<svg xmlns="http://www.w3.org/2000/svg" xmlns:xlink="http://www.w3.org/1999/xlink" width="250pt" height="188pt" viewBox="0 0 250 188" version="1.1">
<g id="surface142887">
<path style="fill:none;stroke-width:0.012;stroke-linecap:round;stroke-linejoin:miter;stroke:rgb(0%,0%,0%);stroke-opacity:1;stroke-miterlimit:10;" d="M 0.015987 0.508083 L 0.015987 2.870171 " transform="matrix(72,0,0,-72,10.661436,215.601524)"/>
<path style="fill:none;stroke-width:0.012;stroke-linecap:round;stroke-linejoin:miter;stroke:rgb(0%,0%,0%);stroke-opacity:1;stroke-miterlimit:10;" d="M 0.015987 2.870171 L 3.16551 2.870171 " transform="matrix(72,0,0,-72,10.661436,215.601524)"/>
<path style="fill:none;stroke-width:0.012;stroke-linecap:round;stroke-linejoin:miter;stroke:rgb(0%,0%,0%);stroke-opacity:1;stroke-miterlimit:10;" d="M 3.16551 2.870171 L 3.16551 0.508083 " transform="matrix(72,0,0,-72,10.661436,215.601524)"/>
<path style="fill:none;stroke-width:0.012;stroke-linecap:round;stroke-linejoin:miter;stroke:rgb(0%,0%,0%);stroke-opacity:1;stroke-miterlimit:10;" d="M 3.16551 0.508083 L 0.015987 0.508083 " transform="matrix(72,0,0,-72,10.661436,215.601524)"/>
<path style=" stroke:none;fill-rule:evenodd;fill:rgb(0%,0%,0%);fill-opacity:1;" d="M 43.925781 147.773438 L 48.101562 147.773438 L 48.101562 145.398438 L 43.925781 145.398438 Z M 43.925781 147.773438 "/>
<path style=" stroke:none;fill-rule:evenodd;fill:rgb(0%,0%,0%);fill-opacity:1;" d="M 86.160156 147.773438 L 90.335938 147.773438 L 90.335938 145.398438 L 86.160156 145.398438 Z M 86.160156 147.773438 "/>
<path style=" stroke:none;fill-rule:evenodd;fill:rgb(0%,0%,0%);fill-opacity:1;" d="M 80.542969 165.679688 L 82.917969 165.679688 L 82.917969 161.503906 L 80.542969 161.503906 Z M 80.542969 165.679688 "/>
<path style=" stroke:none;fill-rule:evenodd;fill:rgb(0%,0%,0%);fill-opacity:1;" d="M 51.628906 165.964844 L 54.003906 165.964844 L 54.003906 161.789062 L 51.628906 161.789062 Z M 51.628906 165.964844 "/>
<path style=" stroke:none;fill-rule:evenodd;fill:rgb(0%,0%,0%);fill-opacity:1;" d="M 37.652344 168.554688 L 54.375 168.554688 L 54.375 159.199219 L 37.652344 159.199219 Z M 37.652344 168.554688 "/>
<path style=" stroke:none;fill-rule:evenodd;fill:rgb(0%,0%,0%);fill-opacity:1;" d="M 41.335938 157.214844 L 50.691406 157.214844 L 50.691406 145.027344 L 41.335938 145.027344 Z M 41.335938 157.214844 "/>
<path style=" stroke:none;fill-rule:evenodd;fill:rgb(0%,0%,0%);fill-opacity:1;" d="M 83.855469 157.214844 L 93.210938 157.214844 L 93.210938 145.027344 L 83.855469 145.027344 Z M 83.855469 157.214844 "/>
<path style=" stroke:none;fill-rule:evenodd;fill:rgb(0%,0%,0%);fill-opacity:1;" d="M 80.03125 168.695312 L 96.898438 168.695312 L 96.898438 159.199219 L 80.03125 159.199219 Z M 80.03125 168.695312 "/>
<path style="fill:none;stroke-width:0.12611;stroke-linecap:round;stroke-linejoin:miter;stroke:rgb(0%,0%,0%);stroke-opacity:1;stroke-miterlimit:10;" d="M 0.458695 1.083062 L 0.340586 1.083062 " transform="matrix(72,0,0,-72,10.661436,215.601524)"/>
<path style="fill:none;stroke-width:0.12611;stroke-linecap:round;stroke-linejoin:miter;stroke:rgb(0%,0%,0%);stroke-opacity:1;stroke-miterlimit:10;" d="M 0.368146 1.289767 L 0.368146 1.407877 " transform="matrix(72,0,0,-72,10.661436,215.601524)"/>
<path style="fill:none;stroke-width:0.12611;stroke-linecap:round;stroke-linejoin:miter;stroke:rgb(0%,0%,0%);stroke-opacity:1;stroke-miterlimit:10;" d="M 0.340586 1.614583 L 0.458695 1.614583 " transform="matrix(72,0,0,-72,10.661436,215.601524)"/>
<path style=" stroke:none;fill-rule:evenodd;fill:rgb(0%,0%,0%);fill-opacity:1;" d="M 50.65625 108.847656 C 50.65625 105.230469 45.226562 105.230469 45.226562 108.847656 C 45.226562 112.46875 50.65625 112.46875 50.65625 108.847656 "/>
<path style=" stroke:none;fill-rule:evenodd;fill:rgb(0%,0%,0%);fill-opacity:1;" d="M 50.65625 114.800781 C 50.65625 111.179688 45.226562 111.179688 45.226562 114.800781 C 45.226562 118.421875 50.65625 118.421875 50.65625 114.800781 "/>
<path style=" stroke:none;fill-rule:evenodd;fill:rgb(0%,0%,0%);fill-opacity:1;" d="M 57.742188 108.847656 C 57.742188 105.230469 52.3125 105.230469 52.3125 108.847656 C 52.3125 112.46875 57.742188 112.46875 57.742188 108.847656 "/>
<path style=" stroke:none;fill-rule:evenodd;fill:rgb(0%,0%,0%);fill-opacity:1;" d="M 50.65625 122.171875 C 50.65625 118.550781 45.226562 118.550781 45.226562 122.171875 C 45.226562 125.792969 50.65625 125.792969 50.65625 122.171875 "/>
<path style=" stroke:none;fill-rule:evenodd;fill:rgb(0%,0%,0%);fill-opacity:1;" d="M 50.65625 128.125 C 50.65625 124.503906 45.226562 124.503906 45.226562 128.125 C 45.226562 131.746094 50.65625 131.746094 50.65625 128.125 "/>
<path style=" stroke:none;fill-rule:evenodd;fill:rgb(0%,0%,0%);fill-opacity:1;" d="M 57.742188 128.125 C 57.742188 124.503906 52.3125 124.503906 52.3125 128.125 C 52.3125 131.746094 57.742188 131.746094 57.742188 128.125 "/>
<path style=" stroke:none;fill-rule:evenodd;fill:rgb(0%,0%,0%);fill-opacity:1;" d="M 82.640625 106.808594 L 85.484375 106.808594 L 85.484375 102.265625 L 82.640625 102.265625 Z M 82.640625 106.808594 "/>
<path style=" stroke:none;fill-rule:evenodd;fill:rgb(0%,0%,0%);fill-opacity:1;" d="M 91.140625 106.808594 L 93.984375 106.808594 L 93.984375 102.265625 L 91.140625 102.265625 Z M 91.140625 106.808594 "/>
<path style=" stroke:none;fill-rule:evenodd;fill:rgb(0%,0%,0%);fill-opacity:1;" d="M 116.84375 46.976562 L 119.6875 46.976562 L 119.6875 42.433594 L 116.84375 42.433594 Z M 116.84375 46.976562 "/>
<path style=" stroke:none;fill-rule:evenodd;fill:rgb(0%,0%,0%);fill-opacity:1;" d="M 125.339844 46.976562 L 128.183594 46.976562 L 128.183594 42.433594 L 125.339844 42.433594 Z M 125.339844 46.976562 "/>
<path style=" stroke:none;fill-rule:evenodd;fill:rgb(0%,0%,0%);fill-opacity:1;" d="M 128.542969 36.609375 L 131.386719 36.609375 L 131.386719 32.066406 L 128.542969 32.066406 Z M 128.542969 36.609375 "/>
<path style=" stroke:none;fill-rule:evenodd;fill:rgb(0%,0%,0%);fill-opacity:1;" d="M 137.039062 36.609375 L 139.882812 36.609375 L 139.882812 32.066406 L 137.039062 32.066406 Z M 137.039062 36.609375 "/>
<path style="fill:none;stroke-width:0.066;stroke-linecap:round;stroke-linejoin:miter;stroke:rgb(0%,0%,0%);stroke-opacity:1;stroke-miterlimit:10;" d="M 1.726979 2.675401 L 1.705006 2.675401 " transform="matrix(72,0,0,-72,10.661436,215.601524)"/>
<path style="fill:none;stroke-width:0.066;stroke-linecap:round;stroke-linejoin:miter;stroke:rgb(0%,0%,0%);stroke-opacity:1;stroke-miterlimit:10;" d="M 1.726979 2.675401 L 1.726979 2.589735 " transform="matrix(72,0,0,-72,10.661436,215.601524)"/>
<path style="fill:none;stroke-width:0.066;stroke-linecap:round;stroke-linejoin:miter;stroke:rgb(0%,0%,0%);stroke-opacity:1;stroke-miterlimit:10;" d="M 1.726979 2.589735 L 1.705006 2.589735 " transform="matrix(72,0,0,-72,10.661436,215.601524)"/>
<path style="fill:none;stroke-width:0.066;stroke-linecap:round;stroke-linejoin:miter;stroke:rgb(0%,0%,0%);stroke-opacity:1;stroke-miterlimit:10;" d="M 1.705006 2.589735 L 1.705006 2.675401 " transform="matrix(72,0,0,-72,10.661436,215.601524)"/>
<path style="fill:none;stroke-width:0.066;stroke-linecap:round;stroke-linejoin:miter;stroke:rgb(0%,0%,0%);stroke-opacity:1;stroke-miterlimit:10;" d="M 1.705006 2.655707 L 1.726979 2.655707 " transform="matrix(72,0,0,-72,10.661436,215.601524)"/>
<path style="fill:none;stroke-width:0.066;stroke-linecap:round;stroke-linejoin:miter;stroke:rgb(0%,0%,0%);stroke-opacity:1;stroke-miterlimit:10;" d="M 1.56449 2.215711 L 1.542517 2.215711 " transform="matrix(72,0,0,-72,10.661436,215.601524)"/>
<path style="fill:none;stroke-width:0.066;stroke-linecap:round;stroke-linejoin:miter;stroke:rgb(0%,0%,0%);stroke-opacity:1;stroke-miterlimit:10;" d="M 1.542517 2.215711 L 1.542517 2.301432 " transform="matrix(72,0,0,-72,10.661436,215.601524)"/>
<path style="fill:none;stroke-width:0.066;stroke-linecap:round;stroke-linejoin:miter;stroke:rgb(0%,0%,0%);stroke-opacity:1;stroke-miterlimit:10;" d="M 1.542517 2.301432 L 1.56449 2.301432 " transform="matrix(72,0,0,-72,10.661436,215.601524)"/>
<path style="fill:none;stroke-width:0.066;stroke-linecap:round;stroke-linejoin:miter;stroke:rgb(0%,0%,0%);stroke-opacity:1;stroke-miterlimit:10;" d="M 1.56449 2.301432 L 1.56449 2.215711 " transform="matrix(72,0,0,-72,10.661436,215.601524)"/>
<path style="fill:none;stroke-width:0.066;stroke-linecap:round;stroke-linejoin:miter;stroke:rgb(0%,0%,0%);stroke-opacity:1;stroke-miterlimit:10;" d="M 1.56449 2.281683 L 1.542517 2.281683 " transform="matrix(72,0,0,-72,10.661436,215.601524)"/>
<path style="fill:none;stroke-width:0.066;stroke-linecap:round;stroke-linejoin:miter;stroke:rgb(0%,0%,0%);stroke-opacity:1;stroke-miterlimit:10;" d="M 1.0895 1.700412 L 1.067474 1.700412 " transform="matrix(72,0,0,-72,10.661436,215.601524)"/>
<path style="fill:none;stroke-width:0.066;stroke-linecap:round;stroke-linejoin:miter;stroke:rgb(0%,0%,0%);stroke-opacity:1;stroke-miterlimit:10;" d="M 1.0895 1.700412 L 1.0895 1.614746 " transform="matrix(72,0,0,-72,10.661436,215.601524)"/>
<path style="fill:none;stroke-width:0.066;stroke-linecap:round;stroke-linejoin:miter;stroke:rgb(0%,0%,0%);stroke-opacity:1;stroke-miterlimit:10;" d="M 1.0895 1.614746 L 1.067474 1.614746 " transform="matrix(72,0,0,-72,10.661436,215.601524)"/>
<path style="fill:none;stroke-width:0.066;stroke-linecap:round;stroke-linejoin:miter;stroke:rgb(0%,0%,0%);stroke-opacity:1;stroke-miterlimit:10;" d="M 1.067474 1.614746 L 1.067474 1.700412 " transform="matrix(72,0,0,-72,10.661436,215.601524)"/>
<path style="fill:none;stroke-width:0.066;stroke-linecap:round;stroke-linejoin:miter;stroke:rgb(0%,0%,0%);stroke-opacity:1;stroke-miterlimit:10;" d="M 1.067474 1.680718 L 1.0895 1.680718 " transform="matrix(72,0,0,-72,10.661436,215.601524)"/>
<path style=" stroke:none;fill-rule:evenodd;fill:rgb(0%,0%,0%);fill-opacity:1;" d="M 86.894531 106.800781 L 89.730469 106.800781 L 89.730469 102.265625 L 86.894531 102.265625 Z M 86.894531 106.800781 "/>
<path style=" stroke:none;fill-rule:evenodd;fill:rgb(0%,0%,0%);fill-opacity:1;" d="M 121.097656 46.976562 L 123.933594 46.976562 L 123.933594 42.441406 L 121.097656 42.441406 Z M 121.097656 46.976562 "/>
<path style=" stroke:none;fill-rule:evenodd;fill:rgb(0%,0%,0%);fill-opacity:1;" d="M 132.796875 36.601562 L 135.632812 36.601562 L 135.632812 32.066406 L 132.796875 32.066406 Z M 132.796875 36.601562 "/>
<path style=" stroke:none;fill-rule:evenodd;fill:rgb(0%,0%,0%);fill-opacity:1;" d="M 99.9375 57.746094 C 99.9375 52.992188 92.804688 52.992188 92.804688 57.746094 C 92.804688 62.503906 99.9375 62.503906 99.9375 57.746094 "/>
<path style=" stroke:none;fill-rule:evenodd;fill:rgb(0%,0%,0%);fill-opacity:1;" d="M 99.9375 86.09375 C 99.9375 81.339844 92.804688 81.339844 92.804688 86.09375 C 92.804688 90.847656 99.9375 90.847656 99.9375 86.09375 "/>
<path style=" stroke:none;fill-rule:evenodd;fill:rgb(0%,0%,0%);fill-opacity:1;" d="M 103.734375 108.148438 C 103.734375 103.394531 96.605469 103.394531 96.605469 108.148438 C 96.605469 112.902344 103.734375 112.902344 103.734375 108.148438 "/>
<path style=" stroke:none;fill-rule:evenodd;fill:rgb(0%,0%,0%);fill-opacity:1;" d="M 110.820312 122.320312 C 110.820312 117.566406 103.691406 117.566406 103.691406 122.320312 C 103.691406 127.074219 110.820312 127.074219 110.820312 122.320312 "/>
<path style=" stroke:none;fill-rule:evenodd;fill:rgb(0%,0%,0%);fill-opacity:1;" d="M 103.734375 136.496094 C 103.734375 131.738281 96.605469 131.738281 96.605469 136.496094 C 96.605469 141.25 103.734375 141.25 103.734375 136.496094 "/>
<path style=" stroke:none;fill-rule:evenodd;fill:rgb(0%,0%,0%);fill-opacity:1;" d="M 74.820312 136.496094 C 74.820312 131.738281 67.691406 131.738281 67.691406 136.496094 C 67.691406 141.25 74.820312 141.25 74.820312 136.496094 "/>
<path style=" stroke:none;fill-rule:evenodd;fill:rgb(0%,0%,0%);fill-opacity:1;" d="M 74.820312 108.148438 C 74.820312 103.394531 67.691406 103.394531 67.691406 108.148438 C 67.691406 112.902344 74.820312 112.902344 74.820312 108.148438 "/>
<path style=" stroke:none;fill-rule:evenodd;fill:rgb(0%,0%,0%);fill-opacity:1;" d="M 71.023438 86.09375 C 71.023438 81.339844 63.890625 81.339844 63.890625 86.09375 C 63.890625 90.847656 71.023438 90.847656 71.023438 86.09375 "/>
<path style=" stroke:none;fill-rule:evenodd;fill:rgb(0%,0%,0%);fill-opacity:1;" d="M 63.9375 71.921875 C 63.9375 67.167969 56.804688 67.167969 56.804688 71.921875 C 56.804688 76.675781 63.9375 76.675781 63.9375 71.921875 "/>
<path style=" stroke:none;fill-rule:evenodd;fill:rgb(0%,0%,0%);fill-opacity:1;" d="M 71.023438 57.746094 C 71.023438 52.992188 63.890625 52.992188 63.890625 57.746094 C 63.890625 62.503906 71.023438 62.503906 71.023438 57.746094 "/>
<path style=" stroke:none;fill-rule:evenodd;fill:rgb(0%,0%,0%);fill-opacity:1;" d="M 91.914062 119.347656 L 97.308594 119.347656 L 97.308594 113.667969 L 91.914062 113.667969 Z M 91.914062 119.347656 "/>
<path style=" stroke:none;fill-rule:evenodd;fill:rgb(0%,0%,0%);fill-opacity:1;" d="M 91.914062 130.972656 L 97.308594 130.972656 L 97.308594 125.292969 L 91.914062 125.292969 Z M 91.914062 130.972656 "/>
<path style=" stroke:none;fill-rule:evenodd;fill:rgb(0%,0%,0%);fill-opacity:1;" d="M 24.234375 53.921875 C 24.234375 48.160156 15.59375 48.160156 15.59375 53.921875 C 15.59375 59.679688 24.234375 59.679688 24.234375 53.921875 "/>
<path style=" stroke:none;fill-rule:evenodd;fill:rgb(0%,0%,0%);fill-opacity:1;" d="M 207.832031 31.421875 C 207.832031 25.660156 199.195312 25.660156 199.195312 31.421875 C 199.195312 37.179688 207.832031 37.179688 207.832031 31.421875 "/>
<path style=" stroke:none;fill-rule:evenodd;fill:rgb(0%,0%,0%);fill-opacity:1;" d="M 221.332031 31.421875 C 221.332031 25.660156 212.695312 25.660156 212.695312 31.421875 C 212.695312 37.179688 221.332031 37.179688 221.332031 31.421875 "/>
<path style=" stroke:none;fill-rule:evenodd;fill:rgb(0%,0%,0%);fill-opacity:1;" d="M 195.519531 39.519531 C 195.519531 33.378906 186.304688 33.378906 186.304688 39.519531 C 186.304688 45.664062 195.519531 45.664062 195.519531 39.519531 "/>
<path style=" stroke:none;fill-rule:evenodd;fill:rgb(0%,0%,0%);fill-opacity:1;" d="M 196.421875 71.019531 C 196.421875 64.878906 187.207031 64.878906 187.207031 71.019531 C 187.207031 77.164062 196.421875 77.164062 196.421875 71.019531 "/>
<path style=" stroke:none;fill-rule:evenodd;fill:rgb(0%,0%,0%);fill-opacity:1;" d="M 194.621094 152.921875 C 194.621094 146.777344 185.40625 146.777344 185.40625 152.921875 C 185.40625 159.066406 194.621094 159.066406 194.621094 152.921875 "/>
<path style=" stroke:none;fill-rule:evenodd;fill:rgb(0%,0%,0%);fill-opacity:1;" d="M 197.320312 170.019531 C 197.320312 163.878906 188.105469 163.878906 188.105469 170.019531 C 188.105469 176.164062 197.320312 176.164062 197.320312 170.019531 "/>
<path style=" stroke:none;fill-rule:evenodd;fill:rgb(0%,0%,0%);fill-opacity:1;" d="M 24.519531 71.921875 C 24.519531 65.777344 15.304688 65.777344 15.304688 71.921875 C 15.304688 78.066406 24.519531 78.066406 24.519531 71.921875 "/>
<path style=" stroke:none;fill-rule:evenodd;fill:rgb(0%,0%,0%);fill-opacity:1;" d="M 24.519531 35.921875 C 24.519531 29.777344 15.304688 29.777344 15.304688 35.921875 C 15.304688 42.066406 24.519531 42.066406 24.519531 35.921875 "/>
<path style="fill:none;stroke-width:0.108;stroke-linecap:round;stroke-linejoin:miter;stroke:rgb(0%,0%,0%);stroke-opacity:1;stroke-miterlimit:10;" d="M 0.297997 2.445583 L 0.297997 2.545572 " transform="matrix(72,0,0,-72,10.661436,215.601524)"/>
<path style="fill:none;stroke-width:0.108;stroke-linecap:round;stroke-linejoin:miter;stroke:rgb(0%,0%,0%);stroke-opacity:1;stroke-miterlimit:10;" d="M 1.18401 2.545572 L 1.18401 2.445583 " transform="matrix(72,0,0,-72,10.661436,215.601524)"/>
<path style="fill:none;stroke-width:0.07543;stroke-linecap:round;stroke-linejoin:miter;stroke:rgb(0%,0%,0%);stroke-opacity:1;stroke-miterlimit:10;" d="M 1.46602 2.54937 L 1.46602 2.616753 " transform="matrix(72,0,0,-72,10.661436,215.601524)"/>
<path style="fill:none;stroke-width:0.07543;stroke-linecap:round;stroke-linejoin:miter;stroke:rgb(0%,0%,0%);stroke-opacity:1;stroke-miterlimit:10;" d="M 1.566009 2.616753 L 1.566009 2.54937 " transform="matrix(72,0,0,-72,10.661436,215.601524)"/>
<path style="fill:none;stroke-width:0.07543;stroke-linecap:round;stroke-linejoin:miter;stroke:rgb(0%,0%,0%);stroke-opacity:1;stroke-miterlimit:10;" d="M 1.890987 2.586859 L 1.890987 2.654296 " transform="matrix(72,0,0,-72,10.661436,215.601524)"/>
<path style="fill:none;stroke-width:0.07543;stroke-linecap:round;stroke-linejoin:miter;stroke:rgb(0%,0%,0%);stroke-opacity:1;stroke-miterlimit:10;" d="M 1.990976 2.654296 L 1.990976 2.586859 " transform="matrix(72,0,0,-72,10.661436,215.601524)"/>
<path style="fill:none;stroke-width:0.07543;stroke-linecap:round;stroke-linejoin:miter;stroke:rgb(0%,0%,0%);stroke-opacity:1;stroke-miterlimit:10;" d="M 2.607296 1.925781 L 2.674733 1.925781 " transform="matrix(72,0,0,-72,10.661436,215.601524)"/>
<path style="fill:none;stroke-width:0.07543;stroke-linecap:round;stroke-linejoin:miter;stroke:rgb(0%,0%,0%);stroke-opacity:1;stroke-miterlimit:10;" d="M 2.674733 1.831271 L 2.607296 1.831271 " transform="matrix(72,0,0,-72,10.661436,215.601524)"/>
<path style="fill:none;stroke-width:0.07543;stroke-linecap:round;stroke-linejoin:miter;stroke:rgb(0%,0%,0%);stroke-opacity:1;stroke-miterlimit:10;" d="M 2.607296 1.752549 L 2.674733 1.752549 " transform="matrix(72,0,0,-72,10.661436,215.601524)"/>
<path style="fill:none;stroke-width:0.07543;stroke-linecap:round;stroke-linejoin:miter;stroke:rgb(0%,0%,0%);stroke-opacity:1;stroke-miterlimit:10;" d="M 2.674733 1.65804 L 2.607296 1.65804 " transform="matrix(72,0,0,-72,10.661436,215.601524)"/>
<path style="fill:none;stroke-width:0.07543;stroke-linecap:round;stroke-linejoin:miter;stroke:rgb(0%,0%,0%);stroke-opacity:1;stroke-miterlimit:10;" d="M 2.607296 1.250759 L 2.674733 1.250759 " transform="matrix(72,0,0,-72,10.661436,215.601524)"/>
<path style="fill:none;stroke-width:0.07543;stroke-linecap:round;stroke-linejoin:miter;stroke:rgb(0%,0%,0%);stroke-opacity:1;stroke-miterlimit:10;" d="M 2.674733 1.156304 L 2.607296 1.156304 " transform="matrix(72,0,0,-72,10.661436,215.601524)"/>
<path style="fill:none;stroke-width:0.07543;stroke-linecap:round;stroke-linejoin:miter;stroke:rgb(0%,0%,0%);stroke-opacity:1;stroke-miterlimit:10;" d="M 2.607296 1.077528 L 2.674733 1.077528 " transform="matrix(72,0,0,-72,10.661436,215.601524)"/>
<path style="fill:none;stroke-width:0.07543;stroke-linecap:round;stroke-linejoin:miter;stroke:rgb(0%,0%,0%);stroke-opacity:1;stroke-miterlimit:10;" d="M 2.674733 0.983072 L 2.607296 0.983072 " transform="matrix(72,0,0,-72,10.661436,215.601524)"/>
<path style="fill:none;stroke-width:0.07543;stroke-linecap:round;stroke-linejoin:miter;stroke:rgb(0%,0%,0%);stroke-opacity:1;stroke-miterlimit:10;" d="M 1.52852 0.954264 L 1.52852 0.886827 " transform="matrix(72,0,0,-72,10.661436,215.601524)"/>
<path style="fill:none;stroke-width:0.07543;stroke-linecap:round;stroke-linejoin:miter;stroke:rgb(0%,0%,0%);stroke-opacity:1;stroke-miterlimit:10;" d="M 1.428476 0.886827 L 1.428476 0.954264 " transform="matrix(72,0,0,-72,10.661436,215.601524)"/>
<path style="fill:none;stroke-width:0.07543;stroke-linecap:round;stroke-linejoin:miter;stroke:rgb(0%,0%,0%);stroke-opacity:1;stroke-miterlimit:10;" d="M 1.428476 0.716796 L 1.428476 0.649359 " transform="matrix(72,0,0,-72,10.661436,215.601524)"/>
<path style="fill:none;stroke-width:0.07543;stroke-linecap:round;stroke-linejoin:miter;stroke:rgb(0%,0%,0%);stroke-opacity:1;stroke-miterlimit:10;" d="M 1.52852 0.649359 L 1.52852 0.716796 " transform="matrix(72,0,0,-72,10.661436,215.601524)"/>
<path style="fill:none;stroke-width:0.07543;stroke-linecap:round;stroke-linejoin:miter;stroke:rgb(0%,0%,0%);stroke-opacity:1;stroke-miterlimit:10;" d="M 0.46602 2.011827 L 0.46602 2.079264 " transform="matrix(72,0,0,-72,10.661436,215.601524)"/>
<path style="fill:none;stroke-width:0.07543;stroke-linecap:round;stroke-linejoin:miter;stroke:rgb(0%,0%,0%);stroke-opacity:1;stroke-miterlimit:10;" d="M 0.365976 2.079264 L 0.365976 2.011827 " transform="matrix(72,0,0,-72,10.661436,215.601524)"/>
<path style=" stroke:none;fill-rule:evenodd;fill:rgb(0%,0%,0%);fill-opacity:1;" d="M 213.589844 68.15625 C 213.589844 65.015625 211.042969 62.46875 207.902344 62.46875 C 204.757812 62.46875 202.210938 65.015625 202.210938 68.15625 C 202.210938 71.300781 204.757812 73.847656 207.902344 73.847656 C 211.042969 73.847656 213.589844 71.300781 213.589844 68.15625 "/>
<path style=" stroke:none;fill-rule:evenodd;fill:rgb(0%,0%,0%);fill-opacity:1;" d="M 213.589844 105.007812 C 213.589844 101.867188 211.042969 99.320312 207.902344 99.320312 C 204.757812 99.320312 202.210938 101.867188 202.210938 105.007812 C 202.210938 108.148438 204.757812 110.695312 207.902344 110.695312 C 211.042969 110.695312 213.589844 108.148438 213.589844 105.007812 "/>
<path style=" stroke:none;fill-rule:evenodd;fill:rgb(0%,0%,0%);fill-opacity:1;" d="M 213.589844 116.757812 C 213.589844 113.617188 211.042969 111.070312 207.902344 111.070312 C 204.757812 111.070312 202.210938 113.617188 202.210938 116.757812 C 202.210938 119.898438 204.757812 122.445312 207.902344 122.445312 C 211.042969 122.445312 213.589844 119.898438 213.589844 116.757812 "/>
<path style=" stroke:none;fill-rule:evenodd;fill:rgb(0%,0%,0%);fill-opacity:1;" d="M 213.589844 153.609375 C 213.589844 150.464844 211.042969 147.921875 207.902344 147.921875 C 204.757812 147.921875 202.210938 150.464844 202.210938 153.609375 C 202.210938 156.75 204.757812 159.296875 207.902344 159.296875 C 211.042969 159.296875 213.589844 156.75 213.589844 153.609375 "/>
<path style=" stroke:none;fill-rule:evenodd;fill:rgb(0%,0%,0%);fill-opacity:1;" d="M 207.351562 50.835938 L 210.480469 50.835938 L 210.480469 47.992188 L 207.351562 47.992188 Z M 207.351562 50.835938 "/>
<path style=" stroke:none;fill-rule:evenodd;fill:rgb(0%,0%,0%);fill-opacity:1;" d="M 207.351562 45.449219 L 210.480469 45.449219 L 210.480469 42.605469 L 207.351562 42.605469 Z M 207.351562 45.449219 "/>
<path style=" stroke:none;fill-rule:evenodd;fill:rgb(0%,0%,0%);fill-opacity:1;" d="M 213.019531 48.144531 L 216.148438 48.144531 L 216.148438 45.300781 L 213.019531 45.300781 Z M 213.019531 48.144531 "/>
<path style=" stroke:none;fill-rule:evenodd;fill:rgb(0%,0%,0%);fill-opacity:1;" d="M 47.183594 56.617188 L 52.863281 56.617188 L 52.863281 51.222656 L 47.183594 51.222656 Z M 47.183594 56.617188 "/>
<path style=" stroke:none;fill-rule:evenodd;fill:rgb(0%,0%,0%);fill-opacity:1;" d="M 35.5625 56.617188 L 41.242188 56.617188 L 41.242188 51.222656 L 35.5625 51.222656 Z M 35.5625 56.617188 "/>
<path style=" stroke:none;fill-rule:evenodd;fill:rgb(0%,0%,0%);fill-opacity:1;" d="M 120.605469 75.347656 L 119.085938 73.828125 L 116.941406 73.828125 L 115.421875 75.347656 L 115.421875 77.496094 L 116.941406 79.011719 L 119.085938 79.011719 L 120.605469 77.496094 L 120.605469 75.347656 "/>
<path style=" stroke:none;fill-rule:evenodd;fill:rgb(0%,0%,0%);fill-opacity:1;" d="M 124.207031 80.746094 L 122.6875 79.230469 L 120.539062 79.230469 L 119.019531 80.746094 L 119.019531 82.894531 L 120.539062 84.414062 L 122.6875 84.414062 L 124.207031 82.894531 L 124.207031 80.746094 "/>
<path style=" stroke:none;fill-rule:evenodd;fill:rgb(0%,0%,0%);fill-opacity:1;" d="M 127.804688 75.347656 L 126.285156 73.828125 L 124.140625 73.828125 L 122.621094 75.347656 L 122.621094 77.496094 L 124.140625 79.011719 L 126.285156 79.011719 L 127.804688 77.496094 L 127.804688 75.347656 "/>
<path style=" stroke:none;fill-rule:evenodd;fill:rgb(0%,0%,0%);fill-opacity:1;" d="M 112 84.859375 L 116.828125 84.859375 L 116.828125 80.597656 L 112 80.597656 Z M 112 84.859375 "/>
<path style=" stroke:none;fill-rule:evenodd;fill:rgb(0%,0%,0%);fill-opacity:1;" d="M 112 90.246094 L 116.828125 90.246094 L 116.828125 85.984375 L 112 85.984375 Z M 112 90.246094 "/>
<path style=" stroke:none;fill-rule:evenodd;fill:rgb(0%,0%,0%);fill-opacity:1;" d="M 120.957031 71.828125 L 124.652344 71.828125 L 124.652344 68.417969 L 120.957031 68.417969 Z M 120.957031 71.828125 "/>
<path style=" stroke:none;fill-rule:evenodd;fill:rgb(0%,0%,0%);fill-opacity:1;" d="M 125.777344 71.828125 L 129.472656 71.828125 L 129.472656 68.417969 L 125.777344 68.417969 Z M 125.777344 71.828125 "/>
<path style=" stroke:none;fill-rule:evenodd;fill:rgb(0%,0%,0%);fill-opacity:1;" d="M 151.265625 82.917969 L 154.960938 82.917969 L 154.960938 79.507812 L 151.265625 79.507812 Z M 151.265625 82.917969 "/>
<path style=" stroke:none;fill-rule:evenodd;fill:rgb(0%,0%,0%);fill-opacity:1;" d="M 151.265625 87.734375 L 154.960938 87.734375 L 154.960938 84.324219 L 151.265625 84.324219 Z M 151.265625 87.734375 "/>
<path style=" stroke:none;fill-rule:evenodd;fill:rgb(0%,0%,0%);fill-opacity:1;" d="M 109.867188 46.335938 L 113.5625 46.335938 L 113.5625 42.925781 L 109.867188 42.925781 Z M 109.867188 46.335938 "/>
<path style=" stroke:none;fill-rule:evenodd;fill:rgb(0%,0%,0%);fill-opacity:1;" d="M 109.867188 41.515625 L 113.5625 41.515625 L 113.5625 38.105469 L 109.867188 38.105469 Z M 109.867188 41.515625 "/>
<path style=" stroke:none;fill-rule:evenodd;fill:rgb(0%,0%,0%);fill-opacity:1;" d="M 189.964844 31.9375 L 193.660156 31.9375 L 193.660156 28.527344 L 189.964844 28.527344 Z M 189.964844 31.9375 "/>
<path style=" stroke:none;fill-rule:evenodd;fill:rgb(0%,0%,0%);fill-opacity:1;" d="M 189.964844 27.117188 L 193.660156 27.117188 L 193.660156 23.707031 L 189.964844 23.707031 Z M 189.964844 27.117188 "/>
<path style=" stroke:none;fill-rule:evenodd;fill:rgb(0%,0%,0%);fill-opacity:1;" d="M 199.867188 45.117188 L 203.5625 45.117188 L 203.5625 41.707031 L 199.867188 41.707031 Z M 199.867188 45.117188 "/>
<path style=" stroke:none;fill-rule:evenodd;fill:rgb(0%,0%,0%);fill-opacity:1;" d="M 199.867188 49.9375 L 203.5625 49.9375 L 203.5625 46.527344 L 199.867188 46.527344 Z M 199.867188 49.9375 "/>
<path style=" stroke:none;fill-rule:evenodd;fill:rgb(0%,0%,0%);fill-opacity:1;" d="M 201.515625 55.769531 L 204.925781 55.769531 L 204.925781 52.074219 L 201.515625 52.074219 Z M 201.515625 55.769531 "/>
<path style=" stroke:none;fill-rule:evenodd;fill:rgb(0%,0%,0%);fill-opacity:1;" d="M 196.699219 55.769531 L 200.109375 55.769531 L 200.109375 52.074219 L 196.699219 52.074219 Z M 196.699219 55.769531 "/>
<path style=" stroke:none;fill-rule:evenodd;fill:rgb(0%,0%,0%);fill-opacity:1;" d="M 206.597656 40.46875 L 210.007812 40.46875 L 210.007812 36.773438 L 206.597656 36.773438 Z M 206.597656 40.46875 "/>
<path style=" stroke:none;fill-rule:evenodd;fill:rgb(0%,0%,0%);fill-opacity:1;" d="M 211.417969 40.46875 L 214.828125 40.46875 L 214.828125 36.773438 L 211.417969 36.773438 Z M 211.417969 40.46875 "/>
<path style=" stroke:none;fill-rule:evenodd;fill:rgb(0%,0%,0%);fill-opacity:1;" d="M 159.507812 41.976562 L 162.917969 41.976562 L 162.917969 38.28125 L 159.507812 38.28125 Z M 159.507812 41.976562 "/>
<path style=" stroke:none;fill-rule:evenodd;fill:rgb(0%,0%,0%);fill-opacity:1;" d="M 159.507812 46.160156 L 162.917969 46.160156 L 162.917969 42.464844 L 159.507812 42.464844 Z M 159.507812 46.160156 "/>
<path style=" stroke:none;fill-rule:evenodd;fill:rgb(0%,0%,0%);fill-opacity:1;" d="M 159.507812 50.976562 L 162.917969 50.976562 L 162.917969 47.28125 L 159.507812 47.28125 Z M 159.507812 50.976562 "/>
<path style=" stroke:none;fill-rule:evenodd;fill:rgb(0%,0%,0%);fill-opacity:1;" d="M 159.507812 37.160156 L 162.917969 37.160156 L 162.917969 33.464844 L 159.507812 33.464844 Z M 159.507812 37.160156 "/>
<path style=" stroke:none;fill-rule:evenodd;fill:rgb(0%,0%,0%);fill-opacity:1;" d="M 142.117188 21.570312 L 145.527344 21.570312 L 145.527344 17.875 L 142.117188 17.875 Z M 142.117188 21.570312 "/>
<path style=" stroke:none;fill-rule:evenodd;fill:rgb(0%,0%,0%);fill-opacity:1;" d="M 137.300781 21.570312 L 140.710938 21.570312 L 140.710938 17.875 L 137.300781 17.875 Z M 137.300781 21.570312 "/>
<path style=" stroke:none;fill-rule:evenodd;fill:rgb(0%,0%,0%);fill-opacity:1;" d="M 138.515625 43.167969 L 141.925781 43.167969 L 141.925781 39.472656 L 138.515625 39.472656 Z M 138.515625 43.167969 "/>
<path style=" stroke:none;fill-rule:evenodd;fill:rgb(0%,0%,0%);fill-opacity:1;" d="M 133.699219 43.167969 L 137.109375 43.167969 L 137.109375 39.472656 L 133.699219 39.472656 Z M 133.699219 43.167969 "/>
<path style=" stroke:none;fill-rule:evenodd;fill:rgb(0%,0%,0%);fill-opacity:1;" d="M 146.007812 83.058594 L 149.417969 83.058594 L 149.417969 79.363281 L 146.007812 79.363281 Z M 146.007812 83.058594 "/>
<path style=" stroke:none;fill-rule:evenodd;fill:rgb(0%,0%,0%);fill-opacity:1;" d="M 146.007812 87.878906 L 149.417969 87.878906 L 149.417969 84.183594 L 146.007812 84.183594 Z M 146.007812 87.878906 "/>
<path style=" stroke:none;fill-rule:evenodd;fill:rgb(0%,0%,0%);fill-opacity:1;" d="M 134.015625 105.269531 L 137.425781 105.269531 L 137.425781 101.574219 L 134.015625 101.574219 Z M 134.015625 105.269531 "/>
<path style=" stroke:none;fill-rule:evenodd;fill:rgb(0%,0%,0%);fill-opacity:1;" d="M 129.199219 105.269531 L 132.609375 105.269531 L 132.609375 101.574219 L 129.199219 101.574219 Z M 129.199219 105.269531 "/>
<path style=" stroke:none;fill-rule:evenodd;fill:rgb(0%,0%,0%);fill-opacity:1;" d="M 135.5 112.46875 L 138.910156 112.46875 L 138.910156 108.773438 L 135.5 108.773438 Z M 135.5 112.46875 "/>
<path style=" stroke:none;fill-rule:evenodd;fill:rgb(0%,0%,0%);fill-opacity:1;" d="M 140.316406 112.46875 L 143.726562 112.46875 L 143.726562 108.773438 L 140.316406 108.773438 Z M 140.316406 112.46875 "/>
<path style=" stroke:none;fill-rule:evenodd;fill:rgb(0%,0%,0%);fill-opacity:1;" d="M 125.917969 126.867188 L 129.328125 126.867188 L 129.328125 123.171875 L 125.917969 123.171875 Z M 125.917969 126.867188 "/>
<path style=" stroke:none;fill-rule:evenodd;fill:rgb(0%,0%,0%);fill-opacity:1;" d="M 121.097656 126.867188 L 124.507812 126.867188 L 124.507812 123.171875 L 121.097656 123.171875 Z M 121.097656 126.867188 "/>
<path style=" stroke:none;fill-rule:evenodd;fill:rgb(0%,0%,0%);fill-opacity:1;" d="M 181.773438 34.011719 L 187.453125 34.011719 L 187.453125 29.46875 L 181.773438 29.46875 Z M 181.773438 34.011719 "/>
<path style=" stroke:none;fill-rule:evenodd;fill:rgb(0%,0%,0%);fill-opacity:1;" d="M 181.773438 24.375 L 187.453125 24.375 L 187.453125 19.832031 L 181.773438 19.832031 Z M 181.773438 24.375 "/>
<path style=" stroke:none;fill-rule:evenodd;fill:rgb(0%,0%,0%);fill-opacity:1;" d="M 224.074219 46.875 L 229.753906 46.875 L 229.753906 42.332031 L 224.074219 42.332031 Z M 224.074219 46.875 "/>
<path style=" stroke:none;fill-rule:evenodd;fill:rgb(0%,0%,0%);fill-opacity:1;" d="M 224.074219 56.511719 L 229.753906 56.511719 L 229.753906 51.96875 L 224.074219 51.96875 Z M 224.074219 56.511719 "/>
<path style=" stroke:none;fill-rule:evenodd;fill:rgb(0%,0%,0%);fill-opacity:1;" d="M 160.960938 119.621094 C 160.960938 116.355469 156.066406 116.355469 156.066406 119.621094 C 156.066406 122.886719 160.960938 122.886719 160.960938 119.621094 "/>
<path style=" stroke:none;fill-rule:evenodd;fill:rgb(0%,0%,0%);fill-opacity:1;" d="M 153.761719 119.621094 C 153.761719 116.355469 148.867188 116.355469 148.867188 119.621094 C 148.867188 122.886719 153.761719 122.886719 153.761719 119.621094 "/>
<path style=" stroke:none;fill-rule:evenodd;fill:rgb(0%,0%,0%);fill-opacity:1;" d="M 146.5625 119.621094 C 146.5625 116.355469 141.664062 116.355469 141.664062 119.621094 C 141.664062 122.886719 146.5625 122.886719 146.5625 119.621094 "/>
<path style=" stroke:none;fill-rule:evenodd;fill:rgb(0%,0%,0%);fill-opacity:1;" d="M 146.5625 126.820312 C 146.5625 123.558594 141.664062 123.558594 141.664062 126.820312 C 141.664062 130.085938 146.5625 130.085938 146.5625 126.820312 "/>
<path style=" stroke:none;fill-rule:evenodd;fill:rgb(0%,0%,0%);fill-opacity:1;" d="M 153.761719 126.820312 C 153.761719 123.558594 148.867188 123.558594 148.867188 126.820312 C 148.867188 130.085938 153.761719 130.085938 153.761719 126.820312 "/>
<path style=" stroke:none;fill-rule:evenodd;fill:rgb(0%,0%,0%);fill-opacity:1;" d="M 160.960938 126.820312 C 160.960938 123.558594 156.066406 123.558594 156.066406 126.820312 C 156.066406 130.085938 160.960938 130.085938 160.960938 126.820312 "/>
<path style=" stroke:none;fill-rule:evenodd;fill:rgb(0%,0%,0%);fill-opacity:1;" d="M 138.640625 119.621094 C 138.640625 117.316406 135.183594 117.316406 135.183594 119.621094 C 135.183594 121.925781 138.640625 121.925781 138.640625 119.621094 "/>
<path style=" stroke:none;fill-rule:evenodd;fill:rgb(0%,0%,0%);fill-opacity:1;" d="M 167.441406 119.621094 C 167.441406 117.316406 163.984375 117.316406 163.984375 119.621094 C 163.984375 121.925781 167.441406 121.925781 167.441406 119.621094 "/>
<path style=" stroke:none;fill-rule:evenodd;fill:rgb(0%,0%,0%);fill-opacity:1;" d="M 126.960938 89.210938 L 133.207031 89.210938 L 133.207031 85.234375 L 126.960938 85.234375 Z M 126.960938 89.210938 "/>
<path style=" stroke:none;fill-rule:evenodd;fill:rgb(0%,0%,0%);fill-opacity:1;" d="M 119.023438 89.210938 L 125.269531 89.210938 L 125.269531 85.234375 L 119.023438 85.234375 Z M 119.023438 89.210938 "/>
<path style=" stroke:none;fill-rule:evenodd;fill:rgb(0%,0%,0%);fill-opacity:1;" d="M 158.273438 96.195312 L 160.550781 96.195312 L 160.550781 89.382812 L 158.273438 89.382812 Z M 158.273438 96.195312 "/>
<path style=" stroke:none;fill-rule:evenodd;fill:rgb(0%,0%,0%);fill-opacity:1;" d="M 161.875 96.195312 L 164.152344 96.195312 L 164.152344 89.382812 L 161.875 89.382812 Z M 161.875 96.195312 "/>
<path style=" stroke:none;fill-rule:evenodd;fill:rgb(0%,0%,0%);fill-opacity:1;" d="M 165.476562 96.195312 L 167.753906 96.195312 L 167.753906 89.382812 L 165.476562 89.382812 Z M 165.476562 96.195312 "/>
<path style=" stroke:none;fill-rule:evenodd;fill:rgb(0%,0%,0%);fill-opacity:1;" d="M 169.074219 96.195312 L 171.351562 96.195312 L 171.351562 89.382812 L 169.074219 89.382812 Z M 169.074219 96.195312 "/>
<path style=" stroke:none;fill-rule:evenodd;fill:rgb(0%,0%,0%);fill-opacity:1;" d="M 172.675781 96.195312 L 174.953125 96.195312 L 174.953125 89.382812 L 172.675781 89.382812 Z M 172.675781 96.195312 "/>
<path style=" stroke:none;fill-rule:evenodd;fill:rgb(0%,0%,0%);fill-opacity:1;" d="M 176.273438 96.195312 L 178.550781 96.195312 L 178.550781 89.382812 L 176.273438 89.382812 Z M 176.273438 96.195312 "/>
<path style=" stroke:none;fill-rule:evenodd;fill:rgb(0%,0%,0%);fill-opacity:1;" d="M 179.875 96.195312 L 182.152344 96.195312 L 182.152344 89.382812 L 179.875 89.382812 Z M 179.875 96.195312 "/>
<path style=" stroke:none;fill-rule:evenodd;fill:rgb(0%,0%,0%);fill-opacity:1;" d="M 179.875 81.457031 L 182.152344 81.457031 L 182.152344 74.644531 L 179.875 74.644531 Z M 179.875 81.457031 "/>
<path style=" stroke:none;fill-rule:evenodd;fill:rgb(0%,0%,0%);fill-opacity:1;" d="M 176.273438 81.457031 L 178.550781 81.457031 L 178.550781 74.644531 L 176.273438 74.644531 Z M 176.273438 81.457031 "/>
<path style=" stroke:none;fill-rule:evenodd;fill:rgb(0%,0%,0%);fill-opacity:1;" d="M 172.675781 81.457031 L 174.953125 81.457031 L 174.953125 74.644531 L 172.675781 74.644531 Z M 172.675781 81.457031 "/>
<path style=" stroke:none;fill-rule:evenodd;fill:rgb(0%,0%,0%);fill-opacity:1;" d="M 169.074219 81.457031 L 171.351562 81.457031 L 171.351562 74.644531 L 169.074219 74.644531 Z M 169.074219 81.457031 "/>
<path style=" stroke:none;fill-rule:evenodd;fill:rgb(0%,0%,0%);fill-opacity:1;" d="M 165.476562 81.457031 L 167.753906 81.457031 L 167.753906 74.644531 L 165.476562 74.644531 Z M 165.476562 81.457031 "/>
<path style=" stroke:none;fill-rule:evenodd;fill:rgb(0%,0%,0%);fill-opacity:1;" d="M 161.875 81.457031 L 164.152344 81.457031 L 164.152344 74.644531 L 161.875 74.644531 Z M 161.875 81.457031 "/>
<path style=" stroke:none;fill-rule:evenodd;fill:rgb(0%,0%,0%);fill-opacity:1;" d="M 158.273438 81.457031 L 160.550781 81.457031 L 160.550781 74.644531 L 158.273438 74.644531 Z M 158.273438 81.457031 "/>
<path style=" stroke:none;fill-rule:evenodd;fill:rgb(0%,0%,0%);fill-opacity:1;" d="M 169.890625 62.847656 L 175.9375 62.847656 L 175.9375 47.152344 L 169.890625 47.152344 Z M 169.890625 62.847656 "/>
<path style=" stroke:none;fill-rule:evenodd;fill:rgb(0%,0%,0%);fill-opacity:1;" d="M 169.890625 35.488281 L 175.9375 35.488281 L 175.9375 19.792969 L 169.890625 19.792969 Z M 169.890625 35.488281 "/>
<path style=" stroke:none;fill-rule:evenodd;fill:rgb(0%,0%,0%);fill-opacity:1;" d="M 154.121094 41.320312 C 154.121094 37.578125 148.503906 37.578125 148.503906 41.320312 C 148.503906 45.066406 154.121094 45.066406 154.121094 41.320312 "/>
<path style=" stroke:none;fill-rule:evenodd;fill:rgb(0%,0%,0%);fill-opacity:1;" d="M 139.722656 51.222656 C 139.722656 47.476562 134.105469 47.476562 134.105469 51.222656 C 134.105469 54.964844 139.722656 54.964844 139.722656 51.222656 "/>
<path style=" stroke:none;fill-rule:evenodd;fill:rgb(0%,0%,0%);fill-opacity:1;" d="M 151.421875 57.519531 C 151.421875 53.777344 145.804688 53.777344 145.804688 57.519531 C 145.804688 61.265625 151.421875 61.265625 151.421875 57.519531 "/>
<path style=" stroke:none;fill-rule:evenodd;fill:rgb(0%,0%,0%);fill-opacity:1;" d="M 153.222656 76.421875 C 153.222656 72.675781 147.605469 72.675781 147.605469 76.421875 C 147.605469 80.164062 153.222656 80.164062 153.222656 76.421875 "/>
<path style=" stroke:none;fill-rule:evenodd;fill:rgb(0%,0%,0%);fill-opacity:1;" d="M 134.320312 76.421875 C 134.320312 72.675781 128.707031 72.675781 128.707031 76.421875 C 128.707031 80.164062 134.320312 80.164062 134.320312 76.421875 "/>
<path style=" stroke:none;fill-rule:evenodd;fill:rgb(0%,0%,0%);fill-opacity:1;" d="M 121.722656 95.320312 C 121.722656 91.578125 116.105469 91.578125 116.105469 95.320312 C 116.105469 99.066406 121.722656 99.066406 121.722656 95.320312 "/>
<path style=" stroke:none;fill-rule:evenodd;fill:rgb(0%,0%,0%);fill-opacity:1;" d="M 108.222656 99.820312 C 108.222656 96.078125 102.605469 96.078125 102.605469 99.820312 C 102.605469 103.566406 108.222656 103.566406 108.222656 99.820312 "/>
<path style=" stroke:none;fill-rule:evenodd;fill:rgb(0%,0%,0%);fill-opacity:1;" d="M 134.320312 110.621094 C 134.320312 106.878906 128.707031 106.878906 128.707031 110.621094 C 128.707031 114.363281 134.320312 114.363281 134.320312 110.621094 "/>
<path style=" stroke:none;fill-rule:evenodd;fill:rgb(0%,0%,0%);fill-opacity:1;" d="M 177.757812 103.1875 C 177.757812 99.441406 172.140625 99.441406 172.140625 103.1875 C 172.140625 106.929688 177.757812 106.929688 177.757812 103.1875 "/>
<path style=" stroke:none;fill-rule:evenodd;fill:rgb(0%,0%,0%);fill-opacity:1;" d="M 182.019531 125.019531 C 182.019531 121.277344 176.40625 121.277344 176.40625 125.019531 C 176.40625 128.765625 182.019531 128.765625 182.019531 125.019531 "/>
<path style=" stroke:none;fill-rule:evenodd;fill:rgb(0%,0%,0%);fill-opacity:1;" d="M 181.121094 152.019531 C 181.121094 148.277344 175.503906 148.277344 175.503906 152.019531 C 175.503906 155.765625 181.121094 155.765625 181.121094 152.019531 "/>
<path style=" stroke:none;fill-rule:evenodd;fill:rgb(0%,0%,0%);fill-opacity:1;" d="M 114.519531 57.519531 C 114.519531 53.777344 108.90625 53.777344 108.90625 57.519531 C 108.90625 61.265625 114.519531 61.265625 114.519531 57.519531 "/>
<path style=" stroke:none;fill-rule:evenodd;fill:rgb(0%,0%,0%);fill-opacity:1;" d="M 63.222656 96.222656 C 63.222656 92.476562 57.605469 92.476562 57.605469 96.222656 C 57.605469 99.964844 63.222656 99.964844 63.222656 96.222656 "/>
<path style=" stroke:none;fill-rule:evenodd;fill:rgb(0%,0%,0%);fill-opacity:1;" d="M 191.921875 51.222656 C 191.921875 47.476562 186.304688 47.476562 186.304688 51.222656 C 186.304688 54.964844 191.921875 54.964844 191.921875 51.222656 "/>
<path style=" stroke:none;fill-rule:evenodd;fill:rgb(0%,0%,0%);fill-opacity:1;" d="M 233.5 17.921875 C 233.5 12.738281 225.726562 12.738281 225.726562 17.921875 C 225.726562 23.105469 233.5 23.105469 233.5 17.921875 "/>
<path style=" stroke:none;fill-rule:evenodd;fill:rgb(0%,0%,0%);fill-opacity:1;" d="M 233.5 170.019531 C 233.5 164.835938 225.726562 164.835938 225.726562 170.019531 C 225.726562 175.207031 233.5 175.207031 233.5 170.019531 "/>
<path style=" stroke:none;fill-rule:evenodd;fill:rgb(0%,0%,0%);fill-opacity:1;" d="M 24.703125 170.019531 C 24.703125 164.835938 16.925781 164.835938 16.925781 170.019531 C 16.925781 175.207031 24.703125 175.207031 24.703125 170.019531 "/>
<path style=" stroke:none;fill-rule:evenodd;fill:rgb(0%,0%,0%);fill-opacity:1;" d="M 24.703125 17.921875 C 24.703125 12.738281 16.925781 12.738281 16.925781 17.921875 C 16.925781 23.105469 24.703125 23.105469 24.703125 17.921875 "/>
</g>
</svg>
