%
M48
M72
T01C0.019685
%
T01
X1678500Y1458064
X1503500Y1670564
X1316000Y1608064
X1678500Y1933064
X1941000Y1933064
X1916000Y2195564
X1753500Y2283064
X1953500Y2420564
X2478500Y2283064
X2281770Y1561334
X2341000Y1258064
X2328500Y883064
X1403500Y2195564
X691000Y1658064
X141000Y633064
X141000Y2745564
X3041000Y2745564
X3041000Y633064
X1591000Y1933064
X1541000Y1858064
X1491000Y1933064
X1466000Y2583064
X1566000Y2583064
X1891000Y2620564
X1991000Y2620564
X2641000Y1925781
X2641000Y1831293
X2641000Y1752552
X2641000Y1658064
X2641000Y1250781
X2641000Y1156293
X2641000Y1077552
X2641000Y983064
X1528500Y920564
X1428500Y920564
X1428500Y683064
X1528500Y683064
X616197Y1214954
X517772Y1214954
X517772Y1297631
X517772Y1399993
X517772Y1482671
X616197Y1482671
X466000Y2045564
X366000Y2045564
X1753500Y1333064
X2153500Y1333064
X2678500Y2558064
X2866000Y2558064
X128500Y2245564
X128500Y1995564
X128500Y2495564
X2503500Y2445564
X2516000Y2008064
X2491000Y870564
X2528500Y633064
X1184000Y2495564
X298000Y2495564
X788835Y2192415
X690409Y1995564
X788835Y1798714
X841591Y1492415
X1190409Y1798714
X1243165Y1492415
X1341591Y1295564
X1243165Y1098714
X841591Y1098714
X1190409Y2192415
X399661Y1614560
X368165Y1348812
X399661Y1083064
X2739425Y861017
X2739425Y1372828
X2739425Y1536017
X2739425Y2047828
M30
