%
M48
M72
T01C0.019685
%
T01
X134110Y346319
X649858Y565118
X815213Y565118
X980567Y565118
X1145921Y565118
X1311276Y565118
X1476630Y565118
X1641984Y565118
X1807339Y565118
X1972693Y565118
X1972693Y781654
X1807339Y781654
X1641984Y781654
X1476630Y781654
X1311276Y781654
X1145921Y781654
X980567Y781654
X815213Y781654
X649858Y781654
X134110Y2393563
X3008126Y2393563
X3008126Y346319
X2191000Y803209
X2566000Y1103209
X2191000Y1190709
X1853500Y1640709
X1941000Y1965709
X2191000Y1965709
X2316000Y2153209
X1641000Y2090709
X1503500Y2040709
X1066000Y1728209
X1153500Y1653209
X1441000Y1465709
X803500Y1353209
X591000Y1040709
X1622280Y1492087
X1812280Y1492087
X2710193Y1513642
X2808618Y1513642
X2808618Y1430965
X2808618Y1328602
X2808618Y1245925
X2710193Y1245925
X2319248Y1307047
X2116197Y1307047
X1211866Y1305177
X1019248Y1303307
X305469Y1548177
X305469Y662177
X374268Y1680276
X571118Y1778701
X177417Y1778701
X177417Y2180276
X571118Y2180276
X2368362Y899764
X2762063Y899764
X2762063Y498189
X2565213Y399764
X2368362Y498189
X2926728Y1114035
X2958224Y1379783
X2926728Y1645531
M30
