G75*
%MOIN*%
%OFA0B0*%
%FSLAX25Y25*%
%IPPOS*%
%LPD*%
%AMOC8*
5,1,8,0,0,1.08239X$1,22.5*
%
%ADD10C,0.01200*%
%ADD11C,0.01600*%
%ADD12C,0.03200*%
%ADD13R,0.05906X0.05118*%
%ADD14R,0.03937X0.04331*%
%ADD15R,0.04724X0.07874*%
%ADD16R,0.07087X0.06693*%
%ADD17R,0.05512X0.07087*%
%ADD18C,0.10000*%
%ADD19C,0.12000*%
%ADD20R,0.05906X0.03937*%
%ADD21R,0.07874X0.03937*%
%ADD22C,0.08661*%
%ADD23C,0.08858*%
%ADD24R,0.03150X0.03543*%
%ADD25C,0.05200*%
%ADD26R,0.04331X0.03937*%
%ADD27R,0.02362X0.08661*%
%ADD28R,0.05512X0.03150*%
%ADD29R,0.07480X0.03150*%
%ADD30C,0.06000*%
%ADD31R,0.03150X0.05512*%
%ADD32R,0.03150X0.07480*%
%ADD33C,0.06000*%
%ADD34C,0.11811*%
%ADD35C,0.05543*%
%ADD36C,0.09843*%
%ADD37C,0.02400*%
%ADD38C,0.04000*%
%ADD39C,0.07000*%
%ADD40C,0.05000*%
%ADD41C,0.05118*%
D10*
X0001600Y0022821D02*
X0001600Y0251167D01*
X0312624Y0251167D01*
X0312624Y0022821D01*
X0001600Y0022821D01*
X0157850Y0154071D02*
X0159100Y0155321D01*
X0159100Y0156571D01*
X0164200Y0161671D01*
X0164200Y0176153D01*
X0165350Y0177303D01*
X0165350Y0182545D01*
X0159100Y0181571D02*
X0159100Y0187108D01*
X0159109Y0187117D01*
X0159109Y0196773D01*
X0159100Y0196782D01*
X0159100Y0200321D01*
X0127397Y0193726D02*
X0127399Y0193796D01*
X0127405Y0193866D01*
X0127415Y0193935D01*
X0127428Y0194004D01*
X0127446Y0194072D01*
X0127467Y0194139D01*
X0127492Y0194204D01*
X0127521Y0194268D01*
X0127553Y0194331D01*
X0127589Y0194391D01*
X0127628Y0194449D01*
X0127670Y0194505D01*
X0127715Y0194559D01*
X0127763Y0194610D01*
X0127814Y0194658D01*
X0127868Y0194703D01*
X0127924Y0194745D01*
X0127982Y0194784D01*
X0128042Y0194820D01*
X0128105Y0194852D01*
X0128169Y0194881D01*
X0128234Y0194906D01*
X0128301Y0194927D01*
X0128369Y0194945D01*
X0128438Y0194958D01*
X0128507Y0194968D01*
X0128577Y0194974D01*
X0128647Y0194976D01*
X0128717Y0194974D01*
X0128787Y0194968D01*
X0128856Y0194958D01*
X0128925Y0194945D01*
X0128993Y0194927D01*
X0129060Y0194906D01*
X0129125Y0194881D01*
X0129189Y0194852D01*
X0129252Y0194820D01*
X0129312Y0194784D01*
X0129370Y0194745D01*
X0129426Y0194703D01*
X0129480Y0194658D01*
X0129531Y0194610D01*
X0129579Y0194559D01*
X0129624Y0194505D01*
X0129666Y0194449D01*
X0129705Y0194391D01*
X0129741Y0194331D01*
X0129773Y0194268D01*
X0129802Y0194204D01*
X0129827Y0194139D01*
X0129848Y0194072D01*
X0129866Y0194004D01*
X0129879Y0193935D01*
X0129889Y0193866D01*
X0129895Y0193796D01*
X0129897Y0193726D01*
X0129895Y0193656D01*
X0129889Y0193586D01*
X0129879Y0193517D01*
X0129866Y0193448D01*
X0129848Y0193380D01*
X0129827Y0193313D01*
X0129802Y0193248D01*
X0129773Y0193184D01*
X0129741Y0193121D01*
X0129705Y0193061D01*
X0129666Y0193003D01*
X0129624Y0192947D01*
X0129579Y0192893D01*
X0129531Y0192842D01*
X0129480Y0192794D01*
X0129426Y0192749D01*
X0129370Y0192707D01*
X0129312Y0192668D01*
X0129252Y0192632D01*
X0129189Y0192600D01*
X0129125Y0192571D01*
X0129060Y0192546D01*
X0128993Y0192525D01*
X0128925Y0192507D01*
X0128856Y0192494D01*
X0128787Y0192484D01*
X0128717Y0192478D01*
X0128647Y0192476D01*
X0128577Y0192478D01*
X0128507Y0192484D01*
X0128438Y0192494D01*
X0128369Y0192507D01*
X0128301Y0192525D01*
X0128234Y0192546D01*
X0128169Y0192571D01*
X0128105Y0192600D01*
X0128042Y0192632D01*
X0127982Y0192668D01*
X0127924Y0192707D01*
X0127868Y0192749D01*
X0127814Y0192794D01*
X0127763Y0192842D01*
X0127715Y0192893D01*
X0127670Y0192947D01*
X0127628Y0193003D01*
X0127589Y0193061D01*
X0127553Y0193121D01*
X0127521Y0193184D01*
X0127492Y0193248D01*
X0127467Y0193313D01*
X0127446Y0193380D01*
X0127428Y0193448D01*
X0127415Y0193517D01*
X0127405Y0193586D01*
X0127399Y0193656D01*
X0127397Y0193726D01*
X0087397Y0193726D02*
X0087399Y0193796D01*
X0087405Y0193866D01*
X0087415Y0193935D01*
X0087428Y0194004D01*
X0087446Y0194072D01*
X0087467Y0194139D01*
X0087492Y0194204D01*
X0087521Y0194268D01*
X0087553Y0194331D01*
X0087589Y0194391D01*
X0087628Y0194449D01*
X0087670Y0194505D01*
X0087715Y0194559D01*
X0087763Y0194610D01*
X0087814Y0194658D01*
X0087868Y0194703D01*
X0087924Y0194745D01*
X0087982Y0194784D01*
X0088042Y0194820D01*
X0088105Y0194852D01*
X0088169Y0194881D01*
X0088234Y0194906D01*
X0088301Y0194927D01*
X0088369Y0194945D01*
X0088438Y0194958D01*
X0088507Y0194968D01*
X0088577Y0194974D01*
X0088647Y0194976D01*
X0088717Y0194974D01*
X0088787Y0194968D01*
X0088856Y0194958D01*
X0088925Y0194945D01*
X0088993Y0194927D01*
X0089060Y0194906D01*
X0089125Y0194881D01*
X0089189Y0194852D01*
X0089252Y0194820D01*
X0089312Y0194784D01*
X0089370Y0194745D01*
X0089426Y0194703D01*
X0089480Y0194658D01*
X0089531Y0194610D01*
X0089579Y0194559D01*
X0089624Y0194505D01*
X0089666Y0194449D01*
X0089705Y0194391D01*
X0089741Y0194331D01*
X0089773Y0194268D01*
X0089802Y0194204D01*
X0089827Y0194139D01*
X0089848Y0194072D01*
X0089866Y0194004D01*
X0089879Y0193935D01*
X0089889Y0193866D01*
X0089895Y0193796D01*
X0089897Y0193726D01*
X0089895Y0193656D01*
X0089889Y0193586D01*
X0089879Y0193517D01*
X0089866Y0193448D01*
X0089848Y0193380D01*
X0089827Y0193313D01*
X0089802Y0193248D01*
X0089773Y0193184D01*
X0089741Y0193121D01*
X0089705Y0193061D01*
X0089666Y0193003D01*
X0089624Y0192947D01*
X0089579Y0192893D01*
X0089531Y0192842D01*
X0089480Y0192794D01*
X0089426Y0192749D01*
X0089370Y0192707D01*
X0089312Y0192668D01*
X0089252Y0192632D01*
X0089189Y0192600D01*
X0089125Y0192571D01*
X0089060Y0192546D01*
X0088993Y0192525D01*
X0088925Y0192507D01*
X0088856Y0192494D01*
X0088787Y0192484D01*
X0088717Y0192478D01*
X0088647Y0192476D01*
X0088577Y0192478D01*
X0088507Y0192484D01*
X0088438Y0192494D01*
X0088369Y0192507D01*
X0088301Y0192525D01*
X0088234Y0192546D01*
X0088169Y0192571D01*
X0088105Y0192600D01*
X0088042Y0192632D01*
X0087982Y0192668D01*
X0087924Y0192707D01*
X0087868Y0192749D01*
X0087814Y0192794D01*
X0087763Y0192842D01*
X0087715Y0192893D01*
X0087670Y0192947D01*
X0087628Y0193003D01*
X0087589Y0193061D01*
X0087553Y0193121D01*
X0087521Y0193184D01*
X0087492Y0193248D01*
X0087467Y0193313D01*
X0087446Y0193380D01*
X0087428Y0193448D01*
X0087415Y0193517D01*
X0087405Y0193586D01*
X0087399Y0193656D01*
X0087397Y0193726D01*
X0078500Y0237171D02*
X0078500Y0241441D01*
X0078500Y0239306D02*
X0076365Y0241441D01*
X0075297Y0241441D01*
X0072668Y0240374D02*
X0072668Y0238238D01*
X0071601Y0237171D01*
X0069466Y0237171D01*
X0068398Y0239306D02*
X0072668Y0239306D01*
X0072668Y0240374D02*
X0071601Y0241441D01*
X0069466Y0241441D01*
X0068398Y0240374D01*
X0068398Y0239306D01*
X0065670Y0241441D02*
X0063535Y0237171D01*
X0061400Y0241441D01*
X0058672Y0238238D02*
X0057605Y0238238D01*
X0057605Y0237171D01*
X0058672Y0237171D01*
X0058672Y0238238D01*
X0048175Y0237171D02*
X0043905Y0237171D01*
X0046040Y0237171D02*
X0046040Y0243576D01*
X0048175Y0241441D01*
X0041177Y0238238D02*
X0041177Y0237171D01*
X0040110Y0237171D01*
X0040110Y0238238D01*
X0041177Y0238238D01*
X0037679Y0237171D02*
X0033408Y0237171D01*
X0035543Y0237171D02*
X0035543Y0243576D01*
X0037679Y0241441D01*
D11*
X0091630Y0200926D02*
X0093948Y0198608D01*
X0112462Y0198608D01*
X0117581Y0203726D01*
X0118647Y0203726D01*
X0137850Y0185321D02*
X0135350Y0182821D01*
X0128860Y0182821D01*
X0137850Y0185321D02*
X0149100Y0185321D01*
X0151728Y0187949D01*
X0156728Y0186699D02*
X0151900Y0181871D01*
X0144400Y0181871D01*
X0139100Y0176571D01*
X0146728Y0176699D02*
X0146728Y0171472D01*
X0146728Y0176699D02*
X0149100Y0179071D01*
X0156600Y0179071D01*
X0159100Y0181571D01*
X0156728Y0186699D02*
X0156728Y0191945D01*
X0157410Y0236121D02*
X0151805Y0236121D01*
X0148202Y0237522D02*
X0142597Y0243127D01*
X0142597Y0237522D01*
X0143998Y0236121D01*
X0146801Y0236121D01*
X0148202Y0237522D01*
X0148202Y0243127D01*
X0146801Y0244528D01*
X0143998Y0244528D01*
X0142597Y0243127D01*
X0138994Y0241726D02*
X0136191Y0244528D01*
X0136191Y0236121D01*
X0133389Y0236121D02*
X0138994Y0236121D01*
X0129786Y0236121D02*
X0129786Y0237522D01*
X0124181Y0243127D01*
X0124181Y0244528D01*
X0129786Y0244528D01*
X0151805Y0243127D02*
X0151805Y0241726D01*
X0157410Y0236121D01*
X0157410Y0243127D02*
X0156008Y0244528D01*
X0153206Y0244528D01*
X0151805Y0243127D01*
X0170221Y0241726D02*
X0175825Y0236121D01*
X0170221Y0236121D01*
X0170221Y0241726D02*
X0175825Y0241726D01*
X0179428Y0241726D02*
X0185033Y0236121D01*
X0179428Y0236121D01*
X0179428Y0241726D02*
X0185033Y0241726D01*
X0188636Y0241726D02*
X0194241Y0236121D01*
X0188636Y0236121D01*
X0188636Y0241726D02*
X0194241Y0241726D01*
X0197844Y0244528D02*
X0203449Y0238923D01*
X0202048Y0240324D02*
X0197844Y0236121D01*
X0203449Y0236121D02*
X0203449Y0244528D01*
X0208186Y0244528D02*
X0208186Y0245929D01*
X0208186Y0241726D02*
X0208186Y0236121D01*
X0209587Y0236121D02*
X0206785Y0236121D01*
X0208186Y0241726D02*
X0209587Y0241726D01*
X0213057Y0241726D02*
X0214458Y0241726D01*
X0217261Y0238923D01*
X0217261Y0236121D02*
X0217261Y0241726D01*
X0220864Y0240324D02*
X0220864Y0236121D01*
X0225067Y0236121D01*
X0226469Y0237522D01*
X0225067Y0238923D01*
X0220864Y0238923D01*
X0220864Y0240324D02*
X0222265Y0241726D01*
X0225067Y0241726D01*
X0230072Y0244528D02*
X0230072Y0236121D01*
X0235676Y0236121D02*
X0235676Y0244528D01*
X0232874Y0241726D01*
X0230072Y0244528D01*
X0239279Y0241726D02*
X0244884Y0236121D01*
X0239279Y0236121D01*
X0239279Y0241726D02*
X0244884Y0241726D01*
X0248487Y0241726D02*
X0254092Y0236121D01*
X0248487Y0236121D01*
X0248487Y0241726D02*
X0254092Y0241726D01*
X0257695Y0241726D02*
X0263300Y0236121D01*
X0257695Y0236121D01*
X0257695Y0241726D02*
X0263300Y0241726D01*
X0262247Y0228787D02*
X0261079Y0228787D01*
X0261079Y0221781D01*
X0262247Y0221781D02*
X0259911Y0221781D01*
X0256968Y0221781D02*
X0254632Y0221781D01*
X0255800Y0221781D02*
X0255800Y0228787D01*
X0256968Y0228787D01*
X0251688Y0225284D02*
X0250521Y0226452D01*
X0248185Y0226452D01*
X0247018Y0225284D01*
X0247018Y0224116D01*
X0251688Y0224116D01*
X0251688Y0222949D02*
X0251688Y0225284D01*
X0251688Y0222949D02*
X0250521Y0221781D01*
X0248185Y0221781D01*
X0243770Y0221781D02*
X0243770Y0226452D01*
X0241434Y0226452D02*
X0240267Y0226452D01*
X0241434Y0226452D02*
X0243770Y0224116D01*
X0237171Y0222949D02*
X0237171Y0221781D01*
X0236003Y0221781D01*
X0236003Y0222949D01*
X0237171Y0222949D01*
X0237171Y0225284D02*
X0237171Y0226452D01*
X0236003Y0226452D01*
X0236003Y0225284D01*
X0237171Y0225284D01*
X0243922Y0215579D02*
X0243922Y0210909D01*
X0242754Y0209741D01*
X0242754Y0214412D02*
X0245089Y0214412D01*
X0248338Y0213244D02*
X0248338Y0209741D01*
X0253008Y0209741D02*
X0253008Y0216747D01*
X0251841Y0214412D02*
X0249505Y0214412D01*
X0248338Y0213244D01*
X0251841Y0214412D02*
X0253008Y0213244D01*
X0256256Y0214412D02*
X0259759Y0214412D01*
X0260927Y0213244D01*
X0260927Y0210909D01*
X0259759Y0209741D01*
X0256256Y0209741D01*
X0256256Y0208573D02*
X0256256Y0214412D01*
X0256256Y0208573D02*
X0257424Y0207406D01*
X0258592Y0207406D01*
X0263871Y0209741D02*
X0266206Y0209741D01*
X0265039Y0209741D02*
X0265039Y0214412D01*
X0266206Y0214412D01*
X0265039Y0216747D02*
X0265039Y0217915D01*
X0266663Y0221781D02*
X0265495Y0222949D01*
X0265495Y0225284D01*
X0266663Y0226452D01*
X0268998Y0226452D01*
X0270166Y0225284D01*
X0270166Y0222949D01*
X0268998Y0221781D01*
X0266663Y0221781D01*
X0273262Y0226452D02*
X0274429Y0226452D01*
X0276765Y0224116D01*
X0276765Y0221781D02*
X0276765Y0226452D01*
X0279708Y0226452D02*
X0282044Y0226452D01*
X0280876Y0227619D02*
X0280876Y0222949D01*
X0279708Y0221781D01*
X0285292Y0221781D02*
X0285292Y0225284D01*
X0286459Y0226452D01*
X0289962Y0226452D01*
X0289962Y0221781D01*
X0293211Y0222949D02*
X0293211Y0225284D01*
X0294378Y0226452D01*
X0296714Y0226452D01*
X0297881Y0225284D01*
X0297881Y0222949D01*
X0296714Y0221781D01*
X0294378Y0221781D01*
X0293211Y0222949D01*
X0301129Y0222949D02*
X0302297Y0221781D01*
X0304632Y0221781D01*
X0305800Y0222949D01*
X0305800Y0227619D01*
X0304632Y0228787D01*
X0302297Y0228787D01*
X0301129Y0227619D01*
X0301129Y0216747D02*
X0305800Y0216747D01*
X0305800Y0209741D01*
X0305800Y0213244D02*
X0303465Y0213244D01*
X0297881Y0213244D02*
X0297881Y0210909D01*
X0296714Y0209741D01*
X0294378Y0209741D01*
X0293211Y0210909D01*
X0293211Y0213244D01*
X0294378Y0214412D01*
X0296714Y0214412D01*
X0297881Y0213244D01*
X0289962Y0213244D02*
X0289962Y0210909D01*
X0288795Y0209741D01*
X0285292Y0209741D01*
X0285292Y0208573D02*
X0285292Y0214412D01*
X0288795Y0214412D01*
X0289962Y0213244D01*
X0287627Y0207406D02*
X0286459Y0207406D01*
X0285292Y0208573D01*
X0286459Y0202372D02*
X0285292Y0201204D01*
X0285292Y0197701D01*
X0287627Y0197701D02*
X0287627Y0201204D01*
X0286459Y0202372D01*
X0287627Y0201204D02*
X0288795Y0202372D01*
X0289962Y0202372D01*
X0289962Y0197701D01*
X0293211Y0197701D02*
X0293211Y0201204D01*
X0294378Y0202372D01*
X0296714Y0202372D01*
X0296714Y0200036D02*
X0293211Y0200036D01*
X0293211Y0197701D02*
X0296714Y0197701D01*
X0297881Y0198869D01*
X0296714Y0200036D01*
X0301129Y0198869D02*
X0302297Y0197701D01*
X0304632Y0197701D01*
X0305800Y0198869D01*
X0305800Y0203539D01*
X0304632Y0204707D01*
X0302297Y0204707D01*
X0301129Y0203539D01*
X0302297Y0192667D02*
X0305800Y0192667D01*
X0305800Y0185661D01*
X0302297Y0185661D01*
X0301129Y0186829D01*
X0301129Y0191499D01*
X0302297Y0192667D01*
X0297881Y0192667D02*
X0294378Y0192667D01*
X0293211Y0191499D01*
X0293211Y0189164D01*
X0294378Y0187996D01*
X0297881Y0187996D01*
X0295546Y0187996D02*
X0293211Y0185661D01*
X0289962Y0185661D02*
X0285292Y0185661D01*
X0289962Y0185661D02*
X0289962Y0192667D01*
X0282044Y0198869D02*
X0282044Y0201204D01*
X0280876Y0202372D01*
X0278541Y0202372D01*
X0277373Y0201204D01*
X0277373Y0200036D01*
X0282044Y0200036D01*
X0282044Y0198869D02*
X0280876Y0197701D01*
X0278541Y0197701D01*
X0274125Y0197701D02*
X0274125Y0202372D01*
X0271790Y0202372D02*
X0270622Y0202372D01*
X0271790Y0202372D02*
X0274125Y0200036D01*
X0267526Y0198869D02*
X0266358Y0200036D01*
X0262855Y0200036D01*
X0262855Y0201204D02*
X0262855Y0197701D01*
X0266358Y0197701D01*
X0267526Y0198869D01*
X0264023Y0202372D02*
X0262855Y0201204D01*
X0264023Y0202372D02*
X0266358Y0202372D01*
X0269454Y0209741D02*
X0274125Y0209741D01*
X0274125Y0216747D01*
X0297881Y0192667D02*
X0297881Y0185661D01*
X0296714Y0180627D02*
X0297881Y0179459D01*
X0297881Y0178292D01*
X0296714Y0177124D01*
X0294378Y0177124D01*
X0293211Y0175956D01*
X0293211Y0174789D01*
X0294378Y0173621D01*
X0296714Y0173621D01*
X0297881Y0174789D01*
X0301129Y0174789D02*
X0302297Y0173621D01*
X0304632Y0173621D01*
X0305800Y0174789D01*
X0305800Y0180627D01*
X0301129Y0180627D02*
X0301129Y0174789D01*
X0296714Y0180627D02*
X0294378Y0180627D01*
X0293211Y0179459D01*
X0289962Y0180627D02*
X0286459Y0180627D01*
X0285292Y0179459D01*
X0285292Y0178292D01*
X0286459Y0177124D01*
X0289962Y0177124D01*
X0286459Y0177124D02*
X0285292Y0175956D01*
X0285292Y0174789D01*
X0286459Y0173621D01*
X0289962Y0173621D01*
X0289962Y0180627D01*
D12*
X0271019Y0151364D02*
X0266590Y0146935D01*
X0230350Y0146935D01*
X0229100Y0148185D01*
X0211620Y0130705D02*
X0211620Y0126551D01*
X0219100Y0119071D01*
X0219100Y0080321D02*
X0219100Y0060321D01*
X0224100Y0055321D01*
X0198460Y0055321D01*
X0197269Y0056512D01*
X0180734Y0056512D02*
X0180734Y0030611D01*
X0180693Y0030571D01*
X0212624Y0039976D02*
X0212626Y0040081D01*
X0212632Y0040186D01*
X0212642Y0040290D01*
X0212656Y0040394D01*
X0212674Y0040498D01*
X0212696Y0040600D01*
X0212721Y0040702D01*
X0212751Y0040803D01*
X0212784Y0040902D01*
X0212821Y0041000D01*
X0212862Y0041097D01*
X0212907Y0041192D01*
X0212955Y0041285D01*
X0213006Y0041377D01*
X0213062Y0041466D01*
X0213120Y0041553D01*
X0213182Y0041638D01*
X0213246Y0041721D01*
X0213314Y0041801D01*
X0213385Y0041878D01*
X0213459Y0041952D01*
X0213536Y0042024D01*
X0213615Y0042093D01*
X0213697Y0042158D01*
X0213781Y0042221D01*
X0213868Y0042280D01*
X0213957Y0042336D01*
X0214048Y0042389D01*
X0214141Y0042438D01*
X0214235Y0042483D01*
X0214331Y0042525D01*
X0214429Y0042563D01*
X0214528Y0042597D01*
X0214629Y0042628D01*
X0214730Y0042654D01*
X0214833Y0042677D01*
X0214936Y0042696D01*
X0215040Y0042711D01*
X0215144Y0042722D01*
X0215249Y0042729D01*
X0215354Y0042732D01*
X0215459Y0042731D01*
X0215564Y0042726D01*
X0215668Y0042717D01*
X0215772Y0042704D01*
X0215876Y0042687D01*
X0215979Y0042666D01*
X0216081Y0042641D01*
X0216182Y0042613D01*
X0216281Y0042580D01*
X0216380Y0042544D01*
X0216477Y0042504D01*
X0216572Y0042461D01*
X0216666Y0042413D01*
X0216758Y0042363D01*
X0216848Y0042309D01*
X0216936Y0042251D01*
X0217021Y0042190D01*
X0217104Y0042126D01*
X0217185Y0042059D01*
X0217263Y0041989D01*
X0217338Y0041915D01*
X0217410Y0041840D01*
X0217480Y0041761D01*
X0217546Y0041680D01*
X0217610Y0041596D01*
X0217670Y0041510D01*
X0217726Y0041422D01*
X0217780Y0041331D01*
X0217830Y0041239D01*
X0217876Y0041145D01*
X0217919Y0041049D01*
X0217958Y0040951D01*
X0217993Y0040853D01*
X0218024Y0040752D01*
X0218052Y0040651D01*
X0218076Y0040549D01*
X0218096Y0040446D01*
X0218112Y0040342D01*
X0218124Y0040238D01*
X0218132Y0040133D01*
X0218136Y0040028D01*
X0218136Y0039924D01*
X0218132Y0039819D01*
X0218124Y0039714D01*
X0218112Y0039610D01*
X0218096Y0039506D01*
X0218076Y0039403D01*
X0218052Y0039301D01*
X0218024Y0039200D01*
X0217993Y0039099D01*
X0217958Y0039001D01*
X0217919Y0038903D01*
X0217876Y0038807D01*
X0217830Y0038713D01*
X0217780Y0038621D01*
X0217726Y0038530D01*
X0217670Y0038442D01*
X0217610Y0038356D01*
X0217546Y0038272D01*
X0217480Y0038191D01*
X0217410Y0038112D01*
X0217338Y0038037D01*
X0217263Y0037963D01*
X0217185Y0037893D01*
X0217104Y0037826D01*
X0217021Y0037762D01*
X0216936Y0037701D01*
X0216848Y0037643D01*
X0216758Y0037589D01*
X0216666Y0037539D01*
X0216572Y0037491D01*
X0216477Y0037448D01*
X0216380Y0037408D01*
X0216281Y0037372D01*
X0216182Y0037339D01*
X0216081Y0037311D01*
X0215979Y0037286D01*
X0215876Y0037265D01*
X0215772Y0037248D01*
X0215668Y0037235D01*
X0215564Y0037226D01*
X0215459Y0037221D01*
X0215354Y0037220D01*
X0215249Y0037223D01*
X0215144Y0037230D01*
X0215040Y0037241D01*
X0214936Y0037256D01*
X0214833Y0037275D01*
X0214730Y0037298D01*
X0214629Y0037324D01*
X0214528Y0037355D01*
X0214429Y0037389D01*
X0214331Y0037427D01*
X0214235Y0037469D01*
X0214141Y0037514D01*
X0214048Y0037563D01*
X0213957Y0037616D01*
X0213868Y0037672D01*
X0213781Y0037731D01*
X0213697Y0037794D01*
X0213615Y0037859D01*
X0213536Y0037928D01*
X0213459Y0038000D01*
X0213385Y0038074D01*
X0213314Y0038151D01*
X0213246Y0038231D01*
X0213182Y0038314D01*
X0213120Y0038399D01*
X0213062Y0038486D01*
X0213006Y0038575D01*
X0212955Y0038667D01*
X0212907Y0038760D01*
X0212862Y0038855D01*
X0212821Y0038952D01*
X0212784Y0039050D01*
X0212751Y0039149D01*
X0212721Y0039250D01*
X0212696Y0039352D01*
X0212674Y0039454D01*
X0212656Y0039558D01*
X0212642Y0039662D01*
X0212632Y0039766D01*
X0212626Y0039871D01*
X0212624Y0039976D01*
X0224100Y0055321D02*
X0229602Y0049819D01*
X0236836Y0049819D01*
X0296876Y0034632D02*
X0296878Y0034757D01*
X0296884Y0034882D01*
X0296894Y0035006D01*
X0296908Y0035130D01*
X0296925Y0035254D01*
X0296947Y0035377D01*
X0296973Y0035499D01*
X0297002Y0035621D01*
X0297035Y0035741D01*
X0297073Y0035860D01*
X0297113Y0035979D01*
X0297158Y0036095D01*
X0297206Y0036210D01*
X0297258Y0036324D01*
X0297314Y0036436D01*
X0297373Y0036546D01*
X0297435Y0036654D01*
X0297501Y0036761D01*
X0297570Y0036865D01*
X0297643Y0036966D01*
X0297718Y0037066D01*
X0297797Y0037163D01*
X0297879Y0037257D01*
X0297964Y0037349D01*
X0298051Y0037438D01*
X0298142Y0037524D01*
X0298235Y0037607D01*
X0298331Y0037688D01*
X0298429Y0037765D01*
X0298529Y0037839D01*
X0298632Y0037910D01*
X0298737Y0037977D01*
X0298845Y0038042D01*
X0298954Y0038102D01*
X0299065Y0038160D01*
X0299178Y0038213D01*
X0299292Y0038263D01*
X0299408Y0038310D01*
X0299525Y0038352D01*
X0299644Y0038391D01*
X0299764Y0038427D01*
X0299885Y0038458D01*
X0300007Y0038486D01*
X0300129Y0038509D01*
X0300253Y0038529D01*
X0300377Y0038545D01*
X0300501Y0038557D01*
X0300626Y0038565D01*
X0300751Y0038569D01*
X0300875Y0038569D01*
X0301000Y0038565D01*
X0301125Y0038557D01*
X0301249Y0038545D01*
X0301373Y0038529D01*
X0301497Y0038509D01*
X0301619Y0038486D01*
X0301741Y0038458D01*
X0301862Y0038427D01*
X0301982Y0038391D01*
X0302101Y0038352D01*
X0302218Y0038310D01*
X0302334Y0038263D01*
X0302448Y0038213D01*
X0302561Y0038160D01*
X0302672Y0038102D01*
X0302782Y0038042D01*
X0302889Y0037977D01*
X0302994Y0037910D01*
X0303097Y0037839D01*
X0303197Y0037765D01*
X0303295Y0037688D01*
X0303391Y0037607D01*
X0303484Y0037524D01*
X0303575Y0037438D01*
X0303662Y0037349D01*
X0303747Y0037257D01*
X0303829Y0037163D01*
X0303908Y0037066D01*
X0303983Y0036966D01*
X0304056Y0036865D01*
X0304125Y0036761D01*
X0304191Y0036654D01*
X0304253Y0036546D01*
X0304312Y0036436D01*
X0304368Y0036324D01*
X0304420Y0036210D01*
X0304468Y0036095D01*
X0304513Y0035979D01*
X0304553Y0035860D01*
X0304591Y0035741D01*
X0304624Y0035621D01*
X0304653Y0035499D01*
X0304679Y0035377D01*
X0304701Y0035254D01*
X0304718Y0035130D01*
X0304732Y0035006D01*
X0304742Y0034882D01*
X0304748Y0034757D01*
X0304750Y0034632D01*
X0304748Y0034507D01*
X0304742Y0034382D01*
X0304732Y0034258D01*
X0304718Y0034134D01*
X0304701Y0034010D01*
X0304679Y0033887D01*
X0304653Y0033765D01*
X0304624Y0033643D01*
X0304591Y0033523D01*
X0304553Y0033404D01*
X0304513Y0033285D01*
X0304468Y0033169D01*
X0304420Y0033054D01*
X0304368Y0032940D01*
X0304312Y0032828D01*
X0304253Y0032718D01*
X0304191Y0032610D01*
X0304125Y0032503D01*
X0304056Y0032399D01*
X0303983Y0032298D01*
X0303908Y0032198D01*
X0303829Y0032101D01*
X0303747Y0032007D01*
X0303662Y0031915D01*
X0303575Y0031826D01*
X0303484Y0031740D01*
X0303391Y0031657D01*
X0303295Y0031576D01*
X0303197Y0031499D01*
X0303097Y0031425D01*
X0302994Y0031354D01*
X0302889Y0031287D01*
X0302781Y0031222D01*
X0302672Y0031162D01*
X0302561Y0031104D01*
X0302448Y0031051D01*
X0302334Y0031001D01*
X0302218Y0030954D01*
X0302101Y0030912D01*
X0301982Y0030873D01*
X0301862Y0030837D01*
X0301741Y0030806D01*
X0301619Y0030778D01*
X0301497Y0030755D01*
X0301373Y0030735D01*
X0301249Y0030719D01*
X0301125Y0030707D01*
X0301000Y0030699D01*
X0300875Y0030695D01*
X0300751Y0030695D01*
X0300626Y0030699D01*
X0300501Y0030707D01*
X0300377Y0030719D01*
X0300253Y0030735D01*
X0300129Y0030755D01*
X0300007Y0030778D01*
X0299885Y0030806D01*
X0299764Y0030837D01*
X0299644Y0030873D01*
X0299525Y0030912D01*
X0299408Y0030954D01*
X0299292Y0031001D01*
X0299178Y0031051D01*
X0299065Y0031104D01*
X0298954Y0031162D01*
X0298844Y0031222D01*
X0298737Y0031287D01*
X0298632Y0031354D01*
X0298529Y0031425D01*
X0298429Y0031499D01*
X0298331Y0031576D01*
X0298235Y0031657D01*
X0298142Y0031740D01*
X0298051Y0031826D01*
X0297964Y0031915D01*
X0297879Y0032007D01*
X0297797Y0032101D01*
X0297718Y0032198D01*
X0297643Y0032298D01*
X0297570Y0032399D01*
X0297501Y0032503D01*
X0297435Y0032610D01*
X0297373Y0032718D01*
X0297314Y0032828D01*
X0297258Y0032940D01*
X0297206Y0033054D01*
X0297158Y0033169D01*
X0297113Y0033285D01*
X0297073Y0033404D01*
X0297035Y0033523D01*
X0297002Y0033643D01*
X0296973Y0033765D01*
X0296947Y0033887D01*
X0296925Y0034010D01*
X0296908Y0034134D01*
X0296894Y0034258D01*
X0296884Y0034382D01*
X0296878Y0034507D01*
X0296876Y0034632D01*
X0292673Y0123921D02*
X0292001Y0124593D01*
X0280862Y0124593D01*
X0296876Y0239356D02*
X0296878Y0239481D01*
X0296884Y0239606D01*
X0296894Y0239730D01*
X0296908Y0239854D01*
X0296925Y0239978D01*
X0296947Y0240101D01*
X0296973Y0240223D01*
X0297002Y0240345D01*
X0297035Y0240465D01*
X0297073Y0240584D01*
X0297113Y0240703D01*
X0297158Y0240819D01*
X0297206Y0240934D01*
X0297258Y0241048D01*
X0297314Y0241160D01*
X0297373Y0241270D01*
X0297435Y0241378D01*
X0297501Y0241485D01*
X0297570Y0241589D01*
X0297643Y0241690D01*
X0297718Y0241790D01*
X0297797Y0241887D01*
X0297879Y0241981D01*
X0297964Y0242073D01*
X0298051Y0242162D01*
X0298142Y0242248D01*
X0298235Y0242331D01*
X0298331Y0242412D01*
X0298429Y0242489D01*
X0298529Y0242563D01*
X0298632Y0242634D01*
X0298737Y0242701D01*
X0298845Y0242766D01*
X0298954Y0242826D01*
X0299065Y0242884D01*
X0299178Y0242937D01*
X0299292Y0242987D01*
X0299408Y0243034D01*
X0299525Y0243076D01*
X0299644Y0243115D01*
X0299764Y0243151D01*
X0299885Y0243182D01*
X0300007Y0243210D01*
X0300129Y0243233D01*
X0300253Y0243253D01*
X0300377Y0243269D01*
X0300501Y0243281D01*
X0300626Y0243289D01*
X0300751Y0243293D01*
X0300875Y0243293D01*
X0301000Y0243289D01*
X0301125Y0243281D01*
X0301249Y0243269D01*
X0301373Y0243253D01*
X0301497Y0243233D01*
X0301619Y0243210D01*
X0301741Y0243182D01*
X0301862Y0243151D01*
X0301982Y0243115D01*
X0302101Y0243076D01*
X0302218Y0243034D01*
X0302334Y0242987D01*
X0302448Y0242937D01*
X0302561Y0242884D01*
X0302672Y0242826D01*
X0302782Y0242766D01*
X0302889Y0242701D01*
X0302994Y0242634D01*
X0303097Y0242563D01*
X0303197Y0242489D01*
X0303295Y0242412D01*
X0303391Y0242331D01*
X0303484Y0242248D01*
X0303575Y0242162D01*
X0303662Y0242073D01*
X0303747Y0241981D01*
X0303829Y0241887D01*
X0303908Y0241790D01*
X0303983Y0241690D01*
X0304056Y0241589D01*
X0304125Y0241485D01*
X0304191Y0241378D01*
X0304253Y0241270D01*
X0304312Y0241160D01*
X0304368Y0241048D01*
X0304420Y0240934D01*
X0304468Y0240819D01*
X0304513Y0240703D01*
X0304553Y0240584D01*
X0304591Y0240465D01*
X0304624Y0240345D01*
X0304653Y0240223D01*
X0304679Y0240101D01*
X0304701Y0239978D01*
X0304718Y0239854D01*
X0304732Y0239730D01*
X0304742Y0239606D01*
X0304748Y0239481D01*
X0304750Y0239356D01*
X0304748Y0239231D01*
X0304742Y0239106D01*
X0304732Y0238982D01*
X0304718Y0238858D01*
X0304701Y0238734D01*
X0304679Y0238611D01*
X0304653Y0238489D01*
X0304624Y0238367D01*
X0304591Y0238247D01*
X0304553Y0238128D01*
X0304513Y0238009D01*
X0304468Y0237893D01*
X0304420Y0237778D01*
X0304368Y0237664D01*
X0304312Y0237552D01*
X0304253Y0237442D01*
X0304191Y0237334D01*
X0304125Y0237227D01*
X0304056Y0237123D01*
X0303983Y0237022D01*
X0303908Y0236922D01*
X0303829Y0236825D01*
X0303747Y0236731D01*
X0303662Y0236639D01*
X0303575Y0236550D01*
X0303484Y0236464D01*
X0303391Y0236381D01*
X0303295Y0236300D01*
X0303197Y0236223D01*
X0303097Y0236149D01*
X0302994Y0236078D01*
X0302889Y0236011D01*
X0302781Y0235946D01*
X0302672Y0235886D01*
X0302561Y0235828D01*
X0302448Y0235775D01*
X0302334Y0235725D01*
X0302218Y0235678D01*
X0302101Y0235636D01*
X0301982Y0235597D01*
X0301862Y0235561D01*
X0301741Y0235530D01*
X0301619Y0235502D01*
X0301497Y0235479D01*
X0301373Y0235459D01*
X0301249Y0235443D01*
X0301125Y0235431D01*
X0301000Y0235423D01*
X0300875Y0235419D01*
X0300751Y0235419D01*
X0300626Y0235423D01*
X0300501Y0235431D01*
X0300377Y0235443D01*
X0300253Y0235459D01*
X0300129Y0235479D01*
X0300007Y0235502D01*
X0299885Y0235530D01*
X0299764Y0235561D01*
X0299644Y0235597D01*
X0299525Y0235636D01*
X0299408Y0235678D01*
X0299292Y0235725D01*
X0299178Y0235775D01*
X0299065Y0235828D01*
X0298954Y0235886D01*
X0298844Y0235946D01*
X0298737Y0236011D01*
X0298632Y0236078D01*
X0298529Y0236149D01*
X0298429Y0236223D01*
X0298331Y0236300D01*
X0298235Y0236381D01*
X0298142Y0236464D01*
X0298051Y0236550D01*
X0297964Y0236639D01*
X0297879Y0236731D01*
X0297797Y0236825D01*
X0297718Y0236922D01*
X0297643Y0237022D01*
X0297570Y0237123D01*
X0297501Y0237227D01*
X0297435Y0237334D01*
X0297373Y0237442D01*
X0297314Y0237552D01*
X0297258Y0237664D01*
X0297206Y0237778D01*
X0297158Y0237893D01*
X0297113Y0238009D01*
X0297073Y0238128D01*
X0297035Y0238247D01*
X0297002Y0238367D01*
X0296973Y0238489D01*
X0296947Y0238611D01*
X0296925Y0238734D01*
X0296908Y0238858D01*
X0296894Y0238982D01*
X0296884Y0239106D01*
X0296878Y0239231D01*
X0296876Y0239356D01*
X0089800Y0097571D02*
X0089800Y0070621D01*
X0098057Y0062364D01*
X0098057Y0056512D01*
X0044092Y0039976D02*
X0044094Y0040081D01*
X0044100Y0040187D01*
X0044110Y0040291D01*
X0044124Y0040396D01*
X0044142Y0040500D01*
X0044163Y0040603D01*
X0044189Y0040705D01*
X0044219Y0040806D01*
X0044252Y0040906D01*
X0044289Y0041005D01*
X0044330Y0041102D01*
X0044374Y0041197D01*
X0044422Y0041291D01*
X0044474Y0041383D01*
X0044529Y0041473D01*
X0044587Y0041561D01*
X0044649Y0041646D01*
X0044714Y0041729D01*
X0044781Y0041810D01*
X0044852Y0041888D01*
X0044926Y0041963D01*
X0045003Y0042035D01*
X0045082Y0042105D01*
X0045164Y0042171D01*
X0045248Y0042234D01*
X0045335Y0042294D01*
X0045424Y0042351D01*
X0045515Y0042404D01*
X0045607Y0042454D01*
X0045702Y0042500D01*
X0045798Y0042543D01*
X0045896Y0042582D01*
X0045996Y0042617D01*
X0046096Y0042649D01*
X0046198Y0042676D01*
X0046301Y0042700D01*
X0046404Y0042720D01*
X0046508Y0042736D01*
X0046613Y0042748D01*
X0046718Y0042756D01*
X0046823Y0042760D01*
X0046929Y0042760D01*
X0047034Y0042756D01*
X0047139Y0042748D01*
X0047244Y0042736D01*
X0047348Y0042720D01*
X0047451Y0042700D01*
X0047554Y0042676D01*
X0047656Y0042649D01*
X0047756Y0042617D01*
X0047856Y0042582D01*
X0047954Y0042543D01*
X0048050Y0042500D01*
X0048145Y0042454D01*
X0048237Y0042404D01*
X0048328Y0042351D01*
X0048417Y0042294D01*
X0048504Y0042234D01*
X0048588Y0042171D01*
X0048670Y0042105D01*
X0048749Y0042035D01*
X0048826Y0041963D01*
X0048900Y0041888D01*
X0048971Y0041810D01*
X0049038Y0041729D01*
X0049103Y0041646D01*
X0049165Y0041561D01*
X0049223Y0041473D01*
X0049278Y0041383D01*
X0049330Y0041291D01*
X0049378Y0041197D01*
X0049422Y0041102D01*
X0049463Y0041005D01*
X0049500Y0040906D01*
X0049533Y0040806D01*
X0049563Y0040705D01*
X0049589Y0040603D01*
X0049610Y0040500D01*
X0049628Y0040396D01*
X0049642Y0040291D01*
X0049652Y0040187D01*
X0049658Y0040081D01*
X0049660Y0039976D01*
X0049658Y0039871D01*
X0049652Y0039765D01*
X0049642Y0039661D01*
X0049628Y0039556D01*
X0049610Y0039452D01*
X0049589Y0039349D01*
X0049563Y0039247D01*
X0049533Y0039146D01*
X0049500Y0039046D01*
X0049463Y0038947D01*
X0049422Y0038850D01*
X0049378Y0038755D01*
X0049330Y0038661D01*
X0049278Y0038569D01*
X0049223Y0038479D01*
X0049165Y0038391D01*
X0049103Y0038306D01*
X0049038Y0038223D01*
X0048971Y0038142D01*
X0048900Y0038064D01*
X0048826Y0037989D01*
X0048749Y0037917D01*
X0048670Y0037847D01*
X0048588Y0037781D01*
X0048504Y0037718D01*
X0048417Y0037658D01*
X0048328Y0037601D01*
X0048237Y0037548D01*
X0048145Y0037498D01*
X0048050Y0037452D01*
X0047954Y0037409D01*
X0047856Y0037370D01*
X0047756Y0037335D01*
X0047656Y0037303D01*
X0047554Y0037276D01*
X0047451Y0037252D01*
X0047348Y0037232D01*
X0047244Y0037216D01*
X0047139Y0037204D01*
X0047034Y0037196D01*
X0046929Y0037192D01*
X0046823Y0037192D01*
X0046718Y0037196D01*
X0046613Y0037204D01*
X0046508Y0037216D01*
X0046404Y0037232D01*
X0046301Y0037252D01*
X0046198Y0037276D01*
X0046096Y0037303D01*
X0045996Y0037335D01*
X0045896Y0037370D01*
X0045798Y0037409D01*
X0045702Y0037452D01*
X0045607Y0037498D01*
X0045515Y0037548D01*
X0045424Y0037601D01*
X0045335Y0037658D01*
X0045248Y0037718D01*
X0045164Y0037781D01*
X0045082Y0037847D01*
X0045003Y0037917D01*
X0044926Y0037989D01*
X0044852Y0038064D01*
X0044781Y0038142D01*
X0044714Y0038223D01*
X0044649Y0038306D01*
X0044587Y0038391D01*
X0044529Y0038479D01*
X0044474Y0038569D01*
X0044422Y0038661D01*
X0044374Y0038755D01*
X0044330Y0038850D01*
X0044289Y0038947D01*
X0044252Y0039046D01*
X0044219Y0039146D01*
X0044189Y0039247D01*
X0044163Y0039349D01*
X0044142Y0039452D01*
X0044124Y0039556D01*
X0044110Y0039661D01*
X0044100Y0039765D01*
X0044094Y0039871D01*
X0044092Y0039976D01*
X0009474Y0034632D02*
X0009476Y0034757D01*
X0009482Y0034882D01*
X0009492Y0035006D01*
X0009506Y0035130D01*
X0009523Y0035254D01*
X0009545Y0035377D01*
X0009571Y0035499D01*
X0009600Y0035621D01*
X0009633Y0035741D01*
X0009671Y0035860D01*
X0009711Y0035979D01*
X0009756Y0036095D01*
X0009804Y0036210D01*
X0009856Y0036324D01*
X0009912Y0036436D01*
X0009971Y0036546D01*
X0010033Y0036654D01*
X0010099Y0036761D01*
X0010168Y0036865D01*
X0010241Y0036966D01*
X0010316Y0037066D01*
X0010395Y0037163D01*
X0010477Y0037257D01*
X0010562Y0037349D01*
X0010649Y0037438D01*
X0010740Y0037524D01*
X0010833Y0037607D01*
X0010929Y0037688D01*
X0011027Y0037765D01*
X0011127Y0037839D01*
X0011230Y0037910D01*
X0011335Y0037977D01*
X0011443Y0038042D01*
X0011552Y0038102D01*
X0011663Y0038160D01*
X0011776Y0038213D01*
X0011890Y0038263D01*
X0012006Y0038310D01*
X0012123Y0038352D01*
X0012242Y0038391D01*
X0012362Y0038427D01*
X0012483Y0038458D01*
X0012605Y0038486D01*
X0012727Y0038509D01*
X0012851Y0038529D01*
X0012975Y0038545D01*
X0013099Y0038557D01*
X0013224Y0038565D01*
X0013349Y0038569D01*
X0013473Y0038569D01*
X0013598Y0038565D01*
X0013723Y0038557D01*
X0013847Y0038545D01*
X0013971Y0038529D01*
X0014095Y0038509D01*
X0014217Y0038486D01*
X0014339Y0038458D01*
X0014460Y0038427D01*
X0014580Y0038391D01*
X0014699Y0038352D01*
X0014816Y0038310D01*
X0014932Y0038263D01*
X0015046Y0038213D01*
X0015159Y0038160D01*
X0015270Y0038102D01*
X0015380Y0038042D01*
X0015487Y0037977D01*
X0015592Y0037910D01*
X0015695Y0037839D01*
X0015795Y0037765D01*
X0015893Y0037688D01*
X0015989Y0037607D01*
X0016082Y0037524D01*
X0016173Y0037438D01*
X0016260Y0037349D01*
X0016345Y0037257D01*
X0016427Y0037163D01*
X0016506Y0037066D01*
X0016581Y0036966D01*
X0016654Y0036865D01*
X0016723Y0036761D01*
X0016789Y0036654D01*
X0016851Y0036546D01*
X0016910Y0036436D01*
X0016966Y0036324D01*
X0017018Y0036210D01*
X0017066Y0036095D01*
X0017111Y0035979D01*
X0017151Y0035860D01*
X0017189Y0035741D01*
X0017222Y0035621D01*
X0017251Y0035499D01*
X0017277Y0035377D01*
X0017299Y0035254D01*
X0017316Y0035130D01*
X0017330Y0035006D01*
X0017340Y0034882D01*
X0017346Y0034757D01*
X0017348Y0034632D01*
X0017346Y0034507D01*
X0017340Y0034382D01*
X0017330Y0034258D01*
X0017316Y0034134D01*
X0017299Y0034010D01*
X0017277Y0033887D01*
X0017251Y0033765D01*
X0017222Y0033643D01*
X0017189Y0033523D01*
X0017151Y0033404D01*
X0017111Y0033285D01*
X0017066Y0033169D01*
X0017018Y0033054D01*
X0016966Y0032940D01*
X0016910Y0032828D01*
X0016851Y0032718D01*
X0016789Y0032610D01*
X0016723Y0032503D01*
X0016654Y0032399D01*
X0016581Y0032298D01*
X0016506Y0032198D01*
X0016427Y0032101D01*
X0016345Y0032007D01*
X0016260Y0031915D01*
X0016173Y0031826D01*
X0016082Y0031740D01*
X0015989Y0031657D01*
X0015893Y0031576D01*
X0015795Y0031499D01*
X0015695Y0031425D01*
X0015592Y0031354D01*
X0015487Y0031287D01*
X0015379Y0031222D01*
X0015270Y0031162D01*
X0015159Y0031104D01*
X0015046Y0031051D01*
X0014932Y0031001D01*
X0014816Y0030954D01*
X0014699Y0030912D01*
X0014580Y0030873D01*
X0014460Y0030837D01*
X0014339Y0030806D01*
X0014217Y0030778D01*
X0014095Y0030755D01*
X0013971Y0030735D01*
X0013847Y0030719D01*
X0013723Y0030707D01*
X0013598Y0030699D01*
X0013473Y0030695D01*
X0013349Y0030695D01*
X0013224Y0030699D01*
X0013099Y0030707D01*
X0012975Y0030719D01*
X0012851Y0030735D01*
X0012727Y0030755D01*
X0012605Y0030778D01*
X0012483Y0030806D01*
X0012362Y0030837D01*
X0012242Y0030873D01*
X0012123Y0030912D01*
X0012006Y0030954D01*
X0011890Y0031001D01*
X0011776Y0031051D01*
X0011663Y0031104D01*
X0011552Y0031162D01*
X0011442Y0031222D01*
X0011335Y0031287D01*
X0011230Y0031354D01*
X0011127Y0031425D01*
X0011027Y0031499D01*
X0010929Y0031576D01*
X0010833Y0031657D01*
X0010740Y0031740D01*
X0010649Y0031826D01*
X0010562Y0031915D01*
X0010477Y0032007D01*
X0010395Y0032101D01*
X0010316Y0032198D01*
X0010241Y0032298D01*
X0010168Y0032399D01*
X0010099Y0032503D01*
X0010033Y0032610D01*
X0009971Y0032718D01*
X0009912Y0032828D01*
X0009856Y0032940D01*
X0009804Y0033054D01*
X0009756Y0033169D01*
X0009711Y0033285D01*
X0009671Y0033404D01*
X0009633Y0033523D01*
X0009600Y0033643D01*
X0009571Y0033765D01*
X0009545Y0033887D01*
X0009523Y0034010D01*
X0009506Y0034134D01*
X0009492Y0034258D01*
X0009482Y0034382D01*
X0009476Y0034507D01*
X0009474Y0034632D01*
X0009474Y0239356D02*
X0009476Y0239481D01*
X0009482Y0239606D01*
X0009492Y0239730D01*
X0009506Y0239854D01*
X0009523Y0239978D01*
X0009545Y0240101D01*
X0009571Y0240223D01*
X0009600Y0240345D01*
X0009633Y0240465D01*
X0009671Y0240584D01*
X0009711Y0240703D01*
X0009756Y0240819D01*
X0009804Y0240934D01*
X0009856Y0241048D01*
X0009912Y0241160D01*
X0009971Y0241270D01*
X0010033Y0241378D01*
X0010099Y0241485D01*
X0010168Y0241589D01*
X0010241Y0241690D01*
X0010316Y0241790D01*
X0010395Y0241887D01*
X0010477Y0241981D01*
X0010562Y0242073D01*
X0010649Y0242162D01*
X0010740Y0242248D01*
X0010833Y0242331D01*
X0010929Y0242412D01*
X0011027Y0242489D01*
X0011127Y0242563D01*
X0011230Y0242634D01*
X0011335Y0242701D01*
X0011443Y0242766D01*
X0011552Y0242826D01*
X0011663Y0242884D01*
X0011776Y0242937D01*
X0011890Y0242987D01*
X0012006Y0243034D01*
X0012123Y0243076D01*
X0012242Y0243115D01*
X0012362Y0243151D01*
X0012483Y0243182D01*
X0012605Y0243210D01*
X0012727Y0243233D01*
X0012851Y0243253D01*
X0012975Y0243269D01*
X0013099Y0243281D01*
X0013224Y0243289D01*
X0013349Y0243293D01*
X0013473Y0243293D01*
X0013598Y0243289D01*
X0013723Y0243281D01*
X0013847Y0243269D01*
X0013971Y0243253D01*
X0014095Y0243233D01*
X0014217Y0243210D01*
X0014339Y0243182D01*
X0014460Y0243151D01*
X0014580Y0243115D01*
X0014699Y0243076D01*
X0014816Y0243034D01*
X0014932Y0242987D01*
X0015046Y0242937D01*
X0015159Y0242884D01*
X0015270Y0242826D01*
X0015380Y0242766D01*
X0015487Y0242701D01*
X0015592Y0242634D01*
X0015695Y0242563D01*
X0015795Y0242489D01*
X0015893Y0242412D01*
X0015989Y0242331D01*
X0016082Y0242248D01*
X0016173Y0242162D01*
X0016260Y0242073D01*
X0016345Y0241981D01*
X0016427Y0241887D01*
X0016506Y0241790D01*
X0016581Y0241690D01*
X0016654Y0241589D01*
X0016723Y0241485D01*
X0016789Y0241378D01*
X0016851Y0241270D01*
X0016910Y0241160D01*
X0016966Y0241048D01*
X0017018Y0240934D01*
X0017066Y0240819D01*
X0017111Y0240703D01*
X0017151Y0240584D01*
X0017189Y0240465D01*
X0017222Y0240345D01*
X0017251Y0240223D01*
X0017277Y0240101D01*
X0017299Y0239978D01*
X0017316Y0239854D01*
X0017330Y0239730D01*
X0017340Y0239606D01*
X0017346Y0239481D01*
X0017348Y0239356D01*
X0017346Y0239231D01*
X0017340Y0239106D01*
X0017330Y0238982D01*
X0017316Y0238858D01*
X0017299Y0238734D01*
X0017277Y0238611D01*
X0017251Y0238489D01*
X0017222Y0238367D01*
X0017189Y0238247D01*
X0017151Y0238128D01*
X0017111Y0238009D01*
X0017066Y0237893D01*
X0017018Y0237778D01*
X0016966Y0237664D01*
X0016910Y0237552D01*
X0016851Y0237442D01*
X0016789Y0237334D01*
X0016723Y0237227D01*
X0016654Y0237123D01*
X0016581Y0237022D01*
X0016506Y0236922D01*
X0016427Y0236825D01*
X0016345Y0236731D01*
X0016260Y0236639D01*
X0016173Y0236550D01*
X0016082Y0236464D01*
X0015989Y0236381D01*
X0015893Y0236300D01*
X0015795Y0236223D01*
X0015695Y0236149D01*
X0015592Y0236078D01*
X0015487Y0236011D01*
X0015379Y0235946D01*
X0015270Y0235886D01*
X0015159Y0235828D01*
X0015046Y0235775D01*
X0014932Y0235725D01*
X0014816Y0235678D01*
X0014699Y0235636D01*
X0014580Y0235597D01*
X0014460Y0235561D01*
X0014339Y0235530D01*
X0014217Y0235502D01*
X0014095Y0235479D01*
X0013971Y0235459D01*
X0013847Y0235443D01*
X0013723Y0235431D01*
X0013598Y0235423D01*
X0013473Y0235419D01*
X0013349Y0235419D01*
X0013224Y0235423D01*
X0013099Y0235431D01*
X0012975Y0235443D01*
X0012851Y0235459D01*
X0012727Y0235479D01*
X0012605Y0235502D01*
X0012483Y0235530D01*
X0012362Y0235561D01*
X0012242Y0235597D01*
X0012123Y0235636D01*
X0012006Y0235678D01*
X0011890Y0235725D01*
X0011776Y0235775D01*
X0011663Y0235828D01*
X0011552Y0235886D01*
X0011442Y0235946D01*
X0011335Y0236011D01*
X0011230Y0236078D01*
X0011127Y0236149D01*
X0011027Y0236223D01*
X0010929Y0236300D01*
X0010833Y0236381D01*
X0010740Y0236464D01*
X0010649Y0236550D01*
X0010562Y0236639D01*
X0010477Y0236731D01*
X0010395Y0236825D01*
X0010316Y0236922D01*
X0010241Y0237022D01*
X0010168Y0237123D01*
X0010099Y0237227D01*
X0010033Y0237334D01*
X0009971Y0237442D01*
X0009912Y0237552D01*
X0009856Y0237664D01*
X0009804Y0237778D01*
X0009756Y0237893D01*
X0009711Y0238009D01*
X0009671Y0238128D01*
X0009633Y0238247D01*
X0009600Y0238367D01*
X0009571Y0238489D01*
X0009545Y0238611D01*
X0009523Y0238734D01*
X0009506Y0238858D01*
X0009492Y0238982D01*
X0009482Y0239106D01*
X0009476Y0239231D01*
X0009474Y0239356D01*
D13*
X0019100Y0202811D03*
X0019100Y0195331D03*
D14*
X0059100Y0194474D03*
X0059100Y0201167D03*
X0068381Y0146709D03*
X0075074Y0146709D03*
X0102131Y0117959D03*
X0108824Y0117959D03*
X0114631Y0142959D03*
X0121324Y0142959D03*
X0167712Y0141295D03*
X0167712Y0134602D03*
X0176462Y0134602D03*
X0176462Y0141295D03*
X0195488Y0181846D03*
X0195488Y0188539D03*
X0139819Y0205183D03*
X0133126Y0205183D03*
X0046069Y0096433D03*
X0039376Y0096433D03*
X0023824Y0094209D03*
X0017131Y0094209D03*
X0143126Y0067683D03*
X0149819Y0067683D03*
X0257131Y0082959D03*
X0263824Y0082959D03*
D15*
X0071600Y0194809D03*
X0071600Y0205833D03*
D16*
X0045793Y0085183D03*
X0029651Y0085183D03*
X0248529Y0054071D03*
X0264671Y0054071D03*
D17*
X0148165Y0131433D03*
X0134779Y0131433D03*
X0077043Y0157821D03*
X0063657Y0157821D03*
X0028421Y0104209D03*
X0015035Y0104209D03*
D18*
X0025547Y0066218D02*
X0035547Y0066218D01*
X0035547Y0154818D02*
X0025547Y0154818D01*
D19*
X0101925Y0130331D03*
X0121187Y0130518D03*
X0211620Y0130705D03*
X0231925Y0130705D03*
D20*
X0033905Y0195280D03*
X0033905Y0207083D03*
D21*
X0034905Y0201181D03*
D22*
X0048358Y0201181D02*
X0048358Y0201181D01*
X0042452Y0201181D01*
X0042452Y0201181D01*
X0048358Y0201181D01*
D23*
X0057112Y0218028D03*
X0017742Y0218028D03*
X0017742Y0177870D03*
X0037427Y0168028D03*
X0057112Y0177870D03*
X0236836Y0089976D03*
X0276206Y0089976D03*
X0276206Y0049819D03*
X0256521Y0039976D03*
X0236836Y0049819D03*
D24*
X0110212Y0111433D03*
X0102732Y0111433D03*
X0106472Y0103559D03*
D25*
X0162228Y0149209D03*
X0181228Y0149209D03*
D26*
X0207712Y0157102D03*
X0207712Y0163795D03*
X0186462Y0175852D03*
X0186462Y0182545D03*
X0170212Y0121295D03*
X0170212Y0114602D03*
X0133962Y0112102D03*
X0133962Y0118795D03*
X0075212Y0173352D03*
X0075212Y0180045D03*
D27*
X0146728Y0171472D03*
X0151728Y0171472D03*
X0156728Y0171472D03*
X0161728Y0171472D03*
X0166728Y0171472D03*
X0171728Y0171472D03*
X0176728Y0171472D03*
X0176728Y0191945D03*
X0171728Y0191945D03*
X0166728Y0191945D03*
X0161728Y0191945D03*
X0156728Y0191945D03*
X0151728Y0191945D03*
X0146728Y0191945D03*
D28*
X0198011Y0123850D03*
X0198011Y0112047D03*
X0255511Y0075100D03*
X0255511Y0063297D03*
D29*
X0254511Y0069199D03*
X0197011Y0117949D03*
D30*
X0182326Y0116949D02*
X0182326Y0118949D01*
X0190696Y0118949D01*
X0190696Y0116949D01*
X0182326Y0116949D01*
X0157728Y0120844D02*
X0155728Y0120844D01*
X0157728Y0120844D02*
X0157728Y0112474D01*
X0155728Y0112474D01*
X0155728Y0120844D01*
X0155728Y0118473D02*
X0157728Y0118473D01*
X0239826Y0070199D02*
X0239826Y0068199D01*
X0239826Y0070199D02*
X0248196Y0070199D01*
X0248196Y0068199D01*
X0239826Y0068199D01*
D31*
X0162630Y0105159D03*
X0150826Y0105159D03*
D32*
X0156728Y0106159D03*
D33*
X0118647Y0193726D03*
X0108647Y0193726D03*
X0098647Y0193726D03*
X0098647Y0203726D03*
X0108647Y0203726D03*
X0118647Y0203726D03*
D34*
X0286767Y0164553D02*
X0298578Y0164553D01*
X0295822Y0143884D02*
X0295822Y0132073D01*
X0298578Y0111404D02*
X0286767Y0111404D01*
D35*
X0280862Y0124593D03*
X0271019Y0124593D03*
X0280862Y0132860D03*
X0280862Y0143096D03*
X0280862Y0151364D03*
X0271019Y0151364D03*
D36*
X0197269Y0088008D02*
X0197269Y0078165D01*
X0180734Y0078165D02*
X0180734Y0088008D01*
X0164198Y0088008D02*
X0164198Y0078165D01*
X0147663Y0078165D02*
X0147663Y0088008D01*
X0131128Y0088008D02*
X0131128Y0078165D01*
X0114592Y0078165D02*
X0114592Y0088008D01*
X0098057Y0088008D02*
X0098057Y0078165D01*
X0081521Y0078165D02*
X0081521Y0088008D01*
X0064986Y0088008D02*
X0064986Y0078165D01*
X0064986Y0056512D02*
X0064986Y0046669D01*
X0081521Y0046669D02*
X0081521Y0056512D01*
X0098057Y0056512D02*
X0098057Y0046669D01*
X0114592Y0046669D02*
X0114592Y0056512D01*
X0131128Y0056512D02*
X0131128Y0046669D01*
X0147663Y0046669D02*
X0147663Y0056512D01*
X0164198Y0056512D02*
X0164198Y0046669D01*
X0180734Y0046669D02*
X0180734Y0056512D01*
X0197269Y0056512D02*
X0197269Y0046669D01*
D37*
X0164198Y0056512D02*
X0156600Y0064110D01*
X0156600Y0092821D01*
X0160350Y0096571D01*
X0164100Y0096571D01*
X0185478Y0117949D01*
X0186511Y0117949D01*
X0197011Y0117949D01*
X0198011Y0123850D02*
X0198011Y0130482D01*
X0206600Y0139071D01*
X0206600Y0155990D01*
X0207712Y0157102D01*
X0207712Y0163795D02*
X0207712Y0166433D01*
X0210350Y0169071D01*
X0210350Y0205321D01*
X0206600Y0209071D01*
X0175350Y0209071D01*
X0166600Y0200321D01*
X0166600Y0192073D01*
X0166728Y0191945D01*
X0171600Y0192073D02*
X0171728Y0191945D01*
X0171728Y0197949D01*
X0177850Y0204071D01*
X0201600Y0204071D01*
X0205350Y0200321D01*
X0205350Y0174071D01*
X0199100Y0167821D01*
X0199100Y0137821D01*
X0190350Y0129071D01*
X0174100Y0129071D01*
X0170350Y0125321D01*
X0170350Y0121433D01*
X0170212Y0121295D01*
X0170212Y0114602D02*
X0170212Y0112742D01*
X0162630Y0105159D01*
X0156728Y0106159D02*
X0156728Y0099199D01*
X0147850Y0090321D01*
X0147850Y0078352D01*
X0147663Y0078165D01*
X0143126Y0073628D01*
X0143126Y0067683D01*
X0139100Y0072821D02*
X0137850Y0071571D01*
X0137850Y0061571D01*
X0139100Y0060321D01*
X0139100Y0031682D01*
X0140211Y0030571D01*
X0147663Y0056512D02*
X0149819Y0058667D01*
X0149819Y0067683D01*
X0139100Y0072821D02*
X0139100Y0091571D01*
X0150826Y0103297D01*
X0150826Y0105159D01*
X0150511Y0105159D01*
X0147850Y0107821D01*
X0147850Y0131118D01*
X0148165Y0131433D01*
X0141600Y0137821D02*
X0141600Y0104071D01*
X0131600Y0094071D01*
X0131600Y0078638D01*
X0131128Y0078165D01*
X0122850Y0064789D02*
X0131128Y0056512D01*
X0122850Y0064789D02*
X0122850Y0092821D01*
X0133962Y0103933D01*
X0133962Y0112102D01*
X0133962Y0118795D02*
X0133962Y0130616D01*
X0134779Y0131433D01*
X0135350Y0132004D01*
X0135350Y0147821D01*
X0142850Y0155321D01*
X0146600Y0155321D01*
X0156600Y0165321D01*
X0156600Y0171344D01*
X0156728Y0171472D01*
X0161600Y0171344D02*
X0161728Y0171472D01*
X0161600Y0171344D02*
X0161600Y0164071D01*
X0144100Y0146571D01*
X0142850Y0139071D02*
X0141600Y0137821D01*
X0142850Y0139071D02*
X0146600Y0139071D01*
X0154100Y0146571D01*
X0154100Y0150321D01*
X0157850Y0154071D01*
X0162228Y0154699D02*
X0162228Y0149209D01*
X0167712Y0143724D01*
X0167712Y0141295D01*
X0167712Y0134602D02*
X0167181Y0134071D01*
X0167712Y0134602D02*
X0176462Y0134602D01*
X0185881Y0134602D01*
X0194100Y0142821D01*
X0194100Y0170321D01*
X0201600Y0177821D01*
X0201600Y0185321D01*
X0199100Y0187821D01*
X0194956Y0187821D01*
X0195488Y0188539D01*
X0194100Y0188677D01*
X0194100Y0196571D01*
X0195488Y0188539D02*
X0180133Y0188539D01*
X0176728Y0191945D01*
X0186462Y0182545D02*
X0165350Y0182545D01*
X0161728Y0186167D01*
X0161728Y0191945D01*
X0151728Y0191945D02*
X0151728Y0187949D01*
X0146728Y0191945D02*
X0146728Y0200449D01*
X0150350Y0204071D01*
X0159100Y0204071D02*
X0159100Y0200321D01*
X0159100Y0204071D02*
X0164100Y0209071D01*
X0161600Y0211571D01*
X0140475Y0211571D01*
X0139819Y0210915D01*
X0139819Y0205183D01*
X0140475Y0211571D02*
X0116492Y0211571D01*
X0108647Y0203726D01*
X0098647Y0203726D02*
X0098647Y0217794D01*
X0098621Y0217821D01*
X0205350Y0217821D01*
X0219100Y0204071D01*
X0219100Y0196571D01*
X0236600Y0210321D02*
X0231600Y0215321D01*
X0236600Y0210321D02*
X0236600Y0177821D01*
X0246600Y0167821D01*
X0267850Y0167821D01*
X0278713Y0156958D01*
X0283350Y0156958D01*
X0286600Y0153708D01*
X0286600Y0148835D01*
X0280862Y0143096D01*
X0284575Y0137971D02*
X0276613Y0137971D01*
X0280862Y0132860D02*
X0279572Y0131571D01*
X0256600Y0131571D01*
X0249100Y0124071D01*
X0249100Y0110321D01*
X0242850Y0104071D01*
X0229100Y0104071D01*
X0227842Y0104071D01*
X0187850Y0104071D01*
X0181600Y0097821D01*
X0176600Y0097821D01*
X0164198Y0085419D01*
X0164198Y0078165D01*
X0180350Y0078549D02*
X0180350Y0089071D01*
X0189100Y0097821D01*
X0244100Y0097821D01*
X0251944Y0089976D01*
X0276206Y0089976D01*
X0284100Y0094071D02*
X0284100Y0085321D01*
X0279100Y0080321D01*
X0266600Y0080321D01*
X0263962Y0082959D01*
X0263824Y0082959D01*
X0257131Y0082959D02*
X0255511Y0081339D01*
X0255511Y0075100D01*
X0254511Y0069199D02*
X0244011Y0069199D01*
X0254511Y0069199D02*
X0262722Y0069199D01*
X0265350Y0066571D01*
X0265350Y0054750D01*
X0264671Y0054071D01*
X0271954Y0054071D01*
X0276206Y0049819D01*
X0279100Y0039071D02*
X0287850Y0047821D01*
X0287850Y0097821D01*
X0271600Y0114071D01*
X0271600Y0124012D01*
X0271019Y0124593D01*
X0256600Y0110321D02*
X0259100Y0107821D01*
X0270350Y0107821D01*
X0284100Y0094071D01*
X0255511Y0063297D02*
X0255511Y0050482D01*
X0246600Y0041571D01*
X0246600Y0030607D01*
X0246564Y0030571D01*
X0256521Y0039976D02*
X0257427Y0039071D01*
X0279100Y0039071D01*
X0248529Y0054071D02*
X0241088Y0054071D01*
X0236836Y0049819D01*
X0197269Y0078165D02*
X0209080Y0089976D01*
X0236836Y0089976D01*
X0227850Y0109071D02*
X0231600Y0112821D01*
X0231600Y0130380D01*
X0231925Y0130705D01*
X0227850Y0109071D02*
X0204100Y0109071D01*
X0201124Y0112047D01*
X0198011Y0112047D01*
X0176462Y0141295D02*
X0176462Y0144443D01*
X0181228Y0149209D01*
X0180212Y0149209D01*
X0171600Y0157821D01*
X0171600Y0171344D01*
X0171728Y0171472D01*
X0166728Y0171472D02*
X0166728Y0159199D01*
X0162228Y0154699D01*
X0151728Y0166699D02*
X0147850Y0162821D01*
X0142850Y0162821D01*
X0124100Y0144071D01*
X0122712Y0144071D01*
X0121462Y0142821D01*
X0121324Y0142959D01*
X0114631Y0142959D02*
X0100488Y0142959D01*
X0092850Y0135321D01*
X0092850Y0124071D01*
X0099100Y0117821D01*
X0102269Y0117821D01*
X0102732Y0117358D01*
X0102732Y0111433D01*
X0108824Y0115596D02*
X0110350Y0114071D01*
X0110350Y0111571D01*
X0110212Y0111433D01*
X0108824Y0115596D02*
X0108824Y0117959D01*
X0109100Y0118234D01*
X0109100Y0125321D01*
X0104090Y0130331D01*
X0101925Y0130331D01*
X0102131Y0117959D02*
X0102269Y0117821D01*
X0098057Y0108008D02*
X0098057Y0107155D01*
X0068381Y0136830D01*
X0068381Y0146709D01*
X0075074Y0146709D02*
X0077043Y0148677D01*
X0077043Y0157821D01*
X0078293Y0156571D01*
X0084100Y0156571D01*
X0085350Y0156571D01*
X0116600Y0156571D01*
X0126600Y0166571D01*
X0126600Y0182635D01*
X0126414Y0182821D01*
X0114100Y0182821D01*
X0109100Y0187821D01*
X0109100Y0193274D01*
X0108647Y0193726D01*
X0099100Y0193274D02*
X0099100Y0190321D01*
X0115350Y0174071D01*
X0115350Y0165321D01*
X0114100Y0164071D01*
X0082850Y0164071D01*
X0075212Y0171709D01*
X0075212Y0173352D01*
X0075931Y0174071D01*
X0075212Y0180045D02*
X0075212Y0191197D01*
X0075586Y0191571D01*
X0077850Y0191571D01*
X0090350Y0179071D01*
X0100350Y0179071D01*
X0106600Y0172821D01*
X0126414Y0182821D02*
X0128860Y0182821D01*
X0131630Y0186526D02*
X0125665Y0186526D01*
X0121447Y0190744D01*
X0121447Y0190926D01*
X0118647Y0193726D01*
X0118647Y0203726D02*
X0120104Y0205183D01*
X0133126Y0205183D01*
X0137048Y0191945D02*
X0146728Y0191945D01*
X0137048Y0191945D02*
X0131630Y0186526D01*
X0139100Y0176571D02*
X0139100Y0169071D01*
X0121600Y0151571D01*
X0096600Y0151571D01*
X0080350Y0135321D01*
X0059934Y0141571D02*
X0059100Y0140737D01*
X0036600Y0147821D02*
X0036600Y0148765D01*
X0030547Y0154818D01*
X0036600Y0147821D02*
X0081600Y0102821D01*
X0081600Y0078244D01*
X0081521Y0078165D01*
X0075350Y0069071D02*
X0073688Y0069071D01*
X0072850Y0069909D01*
X0072850Y0101571D01*
X0030350Y0144071D01*
X0024100Y0144071D01*
X0016600Y0151571D01*
X0016600Y0176728D01*
X0017742Y0177870D01*
X0009100Y0187821D02*
X0009100Y0149071D01*
X0015035Y0143136D01*
X0015035Y0104209D01*
X0015035Y0096305D01*
X0017131Y0094209D01*
X0023824Y0094209D02*
X0028760Y0094209D01*
X0033590Y0099039D01*
X0028421Y0104209D01*
X0033590Y0099039D02*
X0036196Y0096433D01*
X0039376Y0096433D01*
X0039100Y0096709D01*
X0039100Y0102821D01*
X0041600Y0105321D01*
X0056600Y0105321D01*
X0057850Y0104071D01*
X0059100Y0104071D01*
X0046069Y0096433D02*
X0046069Y0085459D01*
X0045931Y0085321D01*
X0045793Y0085183D01*
X0045931Y0085321D02*
X0051600Y0085321D01*
X0058756Y0078165D01*
X0064986Y0078165D01*
X0057850Y0070321D02*
X0044513Y0070321D01*
X0029651Y0085183D01*
X0057850Y0070321D02*
X0059100Y0069071D01*
X0073688Y0069071D01*
X0075350Y0069071D02*
X0076600Y0067821D01*
X0076600Y0066571D01*
X0081521Y0061650D01*
X0081521Y0056512D01*
X0106600Y0064504D02*
X0106600Y0103431D01*
X0106472Y0103559D01*
X0098057Y0107155D02*
X0098057Y0078165D01*
X0114100Y0078657D02*
X0114100Y0090321D01*
X0127850Y0104071D01*
X0127850Y0125321D01*
X0121403Y0130518D01*
X0121187Y0130518D01*
X0134779Y0131433D02*
X0136029Y0132683D01*
X0156728Y0116659D02*
X0156728Y0106159D01*
X0150826Y0105159D02*
X0150826Y0104547D01*
X0180350Y0078549D02*
X0180734Y0078165D01*
X0114592Y0078165D02*
X0114100Y0078657D01*
X0106600Y0064504D02*
X0114592Y0056512D01*
X0063657Y0157821D02*
X0059341Y0157821D01*
X0059100Y0158062D01*
X0057112Y0177870D02*
X0036561Y0177870D01*
X0019110Y0195321D01*
X0019100Y0195331D01*
X0016610Y0195331D01*
X0009100Y0187821D01*
X0019110Y0195321D02*
X0024100Y0195321D01*
X0029960Y0201181D01*
X0034905Y0201181D01*
X0045405Y0201181D01*
X0059086Y0201181D01*
X0059100Y0201167D01*
X0059100Y0201571D01*
X0064100Y0206571D01*
X0070862Y0206571D01*
X0071600Y0205833D01*
X0079612Y0205833D01*
X0091600Y0217821D01*
X0098621Y0217821D01*
X0098647Y0203726D02*
X0098204Y0203726D01*
X0091630Y0200926D02*
X0077717Y0200926D01*
X0071600Y0194809D01*
X0075212Y0191197D01*
X0071600Y0194809D02*
X0071265Y0194474D01*
X0059100Y0194474D01*
X0054946Y0190321D01*
X0035350Y0190321D01*
X0033905Y0191766D01*
X0033905Y0195280D01*
X0033905Y0207083D02*
X0033167Y0207821D01*
X0024100Y0207821D01*
X0019100Y0202821D01*
X0019100Y0202811D01*
X0033905Y0207083D02*
X0044850Y0218028D01*
X0057112Y0218028D01*
X0098647Y0193726D02*
X0099100Y0193274D01*
X0151728Y0171472D02*
X0151728Y0166699D01*
X0176728Y0171472D02*
X0185641Y0171472D01*
X0186462Y0172294D01*
X0186462Y0175852D01*
X0185641Y0171472D02*
X0185350Y0171182D01*
X0185350Y0164071D01*
X0185641Y0171472D02*
X0189002Y0171472D01*
X0194100Y0176571D01*
X0194100Y0181709D01*
X0195488Y0181846D01*
X0295665Y0137821D02*
X0295822Y0137978D01*
D38*
X0295815Y0137971D01*
X0284575Y0137971D01*
X0276613Y0137971D02*
X0238637Y0137971D01*
X0231925Y0131258D01*
X0231925Y0130705D01*
X0089800Y0103371D02*
X0089800Y0097571D01*
X0089800Y0103371D02*
X0059100Y0134071D01*
X0059100Y0140737D01*
X0059100Y0158062D01*
X0059100Y0175882D01*
X0057112Y0177870D01*
D39*
X0106600Y0172821D03*
X0115350Y0165321D03*
X0144100Y0146571D03*
X0185350Y0164071D03*
X0194100Y0196571D03*
X0219100Y0196571D03*
X0231600Y0215321D03*
X0164100Y0209071D03*
X0150350Y0204071D03*
X0080350Y0135321D03*
X0059100Y0104071D03*
X0219100Y0119071D03*
X0256600Y0110321D03*
X0219100Y0080321D03*
D40*
X0246564Y0030571D02*
X0180693Y0030571D01*
X0140211Y0030571D01*
X0111350Y0030571D01*
X0098057Y0043864D01*
X0098057Y0056512D01*
X0064986Y0056512D02*
X0040253Y0056512D01*
X0030547Y0066218D01*
X0030547Y0154818D02*
X0030547Y0161148D01*
X0037427Y0168028D01*
X0057112Y0218028D02*
X0068155Y0229071D01*
X0205350Y0229071D01*
X0229100Y0205321D01*
X0229100Y0148185D01*
X0211620Y0130705D01*
X0292673Y0134829D02*
X0292673Y0123921D01*
X0292673Y0111404D01*
X0295350Y0108726D01*
X0295350Y0045321D01*
X0280600Y0030571D01*
X0246564Y0030571D01*
X0292673Y0134829D02*
X0295822Y0137978D01*
D41*
X0300813Y0239356D03*
X0300813Y0034632D03*
X0013411Y0034632D03*
X0013411Y0239356D03*
M02*
