G75*
%MOIN*%
%OFA0B0*%
%FSLAX25Y25*%
%IPPOS*%
%LPD*%
%AMOC8*
5,1,8,0,0,1.08239X$1,22.5*
%
%ADD10C,0.01600*%
%ADD11R,0.10630X0.11614*%
%ADD12R,0.11614X0.10630*%
%ADD13R,0.06299X0.05118*%
%ADD14R,0.08268X0.05906*%
%ADD15R,0.08661X0.02362*%
%ADD16R,0.21654X0.07283*%
%ADD17R,0.07480X0.13386*%
%ADD18R,0.05118X0.05906*%
%ADD19R,0.05906X0.05118*%
%ADD20C,0.11200*%
%ADD21R,0.07087X0.04724*%
%ADD22C,0.02400*%
%ADD23C,0.03200*%
%ADD24C,0.04000*%
%ADD25C,0.04000*%
D10*
X0001800Y0001800D02*
X0001800Y0083011D01*
X0193001Y0083011D01*
X0193001Y0001800D01*
X0001800Y0001800D01*
D11*
X0046751Y0022263D03*
X0046751Y0048837D03*
X0158001Y0046337D03*
X0158001Y0019763D03*
D12*
X0136288Y0020550D03*
X0109713Y0020550D03*
D13*
X0099251Y0044113D03*
X0099251Y0051987D03*
D14*
X0109251Y0057637D03*
X0109251Y0043463D03*
D15*
X0086987Y0050550D03*
X0086987Y0055550D03*
X0086987Y0060550D03*
X0086987Y0065550D03*
X0066515Y0065550D03*
X0066515Y0060550D03*
X0066515Y0055550D03*
X0066515Y0050550D03*
D16*
X0126751Y0045511D03*
X0126751Y0065589D03*
D17*
X0146574Y0063050D03*
X0161928Y0063050D03*
D18*
X0077991Y0039300D03*
X0070511Y0039300D03*
X0070511Y0030550D03*
X0077991Y0030550D03*
X0077991Y0021800D03*
X0070511Y0021800D03*
D19*
X0051751Y0060560D03*
X0043001Y0060560D03*
X0034251Y0060560D03*
X0034251Y0068040D03*
X0043001Y0068040D03*
X0051751Y0068040D03*
D20*
X0021751Y0066800D03*
X0021751Y0051800D03*
X0021751Y0036800D03*
X0021751Y0020550D03*
X0174251Y0030550D03*
X0174251Y0045550D03*
X0174251Y0061800D03*
D21*
X0105152Y0034300D03*
X0093349Y0034300D03*
D22*
X0088349Y0039300D01*
X0077991Y0039300D01*
X0070511Y0039300D02*
X0070511Y0030550D01*
X0077991Y0030550D02*
X0077991Y0021800D01*
X0105152Y0034300D02*
X0120501Y0034300D01*
X0128001Y0026800D01*
X0128001Y0020550D01*
X0134713Y0020550D01*
X0135501Y0021337D01*
X0099251Y0044113D02*
X0090688Y0044113D01*
X0089251Y0045550D01*
X0089251Y0048286D01*
X0086987Y0050550D01*
X0086987Y0055550D02*
X0095688Y0055550D01*
X0099251Y0051987D01*
X0096751Y0060550D02*
X0086987Y0060550D01*
X0086987Y0065550D02*
X0094251Y0065550D01*
X0095501Y0066800D01*
X0066515Y0065550D02*
X0058237Y0065550D01*
X0058001Y0065313D01*
X0059251Y0060550D02*
X0066515Y0060550D01*
X0066515Y0055550D02*
X0060501Y0055550D01*
X0059251Y0054300D01*
X0063001Y0050550D02*
X0066515Y0050550D01*
X0063001Y0050550D02*
X0060501Y0048050D01*
X0060501Y0045550D01*
X0066751Y0039300D01*
X0070511Y0039300D01*
X0047213Y0021800D02*
X0046751Y0022263D01*
D23*
X0070048Y0022263D01*
X0070511Y0021800D01*
X0099251Y0026800D02*
X0099251Y0044113D01*
X0099900Y0043463D01*
X0109251Y0043463D01*
X0109251Y0057637D02*
X0105914Y0057637D01*
X0103001Y0060550D01*
X0096751Y0060550D01*
X0095501Y0066800D02*
X0093001Y0069300D01*
X0059251Y0069300D01*
X0058001Y0068050D01*
X0058001Y0067249D01*
X0057210Y0068040D01*
X0051751Y0068040D01*
X0043001Y0068040D01*
X0034251Y0068040D01*
X0034251Y0060560D02*
X0043001Y0060560D01*
X0043001Y0059300D01*
X0043001Y0060560D02*
X0051751Y0060560D01*
X0058001Y0063050D02*
X0058001Y0065313D01*
X0058001Y0067249D01*
X0058001Y0063050D02*
X0059251Y0061800D01*
X0059251Y0060550D01*
X0059251Y0054300D02*
X0052213Y0054300D01*
X0046751Y0048837D01*
X0046751Y0053050D01*
X0109251Y0057637D02*
X0117204Y0065589D01*
X0126751Y0065589D01*
D24*
X0136751Y0051800D02*
X0146574Y0061623D01*
X0146574Y0063050D01*
X0158001Y0059123D02*
X0161928Y0063050D01*
X0158001Y0059123D02*
X0158001Y0046337D01*
X0158788Y0045550D01*
X0174251Y0045550D01*
X0174251Y0030550D02*
X0174251Y0024300D01*
X0168001Y0018050D01*
X0159713Y0018050D01*
X0158001Y0019763D01*
X0155963Y0019763D01*
X0144251Y0008050D01*
X0097171Y0008050D01*
X0088836Y0016385D01*
X0084251Y0011800D01*
X0054251Y0011800D01*
X0046751Y0019300D01*
X0046751Y0022263D01*
X0037293Y0022263D01*
X0035501Y0024055D01*
X0035501Y0031800D01*
X0030501Y0036800D01*
X0021751Y0036800D01*
X0029251Y0046800D02*
X0044713Y0046800D01*
X0046751Y0048837D01*
X0046751Y0051800D01*
X0043001Y0055550D01*
X0043001Y0060560D01*
X0029251Y0046800D02*
X0024251Y0051800D01*
X0021751Y0051800D01*
X0021751Y0066800D02*
X0021751Y0071800D01*
X0026751Y0076800D01*
X0166751Y0076800D01*
X0174251Y0069300D01*
X0174251Y0061800D01*
X0136751Y0051800D02*
X0133040Y0051800D01*
X0126751Y0045511D01*
X0126751Y0040550D01*
X0135501Y0031800D01*
X0135501Y0021337D01*
X0136288Y0020550D01*
X0109713Y0020550D02*
X0096646Y0020550D01*
X0094823Y0022373D01*
X0099251Y0026800D01*
X0094823Y0022373D02*
X0088836Y0016385D01*
X0037293Y0022263D02*
X0023463Y0022263D01*
X0021751Y0020550D01*
D25*
X0009251Y0020550D03*
X0009251Y0036800D03*
X0009251Y0051800D03*
X0009251Y0066800D03*
X0185501Y0061800D03*
X0185501Y0045550D03*
X0185501Y0030550D03*
M02*
