%
M48
M72
T01C0.0198
%
T01
X1500Y5755
X1500Y6755
X1500Y7755
X4500Y7755
X4500Y6755
X4500Y5755
X4500Y4755
X5500Y4755
X5500Y8755
X4500Y8755
X4500Y14005
X4500Y15005
X4500Y16005
X4500Y17005
X4500Y18005
X5500Y18005
X5500Y14005
X1500Y15005
X1500Y16005
X1500Y17005
X4500Y23255
X4500Y24255
X4500Y25255
X4500Y26255
X4500Y27255
X5500Y27255
X5500Y23255
X1500Y24255
X1500Y25255
X1500Y26255
X10500Y26130
X11500Y26130
X11500Y16880
X10500Y16880
X10500Y7630
X11500Y7630
X11500Y6255
X11500Y2255
X11500Y11505
X11500Y15505
X11500Y20755
X11500Y24755
X4500Y21755
X4500Y20755
X4500Y12505
X4500Y11505
X4500Y3255
X4500Y2255
X7000Y8380
X8000Y8380
X9000Y8380
X9000Y17630
X8000Y17630
X7000Y17630
X7000Y26880
X8000Y26880
X9000Y26880
X13516Y25755
X15484Y25755
X15484Y21755
X13516Y21755
X13516Y16505
X15484Y16505
X15484Y12505
X13516Y12505
X13516Y7255
X15484Y7255
X15484Y3255
X13516Y3255
X8000Y1480
X8000Y10730
X8000Y19980
M30
