%
M48
M72
T01C0.01900
%
T01
X37200Y19700
X62200Y19700
X120950Y82200
X113450Y87200
X120950Y92200
X137200Y47200
X137200Y37200
X137200Y27200
X62200Y34700
X62200Y44700
X62200Y54700
X32200Y58450
X32200Y48450
X32200Y38450
X12200Y12200
X14700Y109700
X147200Y109700
X149700Y12200
X100793Y92200
X81107Y92200
X58293Y92200
X38607Y92200
M30
