%
M48
M72
T01C0.01900

%
T01
X51583Y103050
X51583Y113050
X87833Y165550
X97833Y165550
X163458Y162425
X163458Y152425
X163458Y172425
X193458Y172425
X193458Y162425
X193458Y152425
X215958Y148675
X215958Y138675
X252833Y119300
X215958Y108675
X252833Y89300
X174083Y89800
X174083Y108800
X215958Y178675
X156583Y135550
X130333Y133050
X131583Y124300
X130333Y148050
X88458Y184925
X115333Y98050
X111583Y89300
X122833Y66800
X98955Y50550
X124708Y24925
X170333Y63675
X155333Y71800
X156583Y80550
X20215Y50550
X125333Y51800
X165333Y51800
X252208Y77550
X268458Y86175
X282208Y63550
X237208Y110425
X268458Y126175
X237208Y169425
X142833Y174300
X142833Y164300
X142833Y154300
X142833Y144300
X142833Y134300
X142833Y124300
X205958Y93675
X215958Y93675
X225958Y93675
X259866Y41175
X279551Y41175
X279551Y147425
X259866Y147425
X30077Y117814
X30077Y98129
X14708Y13050
X14708Y181800
X289708Y181800
X290958Y13050
X215958Y24675
M30
