%
M48
M72
T01C0.01900
%
T01
X112200Y16575
X112200Y24449
X112200Y32323
X112200Y40197
X112200Y48071
X112200Y55945
X94075Y83504
X94075Y93504
X94075Y103504
X94075Y113504
X94075Y123504
X94075Y133504
X34075Y133504
X34075Y123504
X34075Y113504
X34075Y103504
X34075Y93504
X34075Y83504
X88450Y40325
X88450Y24700
X80325Y20950
X125842Y39405
X143558Y39405
X143558Y64995
X125842Y64995
X118450Y68450
X92200Y69700
X125842Y95655
X143558Y95655
X143558Y121245
X125842Y121245
X125842Y151905
X125842Y177495
X112200Y192200
X143558Y177495
X143558Y151905
X68450Y192200
X18450Y145950
X10950Y153450
X17825Y169075
X13450Y13450
X148450Y12200
X148450Y203450
X13450Y203450
M30
