<?xml version="1.0" encoding="UTF-8"?>
<svg xmlns="http://www.w3.org/2000/svg" xmlns:xlink="http://www.w3.org/1999/xlink" width="235pt" height="139pt" viewBox="0 0 235 139" version="1.1">
<g id="surface695498">
<path style="fill:none;stroke-width:0.01;stroke-linecap:round;stroke-linejoin:miter;stroke:rgb(0%,0%,0%);stroke-opacity:1;stroke-miterlimit:10;" d="M 0.201592 0.0150104 L 0.201592 1.764576 " transform="matrix(72,0,0,-72,-3.456,133.38544)"/>
<path style="fill:none;stroke-width:0.01;stroke-linecap:round;stroke-linejoin:miter;stroke:rgb(0%,0%,0%);stroke-opacity:1;stroke-miterlimit:10;" d="M 0.201592 1.764576 L 3.163614 1.764576 " transform="matrix(72,0,0,-72,-3.456,133.38544)"/>
<path style="fill:none;stroke-width:0.01;stroke-linecap:round;stroke-linejoin:miter;stroke:rgb(0%,0%,0%);stroke-opacity:1;stroke-miterlimit:10;" d="M 3.163614 1.764576 L 3.163614 0.0150104 " transform="matrix(72,0,0,-72,-3.456,133.38544)"/>
<path style="fill:none;stroke-width:0.01;stroke-linecap:round;stroke-linejoin:miter;stroke:rgb(0%,0%,0%);stroke-opacity:1;stroke-miterlimit:10;" d="M 3.163614 0.0150104 L 0.201592 0.0150104 " transform="matrix(72,0,0,-72,-3.456,133.38544)"/>
<path style=" stroke:none;fill-rule:evenodd;fill:rgb(0%,0%,0%);fill-opacity:1;" d="M 64.933594 92.707031 C 64.933594 89.273438 59.785156 89.273438 59.785156 92.707031 C 59.785156 96.136719 64.933594 96.136719 64.933594 92.707031 "/>
<path style=" stroke:none;fill-rule:evenodd;fill:rgb(0%,0%,0%);fill-opacity:1;" d="M 72.132812 92.707031 C 72.132812 89.273438 66.984375 89.273438 66.984375 92.707031 C 66.984375 96.136719 72.132812 96.136719 72.132812 92.707031 "/>
<path style=" stroke:none;fill-rule:evenodd;fill:rgb(0%,0%,0%);fill-opacity:1;" d="M 79.332031 92.707031 C 79.332031 89.273438 74.183594 89.273438 74.183594 92.707031 C 74.183594 96.136719 79.332031 96.136719 79.332031 92.707031 "/>
<path style=" stroke:none;fill-rule:evenodd;fill:rgb(0%,0%,0%);fill-opacity:1;" d="M 86.53125 92.707031 C 86.53125 89.273438 81.386719 89.273438 81.386719 92.707031 C 81.386719 96.136719 86.53125 96.136719 86.53125 92.707031 "/>
<path style=" stroke:none;fill-rule:evenodd;fill:rgb(0%,0%,0%);fill-opacity:1;" d="M 93.734375 92.707031 C 93.734375 89.273438 88.585938 89.273438 88.585938 92.707031 C 88.585938 96.136719 93.734375 96.136719 93.734375 92.707031 "/>
<path style=" stroke:none;fill-rule:evenodd;fill:rgb(0%,0%,0%);fill-opacity:1;" d="M 100.933594 92.707031 C 100.933594 89.273438 95.785156 89.273438 95.785156 92.707031 C 95.785156 96.136719 100.933594 96.136719 100.933594 92.707031 "/>
<path style=" stroke:none;fill-rule:evenodd;fill:rgb(0%,0%,0%);fill-opacity:1;" d="M 108.132812 92.707031 C 108.132812 89.273438 102.984375 89.273438 102.984375 92.707031 C 102.984375 96.136719 108.132812 96.136719 108.132812 92.707031 "/>
<path style=" stroke:none;fill-rule:evenodd;fill:rgb(0%,0%,0%);fill-opacity:1;" d="M 115.332031 92.707031 C 115.332031 89.273438 110.183594 89.273438 110.183594 92.707031 C 110.183594 96.136719 115.332031 96.136719 115.332031 92.707031 "/>
<path style=" stroke:none;fill-rule:evenodd;fill:rgb(0%,0%,0%);fill-opacity:1;" d="M 122.53125 92.707031 C 122.53125 89.273438 117.386719 89.273438 117.386719 92.707031 C 117.386719 96.136719 122.53125 96.136719 122.53125 92.707031 "/>
<path style=" stroke:none;fill-rule:evenodd;fill:rgb(0%,0%,0%);fill-opacity:1;" d="M 122.53125 49.503906 C 122.53125 46.074219 117.386719 46.074219 117.386719 49.503906 C 117.386719 52.9375 122.53125 52.9375 122.53125 49.503906 "/>
<path style=" stroke:none;fill-rule:evenodd;fill:rgb(0%,0%,0%);fill-opacity:1;" d="M 115.332031 49.503906 C 115.332031 46.074219 110.183594 46.074219 110.183594 49.503906 C 110.183594 52.9375 115.332031 52.9375 115.332031 49.503906 "/>
<path style=" stroke:none;fill-rule:evenodd;fill:rgb(0%,0%,0%);fill-opacity:1;" d="M 108.132812 49.503906 C 108.132812 46.074219 102.984375 46.074219 102.984375 49.503906 C 102.984375 52.9375 108.132812 52.9375 108.132812 49.503906 "/>
<path style=" stroke:none;fill-rule:evenodd;fill:rgb(0%,0%,0%);fill-opacity:1;" d="M 100.933594 49.503906 C 100.933594 46.074219 95.785156 46.074219 95.785156 49.503906 C 95.785156 52.9375 100.933594 52.9375 100.933594 49.503906 "/>
<path style=" stroke:none;fill-rule:evenodd;fill:rgb(0%,0%,0%);fill-opacity:1;" d="M 93.734375 49.503906 C 93.734375 46.074219 88.585938 46.074219 88.585938 49.503906 C 88.585938 52.9375 93.734375 52.9375 93.734375 49.503906 "/>
<path style=" stroke:none;fill-rule:evenodd;fill:rgb(0%,0%,0%);fill-opacity:1;" d="M 86.53125 49.503906 C 86.53125 46.074219 81.386719 46.074219 81.386719 49.503906 C 81.386719 52.9375 86.53125 52.9375 86.53125 49.503906 "/>
<path style=" stroke:none;fill-rule:evenodd;fill:rgb(0%,0%,0%);fill-opacity:1;" d="M 79.332031 49.503906 C 79.332031 46.074219 74.183594 46.074219 74.183594 49.503906 C 74.183594 52.9375 79.332031 52.9375 79.332031 49.503906 "/>
<path style=" stroke:none;fill-rule:evenodd;fill:rgb(0%,0%,0%);fill-opacity:1;" d="M 72.132812 49.503906 C 72.132812 46.074219 66.984375 46.074219 66.984375 49.503906 C 66.984375 52.9375 72.132812 52.9375 72.132812 49.503906 "/>
<path style=" stroke:none;fill-rule:evenodd;fill:rgb(0%,0%,0%);fill-opacity:1;" d="M 64.933594 49.503906 C 64.933594 46.074219 59.785156 46.074219 59.785156 49.503906 C 59.785156 52.9375 64.933594 52.9375 64.933594 49.503906 "/>
<path style=" stroke:none;fill-rule:evenodd;fill:rgb(0%,0%,0%);fill-opacity:1;" d="M 135.835938 89.722656 L 140.097656 89.722656 L 140.097656 84.890625 L 135.835938 84.890625 Z M 135.835938 89.722656 "/>
<path style=" stroke:none;fill-rule:evenodd;fill:rgb(0%,0%,0%);fill-opacity:1;" d="M 141.222656 89.722656 L 145.484375 89.722656 L 145.484375 84.890625 L 141.222656 84.890625 Z M 141.222656 89.722656 "/>
<path style=" stroke:none;fill-rule:evenodd;fill:rgb(0%,0%,0%);fill-opacity:1;" d="M 40.144531 65.128906 L 44.976562 65.128906 L 44.976562 60.867188 L 40.144531 60.867188 Z M 40.144531 65.128906 "/>
<path style=" stroke:none;fill-rule:evenodd;fill:rgb(0%,0%,0%);fill-opacity:1;" d="M 40.144531 59.742188 L 44.976562 59.742188 L 44.976562 55.480469 L 40.144531 55.480469 Z M 40.144531 59.742188 "/>
<path style=" stroke:none;fill-rule:evenodd;fill:rgb(0%,0%,0%);fill-opacity:1;" d="M 42.308594 32.40625 C 42.308594 29.140625 37.410156 29.140625 37.410156 32.40625 C 37.410156 35.667969 42.308594 35.667969 42.308594 32.40625 "/>
<path style=" stroke:none;fill-rule:evenodd;fill:rgb(0%,0%,0%);fill-opacity:1;" d="M 35.105469 32.40625 C 35.105469 29.140625 30.210938 29.140625 30.210938 32.40625 C 30.210938 35.667969 35.105469 35.667969 35.105469 32.40625 "/>
<path style=" stroke:none;fill-rule:evenodd;fill:rgb(0%,0%,0%);fill-opacity:1;" d="M 35.105469 25.207031 C 35.105469 21.941406 30.210938 21.941406 30.210938 25.207031 C 30.210938 28.46875 35.105469 28.46875 35.105469 25.207031 "/>
<path style=" stroke:none;fill-rule:evenodd;fill:rgb(0%,0%,0%);fill-opacity:1;" d="M 42.308594 25.207031 C 42.308594 21.941406 37.410156 21.941406 37.410156 25.207031 C 37.410156 28.46875 42.308594 28.46875 42.308594 25.207031 "/>
<path style=" stroke:none;fill-rule:evenodd;fill:rgb(0%,0%,0%);fill-opacity:1;" d="M 49.507812 25.207031 C 49.507812 21.941406 44.609375 21.941406 44.609375 25.207031 C 44.609375 28.46875 49.507812 28.46875 49.507812 25.207031 "/>
<path style=" stroke:none;fill-rule:evenodd;fill:rgb(0%,0%,0%);fill-opacity:1;" d="M 49.507812 32.40625 C 49.507812 29.140625 44.609375 29.140625 44.609375 32.40625 C 44.609375 35.667969 49.507812 35.667969 49.507812 32.40625 "/>
<path style=" stroke:none;fill-rule:evenodd;fill:rgb(0%,0%,0%);fill-opacity:1;" d="M 27.1875 32.40625 C 27.1875 30.101562 23.730469 30.101562 23.730469 32.40625 C 23.730469 34.710938 27.1875 34.710938 27.1875 32.40625 "/>
<path style=" stroke:none;fill-rule:evenodd;fill:rgb(0%,0%,0%);fill-opacity:1;" d="M 55.988281 32.40625 C 55.988281 30.101562 52.53125 30.101562 52.53125 32.40625 C 52.53125 34.710938 55.988281 34.710938 55.988281 32.40625 "/>
<path style=" stroke:none;fill-rule:evenodd;fill:rgb(0%,0%,0%);fill-opacity:1;" d="M 77.40625 111.859375 L 82.375 111.859375 L 82.375 107.597656 L 77.40625 107.597656 Z M 77.40625 111.859375 "/>
<path style=" stroke:none;fill-rule:evenodd;fill:rgb(0%,0%,0%);fill-opacity:1;" d="M 77.40625 124.617188 L 82.375 124.617188 L 82.375 120.355469 L 77.40625 120.355469 Z M 77.40625 124.617188 "/>
<path style=" stroke:none;fill-rule:evenodd;fill:rgb(0%,0%,0%);fill-opacity:1;" d="M 99.941406 124.617188 L 104.910156 124.617188 L 104.910156 120.355469 L 99.941406 120.355469 Z M 99.941406 124.617188 "/>
<path style=" stroke:none;fill-rule:evenodd;fill:rgb(0%,0%,0%);fill-opacity:1;" d="M 99.941406 111.859375 L 104.910156 111.859375 L 104.910156 107.597656 L 99.941406 107.597656 Z M 99.941406 111.859375 "/>
<path style=" stroke:none;fill-rule:evenodd;fill:rgb(0%,0%,0%);fill-opacity:1;" d="M 126.152344 24.304688 C 126.152344 20.847656 120.96875 20.847656 120.96875 24.304688 C 120.96875 27.761719 126.152344 27.761719 126.152344 24.304688 "/>
<path style=" stroke:none;fill-rule:evenodd;fill:rgb(0%,0%,0%);fill-opacity:1;" d="M 133.351562 24.304688 C 133.351562 20.847656 128.167969 20.847656 128.167969 24.304688 C 128.167969 27.761719 133.351562 27.761719 133.351562 24.304688 "/>
<path style=" stroke:none;fill-rule:evenodd;fill:rgb(0%,0%,0%);fill-opacity:1;" d="M 140.550781 24.304688 C 140.550781 20.847656 135.367188 20.847656 135.367188 24.304688 C 135.367188 27.761719 140.550781 27.761719 140.550781 24.304688 "/>
<path style=" stroke:none;fill-rule:evenodd;fill:rgb(0%,0%,0%);fill-opacity:1;" d="M 185.765625 18.003906 C 185.765625 11.863281 176.550781 11.863281 176.550781 18.003906 C 176.550781 24.148438 185.765625 24.148438 185.765625 18.003906 "/>
<path style=" stroke:none;fill-rule:evenodd;fill:rgb(0%,0%,0%);fill-opacity:1;" d="M 198.367188 18.003906 C 198.367188 11.863281 189.152344 11.863281 189.152344 18.003906 C 189.152344 24.148438 198.367188 24.148438 198.367188 18.003906 "/>
<path style=" stroke:none;fill-rule:evenodd;fill:rgb(0%,0%,0%);fill-opacity:1;" d="M 210.96875 18.003906 C 210.96875 11.863281 201.75 11.863281 201.75 18.003906 C 201.75 24.148438 210.96875 24.148438 210.96875 18.003906 "/>
<path style=" stroke:none;fill-rule:evenodd;fill:rgb(0%,0%,0%);fill-opacity:1;" d="M 210.96875 31.503906 C 210.96875 25.363281 201.75 25.363281 201.75 31.503906 C 201.75 37.648438 210.96875 37.648438 210.96875 31.503906 "/>
<path style=" stroke:none;fill-rule:evenodd;fill:rgb(0%,0%,0%);fill-opacity:1;" d="M 198.367188 31.503906 C 198.367188 25.363281 189.152344 25.363281 189.152344 31.503906 C 189.152344 37.648438 198.367188 37.648438 198.367188 31.503906 "/>
<path style=" stroke:none;fill-rule:evenodd;fill:rgb(0%,0%,0%);fill-opacity:1;" d="M 185.765625 31.503906 C 185.765625 25.363281 176.550781 25.363281 176.550781 31.503906 C 176.550781 37.648438 185.765625 37.648438 185.765625 31.503906 "/>
<path style=" stroke:none;fill-rule:evenodd;fill:rgb(0%,0%,0%);fill-opacity:1;" d="M 115.265625 36.050781 L 118.679688 36.050781 L 118.679688 32.355469 L 115.265625 32.355469 Z M 115.265625 36.050781 "/>
<path style=" stroke:none;fill-rule:evenodd;fill:rgb(0%,0%,0%);fill-opacity:1;" d="M 110.449219 36.050781 L 113.863281 36.050781 L 113.863281 32.355469 L 110.449219 32.355469 Z M 110.449219 36.050781 "/>
<path style=" stroke:none;fill-rule:evenodd;fill:rgb(0%,0%,0%);fill-opacity:1;" d="M 48.664062 44.152344 L 52.078125 44.152344 L 52.078125 40.457031 L 48.664062 40.457031 Z M 48.664062 44.152344 "/>
<path style=" stroke:none;fill-rule:evenodd;fill:rgb(0%,0%,0%);fill-opacity:1;" d="M 43.847656 44.152344 L 47.261719 44.152344 L 47.261719 40.457031 L 43.847656 40.457031 Z M 43.847656 44.152344 "/>
<path style=" stroke:none;fill-rule:evenodd;fill:rgb(0%,0%,0%);fill-opacity:1;" d="M 44.3125 103.699219 L 48.007812 103.699219 L 48.007812 100.285156 L 44.3125 100.285156 Z M 44.3125 103.699219 "/>
<path style=" stroke:none;fill-rule:evenodd;fill:rgb(0%,0%,0%);fill-opacity:1;" d="M 44.3125 108.523438 L 48.007812 108.523438 L 48.007812 105.109375 L 44.3125 105.109375 Z M 44.3125 108.523438 "/>
<path style=" stroke:none;fill-rule:evenodd;fill:rgb(0%,0%,0%);fill-opacity:1;" d="M 54.886719 99.90625 C 54.886719 96.671875 50.03125 96.671875 50.03125 99.90625 C 50.03125 103.140625 54.886719 103.140625 54.886719 99.90625 "/>
<path style=" stroke:none;fill-rule:evenodd;fill:rgb(0%,0%,0%);fill-opacity:1;" d="M 36.886719 94.503906 C 36.886719 91.269531 32.03125 91.269531 32.03125 94.503906 C 32.03125 97.742188 36.886719 97.742188 36.886719 94.503906 "/>
<path style=" stroke:none;fill-rule:evenodd;fill:rgb(0%,0%,0%);fill-opacity:1;" d="M 28.785156 75.605469 C 28.785156 72.371094 23.933594 72.371094 23.933594 75.605469 C 23.933594 78.839844 28.785156 78.839844 28.785156 75.605469 "/>
<path style=" stroke:none;fill-rule:evenodd;fill:rgb(0%,0%,0%);fill-opacity:1;" d="M 45.886719 68.40625 C 45.886719 65.171875 41.03125 65.171875 41.03125 68.40625 C 41.03125 71.640625 45.886719 71.640625 45.886719 68.40625 "/>
<path style=" stroke:none;fill-rule:evenodd;fill:rgb(0%,0%,0%);fill-opacity:1;" d="M 50.386719 47.707031 C 50.386719 44.46875 45.53125 44.46875 45.53125 47.707031 C 45.53125 50.941406 50.386719 50.941406 50.386719 47.707031 "/>
<path style=" stroke:none;fill-rule:evenodd;fill:rgb(0%,0%,0%);fill-opacity:1;" d="M 38.6875 44.105469 C 38.6875 40.871094 33.832031 40.871094 33.832031 44.105469 C 33.832031 47.339844 38.6875 47.339844 38.6875 44.105469 "/>
<path style=" stroke:none;fill-rule:evenodd;fill:rgb(0%,0%,0%);fill-opacity:1;" d="M 75.585938 21.605469 C 75.585938 18.371094 70.734375 18.371094 70.734375 21.605469 C 70.734375 24.839844 75.585938 24.839844 75.585938 21.605469 "/>
<path style=" stroke:none;fill-rule:evenodd;fill:rgb(0%,0%,0%);fill-opacity:1;" d="M 101.6875 38.707031 C 101.6875 35.46875 96.832031 35.46875 96.832031 38.707031 C 96.832031 41.941406 101.6875 41.941406 101.6875 38.707031 "/>
<path style=" stroke:none;fill-rule:evenodd;fill:rgb(0%,0%,0%);fill-opacity:1;" d="M 119.6875 24.304688 C 119.6875 21.070312 114.832031 21.070312 114.832031 24.304688 C 114.832031 27.539062 119.6875 27.539062 119.6875 24.304688 "/>
<path style=" stroke:none;fill-rule:evenodd;fill:rgb(0%,0%,0%);fill-opacity:1;" d="M 111.585938 20.707031 C 111.585938 17.46875 106.734375 17.46875 106.734375 20.707031 C 106.734375 23.941406 111.585938 23.941406 111.585938 20.707031 "/>
<path style=" stroke:none;fill-rule:evenodd;fill:rgb(0%,0%,0%);fill-opacity:1;" d="M 108.886719 16.207031 C 108.886719 12.96875 104.03125 12.96875 104.03125 16.207031 C 104.03125 19.441406 108.886719 19.441406 108.886719 16.207031 "/>
<path style=" stroke:none;fill-rule:evenodd;fill:rgb(0%,0%,0%);fill-opacity:1;" d="M 140.386719 41.40625 C 140.386719 38.171875 135.53125 38.171875 135.53125 41.40625 C 135.53125 44.640625 140.386719 44.640625 140.386719 41.40625 "/>
<path style=" stroke:none;fill-rule:evenodd;fill:rgb(0%,0%,0%);fill-opacity:1;" d="M 172.785156 48.605469 C 172.785156 45.371094 167.933594 45.371094 167.933594 48.605469 C 167.933594 51.839844 172.785156 51.839844 172.785156 48.605469 "/>
<path style=" stroke:none;fill-rule:evenodd;fill:rgb(0%,0%,0%);fill-opacity:1;" d="M 160.1875 65.707031 C 160.1875 62.46875 155.332031 62.46875 155.332031 65.707031 C 155.332031 68.941406 160.1875 68.941406 160.1875 65.707031 "/>
<path style=" stroke:none;fill-rule:evenodd;fill:rgb(0%,0%,0%);fill-opacity:1;" d="M 160.1875 74.707031 C 160.1875 71.46875 155.332031 71.46875 155.332031 74.707031 C 155.332031 77.941406 160.1875 77.941406 160.1875 74.707031 "/>
<path style=" stroke:none;fill-rule:evenodd;fill:rgb(0%,0%,0%);fill-opacity:1;" d="M 152.085938 87.304688 C 152.085938 84.070312 147.234375 84.070312 147.234375 87.304688 C 147.234375 90.539062 152.085938 90.539062 152.085938 87.304688 "/>
<path style=" stroke:none;fill-rule:evenodd;fill:rgb(0%,0%,0%);fill-opacity:1;" d="M 157.484375 99.003906 C 157.484375 95.769531 152.632812 95.769531 152.632812 99.003906 C 152.632812 102.242188 157.484375 102.242188 157.484375 99.003906 "/>
<path style=" stroke:none;fill-rule:evenodd;fill:rgb(0%,0%,0%);fill-opacity:1;" d="M 147.585938 101.707031 C 147.585938 98.46875 142.734375 98.46875 142.734375 101.707031 C 142.734375 104.941406 147.585938 104.941406 147.585938 101.707031 "/>
<path style=" stroke:none;fill-rule:evenodd;fill:rgb(0%,0%,0%);fill-opacity:1;" d="M 128.6875 82.804688 C 128.6875 79.570312 123.832031 79.570312 123.832031 82.804688 C 123.832031 86.039062 128.6875 86.039062 128.6875 82.804688 "/>
<path style=" stroke:none;fill-rule:evenodd;fill:rgb(0%,0%,0%);fill-opacity:1;" d="M 128.6875 76.503906 C 128.6875 73.269531 123.832031 73.269531 123.832031 76.503906 C 123.832031 79.742188 128.6875 79.742188 128.6875 76.503906 "/>
<path style=" stroke:none;fill-rule:evenodd;fill:rgb(0%,0%,0%);fill-opacity:1;" d="M 111.585938 68.40625 C 111.585938 65.171875 106.734375 65.171875 106.734375 68.40625 C 106.734375 71.640625 111.585938 71.640625 111.585938 68.40625 "/>
<path style=" stroke:none;fill-rule:evenodd;fill:rgb(0%,0%,0%);fill-opacity:1;" d="M 106.1875 68.40625 C 106.1875 65.171875 101.332031 65.171875 101.332031 68.40625 C 101.332031 71.640625 106.1875 71.640625 106.1875 68.40625 "/>
<path style=" stroke:none;fill-rule:evenodd;fill:rgb(0%,0%,0%);fill-opacity:1;" d="M 170.984375 16.207031 C 170.984375 12.96875 166.132812 12.96875 166.132812 16.207031 C 166.132812 19.441406 170.984375 19.441406 170.984375 16.207031 "/>
<path style=" stroke:none;fill-rule:evenodd;fill:rgb(0%,0%,0%);fill-opacity:1;" d="M 214.1875 54.003906 C 214.1875 50.769531 209.332031 50.769531 209.332031 54.003906 C 209.332031 57.242188 214.1875 57.242188 214.1875 54.003906 "/>
<path style=" stroke:none;fill-rule:evenodd;fill:rgb(0%,0%,0%);fill-opacity:1;" d="M 37.785156 14.40625 C 37.785156 11.171875 32.933594 11.171875 32.933594 14.40625 C 32.933594 17.640625 37.785156 17.640625 37.785156 14.40625 "/>
<path style=" stroke:none;fill-rule:evenodd;fill:rgb(0%,0%,0%);fill-opacity:1;" d="M 22.324219 12.605469 C 22.324219 5.984375 12.394531 5.984375 12.394531 12.605469 C 12.394531 19.226562 22.324219 19.226562 22.324219 12.605469 "/>
<path style=" stroke:none;fill-rule:evenodd;fill:rgb(0%,0%,0%);fill-opacity:1;" d="M 223.023438 12.605469 C 223.023438 5.984375 213.09375 5.984375 213.09375 12.605469 C 213.09375 19.226562 223.023438 19.226562 223.023438 12.605469 "/>
<path style=" stroke:none;fill-rule:evenodd;fill:rgb(0%,0%,0%);fill-opacity:1;" d="M 223.023438 126.003906 C 223.023438 119.386719 213.09375 119.386719 213.09375 126.003906 C 213.09375 132.625 223.023438 132.625 223.023438 126.003906 "/>
<path style=" stroke:none;fill-rule:evenodd;fill:rgb(0%,0%,0%);fill-opacity:1;" d="M 22.324219 126.003906 C 22.324219 119.386719 12.394531 119.386719 12.394531 126.003906 C 12.394531 132.625 22.324219 132.625 22.324219 126.003906 "/>
</g>
</svg>
