<?xml version="1.0" encoding="UTF-8"?>
<svg xmlns="http://www.w3.org/2000/svg" xmlns:xlink="http://www.w3.org/1999/xlink" width="235pt" height="139pt" viewBox="0 0 235 139" version="1.1">
<g id="surface693418">
<path style="fill:none;stroke-width:0.01;stroke-linecap:round;stroke-linejoin:miter;stroke:rgb(0%,0%,0%);stroke-opacity:1;stroke-miterlimit:10;" d="M 0.201592 0.0150104 L 0.201592 1.764576 " transform="matrix(72,0,0,-72,-3.456,133.38544)"/>
<path style="fill:none;stroke-width:0.01;stroke-linecap:round;stroke-linejoin:miter;stroke:rgb(0%,0%,0%);stroke-opacity:1;stroke-miterlimit:10;" d="M 0.201592 1.764576 L 3.163614 1.764576 " transform="matrix(72,0,0,-72,-3.456,133.38544)"/>
<path style="fill:none;stroke-width:0.01;stroke-linecap:round;stroke-linejoin:miter;stroke:rgb(0%,0%,0%);stroke-opacity:1;stroke-miterlimit:10;" d="M 3.163614 1.764576 L 3.163614 0.0150104 " transform="matrix(72,0,0,-72,-3.456,133.38544)"/>
<path style="fill:none;stroke-width:0.01;stroke-linecap:round;stroke-linejoin:miter;stroke:rgb(0%,0%,0%);stroke-opacity:1;stroke-miterlimit:10;" d="M 3.163614 0.0150104 L 0.201592 0.0150104 " transform="matrix(72,0,0,-72,-3.456,133.38544)"/>
<path style=" stroke:none;fill-rule:evenodd;fill:rgb(0%,0%,0%);fill-opacity:1;" d="M 64.933594 92.707031 C 64.933594 89.273438 59.785156 89.273438 59.785156 92.707031 C 59.785156 96.136719 64.933594 96.136719 64.933594 92.707031 "/>
<path style=" stroke:none;fill-rule:evenodd;fill:rgb(0%,0%,0%);fill-opacity:1;" d="M 72.132812 92.707031 C 72.132812 89.273438 66.984375 89.273438 66.984375 92.707031 C 66.984375 96.136719 72.132812 96.136719 72.132812 92.707031 "/>
<path style=" stroke:none;fill-rule:evenodd;fill:rgb(0%,0%,0%);fill-opacity:1;" d="M 79.332031 92.707031 C 79.332031 89.273438 74.183594 89.273438 74.183594 92.707031 C 74.183594 96.136719 79.332031 96.136719 79.332031 92.707031 "/>
<path style=" stroke:none;fill-rule:evenodd;fill:rgb(0%,0%,0%);fill-opacity:1;" d="M 86.53125 92.707031 C 86.53125 89.273438 81.386719 89.273438 81.386719 92.707031 C 81.386719 96.136719 86.53125 96.136719 86.53125 92.707031 "/>
<path style=" stroke:none;fill-rule:evenodd;fill:rgb(0%,0%,0%);fill-opacity:1;" d="M 93.734375 92.707031 C 93.734375 89.273438 88.585938 89.273438 88.585938 92.707031 C 88.585938 96.136719 93.734375 96.136719 93.734375 92.707031 "/>
<path style=" stroke:none;fill-rule:evenodd;fill:rgb(0%,0%,0%);fill-opacity:1;" d="M 100.933594 92.707031 C 100.933594 89.273438 95.785156 89.273438 95.785156 92.707031 C 95.785156 96.136719 100.933594 96.136719 100.933594 92.707031 "/>
<path style=" stroke:none;fill-rule:evenodd;fill:rgb(0%,0%,0%);fill-opacity:1;" d="M 108.132812 92.707031 C 108.132812 89.273438 102.984375 89.273438 102.984375 92.707031 C 102.984375 96.136719 108.132812 96.136719 108.132812 92.707031 "/>
<path style=" stroke:none;fill-rule:evenodd;fill:rgb(0%,0%,0%);fill-opacity:1;" d="M 115.332031 92.707031 C 115.332031 89.273438 110.183594 89.273438 110.183594 92.707031 C 110.183594 96.136719 115.332031 96.136719 115.332031 92.707031 "/>
<path style=" stroke:none;fill-rule:evenodd;fill:rgb(0%,0%,0%);fill-opacity:1;" d="M 122.53125 92.707031 C 122.53125 89.273438 117.386719 89.273438 117.386719 92.707031 C 117.386719 96.136719 122.53125 96.136719 122.53125 92.707031 "/>
<path style=" stroke:none;fill-rule:evenodd;fill:rgb(0%,0%,0%);fill-opacity:1;" d="M 122.53125 49.503906 C 122.53125 46.074219 117.386719 46.074219 117.386719 49.503906 C 117.386719 52.9375 122.53125 52.9375 122.53125 49.503906 "/>
<path style=" stroke:none;fill-rule:evenodd;fill:rgb(0%,0%,0%);fill-opacity:1;" d="M 115.332031 49.503906 C 115.332031 46.074219 110.183594 46.074219 110.183594 49.503906 C 110.183594 52.9375 115.332031 52.9375 115.332031 49.503906 "/>
<path style=" stroke:none;fill-rule:evenodd;fill:rgb(0%,0%,0%);fill-opacity:1;" d="M 108.132812 49.503906 C 108.132812 46.074219 102.984375 46.074219 102.984375 49.503906 C 102.984375 52.9375 108.132812 52.9375 108.132812 49.503906 "/>
<path style=" stroke:none;fill-rule:evenodd;fill:rgb(0%,0%,0%);fill-opacity:1;" d="M 100.933594 49.503906 C 100.933594 46.074219 95.785156 46.074219 95.785156 49.503906 C 95.785156 52.9375 100.933594 52.9375 100.933594 49.503906 "/>
<path style=" stroke:none;fill-rule:evenodd;fill:rgb(0%,0%,0%);fill-opacity:1;" d="M 93.734375 49.503906 C 93.734375 46.074219 88.585938 46.074219 88.585938 49.503906 C 88.585938 52.9375 93.734375 52.9375 93.734375 49.503906 "/>
<path style=" stroke:none;fill-rule:evenodd;fill:rgb(0%,0%,0%);fill-opacity:1;" d="M 86.53125 49.503906 C 86.53125 46.074219 81.386719 46.074219 81.386719 49.503906 C 81.386719 52.9375 86.53125 52.9375 86.53125 49.503906 "/>
<path style=" stroke:none;fill-rule:evenodd;fill:rgb(0%,0%,0%);fill-opacity:1;" d="M 79.332031 49.503906 C 79.332031 46.074219 74.183594 46.074219 74.183594 49.503906 C 74.183594 52.9375 79.332031 52.9375 79.332031 49.503906 "/>
<path style=" stroke:none;fill-rule:evenodd;fill:rgb(0%,0%,0%);fill-opacity:1;" d="M 72.132812 49.503906 C 72.132812 46.074219 66.984375 46.074219 66.984375 49.503906 C 66.984375 52.9375 72.132812 52.9375 72.132812 49.503906 "/>
<path style=" stroke:none;fill-rule:evenodd;fill:rgb(0%,0%,0%);fill-opacity:1;" d="M 64.933594 49.503906 C 64.933594 46.074219 59.785156 46.074219 59.785156 49.503906 C 59.785156 52.9375 64.933594 52.9375 64.933594 49.503906 "/>
<path style=" stroke:none;fill-rule:evenodd;fill:rgb(0%,0%,0%);fill-opacity:1;" d="M 47.203125 60.628906 L 53.539062 60.628906 L 53.539062 58.179688 L 47.203125 58.179688 Z M 47.203125 60.628906 "/>
<path style=" stroke:none;fill-rule:evenodd;fill:rgb(0%,0%,0%);fill-opacity:1;" d="M 47.203125 64.230469 L 53.539062 64.230469 L 53.539062 61.78125 L 47.203125 61.78125 Z M 47.203125 64.230469 "/>
<path style=" stroke:none;fill-rule:evenodd;fill:rgb(0%,0%,0%);fill-opacity:1;" d="M 47.203125 67.828125 L 53.539062 67.828125 L 53.539062 65.378906 L 47.203125 65.378906 Z M 47.203125 67.828125 "/>
<path style=" stroke:none;fill-rule:evenodd;fill:rgb(0%,0%,0%);fill-opacity:1;" d="M 47.203125 71.429688 L 53.539062 71.429688 L 53.539062 68.980469 L 47.203125 68.980469 Z M 47.203125 71.429688 "/>
<path style=" stroke:none;fill-rule:evenodd;fill:rgb(0%,0%,0%);fill-opacity:1;" d="M 47.203125 75.03125 L 53.539062 75.03125 L 53.539062 72.582031 L 47.203125 72.582031 Z M 47.203125 75.03125 "/>
<path style=" stroke:none;fill-rule:evenodd;fill:rgb(0%,0%,0%);fill-opacity:1;" d="M 47.203125 78.628906 L 53.539062 78.628906 L 53.539062 76.179688 L 47.203125 76.179688 Z M 47.203125 78.628906 "/>
<path style=" stroke:none;fill-rule:evenodd;fill:rgb(0%,0%,0%);fill-opacity:1;" d="M 47.203125 82.230469 L 53.539062 82.230469 L 53.539062 79.78125 L 47.203125 79.78125 Z M 47.203125 82.230469 "/>
<path style=" stroke:none;fill-rule:evenodd;fill:rgb(0%,0%,0%);fill-opacity:1;" d="M 47.203125 85.828125 L 53.539062 85.828125 L 53.539062 83.378906 L 47.203125 83.378906 Z M 47.203125 85.828125 "/>
<path style=" stroke:none;fill-rule:evenodd;fill:rgb(0%,0%,0%);fill-opacity:1;" d="M 29.777344 85.828125 L 36.113281 85.828125 L 36.113281 83.378906 L 29.777344 83.378906 Z M 29.777344 85.828125 "/>
<path style=" stroke:none;fill-rule:evenodd;fill:rgb(0%,0%,0%);fill-opacity:1;" d="M 29.777344 82.230469 L 36.113281 82.230469 L 36.113281 79.78125 L 29.777344 79.78125 Z M 29.777344 82.230469 "/>
<path style=" stroke:none;fill-rule:evenodd;fill:rgb(0%,0%,0%);fill-opacity:1;" d="M 29.777344 78.628906 L 36.113281 78.628906 L 36.113281 76.179688 L 29.777344 76.179688 Z M 29.777344 78.628906 "/>
<path style=" stroke:none;fill-rule:evenodd;fill:rgb(0%,0%,0%);fill-opacity:1;" d="M 29.777344 75.03125 L 36.113281 75.03125 L 36.113281 72.582031 L 29.777344 72.582031 Z M 29.777344 75.03125 "/>
<path style=" stroke:none;fill-rule:evenodd;fill:rgb(0%,0%,0%);fill-opacity:1;" d="M 29.777344 71.429688 L 36.113281 71.429688 L 36.113281 68.980469 L 29.777344 68.980469 Z M 29.777344 71.429688 "/>
<path style=" stroke:none;fill-rule:evenodd;fill:rgb(0%,0%,0%);fill-opacity:1;" d="M 29.777344 67.828125 L 36.113281 67.828125 L 36.113281 65.378906 L 29.777344 65.378906 Z M 29.777344 67.828125 "/>
<path style=" stroke:none;fill-rule:evenodd;fill:rgb(0%,0%,0%);fill-opacity:1;" d="M 29.777344 64.230469 L 36.113281 64.230469 L 36.113281 61.78125 L 29.777344 61.78125 Z M 29.777344 64.230469 "/>
<path style=" stroke:none;fill-rule:evenodd;fill:rgb(0%,0%,0%);fill-opacity:1;" d="M 29.777344 60.628906 L 36.113281 60.628906 L 36.113281 58.179688 L 29.777344 58.179688 Z M 29.777344 60.628906 "/>
<path style=" stroke:none;fill-rule:evenodd;fill:rgb(0%,0%,0%);fill-opacity:1;" d="M 130.578125 61.53125 L 136.914062 61.53125 L 136.914062 59.082031 L 130.578125 59.082031 Z M 130.578125 61.53125 "/>
<path style=" stroke:none;fill-rule:evenodd;fill:rgb(0%,0%,0%);fill-opacity:1;" d="M 130.578125 57.929688 L 136.914062 57.929688 L 136.914062 55.480469 L 130.578125 55.480469 Z M 130.578125 57.929688 "/>
<path style=" stroke:none;fill-rule:evenodd;fill:rgb(0%,0%,0%);fill-opacity:1;" d="M 130.578125 65.128906 L 136.914062 65.128906 L 136.914062 62.679688 L 130.578125 62.679688 Z M 130.578125 65.128906 "/>
<path style=" stroke:none;fill-rule:evenodd;fill:rgb(0%,0%,0%);fill-opacity:1;" d="M 130.578125 68.730469 L 136.914062 68.730469 L 136.914062 66.28125 L 130.578125 66.28125 Z M 130.578125 68.730469 "/>
<path style=" stroke:none;fill-rule:evenodd;fill:rgb(0%,0%,0%);fill-opacity:1;" d="M 130.578125 72.328125 L 136.914062 72.328125 L 136.914062 69.878906 L 130.578125 69.878906 Z M 130.578125 72.328125 "/>
<path style=" stroke:none;fill-rule:evenodd;fill:rgb(0%,0%,0%);fill-opacity:1;" d="M 130.578125 75.929688 L 136.914062 75.929688 L 136.914062 73.480469 L 130.578125 73.480469 Z M 130.578125 75.929688 "/>
<path style=" stroke:none;fill-rule:evenodd;fill:rgb(0%,0%,0%);fill-opacity:1;" d="M 130.578125 79.53125 L 136.914062 79.53125 L 136.914062 77.082031 L 130.578125 77.082031 Z M 130.578125 79.53125 "/>
<path style=" stroke:none;fill-rule:evenodd;fill:rgb(0%,0%,0%);fill-opacity:1;" d="M 130.578125 83.128906 L 136.914062 83.128906 L 136.914062 80.679688 L 130.578125 80.679688 Z M 130.578125 83.128906 "/>
<path style=" stroke:none;fill-rule:evenodd;fill:rgb(0%,0%,0%);fill-opacity:1;" d="M 148.003906 83.128906 L 154.339844 83.128906 L 154.339844 80.679688 L 148.003906 80.679688 Z M 148.003906 83.128906 "/>
<path style=" stroke:none;fill-rule:evenodd;fill:rgb(0%,0%,0%);fill-opacity:1;" d="M 148.003906 79.53125 L 154.339844 79.53125 L 154.339844 77.082031 L 148.003906 77.082031 Z M 148.003906 79.53125 "/>
<path style=" stroke:none;fill-rule:evenodd;fill:rgb(0%,0%,0%);fill-opacity:1;" d="M 148.003906 75.929688 L 154.339844 75.929688 L 154.339844 73.480469 L 148.003906 73.480469 Z M 148.003906 75.929688 "/>
<path style=" stroke:none;fill-rule:evenodd;fill:rgb(0%,0%,0%);fill-opacity:1;" d="M 148.003906 72.328125 L 154.339844 72.328125 L 154.339844 69.878906 L 148.003906 69.878906 Z M 148.003906 72.328125 "/>
<path style=" stroke:none;fill-rule:evenodd;fill:rgb(0%,0%,0%);fill-opacity:1;" d="M 148.003906 68.730469 L 154.339844 68.730469 L 154.339844 66.28125 L 148.003906 66.28125 Z M 148.003906 68.730469 "/>
<path style=" stroke:none;fill-rule:evenodd;fill:rgb(0%,0%,0%);fill-opacity:1;" d="M 148.003906 65.128906 L 154.339844 65.128906 L 154.339844 62.679688 L 148.003906 62.679688 Z M 148.003906 65.128906 "/>
<path style=" stroke:none;fill-rule:evenodd;fill:rgb(0%,0%,0%);fill-opacity:1;" d="M 148.003906 61.53125 L 154.339844 61.53125 L 154.339844 59.082031 L 148.003906 59.082031 Z M 148.003906 61.53125 "/>
<path style=" stroke:none;fill-rule:evenodd;fill:rgb(0%,0%,0%);fill-opacity:1;" d="M 148.003906 57.929688 L 154.339844 57.929688 L 154.339844 55.480469 L 148.003906 55.480469 Z M 148.003906 57.929688 "/>
<path style=" stroke:none;fill-rule:evenodd;fill:rgb(0%,0%,0%);fill-opacity:1;" d="M 158.148438 56.753906 L 161.5625 56.753906 L 161.5625 53.058594 L 158.148438 53.058594 Z M 158.148438 56.753906 "/>
<path style=" stroke:none;fill-rule:evenodd;fill:rgb(0%,0%,0%);fill-opacity:1;" d="M 162.964844 56.753906 L 166.378906 56.753906 L 166.378906 53.058594 L 162.964844 53.058594 Z M 162.964844 56.753906 "/>
<path style=" stroke:none;fill-rule:evenodd;fill:rgb(0%,0%,0%);fill-opacity:1;" d="M 136.863281 52.253906 L 140.277344 52.253906 L 140.277344 48.558594 L 136.863281 48.558594 Z M 136.863281 52.253906 "/>
<path style=" stroke:none;fill-rule:evenodd;fill:rgb(0%,0%,0%);fill-opacity:1;" d="M 132.046875 52.253906 L 135.460938 52.253906 L 135.460938 48.558594 L 132.046875 48.558594 Z M 132.046875 52.253906 "/>
<path style=" stroke:none;fill-rule:evenodd;fill:rgb(0%,0%,0%);fill-opacity:1;" d="M 145.546875 25.253906 L 148.960938 25.253906 L 148.960938 21.558594 L 145.546875 21.558594 Z M 145.546875 25.253906 "/>
<path style=" stroke:none;fill-rule:evenodd;fill:rgb(0%,0%,0%);fill-opacity:1;" d="M 150.363281 25.253906 L 153.777344 25.253906 L 153.777344 21.558594 L 150.363281 21.558594 Z M 150.363281 25.253906 "/>
<path style=" stroke:none;fill-rule:evenodd;fill:rgb(0%,0%,0%);fill-opacity:1;" d="M 74.765625 69.351562 L 78.179688 69.351562 L 78.179688 65.65625 L 74.765625 65.65625 Z M 74.765625 69.351562 "/>
<path style=" stroke:none;fill-rule:evenodd;fill:rgb(0%,0%,0%);fill-opacity:1;" d="M 69.949219 69.351562 L 73.363281 69.351562 L 73.363281 65.65625 L 69.949219 65.65625 Z M 69.949219 69.351562 "/>
<path style=" stroke:none;fill-rule:evenodd;fill:rgb(0%,0%,0%);fill-opacity:1;" d="M 69.949219 75.652344 L 73.363281 75.652344 L 73.363281 71.957031 L 69.949219 71.957031 Z M 69.949219 75.652344 "/>
<path style=" stroke:none;fill-rule:evenodd;fill:rgb(0%,0%,0%);fill-opacity:1;" d="M 74.765625 75.652344 L 78.179688 75.652344 L 78.179688 71.957031 L 74.765625 71.957031 Z M 74.765625 75.652344 "/>
<path style=" stroke:none;fill-rule:evenodd;fill:rgb(0%,0%,0%);fill-opacity:1;" d="M 43.265625 93.652344 L 46.679688 93.652344 L 46.679688 89.957031 L 43.265625 89.957031 Z M 43.265625 93.652344 "/>
<path style=" stroke:none;fill-rule:evenodd;fill:rgb(0%,0%,0%);fill-opacity:1;" d="M 38.449219 93.652344 L 41.863281 93.652344 L 41.863281 89.957031 L 38.449219 89.957031 Z M 38.449219 93.652344 "/>
<path style=" stroke:none;fill-rule:evenodd;fill:rgb(0%,0%,0%);fill-opacity:1;" d="M 24.363281 83.753906 L 27.777344 83.753906 L 27.777344 80.058594 L 24.363281 80.058594 Z M 24.363281 83.753906 "/>
<path style=" stroke:none;fill-rule:evenodd;fill:rgb(0%,0%,0%);fill-opacity:1;" d="M 19.546875 83.753906 L 22.960938 83.753906 L 22.960938 80.058594 L 19.546875 80.058594 Z M 19.546875 83.753906 "/>
<path style=" stroke:none;fill-rule:evenodd;fill:rgb(0%,0%,0%);fill-opacity:1;" d="M 155.449219 82.851562 L 158.863281 82.851562 L 158.863281 79.15625 L 155.449219 79.15625 Z M 155.449219 82.851562 "/>
<path style=" stroke:none;fill-rule:evenodd;fill:rgb(0%,0%,0%);fill-opacity:1;" d="M 160.265625 82.851562 L 163.679688 82.851562 L 163.679688 79.15625 L 160.265625 79.15625 Z M 160.265625 82.851562 "/>
<path style=" stroke:none;fill-rule:evenodd;fill:rgb(0%,0%,0%);fill-opacity:1;" d="M 118.113281 83.898438 L 121.808594 83.898438 L 121.808594 80.484375 L 118.113281 80.484375 Z M 118.113281 83.898438 "/>
<path style=" stroke:none;fill-rule:evenodd;fill:rgb(0%,0%,0%);fill-opacity:1;" d="M 118.113281 88.722656 L 121.808594 88.722656 L 121.808594 85.308594 L 118.113281 85.308594 Z M 118.113281 88.722656 "/>
<path style=" stroke:none;fill-rule:evenodd;fill:rgb(0%,0%,0%);fill-opacity:1;" d="M 110.914062 88.722656 L 114.609375 88.722656 L 114.609375 85.308594 L 110.914062 85.308594 Z M 110.914062 88.722656 "/>
<path style=" stroke:none;fill-rule:evenodd;fill:rgb(0%,0%,0%);fill-opacity:1;" d="M 110.914062 83.898438 L 114.609375 83.898438 L 114.609375 80.484375 L 110.914062 80.484375 Z M 110.914062 83.898438 "/>
<path style=" stroke:none;fill-rule:evenodd;fill:rgb(0%,0%,0%);fill-opacity:1;" d="M 103.710938 83.898438 L 107.40625 83.898438 L 107.40625 80.484375 L 103.710938 80.484375 Z M 103.710938 83.898438 "/>
<path style=" stroke:none;fill-rule:evenodd;fill:rgb(0%,0%,0%);fill-opacity:1;" d="M 103.710938 88.722656 L 107.40625 88.722656 L 107.40625 85.308594 L 103.710938 85.308594 Z M 103.710938 88.722656 "/>
<path style=" stroke:none;fill-rule:evenodd;fill:rgb(0%,0%,0%);fill-opacity:1;" d="M 96.511719 87.824219 L 100.207031 87.824219 L 100.207031 84.410156 L 96.511719 84.410156 Z M 96.511719 87.824219 "/>
<path style=" stroke:none;fill-rule:evenodd;fill:rgb(0%,0%,0%);fill-opacity:1;" d="M 89.3125 86.925781 L 93.007812 86.925781 L 93.007812 83.511719 L 89.3125 83.511719 Z M 89.3125 86.925781 "/>
<path style=" stroke:none;fill-rule:evenodd;fill:rgb(0%,0%,0%);fill-opacity:1;" d="M 96.511719 83 L 100.207031 83 L 100.207031 79.585938 L 96.511719 79.585938 Z M 96.511719 83 "/>
<path style=" stroke:none;fill-rule:evenodd;fill:rgb(0%,0%,0%);fill-opacity:1;" d="M 89.3125 82.101562 L 93.007812 82.101562 L 93.007812 78.6875 L 89.3125 78.6875 Z M 89.3125 82.101562 "/>
<path style=" stroke:none;fill-rule:evenodd;fill:rgb(0%,0%,0%);fill-opacity:1;" d="M 74.914062 83 L 78.609375 83 L 78.609375 79.585938 L 74.914062 79.585938 Z M 74.914062 83 "/>
<path style=" stroke:none;fill-rule:evenodd;fill:rgb(0%,0%,0%);fill-opacity:1;" d="M 74.914062 87.824219 L 78.609375 87.824219 L 78.609375 84.410156 L 74.914062 84.410156 Z M 74.914062 87.824219 "/>
<path style=" stroke:none;fill-rule:evenodd;fill:rgb(0%,0%,0%);fill-opacity:1;" d="M 67.710938 87.824219 L 71.40625 87.824219 L 71.40625 84.410156 L 67.710938 84.410156 Z M 67.710938 87.824219 "/>
<path style=" stroke:none;fill-rule:evenodd;fill:rgb(0%,0%,0%);fill-opacity:1;" d="M 60.511719 87.824219 L 64.207031 87.824219 L 64.207031 84.410156 L 60.511719 84.410156 Z M 60.511719 87.824219 "/>
<path style=" stroke:none;fill-rule:evenodd;fill:rgb(0%,0%,0%);fill-opacity:1;" d="M 60.511719 83 L 64.207031 83 L 64.207031 79.585938 L 60.511719 79.585938 Z M 60.511719 83 "/>
<path style=" stroke:none;fill-rule:evenodd;fill:rgb(0%,0%,0%);fill-opacity:1;" d="M 67.710938 83 L 71.40625 83 L 71.40625 79.585938 L 67.710938 79.585938 Z M 67.710938 83 "/>
<path style=" stroke:none;fill-rule:evenodd;fill:rgb(0%,0%,0%);fill-opacity:1;" d="M 67.710938 61.722656 L 71.40625 61.722656 L 71.40625 58.308594 L 67.710938 58.308594 Z M 67.710938 61.722656 "/>
<path style=" stroke:none;fill-rule:evenodd;fill:rgb(0%,0%,0%);fill-opacity:1;" d="M 60.511719 61.722656 L 64.207031 61.722656 L 64.207031 58.308594 L 60.511719 58.308594 Z M 60.511719 61.722656 "/>
<path style=" stroke:none;fill-rule:evenodd;fill:rgb(0%,0%,0%);fill-opacity:1;" d="M 60.511719 56.898438 L 64.207031 56.898438 L 64.207031 53.484375 L 60.511719 53.484375 Z M 60.511719 56.898438 "/>
<path style=" stroke:none;fill-rule:evenodd;fill:rgb(0%,0%,0%);fill-opacity:1;" d="M 67.710938 56.898438 L 71.40625 56.898438 L 71.40625 53.484375 L 67.710938 53.484375 Z M 67.710938 56.898438 "/>
<path style=" stroke:none;fill-rule:evenodd;fill:rgb(0%,0%,0%);fill-opacity:1;" d="M 74.914062 56.898438 L 78.609375 56.898438 L 78.609375 53.484375 L 74.914062 53.484375 Z M 74.914062 56.898438 "/>
<path style=" stroke:none;fill-rule:evenodd;fill:rgb(0%,0%,0%);fill-opacity:1;" d="M 74.914062 61.722656 L 78.609375 61.722656 L 78.609375 58.308594 L 74.914062 58.308594 Z M 74.914062 61.722656 "/>
<path style=" stroke:none;fill-rule:evenodd;fill:rgb(0%,0%,0%);fill-opacity:1;" d="M 103.710938 61.722656 L 107.40625 61.722656 L 107.40625 58.308594 L 103.710938 58.308594 Z M 103.710938 61.722656 "/>
<path style=" stroke:none;fill-rule:evenodd;fill:rgb(0%,0%,0%);fill-opacity:1;" d="M 110.914062 61.722656 L 114.609375 61.722656 L 114.609375 58.308594 L 110.914062 58.308594 Z M 110.914062 61.722656 "/>
<path style=" stroke:none;fill-rule:evenodd;fill:rgb(0%,0%,0%);fill-opacity:1;" d="M 118.113281 61.722656 L 121.808594 61.722656 L 121.808594 58.308594 L 118.113281 58.308594 Z M 118.113281 61.722656 "/>
<path style=" stroke:none;fill-rule:evenodd;fill:rgb(0%,0%,0%);fill-opacity:1;" d="M 118.113281 56.898438 L 121.808594 56.898438 L 121.808594 53.484375 L 118.113281 53.484375 Z M 118.113281 56.898438 "/>
<path style=" stroke:none;fill-rule:evenodd;fill:rgb(0%,0%,0%);fill-opacity:1;" d="M 110.914062 56.898438 L 114.609375 56.898438 L 114.609375 53.484375 L 110.914062 53.484375 Z M 110.914062 56.898438 "/>
<path style=" stroke:none;fill-rule:evenodd;fill:rgb(0%,0%,0%);fill-opacity:1;" d="M 103.710938 56.898438 L 107.40625 56.898438 L 107.40625 53.484375 L 103.710938 53.484375 Z M 103.710938 56.898438 "/>
<path style=" stroke:none;fill-rule:evenodd;fill:rgb(0%,0%,0%);fill-opacity:1;" d="M 95.226562 29.914062 L 100.339844 29.914062 L 100.339844 27.640625 L 95.226562 27.640625 Z M 95.226562 29.914062 "/>
<path style=" stroke:none;fill-rule:evenodd;fill:rgb(0%,0%,0%);fill-opacity:1;" d="M 95.226562 26.3125 L 100.339844 26.3125 L 100.339844 24.039062 L 95.226562 24.039062 Z M 95.226562 26.3125 "/>
<path style=" stroke:none;fill-rule:evenodd;fill:rgb(0%,0%,0%);fill-opacity:1;" d="M 95.226562 22.714844 L 100.339844 22.714844 L 100.339844 20.441406 L 95.226562 20.441406 Z M 95.226562 22.714844 "/>
<path style=" stroke:none;fill-rule:evenodd;fill:rgb(0%,0%,0%);fill-opacity:1;" d="M 95.226562 19.144531 L 100.339844 19.144531 L 100.339844 16.871094 L 95.226562 16.871094 Z M 95.226562 19.144531 "/>
<path style=" stroke:none;fill-rule:evenodd;fill:rgb(0%,0%,0%);fill-opacity:1;" d="M 80.179688 19.144531 L 85.292969 19.144531 L 85.292969 16.871094 L 80.179688 16.871094 Z M 80.179688 19.144531 "/>
<path style=" stroke:none;fill-rule:evenodd;fill:rgb(0%,0%,0%);fill-opacity:1;" d="M 80.179688 22.742188 L 85.292969 22.742188 L 85.292969 20.46875 L 80.179688 20.46875 Z M 80.179688 22.742188 "/>
<path style=" stroke:none;fill-rule:evenodd;fill:rgb(0%,0%,0%);fill-opacity:1;" d="M 80.179688 26.34375 L 85.292969 26.34375 L 85.292969 24.070312 L 80.179688 24.070312 Z M 80.179688 26.34375 "/>
<path style=" stroke:none;fill-rule:evenodd;fill:rgb(0%,0%,0%);fill-opacity:1;" d="M 80.179688 29.941406 L 85.292969 29.941406 L 85.292969 27.667969 L 80.179688 27.667969 Z M 80.179688 29.941406 "/>
<path style=" stroke:none;fill-rule:evenodd;fill:rgb(0%,0%,0%);fill-opacity:1;" d="M 27.1875 32.40625 C 27.1875 30.101562 23.730469 30.101562 23.730469 32.40625 C 23.730469 34.710938 27.1875 34.710938 27.1875 32.40625 "/>
<path style=" stroke:none;fill-rule:evenodd;fill:rgb(0%,0%,0%);fill-opacity:1;" d="M 55.988281 32.40625 C 55.988281 30.101562 52.53125 30.101562 52.53125 32.40625 C 52.53125 34.710938 55.988281 34.710938 55.988281 32.40625 "/>
<path style=" stroke:none;fill-rule:evenodd;fill:rgb(0%,0%,0%);fill-opacity:1;" d="M 126.152344 24.304688 C 126.152344 20.847656 120.96875 20.847656 120.96875 24.304688 C 120.96875 27.761719 126.152344 27.761719 126.152344 24.304688 "/>
<path style=" stroke:none;fill-rule:evenodd;fill:rgb(0%,0%,0%);fill-opacity:1;" d="M 133.351562 24.304688 C 133.351562 20.847656 128.167969 20.847656 128.167969 24.304688 C 128.167969 27.761719 133.351562 27.761719 133.351562 24.304688 "/>
<path style=" stroke:none;fill-rule:evenodd;fill:rgb(0%,0%,0%);fill-opacity:1;" d="M 140.550781 24.304688 C 140.550781 20.847656 135.367188 20.847656 135.367188 24.304688 C 135.367188 27.761719 140.550781 27.761719 140.550781 24.304688 "/>
<path style=" stroke:none;fill-rule:evenodd;fill:rgb(0%,0%,0%);fill-opacity:1;" d="M 182.152344 55.707031 L 185.566406 55.707031 L 185.566406 45.488281 L 182.152344 45.488281 Z M 182.152344 55.707031 "/>
<path style=" stroke:none;fill-rule:evenodd;fill:rgb(0%,0%,0%);fill-opacity:1;" d="M 196.554688 55.707031 L 199.96875 55.707031 L 199.96875 45.488281 L 196.554688 45.488281 Z M 196.554688 55.707031 "/>
<path style=" stroke:none;fill-rule:evenodd;fill:rgb(0%,0%,0%);fill-opacity:1;" d="M 181.132812 93.121094 L 200.984375 93.121094 L 200.984375 65.328125 L 181.132812 65.328125 Z M 181.132812 93.121094 "/>
<path style=" stroke:none;fill-rule:evenodd;fill:rgb(0%,0%,0%);fill-opacity:1;" d="M 168.84375 74.128906 L 173.675781 74.128906 L 173.675781 69.867188 L 168.84375 69.867188 Z M 168.84375 74.128906 "/>
<path style=" stroke:none;fill-rule:evenodd;fill:rgb(0%,0%,0%);fill-opacity:1;" d="M 168.84375 68.742188 L 173.675781 68.742188 L 173.675781 64.480469 L 168.84375 64.480469 Z M 168.84375 68.742188 "/>
<path style=" stroke:none;fill-rule:evenodd;fill:rgb(0%,0%,0%);fill-opacity:1;" d="M 208.445312 68.742188 L 213.277344 68.742188 L 213.277344 64.480469 L 208.445312 64.480469 Z M 208.445312 68.742188 "/>
<path style=" stroke:none;fill-rule:evenodd;fill:rgb(0%,0%,0%);fill-opacity:1;" d="M 208.445312 74.128906 L 213.277344 74.128906 L 213.277344 69.867188 L 208.445312 69.867188 Z M 208.445312 74.128906 "/>
<path style=" stroke:none;fill-rule:evenodd;fill:rgb(0%,0%,0%);fill-opacity:1;" d="M 158.871094 33.574219 L 163.414062 33.574219 L 163.414062 30.730469 L 158.871094 30.730469 Z M 158.871094 33.574219 "/>
<path style=" stroke:none;fill-rule:evenodd;fill:rgb(0%,0%,0%);fill-opacity:1;" d="M 158.871094 25.078125 L 163.414062 25.078125 L 163.414062 22.234375 L 158.871094 22.234375 Z M 158.871094 25.078125 "/>
<path style="fill:none;stroke-width:0.066;stroke-linecap:round;stroke-linejoin:miter;stroke:rgb(0%,0%,0%);stroke-opacity:1;stroke-miterlimit:10;" d="M 2.443888 1.476002 L 2.443888 1.453975 " transform="matrix(72,0,0,-72,-3.456,133.38544)"/>
<path style="fill:none;stroke-width:0.066;stroke-linecap:round;stroke-linejoin:miter;stroke:rgb(0%,0%,0%);stroke-opacity:1;stroke-miterlimit:10;" d="M 2.443888 1.453975 L 2.358276 1.453975 " transform="matrix(72,0,0,-72,-3.456,133.38544)"/>
<path style="fill:none;stroke-width:0.066;stroke-linecap:round;stroke-linejoin:miter;stroke:rgb(0%,0%,0%);stroke-opacity:1;stroke-miterlimit:10;" d="M 2.358276 1.453975 L 2.358276 1.476002 " transform="matrix(72,0,0,-72,-3.456,133.38544)"/>
<path style="fill:none;stroke-width:0.066;stroke-linecap:round;stroke-linejoin:miter;stroke:rgb(0%,0%,0%);stroke-opacity:1;stroke-miterlimit:10;" d="M 2.358276 1.476002 L 2.443888 1.476002 " transform="matrix(72,0,0,-72,-3.456,133.38544)"/>
<path style="fill:none;stroke-width:0.066;stroke-linecap:round;stroke-linejoin:miter;stroke:rgb(0%,0%,0%);stroke-opacity:1;stroke-miterlimit:10;" d="M 2.137627 1.160193 L 2.1156 1.160193 " transform="matrix(72,0,0,-72,-3.456,133.38544)"/>
<path style="fill:none;stroke-width:0.066;stroke-linecap:round;stroke-linejoin:miter;stroke:rgb(0%,0%,0%);stroke-opacity:1;stroke-miterlimit:10;" d="M 2.1156 1.160193 L 2.1156 1.245805 " transform="matrix(72,0,0,-72,-3.456,133.38544)"/>
<path style="fill:none;stroke-width:0.066;stroke-linecap:round;stroke-linejoin:miter;stroke:rgb(0%,0%,0%);stroke-opacity:1;stroke-miterlimit:10;" d="M 2.1156 1.245805 L 2.137627 1.245805 " transform="matrix(72,0,0,-72,-3.456,133.38544)"/>
<path style="fill:none;stroke-width:0.066;stroke-linecap:round;stroke-linejoin:miter;stroke:rgb(0%,0%,0%);stroke-opacity:1;stroke-miterlimit:10;" d="M 2.137627 1.245805 L 2.137627 1.160193 " transform="matrix(72,0,0,-72,-3.456,133.38544)"/>
<path style="fill:none;stroke-width:0.066;stroke-linecap:round;stroke-linejoin:miter;stroke:rgb(0%,0%,0%);stroke-opacity:1;stroke-miterlimit:10;" d="M 2.137627 1.226111 L 2.1156 1.226111 " transform="matrix(72,0,0,-72,-3.456,133.38544)"/>
<path style=" stroke:none;fill-rule:evenodd;fill:rgb(0%,0%,0%);fill-opacity:1;" d="M 158.882812 29.324219 L 163.417969 29.324219 L 163.417969 26.488281 L 158.882812 26.488281 Z M 158.882812 29.324219 "/>
<path style=" stroke:none;fill-rule:evenodd;fill:rgb(0%,0%,0%);fill-opacity:1;" d="M 185.765625 31.503906 C 185.765625 25.363281 176.550781 25.363281 176.550781 31.503906 C 176.550781 37.648438 185.765625 37.648438 185.765625 31.503906 "/>
<path style=" stroke:none;fill-rule:evenodd;fill:rgb(0%,0%,0%);fill-opacity:1;" d="M 198.367188 31.503906 C 198.367188 25.363281 189.152344 25.363281 189.152344 31.503906 C 189.152344 37.648438 198.367188 37.648438 198.367188 31.503906 "/>
<path style=" stroke:none;fill-rule:evenodd;fill:rgb(0%,0%,0%);fill-opacity:1;" d="M 210.96875 31.503906 C 210.96875 25.363281 201.75 25.363281 201.75 31.503906 C 201.75 37.648438 210.96875 37.648438 210.96875 31.503906 "/>
<path style=" stroke:none;fill-rule:evenodd;fill:rgb(0%,0%,0%);fill-opacity:1;" d="M 210.96875 18.003906 C 210.96875 11.863281 201.75 11.863281 201.75 18.003906 C 201.75 24.148438 210.96875 24.148438 210.96875 18.003906 "/>
<path style=" stroke:none;fill-rule:evenodd;fill:rgb(0%,0%,0%);fill-opacity:1;" d="M 198.367188 18.003906 C 198.367188 11.863281 189.152344 11.863281 189.152344 18.003906 C 189.152344 24.148438 198.367188 24.148438 198.367188 18.003906 "/>
<path style=" stroke:none;fill-rule:evenodd;fill:rgb(0%,0%,0%);fill-opacity:1;" d="M 185.765625 18.003906 C 185.765625 11.863281 176.550781 11.863281 176.550781 18.003906 C 176.550781 24.148438 185.765625 24.148438 185.765625 18.003906 "/>
<path style=" stroke:none;fill-rule:evenodd;fill:rgb(0%,0%,0%);fill-opacity:1;" d="M 91.722656 37.519531 L 95.984375 37.519531 L 95.984375 32.6875 L 91.722656 32.6875 Z M 91.722656 37.519531 "/>
<path style=" stroke:none;fill-rule:evenodd;fill:rgb(0%,0%,0%);fill-opacity:1;" d="M 86.335938 37.519531 L 90.597656 37.519531 L 90.597656 32.6875 L 86.335938 32.6875 Z M 86.335938 37.519531 "/>
<path style=" stroke:none;fill-rule:evenodd;fill:rgb(0%,0%,0%);fill-opacity:1;" d="M 143.988281 40.761719 L 146.832031 40.761719 L 146.832031 36.21875 L 143.988281 36.21875 Z M 143.988281 40.761719 "/>
<path style=" stroke:none;fill-rule:evenodd;fill:rgb(0%,0%,0%);fill-opacity:1;" d="M 152.484375 40.761719 L 155.328125 40.761719 L 155.328125 36.21875 L 152.484375 36.21875 Z M 152.484375 40.761719 "/>
<path style=" stroke:none;fill-rule:evenodd;fill:rgb(0%,0%,0%);fill-opacity:1;" d="M 148.242188 40.757812 L 151.078125 40.757812 L 151.078125 36.222656 L 148.242188 36.222656 Z M 148.242188 40.757812 "/>
<path style=" stroke:none;fill-rule:evenodd;fill:rgb(0%,0%,0%);fill-opacity:1;" d="M 140.386719 41.40625 C 140.386719 38.171875 135.53125 38.171875 135.53125 41.40625 C 135.53125 44.640625 140.386719 44.640625 140.386719 41.40625 "/>
<path style=" stroke:none;fill-rule:evenodd;fill:rgb(0%,0%,0%);fill-opacity:1;" d="M 119.6875 24.304688 C 119.6875 21.070312 114.832031 21.070312 114.832031 24.304688 C 114.832031 27.539062 119.6875 27.539062 119.6875 24.304688 "/>
<path style=" stroke:none;fill-rule:evenodd;fill:rgb(0%,0%,0%);fill-opacity:1;" d="M 111.585938 20.707031 C 111.585938 17.46875 106.734375 17.46875 106.734375 20.707031 C 106.734375 23.941406 111.585938 23.941406 111.585938 20.707031 "/>
<path style=" stroke:none;fill-rule:evenodd;fill:rgb(0%,0%,0%);fill-opacity:1;" d="M 108.886719 16.207031 C 108.886719 12.96875 104.03125 12.96875 104.03125 16.207031 C 104.03125 19.441406 108.886719 19.441406 108.886719 16.207031 "/>
<path style=" stroke:none;fill-rule:evenodd;fill:rgb(0%,0%,0%);fill-opacity:1;" d="M 75.585938 21.605469 C 75.585938 18.371094 70.734375 18.371094 70.734375 21.605469 C 70.734375 24.839844 75.585938 24.839844 75.585938 21.605469 "/>
<path style=" stroke:none;fill-rule:evenodd;fill:rgb(0%,0%,0%);fill-opacity:1;" d="M 101.6875 38.707031 C 101.6875 35.46875 96.832031 35.46875 96.832031 38.707031 C 96.832031 41.941406 101.6875 41.941406 101.6875 38.707031 "/>
<path style=" stroke:none;fill-rule:evenodd;fill:rgb(0%,0%,0%);fill-opacity:1;" d="M 50.386719 47.707031 C 50.386719 44.46875 45.53125 44.46875 45.53125 47.707031 C 45.53125 50.941406 50.386719 50.941406 50.386719 47.707031 "/>
<path style=" stroke:none;fill-rule:evenodd;fill:rgb(0%,0%,0%);fill-opacity:1;" d="M 38.6875 44.105469 C 38.6875 40.871094 33.832031 40.871094 33.832031 44.105469 C 33.832031 47.339844 38.6875 47.339844 38.6875 44.105469 "/>
<path style=" stroke:none;fill-rule:evenodd;fill:rgb(0%,0%,0%);fill-opacity:1;" d="M 45.886719 68.40625 C 45.886719 65.171875 41.03125 65.171875 41.03125 68.40625 C 41.03125 71.640625 45.886719 71.640625 45.886719 68.40625 "/>
<path style=" stroke:none;fill-rule:evenodd;fill:rgb(0%,0%,0%);fill-opacity:1;" d="M 28.785156 75.605469 C 28.785156 72.371094 23.933594 72.371094 23.933594 75.605469 C 23.933594 78.839844 28.785156 78.839844 28.785156 75.605469 "/>
<path style=" stroke:none;fill-rule:evenodd;fill:rgb(0%,0%,0%);fill-opacity:1;" d="M 36.886719 94.503906 C 36.886719 91.269531 32.03125 91.269531 32.03125 94.503906 C 32.03125 97.742188 36.886719 97.742188 36.886719 94.503906 "/>
<path style=" stroke:none;fill-rule:evenodd;fill:rgb(0%,0%,0%);fill-opacity:1;" d="M 54.886719 99.90625 C 54.886719 96.671875 50.03125 96.671875 50.03125 99.90625 C 50.03125 103.140625 54.886719 103.140625 54.886719 99.90625 "/>
<path style=" stroke:none;fill-rule:evenodd;fill:rgb(0%,0%,0%);fill-opacity:1;" d="M 106.1875 68.40625 C 106.1875 65.171875 101.332031 65.171875 101.332031 68.40625 C 101.332031 71.640625 106.1875 71.640625 106.1875 68.40625 "/>
<path style=" stroke:none;fill-rule:evenodd;fill:rgb(0%,0%,0%);fill-opacity:1;" d="M 111.585938 68.40625 C 111.585938 65.171875 106.734375 65.171875 106.734375 68.40625 C 106.734375 71.640625 111.585938 71.640625 111.585938 68.40625 "/>
<path style=" stroke:none;fill-rule:evenodd;fill:rgb(0%,0%,0%);fill-opacity:1;" d="M 128.6875 76.503906 C 128.6875 73.269531 123.832031 73.269531 123.832031 76.503906 C 123.832031 79.742188 128.6875 79.742188 128.6875 76.503906 "/>
<path style=" stroke:none;fill-rule:evenodd;fill:rgb(0%,0%,0%);fill-opacity:1;" d="M 128.6875 82.804688 C 128.6875 79.570312 123.832031 79.570312 123.832031 82.804688 C 123.832031 86.039062 128.6875 86.039062 128.6875 82.804688 "/>
<path style=" stroke:none;fill-rule:evenodd;fill:rgb(0%,0%,0%);fill-opacity:1;" d="M 152.085938 87.304688 C 152.085938 84.070312 147.234375 84.070312 147.234375 87.304688 C 147.234375 90.539062 152.085938 90.539062 152.085938 87.304688 "/>
<path style=" stroke:none;fill-rule:evenodd;fill:rgb(0%,0%,0%);fill-opacity:1;" d="M 157.484375 99.003906 C 157.484375 95.769531 152.632812 95.769531 152.632812 99.003906 C 152.632812 102.242188 157.484375 102.242188 157.484375 99.003906 "/>
<path style=" stroke:none;fill-rule:evenodd;fill:rgb(0%,0%,0%);fill-opacity:1;" d="M 147.585938 101.707031 C 147.585938 98.46875 142.734375 98.46875 142.734375 101.707031 C 142.734375 104.941406 147.585938 104.941406 147.585938 101.707031 "/>
<path style=" stroke:none;fill-rule:evenodd;fill:rgb(0%,0%,0%);fill-opacity:1;" d="M 160.1875 74.707031 C 160.1875 71.46875 155.332031 71.46875 155.332031 74.707031 C 155.332031 77.941406 160.1875 77.941406 160.1875 74.707031 "/>
<path style=" stroke:none;fill-rule:evenodd;fill:rgb(0%,0%,0%);fill-opacity:1;" d="M 160.1875 65.707031 C 160.1875 62.46875 155.332031 62.46875 155.332031 65.707031 C 155.332031 68.941406 160.1875 68.941406 160.1875 65.707031 "/>
<path style=" stroke:none;fill-rule:evenodd;fill:rgb(0%,0%,0%);fill-opacity:1;" d="M 172.785156 48.605469 C 172.785156 45.371094 167.933594 45.371094 167.933594 48.605469 C 167.933594 51.839844 172.785156 51.839844 172.785156 48.605469 "/>
<path style=" stroke:none;fill-rule:evenodd;fill:rgb(0%,0%,0%);fill-opacity:1;" d="M 214.1875 54.003906 C 214.1875 50.769531 209.332031 50.769531 209.332031 54.003906 C 209.332031 57.242188 214.1875 57.242188 214.1875 54.003906 "/>
<path style=" stroke:none;fill-rule:evenodd;fill:rgb(0%,0%,0%);fill-opacity:1;" d="M 170.984375 16.207031 C 170.984375 12.96875 166.132812 12.96875 166.132812 16.207031 C 166.132812 19.441406 170.984375 19.441406 170.984375 16.207031 "/>
<path style=" stroke:none;fill-rule:evenodd;fill:rgb(0%,0%,0%);fill-opacity:1;" d="M 37.785156 14.40625 C 37.785156 11.171875 32.933594 11.171875 32.933594 14.40625 C 32.933594 17.640625 37.785156 17.640625 37.785156 14.40625 "/>
<path style=" stroke:none;fill-rule:evenodd;fill:rgb(0%,0%,0%);fill-opacity:1;" d="M 22.324219 12.605469 C 22.324219 5.984375 12.394531 5.984375 12.394531 12.605469 C 12.394531 19.226562 22.324219 19.226562 22.324219 12.605469 "/>
<path style=" stroke:none;fill-rule:evenodd;fill:rgb(0%,0%,0%);fill-opacity:1;" d="M 223.023438 12.605469 C 223.023438 5.984375 213.09375 5.984375 213.09375 12.605469 C 213.09375 19.226562 223.023438 19.226562 223.023438 12.605469 "/>
<path style=" stroke:none;fill-rule:evenodd;fill:rgb(0%,0%,0%);fill-opacity:1;" d="M 223.023438 126.003906 C 223.023438 119.386719 213.09375 119.386719 213.09375 126.003906 C 213.09375 132.625 223.023438 132.625 223.023438 126.003906 "/>
<path style=" stroke:none;fill-rule:evenodd;fill:rgb(0%,0%,0%);fill-opacity:1;" d="M 22.324219 126.003906 C 22.324219 119.386719 12.394531 119.386719 12.394531 126.003906 C 12.394531 132.625 22.324219 132.625 22.324219 126.003906 "/>
</g>
</svg>
