G04 EAGLE Gerber RS-274X export*
G75*
%MOMM*%
%FSLAX34Y34*%
%LPD*%
%INTop*%
%IPPOS*%
%AMOC8*
5,1,8,0,0,1.08239X$1,22.5*%
G01*
%ADD10C,0.609600*%
%ADD11C,0.304800*%
%ADD12R,1.600000X0.600000*%
%ADD13R,1.300000X1.500000*%
%ADD14R,1.500000X1.300000*%
%ADD15C,3.048000*%
%ADD16C,2.844800*%
%ADD17C,0.127000*%
%ADD18C,1.524000*%
%ADD19C,0.000000*%
%ADD20R,2.400000X2.400000*%
%ADD21R,2.400000X1.600000*%
%ADD22R,2.200000X0.600000*%
%ADD23R,1.400000X1.400000*%
%ADD24R,1.000000X1.500000*%
%ADD25R,1.000000X2.000000*%
%ADD26C,2.200000*%
%ADD27C,1.016000*%
%ADD28C,1.270000*%
%ADD29C,0.812800*%
%ADD30C,2.032000*%
%ADD31C,0.406400*%


D10*
X3175Y377825D02*
X-317500Y377825D01*
X-317500Y-3175D01*
X3175Y-3175D01*
X3175Y377825D01*
D11*
X-161925Y238125D02*
X-161917Y238748D01*
X-161894Y239371D01*
X-161856Y239994D01*
X-161803Y240615D01*
X-161734Y241234D01*
X-161650Y241852D01*
X-161551Y242467D01*
X-161437Y243080D01*
X-161308Y243690D01*
X-161164Y244297D01*
X-161005Y244900D01*
X-160831Y245498D01*
X-160643Y246093D01*
X-160440Y246682D01*
X-160223Y247266D01*
X-159992Y247845D01*
X-159746Y248418D01*
X-159486Y248985D01*
X-159213Y249545D01*
X-158926Y250098D01*
X-158625Y250645D01*
X-158311Y251183D01*
X-157984Y251714D01*
X-157644Y252236D01*
X-157292Y252751D01*
X-156926Y253256D01*
X-156549Y253752D01*
X-156159Y254239D01*
X-155758Y254716D01*
X-155345Y255183D01*
X-154921Y255639D01*
X-154486Y256086D01*
X-154039Y256521D01*
X-153583Y256945D01*
X-153116Y257358D01*
X-152639Y257759D01*
X-152152Y258149D01*
X-151656Y258526D01*
X-151151Y258892D01*
X-150636Y259244D01*
X-150114Y259584D01*
X-149583Y259911D01*
X-149045Y260225D01*
X-148498Y260526D01*
X-147945Y260813D01*
X-147385Y261086D01*
X-146818Y261346D01*
X-146245Y261592D01*
X-145666Y261823D01*
X-145082Y262040D01*
X-144493Y262243D01*
X-143898Y262431D01*
X-143300Y262605D01*
X-142697Y262764D01*
X-142090Y262908D01*
X-141480Y263037D01*
X-140867Y263151D01*
X-140252Y263250D01*
X-139634Y263334D01*
X-139015Y263403D01*
X-138394Y263456D01*
X-137771Y263494D01*
X-137148Y263517D01*
X-136525Y263525D01*
X-135902Y263517D01*
X-135279Y263494D01*
X-134656Y263456D01*
X-134035Y263403D01*
X-133416Y263334D01*
X-132798Y263250D01*
X-132183Y263151D01*
X-131570Y263037D01*
X-130960Y262908D01*
X-130353Y262764D01*
X-129750Y262605D01*
X-129152Y262431D01*
X-128557Y262243D01*
X-127968Y262040D01*
X-127384Y261823D01*
X-126805Y261592D01*
X-126232Y261346D01*
X-125665Y261086D01*
X-125105Y260813D01*
X-124552Y260526D01*
X-124005Y260225D01*
X-123467Y259911D01*
X-122936Y259584D01*
X-122414Y259244D01*
X-121899Y258892D01*
X-121394Y258526D01*
X-120898Y258149D01*
X-120411Y257759D01*
X-119934Y257358D01*
X-119467Y256945D01*
X-119011Y256521D01*
X-118564Y256086D01*
X-118129Y255639D01*
X-117705Y255183D01*
X-117292Y254716D01*
X-116891Y254239D01*
X-116501Y253752D01*
X-116124Y253256D01*
X-115758Y252751D01*
X-115406Y252236D01*
X-115066Y251714D01*
X-114739Y251183D01*
X-114425Y250645D01*
X-114124Y250098D01*
X-113837Y249545D01*
X-113564Y248985D01*
X-113304Y248418D01*
X-113058Y247845D01*
X-112827Y247266D01*
X-112610Y246682D01*
X-112407Y246093D01*
X-112219Y245498D01*
X-112045Y244900D01*
X-111886Y244297D01*
X-111742Y243690D01*
X-111613Y243080D01*
X-111499Y242467D01*
X-111400Y241852D01*
X-111316Y241234D01*
X-111247Y240615D01*
X-111194Y239994D01*
X-111156Y239371D01*
X-111133Y238748D01*
X-111125Y238125D01*
X-111133Y237502D01*
X-111156Y236879D01*
X-111194Y236256D01*
X-111247Y235635D01*
X-111316Y235016D01*
X-111400Y234398D01*
X-111499Y233783D01*
X-111613Y233170D01*
X-111742Y232560D01*
X-111886Y231953D01*
X-112045Y231350D01*
X-112219Y230752D01*
X-112407Y230157D01*
X-112610Y229568D01*
X-112827Y228984D01*
X-113058Y228405D01*
X-113304Y227832D01*
X-113564Y227265D01*
X-113837Y226705D01*
X-114124Y226152D01*
X-114425Y225605D01*
X-114739Y225067D01*
X-115066Y224536D01*
X-115406Y224014D01*
X-115758Y223499D01*
X-116124Y222994D01*
X-116501Y222498D01*
X-116891Y222011D01*
X-117292Y221534D01*
X-117705Y221067D01*
X-118129Y220611D01*
X-118564Y220164D01*
X-119011Y219729D01*
X-119467Y219305D01*
X-119934Y218892D01*
X-120411Y218491D01*
X-120898Y218101D01*
X-121394Y217724D01*
X-121899Y217358D01*
X-122414Y217006D01*
X-122936Y216666D01*
X-123467Y216339D01*
X-124005Y216025D01*
X-124552Y215724D01*
X-125105Y215437D01*
X-125665Y215164D01*
X-126232Y214904D01*
X-126805Y214658D01*
X-127384Y214427D01*
X-127968Y214210D01*
X-128557Y214007D01*
X-129152Y213819D01*
X-129750Y213645D01*
X-130353Y213486D01*
X-130960Y213342D01*
X-131570Y213213D01*
X-132183Y213099D01*
X-132798Y213000D01*
X-133416Y212916D01*
X-134035Y212847D01*
X-134656Y212794D01*
X-135279Y212756D01*
X-135902Y212733D01*
X-136525Y212725D01*
X-137148Y212733D01*
X-137771Y212756D01*
X-138394Y212794D01*
X-139015Y212847D01*
X-139634Y212916D01*
X-140252Y213000D01*
X-140867Y213099D01*
X-141480Y213213D01*
X-142090Y213342D01*
X-142697Y213486D01*
X-143300Y213645D01*
X-143898Y213819D01*
X-144493Y214007D01*
X-145082Y214210D01*
X-145666Y214427D01*
X-146245Y214658D01*
X-146818Y214904D01*
X-147385Y215164D01*
X-147945Y215437D01*
X-148498Y215724D01*
X-149045Y216025D01*
X-149583Y216339D01*
X-150114Y216666D01*
X-150636Y217006D01*
X-151151Y217358D01*
X-151656Y217724D01*
X-152152Y218101D01*
X-152639Y218491D01*
X-153116Y218892D01*
X-153583Y219305D01*
X-154039Y219729D01*
X-154486Y220164D01*
X-154921Y220611D01*
X-155345Y221067D01*
X-155758Y221534D01*
X-156159Y222011D01*
X-156549Y222498D01*
X-156926Y222994D01*
X-157292Y223499D01*
X-157644Y224014D01*
X-157984Y224536D01*
X-158311Y225067D01*
X-158625Y225605D01*
X-158926Y226152D01*
X-159213Y226705D01*
X-159486Y227265D01*
X-159746Y227832D01*
X-159992Y228405D01*
X-160223Y228984D01*
X-160440Y229568D01*
X-160643Y230157D01*
X-160831Y230752D01*
X-161005Y231350D01*
X-161164Y231953D01*
X-161308Y232560D01*
X-161437Y233170D01*
X-161551Y233783D01*
X-161650Y234398D01*
X-161734Y235016D01*
X-161803Y235635D01*
X-161856Y236256D01*
X-161894Y236879D01*
X-161917Y237502D01*
X-161925Y238125D01*
X-276225Y44450D02*
X-276217Y45073D01*
X-276194Y45696D01*
X-276156Y46319D01*
X-276103Y46940D01*
X-276034Y47559D01*
X-275950Y48177D01*
X-275851Y48792D01*
X-275737Y49405D01*
X-275608Y50015D01*
X-275464Y50622D01*
X-275305Y51225D01*
X-275131Y51823D01*
X-274943Y52418D01*
X-274740Y53007D01*
X-274523Y53591D01*
X-274292Y54170D01*
X-274046Y54743D01*
X-273786Y55310D01*
X-273513Y55870D01*
X-273226Y56423D01*
X-272925Y56970D01*
X-272611Y57508D01*
X-272284Y58039D01*
X-271944Y58561D01*
X-271592Y59076D01*
X-271226Y59581D01*
X-270849Y60077D01*
X-270459Y60564D01*
X-270058Y61041D01*
X-269645Y61508D01*
X-269221Y61964D01*
X-268786Y62411D01*
X-268339Y62846D01*
X-267883Y63270D01*
X-267416Y63683D01*
X-266939Y64084D01*
X-266452Y64474D01*
X-265956Y64851D01*
X-265451Y65217D01*
X-264936Y65569D01*
X-264414Y65909D01*
X-263883Y66236D01*
X-263345Y66550D01*
X-262798Y66851D01*
X-262245Y67138D01*
X-261685Y67411D01*
X-261118Y67671D01*
X-260545Y67917D01*
X-259966Y68148D01*
X-259382Y68365D01*
X-258793Y68568D01*
X-258198Y68756D01*
X-257600Y68930D01*
X-256997Y69089D01*
X-256390Y69233D01*
X-255780Y69362D01*
X-255167Y69476D01*
X-254552Y69575D01*
X-253934Y69659D01*
X-253315Y69728D01*
X-252694Y69781D01*
X-252071Y69819D01*
X-251448Y69842D01*
X-250825Y69850D01*
X-250202Y69842D01*
X-249579Y69819D01*
X-248956Y69781D01*
X-248335Y69728D01*
X-247716Y69659D01*
X-247098Y69575D01*
X-246483Y69476D01*
X-245870Y69362D01*
X-245260Y69233D01*
X-244653Y69089D01*
X-244050Y68930D01*
X-243452Y68756D01*
X-242857Y68568D01*
X-242268Y68365D01*
X-241684Y68148D01*
X-241105Y67917D01*
X-240532Y67671D01*
X-239965Y67411D01*
X-239405Y67138D01*
X-238852Y66851D01*
X-238305Y66550D01*
X-237767Y66236D01*
X-237236Y65909D01*
X-236714Y65569D01*
X-236199Y65217D01*
X-235694Y64851D01*
X-235198Y64474D01*
X-234711Y64084D01*
X-234234Y63683D01*
X-233767Y63270D01*
X-233311Y62846D01*
X-232864Y62411D01*
X-232429Y61964D01*
X-232005Y61508D01*
X-231592Y61041D01*
X-231191Y60564D01*
X-230801Y60077D01*
X-230424Y59581D01*
X-230058Y59076D01*
X-229706Y58561D01*
X-229366Y58039D01*
X-229039Y57508D01*
X-228725Y56970D01*
X-228424Y56423D01*
X-228137Y55870D01*
X-227864Y55310D01*
X-227604Y54743D01*
X-227358Y54170D01*
X-227127Y53591D01*
X-226910Y53007D01*
X-226707Y52418D01*
X-226519Y51823D01*
X-226345Y51225D01*
X-226186Y50622D01*
X-226042Y50015D01*
X-225913Y49405D01*
X-225799Y48792D01*
X-225700Y48177D01*
X-225616Y47559D01*
X-225547Y46940D01*
X-225494Y46319D01*
X-225456Y45696D01*
X-225433Y45073D01*
X-225425Y44450D01*
X-225433Y43827D01*
X-225456Y43204D01*
X-225494Y42581D01*
X-225547Y41960D01*
X-225616Y41341D01*
X-225700Y40723D01*
X-225799Y40108D01*
X-225913Y39495D01*
X-226042Y38885D01*
X-226186Y38278D01*
X-226345Y37675D01*
X-226519Y37077D01*
X-226707Y36482D01*
X-226910Y35893D01*
X-227127Y35309D01*
X-227358Y34730D01*
X-227604Y34157D01*
X-227864Y33590D01*
X-228137Y33030D01*
X-228424Y32477D01*
X-228725Y31930D01*
X-229039Y31392D01*
X-229366Y30861D01*
X-229706Y30339D01*
X-230058Y29824D01*
X-230424Y29319D01*
X-230801Y28823D01*
X-231191Y28336D01*
X-231592Y27859D01*
X-232005Y27392D01*
X-232429Y26936D01*
X-232864Y26489D01*
X-233311Y26054D01*
X-233767Y25630D01*
X-234234Y25217D01*
X-234711Y24816D01*
X-235198Y24426D01*
X-235694Y24049D01*
X-236199Y23683D01*
X-236714Y23331D01*
X-237236Y22991D01*
X-237767Y22664D01*
X-238305Y22350D01*
X-238852Y22049D01*
X-239405Y21762D01*
X-239965Y21489D01*
X-240532Y21229D01*
X-241105Y20983D01*
X-241684Y20752D01*
X-242268Y20535D01*
X-242857Y20332D01*
X-243452Y20144D01*
X-244050Y19970D01*
X-244653Y19811D01*
X-245260Y19667D01*
X-245870Y19538D01*
X-246483Y19424D01*
X-247098Y19325D01*
X-247716Y19241D01*
X-248335Y19172D01*
X-248956Y19119D01*
X-249579Y19081D01*
X-250202Y19058D01*
X-250825Y19050D01*
X-251448Y19058D01*
X-252071Y19081D01*
X-252694Y19119D01*
X-253315Y19172D01*
X-253934Y19241D01*
X-254552Y19325D01*
X-255167Y19424D01*
X-255780Y19538D01*
X-256390Y19667D01*
X-256997Y19811D01*
X-257600Y19970D01*
X-258198Y20144D01*
X-258793Y20332D01*
X-259382Y20535D01*
X-259966Y20752D01*
X-260545Y20983D01*
X-261118Y21229D01*
X-261685Y21489D01*
X-262245Y21762D01*
X-262798Y22049D01*
X-263345Y22350D01*
X-263883Y22664D01*
X-264414Y22991D01*
X-264936Y23331D01*
X-265451Y23683D01*
X-265956Y24049D01*
X-266452Y24426D01*
X-266939Y24816D01*
X-267416Y25217D01*
X-267883Y25630D01*
X-268339Y26054D01*
X-268786Y26489D01*
X-269221Y26936D01*
X-269645Y27392D01*
X-270058Y27859D01*
X-270459Y28336D01*
X-270849Y28823D01*
X-271226Y29319D01*
X-271592Y29824D01*
X-271944Y30339D01*
X-272284Y30861D01*
X-272611Y31392D01*
X-272925Y31930D01*
X-273226Y32477D01*
X-273513Y33030D01*
X-273786Y33590D01*
X-274046Y34157D01*
X-274292Y34730D01*
X-274523Y35309D01*
X-274740Y35893D01*
X-274943Y36482D01*
X-275131Y37077D01*
X-275305Y37675D01*
X-275464Y38278D01*
X-275608Y38885D01*
X-275737Y39495D01*
X-275851Y40108D01*
X-275950Y40723D01*
X-276034Y41341D01*
X-276103Y41960D01*
X-276156Y42581D01*
X-276194Y43204D01*
X-276217Y43827D01*
X-276225Y44450D01*
X-19523Y362423D02*
X-11049Y362423D01*
X-19523Y362423D02*
X-11049Y353949D01*
X-19523Y353949D01*
X-25550Y362423D02*
X-34023Y362423D01*
X-25550Y353949D01*
X-34023Y353949D01*
X-40050Y362423D02*
X-48524Y362423D01*
X-40050Y353949D01*
X-48524Y353949D01*
X-54551Y353949D02*
X-54551Y366660D01*
X-58788Y362423D01*
X-63025Y366660D01*
X-63025Y353949D01*
X-71170Y362423D02*
X-75407Y362423D01*
X-77525Y360304D01*
X-77525Y353949D01*
X-71170Y353949D01*
X-69051Y356067D01*
X-71170Y358186D01*
X-77525Y358186D01*
X-83552Y353949D02*
X-83552Y362423D01*
X-83552Y358186D02*
X-87789Y362423D01*
X-89907Y362423D01*
X-95635Y362423D02*
X-97754Y362423D01*
X-97754Y353949D01*
X-99872Y353949D02*
X-95635Y353949D01*
X-97754Y366660D02*
X-97754Y368778D01*
X-105302Y366660D02*
X-105302Y353949D01*
X-105302Y358186D02*
X-113776Y366660D01*
X-107421Y360304D02*
X-113776Y353949D01*
X-119803Y362423D02*
X-128277Y362423D01*
X-119803Y353949D01*
X-128277Y353949D01*
X-134304Y362423D02*
X-142777Y362423D01*
X-134304Y353949D01*
X-142777Y353949D01*
X-148804Y362423D02*
X-157278Y362423D01*
X-148804Y353949D01*
X-157278Y353949D01*
X-177805Y353949D02*
X-186279Y353949D01*
X-177805Y353949D02*
X-186279Y362423D01*
X-186279Y364541D01*
X-184161Y366660D01*
X-179924Y366660D01*
X-177805Y364541D01*
X-192306Y364541D02*
X-192306Y356067D01*
X-192306Y364541D02*
X-194424Y366660D01*
X-198661Y366660D01*
X-200780Y364541D01*
X-200780Y356067D01*
X-198661Y353949D01*
X-194424Y353949D01*
X-192306Y356067D01*
X-200780Y364541D01*
X-206806Y353949D02*
X-215280Y353949D01*
X-206806Y353949D02*
X-215280Y362423D01*
X-215280Y364541D01*
X-213162Y366660D01*
X-208925Y366660D01*
X-206806Y364541D01*
X-221307Y364541D02*
X-221307Y356067D01*
X-221307Y364541D02*
X-223425Y366660D01*
X-227662Y366660D01*
X-229781Y364541D01*
X-229781Y356067D01*
X-227662Y353949D01*
X-223425Y353949D01*
X-221307Y356067D01*
X-229781Y364541D01*
X-136525Y263525D02*
X-136525Y212725D01*
X-111125Y238125D02*
X-161925Y238125D01*
X-250825Y69850D02*
X-250825Y44450D01*
X-276225Y44450D01*
X-250825Y44450D02*
X-225425Y44450D01*
X-250825Y44450D02*
X-250825Y19050D01*
D12*
X-59185Y168275D03*
X-59185Y155675D03*
X-59185Y142975D03*
X-59185Y130275D03*
X-112265Y168275D03*
X-112265Y155575D03*
X-112265Y142875D03*
X-112265Y130175D03*
D13*
X-212750Y161925D03*
X-231750Y161925D03*
D14*
X-180975Y304825D03*
X-180975Y323825D03*
X-111125Y304825D03*
X-111125Y323825D03*
D15*
X-206375Y247650D03*
X-250825Y257175D03*
X-250825Y298450D03*
X-250825Y339725D03*
D16*
X-279400Y133350D03*
D13*
X-34950Y200025D03*
X-53950Y200025D03*
D16*
X-241300Y133350D03*
X-142875Y168275D03*
X-69850Y260350D03*
D14*
X-57150Y114275D03*
X-57150Y95275D03*
D13*
X-222225Y111125D03*
X-203225Y111125D03*
X-212700Y133350D03*
X-193700Y133350D03*
D14*
X-41275Y254025D03*
X-41275Y273025D03*
D17*
X-142240Y63500D02*
X-142238Y63600D01*
X-142232Y63701D01*
X-142222Y63800D01*
X-142208Y63900D01*
X-142191Y63999D01*
X-142169Y64097D01*
X-142143Y64194D01*
X-142114Y64290D01*
X-142081Y64384D01*
X-142044Y64478D01*
X-142004Y64570D01*
X-141960Y64660D01*
X-141912Y64748D01*
X-141861Y64835D01*
X-141807Y64919D01*
X-141749Y65001D01*
X-141688Y65081D01*
X-141624Y65158D01*
X-141557Y65233D01*
X-141487Y65305D01*
X-141414Y65374D01*
X-141339Y65440D01*
X-141261Y65504D01*
X-141181Y65564D01*
X-141098Y65621D01*
X-141013Y65674D01*
X-140926Y65724D01*
X-140837Y65771D01*
X-140747Y65814D01*
X-140655Y65854D01*
X-140561Y65890D01*
X-140466Y65922D01*
X-140370Y65950D01*
X-140272Y65975D01*
X-140174Y65995D01*
X-140075Y66012D01*
X-139975Y66025D01*
X-139876Y66034D01*
X-139775Y66039D01*
X-139675Y66040D01*
X-139575Y66037D01*
X-139474Y66030D01*
X-139375Y66019D01*
X-139275Y66004D01*
X-139177Y65986D01*
X-139079Y65963D01*
X-138982Y65936D01*
X-138887Y65906D01*
X-138792Y65872D01*
X-138699Y65834D01*
X-138608Y65793D01*
X-138518Y65748D01*
X-138430Y65700D01*
X-138344Y65648D01*
X-138260Y65593D01*
X-138179Y65534D01*
X-138100Y65472D01*
X-138023Y65408D01*
X-137949Y65340D01*
X-137878Y65269D01*
X-137809Y65196D01*
X-137744Y65120D01*
X-137681Y65041D01*
X-137622Y64960D01*
X-137566Y64877D01*
X-137513Y64792D01*
X-137464Y64704D01*
X-137418Y64615D01*
X-137376Y64524D01*
X-137337Y64431D01*
X-137302Y64337D01*
X-137271Y64242D01*
X-137243Y64145D01*
X-137220Y64048D01*
X-137200Y63949D01*
X-137184Y63850D01*
X-137172Y63751D01*
X-137164Y63650D01*
X-137160Y63550D01*
X-137160Y63450D01*
X-137164Y63350D01*
X-137172Y63249D01*
X-137184Y63150D01*
X-137200Y63051D01*
X-137220Y62952D01*
X-137243Y62855D01*
X-137271Y62758D01*
X-137302Y62663D01*
X-137337Y62569D01*
X-137376Y62476D01*
X-137418Y62385D01*
X-137464Y62296D01*
X-137513Y62208D01*
X-137566Y62123D01*
X-137622Y62040D01*
X-137681Y61959D01*
X-137744Y61880D01*
X-137809Y61804D01*
X-137878Y61731D01*
X-137949Y61660D01*
X-138023Y61592D01*
X-138100Y61528D01*
X-138179Y61466D01*
X-138260Y61407D01*
X-138344Y61352D01*
X-138430Y61300D01*
X-138518Y61252D01*
X-138608Y61207D01*
X-138699Y61166D01*
X-138792Y61128D01*
X-138887Y61094D01*
X-138982Y61064D01*
X-139079Y61037D01*
X-139177Y61014D01*
X-139275Y60996D01*
X-139375Y60981D01*
X-139474Y60970D01*
X-139575Y60963D01*
X-139675Y60960D01*
X-139775Y60961D01*
X-139876Y60966D01*
X-139975Y60975D01*
X-140075Y60988D01*
X-140174Y61005D01*
X-140272Y61025D01*
X-140370Y61050D01*
X-140466Y61078D01*
X-140561Y61110D01*
X-140655Y61146D01*
X-140747Y61186D01*
X-140837Y61229D01*
X-140926Y61276D01*
X-141013Y61326D01*
X-141098Y61379D01*
X-141181Y61436D01*
X-141261Y61496D01*
X-141339Y61560D01*
X-141414Y61626D01*
X-141487Y61695D01*
X-141557Y61767D01*
X-141624Y61842D01*
X-141688Y61919D01*
X-141749Y61999D01*
X-141807Y62081D01*
X-141861Y62165D01*
X-141912Y62252D01*
X-141960Y62340D01*
X-142004Y62430D01*
X-142044Y62522D01*
X-142081Y62616D01*
X-142114Y62710D01*
X-142143Y62806D01*
X-142169Y62903D01*
X-142191Y63001D01*
X-142208Y63100D01*
X-142222Y63200D01*
X-142232Y63299D01*
X-142238Y63400D01*
X-142240Y63500D01*
X-40640Y63500D02*
X-40638Y63600D01*
X-40632Y63701D01*
X-40622Y63800D01*
X-40608Y63900D01*
X-40591Y63999D01*
X-40569Y64097D01*
X-40543Y64194D01*
X-40514Y64290D01*
X-40481Y64384D01*
X-40444Y64478D01*
X-40404Y64570D01*
X-40360Y64660D01*
X-40312Y64748D01*
X-40261Y64835D01*
X-40207Y64919D01*
X-40149Y65001D01*
X-40088Y65081D01*
X-40024Y65158D01*
X-39957Y65233D01*
X-39887Y65305D01*
X-39814Y65374D01*
X-39739Y65440D01*
X-39661Y65504D01*
X-39581Y65564D01*
X-39498Y65621D01*
X-39413Y65674D01*
X-39326Y65724D01*
X-39237Y65771D01*
X-39147Y65814D01*
X-39055Y65854D01*
X-38961Y65890D01*
X-38866Y65922D01*
X-38770Y65950D01*
X-38672Y65975D01*
X-38574Y65995D01*
X-38475Y66012D01*
X-38375Y66025D01*
X-38276Y66034D01*
X-38175Y66039D01*
X-38075Y66040D01*
X-37975Y66037D01*
X-37874Y66030D01*
X-37775Y66019D01*
X-37675Y66004D01*
X-37577Y65986D01*
X-37479Y65963D01*
X-37382Y65936D01*
X-37287Y65906D01*
X-37192Y65872D01*
X-37099Y65834D01*
X-37008Y65793D01*
X-36918Y65748D01*
X-36830Y65700D01*
X-36744Y65648D01*
X-36660Y65593D01*
X-36579Y65534D01*
X-36500Y65472D01*
X-36423Y65408D01*
X-36349Y65340D01*
X-36278Y65269D01*
X-36209Y65196D01*
X-36144Y65120D01*
X-36081Y65041D01*
X-36022Y64960D01*
X-35966Y64877D01*
X-35913Y64792D01*
X-35864Y64704D01*
X-35818Y64615D01*
X-35776Y64524D01*
X-35737Y64431D01*
X-35702Y64337D01*
X-35671Y64242D01*
X-35643Y64145D01*
X-35620Y64048D01*
X-35600Y63949D01*
X-35584Y63850D01*
X-35572Y63751D01*
X-35564Y63650D01*
X-35560Y63550D01*
X-35560Y63450D01*
X-35564Y63350D01*
X-35572Y63249D01*
X-35584Y63150D01*
X-35600Y63051D01*
X-35620Y62952D01*
X-35643Y62855D01*
X-35671Y62758D01*
X-35702Y62663D01*
X-35737Y62569D01*
X-35776Y62476D01*
X-35818Y62385D01*
X-35864Y62296D01*
X-35913Y62208D01*
X-35966Y62123D01*
X-36022Y62040D01*
X-36081Y61959D01*
X-36144Y61880D01*
X-36209Y61804D01*
X-36278Y61731D01*
X-36349Y61660D01*
X-36423Y61592D01*
X-36500Y61528D01*
X-36579Y61466D01*
X-36660Y61407D01*
X-36744Y61352D01*
X-36830Y61300D01*
X-36918Y61252D01*
X-37008Y61207D01*
X-37099Y61166D01*
X-37192Y61128D01*
X-37287Y61094D01*
X-37382Y61064D01*
X-37479Y61037D01*
X-37577Y61014D01*
X-37675Y60996D01*
X-37775Y60981D01*
X-37874Y60970D01*
X-37975Y60963D01*
X-38075Y60960D01*
X-38175Y60961D01*
X-38276Y60966D01*
X-38375Y60975D01*
X-38475Y60988D01*
X-38574Y61005D01*
X-38672Y61025D01*
X-38770Y61050D01*
X-38866Y61078D01*
X-38961Y61110D01*
X-39055Y61146D01*
X-39147Y61186D01*
X-39237Y61229D01*
X-39326Y61276D01*
X-39413Y61326D01*
X-39498Y61379D01*
X-39581Y61436D01*
X-39661Y61496D01*
X-39739Y61560D01*
X-39814Y61626D01*
X-39887Y61695D01*
X-39957Y61767D01*
X-40024Y61842D01*
X-40088Y61919D01*
X-40149Y61999D01*
X-40207Y62081D01*
X-40261Y62165D01*
X-40312Y62252D01*
X-40360Y62340D01*
X-40404Y62430D01*
X-40444Y62522D01*
X-40481Y62616D01*
X-40514Y62710D01*
X-40543Y62806D01*
X-40569Y62903D01*
X-40591Y63001D01*
X-40608Y63100D01*
X-40622Y63200D01*
X-40632Y63299D01*
X-40638Y63400D01*
X-40640Y63500D01*
D18*
X-114300Y63500D03*
X-114300Y38100D03*
X-88900Y63500D03*
X-88900Y38100D03*
X-63500Y63500D03*
X-63500Y38100D03*
D19*
X-43180Y63500D02*
X-43178Y63642D01*
X-43172Y63785D01*
X-43162Y63927D01*
X-43148Y64069D01*
X-43130Y64210D01*
X-43108Y64351D01*
X-43082Y64491D01*
X-43053Y64630D01*
X-43019Y64769D01*
X-42981Y64906D01*
X-42940Y65043D01*
X-42895Y65178D01*
X-42846Y65312D01*
X-42793Y65444D01*
X-42737Y65575D01*
X-42677Y65704D01*
X-42613Y65832D01*
X-42546Y65957D01*
X-42475Y66081D01*
X-42401Y66203D01*
X-42324Y66322D01*
X-42243Y66440D01*
X-42159Y66555D01*
X-42072Y66667D01*
X-41981Y66777D01*
X-41888Y66885D01*
X-41791Y66990D01*
X-41692Y67092D01*
X-41590Y67191D01*
X-41485Y67288D01*
X-41377Y67381D01*
X-41267Y67472D01*
X-41155Y67559D01*
X-41040Y67643D01*
X-40922Y67724D01*
X-40803Y67801D01*
X-40681Y67875D01*
X-40557Y67946D01*
X-40432Y68013D01*
X-40304Y68077D01*
X-40175Y68137D01*
X-40044Y68193D01*
X-39912Y68246D01*
X-39778Y68295D01*
X-39643Y68340D01*
X-39506Y68381D01*
X-39369Y68419D01*
X-39230Y68453D01*
X-39091Y68482D01*
X-38951Y68508D01*
X-38810Y68530D01*
X-38669Y68548D01*
X-38527Y68562D01*
X-38385Y68572D01*
X-38242Y68578D01*
X-38100Y68580D01*
X-37958Y68578D01*
X-37815Y68572D01*
X-37673Y68562D01*
X-37531Y68548D01*
X-37390Y68530D01*
X-37249Y68508D01*
X-37109Y68482D01*
X-36970Y68453D01*
X-36831Y68419D01*
X-36694Y68381D01*
X-36557Y68340D01*
X-36422Y68295D01*
X-36288Y68246D01*
X-36156Y68193D01*
X-36025Y68137D01*
X-35896Y68077D01*
X-35768Y68013D01*
X-35643Y67946D01*
X-35519Y67875D01*
X-35397Y67801D01*
X-35278Y67724D01*
X-35160Y67643D01*
X-35045Y67559D01*
X-34933Y67472D01*
X-34823Y67381D01*
X-34715Y67288D01*
X-34610Y67191D01*
X-34508Y67092D01*
X-34409Y66990D01*
X-34312Y66885D01*
X-34219Y66777D01*
X-34128Y66667D01*
X-34041Y66555D01*
X-33957Y66440D01*
X-33876Y66322D01*
X-33799Y66203D01*
X-33725Y66081D01*
X-33654Y65957D01*
X-33587Y65832D01*
X-33523Y65704D01*
X-33463Y65575D01*
X-33407Y65444D01*
X-33354Y65312D01*
X-33305Y65178D01*
X-33260Y65043D01*
X-33219Y64906D01*
X-33181Y64769D01*
X-33147Y64630D01*
X-33118Y64491D01*
X-33092Y64351D01*
X-33070Y64210D01*
X-33052Y64069D01*
X-33038Y63927D01*
X-33028Y63785D01*
X-33022Y63642D01*
X-33020Y63500D01*
X-33022Y63358D01*
X-33028Y63215D01*
X-33038Y63073D01*
X-33052Y62931D01*
X-33070Y62790D01*
X-33092Y62649D01*
X-33118Y62509D01*
X-33147Y62370D01*
X-33181Y62231D01*
X-33219Y62094D01*
X-33260Y61957D01*
X-33305Y61822D01*
X-33354Y61688D01*
X-33407Y61556D01*
X-33463Y61425D01*
X-33523Y61296D01*
X-33587Y61168D01*
X-33654Y61043D01*
X-33725Y60919D01*
X-33799Y60797D01*
X-33876Y60678D01*
X-33957Y60560D01*
X-34041Y60445D01*
X-34128Y60333D01*
X-34219Y60223D01*
X-34312Y60115D01*
X-34409Y60010D01*
X-34508Y59908D01*
X-34610Y59809D01*
X-34715Y59712D01*
X-34823Y59619D01*
X-34933Y59528D01*
X-35045Y59441D01*
X-35160Y59357D01*
X-35278Y59276D01*
X-35397Y59199D01*
X-35519Y59125D01*
X-35643Y59054D01*
X-35768Y58987D01*
X-35896Y58923D01*
X-36025Y58863D01*
X-36156Y58807D01*
X-36288Y58754D01*
X-36422Y58705D01*
X-36557Y58660D01*
X-36694Y58619D01*
X-36831Y58581D01*
X-36970Y58547D01*
X-37109Y58518D01*
X-37249Y58492D01*
X-37390Y58470D01*
X-37531Y58452D01*
X-37673Y58438D01*
X-37815Y58428D01*
X-37958Y58422D01*
X-38100Y58420D01*
X-38242Y58422D01*
X-38385Y58428D01*
X-38527Y58438D01*
X-38669Y58452D01*
X-38810Y58470D01*
X-38951Y58492D01*
X-39091Y58518D01*
X-39230Y58547D01*
X-39369Y58581D01*
X-39506Y58619D01*
X-39643Y58660D01*
X-39778Y58705D01*
X-39912Y58754D01*
X-40044Y58807D01*
X-40175Y58863D01*
X-40304Y58923D01*
X-40432Y58987D01*
X-40557Y59054D01*
X-40681Y59125D01*
X-40803Y59199D01*
X-40922Y59276D01*
X-41040Y59357D01*
X-41155Y59441D01*
X-41267Y59528D01*
X-41377Y59619D01*
X-41485Y59712D01*
X-41590Y59809D01*
X-41692Y59908D01*
X-41791Y60010D01*
X-41888Y60115D01*
X-41981Y60223D01*
X-42072Y60333D01*
X-42159Y60445D01*
X-42243Y60560D01*
X-42324Y60678D01*
X-42401Y60797D01*
X-42475Y60919D01*
X-42546Y61043D01*
X-42613Y61168D01*
X-42677Y61296D01*
X-42737Y61425D01*
X-42793Y61556D01*
X-42846Y61688D01*
X-42895Y61822D01*
X-42940Y61957D01*
X-42981Y62094D01*
X-43019Y62231D01*
X-43053Y62370D01*
X-43082Y62509D01*
X-43108Y62649D01*
X-43130Y62790D01*
X-43148Y62931D01*
X-43162Y63073D01*
X-43172Y63215D01*
X-43178Y63358D01*
X-43180Y63500D01*
X-144780Y63500D02*
X-144778Y63642D01*
X-144772Y63785D01*
X-144762Y63927D01*
X-144748Y64069D01*
X-144730Y64210D01*
X-144708Y64351D01*
X-144682Y64491D01*
X-144653Y64630D01*
X-144619Y64769D01*
X-144581Y64906D01*
X-144540Y65043D01*
X-144495Y65178D01*
X-144446Y65312D01*
X-144393Y65444D01*
X-144337Y65575D01*
X-144277Y65704D01*
X-144213Y65832D01*
X-144146Y65957D01*
X-144075Y66081D01*
X-144001Y66203D01*
X-143924Y66322D01*
X-143843Y66440D01*
X-143759Y66555D01*
X-143672Y66667D01*
X-143581Y66777D01*
X-143488Y66885D01*
X-143391Y66990D01*
X-143292Y67092D01*
X-143190Y67191D01*
X-143085Y67288D01*
X-142977Y67381D01*
X-142867Y67472D01*
X-142755Y67559D01*
X-142640Y67643D01*
X-142522Y67724D01*
X-142403Y67801D01*
X-142281Y67875D01*
X-142157Y67946D01*
X-142032Y68013D01*
X-141904Y68077D01*
X-141775Y68137D01*
X-141644Y68193D01*
X-141512Y68246D01*
X-141378Y68295D01*
X-141243Y68340D01*
X-141106Y68381D01*
X-140969Y68419D01*
X-140830Y68453D01*
X-140691Y68482D01*
X-140551Y68508D01*
X-140410Y68530D01*
X-140269Y68548D01*
X-140127Y68562D01*
X-139985Y68572D01*
X-139842Y68578D01*
X-139700Y68580D01*
X-139558Y68578D01*
X-139415Y68572D01*
X-139273Y68562D01*
X-139131Y68548D01*
X-138990Y68530D01*
X-138849Y68508D01*
X-138709Y68482D01*
X-138570Y68453D01*
X-138431Y68419D01*
X-138294Y68381D01*
X-138157Y68340D01*
X-138022Y68295D01*
X-137888Y68246D01*
X-137756Y68193D01*
X-137625Y68137D01*
X-137496Y68077D01*
X-137368Y68013D01*
X-137243Y67946D01*
X-137119Y67875D01*
X-136997Y67801D01*
X-136878Y67724D01*
X-136760Y67643D01*
X-136645Y67559D01*
X-136533Y67472D01*
X-136423Y67381D01*
X-136315Y67288D01*
X-136210Y67191D01*
X-136108Y67092D01*
X-136009Y66990D01*
X-135912Y66885D01*
X-135819Y66777D01*
X-135728Y66667D01*
X-135641Y66555D01*
X-135557Y66440D01*
X-135476Y66322D01*
X-135399Y66203D01*
X-135325Y66081D01*
X-135254Y65957D01*
X-135187Y65832D01*
X-135123Y65704D01*
X-135063Y65575D01*
X-135007Y65444D01*
X-134954Y65312D01*
X-134905Y65178D01*
X-134860Y65043D01*
X-134819Y64906D01*
X-134781Y64769D01*
X-134747Y64630D01*
X-134718Y64491D01*
X-134692Y64351D01*
X-134670Y64210D01*
X-134652Y64069D01*
X-134638Y63927D01*
X-134628Y63785D01*
X-134622Y63642D01*
X-134620Y63500D01*
X-134622Y63358D01*
X-134628Y63215D01*
X-134638Y63073D01*
X-134652Y62931D01*
X-134670Y62790D01*
X-134692Y62649D01*
X-134718Y62509D01*
X-134747Y62370D01*
X-134781Y62231D01*
X-134819Y62094D01*
X-134860Y61957D01*
X-134905Y61822D01*
X-134954Y61688D01*
X-135007Y61556D01*
X-135063Y61425D01*
X-135123Y61296D01*
X-135187Y61168D01*
X-135254Y61043D01*
X-135325Y60919D01*
X-135399Y60797D01*
X-135476Y60678D01*
X-135557Y60560D01*
X-135641Y60445D01*
X-135728Y60333D01*
X-135819Y60223D01*
X-135912Y60115D01*
X-136009Y60010D01*
X-136108Y59908D01*
X-136210Y59809D01*
X-136315Y59712D01*
X-136423Y59619D01*
X-136533Y59528D01*
X-136645Y59441D01*
X-136760Y59357D01*
X-136878Y59276D01*
X-136997Y59199D01*
X-137119Y59125D01*
X-137243Y59054D01*
X-137368Y58987D01*
X-137496Y58923D01*
X-137625Y58863D01*
X-137756Y58807D01*
X-137888Y58754D01*
X-138022Y58705D01*
X-138157Y58660D01*
X-138294Y58619D01*
X-138431Y58581D01*
X-138570Y58547D01*
X-138709Y58518D01*
X-138849Y58492D01*
X-138990Y58470D01*
X-139131Y58452D01*
X-139273Y58438D01*
X-139415Y58428D01*
X-139558Y58422D01*
X-139700Y58420D01*
X-139842Y58422D01*
X-139985Y58428D01*
X-140127Y58438D01*
X-140269Y58452D01*
X-140410Y58470D01*
X-140551Y58492D01*
X-140691Y58518D01*
X-140830Y58547D01*
X-140969Y58581D01*
X-141106Y58619D01*
X-141243Y58660D01*
X-141378Y58705D01*
X-141512Y58754D01*
X-141644Y58807D01*
X-141775Y58863D01*
X-141904Y58923D01*
X-142032Y58987D01*
X-142157Y59054D01*
X-142281Y59125D01*
X-142403Y59199D01*
X-142522Y59276D01*
X-142640Y59357D01*
X-142755Y59441D01*
X-142867Y59528D01*
X-142977Y59619D01*
X-143085Y59712D01*
X-143190Y59809D01*
X-143292Y59908D01*
X-143391Y60010D01*
X-143488Y60115D01*
X-143581Y60223D01*
X-143672Y60333D01*
X-143759Y60445D01*
X-143843Y60560D01*
X-143924Y60678D01*
X-144001Y60797D01*
X-144075Y60919D01*
X-144146Y61043D01*
X-144213Y61168D01*
X-144277Y61296D01*
X-144337Y61425D01*
X-144393Y61556D01*
X-144446Y61688D01*
X-144495Y61822D01*
X-144540Y61957D01*
X-144581Y62094D01*
X-144619Y62231D01*
X-144653Y62370D01*
X-144682Y62509D01*
X-144708Y62649D01*
X-144730Y62790D01*
X-144748Y62931D01*
X-144762Y63073D01*
X-144772Y63215D01*
X-144778Y63358D01*
X-144780Y63500D01*
D20*
X-206375Y283375D03*
X-206375Y333375D03*
D21*
X-82550Y302500D03*
X-82550Y332500D03*
D22*
X-270475Y184150D03*
X-270475Y196850D03*
X-270475Y209550D03*
X-270475Y222250D03*
X-218475Y222250D03*
X-218475Y209550D03*
X-218475Y196850D03*
X-218475Y184150D03*
D23*
X-146050Y88950D03*
X-146050Y126950D03*
X-174625Y95300D03*
X-174625Y133300D03*
D24*
X-131060Y297690D03*
X-161040Y297690D03*
D25*
X-146050Y300230D03*
D26*
X-146050Y319400D02*
X-146050Y334400D01*
D13*
X-257200Y161925D03*
X-276200Y161925D03*
X-76175Y225425D03*
X-57175Y225425D03*
D27*
X-202425Y283375D02*
X-206375Y283375D01*
X-202425Y283375D02*
X-180975Y304825D01*
X-173840Y297690D01*
X-161040Y297690D01*
X-206375Y283375D02*
X-235750Y283375D01*
X-250825Y298450D01*
D28*
X-250825Y257175D01*
D10*
X-59185Y130275D02*
X-59085Y130175D01*
D27*
X-212725Y339725D02*
X-250825Y339725D01*
X-212725Y339725D02*
X-206375Y333375D01*
X-190525Y333375D01*
X-180975Y323825D01*
X-149125Y323825D01*
X-146050Y326900D01*
X-114200Y326900D01*
X-111125Y323825D01*
X-108600Y332500D02*
X-82550Y332500D01*
X-108600Y332500D02*
X-114200Y326900D01*
D28*
X-250825Y339725D02*
X-288925Y339725D01*
X-295275Y333375D02*
X-295275Y209550D01*
X-295275Y196850D01*
D29*
X-282575Y184150D01*
D28*
X-295275Y333375D02*
X-288925Y339725D01*
D29*
X-282575Y184150D02*
X-270475Y184150D01*
X-270475Y196850D02*
X-295275Y196850D01*
X-295275Y209550D02*
X-270475Y209550D01*
D10*
X-276200Y161925D02*
X-288925Y161925D01*
X-295275Y168275D01*
X-295275Y196850D01*
X-146050Y300230D02*
X-146050Y326900D01*
D29*
X-82550Y332500D02*
X-59450Y332500D01*
X-15875Y288925D01*
X-15875Y228600D01*
X-15875Y146050D01*
X-31750Y130175D01*
X-50800Y130175D01*
D10*
X-59085Y130175D01*
D29*
X-57175Y225425D02*
X-19050Y225425D01*
D10*
X-15875Y228600D01*
D29*
X-15875Y38100D02*
X-63500Y38100D01*
X-15875Y38100D02*
X-15875Y146050D01*
D10*
X-50800Y120625D02*
X-57150Y114275D01*
X-50800Y120625D02*
X-50800Y130175D01*
X-168275Y88950D02*
X-174625Y95300D01*
X-168275Y88950D02*
X-146050Y88950D01*
X-63500Y38100D02*
X-63500Y25400D01*
X-73025Y15875D01*
X-180975Y15875D01*
X-193675Y28575D01*
X-193675Y76250D01*
X-174625Y95300D01*
D27*
X-131060Y297690D02*
X-118260Y297690D01*
X-111125Y304825D01*
X-84875Y304825D01*
X-82550Y302500D01*
D10*
X-114300Y38100D02*
X-176356Y38100D01*
D30*
X-176356Y38100D03*
X-174625Y273050D03*
D29*
X-95225Y244475D02*
X-76175Y225425D01*
D10*
X-95225Y244475D02*
X-95250Y244475D01*
D29*
X-95250Y285750D01*
D10*
X-84875Y296125D02*
X-84875Y304825D01*
D29*
X-84875Y296125D02*
X-95250Y285750D01*
D10*
X-70750Y302500D02*
X-41275Y273025D01*
X-70750Y302500D02*
X-82550Y302500D01*
D29*
X-101600Y178940D02*
X-112265Y168275D01*
X-101600Y178940D02*
X-101600Y206375D01*
X-82550Y225425D01*
D10*
X-76175Y225425D01*
X-63475Y209550D02*
X-53950Y200025D01*
X-63475Y209550D02*
X-79375Y209550D01*
X-79375Y222225D01*
X-76175Y225425D01*
X-171450Y273050D02*
X-174625Y273050D01*
X-171450Y273050D02*
X-165100Y279400D01*
X-131060Y291215D02*
X-131060Y297690D01*
X-142875Y279400D02*
X-165100Y279400D01*
X-142875Y279400D02*
X-131060Y291215D01*
D31*
X-212750Y161925D02*
X-213750Y158750D01*
D30*
X-82550Y187325D03*
X-155575Y193675D03*
D10*
X-161925Y193675D01*
X-193675Y161925D01*
X-212750Y161925D01*
X-72925Y155675D02*
X-59185Y155675D01*
X-72925Y155675D02*
X-73025Y155575D01*
X-82550Y165100D01*
X-82550Y187325D01*
D31*
X-101600Y50800D02*
X-88900Y38100D01*
X-101600Y50800D02*
X-127000Y50800D01*
X-127000Y79375D01*
D10*
X-127000Y95250D01*
X-111125Y111125D01*
X-111125Y129035D01*
X-142925Y126950D02*
X-146050Y126950D01*
X-142925Y126950D02*
X-139700Y130175D01*
X-112265Y130175D01*
X-111125Y129035D01*
X-196850Y111125D02*
X-203225Y111125D01*
X-196850Y111125D02*
X-193675Y114300D01*
X-158700Y114300D02*
X-146050Y126950D01*
X-158700Y114300D02*
X-193675Y114300D01*
X-83031Y146531D02*
X-82550Y146050D01*
X-83031Y146531D02*
X-83263Y146531D01*
X-92307Y155575D02*
X-112265Y155575D01*
X-92307Y155575D02*
X-83263Y146531D01*
X-76200Y76200D02*
X-88900Y63500D01*
X-76200Y139468D02*
X-83263Y146531D01*
X-76200Y95250D02*
X-76200Y76200D01*
X-76200Y95250D02*
X-76200Y139468D01*
X-76175Y95275D02*
X-57150Y95275D01*
X-76175Y95275D02*
X-76200Y95250D01*
X-130175Y155575D02*
X-142875Y168275D01*
X-130175Y155575D02*
X-112265Y155575D01*
X-211700Y135500D02*
X-212700Y133350D01*
X-241300Y133350D01*
X-257175Y111125D02*
X-222225Y111125D01*
X-257175Y111125D02*
X-279400Y133350D01*
X-270475Y222250D02*
X-254000Y222250D01*
X-244475Y212725D01*
X-244475Y161925D02*
X-257200Y161925D01*
X-244475Y161925D02*
X-244475Y212725D01*
X-244475Y161925D02*
X-231750Y161925D01*
D28*
X-193675Y234950D02*
X-206375Y247650D01*
X-193675Y234950D02*
X-193675Y222250D01*
X-193675Y209550D01*
X-193675Y196850D01*
D29*
X-206375Y184150D01*
X-218475Y184150D01*
X-218475Y196850D02*
X-193675Y196850D01*
X-193675Y209550D02*
X-218475Y209550D01*
X-218475Y222250D02*
X-193675Y222250D01*
D10*
X-63525Y254025D02*
X-41275Y254025D01*
X-63525Y254025D02*
X-69850Y260350D01*
X-59185Y168275D02*
X-50800Y168275D01*
D30*
X-34925Y107950D03*
X-34925Y177800D03*
D10*
X-56388Y70612D02*
X-63500Y63500D01*
X-56388Y70612D02*
X-56388Y71075D01*
X-34925Y92538D02*
X-34925Y107950D01*
X-34925Y92538D02*
X-56388Y71075D01*
X-34950Y177825D02*
X-34950Y200025D01*
X-34950Y177825D02*
X-34925Y177800D01*
X-34950Y192510D02*
X-59185Y168275D01*
X-34950Y192510D02*
X-34950Y200025D01*
X-101600Y142875D02*
X-112265Y142875D01*
X-174625Y133300D02*
X-174675Y133350D01*
X-114300Y63500D02*
X-92075Y85725D01*
X-92075Y133350D01*
X-101600Y142875D01*
X-165050Y142875D02*
X-174625Y133300D01*
X-165050Y142875D02*
X-112265Y142875D01*
X-193650Y133300D02*
X-193700Y133350D01*
X-193650Y133300D02*
X-174625Y133300D01*
M02*
