%
M48
M72
T01C0.01
%
T01
X505Y1100
X1005Y1100
X2880Y1100
X3380Y1100
X5255Y1100
X5755Y1100
X7630Y1100
X8130Y1100
X10005Y1100
X10505Y1100
X12380Y1100
X12880Y1100
X14755Y1100
X15255Y1100
X17130Y1100
X17630Y1100
X19505Y1100
X20005Y1100
X21880Y1100
X22380Y1100
X24255Y1100
X24755Y1100
X26630Y1100
X27130Y1100
X27880Y3600
X28380Y3600
X26005Y3600
X25505Y3600
X23630Y3600
X23130Y3600
X21255Y3600
X20755Y3600
X18880Y3600
X18380Y3600
X16505Y3600
X16005Y3600
X14130Y3600
X13630Y3600
X11755Y3600
X11255Y3600
X9380Y3600
X8880Y3600
X7005Y3600
X6505Y3600
X4630Y3600
X4130Y3600
X2255Y3600
X1755Y3600
X1005Y6100
X505Y6100
X2880Y6100
X3380Y6100
X5255Y6100
X5755Y6100
X7630Y6100
X8130Y6100
X10005Y6100
X10505Y6100
X12380Y6100
X12880Y6100
X14755Y6100
X15255Y6100
X17130Y6100
X17630Y6100
X19505Y6100
X20005Y6100
X21880Y6100
X22380Y6100
X24255Y6100
X24755Y6100
X26630Y6100
X27130Y6100
X27880Y8600
X28380Y8600
X26005Y8600
X25505Y8600
X23630Y8600
X23130Y8600
X21255Y8600
X20755Y8600
X18880Y8600
X18380Y8600
X16505Y8600
X16005Y8600
X14130Y8600
X13630Y8600
X11755Y8600
X11255Y8600
X9380Y8600
X8880Y8600
X7005Y8600
X6505Y8600
X4630Y8600
X4130Y8600
X2255Y8600
X1755Y8600
X1005Y11100
X505Y11100
X2880Y11100
X3380Y11100
X5255Y11100
X5755Y11100
X7630Y11100
X8130Y11100
X10005Y11100
X10505Y11100
X12380Y11100
X12880Y11100
X14755Y11100
X15255Y11100
X17130Y11100
X17630Y11100
X19505Y11100
X20005Y11100
X21880Y11100
X22380Y11100
X24255Y11100
X24755Y11100
X26630Y11100
X27130Y11100
X27880Y13600
X28380Y13600
X26005Y13600
X25505Y13600
X23630Y13600
X23130Y13600
X21255Y13600
X20755Y13600
X18880Y13600
X18380Y13600
X16505Y13600
X16005Y13600
X14130Y13600
X13630Y13600
X11755Y13600
X11255Y13600
X9380Y13600
X8880Y13600
X7005Y13600
X6505Y13600
X4630Y13600
X4130Y13600
X2255Y13600
X1755Y13600
X1005Y16100
X505Y16100
X2880Y16100
X3380Y16100
X5255Y16100
X5755Y16100
X7630Y16100
X8130Y16100
X10005Y16100
X10505Y16100
X12380Y16100
X12880Y16100
X14755Y16100
X15255Y16100
X17130Y16100
X17630Y16100
X19505Y16100
X20005Y16100
X21880Y16100
X22380Y16100
X24255Y16100
X24755Y16100
X26630Y16100
X27130Y16100
X27880Y18600
X28380Y18600
X26005Y18600
X25505Y18600
X23630Y18600
X23130Y18600
X21255Y18600
X20755Y18600
X18880Y18600
X18380Y18600
X16505Y18600
X16005Y18600
X14130Y18600
X13630Y18600
X11755Y18600
X11255Y18600
X9380Y18600
X8880Y18600
X7005Y18600
X6505Y18600
X4630Y18600
X4130Y18600
X2255Y18600
X1755Y18600
M30
