<?xml version="1.0" encoding="UTF-8"?>
<svg xmlns="http://www.w3.org/2000/svg" xmlns:xlink="http://www.w3.org/1999/xlink" width="65pt" height="123pt" viewBox="0 0 65 123" version="1.1">
<g id="surface32471">
<path style=" stroke:none;fill-rule:evenodd;fill:rgb(100%,100%,100%);fill-opacity:1;" d="M 27.011719 52.167969 L 30.613281 52.167969 L 30.613281 44.246094 L 27.011719 44.246094 Z M 27.011719 52.167969 "/>
<path style=" stroke:none;fill-rule:evenodd;fill:rgb(100%,100%,100%);fill-opacity:1;" d="M 26.289062 70.886719 L 29.890625 70.886719 L 29.890625 61.527344 L 26.289062 61.527344 Z M 26.289062 70.886719 "/>
<path style="fill:none;stroke-width:0.084;stroke-linecap:round;stroke-linejoin:miter;stroke:rgb(100%,100%,100%);stroke-opacity:1;stroke-miterlimit:10;" d="M 0.272202 0.245625 L 0.188217 0.245625 " transform="matrix(72,0,0,-72,-1.78992,119.1264)"/>
<path style="fill:none;stroke-width:0.084;stroke-linecap:round;stroke-linejoin:miter;stroke:rgb(100%,100%,100%);stroke-opacity:1;stroke-miterlimit:10;" d="M 0.192178 0.480597 L 0.108193 0.480597 " transform="matrix(72,0,0,-72,-1.78992,119.1264)"/>
<path style="fill:none;stroke-width:0.084;stroke-linecap:round;stroke-linejoin:miter;stroke:rgb(100%,100%,100%);stroke-opacity:1;stroke-miterlimit:10;" d="M 0.188217 0.715623 L 0.272202 0.715623 " transform="matrix(72,0,0,-72,-1.78992,119.1264)"/>
<path style="fill:none;stroke-width:0.084;stroke-linecap:round;stroke-linejoin:miter;stroke:rgb(100%,100%,100%);stroke-opacity:1;stroke-miterlimit:10;" d="M 0.273395 0.876376 L 0.189411 0.876376 " transform="matrix(72,0,0,-72,-1.78992,119.1264)"/>
<path style="fill:none;stroke-width:0.084;stroke-linecap:round;stroke-linejoin:miter;stroke:rgb(100%,100%,100%);stroke-opacity:1;stroke-miterlimit:10;" d="M 0.193426 1.111402 L 0.109387 1.111402 " transform="matrix(72,0,0,-72,-1.78992,119.1264)"/>
<path style="fill:none;stroke-width:0.084;stroke-linecap:round;stroke-linejoin:miter;stroke:rgb(100%,100%,100%);stroke-opacity:1;stroke-miterlimit:10;" d="M 0.189411 1.346374 L 0.273395 1.346374 " transform="matrix(72,0,0,-72,-1.78992,119.1264)"/>
<path style="fill:none;stroke-width:0.084;stroke-linecap:round;stroke-linejoin:miter;stroke:rgb(100%,100%,100%);stroke-opacity:1;stroke-miterlimit:10;" d="M 0.669391 1.346374 L 0.753376 1.346374 " transform="matrix(72,0,0,-72,-1.78992,119.1264)"/>
<path style="fill:none;stroke-width:0.084;stroke-linecap:round;stroke-linejoin:miter;stroke:rgb(100%,100%,100%);stroke-opacity:1;stroke-miterlimit:10;" d="M 0.753376 0.876376 L 0.669391 0.876376 " transform="matrix(72,0,0,-72,-1.78992,119.1264)"/>
<path style="fill:none;stroke-width:0.084;stroke-linecap:round;stroke-linejoin:miter;stroke:rgb(100%,100%,100%);stroke-opacity:1;stroke-miterlimit:10;" d="M 0.668198 0.715623 L 0.752182 0.715623 " transform="matrix(72,0,0,-72,-1.78992,119.1264)"/>
<path style="fill:none;stroke-width:0.084;stroke-linecap:round;stroke-linejoin:miter;stroke:rgb(100%,100%,100%);stroke-opacity:1;stroke-miterlimit:10;" d="M 0.752182 0.245625 L 0.668198 0.245625 " transform="matrix(72,0,0,-72,-1.78992,119.1264)"/>
<path style=" stroke:none;fill-rule:evenodd;fill:rgb(100%,100%,100%);fill-opacity:1;" d="M 54.625 89.007812 L 58.878906 89.007812 L 58.878906 85.320312 L 54.625 85.320312 Z M 54.625 89.007812 "/>
<path style=" stroke:none;fill-rule:evenodd;fill:rgb(100%,100%,100%);fill-opacity:1;" d="M 54.625 83.625 L 58.878906 83.625 L 58.878906 79.9375 L 54.625 79.9375 Z M 54.625 83.625 "/>
<path style=" stroke:none;fill-rule:evenodd;fill:rgb(100%,100%,100%);fill-opacity:1;" d="M 33.277344 72.210938 L 37.53125 72.210938 L 37.53125 68.523438 L 33.277344 68.523438 Z M 33.277344 72.210938 "/>
<path style=" stroke:none;fill-rule:evenodd;fill:rgb(100%,100%,100%);fill-opacity:1;" d="M 33.277344 66.824219 L 37.53125 66.824219 L 37.53125 63.136719 L 33.277344 63.136719 Z M 33.277344 66.824219 "/>
<path style=" stroke:none;fill-rule:evenodd;fill:rgb(100%,100%,100%);fill-opacity:1;" d="M 33.820312 104.253906 L 37.507812 104.253906 L 37.507812 100 L 33.820312 100 Z M 33.820312 104.253906 "/>
<path style=" stroke:none;fill-rule:evenodd;fill:rgb(100%,100%,100%);fill-opacity:1;" d="M 28.4375 104.253906 L 32.125 104.253906 L 32.125 100 L 28.4375 100 Z M 28.4375 104.253906 "/>
<path style=" stroke:none;fill-rule:evenodd;fill:rgb(100%,100%,100%);fill-opacity:1;" d="M 31.363281 92.359375 L 33.632812 92.359375 L 33.632812 88.390625 L 31.363281 88.390625 Z M 31.363281 92.359375 "/>
<path style=" stroke:none;fill-rule:evenodd;fill:rgb(100%,100%,100%);fill-opacity:1;" d="M 39.859375 92.359375 L 42.128906 92.359375 L 42.128906 88.390625 L 39.859375 88.390625 Z M 39.859375 92.359375 "/>
<path style=" stroke:none;fill-rule:evenodd;fill:rgb(100%,100%,100%);fill-opacity:1;" d="M 36.898438 40.886719 L 39.167969 40.886719 L 39.167969 36.917969 L 36.898438 36.917969 Z M 36.898438 40.886719 "/>
<path style=" stroke:none;fill-rule:evenodd;fill:rgb(100%,100%,100%);fill-opacity:1;" d="M 28.402344 40.886719 L 30.671875 40.886719 L 30.671875 36.917969 L 28.402344 36.917969 Z M 28.402344 40.886719 "/>
<path style=" stroke:none;fill-rule:evenodd;fill:rgb(100%,100%,100%);fill-opacity:1;" d="M 32.652344 40.875 L 34.921875 40.875 L 34.921875 35.488281 L 32.652344 35.488281 Z M 32.652344 40.875 "/>
<path style=" stroke:none;fill-rule:evenodd;fill:rgb(100%,100%,100%);fill-opacity:1;" d="M 35.609375 92.347656 L 37.878906 92.347656 L 37.878906 86.960938 L 35.609375 86.960938 Z M 35.609375 92.347656 "/>
<path style="fill:none;stroke-width:0.06;stroke-linecap:round;stroke-linejoin:miter;stroke:rgb(100%,100%,100%);stroke-opacity:1;stroke-miterlimit:10;" d="M 0.525186 0.556118 L 0.545205 0.556118 " transform="matrix(72,0,0,-72,-1.78992,119.1264)"/>
<path style="fill:none;stroke-width:0.06;stroke-linecap:round;stroke-linejoin:miter;stroke:rgb(100%,100%,100%);stroke-opacity:1;stroke-miterlimit:10;" d="M 0.545205 0.556118 L 0.545205 0.472513 " transform="matrix(72,0,0,-72,-1.78992,119.1264)"/>
<path style="fill:none;stroke-width:0.06;stroke-linecap:round;stroke-linejoin:miter;stroke:rgb(100%,100%,100%);stroke-opacity:1;stroke-miterlimit:10;" d="M 0.545205 0.472513 L 0.525186 0.472513 " transform="matrix(72,0,0,-72,-1.78992,119.1264)"/>
<path style="fill:none;stroke-width:0.06;stroke-linecap:round;stroke-linejoin:miter;stroke:rgb(100%,100%,100%);stroke-opacity:1;stroke-miterlimit:10;" d="M 0.525186 0.472513 L 0.525186 0.556118 " transform="matrix(72,0,0,-72,-1.78992,119.1264)"/>
<path style="fill:none;stroke-width:0.06;stroke-linecap:round;stroke-linejoin:miter;stroke:rgb(100%,100%,100%);stroke-opacity:1;stroke-miterlimit:10;" d="M 0.525186 0.532409 L 0.545205 0.532409 " transform="matrix(72,0,0,-72,-1.78992,119.1264)"/>
<path style="fill:none;stroke-width:0.06;stroke-linecap:round;stroke-linejoin:miter;stroke:rgb(100%,100%,100%);stroke-opacity:1;stroke-miterlimit:10;" d="M 0.504081 1.271016 L 0.484116 1.271016 " transform="matrix(72,0,0,-72,-1.78992,119.1264)"/>
<path style="fill:none;stroke-width:0.06;stroke-linecap:round;stroke-linejoin:miter;stroke:rgb(100%,100%,100%);stroke-opacity:1;stroke-miterlimit:10;" d="M 0.504081 1.271016 L 0.504081 1.187411 " transform="matrix(72,0,0,-72,-1.78992,119.1264)"/>
<path style="fill:none;stroke-width:0.06;stroke-linecap:round;stroke-linejoin:miter;stroke:rgb(100%,100%,100%);stroke-opacity:1;stroke-miterlimit:10;" d="M 0.504081 1.187411 L 0.484116 1.187411 " transform="matrix(72,0,0,-72,-1.78992,119.1264)"/>
<path style="fill:none;stroke-width:0.06;stroke-linecap:round;stroke-linejoin:miter;stroke:rgb(100%,100%,100%);stroke-opacity:1;stroke-miterlimit:10;" d="M 0.484116 1.187411 L 0.484116 1.271016 " transform="matrix(72,0,0,-72,-1.78992,119.1264)"/>
<path style="fill:none;stroke-width:0.06;stroke-linecap:round;stroke-linejoin:miter;stroke:rgb(100%,100%,100%);stroke-opacity:1;stroke-miterlimit:10;" d="M 0.484116 1.247307 L 0.504081 1.247307 " transform="matrix(72,0,0,-72,-1.78992,119.1264)"/>
<path style=" stroke:none;fill-rule:evenodd;fill:rgb(100%,100%,100%);fill-opacity:1;" d="M 18.144531 39.5625 L 22.960938 39.5625 L 22.960938 34.457031 L 18.144531 34.457031 Z M 18.144531 39.5625 "/>
<path style=" stroke:none;fill-rule:evenodd;fill:rgb(100%,100%,100%);fill-opacity:1;" d="M 18.144531 51.183594 L 22.960938 51.183594 L 22.960938 46.078125 L 18.144531 46.078125 Z M 18.144531 51.183594 "/>
<path style=" stroke:none;fill-rule:evenodd;fill:rgb(100%,100%,100%);fill-opacity:1;" d="M 18.410156 83.675781 L 23.226562 83.675781 L 23.226562 78.570312 L 18.410156 78.570312 Z M 18.410156 83.675781 "/>
<path style=" stroke:none;fill-rule:evenodd;fill:rgb(100%,100%,100%);fill-opacity:1;" d="M 18.410156 95.296875 L 23.226562 95.296875 L 23.226562 90.191406 L 18.410156 90.191406 Z M 18.410156 95.296875 "/>
<path style=" stroke:none;fill-rule:evenodd;fill:rgb(100%,100%,100%);fill-opacity:1;" d="M 31.332031 9.6875 C 31.332031 3.925781 22.691406 3.925781 22.691406 9.6875 C 22.691406 15.445312 31.332031 15.445312 31.332031 9.6875 "/>
<path style=" stroke:none;fill-rule:evenodd;fill:rgb(100%,100%,100%);fill-opacity:1;" d="M 16.929688 9.6875 C 16.929688 3.925781 8.289062 3.925781 8.289062 9.6875 C 8.289062 15.445312 16.929688 15.445312 16.929688 9.6875 "/>
<path style=" stroke:none;fill-rule:evenodd;fill:rgb(100%,100%,100%);fill-opacity:1;" d="M 46.449219 9.6875 C 46.449219 3.925781 37.808594 3.925781 37.808594 9.6875 C 37.808594 15.445312 46.449219 15.445312 46.449219 9.6875 "/>
<path style=" stroke:none;fill-rule:evenodd;fill:rgb(100%,100%,100%);fill-opacity:1;" d="M 60.128906 9.6875 C 60.128906 3.925781 51.488281 3.925781 51.488281 9.6875 C 51.488281 15.445312 60.128906 15.445312 60.128906 9.6875 "/>
<path style=" stroke:none;fill-rule:evenodd;fill:rgb(100%,100%,100%);fill-opacity:1;" d="M 59.84375 113.367188 C 59.84375 107.992188 51.777344 107.992188 51.777344 113.367188 C 51.777344 118.742188 59.84375 118.742188 59.84375 113.367188 "/>
<path style=" stroke:none;fill-rule:evenodd;fill:rgb(100%,100%,100%);fill-opacity:1;" d="M 45.441406 113.367188 C 45.441406 107.992188 37.378906 107.992188 37.378906 113.367188 C 37.378906 118.742188 45.441406 118.742188 45.441406 113.367188 "/>
<path style=" stroke:none;fill-rule:evenodd;fill:rgb(100%,100%,100%);fill-opacity:1;" d="M 34.640625 113.367188 C 34.640625 107.992188 26.578125 107.992188 26.578125 113.367188 C 26.578125 118.742188 34.640625 118.742188 34.640625 113.367188 "/>
<path style=" stroke:none;fill-rule:evenodd;fill:rgb(100%,100%,100%);fill-opacity:1;" d="M 21.683594 113.367188 C 21.683594 107.992188 13.617188 107.992188 13.617188 113.367188 C 13.617188 118.742188 21.683594 118.742188 21.683594 113.367188 "/>
<path style="fill:none;stroke-width:0.032;stroke-linecap:round;stroke-linejoin:miter;stroke:rgb(100%,100%,100%);stroke-opacity:1;stroke-miterlimit:10;" d="M 0.230209 0.245625 L 0.313977 0.329392 " transform="matrix(72,0,0,-72,-1.78992,119.1264)"/>
<path style="fill:none;stroke-width:0.032;stroke-linecap:round;stroke-linejoin:miter;stroke:rgb(100%,100%,100%);stroke-opacity:1;stroke-miterlimit:10;" d="M 0.313977 0.329392 L 0.313977 0.366393 " transform="matrix(72,0,0,-72,-1.78992,119.1264)"/>
<path style="fill:none;stroke-width:0.032;stroke-linecap:round;stroke-linejoin:miter;stroke:rgb(100%,100%,100%);stroke-opacity:1;stroke-miterlimit:10;" d="M 0.313977 0.527797 L 0.313977 0.631693 " transform="matrix(72,0,0,-72,-1.78992,119.1264)"/>
<path style="fill:none;stroke-width:0.032;stroke-linecap:round;stroke-linejoin:miter;stroke:rgb(100%,100%,100%);stroke-opacity:1;stroke-miterlimit:10;" d="M 0.313977 0.631693 L 0.230209 0.715623 " transform="matrix(72,0,0,-72,-1.78992,119.1264)"/>
<path style="fill:none;stroke-width:0.032;stroke-linecap:round;stroke-linejoin:miter;stroke:rgb(100%,100%,100%);stroke-opacity:1;stroke-miterlimit:10;" d="M 0.231403 0.876376 L 0.310288 0.955423 " transform="matrix(72,0,0,-72,-1.78992,119.1264)"/>
<path style="fill:none;stroke-width:0.032;stroke-linecap:round;stroke-linejoin:miter;stroke:rgb(100%,100%,100%);stroke-opacity:1;stroke-miterlimit:10;" d="M 0.310288 0.955423 L 0.310288 0.979078 " transform="matrix(72,0,0,-72,-1.78992,119.1264)"/>
<path style="fill:none;stroke-width:0.032;stroke-linecap:round;stroke-linejoin:miter;stroke:rgb(100%,100%,100%);stroke-opacity:1;stroke-miterlimit:10;" d="M 0.310288 1.140482 L 0.310288 1.267489 " transform="matrix(72,0,0,-72,-1.78992,119.1264)"/>
<path style="fill:none;stroke-width:0.032;stroke-linecap:round;stroke-linejoin:miter;stroke:rgb(100%,100%,100%);stroke-opacity:1;stroke-miterlimit:10;" d="M 0.310288 1.267489 L 0.231403 1.346374 " transform="matrix(72,0,0,-72,-1.78992,119.1264)"/>
<path style="fill:none;stroke-width:0.032;stroke-linecap:round;stroke-linejoin:miter;stroke:rgb(100%,100%,100%);stroke-opacity:1;stroke-miterlimit:10;" d="M 0.71019 0.245625 L 0.71019 0.190178 " transform="matrix(72,0,0,-72,-1.78992,119.1264)"/>
<path style="fill:none;stroke-width:0.032;stroke-linecap:round;stroke-linejoin:miter;stroke:rgb(100%,100%,100%);stroke-opacity:1;stroke-miterlimit:10;" d="M 0.71019 0.190178 L 0.600001 0.0799891 " transform="matrix(72,0,0,-72,-1.78992,119.1264)"/>
<path style="fill:none;stroke-width:0.032;stroke-linecap:round;stroke-linejoin:miter;stroke:rgb(100%,100%,100%);stroke-opacity:1;stroke-miterlimit:10;" d="M 0.600001 0.0799891 L 0.44999 0.0799891 " transform="matrix(72,0,0,-72,-1.78992,119.1264)"/>
<path style="fill:none;stroke-width:0.066;stroke-linecap:round;stroke-linejoin:miter;stroke:rgb(100%,100%,100%);stroke-opacity:1;stroke-miterlimit:10;" d="M 0.150186 0.480597 L 0.150186 0.635599 " transform="matrix(72,0,0,-72,-1.78992,119.1264)"/>
<path style="fill:none;stroke-width:0.066;stroke-linecap:round;stroke-linejoin:miter;stroke:rgb(100%,100%,100%);stroke-opacity:1;stroke-miterlimit:10;" d="M 0.150186 0.635599 L 0.230209 0.715623 " transform="matrix(72,0,0,-72,-1.78992,119.1264)"/>
<path style="fill:none;stroke-width:0.066;stroke-linecap:round;stroke-linejoin:miter;stroke:rgb(100%,100%,100%);stroke-opacity:1;stroke-miterlimit:10;" d="M 0.230209 0.715623 L 0.225706 0.720017 " transform="matrix(72,0,0,-72,-1.78992,119.1264)"/>
<path style="fill:none;stroke-width:0.066;stroke-linecap:round;stroke-linejoin:miter;stroke:rgb(100%,100%,100%);stroke-opacity:1;stroke-miterlimit:10;" d="M 0.151379 1.111402 L 0.151379 1.266404 " transform="matrix(72,0,0,-72,-1.78992,119.1264)"/>
<path style="fill:none;stroke-width:0.066;stroke-linecap:round;stroke-linejoin:miter;stroke:rgb(100%,100%,100%);stroke-opacity:1;stroke-miterlimit:10;" d="M 0.151379 1.266404 L 0.231403 1.346374 " transform="matrix(72,0,0,-72,-1.78992,119.1264)"/>
<path style="fill:none;stroke-width:0.066;stroke-linecap:round;stroke-linejoin:miter;stroke:rgb(100%,100%,100%);stroke-opacity:1;stroke-miterlimit:10;" d="M 0.231403 1.346374 L 0.19999 1.377786 " transform="matrix(72,0,0,-72,-1.78992,119.1264)"/>
<path style="fill:none;stroke-width:0.066;stroke-linecap:round;stroke-linejoin:miter;stroke:rgb(100%,100%,100%);stroke-opacity:1;stroke-miterlimit:10;" d="M 0.19999 1.377786 L 0.19999 1.519985 " transform="matrix(72,0,0,-72,-1.78992,119.1264)"/>
<path style="fill:none;stroke-width:0.066;stroke-linecap:round;stroke-linejoin:miter;stroke:rgb(100%,100%,100%);stroke-opacity:1;stroke-miterlimit:10;" d="M 0.400023 1.519985 L 0.519977 1.519985 " transform="matrix(72,0,0,-72,-1.78992,119.1264)"/>
<path style="fill:none;stroke-width:0.066;stroke-linecap:round;stroke-linejoin:miter;stroke:rgb(100%,100%,100%);stroke-opacity:1;stroke-miterlimit:10;" d="M 0.519977 1.519985 L 0.609984 1.519985 " transform="matrix(72,0,0,-72,-1.78992,119.1264)"/>
<path style="fill:none;stroke-width:0.066;stroke-linecap:round;stroke-linejoin:miter;stroke:rgb(100%,100%,100%);stroke-opacity:1;stroke-miterlimit:10;" d="M 0.859984 1.269985 L 0.711383 1.121384 " transform="matrix(72,0,0,-72,-1.78992,119.1264)"/>
<path style="fill:none;stroke-width:0.066;stroke-linecap:round;stroke-linejoin:miter;stroke:rgb(100%,100%,100%);stroke-opacity:1;stroke-miterlimit:10;" d="M 0.711383 1.121384 L 0.711383 0.876376 " transform="matrix(72,0,0,-72,-1.78992,119.1264)"/>
<path style="fill:none;stroke-width:0.04;stroke-linecap:round;stroke-linejoin:miter;stroke:rgb(100%,100%,100%);stroke-opacity:1;stroke-miterlimit:10;" d="M 0.230209 0.715623 L 0.224621 0.70998 " transform="matrix(72,0,0,-72,-1.78992,119.1264)"/>
<path style="fill:none;stroke-width:0.04;stroke-linecap:round;stroke-linejoin:miter;stroke:rgb(100%,100%,100%);stroke-opacity:1;stroke-miterlimit:10;" d="M 0.224621 0.70998 L 0.210027 0.70998 " transform="matrix(72,0,0,-72,-1.78992,119.1264)"/>
<path style="fill:none;stroke-width:0.04;stroke-linecap:round;stroke-linejoin:miter;stroke:rgb(100%,100%,100%);stroke-opacity:1;stroke-miterlimit:10;" d="M 0.210027 0.70998 L 0.100001 0.820006 " transform="matrix(72,0,0,-72,-1.78992,119.1264)"/>
<path style="fill:none;stroke-width:0.04;stroke-linecap:round;stroke-linejoin:miter;stroke:rgb(100%,100%,100%);stroke-opacity:1;stroke-miterlimit:10;" d="M 0.100001 0.820006 L 0.100001 0.95998 " transform="matrix(72,0,0,-72,-1.78992,119.1264)"/>
<path style="fill:none;stroke-width:0.04;stroke-linecap:round;stroke-linejoin:miter;stroke:rgb(100%,100%,100%);stroke-opacity:1;stroke-miterlimit:10;" d="M 0.100001 0.95998 L 0.151379 1.011413 " transform="matrix(72,0,0,-72,-1.78992,119.1264)"/>
<path style="fill:none;stroke-width:0.04;stroke-linecap:round;stroke-linejoin:miter;stroke:rgb(100%,100%,100%);stroke-opacity:1;stroke-miterlimit:10;" d="M 0.151379 1.011413 L 0.151379 1.111402 " transform="matrix(72,0,0,-72,-1.78992,119.1264)"/>
<path style="fill:none;stroke-width:0.024;stroke-linecap:round;stroke-linejoin:miter;stroke:rgb(100%,100%,100%);stroke-opacity:1;stroke-miterlimit:10;" d="M 0.245021 0.889993 L 0.231403 0.876376 " transform="matrix(72,0,0,-72,-1.78992,119.1264)"/>
<path style="fill:none;stroke-width:0.024;stroke-linecap:round;stroke-linejoin:miter;stroke:rgb(100%,100%,100%);stroke-opacity:1;stroke-miterlimit:10;" d="M 0.231403 0.876376 L 0.237805 0.869974 " transform="matrix(72,0,0,-72,-1.78992,119.1264)"/>
<path style="fill:none;stroke-width:0.024;stroke-linecap:round;stroke-linejoin:miter;stroke:rgb(100%,100%,100%);stroke-opacity:1;stroke-miterlimit:10;" d="M 0.237805 0.869974 L 0.479992 0.869974 " transform="matrix(72,0,0,-72,-1.78992,119.1264)"/>
<path style="fill:none;stroke-width:0.024;stroke-linecap:round;stroke-linejoin:miter;stroke:rgb(100%,100%,100%);stroke-opacity:1;stroke-miterlimit:10;" d="M 0.479992 0.869974 L 0.494098 0.88408 " transform="matrix(72,0,0,-72,-1.78992,119.1264)"/>
<path style="fill:none;stroke-width:0.024;stroke-linecap:round;stroke-linejoin:miter;stroke:rgb(100%,100%,100%);stroke-opacity:1;stroke-miterlimit:10;" d="M 0.494098 0.88408 L 0.494098 1.124206 " transform="matrix(72,0,0,-72,-1.78992,119.1264)"/>
<path style="fill:none;stroke-width:0.024;stroke-linecap:round;stroke-linejoin:miter;stroke:rgb(100%,100%,100%);stroke-opacity:1;stroke-miterlimit:10;" d="M 0.553126 1.114223 L 0.553126 0.788485 " transform="matrix(72,0,0,-72,-1.78992,119.1264)"/>
<path style="fill:none;stroke-width:0.024;stroke-linecap:round;stroke-linejoin:miter;stroke:rgb(100%,100%,100%);stroke-opacity:1;stroke-miterlimit:10;" d="M 0.553126 0.788485 L 0.564574 0.799987 " transform="matrix(72,0,0,-72,-1.78992,119.1264)"/>
<path style="fill:none;stroke-width:0.024;stroke-linecap:round;stroke-linejoin:miter;stroke:rgb(100%,100%,100%);stroke-opacity:1;stroke-miterlimit:10;" d="M 0.564574 0.799987 L 0.829982 0.799987 " transform="matrix(72,0,0,-72,-1.78992,119.1264)"/>
<path style="fill:none;stroke-width:0.024;stroke-linecap:round;stroke-linejoin:miter;stroke:rgb(100%,100%,100%);stroke-opacity:1;stroke-miterlimit:10;" d="M 0.829982 0.799987 L 0.850001 0.780022 " transform="matrix(72,0,0,-72,-1.78992,119.1264)"/>
<path style="fill:none;stroke-width:0.024;stroke-linecap:round;stroke-linejoin:miter;stroke:rgb(100%,100%,100%);stroke-opacity:1;stroke-miterlimit:10;" d="M 0.850001 0.780022 L 0.850001 0.660013 " transform="matrix(72,0,0,-72,-1.78992,119.1264)"/>
<path style="fill:none;stroke-width:0.024;stroke-linecap:round;stroke-linejoin:miter;stroke:rgb(100%,100%,100%);stroke-opacity:1;stroke-miterlimit:10;" d="M 0.850001 0.660013 L 0.813109 0.623121 " transform="matrix(72,0,0,-72,-1.78992,119.1264)"/>
<path style="fill:none;stroke-width:0.024;stroke-linecap:round;stroke-linejoin:miter;stroke:rgb(100%,100%,100%);stroke-opacity:1;stroke-miterlimit:10;" d="M 0.813109 0.623121 L 0.813109 0.518683 " transform="matrix(72,0,0,-72,-1.78992,119.1264)"/>
<path style="fill:none;stroke-width:0.024;stroke-linecap:round;stroke-linejoin:miter;stroke:rgb(100%,100%,100%);stroke-opacity:1;stroke-miterlimit:10;" d="M 0.813109 0.443921 L 0.850001 0.407083 " transform="matrix(72,0,0,-72,-1.78992,119.1264)"/>
<path style="fill:none;stroke-width:0.024;stroke-linecap:round;stroke-linejoin:miter;stroke:rgb(100%,100%,100%);stroke-opacity:1;stroke-miterlimit:10;" d="M 0.850001 0.407083 L 0.850001 0.160013 " transform="matrix(72,0,0,-72,-1.78992,119.1264)"/>
<path style="fill:none;stroke-width:0.024;stroke-linecap:round;stroke-linejoin:miter;stroke:rgb(100%,100%,100%);stroke-opacity:1;stroke-miterlimit:10;" d="M 0.850001 0.160013 L 0.799979 0.109991 " transform="matrix(72,0,0,-72,-1.78992,119.1264)"/>
<path style="fill:none;stroke-width:0.024;stroke-linecap:round;stroke-linejoin:miter;stroke:rgb(100%,100%,100%);stroke-opacity:1;stroke-miterlimit:10;" d="M 0.799979 0.109991 L 0.799979 0.0799891 " transform="matrix(72,0,0,-72,-1.78992,119.1264)"/>
<path style="fill:none;stroke-width:0.024;stroke-linecap:round;stroke-linejoin:miter;stroke:rgb(100%,100%,100%);stroke-opacity:1;stroke-miterlimit:10;" d="M 0.71019 0.245625 L 0.690008 0.265699 " transform="matrix(72,0,0,-72,-1.78992,119.1264)"/>
<path style="fill:none;stroke-width:0.024;stroke-linecap:round;stroke-linejoin:miter;stroke:rgb(100%,100%,100%);stroke-opacity:1;stroke-miterlimit:10;" d="M 0.690008 0.265699 L 0.690008 0.530022 " transform="matrix(72,0,0,-72,-1.78992,119.1264)"/>
<path style="fill:none;stroke-width:0.024;stroke-linecap:round;stroke-linejoin:miter;stroke:rgb(100%,100%,100%);stroke-opacity:1;stroke-miterlimit:10;" d="M 0.690008 0.530022 L 0.542818 0.677211 " transform="matrix(72,0,0,-72,-1.78992,119.1264)"/>
<path style="fill:none;stroke-width:0.024;stroke-linecap:round;stroke-linejoin:miter;stroke:rgb(100%,100%,100%);stroke-opacity:1;stroke-miterlimit:10;" d="M 0.542818 0.677211 L 0.516613 0.677211 " transform="matrix(72,0,0,-72,-1.78992,119.1264)"/>
<path style="fill:none;stroke-width:0.024;stroke-linecap:round;stroke-linejoin:miter;stroke:rgb(100%,100%,100%);stroke-opacity:1;stroke-miterlimit:10;" d="M 0.516613 0.752027 L 0.553126 0.788485 " transform="matrix(72,0,0,-72,-1.78992,119.1264)"/>
<path style="fill:none;stroke-width:0.024;stroke-linecap:round;stroke-linejoin:miter;stroke:rgb(100%,100%,100%);stroke-opacity:1;stroke-miterlimit:10;" d="M 0.419988 0.780022 L 0.419988 0.419996 " transform="matrix(72,0,0,-72,-1.78992,119.1264)"/>
<path style="fill:none;stroke-width:0.024;stroke-linecap:round;stroke-linejoin:miter;stroke:rgb(100%,100%,100%);stroke-opacity:1;stroke-miterlimit:10;" d="M 0.419988 0.419996 L 0.440713 0.399325 " transform="matrix(72,0,0,-72,-1.78992,119.1264)"/>
<path style="fill:none;stroke-width:0.024;stroke-linecap:round;stroke-linejoin:miter;stroke:rgb(100%,100%,100%);stroke-opacity:1;stroke-miterlimit:10;" d="M 0.440713 0.399325 L 0.476195 0.399325 " transform="matrix(72,0,0,-72,-1.78992,119.1264)"/>
<path style="fill:none;stroke-width:0.024;stroke-linecap:round;stroke-linejoin:miter;stroke:rgb(100%,100%,100%);stroke-opacity:1;stroke-miterlimit:10;" d="M 0.535222 0.409308 L 0.535222 0.3652 " transform="matrix(72,0,0,-72,-1.78992,119.1264)"/>
<path style="fill:none;stroke-width:0.024;stroke-linecap:round;stroke-linejoin:miter;stroke:rgb(100%,100%,100%);stroke-opacity:1;stroke-miterlimit:10;" d="M 0.535222 0.3652 L 0.489975 0.320006 " transform="matrix(72,0,0,-72,-1.78992,119.1264)"/>
<path style="fill:none;stroke-width:0.024;stroke-linecap:round;stroke-linejoin:miter;stroke:rgb(100%,100%,100%);stroke-opacity:1;stroke-miterlimit:10;" d="M 0.489975 0.320006 L 0.340398 0.320006 " transform="matrix(72,0,0,-72,-1.78992,119.1264)"/>
<path style="fill:none;stroke-width:0.024;stroke-linecap:round;stroke-linejoin:miter;stroke:rgb(100%,100%,100%);stroke-opacity:1;stroke-miterlimit:10;" d="M 0.340398 0.320006 L 0.313977 0.366393 " transform="matrix(72,0,0,-72,-1.78992,119.1264)"/>
<path style="fill:none;stroke-width:0.024;stroke-linecap:round;stroke-linejoin:miter;stroke:rgb(100%,100%,100%);stroke-opacity:1;stroke-miterlimit:10;" d="M 0.445379 0.236076 L 0.289183 0.0799891 " transform="matrix(72,0,0,-72,-1.78992,119.1264)"/>
<path style="fill:none;stroke-width:0.024;stroke-linecap:round;stroke-linejoin:miter;stroke:rgb(100%,100%,100%);stroke-opacity:1;stroke-miterlimit:10;" d="M 0.289183 0.0799891 L 0.269977 0.0799891 " transform="matrix(72,0,0,-72,-1.78992,119.1264)"/>
<path style="fill:none;stroke-width:0.024;stroke-linecap:round;stroke-linejoin:miter;stroke:rgb(100%,100%,100%);stroke-opacity:1;stroke-miterlimit:10;" d="M 0.520194 0.236076 L 0.520194 0.270202 " transform="matrix(72,0,0,-72,-1.78992,119.1264)"/>
<path style="fill:none;stroke-width:0.024;stroke-linecap:round;stroke-linejoin:miter;stroke:rgb(100%,100%,100%);stroke-opacity:1;stroke-miterlimit:10;" d="M 0.520194 0.270202 L 0.590018 0.340026 " transform="matrix(72,0,0,-72,-1.78992,119.1264)"/>
<path style="fill:none;stroke-width:0.024;stroke-linecap:round;stroke-linejoin:miter;stroke:rgb(100%,100%,100%);stroke-opacity:1;stroke-miterlimit:10;" d="M 0.590018 0.340026 L 0.590018 0.395093 " transform="matrix(72,0,0,-72,-1.78992,119.1264)"/>
<path style="fill:none;stroke-width:0.024;stroke-linecap:round;stroke-linejoin:miter;stroke:rgb(100%,100%,100%);stroke-opacity:1;stroke-miterlimit:10;" d="M 0.590018 0.395093 L 0.594196 0.399325 " transform="matrix(72,0,0,-72,-1.78992,119.1264)"/>
<path style="fill:none;stroke-width:0.024;stroke-linecap:round;stroke-linejoin:miter;stroke:rgb(100%,100%,100%);stroke-opacity:1;stroke-miterlimit:10;" d="M 0.419988 1.010002 L 0.435125 1.025085 " transform="matrix(72,0,0,-72,-1.78992,119.1264)"/>
<path style="fill:none;stroke-width:0.024;stroke-linecap:round;stroke-linejoin:miter;stroke:rgb(100%,100%,100%);stroke-opacity:1;stroke-miterlimit:10;" d="M 0.435125 1.025085 L 0.435125 1.114223 " transform="matrix(72,0,0,-72,-1.78992,119.1264)"/>
<path style="fill:none;stroke-width:0.024;stroke-linecap:round;stroke-linejoin:miter;stroke:rgb(100%,100%,100%);stroke-opacity:1;stroke-miterlimit:10;" d="M 0.435125 1.114223 L 0.415811 1.114223 " transform="matrix(72,0,0,-72,-1.78992,119.1264)"/>
<path style="fill:none;stroke-width:0.024;stroke-linecap:round;stroke-linejoin:miter;stroke:rgb(100%,100%,100%);stroke-opacity:1;stroke-miterlimit:10;" d="M 0.415811 1.114223 L 0.389986 1.139993 " transform="matrix(72,0,0,-72,-1.78992,119.1264)"/>
<path style="fill:none;stroke-width:0.024;stroke-linecap:round;stroke-linejoin:miter;stroke:rgb(100%,100%,100%);stroke-opacity:1;stroke-miterlimit:10;" d="M 0.389986 1.139993 L 0.389986 1.320006 " transform="matrix(72,0,0,-72,-1.78992,119.1264)"/>
<path style="fill:none;stroke-width:0.024;stroke-linecap:round;stroke-linejoin:miter;stroke:rgb(100%,100%,100%);stroke-opacity:1;stroke-miterlimit:10;" d="M 0.389986 1.320006 L 0.500012 1.429978 " transform="matrix(72,0,0,-72,-1.78992,119.1264)"/>
<path style="fill:none;stroke-width:0.024;stroke-linecap:round;stroke-linejoin:miter;stroke:rgb(100%,100%,100%);stroke-opacity:1;stroke-miterlimit:10;" d="M 0.500012 1.429978 L 0.500012 1.500019 " transform="matrix(72,0,0,-72,-1.78992,119.1264)"/>
<path style="fill:none;stroke-width:0.024;stroke-linecap:round;stroke-linejoin:miter;stroke:rgb(100%,100%,100%);stroke-opacity:1;stroke-miterlimit:10;" d="M 0.500012 1.500019 L 0.519977 1.519985 " transform="matrix(72,0,0,-72,-1.78992,119.1264)"/>
<path style="fill:none;stroke-width:0.056;stroke-linecap:round;stroke-linejoin:miter;stroke:rgb(100%,100%,100%);stroke-opacity:1;stroke-miterlimit:10;" d="M 0.799979 1.519985 L 0.859984 1.45998 " transform="matrix(72,0,0,-72,-1.78992,119.1264)"/>
<path style="fill:none;stroke-width:0.056;stroke-linecap:round;stroke-linejoin:miter;stroke:rgb(100%,100%,100%);stroke-opacity:1;stroke-miterlimit:10;" d="M 0.859984 1.45998 L 0.859984 1.269985 " transform="matrix(72,0,0,-72,-1.78992,119.1264)"/>
<path style=" stroke:none;fill-rule:evenodd;fill:rgb(0%,0%,0%);fill-opacity:1;" d="M 19.089844 113.367188 C 19.089844 111.445312 16.210938 111.445312 16.210938 113.367188 C 16.210938 115.285156 19.089844 115.285156 19.089844 113.367188 "/>
<path style=" stroke:none;fill-rule:evenodd;fill:rgb(0%,0%,0%);fill-opacity:1;" d="M 32.050781 113.367188 C 32.050781 111.445312 29.171875 111.445312 29.171875 113.367188 C 29.171875 115.285156 32.050781 115.285156 32.050781 113.367188 "/>
<path style=" stroke:none;fill-rule:evenodd;fill:rgb(0%,0%,0%);fill-opacity:1;" d="M 42.851562 113.367188 C 42.851562 111.445312 39.96875 111.445312 39.96875 113.367188 C 39.96875 115.285156 42.851562 115.285156 42.851562 113.367188 "/>
<path style=" stroke:none;fill-rule:evenodd;fill:rgb(0%,0%,0%);fill-opacity:1;" d="M 57.25 113.367188 C 57.25 111.445312 54.371094 111.445312 54.371094 113.367188 C 54.371094 115.285156 57.25 115.285156 57.25 113.367188 "/>
<path style=" stroke:none;fill-rule:evenodd;fill:rgb(0%,0%,0%);fill-opacity:1;" d="M 57.25 9.6875 C 57.25 7.765625 54.371094 7.765625 54.371094 9.6875 C 54.371094 11.605469 57.25 11.605469 57.25 9.6875 "/>
<path style=" stroke:none;fill-rule:evenodd;fill:rgb(0%,0%,0%);fill-opacity:1;" d="M 43.570312 9.6875 C 43.570312 7.765625 40.691406 7.765625 40.691406 9.6875 C 40.691406 11.605469 43.570312 11.605469 43.570312 9.6875 "/>
<path style=" stroke:none;fill-rule:evenodd;fill:rgb(0%,0%,0%);fill-opacity:1;" d="M 28.449219 9.6875 C 28.449219 7.765625 25.570312 7.765625 25.570312 9.6875 C 25.570312 11.605469 28.449219 11.605469 28.449219 9.6875 "/>
<path style=" stroke:none;fill-rule:evenodd;fill:rgb(0%,0%,0%);fill-opacity:1;" d="M 14.050781 9.6875 C 14.050781 7.765625 11.171875 7.765625 11.171875 9.6875 C 11.171875 11.605469 14.050781 11.605469 14.050781 9.6875 "/>
<path style=" stroke:none;fill-rule:evenodd;fill:rgb(0%,0%,0%);fill-opacity:1;" d="M 16.222656 101.441406 C 16.222656 99.523438 13.34375 99.523438 13.34375 101.441406 C 13.34375 103.363281 16.222656 103.363281 16.222656 101.441406 "/>
<path style=" stroke:none;fill-rule:evenodd;fill:rgb(0%,0%,0%);fill-opacity:1;" d="M 10.464844 84.523438 C 10.464844 82.601562 7.585938 82.601562 7.585938 84.523438 C 7.585938 86.441406 10.464844 86.441406 10.464844 84.523438 "/>
<path style=" stroke:none;fill-rule:evenodd;fill:rgb(0%,0%,0%);fill-opacity:1;" d="M 16.222656 67.601562 C 16.222656 65.683594 13.34375 65.683594 13.34375 67.601562 C 13.34375 69.523438 16.222656 69.523438 16.222656 67.601562 "/>
<path style=" stroke:none;fill-rule:evenodd;fill:rgb(0%,0%,0%);fill-opacity:1;" d="M 16.3125 56.027344 C 16.3125 54.105469 13.429688 54.105469 13.429688 56.027344 C 13.429688 57.945312 16.3125 57.945312 16.3125 56.027344 "/>
<path style=" stroke:none;fill-rule:evenodd;fill:rgb(0%,0%,0%);fill-opacity:1;" d="M 10.550781 39.105469 C 10.550781 37.1875 7.671875 37.1875 7.671875 39.105469 C 7.671875 41.027344 10.550781 41.027344 10.550781 39.105469 "/>
<path style=" stroke:none;fill-rule:evenodd;fill:rgb(0%,0%,0%);fill-opacity:1;" d="M 16.3125 22.1875 C 16.3125 20.265625 13.429688 20.265625 13.429688 22.1875 C 13.429688 24.105469 16.3125 24.105469 16.3125 22.1875 "/>
<path style=" stroke:none;fill-rule:evenodd;fill:rgb(0%,0%,0%);fill-opacity:1;" d="M 50.871094 22.1875 C 50.871094 20.265625 47.992188 20.265625 47.992188 22.1875 C 47.992188 24.105469 50.871094 24.105469 50.871094 22.1875 "/>
<path style=" stroke:none;fill-rule:evenodd;fill:rgb(0%,0%,0%);fill-opacity:1;" d="M 50.871094 56.027344 C 50.871094 54.105469 47.992188 54.105469 47.992188 56.027344 C 47.992188 57.945312 50.871094 57.945312 50.871094 56.027344 "/>
<path style=" stroke:none;fill-rule:evenodd;fill:rgb(0%,0%,0%);fill-opacity:1;" d="M 50.785156 67.601562 C 50.785156 65.683594 47.90625 65.683594 47.90625 67.601562 C 47.90625 69.523438 50.785156 69.523438 50.785156 67.601562 "/>
<path style=" stroke:none;fill-rule:evenodd;fill:rgb(0%,0%,0%);fill-opacity:1;" d="M 50.785156 101.441406 C 50.785156 99.523438 47.90625 99.523438 47.90625 101.441406 C 47.90625 103.363281 50.785156 103.363281 50.785156 101.441406 "/>
</g>
</svg>
