G75*
%MOIN*%
%OFA0B0*%
%FSLAX24Y24*%
%IPPOS*%
%LPD*%
%AMOC8*
5,1,8,0,0,1.08239X$1,22.5*
%
%ADD10C,0.0120*%
%ADD11C,0.0640*%
%ADD12R,0.0635X0.0635*%
%ADD13OC8,0.0635*%
%ADD14C,0.0720*%
%ADD15C,0.0640*%
%ADD16C,0.0760*%
%ADD17C,0.0790*%
%ADD18OC8,0.0640*%
%ADD19C,0.0714*%
%ADD20OC8,0.0720*%
%ADD21C,0.0000*%
%ADD22C,0.0635*%
%ADD23C,0.0634*%
%ADD24C,0.0320*%
%ADD25C,0.0240*%
%ADD26C,0.0594*%
%ADD27C,0.0160*%
D10*
X000450Y000160D02*
X000450Y019781D01*
X033820Y019781D01*
X033820Y000160D01*
X000450Y000160D01*
D11*
X006505Y001660D02*
X007145Y001660D01*
X007145Y002660D02*
X006505Y002660D01*
X006505Y003660D02*
X007145Y003660D01*
X007145Y004660D02*
X006505Y004660D01*
X006505Y005660D02*
X007145Y005660D01*
X007145Y006660D02*
X006505Y006660D01*
X006505Y007660D02*
X007145Y007660D01*
X007145Y008660D02*
X006505Y008660D01*
X006505Y009660D02*
X007145Y009660D01*
X007145Y010660D02*
X006505Y010660D01*
X009505Y010660D02*
X010145Y010660D01*
X010145Y009660D02*
X009505Y009660D01*
X009505Y008660D02*
X010145Y008660D01*
X010145Y007660D02*
X009505Y007660D01*
X009505Y006660D02*
X010145Y006660D01*
X010145Y005660D02*
X009505Y005660D01*
X009505Y004660D02*
X010145Y004660D01*
X010145Y003660D02*
X009505Y003660D01*
X009505Y002660D02*
X010145Y002660D01*
X010145Y001660D02*
X009505Y001660D01*
D12*
X013450Y013910D03*
D13*
X012450Y013910D03*
X012450Y014910D03*
X013450Y014910D03*
X013450Y015910D03*
X012450Y015910D03*
X013450Y016910D03*
D14*
X009060Y017160D02*
X008340Y017160D01*
X007310Y017160D02*
X006590Y017160D01*
X006590Y018160D02*
X007310Y018160D01*
X008340Y018160D02*
X009060Y018160D01*
X009060Y019160D02*
X008340Y019160D01*
X007310Y019160D02*
X006590Y019160D01*
X016700Y010270D02*
X016700Y009550D01*
X017700Y009550D02*
X017700Y010270D01*
X018700Y010270D02*
X018700Y009550D01*
X019075Y008145D02*
X019075Y007425D01*
X018075Y007425D02*
X018075Y008145D01*
X020075Y008145D02*
X020075Y007425D01*
X021075Y007425D02*
X021075Y008145D01*
X023215Y008160D02*
X023935Y008160D01*
X025215Y008160D02*
X025935Y008160D01*
X025935Y007160D02*
X025215Y007160D01*
X023935Y007160D02*
X023215Y007160D01*
X023215Y006160D02*
X023935Y006160D01*
X025215Y006160D02*
X025935Y006160D01*
X027590Y006410D02*
X028310Y006410D01*
X028310Y005410D02*
X027590Y005410D01*
X027590Y004410D02*
X028310Y004410D01*
X028310Y007410D02*
X027590Y007410D01*
X027590Y008410D02*
X028310Y008410D01*
X028450Y009425D02*
X028450Y010145D01*
X027450Y010145D02*
X027450Y009425D01*
X026450Y009425D02*
X026450Y010145D01*
X029950Y010145D02*
X029950Y009425D01*
X030950Y009425D02*
X030950Y010145D01*
X031950Y010145D02*
X031950Y009425D01*
X027310Y017910D02*
X026590Y017910D01*
X026590Y018910D02*
X027310Y018910D01*
X012935Y009660D02*
X012215Y009660D01*
X012215Y008660D02*
X012935Y008660D01*
X012935Y007660D02*
X012215Y007660D01*
X012215Y006660D02*
X012935Y006660D01*
X012935Y005660D02*
X012215Y005660D01*
X012215Y004660D02*
X012935Y004660D01*
X012935Y003660D02*
X012215Y003660D01*
X012215Y002660D02*
X012935Y002660D01*
X002810Y002535D02*
X002090Y002535D01*
X002090Y003535D02*
X002810Y003535D01*
X002810Y004535D02*
X002090Y004535D01*
X002090Y005535D02*
X002810Y005535D01*
X002810Y006535D02*
X002090Y006535D01*
D15*
X005075Y006210D03*
X005075Y008110D03*
X006325Y015935D03*
D16*
X021200Y016030D02*
X021200Y016790D01*
X022200Y016790D02*
X022200Y016030D01*
X023200Y016030D02*
X023200Y016790D01*
X024200Y016790D02*
X024200Y016030D01*
X025200Y016030D02*
X025200Y016790D01*
X026200Y016790D02*
X026200Y016030D01*
X026200Y011790D02*
X026200Y011030D01*
X025200Y011030D02*
X025200Y011790D01*
X024200Y011790D02*
X024200Y011030D01*
X023200Y011030D02*
X023200Y011790D01*
X022200Y011790D02*
X022200Y011030D01*
X021200Y011030D02*
X021200Y011790D01*
D17*
X003345Y016426D02*
X002555Y016426D01*
X002555Y018394D02*
X003345Y018394D01*
D18*
X006325Y015135D03*
D19*
X014064Y004796D02*
X014064Y004083D01*
X015836Y004083D02*
X015836Y004796D01*
X016814Y004796D02*
X016814Y004083D01*
X018586Y004083D02*
X018586Y004796D01*
X019564Y004796D02*
X019564Y004083D01*
X021336Y004083D02*
X021336Y004796D01*
X022314Y004796D02*
X022314Y004083D01*
X024086Y004083D02*
X024086Y004796D01*
X024086Y002237D02*
X024086Y001524D01*
X022314Y001524D02*
X022314Y002237D01*
X021336Y002237D02*
X021336Y001524D01*
X019564Y001524D02*
X019564Y002237D01*
X018586Y002237D02*
X018586Y001524D01*
X016814Y001524D02*
X016814Y002237D01*
X015836Y002237D02*
X015836Y001524D01*
X014064Y001524D02*
X014064Y002237D01*
D20*
X026075Y003785D03*
X027825Y002535D03*
X029325Y002035D03*
X031950Y001910D03*
D21*
X002273Y012294D02*
X002275Y012320D01*
X002281Y012346D01*
X002291Y012371D01*
X002304Y012394D01*
X002320Y012414D01*
X002340Y012432D01*
X002362Y012447D01*
X002385Y012459D01*
X002411Y012467D01*
X002437Y012471D01*
X002463Y012471D01*
X002489Y012467D01*
X002515Y012459D01*
X002539Y012447D01*
X002560Y012432D01*
X002580Y012414D01*
X002596Y012394D01*
X002609Y012371D01*
X002619Y012346D01*
X002625Y012320D01*
X002627Y012294D01*
X002625Y012268D01*
X002619Y012242D01*
X002609Y012217D01*
X002596Y012194D01*
X002580Y012174D01*
X002560Y012156D01*
X002538Y012141D01*
X002515Y012129D01*
X002489Y012121D01*
X002463Y012117D01*
X002437Y012117D01*
X002411Y012121D01*
X002385Y012129D01*
X002361Y012141D01*
X002340Y012156D01*
X002320Y012174D01*
X002304Y012194D01*
X002291Y012217D01*
X002281Y012242D01*
X002275Y012268D01*
X002273Y012294D01*
X002273Y014026D02*
X002275Y014052D01*
X002281Y014078D01*
X002291Y014103D01*
X002304Y014126D01*
X002320Y014146D01*
X002340Y014164D01*
X002362Y014179D01*
X002385Y014191D01*
X002411Y014199D01*
X002437Y014203D01*
X002463Y014203D01*
X002489Y014199D01*
X002515Y014191D01*
X002539Y014179D01*
X002560Y014164D01*
X002580Y014146D01*
X002596Y014126D01*
X002609Y014103D01*
X002619Y014078D01*
X002625Y014052D01*
X002627Y014026D01*
X002625Y014000D01*
X002619Y013974D01*
X002609Y013949D01*
X002596Y013926D01*
X002580Y013906D01*
X002560Y013888D01*
X002538Y013873D01*
X002515Y013861D01*
X002489Y013853D01*
X002463Y013849D01*
X002437Y013849D01*
X002411Y013853D01*
X002385Y013861D01*
X002361Y013873D01*
X002340Y013888D01*
X002320Y013906D01*
X002304Y013926D01*
X002291Y013949D01*
X002281Y013974D01*
X002275Y014000D01*
X002273Y014026D01*
D22*
X002450Y008535D02*
X003085Y008535D01*
X003085Y007535D02*
X002450Y007535D01*
X001450Y007535D02*
X000815Y007535D01*
X000815Y008535D02*
X001450Y008535D01*
D23*
X008325Y011535D03*
X011325Y010535D03*
X011325Y007660D03*
X016700Y011035D03*
X017450Y011285D03*
X018200Y011160D03*
X018950Y011160D03*
X010075Y015035D03*
X008700Y015660D03*
X009825Y017160D03*
X015575Y018910D03*
X028700Y011160D03*
X030325Y011160D03*
X031575Y013660D03*
X031700Y014660D03*
X031325Y015410D03*
X031075Y016285D03*
D24*
X009825Y017160D02*
X008700Y016035D01*
X008700Y015660D01*
D25*
X014575Y017910D02*
X015575Y018910D01*
X020325Y015160D02*
X016700Y011535D01*
X016700Y011035D01*
X017450Y011285D02*
X020825Y014660D01*
X030575Y014660D01*
X031325Y015410D01*
X031075Y016160D02*
X030075Y015160D01*
X020325Y015160D01*
X021325Y014160D02*
X018200Y011160D01*
X018950Y011160D02*
X021450Y013660D01*
X031575Y013660D01*
X030825Y014160D02*
X021325Y014160D01*
X030825Y014160D02*
X031325Y014660D01*
X031700Y014660D01*
X031075Y016160D02*
X031075Y016285D01*
X022314Y004440D02*
X022314Y001880D01*
X021336Y001880D02*
X021336Y004440D01*
X019564Y004440D02*
X019564Y001880D01*
X018586Y001880D02*
X018586Y004440D01*
X011325Y007660D02*
X011325Y010535D01*
D26*
X014575Y017910D03*
D27*
X010075Y015035D02*
X008325Y013285D01*
X008325Y011535D01*
X028700Y011160D02*
X030325Y011160D01*
M02*
