G75*
%MOIN*%
%OFA0B0*%
%FSLAX24Y24*%
%IPPOS*%
%LPD*%
%AMOC8*
5,1,8,0,0,1.08239X$1,22.5*
%
%ADD10C,0.0120*%
%ADD11R,0.3000X0.2000*%
%ADD12C,0.0110*%
%ADD13C,0.0640*%
%ADD14R,0.0635X0.0635*%
%ADD15OC8,0.0635*%
%ADD16C,0.0720*%
%ADD17R,0.0315X0.0354*%
%ADD18R,0.0354X0.0315*%
%ADD19C,0.0640*%
%ADD20C,0.0760*%
%ADD21C,0.0790*%
%ADD22R,0.0512X0.0591*%
%ADD23R,0.0591X0.0512*%
%ADD24R,0.0260X0.0800*%
%ADD25R,0.0800X0.0260*%
%ADD26R,0.0394X0.0433*%
%ADD27R,0.0433X0.0394*%
%ADD28OC8,0.0640*%
%ADD29R,0.0472X0.0472*%
%ADD30C,0.0714*%
%ADD31OC8,0.0720*%
%ADD32R,0.0354X0.0106*%
%ADD33R,0.0106X0.0354*%
%ADD34R,0.1260X0.1260*%
%ADD35R,0.0984X0.0787*%
%ADD36R,0.1299X0.0787*%
%ADD37R,0.1220X0.0197*%
%ADD38C,0.0000*%
%ADD39C,0.0635*%
%ADD40R,0.0790X0.0590*%
%ADD41R,0.0790X0.1500*%
%ADD42C,0.0240*%
%ADD43C,0.0160*%
%ADD44C,0.0320*%
%ADD45C,0.0634*%
%ADD46C,0.0100*%
%ADD47C,0.0594*%
D10*
X000450Y000160D02*
X000450Y019781D01*
X033820Y019781D01*
X033820Y000160D01*
X000450Y000160D01*
X001450Y007535D02*
X001950Y008035D01*
X001950Y009035D01*
X004887Y012286D02*
X004513Y012660D01*
X004513Y012723D01*
X004390Y012845D01*
X003631Y012845D01*
X003636Y012535D02*
X003631Y012530D01*
X003631Y013160D02*
X004450Y013160D01*
X004579Y013790D02*
X003631Y013790D01*
X004579Y013790D02*
X004638Y013848D01*
X005161Y014597D02*
X005388Y014370D01*
X005161Y014597D02*
X004638Y014597D01*
X004203Y014597D01*
X003888Y014912D01*
X004887Y012286D02*
X005200Y012286D01*
X015325Y012535D02*
X015950Y012535D01*
X016200Y012785D01*
X021700Y015535D02*
X021700Y017285D01*
X029700Y016410D02*
X029700Y015535D01*
X029575Y015410D01*
X031075Y014535D02*
X031200Y014660D01*
X031075Y014535D02*
X029700Y014535D01*
D11*
X032075Y018535D03*
D12*
X032630Y008357D02*
X032630Y007963D01*
X033024Y008357D01*
X033024Y007963D01*
X033024Y007712D02*
X032630Y007319D01*
X032630Y007712D01*
X033024Y007712D02*
X033024Y007319D01*
X033024Y007068D02*
X032630Y006674D01*
X032630Y007068D01*
X033024Y007068D02*
X033024Y006674D01*
X033221Y006423D02*
X032827Y006030D01*
X032925Y006128D02*
X032630Y006423D01*
X032630Y006030D02*
X033221Y006030D01*
X033221Y005698D02*
X033319Y005698D01*
X033024Y005698D02*
X033024Y005600D01*
X033024Y005698D02*
X032630Y005698D01*
X032630Y005600D02*
X032630Y005797D01*
X033024Y005358D02*
X033024Y005260D01*
X032827Y005063D01*
X032630Y005063D02*
X033024Y005063D01*
X032925Y004812D02*
X032630Y004812D01*
X032630Y004517D01*
X032728Y004418D01*
X032827Y004517D01*
X032827Y004812D01*
X032925Y004812D02*
X033024Y004713D01*
X033024Y004517D01*
X033221Y004167D02*
X032630Y004167D01*
X033024Y003970D02*
X033221Y004167D01*
X033024Y003970D02*
X033221Y003774D01*
X032630Y003774D01*
X032630Y003523D02*
X032630Y003129D01*
X033024Y003523D01*
X033024Y003129D01*
X033024Y002878D02*
X032630Y002485D01*
X032630Y002878D01*
X033024Y002878D02*
X033024Y002485D01*
X033024Y002234D02*
X032630Y001840D01*
X032630Y002234D01*
X033024Y002234D02*
X033024Y001840D01*
X033047Y001056D02*
X032850Y001056D01*
X032751Y000957D01*
X032751Y000859D01*
X033145Y000465D01*
X032751Y000465D01*
X032500Y000563D02*
X032107Y000957D01*
X032107Y000563D01*
X032205Y000465D01*
X032402Y000465D01*
X032500Y000563D01*
X032500Y000957D01*
X032402Y001056D01*
X032205Y001056D01*
X032107Y000957D01*
X031856Y000859D02*
X031659Y001056D01*
X031659Y000465D01*
X031856Y000465D02*
X031462Y000465D01*
X031211Y000563D02*
X031113Y000465D01*
X030916Y000465D01*
X030818Y000563D01*
X030818Y000760D01*
X030916Y000859D01*
X031015Y000859D01*
X031211Y000760D01*
X031211Y001056D01*
X030818Y001056D01*
X033047Y001056D02*
X033145Y000957D01*
D13*
X010145Y001660D02*
X009505Y001660D01*
X009505Y002660D02*
X010145Y002660D01*
X010145Y003660D02*
X009505Y003660D01*
X009505Y004660D02*
X010145Y004660D01*
X010145Y005660D02*
X009505Y005660D01*
X009505Y006660D02*
X010145Y006660D01*
X010145Y007660D02*
X009505Y007660D01*
X009505Y008660D02*
X010145Y008660D01*
X010145Y009660D02*
X009505Y009660D01*
X009505Y010660D02*
X010145Y010660D01*
X007145Y010660D02*
X006505Y010660D01*
X006505Y009660D02*
X007145Y009660D01*
X007145Y008660D02*
X006505Y008660D01*
X006505Y007660D02*
X007145Y007660D01*
X007145Y006660D02*
X006505Y006660D01*
X006505Y005660D02*
X007145Y005660D01*
X007145Y004660D02*
X006505Y004660D01*
X006505Y003660D02*
X007145Y003660D01*
X007145Y002660D02*
X006505Y002660D01*
X006505Y001660D02*
X007145Y001660D01*
D14*
X013450Y013910D03*
D15*
X012450Y013910D03*
X012450Y014910D03*
X013450Y014910D03*
X013450Y015910D03*
X012450Y015910D03*
X013450Y016910D03*
D16*
X009060Y017160D02*
X008340Y017160D01*
X007310Y017160D02*
X006590Y017160D01*
X006590Y018160D02*
X007310Y018160D01*
X008340Y018160D02*
X009060Y018160D01*
X009060Y019160D02*
X008340Y019160D01*
X007310Y019160D02*
X006590Y019160D01*
X016700Y010270D02*
X016700Y009550D01*
X017700Y009550D02*
X017700Y010270D01*
X018700Y010270D02*
X018700Y009550D01*
X019075Y008145D02*
X019075Y007425D01*
X018075Y007425D02*
X018075Y008145D01*
X020075Y008145D02*
X020075Y007425D01*
X021075Y007425D02*
X021075Y008145D01*
X023215Y008160D02*
X023935Y008160D01*
X025215Y008160D02*
X025935Y008160D01*
X025935Y007160D02*
X025215Y007160D01*
X023935Y007160D02*
X023215Y007160D01*
X023215Y006160D02*
X023935Y006160D01*
X025215Y006160D02*
X025935Y006160D01*
X027590Y006410D02*
X028310Y006410D01*
X028310Y005410D02*
X027590Y005410D01*
X027590Y004410D02*
X028310Y004410D01*
X028310Y007410D02*
X027590Y007410D01*
X027590Y008410D02*
X028310Y008410D01*
X028450Y009425D02*
X028450Y010145D01*
X027450Y010145D02*
X027450Y009425D01*
X026450Y009425D02*
X026450Y010145D01*
X029950Y010145D02*
X029950Y009425D01*
X030950Y009425D02*
X030950Y010145D01*
X031950Y010145D02*
X031950Y009425D01*
X027310Y017910D02*
X026590Y017910D01*
X026590Y018910D02*
X027310Y018910D01*
X012935Y009660D02*
X012215Y009660D01*
X012215Y008660D02*
X012935Y008660D01*
X012935Y007660D02*
X012215Y007660D01*
X012215Y006660D02*
X012935Y006660D01*
X012935Y005660D02*
X012215Y005660D01*
X012215Y004660D02*
X012935Y004660D01*
X012935Y003660D02*
X012215Y003660D01*
X012215Y002660D02*
X012935Y002660D01*
X002810Y002535D02*
X002090Y002535D01*
X002090Y003535D02*
X002810Y003535D01*
X002810Y004535D02*
X002090Y004535D01*
X002090Y005535D02*
X002810Y005535D01*
X002810Y006535D02*
X002090Y006535D01*
D17*
X021200Y017498D03*
X020826Y018285D03*
X021574Y018285D03*
X023451Y018285D03*
X024199Y018285D03*
X024951Y018285D03*
X025699Y018285D03*
X025325Y017498D03*
X023825Y017498D03*
D18*
X021450Y010034D03*
X022237Y009660D03*
X021450Y009286D03*
X026450Y002284D03*
X026450Y001536D03*
X027237Y001910D03*
X030450Y001536D03*
X031237Y001910D03*
X030450Y002284D03*
X005325Y016036D03*
X004538Y016410D03*
X005325Y016784D03*
D19*
X006325Y015935D03*
X005075Y008110D03*
X005075Y006210D03*
D20*
X021200Y011030D02*
X021200Y011790D01*
X022200Y011790D02*
X022200Y011030D01*
X023200Y011030D02*
X023200Y011790D01*
X024200Y011790D02*
X024200Y011030D01*
X025200Y011030D02*
X025200Y011790D01*
X026200Y011790D02*
X026200Y011030D01*
X026200Y016030D02*
X026200Y016790D01*
X025200Y016790D02*
X025200Y016030D01*
X024200Y016030D02*
X024200Y016790D01*
X023200Y016790D02*
X023200Y016030D01*
X022200Y016030D02*
X022200Y016790D01*
X021200Y016790D02*
X021200Y016030D01*
D21*
X003345Y016426D02*
X002555Y016426D01*
X002555Y018394D02*
X003345Y018394D01*
D22*
X007451Y014910D03*
X008199Y014910D03*
X019951Y009535D03*
X020699Y009535D03*
X029451Y008410D03*
X030199Y008410D03*
X030199Y007410D03*
X029451Y007410D03*
X029451Y006410D03*
X030199Y006410D03*
X030199Y005410D03*
X029451Y005410D03*
X029451Y004410D03*
X030199Y004410D03*
X030076Y002910D03*
X030824Y002910D03*
X026824Y002910D03*
X026076Y002910D03*
X029326Y015910D03*
X030074Y015910D03*
X029199Y016660D03*
X028451Y016660D03*
D23*
X020950Y014159D03*
X020950Y013411D03*
X018325Y015911D03*
X017325Y015911D03*
X016325Y015911D03*
X016325Y016659D03*
X017325Y016659D03*
X018325Y016659D03*
X015075Y013659D03*
X015075Y012911D03*
X010075Y012784D03*
X010075Y012036D03*
X005200Y012286D03*
X005200Y013034D03*
X004638Y013848D03*
X004638Y014597D03*
X005075Y018036D03*
X005075Y018784D03*
X018075Y006659D03*
X019075Y006659D03*
X020075Y006659D03*
X021075Y006659D03*
X021075Y005911D03*
X020075Y005911D03*
X019075Y005911D03*
X018075Y005911D03*
D24*
X017950Y012200D03*
X017450Y012200D03*
X016950Y012200D03*
X016450Y012200D03*
X018450Y012200D03*
X018950Y012200D03*
X019450Y012200D03*
X019950Y012200D03*
X019950Y014620D03*
X019450Y014620D03*
X018950Y014620D03*
X018450Y014620D03*
X017950Y014620D03*
X017450Y014620D03*
X016950Y014620D03*
X016450Y014620D03*
D25*
X028115Y014785D03*
X028115Y015285D03*
X028115Y014285D03*
X028115Y013785D03*
X028115Y013285D03*
X028115Y012785D03*
X028115Y012285D03*
X028115Y011785D03*
X030535Y011785D03*
X030535Y012285D03*
X030535Y012785D03*
X030535Y013285D03*
X030535Y013785D03*
X030535Y014285D03*
X030535Y014785D03*
X030535Y015285D03*
D26*
X015700Y012870D03*
X015700Y012200D03*
X007910Y014285D03*
X007240Y014285D03*
X006597Y014160D03*
X005928Y014160D03*
X005388Y014370D03*
X005388Y013700D03*
X005825Y008245D03*
X005825Y007575D03*
X005825Y006745D03*
X005825Y006075D03*
D27*
X008990Y011410D03*
X009660Y011410D03*
X005347Y015098D03*
X004678Y015098D03*
X027990Y015910D03*
X028660Y015910D03*
D28*
X006325Y015135D03*
D29*
X005825Y017997D03*
X005825Y018823D03*
X031162Y008410D03*
X031988Y008410D03*
X031988Y007410D03*
X031162Y007410D03*
X031162Y006410D03*
X031988Y006410D03*
X031988Y005410D03*
X031162Y005410D03*
X031162Y004410D03*
X031988Y004410D03*
D30*
X024086Y004083D02*
X024086Y004796D01*
X022314Y004796D02*
X022314Y004083D01*
X021336Y004083D02*
X021336Y004796D01*
X019564Y004796D02*
X019564Y004083D01*
X018586Y004083D02*
X018586Y004796D01*
X016814Y004796D02*
X016814Y004083D01*
X015836Y004083D02*
X015836Y004796D01*
X014064Y004796D02*
X014064Y004083D01*
X014064Y002237D02*
X014064Y001524D01*
X015836Y001524D02*
X015836Y002237D01*
X016814Y002237D02*
X016814Y001524D01*
X018586Y001524D02*
X018586Y002237D01*
X019564Y002237D02*
X019564Y001524D01*
X021336Y001524D02*
X021336Y002237D01*
X022314Y002237D02*
X022314Y001524D01*
X024086Y001524D02*
X024086Y002237D01*
D31*
X026075Y003785D03*
X027825Y002535D03*
X029325Y002035D03*
X031950Y001910D03*
D32*
X007895Y012069D03*
X007895Y012266D03*
X007895Y012463D03*
X007895Y012660D03*
X007895Y012857D03*
X007895Y013054D03*
X007895Y013251D03*
X006005Y013251D03*
X006005Y013054D03*
X006005Y012857D03*
X006005Y012660D03*
X006005Y012463D03*
X006005Y012266D03*
X006005Y012069D03*
D33*
X006359Y011715D03*
X006556Y011715D03*
X006753Y011715D03*
X006950Y011715D03*
X007147Y011715D03*
X007344Y011715D03*
X007541Y011715D03*
X007541Y013605D03*
X007344Y013605D03*
X007147Y013605D03*
X006950Y013605D03*
X006753Y013605D03*
X006556Y013605D03*
X006359Y013605D03*
D34*
X006950Y012660D03*
D35*
X001269Y011408D03*
X001269Y014912D03*
D36*
X003592Y014912D03*
X003592Y011408D03*
D37*
X003631Y012530D03*
X003631Y012845D03*
X003631Y013160D03*
X003631Y013475D03*
X003631Y013790D03*
D38*
X002273Y014026D02*
X002275Y014052D01*
X002281Y014078D01*
X002291Y014103D01*
X002304Y014126D01*
X002320Y014146D01*
X002340Y014164D01*
X002362Y014179D01*
X002385Y014191D01*
X002411Y014199D01*
X002437Y014203D01*
X002463Y014203D01*
X002489Y014199D01*
X002515Y014191D01*
X002539Y014179D01*
X002560Y014164D01*
X002580Y014146D01*
X002596Y014126D01*
X002609Y014103D01*
X002619Y014078D01*
X002625Y014052D01*
X002627Y014026D01*
X002625Y014000D01*
X002619Y013974D01*
X002609Y013949D01*
X002596Y013926D01*
X002580Y013906D01*
X002560Y013888D01*
X002538Y013873D01*
X002515Y013861D01*
X002489Y013853D01*
X002463Y013849D01*
X002437Y013849D01*
X002411Y013853D01*
X002385Y013861D01*
X002361Y013873D01*
X002340Y013888D01*
X002320Y013906D01*
X002304Y013926D01*
X002291Y013949D01*
X002281Y013974D01*
X002275Y014000D01*
X002273Y014026D01*
X002273Y012294D02*
X002275Y012320D01*
X002281Y012346D01*
X002291Y012371D01*
X002304Y012394D01*
X002320Y012414D01*
X002340Y012432D01*
X002362Y012447D01*
X002385Y012459D01*
X002411Y012467D01*
X002437Y012471D01*
X002463Y012471D01*
X002489Y012467D01*
X002515Y012459D01*
X002539Y012447D01*
X002560Y012432D01*
X002580Y012414D01*
X002596Y012394D01*
X002609Y012371D01*
X002619Y012346D01*
X002625Y012320D01*
X002627Y012294D01*
X002625Y012268D01*
X002619Y012242D01*
X002609Y012217D01*
X002596Y012194D01*
X002580Y012174D01*
X002560Y012156D01*
X002538Y012141D01*
X002515Y012129D01*
X002489Y012121D01*
X002463Y012117D01*
X002437Y012117D01*
X002411Y012121D01*
X002385Y012129D01*
X002361Y012141D01*
X002340Y012156D01*
X002320Y012174D01*
X002304Y012194D01*
X002291Y012217D01*
X002281Y012242D01*
X002275Y012268D01*
X002273Y012294D01*
D39*
X002450Y008535D02*
X003085Y008535D01*
X003085Y007535D02*
X002450Y007535D01*
X001450Y007535D02*
X000815Y007535D01*
X000815Y008535D02*
X001450Y008535D01*
D40*
X028335Y017520D03*
X028335Y018420D03*
X028335Y019320D03*
D41*
X030815Y018410D03*
D42*
X032075Y017285D02*
X028200Y017285D01*
X028200Y017385D01*
X028335Y017520D01*
X028200Y017285D02*
X026950Y017285D01*
X026960Y017295D01*
X026950Y017285D02*
X027075Y017160D01*
X027075Y016325D01*
X027658Y015743D01*
X027865Y015950D01*
X027990Y015910D01*
X027658Y015743D02*
X028115Y015285D01*
X029575Y014160D02*
X029950Y013785D01*
X030535Y013785D01*
X030535Y014285D02*
X031200Y014285D01*
X031575Y013910D01*
X031575Y013660D01*
X032325Y013410D02*
X032325Y015535D01*
X031575Y016285D01*
X031075Y016285D01*
X031325Y015410D02*
X031200Y015285D01*
X030535Y015285D01*
X032075Y017285D02*
X032825Y016535D01*
X032825Y009910D01*
X032825Y009160D01*
X032075Y008410D01*
X031988Y008410D01*
X031988Y007410D01*
X031988Y006410D01*
X031988Y005410D01*
X031988Y004410D01*
X031988Y003823D01*
X031825Y003660D01*
X029575Y003660D01*
X029450Y003535D01*
X028575Y002785D01*
X028575Y001160D01*
X025950Y001160D01*
X025825Y001285D01*
X025825Y001535D01*
X026450Y002160D01*
X026450Y002284D01*
X026824Y001910D02*
X026450Y001536D01*
X026824Y001910D02*
X026824Y002910D01*
X026076Y002910D02*
X026075Y002911D01*
X026075Y003785D01*
X025325Y004535D02*
X024181Y004535D01*
X024086Y004440D01*
X024086Y001880D01*
X024086Y001046D01*
X023825Y000785D01*
X019700Y000785D01*
X019564Y000921D01*
X019564Y001880D01*
X020700Y003035D02*
X018075Y003035D01*
X017700Y003410D01*
X017700Y005285D01*
X018075Y005660D01*
X018075Y005911D01*
X018575Y005535D02*
X018586Y005524D01*
X018586Y004440D01*
X020200Y004785D02*
X020200Y005911D01*
X020075Y005911D01*
X020074Y006035D01*
X019075Y006035D01*
X019075Y005911D01*
X019075Y006659D02*
X019075Y007785D01*
X018075Y007785D02*
X018075Y006659D01*
X018074Y006785D01*
X017575Y006785D01*
X015836Y005046D01*
X015836Y004440D01*
X015836Y001880D01*
X016814Y001880D02*
X017910Y000785D01*
X015075Y000785D01*
X014064Y001796D01*
X014064Y001880D01*
X014064Y004440D01*
X012575Y004660D02*
X009825Y004660D01*
X009825Y003660D02*
X012575Y003660D01*
X012575Y002660D02*
X009825Y002660D01*
X008200Y002035D02*
X007825Y001660D01*
X006825Y001660D01*
X008200Y002035D02*
X008200Y007160D01*
X007575Y007160D01*
X008200Y007160D02*
X008200Y010160D01*
X008990Y010950D01*
X008990Y011410D01*
X008990Y011745D01*
X008700Y012035D01*
X008700Y015660D01*
X009325Y016410D02*
X009325Y012035D01*
X009575Y011785D01*
X009825Y012036D01*
X010075Y012036D01*
X009575Y011785D02*
X009575Y011450D01*
X009660Y011410D01*
X009660Y010825D01*
X009825Y010660D01*
X009825Y009660D02*
X012575Y009660D01*
X012575Y012910D01*
X011825Y013660D01*
X011825Y014160D01*
X011325Y014410D02*
X011325Y010535D01*
X013325Y008660D02*
X013700Y009035D01*
X013700Y013660D01*
X013450Y013910D01*
X012950Y014410D02*
X013450Y014910D01*
X012450Y014910D02*
X011825Y014910D01*
X011325Y014410D01*
X010075Y015035D02*
X010075Y012784D01*
X010075Y015035D02*
X010075Y015410D01*
X011200Y016535D01*
X012825Y016535D01*
X013450Y015910D01*
X014200Y017660D02*
X014325Y017660D01*
X014575Y017910D01*
X015575Y017910D02*
X016450Y018785D01*
X021575Y018785D01*
X024200Y018785D01*
X024200Y018286D01*
X024199Y018285D01*
X024200Y018785D02*
X025199Y018785D01*
X025699Y018285D01*
X025950Y018285D01*
X026638Y017598D01*
X026950Y017910D01*
X026638Y017598D02*
X026950Y017285D01*
X025325Y017498D02*
X025200Y017373D01*
X025200Y016410D01*
X024200Y016410D02*
X024200Y017123D01*
X023825Y017498D01*
X021575Y018286D02*
X021575Y018785D01*
X021575Y018286D02*
X021574Y018285D01*
X020826Y018285D02*
X017951Y018285D01*
X016325Y016659D01*
X017325Y016659D02*
X017325Y016785D01*
X018325Y017785D01*
X020325Y017785D01*
X021200Y017498D02*
X021200Y016410D01*
X025700Y019285D02*
X015825Y019285D01*
X015575Y019035D01*
X015575Y018910D01*
X015575Y017910D02*
X015575Y014159D01*
X015075Y013659D01*
X015700Y012200D02*
X015700Y009410D01*
X016325Y008785D01*
X020825Y008785D01*
X020699Y008911D01*
X020699Y009535D01*
X020825Y008785D02*
X022450Y008785D01*
X022825Y008785D01*
X023825Y009785D01*
X026450Y009785D01*
X028450Y009785D02*
X029575Y010910D01*
X029575Y011660D01*
X029700Y011785D01*
X030535Y011785D01*
X029700Y011785D02*
X029575Y011785D01*
X030535Y012785D02*
X031700Y012785D01*
X032325Y013410D01*
X032825Y009910D02*
X032700Y009785D01*
X031950Y009785D01*
X031162Y008410D02*
X030199Y008410D01*
X029451Y008410D02*
X027950Y008410D01*
X027950Y007410D02*
X029451Y007410D01*
X030199Y007410D02*
X031162Y007410D01*
X031162Y006410D02*
X030199Y006410D01*
X029451Y006410D02*
X027950Y006410D01*
X027950Y005410D02*
X029451Y005410D01*
X030199Y005410D02*
X031162Y005410D01*
X031162Y004410D02*
X030199Y004410D01*
X029451Y004410D02*
X027950Y004410D01*
X026575Y005785D02*
X025325Y004535D01*
X026575Y005785D02*
X026575Y007160D01*
X025575Y007160D01*
X024700Y007660D02*
X024575Y007535D01*
X024575Y006410D01*
X024825Y006160D01*
X025575Y006160D01*
X023575Y006160D01*
X023075Y005410D02*
X022575Y005910D01*
X022575Y006660D01*
X023075Y007160D01*
X023575Y007160D01*
X023575Y008160D02*
X023075Y008160D01*
X022450Y008785D01*
X023450Y008160D02*
X023575Y008160D01*
X025575Y008160D01*
X021700Y006410D02*
X021700Y006035D01*
X022314Y005421D01*
X022314Y004440D01*
X021336Y004440D02*
X021336Y004524D01*
X020575Y005285D01*
X020200Y004785D02*
X020450Y004535D01*
X020450Y003285D01*
X020700Y003035D01*
X021950Y003035D01*
X022575Y003035D01*
X023075Y003535D01*
X023075Y005410D01*
X021825Y005285D02*
X021075Y006035D01*
X021075Y005911D01*
X021201Y005910D01*
X021700Y006410D02*
X021325Y006785D01*
X021076Y006785D01*
X021075Y006659D01*
X021075Y007785D01*
X020075Y007785D02*
X020075Y006659D01*
X016814Y004440D02*
X016814Y001880D01*
X017910Y000785D02*
X019700Y000785D01*
X027237Y001910D02*
X027237Y001947D01*
X027825Y002535D01*
X029325Y002159D02*
X029325Y002035D01*
X029325Y002159D02*
X030076Y002910D01*
X030824Y002910D02*
X030824Y001910D01*
X030450Y001536D01*
X031237Y001910D02*
X031950Y001910D01*
X030450Y002160D02*
X029450Y001160D01*
X028575Y001160D01*
X030450Y002160D02*
X030450Y002284D01*
X018700Y009910D02*
X018700Y010910D01*
X018950Y011160D01*
X018950Y012200D01*
X018450Y012200D02*
X018450Y011410D01*
X018200Y011160D01*
X017700Y010660D01*
X017700Y009910D01*
X016700Y009910D02*
X016700Y011035D01*
X017450Y011285D02*
X017450Y012200D01*
X016450Y012200D02*
X015740Y012200D01*
X015700Y012160D01*
X013325Y008660D02*
X012575Y008660D01*
X009825Y008660D01*
X009825Y007660D02*
X011325Y007660D01*
X012575Y007660D01*
X012950Y007660D01*
X012575Y006660D02*
X009825Y006660D01*
X009825Y005660D02*
X012575Y005660D01*
X006825Y005660D02*
X006450Y005660D01*
X006200Y005410D01*
X004325Y005410D01*
X003200Y006535D01*
X002450Y006535D01*
X002450Y005535D02*
X003200Y005535D01*
X004075Y004660D01*
X006825Y004660D01*
X006825Y003660D02*
X004075Y003660D01*
X003200Y004535D01*
X002450Y004535D01*
X002450Y003535D02*
X003200Y003535D01*
X004075Y002660D01*
X006825Y002660D01*
X008325Y000910D02*
X009075Y001660D01*
X009825Y001660D01*
X008325Y000910D02*
X004825Y000910D01*
X003200Y002535D01*
X002450Y002535D01*
X005210Y006075D02*
X005075Y006210D01*
X005210Y006075D02*
X005825Y006075D01*
X005910Y006160D01*
X006200Y006160D01*
X006700Y006660D01*
X006825Y006660D01*
X006075Y007160D02*
X005825Y007160D01*
X005825Y006745D01*
X005825Y007160D02*
X005825Y007575D01*
X006075Y008160D02*
X006575Y007660D01*
X006825Y007660D01*
X006075Y008160D02*
X005910Y008160D01*
X005825Y008245D01*
X005210Y008245D01*
X005075Y008110D01*
X004325Y008910D02*
X002950Y007535D01*
X002450Y007535D01*
X002450Y008535D02*
X003075Y008535D01*
X004075Y009535D01*
X006325Y009535D01*
X006450Y009660D01*
X006825Y009660D01*
X006200Y008910D02*
X004325Y008910D01*
X006200Y008910D02*
X006450Y008660D01*
X006825Y008660D01*
X003631Y012530D02*
X003080Y012530D01*
X002700Y012535D01*
X002075Y013160D01*
X002075Y014598D01*
X002075Y015910D01*
X001700Y016285D01*
X001700Y017144D01*
X001700Y017160D02*
X001700Y018785D01*
X002075Y019160D01*
X004325Y019160D01*
X004575Y019410D01*
X006700Y019410D01*
X006950Y019160D01*
X006950Y018160D01*
X006950Y017160D01*
X006575Y016785D01*
X006575Y016410D01*
X005075Y018036D02*
X004920Y018036D01*
X005075Y018784D02*
X005786Y018784D01*
X005825Y018823D01*
X004077Y014912D02*
X003888Y014912D01*
X003592Y014912D01*
X025700Y019285D02*
X025950Y019535D01*
X028120Y019535D01*
X028335Y019320D01*
X028095Y018660D02*
X027575Y018660D01*
X027325Y018910D01*
X026950Y018910D01*
X028095Y018660D02*
X028335Y018420D01*
D43*
X028451Y016660D02*
X028200Y016660D01*
X027990Y016450D01*
X027990Y015910D01*
X028660Y015910D02*
X028825Y015785D01*
X028825Y012035D01*
X029075Y011785D01*
X029575Y011785D01*
X030325Y011160D02*
X031075Y011160D01*
X031325Y011410D01*
X031325Y012160D01*
X031200Y012285D01*
X030535Y012285D01*
X030535Y013285D02*
X029700Y013285D01*
X029200Y013785D01*
X029200Y015035D01*
X029575Y015410D01*
X029825Y015285D02*
X029825Y014785D01*
X030535Y014785D01*
X031200Y014660D02*
X031700Y014660D01*
X030075Y015535D02*
X029825Y015285D01*
X030075Y015535D02*
X030075Y015909D01*
X030074Y015910D01*
X029700Y016410D02*
X029450Y016660D01*
X029199Y016660D01*
X029326Y015910D02*
X028660Y015910D01*
X028115Y014785D02*
X027700Y014785D01*
X026200Y016285D01*
X026200Y016410D01*
X026950Y014910D02*
X023575Y014910D01*
X023200Y015285D01*
X023200Y016410D01*
X022200Y016410D02*
X022200Y015035D01*
X022700Y014535D01*
X026825Y014535D01*
X027575Y013785D01*
X028115Y013785D01*
X028115Y014285D02*
X027575Y014285D01*
X026950Y014910D01*
X026950Y014035D02*
X023075Y014035D01*
X021200Y012160D01*
X021200Y011410D01*
X020575Y010785D02*
X020950Y010410D01*
X021700Y010410D01*
X021825Y010285D01*
X021825Y009661D01*
X021450Y009286D01*
X022237Y009660D02*
X022237Y009947D01*
X022575Y010285D01*
X025700Y010285D01*
X026200Y010785D01*
X026200Y011410D01*
X026950Y011785D02*
X027575Y011160D01*
X028700Y011160D01*
X028115Y011785D02*
X027450Y011785D01*
X027325Y011910D01*
X027325Y012285D01*
X026700Y012910D01*
X024700Y012910D01*
X024325Y012535D01*
X024325Y011535D01*
X024200Y011410D01*
X023200Y011410D02*
X023200Y012535D01*
X023950Y013285D01*
X026825Y013285D01*
X027825Y012285D01*
X028115Y012285D01*
X028115Y012785D02*
X027825Y012785D01*
X026950Y013660D01*
X023325Y013660D01*
X022200Y012410D01*
X022200Y011410D01*
X020575Y010785D02*
X020575Y012535D01*
X020950Y012910D01*
X020950Y013411D01*
X020325Y013160D02*
X020325Y011660D01*
X020200Y011535D01*
X020200Y010660D01*
X020825Y010035D01*
X021449Y010035D01*
X021450Y010034D01*
X019951Y010284D02*
X019951Y009535D01*
X019951Y010284D02*
X019700Y010535D01*
X019700Y011535D01*
X019450Y011785D01*
X019450Y012200D01*
X020325Y013160D02*
X019950Y013535D01*
X016200Y013535D01*
X014949Y013535D01*
X015075Y013659D01*
X015075Y012911D02*
X015075Y012535D01*
X015325Y012535D01*
X015700Y012870D02*
X015700Y013035D01*
X016200Y013535D01*
X016325Y012910D02*
X017950Y012910D01*
X017950Y012200D01*
X016450Y012200D02*
X016450Y012200D01*
X015700Y012200D01*
X015701Y012199D01*
X016200Y012785D02*
X016325Y012910D01*
X016450Y014620D02*
X016450Y015786D01*
X016325Y015911D01*
X016950Y015536D02*
X017325Y015911D01*
X016950Y015536D02*
X016950Y014620D01*
X017450Y014620D02*
X017450Y015160D01*
X017950Y015660D01*
X018074Y015660D01*
X018325Y015911D01*
X018075Y015285D02*
X020075Y015285D01*
X020325Y015035D01*
X020325Y014659D01*
X020950Y014159D01*
X019950Y014620D02*
X019950Y013535D01*
X017950Y014620D02*
X017950Y015160D01*
X018075Y015285D01*
X018325Y016659D02*
X019201Y016659D01*
X020575Y015285D01*
X021450Y015285D01*
X021700Y015535D01*
X021700Y017285D02*
X022325Y017910D01*
X024575Y017910D01*
X024950Y018285D01*
X024951Y018285D01*
X023451Y018285D02*
X022200Y018285D01*
X021825Y017910D01*
X020700Y017910D01*
X020575Y017785D01*
X020325Y017785D01*
X026950Y014035D02*
X027700Y013285D01*
X028115Y013285D01*
X026950Y012160D02*
X026575Y012535D01*
X025575Y012535D01*
X025325Y012285D01*
X025325Y011535D01*
X025200Y011410D01*
X026950Y011785D02*
X026950Y012160D01*
X029575Y014160D02*
X029575Y014410D01*
X029700Y014535D01*
X026575Y007660D02*
X024700Y007660D01*
X026575Y007660D02*
X026950Y007285D01*
X026950Y003910D01*
X027325Y003535D01*
X029450Y003535D01*
X021950Y003035D02*
X021825Y003160D01*
X021825Y005285D01*
X020575Y005285D02*
X020575Y006535D01*
X020325Y006785D01*
X020076Y006785D01*
X020075Y006659D01*
X019075Y006659D02*
X018951Y006660D01*
X018825Y006660D01*
X018575Y006410D01*
X018575Y005535D01*
X010700Y010410D02*
X010700Y014910D01*
X011700Y015910D01*
X012450Y015910D01*
X012075Y014410D02*
X011825Y014160D01*
X012075Y014410D02*
X012950Y014410D01*
X008199Y014910D02*
X008199Y015598D01*
X008138Y015660D01*
X008199Y014910D02*
X007910Y014621D01*
X007910Y014285D01*
X007451Y014910D02*
X007075Y014910D01*
X006825Y014660D01*
X005825Y014660D01*
X005825Y014325D01*
X005928Y014160D01*
X005825Y014660D02*
X005388Y015098D01*
X005347Y015098D01*
X004678Y015098D02*
X004575Y015098D01*
X004294Y015379D01*
X004825Y015535D02*
X004950Y015660D01*
X004950Y016409D01*
X005325Y016784D01*
X005325Y017285D01*
X004920Y017690D01*
X004920Y018036D01*
X005825Y017997D02*
X006787Y017997D01*
X006950Y018160D01*
X008325Y011535D02*
X008325Y011160D01*
X007825Y010660D01*
X006825Y010660D01*
X006075Y011035D02*
X005075Y010035D01*
X003950Y010035D01*
X003075Y009160D01*
X002075Y009160D01*
X001950Y009035D01*
X001450Y009035D02*
X002075Y009660D01*
X002950Y009660D01*
X003825Y010535D01*
X004950Y010535D01*
X005825Y011410D01*
X008200Y010160D02*
X010450Y010160D01*
X010700Y010410D01*
X007575Y007160D02*
X006075Y007160D01*
X001450Y008535D02*
X001450Y009035D01*
D44*
X004077Y014912D02*
X004077Y015162D01*
X004294Y015379D01*
X004450Y015535D01*
X003559Y016426D01*
X002950Y016426D01*
X004325Y016623D02*
X004538Y016410D01*
X004325Y016623D02*
X004325Y017535D01*
X003466Y018394D01*
X002950Y018394D01*
X005075Y018036D02*
X005075Y018035D01*
X006575Y016410D02*
X006325Y016160D01*
X006325Y015935D01*
X006300Y015935D01*
X006200Y016035D01*
X005577Y016035D01*
X005576Y016036D01*
X005325Y016036D01*
X005700Y015535D02*
X004825Y015535D01*
X004450Y015535D01*
X005700Y015535D02*
X006100Y015135D01*
X006325Y015135D01*
X006350Y015160D01*
X006700Y015160D01*
X007200Y015660D01*
X008138Y015660D01*
X008700Y015660D01*
X009325Y016410D02*
X006575Y016410D01*
X008700Y017160D02*
X009825Y017160D01*
X011450Y018785D01*
X014700Y018785D01*
X015575Y017910D01*
X014325Y017535D02*
X014325Y010285D01*
X015325Y009285D01*
X015575Y009285D01*
X015700Y009410D01*
X026450Y009785D02*
X027450Y009785D01*
X028450Y009785D01*
X029950Y009785D02*
X030950Y009785D01*
X031950Y009785D01*
X014325Y017535D02*
X014200Y017660D01*
X013950Y017910D01*
X011575Y017910D01*
X010075Y016410D01*
X009325Y016410D01*
X008700Y017160D02*
X008700Y018160D01*
X008700Y019160D01*
D45*
X009825Y017160D03*
X008700Y015660D03*
X010075Y015035D03*
X008325Y011535D03*
X011325Y010535D03*
X011325Y007660D03*
X016700Y011035D03*
X017450Y011285D03*
X018200Y011160D03*
X018950Y011160D03*
X028700Y011160D03*
X030325Y011160D03*
X031575Y013660D03*
X031700Y014660D03*
X031325Y015410D03*
X031075Y016285D03*
X015575Y018910D03*
D46*
X007910Y014285D02*
X007910Y013950D01*
X007950Y013910D01*
X007950Y013660D01*
X006950Y012660D01*
X006753Y012463D01*
X006005Y012463D01*
X006005Y012660D02*
X004825Y012660D01*
X004763Y012723D01*
X004763Y012848D01*
X004450Y013160D01*
X005200Y013034D02*
X005201Y013035D01*
X005513Y013035D01*
X005691Y012857D01*
X006005Y012857D01*
X006005Y013054D02*
X005806Y013054D01*
X005700Y013160D01*
X005700Y013388D01*
X005388Y013700D01*
X005138Y014035D02*
X005075Y014098D01*
X005075Y014160D01*
X005013Y014223D01*
X002700Y014223D01*
X002388Y014535D01*
X002138Y014535D01*
X002075Y014598D01*
X005138Y014035D02*
X005825Y014035D01*
X005888Y013973D01*
X005888Y013848D01*
X006075Y013660D01*
X006005Y013590D01*
X006005Y013251D01*
X006075Y013660D02*
X006304Y013660D01*
X006359Y013605D01*
X006556Y013605D02*
X006556Y014263D01*
X006597Y014160D01*
X006950Y014160D02*
X007115Y014160D01*
X007240Y014285D01*
X006950Y014160D02*
X006950Y013605D01*
X005888Y013848D02*
X005865Y013870D01*
X005928Y014160D01*
X006753Y011715D02*
X006753Y011463D01*
X006700Y011410D01*
X005825Y011410D01*
X006075Y011035D02*
X006200Y011160D01*
X006825Y011160D01*
X006950Y011285D01*
X006950Y011715D01*
D47*
X014575Y017910D03*
M02*
