%
M48
M72
T01C0.0200
%
T01
X1450Y7535
X2450Y7535
X2450Y8535
X1450Y8535
X12450Y13910
X13450Y13910
X13450Y14910
X12450Y14910
X12450Y15910
X13450Y15910
X13450Y16910
X6325Y15935
X6325Y15135
X6825Y10660
X6825Y9660
X6825Y8660
X6825Y7660
X6825Y6660
X6825Y5660
X6825Y4660
X6825Y3660
X6825Y2660
X6825Y1660
X9825Y1660
X9825Y2660
X9825Y3660
X9825Y4660
X9825Y5660
X9825Y6660
X9825Y7660
X9825Y8660
X9825Y9660
X9825Y10660
X5075Y8110
X5075Y6210
X2450Y12294
X2450Y14026
X14575Y17910
X21200Y16410
X22200Y16410
X23200Y16410
X24200Y16410
X25200Y16410
X26200Y16410
X26200Y11410
X25200Y11410
X24200Y11410
X23200Y11410
X22200Y11410
X21200Y11410
X18950Y11160
X18200Y11160
X17450Y11285
X16700Y11035
X11325Y10535
X8325Y11535
X10075Y15035
X8700Y15660
X9825Y17160
X15575Y18910
X28700Y11160
X30325Y11160
X31575Y13660
X31700Y14660
X31325Y15410
X31075Y16285
X24086Y4440
X22314Y4440
X21336Y4440
X19564Y4440
X18586Y4440
X16814Y4440
X15836Y4440
X14064Y4440
X14064Y1880
X15836Y1880
X16814Y1880
X18586Y1880
X19564Y1880
X21336Y1880
X22314Y1880
X24086Y1880
X11325Y7660
X2450Y2535
X2450Y3535
X2450Y4535
X2450Y5535
X2450Y6535
X12575Y6660
X12575Y7660
X12575Y8660
X12575Y9660
X16700Y9910
X17700Y9910
X18700Y9910
X19075Y7785
X18075Y7785
X20075Y7785
X21075Y7785
X23575Y8160
X23575Y7160
X23575Y6160
X25575Y6160
X25575Y7160
X25575Y8160
X27950Y8410
X27950Y7410
X27950Y6410
X27950Y5410
X27950Y4410
X26075Y3785
X27825Y2535
X29325Y2035
X31950Y1910
X31950Y9785
X30950Y9785
X29950Y9785
X28450Y9785
X27450Y9785
X26450Y9785
X26950Y17910
X26950Y18910
X8700Y19160
X8700Y18160
X8700Y17160
X6950Y17160
X6950Y18160
X6950Y19160
X12575Y5660
X12575Y4660
X12575Y3660
X12575Y2660
X2950Y16426
X2950Y18394
M30
