<?xml version="1.0" encoding="UTF-8"?>
<svg xmlns="http://www.w3.org/2000/svg" xmlns:xlink="http://www.w3.org/1999/xlink" width="265pt" height="156pt" viewBox="0 0 265 156" version="1.1">
<g id="surface55788">
<path style="fill:none;stroke-width:0.012;stroke-linecap:round;stroke-linejoin:miter;stroke:rgb(0%,0%,0%);stroke-opacity:1;stroke-miterlimit:10;" d="M 0.0449984 0.0160042 L 0.0449984 1.978081 " transform="matrix(72,0,0,-72,9.2484,149.61324)"/>
<path style="fill:none;stroke-width:0.012;stroke-linecap:round;stroke-linejoin:miter;stroke:rgb(0%,0%,0%);stroke-opacity:1;stroke-miterlimit:10;" d="M 0.0449984 1.978081 L 3.382021 1.978081 " transform="matrix(72,0,0,-72,9.2484,149.61324)"/>
<path style="fill:none;stroke-width:0.012;stroke-linecap:round;stroke-linejoin:miter;stroke:rgb(0%,0%,0%);stroke-opacity:1;stroke-miterlimit:10;" d="M 3.382021 1.978081 L 3.382021 0.0160042 " transform="matrix(72,0,0,-72,9.2484,149.61324)"/>
<path style="fill:none;stroke-width:0.012;stroke-linecap:round;stroke-linejoin:miter;stroke:rgb(0%,0%,0%);stroke-opacity:1;stroke-miterlimit:10;" d="M 3.382021 0.0160042 L 0.0449984 0.0160042 " transform="matrix(72,0,0,-72,9.2484,149.61324)"/>
<path style=" stroke:none;fill-rule:evenodd;fill:rgb(0%,0%,0%);fill-opacity:1;" d="M 229.386719 23.359375 L 250.988281 23.359375 L 250.988281 8.960938 L 229.386719 8.960938 Z M 229.386719 23.359375 "/>
<path style="fill:none;stroke-width:0.072;stroke-linecap:round;stroke-linejoin:miter;stroke:rgb(0%,0%,0%);stroke-opacity:1;stroke-miterlimit:10;" d="M 1.014508 1.066026 L 0.950489 1.066026 " transform="matrix(72,0,0,-72,9.2484,149.61324)"/>
<path style="fill:none;stroke-width:0.072;stroke-linecap:round;stroke-linejoin:miter;stroke:rgb(0%,0%,0%);stroke-opacity:1;stroke-miterlimit:10;" d="M 0.950489 0.965983 L 1.014508 0.965983 " transform="matrix(72,0,0,-72,9.2484,149.61324)"/>
<path style="fill:none;stroke-width:0.072;stroke-linecap:round;stroke-linejoin:miter;stroke:rgb(0%,0%,0%);stroke-opacity:1;stroke-miterlimit:10;" d="M 1.014508 0.865993 L 0.950489 0.865993 " transform="matrix(72,0,0,-72,9.2484,149.61324)"/>
<path style="fill:none;stroke-width:0.072;stroke-linecap:round;stroke-linejoin:miter;stroke:rgb(0%,0%,0%);stroke-opacity:1;stroke-miterlimit:10;" d="M 0.950489 0.766004 L 1.014508 0.766004 " transform="matrix(72,0,0,-72,9.2484,149.61324)"/>
<path style="fill:none;stroke-width:0.072;stroke-linecap:round;stroke-linejoin:miter;stroke:rgb(0%,0%,0%);stroke-opacity:1;stroke-miterlimit:10;" d="M 1.014508 0.666015 L 0.950489 0.666015 " transform="matrix(72,0,0,-72,9.2484,149.61324)"/>
<path style="fill:none;stroke-width:0.072;stroke-linecap:round;stroke-linejoin:miter;stroke:rgb(0%,0%,0%);stroke-opacity:1;stroke-miterlimit:10;" d="M 0.950489 0.566026 L 1.014508 0.566026 " transform="matrix(72,0,0,-72,9.2484,149.61324)"/>
<path style="fill:none;stroke-width:0.072;stroke-linecap:round;stroke-linejoin:miter;stroke:rgb(0%,0%,0%);stroke-opacity:1;stroke-miterlimit:10;" d="M 1.014508 0.465983 L 0.950489 0.465983 " transform="matrix(72,0,0,-72,9.2484,149.61324)"/>
<path style="fill:none;stroke-width:0.072;stroke-linecap:round;stroke-linejoin:miter;stroke:rgb(0%,0%,0%);stroke-opacity:1;stroke-miterlimit:10;" d="M 0.950489 0.365993 L 1.014508 0.365993 " transform="matrix(72,0,0,-72,9.2484,149.61324)"/>
<path style="fill:none;stroke-width:0.072;stroke-linecap:round;stroke-linejoin:miter;stroke:rgb(0%,0%,0%);stroke-opacity:1;stroke-miterlimit:10;" d="M 1.014508 0.266004 L 0.950489 0.266004 " transform="matrix(72,0,0,-72,9.2484,149.61324)"/>
<path style="fill:none;stroke-width:0.072;stroke-linecap:round;stroke-linejoin:miter;stroke:rgb(0%,0%,0%);stroke-opacity:1;stroke-miterlimit:10;" d="M 0.950489 0.166015 L 1.014508 0.166015 " transform="matrix(72,0,0,-72,9.2484,149.61324)"/>
<path style="fill:none;stroke-width:0.072;stroke-linecap:round;stroke-linejoin:miter;stroke:rgb(0%,0%,0%);stroke-opacity:1;stroke-miterlimit:10;" d="M 0.714486 0.166015 L 0.650521 0.166015 " transform="matrix(72,0,0,-72,9.2484,149.61324)"/>
<path style="fill:none;stroke-width:0.072;stroke-linecap:round;stroke-linejoin:miter;stroke:rgb(0%,0%,0%);stroke-opacity:1;stroke-miterlimit:10;" d="M 0.650521 0.266004 L 0.714486 0.266004 " transform="matrix(72,0,0,-72,9.2484,149.61324)"/>
<path style="fill:none;stroke-width:0.072;stroke-linecap:round;stroke-linejoin:miter;stroke:rgb(0%,0%,0%);stroke-opacity:1;stroke-miterlimit:10;" d="M 0.714486 0.365993 L 0.650521 0.365993 " transform="matrix(72,0,0,-72,9.2484,149.61324)"/>
<path style="fill:none;stroke-width:0.072;stroke-linecap:round;stroke-linejoin:miter;stroke:rgb(0%,0%,0%);stroke-opacity:1;stroke-miterlimit:10;" d="M 0.650521 0.465983 L 0.714486 0.465983 " transform="matrix(72,0,0,-72,9.2484,149.61324)"/>
<path style="fill:none;stroke-width:0.072;stroke-linecap:round;stroke-linejoin:miter;stroke:rgb(0%,0%,0%);stroke-opacity:1;stroke-miterlimit:10;" d="M 0.714486 0.566026 L 0.650521 0.566026 " transform="matrix(72,0,0,-72,9.2484,149.61324)"/>
<path style="fill:none;stroke-width:0.072;stroke-linecap:round;stroke-linejoin:miter;stroke:rgb(0%,0%,0%);stroke-opacity:1;stroke-miterlimit:10;" d="M 0.650521 0.666015 L 0.714486 0.666015 " transform="matrix(72,0,0,-72,9.2484,149.61324)"/>
<path style="fill:none;stroke-width:0.072;stroke-linecap:round;stroke-linejoin:miter;stroke:rgb(0%,0%,0%);stroke-opacity:1;stroke-miterlimit:10;" d="M 0.714486 0.766004 L 0.650521 0.766004 " transform="matrix(72,0,0,-72,9.2484,149.61324)"/>
<path style="fill:none;stroke-width:0.072;stroke-linecap:round;stroke-linejoin:miter;stroke:rgb(0%,0%,0%);stroke-opacity:1;stroke-miterlimit:10;" d="M 0.650521 0.865993 L 0.714486 0.865993 " transform="matrix(72,0,0,-72,9.2484,149.61324)"/>
<path style="fill:none;stroke-width:0.072;stroke-linecap:round;stroke-linejoin:miter;stroke:rgb(0%,0%,0%);stroke-opacity:1;stroke-miterlimit:10;" d="M 0.714486 0.965983 L 0.650521 0.965983 " transform="matrix(72,0,0,-72,9.2484,149.61324)"/>
<path style="fill:none;stroke-width:0.072;stroke-linecap:round;stroke-linejoin:miter;stroke:rgb(0%,0%,0%);stroke-opacity:1;stroke-miterlimit:10;" d="M 0.650521 1.066026 L 0.714486 1.066026 " transform="matrix(72,0,0,-72,9.2484,149.61324)"/>
<path style=" stroke:none;fill-rule:evenodd;fill:rgb(0%,0%,0%);fill-opacity:1;" d="M 103.515625 52.035156 L 108.664062 52.035156 L 108.664062 46.886719 L 103.515625 46.886719 Z M 103.515625 52.035156 "/>
<path style=" stroke:none;fill-rule:evenodd;fill:rgb(0%,0%,0%);fill-opacity:1;" d="M 101.460938 48.394531 L 99.953125 46.886719 L 97.820312 46.886719 L 96.3125 48.394531 L 96.3125 50.527344 L 97.820312 52.035156 L 99.953125 52.035156 L 101.460938 50.527344 L 101.460938 48.394531 "/>
<path style=" stroke:none;fill-rule:evenodd;fill:rgb(0%,0%,0%);fill-opacity:1;" d="M 101.460938 41.195312 L 99.953125 39.6875 L 97.820312 39.6875 L 96.3125 41.195312 L 96.3125 43.328125 L 97.820312 44.835938 L 99.953125 44.835938 L 101.460938 43.328125 L 101.460938 41.195312 "/>
<path style=" stroke:none;fill-rule:evenodd;fill:rgb(0%,0%,0%);fill-opacity:1;" d="M 108.664062 41.195312 L 107.15625 39.6875 L 105.023438 39.6875 L 103.515625 41.195312 L 103.515625 43.328125 L 105.023438 44.835938 L 107.15625 44.835938 L 108.664062 43.328125 L 108.664062 41.195312 "/>
<path style=" stroke:none;fill-rule:evenodd;fill:rgb(0%,0%,0%);fill-opacity:1;" d="M 108.664062 33.996094 L 107.15625 32.488281 L 105.023438 32.488281 L 103.515625 33.996094 L 103.515625 36.128906 L 105.023438 37.636719 L 107.15625 37.636719 L 108.664062 36.128906 L 108.664062 33.996094 "/>
<path style=" stroke:none;fill-rule:evenodd;fill:rgb(0%,0%,0%);fill-opacity:1;" d="M 101.460938 33.996094 L 99.953125 32.488281 L 97.820312 32.488281 L 96.3125 33.996094 L 96.3125 36.128906 L 97.820312 37.636719 L 99.953125 37.636719 L 101.460938 36.128906 L 101.460938 33.996094 "/>
<path style=" stroke:none;fill-rule:evenodd;fill:rgb(0%,0%,0%);fill-opacity:1;" d="M 108.664062 26.796875 L 107.15625 25.289062 L 105.023438 25.289062 L 103.515625 26.796875 L 103.515625 28.925781 L 105.023438 30.433594 L 107.15625 30.433594 L 108.664062 28.925781 L 108.664062 26.796875 "/>
<path style="fill:none;stroke-width:0.08;stroke-linecap:round;stroke-linejoin:miter;stroke:rgb(0%,0%,0%);stroke-opacity:1;stroke-miterlimit:10;" d="M 0.906001 1.715983 L 0.834007 1.715983 " transform="matrix(72,0,0,-72,9.2484,149.61324)"/>
<path style="fill:none;stroke-width:0.08;stroke-linecap:round;stroke-linejoin:miter;stroke:rgb(0%,0%,0%);stroke-opacity:1;stroke-miterlimit:10;" d="M 0.730979 1.715983 L 0.658985 1.715983 " transform="matrix(72,0,0,-72,9.2484,149.61324)"/>
<path style="fill:none;stroke-width:0.08;stroke-linecap:round;stroke-linejoin:miter;stroke:rgb(0%,0%,0%);stroke-opacity:1;stroke-miterlimit:10;" d="M 0.658985 1.816026 L 0.730979 1.816026 " transform="matrix(72,0,0,-72,9.2484,149.61324)"/>
<path style="fill:none;stroke-width:0.08;stroke-linecap:round;stroke-linejoin:miter;stroke:rgb(0%,0%,0%);stroke-opacity:1;stroke-miterlimit:10;" d="M 0.834007 1.816026 L 0.906001 1.816026 " transform="matrix(72,0,0,-72,9.2484,149.61324)"/>
<path style="fill:none;stroke-width:0.08;stroke-linecap:round;stroke-linejoin:miter;stroke:rgb(0%,0%,0%);stroke-opacity:1;stroke-miterlimit:10;" d="M 0.906001 1.916015 L 0.834007 1.916015 " transform="matrix(72,0,0,-72,9.2484,149.61324)"/>
<path style="fill:none;stroke-width:0.08;stroke-linecap:round;stroke-linejoin:miter;stroke:rgb(0%,0%,0%);stroke-opacity:1;stroke-miterlimit:10;" d="M 0.730979 1.916015 L 0.658985 1.916015 " transform="matrix(72,0,0,-72,9.2484,149.61324)"/>
<path style="fill:none;stroke-width:0.08;stroke-linecap:round;stroke-linejoin:miter;stroke:rgb(0%,0%,0%);stroke-opacity:1;stroke-miterlimit:10;" d="M 1.669998 1.027018 L 1.669998 0.955023 " transform="matrix(72,0,0,-72,9.2484,149.61324)"/>
<path style="fill:none;stroke-width:0.08;stroke-linecap:round;stroke-linejoin:miter;stroke:rgb(0%,0%,0%);stroke-opacity:1;stroke-miterlimit:10;" d="M 1.769988 0.955023 L 1.769988 1.027018 " transform="matrix(72,0,0,-72,9.2484,149.61324)"/>
<path style="fill:none;stroke-width:0.08;stroke-linecap:round;stroke-linejoin:miter;stroke:rgb(0%,0%,0%);stroke-opacity:1;stroke-miterlimit:10;" d="M 1.869977 1.027018 L 1.869977 0.955023 " transform="matrix(72,0,0,-72,9.2484,149.61324)"/>
<path style="fill:none;stroke-width:0.08;stroke-linecap:round;stroke-linejoin:miter;stroke:rgb(0%,0%,0%);stroke-opacity:1;stroke-miterlimit:10;" d="M 1.90752 0.814507 L 1.90752 0.742512 " transform="matrix(72,0,0,-72,9.2484,149.61324)"/>
<path style="fill:none;stroke-width:0.08;stroke-linecap:round;stroke-linejoin:miter;stroke:rgb(0%,0%,0%);stroke-opacity:1;stroke-miterlimit:10;" d="M 1.807477 0.742512 L 1.807477 0.814507 " transform="matrix(72,0,0,-72,9.2484,149.61324)"/>
<path style="fill:none;stroke-width:0.08;stroke-linecap:round;stroke-linejoin:miter;stroke:rgb(0%,0%,0%);stroke-opacity:1;stroke-miterlimit:10;" d="M 2.007509 0.814507 L 2.007509 0.742512 " transform="matrix(72,0,0,-72,9.2484,149.61324)"/>
<path style="fill:none;stroke-width:0.08;stroke-linecap:round;stroke-linejoin:miter;stroke:rgb(0%,0%,0%);stroke-opacity:1;stroke-miterlimit:10;" d="M 2.107498 0.742512 L 2.107498 0.814507 " transform="matrix(72,0,0,-72,9.2484,149.61324)"/>
<path style="fill:none;stroke-width:0.08;stroke-linecap:round;stroke-linejoin:miter;stroke:rgb(0%,0%,0%);stroke-opacity:1;stroke-miterlimit:10;" d="M 2.321474 0.816026 L 2.393523 0.816026 " transform="matrix(72,0,0,-72,9.2484,149.61324)"/>
<path style="fill:none;stroke-width:0.08;stroke-linecap:round;stroke-linejoin:miter;stroke:rgb(0%,0%,0%);stroke-opacity:1;stroke-miterlimit:10;" d="M 2.521507 0.816026 L 2.593501 0.816026 " transform="matrix(72,0,0,-72,9.2484,149.61324)"/>
<path style="fill:none;stroke-width:0.08;stroke-linecap:round;stroke-linejoin:miter;stroke:rgb(0%,0%,0%);stroke-opacity:1;stroke-miterlimit:10;" d="M 2.593501 0.715983 L 2.521507 0.715983 " transform="matrix(72,0,0,-72,9.2484,149.61324)"/>
<path style="fill:none;stroke-width:0.08;stroke-linecap:round;stroke-linejoin:miter;stroke:rgb(0%,0%,0%);stroke-opacity:1;stroke-miterlimit:10;" d="M 2.393523 0.715983 L 2.321474 0.715983 " transform="matrix(72,0,0,-72,9.2484,149.61324)"/>
<path style="fill:none;stroke-width:0.08;stroke-linecap:round;stroke-linejoin:miter;stroke:rgb(0%,0%,0%);stroke-opacity:1;stroke-miterlimit:10;" d="M 2.321474 0.615993 L 2.393523 0.615993 " transform="matrix(72,0,0,-72,9.2484,149.61324)"/>
<path style="fill:none;stroke-width:0.08;stroke-linecap:round;stroke-linejoin:miter;stroke:rgb(0%,0%,0%);stroke-opacity:1;stroke-miterlimit:10;" d="M 2.521507 0.615993 L 2.593501 0.615993 " transform="matrix(72,0,0,-72,9.2484,149.61324)"/>
<path style="fill:none;stroke-width:0.08;stroke-linecap:round;stroke-linejoin:miter;stroke:rgb(0%,0%,0%);stroke-opacity:1;stroke-miterlimit:10;" d="M 2.758974 0.641004 L 2.831023 0.641004 " transform="matrix(72,0,0,-72,9.2484,149.61324)"/>
<path style="fill:none;stroke-width:0.08;stroke-linecap:round;stroke-linejoin:miter;stroke:rgb(0%,0%,0%);stroke-opacity:1;stroke-miterlimit:10;" d="M 2.831023 0.541015 L 2.758974 0.541015 " transform="matrix(72,0,0,-72,9.2484,149.61324)"/>
<path style="fill:none;stroke-width:0.08;stroke-linecap:round;stroke-linejoin:miter;stroke:rgb(0%,0%,0%);stroke-opacity:1;stroke-miterlimit:10;" d="M 2.758974 0.441026 L 2.831023 0.441026 " transform="matrix(72,0,0,-72,9.2484,149.61324)"/>
<path style="fill:none;stroke-width:0.08;stroke-linecap:round;stroke-linejoin:miter;stroke:rgb(0%,0%,0%);stroke-opacity:1;stroke-miterlimit:10;" d="M 2.831023 0.740993 L 2.758974 0.740993 " transform="matrix(72,0,0,-72,9.2484,149.61324)"/>
<path style="fill:none;stroke-width:0.08;stroke-linecap:round;stroke-linejoin:miter;stroke:rgb(0%,0%,0%);stroke-opacity:1;stroke-miterlimit:10;" d="M 2.758974 0.840983 L 2.831023 0.840983 " transform="matrix(72,0,0,-72,9.2484,149.61324)"/>
<path style="fill:none;stroke-width:0.08;stroke-linecap:round;stroke-linejoin:miter;stroke:rgb(0%,0%,0%);stroke-opacity:1;stroke-miterlimit:10;" d="M 2.84502 0.942491 L 2.84502 1.014485 " transform="matrix(72,0,0,-72,9.2484,149.61324)"/>
<path style="fill:none;stroke-width:0.08;stroke-linecap:round;stroke-linejoin:miter;stroke:rgb(0%,0%,0%);stroke-opacity:1;stroke-miterlimit:10;" d="M 2.744977 1.014485 L 2.744977 0.942491 " transform="matrix(72,0,0,-72,9.2484,149.61324)"/>
<path style="fill:none;stroke-width:0.08;stroke-linecap:round;stroke-linejoin:miter;stroke:rgb(0%,0%,0%);stroke-opacity:1;stroke-miterlimit:10;" d="M 2.644988 0.942491 L 2.644988 1.014485 " transform="matrix(72,0,0,-72,9.2484,149.61324)"/>
<path style="fill:none;stroke-width:0.08;stroke-linecap:round;stroke-linejoin:miter;stroke:rgb(0%,0%,0%);stroke-opacity:1;stroke-miterlimit:10;" d="M 2.994977 1.014485 L 2.994977 0.942491 " transform="matrix(72,0,0,-72,9.2484,149.61324)"/>
<path style="fill:none;stroke-width:0.08;stroke-linecap:round;stroke-linejoin:miter;stroke:rgb(0%,0%,0%);stroke-opacity:1;stroke-miterlimit:10;" d="M 3.09502 0.942491 L 3.09502 1.014485 " transform="matrix(72,0,0,-72,9.2484,149.61324)"/>
<path style="fill:none;stroke-width:0.08;stroke-linecap:round;stroke-linejoin:miter;stroke:rgb(0%,0%,0%);stroke-opacity:1;stroke-miterlimit:10;" d="M 3.195009 1.014485 L 3.195009 0.942491 " transform="matrix(72,0,0,-72,9.2484,149.61324)"/>
<path style="fill:none;stroke-width:0.08;stroke-linecap:round;stroke-linejoin:miter;stroke:rgb(0%,0%,0%);stroke-opacity:1;stroke-miterlimit:10;" d="M 2.730979 1.791015 L 2.658985 1.791015 " transform="matrix(72,0,0,-72,9.2484,149.61324)"/>
<path style="fill:none;stroke-width:0.08;stroke-linecap:round;stroke-linejoin:miter;stroke:rgb(0%,0%,0%);stroke-opacity:1;stroke-miterlimit:10;" d="M 2.658985 1.891004 L 2.730979 1.891004 " transform="matrix(72,0,0,-72,9.2484,149.61324)"/>
<path style="fill:none;stroke-width:0.08;stroke-linecap:round;stroke-linejoin:miter;stroke:rgb(0%,0%,0%);stroke-opacity:1;stroke-miterlimit:10;" d="M 1.293479 0.965983 L 1.221485 0.965983 " transform="matrix(72,0,0,-72,9.2484,149.61324)"/>
<path style="fill:none;stroke-width:0.08;stroke-linecap:round;stroke-linejoin:miter;stroke:rgb(0%,0%,0%);stroke-opacity:1;stroke-miterlimit:10;" d="M 1.221485 0.865993 L 1.293479 0.865993 " transform="matrix(72,0,0,-72,9.2484,149.61324)"/>
<path style="fill:none;stroke-width:0.08;stroke-linecap:round;stroke-linejoin:miter;stroke:rgb(0%,0%,0%);stroke-opacity:1;stroke-miterlimit:10;" d="M 1.293479 0.766004 L 1.221485 0.766004 " transform="matrix(72,0,0,-72,9.2484,149.61324)"/>
<path style="fill:none;stroke-width:0.08;stroke-linecap:round;stroke-linejoin:miter;stroke:rgb(0%,0%,0%);stroke-opacity:1;stroke-miterlimit:10;" d="M 1.221485 0.666015 L 1.293479 0.666015 " transform="matrix(72,0,0,-72,9.2484,149.61324)"/>
<path style="fill:none;stroke-width:0.08;stroke-linecap:round;stroke-linejoin:miter;stroke:rgb(0%,0%,0%);stroke-opacity:1;stroke-miterlimit:10;" d="M 1.293479 0.566026 L 1.221485 0.566026 " transform="matrix(72,0,0,-72,9.2484,149.61324)"/>
<path style="fill:none;stroke-width:0.08;stroke-linecap:round;stroke-linejoin:miter;stroke:rgb(0%,0%,0%);stroke-opacity:1;stroke-miterlimit:10;" d="M 1.221485 0.465983 L 1.293479 0.465983 " transform="matrix(72,0,0,-72,9.2484,149.61324)"/>
<path style="fill:none;stroke-width:0.08;stroke-linecap:round;stroke-linejoin:miter;stroke:rgb(0%,0%,0%);stroke-opacity:1;stroke-miterlimit:10;" d="M 1.293479 0.365993 L 1.221485 0.365993 " transform="matrix(72,0,0,-72,9.2484,149.61324)"/>
<path style="fill:none;stroke-width:0.08;stroke-linecap:round;stroke-linejoin:miter;stroke:rgb(0%,0%,0%);stroke-opacity:1;stroke-miterlimit:10;" d="M 1.221485 0.266004 L 1.293479 0.266004 " transform="matrix(72,0,0,-72,9.2484,149.61324)"/>
<path style="fill:none;stroke-width:0.08;stroke-linecap:round;stroke-linejoin:miter;stroke:rgb(0%,0%,0%);stroke-opacity:1;stroke-miterlimit:10;" d="M 0.281001 0.253526 L 0.209007 0.253526 " transform="matrix(72,0,0,-72,9.2484,149.61324)"/>
<path style="fill:none;stroke-width:0.08;stroke-linecap:round;stroke-linejoin:miter;stroke:rgb(0%,0%,0%);stroke-opacity:1;stroke-miterlimit:10;" d="M 0.209007 0.353515 L 0.281001 0.353515 " transform="matrix(72,0,0,-72,9.2484,149.61324)"/>
<path style="fill:none;stroke-width:0.08;stroke-linecap:round;stroke-linejoin:miter;stroke:rgb(0%,0%,0%);stroke-opacity:1;stroke-miterlimit:10;" d="M 0.281001 0.453504 L 0.209007 0.453504 " transform="matrix(72,0,0,-72,9.2484,149.61324)"/>
<path style="fill:none;stroke-width:0.08;stroke-linecap:round;stroke-linejoin:miter;stroke:rgb(0%,0%,0%);stroke-opacity:1;stroke-miterlimit:10;" d="M 0.209007 0.553493 L 0.281001 0.553493 " transform="matrix(72,0,0,-72,9.2484,149.61324)"/>
<path style="fill:none;stroke-width:0.08;stroke-linecap:round;stroke-linejoin:miter;stroke:rgb(0%,0%,0%);stroke-opacity:1;stroke-miterlimit:10;" d="M 0.281001 0.653483 L 0.209007 0.653483 " transform="matrix(72,0,0,-72,9.2484,149.61324)"/>
<path style=" stroke:none;fill-rule:evenodd;fill:rgb(0%,0%,0%);fill-opacity:1;" d="M 160.464844 25.191406 L 163.308594 25.191406 L 163.308594 22.066406 L 160.464844 22.066406 Z M 160.464844 25.191406 "/>
<path style=" stroke:none;fill-rule:evenodd;fill:rgb(0%,0%,0%);fill-opacity:1;" d="M 157.773438 19.523438 L 160.617188 19.523438 L 160.617188 16.398438 L 157.773438 16.398438 Z M 157.773438 19.523438 "/>
<path style=" stroke:none;fill-rule:evenodd;fill:rgb(0%,0%,0%);fill-opacity:1;" d="M 163.160156 19.523438 L 166.003906 19.523438 L 166.003906 16.398438 L 163.160156 16.398438 Z M 163.160156 19.523438 "/>
<path style=" stroke:none;fill-rule:evenodd;fill:rgb(0%,0%,0%);fill-opacity:1;" d="M 176.671875 19.523438 L 179.515625 19.523438 L 179.515625 16.398438 L 176.671875 16.398438 Z M 176.671875 19.523438 "/>
<path style=" stroke:none;fill-rule:evenodd;fill:rgb(0%,0%,0%);fill-opacity:1;" d="M 182.058594 19.523438 L 184.902344 19.523438 L 184.902344 16.398438 L 182.058594 16.398438 Z M 182.058594 19.523438 "/>
<path style=" stroke:none;fill-rule:evenodd;fill:rgb(0%,0%,0%);fill-opacity:1;" d="M 187.472656 19.523438 L 190.316406 19.523438 L 190.316406 16.398438 L 187.472656 16.398438 Z M 187.472656 19.523438 "/>
<path style=" stroke:none;fill-rule:evenodd;fill:rgb(0%,0%,0%);fill-opacity:1;" d="M 192.859375 19.523438 L 195.703125 19.523438 L 195.703125 16.398438 L 192.859375 16.398438 Z M 192.859375 19.523438 "/>
<path style=" stroke:none;fill-rule:evenodd;fill:rgb(0%,0%,0%);fill-opacity:1;" d="M 190.167969 25.191406 L 193.011719 25.191406 L 193.011719 22.066406 L 190.167969 22.066406 Z M 190.167969 25.191406 "/>
<path style=" stroke:none;fill-rule:evenodd;fill:rgb(0%,0%,0%);fill-opacity:1;" d="M 179.367188 25.191406 L 182.210938 25.191406 L 182.210938 22.066406 L 179.367188 22.066406 Z M 179.367188 25.191406 "/>
<path style=" stroke:none;fill-rule:evenodd;fill:rgb(0%,0%,0%);fill-opacity:1;" d="M 162.125 78.789062 L 165.25 78.789062 L 165.25 75.945312 L 162.125 75.945312 Z M 162.125 78.789062 "/>
<path style=" stroke:none;fill-rule:evenodd;fill:rgb(0%,0%,0%);fill-opacity:1;" d="M 167.792969 81.484375 L 170.917969 81.484375 L 170.917969 78.640625 L 167.792969 78.640625 Z M 167.792969 81.484375 "/>
<path style=" stroke:none;fill-rule:evenodd;fill:rgb(0%,0%,0%);fill-opacity:1;" d="M 162.125 84.175781 L 165.25 84.175781 L 165.25 81.332031 L 162.125 81.332031 Z M 162.125 84.175781 "/>
<path style=" stroke:none;fill-rule:evenodd;fill:rgb(0%,0%,0%);fill-opacity:1;" d="M 198.125 134.589844 L 201.25 134.589844 L 201.25 131.746094 L 198.125 131.746094 Z M 198.125 134.589844 "/>
<path style=" stroke:none;fill-rule:evenodd;fill:rgb(0%,0%,0%);fill-opacity:1;" d="M 198.125 139.976562 L 201.25 139.976562 L 201.25 137.132812 L 198.125 137.132812 Z M 198.125 139.976562 "/>
<path style=" stroke:none;fill-rule:evenodd;fill:rgb(0%,0%,0%);fill-opacity:1;" d="M 203.792969 137.285156 L 206.917969 137.285156 L 206.917969 134.441406 L 203.792969 134.441406 Z M 203.792969 137.285156 "/>
<path style=" stroke:none;fill-rule:evenodd;fill:rgb(0%,0%,0%);fill-opacity:1;" d="M 226.925781 139.976562 L 230.050781 139.976562 L 230.050781 137.132812 L 226.925781 137.132812 Z M 226.925781 139.976562 "/>
<path style=" stroke:none;fill-rule:evenodd;fill:rgb(0%,0%,0%);fill-opacity:1;" d="M 232.59375 137.285156 L 235.71875 137.285156 L 235.71875 134.441406 L 232.59375 134.441406 Z M 232.59375 137.285156 "/>
<path style=" stroke:none;fill-rule:evenodd;fill:rgb(0%,0%,0%);fill-opacity:1;" d="M 226.925781 134.589844 L 230.050781 134.589844 L 230.050781 131.746094 L 226.925781 131.746094 Z M 226.925781 134.589844 "/>
<path style=" stroke:none;fill-rule:evenodd;fill:rgb(0%,0%,0%);fill-opacity:1;" d="M 46.027344 35.574219 L 49.152344 35.574219 L 49.152344 32.730469 L 46.027344 32.730469 Z M 46.027344 35.574219 "/>
<path style=" stroke:none;fill-rule:evenodd;fill:rgb(0%,0%,0%);fill-opacity:1;" d="M 40.359375 32.882812 L 43.484375 32.882812 L 43.484375 30.039062 L 40.359375 30.039062 Z M 40.359375 32.882812 "/>
<path style=" stroke:none;fill-rule:evenodd;fill:rgb(0%,0%,0%);fill-opacity:1;" d="M 46.027344 30.191406 L 49.152344 30.191406 L 49.152344 27.347656 L 46.027344 27.347656 Z M 46.027344 30.191406 "/>
<path style=" stroke:none;fill-rule:evenodd;fill:rgb(0%,0%,0%);fill-opacity:1;" d="M 57.378906 34.882812 C 57.378906 31.425781 52.195312 31.425781 52.195312 34.882812 C 52.195312 38.335938 57.378906 38.335938 57.378906 34.882812 "/>
<path style=" stroke:none;fill-rule:evenodd;fill:rgb(0%,0%,0%);fill-opacity:1;" d="M 48.378906 91.222656 C 48.378906 87.765625 43.195312 87.765625 43.195312 91.222656 C 43.195312 94.675781 48.378906 94.675781 48.378906 91.222656 "/>
<path style=" stroke:none;fill-rule:evenodd;fill:rgb(0%,0%,0%);fill-opacity:1;" d="M 48.378906 104.902344 C 48.378906 101.445312 43.195312 101.445312 43.195312 104.902344 C 43.195312 108.355469 48.378906 108.355469 48.378906 104.902344 "/>
<path style="fill:none;stroke-width:0.084;stroke-linecap:round;stroke-linejoin:miter;stroke:rgb(0%,0%,0%);stroke-opacity:1;stroke-miterlimit:10;" d="M 2.119977 1.103027 L 2.119977 1.178982 " transform="matrix(72,0,0,-72,9.2484,149.61324)"/>
<path style="fill:none;stroke-width:0.084;stroke-linecap:round;stroke-linejoin:miter;stroke:rgb(0%,0%,0%);stroke-opacity:1;stroke-miterlimit:10;" d="M 2.22002 1.178982 L 2.22002 1.103027 " transform="matrix(72,0,0,-72,9.2484,149.61324)"/>
<path style="fill:none;stroke-width:0.084;stroke-linecap:round;stroke-linejoin:miter;stroke:rgb(0%,0%,0%);stroke-opacity:1;stroke-miterlimit:10;" d="M 2.320009 1.103027 L 2.320009 1.178982 " transform="matrix(72,0,0,-72,9.2484,149.61324)"/>
<path style="fill:none;stroke-width:0.084;stroke-linecap:round;stroke-linejoin:miter;stroke:rgb(0%,0%,0%);stroke-opacity:1;stroke-miterlimit:10;" d="M 2.419998 1.178982 L 2.419998 1.103027 " transform="matrix(72,0,0,-72,9.2484,149.61324)"/>
<path style="fill:none;stroke-width:0.084;stroke-linecap:round;stroke-linejoin:miter;stroke:rgb(0%,0%,0%);stroke-opacity:1;stroke-miterlimit:10;" d="M 2.519988 1.103027 L 2.519988 1.178982 " transform="matrix(72,0,0,-72,9.2484,149.61324)"/>
<path style="fill:none;stroke-width:0.084;stroke-linecap:round;stroke-linejoin:miter;stroke:rgb(0%,0%,0%);stroke-opacity:1;stroke-miterlimit:10;" d="M 2.619977 1.178982 L 2.619977 1.103027 " transform="matrix(72,0,0,-72,9.2484,149.61324)"/>
<path style="fill:none;stroke-width:0.084;stroke-linecap:round;stroke-linejoin:miter;stroke:rgb(0%,0%,0%);stroke-opacity:1;stroke-miterlimit:10;" d="M 2.619977 1.603027 L 2.619977 1.678982 " transform="matrix(72,0,0,-72,9.2484,149.61324)"/>
<path style="fill:none;stroke-width:0.084;stroke-linecap:round;stroke-linejoin:miter;stroke:rgb(0%,0%,0%);stroke-opacity:1;stroke-miterlimit:10;" d="M 2.519988 1.678982 L 2.519988 1.603027 " transform="matrix(72,0,0,-72,9.2484,149.61324)"/>
<path style="fill:none;stroke-width:0.084;stroke-linecap:round;stroke-linejoin:miter;stroke:rgb(0%,0%,0%);stroke-opacity:1;stroke-miterlimit:10;" d="M 2.419998 1.603027 L 2.419998 1.678982 " transform="matrix(72,0,0,-72,9.2484,149.61324)"/>
<path style="fill:none;stroke-width:0.084;stroke-linecap:round;stroke-linejoin:miter;stroke:rgb(0%,0%,0%);stroke-opacity:1;stroke-miterlimit:10;" d="M 2.320009 1.678982 L 2.320009 1.603027 " transform="matrix(72,0,0,-72,9.2484,149.61324)"/>
<path style="fill:none;stroke-width:0.084;stroke-linecap:round;stroke-linejoin:miter;stroke:rgb(0%,0%,0%);stroke-opacity:1;stroke-miterlimit:10;" d="M 2.22002 1.603027 L 2.22002 1.678982 " transform="matrix(72,0,0,-72,9.2484,149.61324)"/>
<path style="fill:none;stroke-width:0.084;stroke-linecap:round;stroke-linejoin:miter;stroke:rgb(0%,0%,0%);stroke-opacity:1;stroke-miterlimit:10;" d="M 2.119977 1.678982 L 2.119977 1.603027 " transform="matrix(72,0,0,-72,9.2484,149.61324)"/>
<path style="fill:none;stroke-width:0.087;stroke-linecap:round;stroke-linejoin:miter;stroke:rgb(0%,0%,0%);stroke-opacity:1;stroke-miterlimit:10;" d="M 0.334495 1.642578 L 0.255502 1.642578 " transform="matrix(72,0,0,-72,9.2484,149.61324)"/>
<path style="fill:none;stroke-width:0.087;stroke-linecap:round;stroke-linejoin:miter;stroke:rgb(0%,0%,0%);stroke-opacity:1;stroke-miterlimit:10;" d="M 0.255502 1.839409 L 0.334495 1.839409 " transform="matrix(72,0,0,-72,9.2484,149.61324)"/>
<path style=" stroke:none;fill-rule:evenodd;fill:rgb(0%,0%,0%);fill-opacity:1;" d="M 60.765625 44.675781 L 65.027344 44.675781 L 65.027344 39.84375 L 60.765625 39.84375 Z M 60.765625 44.675781 "/>
<path style=" stroke:none;fill-rule:evenodd;fill:rgb(0%,0%,0%);fill-opacity:1;" d="M 66.148438 44.675781 L 70.410156 44.675781 L 70.410156 39.84375 L 66.148438 39.84375 Z M 66.148438 44.675781 "/>
<path style=" stroke:none;fill-rule:evenodd;fill:rgb(0%,0%,0%);fill-opacity:1;" d="M 150.765625 83.375 L 155.027344 83.375 L 155.027344 78.542969 L 150.765625 78.542969 Z M 150.765625 83.375 "/>
<path style=" stroke:none;fill-rule:evenodd;fill:rgb(0%,0%,0%);fill-opacity:1;" d="M 156.148438 83.375 L 160.410156 83.375 L 160.410156 78.542969 L 156.148438 78.542969 Z M 156.148438 83.375 "/>
<path style=" stroke:none;fill-rule:evenodd;fill:rgb(0%,0%,0%);fill-opacity:1;" d="M 219.164062 91.476562 L 223.425781 91.476562 L 223.425781 86.644531 L 219.164062 86.644531 Z M 219.164062 91.476562 "/>
<path style=" stroke:none;fill-rule:evenodd;fill:rgb(0%,0%,0%);fill-opacity:1;" d="M 224.550781 91.476562 L 228.8125 91.476562 L 228.8125 86.644531 L 224.550781 86.644531 Z M 224.550781 91.476562 "/>
<path style=" stroke:none;fill-rule:evenodd;fill:rgb(0%,0%,0%);fill-opacity:1;" d="M 224.550781 98.675781 L 228.8125 98.675781 L 228.8125 93.84375 L 224.550781 93.84375 Z M 224.550781 98.675781 "/>
<path style=" stroke:none;fill-rule:evenodd;fill:rgb(0%,0%,0%);fill-opacity:1;" d="M 219.164062 98.675781 L 223.425781 98.675781 L 223.425781 93.84375 L 219.164062 93.84375 Z M 219.164062 98.675781 "/>
<path style=" stroke:none;fill-rule:evenodd;fill:rgb(0%,0%,0%);fill-opacity:1;" d="M 219.164062 105.875 L 223.425781 105.875 L 223.425781 101.042969 L 219.164062 101.042969 Z M 219.164062 105.875 "/>
<path style=" stroke:none;fill-rule:evenodd;fill:rgb(0%,0%,0%);fill-opacity:1;" d="M 224.550781 105.875 L 228.8125 105.875 L 228.8125 101.042969 L 224.550781 101.042969 Z M 224.550781 105.875 "/>
<path style=" stroke:none;fill-rule:evenodd;fill:rgb(0%,0%,0%);fill-opacity:1;" d="M 224.550781 113.078125 L 228.8125 113.078125 L 228.8125 108.246094 L 224.550781 108.246094 Z M 224.550781 113.078125 "/>
<path style=" stroke:none;fill-rule:evenodd;fill:rgb(0%,0%,0%);fill-opacity:1;" d="M 219.164062 113.078125 L 223.425781 113.078125 L 223.425781 108.246094 L 219.164062 108.246094 Z M 219.164062 113.078125 "/>
<path style=" stroke:none;fill-rule:evenodd;fill:rgb(0%,0%,0%);fill-opacity:1;" d="M 219.164062 120.277344 L 223.425781 120.277344 L 223.425781 115.445312 L 219.164062 115.445312 Z M 219.164062 120.277344 "/>
<path style=" stroke:none;fill-rule:evenodd;fill:rgb(0%,0%,0%);fill-opacity:1;" d="M 224.550781 120.277344 L 228.8125 120.277344 L 228.8125 115.445312 L 224.550781 115.445312 Z M 224.550781 120.277344 "/>
<path style=" stroke:none;fill-rule:evenodd;fill:rgb(0%,0%,0%);fill-opacity:1;" d="M 223.664062 131.078125 L 227.925781 131.078125 L 227.925781 126.246094 L 223.664062 126.246094 Z M 223.664062 131.078125 "/>
<path style=" stroke:none;fill-rule:evenodd;fill:rgb(0%,0%,0%);fill-opacity:1;" d="M 229.050781 131.078125 L 233.3125 131.078125 L 233.3125 126.246094 L 229.050781 126.246094 Z M 229.050781 131.078125 "/>
<path style=" stroke:none;fill-rule:evenodd;fill:rgb(0%,0%,0%);fill-opacity:1;" d="M 200.25 131.078125 L 204.511719 131.078125 L 204.511719 126.246094 L 200.25 126.246094 Z M 200.25 131.078125 "/>
<path style=" stroke:none;fill-rule:evenodd;fill:rgb(0%,0%,0%);fill-opacity:1;" d="M 194.863281 131.078125 L 199.125 131.078125 L 199.125 126.246094 L 194.863281 126.246094 Z M 194.863281 131.078125 "/>
<path style=" stroke:none;fill-rule:evenodd;fill:rgb(0%,0%,0%);fill-opacity:1;" d="M 218.265625 37.476562 L 222.527344 37.476562 L 222.527344 32.644531 L 218.265625 32.644531 Z M 218.265625 37.476562 "/>
<path style=" stroke:none;fill-rule:evenodd;fill:rgb(0%,0%,0%);fill-opacity:1;" d="M 223.648438 37.476562 L 227.910156 37.476562 L 227.910156 32.644531 L 223.648438 32.644531 Z M 223.648438 37.476562 "/>
<path style=" stroke:none;fill-rule:evenodd;fill:rgb(0%,0%,0%);fill-opacity:1;" d="M 217.351562 32.078125 L 221.613281 32.078125 L 221.613281 27.246094 L 217.351562 27.246094 Z M 217.351562 32.078125 "/>
<path style=" stroke:none;fill-rule:evenodd;fill:rgb(0%,0%,0%);fill-opacity:1;" d="M 211.964844 32.078125 L 216.226562 32.078125 L 216.226562 27.246094 L 211.964844 27.246094 Z M 211.964844 32.078125 "/>
<path style=" stroke:none;fill-rule:evenodd;fill:rgb(0%,0%,0%);fill-opacity:1;" d="M 157.671875 49.800781 L 162.503906 49.800781 L 162.503906 45.539062 L 157.671875 45.539062 Z M 157.671875 49.800781 "/>
<path style=" stroke:none;fill-rule:evenodd;fill:rgb(0%,0%,0%);fill-opacity:1;" d="M 157.671875 55.183594 L 162.503906 55.183594 L 162.503906 50.921875 L 157.671875 50.921875 Z M 157.671875 55.183594 "/>
<path style=" stroke:none;fill-rule:evenodd;fill:rgb(0%,0%,0%);fill-opacity:1;" d="M 138.773438 37.183594 L 143.605469 37.183594 L 143.605469 32.921875 L 138.773438 32.921875 Z M 138.773438 37.183594 "/>
<path style=" stroke:none;fill-rule:evenodd;fill:rgb(0%,0%,0%);fill-opacity:1;" d="M 131.574219 37.183594 L 136.40625 37.183594 L 136.40625 32.921875 L 131.574219 32.921875 Z M 131.574219 37.183594 "/>
<path style=" stroke:none;fill-rule:evenodd;fill:rgb(0%,0%,0%);fill-opacity:1;" d="M 124.371094 37.183594 L 129.203125 37.183594 L 129.203125 32.921875 L 124.371094 32.921875 Z M 124.371094 37.183594 "/>
<path style=" stroke:none;fill-rule:evenodd;fill:rgb(0%,0%,0%);fill-opacity:1;" d="M 124.371094 31.800781 L 129.203125 31.800781 L 129.203125 27.539062 L 124.371094 27.539062 Z M 124.371094 31.800781 "/>
<path style=" stroke:none;fill-rule:evenodd;fill:rgb(0%,0%,0%);fill-opacity:1;" d="M 131.574219 31.800781 L 136.40625 31.800781 L 136.40625 27.539062 L 131.574219 27.539062 Z M 131.574219 31.800781 "/>
<path style=" stroke:none;fill-rule:evenodd;fill:rgb(0%,0%,0%);fill-opacity:1;" d="M 138.773438 31.800781 L 143.605469 31.800781 L 143.605469 27.539062 L 138.773438 27.539062 Z M 138.773438 31.800781 "/>
<path style=" stroke:none;fill-rule:evenodd;fill:rgb(0%,0%,0%);fill-opacity:1;" d="M 115.371094 53.398438 L 120.203125 53.398438 L 120.203125 49.136719 L 115.371094 49.136719 Z M 115.371094 53.398438 "/>
<path style=" stroke:none;fill-rule:evenodd;fill:rgb(0%,0%,0%);fill-opacity:1;" d="M 115.371094 58.785156 L 120.203125 58.785156 L 120.203125 54.523438 L 115.371094 54.523438 Z M 115.371094 58.785156 "/>
<path style=" stroke:none;fill-rule:evenodd;fill:rgb(0%,0%,0%);fill-opacity:1;" d="M 79.371094 59.699219 L 84.203125 59.699219 L 84.203125 55.4375 L 79.371094 55.4375 Z M 79.371094 59.699219 "/>
<path style=" stroke:none;fill-rule:evenodd;fill:rgb(0%,0%,0%);fill-opacity:1;" d="M 79.371094 65.085938 L 84.203125 65.085938 L 84.203125 60.824219 L 79.371094 60.824219 Z M 79.371094 65.085938 "/>
<path style=" stroke:none;fill-rule:evenodd;fill:rgb(0%,0%,0%);fill-opacity:1;" d="M 44.273438 63.285156 L 49.105469 63.285156 L 49.105469 59.023438 L 44.273438 59.023438 Z M 44.273438 63.285156 "/>
<path style=" stroke:none;fill-rule:evenodd;fill:rgb(0%,0%,0%);fill-opacity:1;" d="M 44.273438 57.898438 L 49.105469 57.898438 L 49.105469 53.636719 L 44.273438 53.636719 Z M 44.273438 57.898438 "/>
<path style=" stroke:none;fill-rule:evenodd;fill:rgb(0%,0%,0%);fill-opacity:1;" d="M 40.226562 52.039062 L 45.058594 52.039062 L 45.058594 47.777344 L 40.226562 47.777344 Z M 40.226562 52.039062 "/>
<path style=" stroke:none;fill-rule:evenodd;fill:rgb(0%,0%,0%);fill-opacity:1;" d="M 40.226562 46.644531 L 45.058594 46.644531 L 45.058594 42.382812 L 40.226562 42.382812 Z M 40.226562 46.644531 "/>
<path style=" stroke:none;fill-rule:evenodd;fill:rgb(0%,0%,0%);fill-opacity:1;" d="M 43.371094 21.886719 L 48.203125 21.886719 L 48.203125 17.625 L 43.371094 17.625 Z M 43.371094 21.886719 "/>
<path style=" stroke:none;fill-rule:evenodd;fill:rgb(0%,0%,0%);fill-opacity:1;" d="M 43.371094 16.5 L 48.203125 16.5 L 48.203125 12.238281 L 43.371094 12.238281 Z M 43.371094 16.5 "/>
<path style=" stroke:none;fill-rule:evenodd;fill:rgb(0%,0%,0%);fill-opacity:1;" d="M 136.972656 103.800781 L 141.804688 103.800781 L 141.804688 99.539062 L 136.972656 99.539062 Z M 136.972656 103.800781 "/>
<path style=" stroke:none;fill-rule:evenodd;fill:rgb(0%,0%,0%);fill-opacity:1;" d="M 144.171875 103.800781 L 149.003906 103.800781 L 149.003906 99.539062 L 144.171875 99.539062 Z M 144.171875 103.800781 "/>
<path style=" stroke:none;fill-rule:evenodd;fill:rgb(0%,0%,0%);fill-opacity:1;" d="M 151.371094 103.800781 L 156.203125 103.800781 L 156.203125 99.539062 L 151.371094 99.539062 Z M 151.371094 103.800781 "/>
<path style=" stroke:none;fill-rule:evenodd;fill:rgb(0%,0%,0%);fill-opacity:1;" d="M 158.574219 103.800781 L 163.40625 103.800781 L 163.40625 99.539062 L 158.574219 99.539062 Z M 158.574219 103.800781 "/>
<path style=" stroke:none;fill-rule:evenodd;fill:rgb(0%,0%,0%);fill-opacity:1;" d="M 158.574219 109.183594 L 163.40625 109.183594 L 163.40625 104.921875 L 158.574219 104.921875 Z M 158.574219 109.183594 "/>
<path style=" stroke:none;fill-rule:evenodd;fill:rgb(0%,0%,0%);fill-opacity:1;" d="M 151.371094 109.183594 L 156.203125 109.183594 L 156.203125 104.921875 L 151.371094 104.921875 Z M 151.371094 109.183594 "/>
<path style=" stroke:none;fill-rule:evenodd;fill:rgb(0%,0%,0%);fill-opacity:1;" d="M 144.171875 109.183594 L 149.003906 109.183594 L 149.003906 104.921875 L 144.171875 104.921875 Z M 144.171875 109.183594 "/>
<path style=" stroke:none;fill-rule:evenodd;fill:rgb(0%,0%,0%);fill-opacity:1;" d="M 136.972656 109.183594 L 141.804688 109.183594 L 141.804688 104.921875 L 136.972656 104.921875 Z M 136.972656 109.183594 "/>
<path style=" stroke:none;fill-rule:evenodd;fill:rgb(0%,0%,0%);fill-opacity:1;" d="M 137.265625 64.941406 L 139.714844 64.941406 L 139.714844 58.605469 L 137.265625 58.605469 Z M 137.265625 64.941406 "/>
<path style=" stroke:none;fill-rule:evenodd;fill:rgb(0%,0%,0%);fill-opacity:1;" d="M 133.664062 64.941406 L 136.113281 64.941406 L 136.113281 58.605469 L 133.664062 58.605469 Z M 133.664062 64.941406 "/>
<path style=" stroke:none;fill-rule:evenodd;fill:rgb(0%,0%,0%);fill-opacity:1;" d="M 130.0625 64.941406 L 132.511719 64.941406 L 132.511719 58.605469 L 130.0625 58.605469 Z M 130.0625 64.941406 "/>
<path style=" stroke:none;fill-rule:evenodd;fill:rgb(0%,0%,0%);fill-opacity:1;" d="M 126.464844 64.941406 L 128.914062 64.941406 L 128.914062 58.605469 L 126.464844 58.605469 Z M 126.464844 64.941406 "/>
<path style=" stroke:none;fill-rule:evenodd;fill:rgb(0%,0%,0%);fill-opacity:1;" d="M 140.863281 64.941406 L 143.3125 64.941406 L 143.3125 58.605469 L 140.863281 58.605469 Z M 140.863281 64.941406 "/>
<path style=" stroke:none;fill-rule:evenodd;fill:rgb(0%,0%,0%);fill-opacity:1;" d="M 144.464844 64.941406 L 146.914062 64.941406 L 146.914062 58.605469 L 144.464844 58.605469 Z M 144.464844 64.941406 "/>
<path style=" stroke:none;fill-rule:evenodd;fill:rgb(0%,0%,0%);fill-opacity:1;" d="M 148.0625 64.941406 L 150.511719 64.941406 L 150.511719 58.605469 L 148.0625 58.605469 Z M 148.0625 64.941406 "/>
<path style=" stroke:none;fill-rule:evenodd;fill:rgb(0%,0%,0%);fill-opacity:1;" d="M 151.664062 64.941406 L 154.113281 64.941406 L 154.113281 58.605469 L 151.664062 58.605469 Z M 151.664062 64.941406 "/>
<path style=" stroke:none;fill-rule:evenodd;fill:rgb(0%,0%,0%);fill-opacity:1;" d="M 151.664062 47.515625 L 154.113281 47.515625 L 154.113281 41.179688 L 151.664062 41.179688 Z M 151.664062 47.515625 "/>
<path style=" stroke:none;fill-rule:evenodd;fill:rgb(0%,0%,0%);fill-opacity:1;" d="M 148.0625 47.515625 L 150.511719 47.515625 L 150.511719 41.179688 L 148.0625 41.179688 Z M 148.0625 47.515625 "/>
<path style=" stroke:none;fill-rule:evenodd;fill:rgb(0%,0%,0%);fill-opacity:1;" d="M 144.464844 47.515625 L 146.914062 47.515625 L 146.914062 41.179688 L 144.464844 41.179688 Z M 144.464844 47.515625 "/>
<path style=" stroke:none;fill-rule:evenodd;fill:rgb(0%,0%,0%);fill-opacity:1;" d="M 140.863281 47.515625 L 143.3125 47.515625 L 143.3125 41.179688 L 140.863281 41.179688 Z M 140.863281 47.515625 "/>
<path style=" stroke:none;fill-rule:evenodd;fill:rgb(0%,0%,0%);fill-opacity:1;" d="M 137.265625 47.515625 L 139.714844 47.515625 L 139.714844 41.179688 L 137.265625 41.179688 Z M 137.265625 47.515625 "/>
<path style=" stroke:none;fill-rule:evenodd;fill:rgb(0%,0%,0%);fill-opacity:1;" d="M 133.664062 47.515625 L 136.113281 47.515625 L 136.113281 41.179688 L 133.664062 41.179688 Z M 133.664062 47.515625 "/>
<path style=" stroke:none;fill-rule:evenodd;fill:rgb(0%,0%,0%);fill-opacity:1;" d="M 130.0625 47.515625 L 132.511719 47.515625 L 132.511719 41.179688 L 130.0625 41.179688 Z M 130.0625 47.515625 "/>
<path style=" stroke:none;fill-rule:evenodd;fill:rgb(0%,0%,0%);fill-opacity:1;" d="M 126.464844 47.515625 L 128.914062 47.515625 L 128.914062 41.179688 L 126.464844 41.179688 Z M 126.464844 47.515625 "/>
<path style=" stroke:none;fill-rule:evenodd;fill:rgb(0%,0%,0%);fill-opacity:1;" d="M 208.507812 44.386719 L 214.84375 44.386719 L 214.84375 41.9375 L 208.507812 41.9375 Z M 208.507812 44.386719 "/>
<path style=" stroke:none;fill-rule:evenodd;fill:rgb(0%,0%,0%);fill-opacity:1;" d="M 208.507812 40.785156 L 214.84375 40.785156 L 214.84375 38.335938 L 208.507812 38.335938 Z M 208.507812 40.785156 "/>
<path style=" stroke:none;fill-rule:evenodd;fill:rgb(0%,0%,0%);fill-opacity:1;" d="M 208.507812 47.984375 L 214.84375 47.984375 L 214.84375 45.535156 L 208.507812 45.535156 Z M 208.507812 47.984375 "/>
<path style=" stroke:none;fill-rule:evenodd;fill:rgb(0%,0%,0%);fill-opacity:1;" d="M 208.507812 51.585938 L 214.84375 51.585938 L 214.84375 49.136719 L 208.507812 49.136719 Z M 208.507812 51.585938 "/>
<path style=" stroke:none;fill-rule:evenodd;fill:rgb(0%,0%,0%);fill-opacity:1;" d="M 208.507812 55.183594 L 214.84375 55.183594 L 214.84375 52.734375 L 208.507812 52.734375 Z M 208.507812 55.183594 "/>
<path style=" stroke:none;fill-rule:evenodd;fill:rgb(0%,0%,0%);fill-opacity:1;" d="M 208.507812 58.785156 L 214.84375 58.785156 L 214.84375 56.335938 L 208.507812 56.335938 Z M 208.507812 58.785156 "/>
<path style=" stroke:none;fill-rule:evenodd;fill:rgb(0%,0%,0%);fill-opacity:1;" d="M 208.507812 62.386719 L 214.84375 62.386719 L 214.84375 59.9375 L 208.507812 59.9375 Z M 208.507812 62.386719 "/>
<path style=" stroke:none;fill-rule:evenodd;fill:rgb(0%,0%,0%);fill-opacity:1;" d="M 208.507812 65.984375 L 214.84375 65.984375 L 214.84375 63.535156 L 208.507812 63.535156 Z M 208.507812 65.984375 "/>
<path style=" stroke:none;fill-rule:evenodd;fill:rgb(0%,0%,0%);fill-opacity:1;" d="M 225.933594 65.984375 L 232.269531 65.984375 L 232.269531 63.535156 L 225.933594 63.535156 Z M 225.933594 65.984375 "/>
<path style=" stroke:none;fill-rule:evenodd;fill:rgb(0%,0%,0%);fill-opacity:1;" d="M 225.933594 62.386719 L 232.269531 62.386719 L 232.269531 59.9375 L 225.933594 59.9375 Z M 225.933594 62.386719 "/>
<path style=" stroke:none;fill-rule:evenodd;fill:rgb(0%,0%,0%);fill-opacity:1;" d="M 225.933594 58.785156 L 232.269531 58.785156 L 232.269531 56.335938 L 225.933594 56.335938 Z M 225.933594 58.785156 "/>
<path style=" stroke:none;fill-rule:evenodd;fill:rgb(0%,0%,0%);fill-opacity:1;" d="M 225.933594 55.183594 L 232.269531 55.183594 L 232.269531 52.734375 L 225.933594 52.734375 Z M 225.933594 55.183594 "/>
<path style=" stroke:none;fill-rule:evenodd;fill:rgb(0%,0%,0%);fill-opacity:1;" d="M 225.933594 51.585938 L 232.269531 51.585938 L 232.269531 49.136719 L 225.933594 49.136719 Z M 225.933594 51.585938 "/>
<path style=" stroke:none;fill-rule:evenodd;fill:rgb(0%,0%,0%);fill-opacity:1;" d="M 225.933594 47.984375 L 232.269531 47.984375 L 232.269531 45.535156 L 225.933594 45.535156 Z M 225.933594 47.984375 "/>
<path style=" stroke:none;fill-rule:evenodd;fill:rgb(0%,0%,0%);fill-opacity:1;" d="M 225.933594 44.386719 L 232.269531 44.386719 L 232.269531 41.9375 L 225.933594 41.9375 Z M 225.933594 44.386719 "/>
<path style=" stroke:none;fill-rule:evenodd;fill:rgb(0%,0%,0%);fill-opacity:1;" d="M 225.933594 40.785156 L 232.269531 40.785156 L 232.269531 38.335938 L 225.933594 38.335938 Z M 225.933594 40.785156 "/>
<path style=" stroke:none;fill-rule:evenodd;fill:rgb(0%,0%,0%);fill-opacity:1;" d="M 120.582031 58.796875 L 123.996094 58.796875 L 123.996094 55.101562 L 120.582031 55.101562 Z M 120.582031 58.796875 "/>
<path style=" stroke:none;fill-rule:evenodd;fill:rgb(0%,0%,0%);fill-opacity:1;" d="M 120.582031 63.621094 L 123.996094 63.621094 L 123.996094 59.925781 L 120.582031 59.925781 Z M 120.582031 63.621094 "/>
<path style=" stroke:none;fill-rule:evenodd;fill:rgb(0%,0%,0%);fill-opacity:1;" d="M 64.492188 48.609375 L 67.90625 48.609375 L 67.90625 44.914062 L 64.492188 44.914062 Z M 64.492188 48.609375 "/>
<path style=" stroke:none;fill-rule:evenodd;fill:rgb(0%,0%,0%);fill-opacity:1;" d="M 59.671875 48.609375 L 63.085938 48.609375 L 63.085938 44.914062 L 59.671875 44.914062 Z M 59.671875 48.609375 "/>
<path style=" stroke:none;fill-rule:evenodd;fill:rgb(0%,0%,0%);fill-opacity:1;" d="M 55.039062 49.507812 L 58.453125 49.507812 L 58.453125 45.8125 L 55.039062 45.8125 Z M 55.039062 49.507812 "/>
<path style=" stroke:none;fill-rule:evenodd;fill:rgb(0%,0%,0%);fill-opacity:1;" d="M 50.222656 49.507812 L 53.636719 49.507812 L 53.636719 45.8125 L 50.222656 45.8125 Z M 50.222656 49.507812 "/>
<path style=" stroke:none;fill-rule:evenodd;fill:rgb(0%,0%,0%);fill-opacity:1;" d="M 46.335938 47.996094 L 49.75 47.996094 L 49.75 44.300781 L 46.335938 44.300781 Z M 46.335938 47.996094 "/>
<path style=" stroke:none;fill-rule:evenodd;fill:rgb(0%,0%,0%);fill-opacity:1;" d="M 46.335938 52.820312 L 49.75 52.820312 L 49.75 49.125 L 46.335938 49.125 Z M 46.335938 52.820312 "/>
<path style=" stroke:none;fill-rule:evenodd;fill:rgb(0%,0%,0%);fill-opacity:1;" d="M 49.480469 92.097656 L 52.894531 92.097656 L 52.894531 88.402344 L 49.480469 88.402344 Z M 49.480469 92.097656 "/>
<path style=" stroke:none;fill-rule:evenodd;fill:rgb(0%,0%,0%);fill-opacity:1;" d="M 49.480469 96.921875 L 52.894531 96.921875 L 52.894531 93.226562 L 49.480469 93.226562 Z M 49.480469 96.921875 "/>
<path style=" stroke:none;fill-rule:evenodd;fill:rgb(0%,0%,0%);fill-opacity:1;" d="M 49.480469 102.894531 L 52.894531 102.894531 L 52.894531 99.199219 L 49.480469 99.199219 Z M 49.480469 102.894531 "/>
<path style=" stroke:none;fill-rule:evenodd;fill:rgb(0%,0%,0%);fill-opacity:1;" d="M 49.480469 107.71875 L 52.894531 107.71875 L 52.894531 104.023438 L 49.480469 104.023438 Z M 49.480469 107.71875 "/>
<path style=" stroke:none;fill-rule:evenodd;fill:rgb(0%,0%,0%);fill-opacity:1;" d="M 72.128906 69.167969 L 75.824219 69.167969 L 75.824219 65.753906 L 72.128906 65.753906 Z M 72.128906 69.167969 "/>
<path style=" stroke:none;fill-rule:evenodd;fill:rgb(0%,0%,0%);fill-opacity:1;" d="M 76.953125 69.167969 L 80.648438 69.167969 L 80.648438 65.753906 L 76.953125 65.753906 Z M 76.953125 69.167969 "/>
<path style=" stroke:none;fill-rule:evenodd;fill:rgb(0%,0%,0%);fill-opacity:1;" d="M 45.898438 42.613281 L 49.59375 42.613281 L 49.59375 39.199219 L 45.898438 39.199219 Z M 45.898438 42.613281 "/>
<path style=" stroke:none;fill-rule:evenodd;fill:rgb(0%,0%,0%);fill-opacity:1;" d="M 41.082031 42.613281 L 44.777344 42.613281 L 44.777344 39.199219 L 41.082031 39.199219 Z M 41.082031 42.613281 "/>
<path style=" stroke:none;fill-rule:evenodd;fill:rgb(0%,0%,0%);fill-opacity:1;" d="M 208.929688 36.769531 L 212.625 36.769531 L 212.625 33.355469 L 208.929688 33.355469 Z M 208.929688 36.769531 "/>
<path style=" stroke:none;fill-rule:evenodd;fill:rgb(0%,0%,0%);fill-opacity:1;" d="M 213.753906 36.769531 L 217.449219 36.769531 L 217.449219 33.355469 L 213.753906 33.355469 Z M 213.753906 36.769531 "/>
<path style=" stroke:none;fill-rule:evenodd;fill:rgb(0%,0%,0%);fill-opacity:1;" d="M 57.378906 39.566406 L 55.863281 38.050781 L 53.714844 38.050781 L 52.195312 39.566406 L 52.195312 41.714844 L 53.714844 43.234375 L 55.863281 43.234375 L 57.378906 41.714844 L 57.378906 39.566406 "/>
<path style=" stroke:none;fill-rule:evenodd;fill:rgb(0%,0%,0%);fill-opacity:1;" d="M 49.203125 22.023438 L 53.175781 22.023438 L 53.175781 18.050781 L 49.203125 18.050781 Z M 49.203125 22.023438 "/>
<path style=" stroke:none;fill-rule:evenodd;fill:rgb(0%,0%,0%);fill-opacity:1;" d="M 49.203125 16.074219 L 53.175781 16.074219 L 53.175781 12.101562 L 49.203125 12.101562 Z M 49.203125 16.074219 "/>
<path style=" stroke:none;fill-rule:evenodd;fill:rgb(0%,0%,0%);fill-opacity:1;" d="M 231.628906 91.046875 L 235.601562 91.046875 L 235.601562 87.074219 L 231.628906 87.074219 Z M 231.628906 91.046875 "/>
<path style=" stroke:none;fill-rule:evenodd;fill:rgb(0%,0%,0%);fill-opacity:1;" d="M 237.574219 91.046875 L 241.546875 91.046875 L 241.546875 87.074219 L 237.574219 87.074219 Z M 237.574219 91.046875 "/>
<path style=" stroke:none;fill-rule:evenodd;fill:rgb(0%,0%,0%);fill-opacity:1;" d="M 237.574219 98.25 L 241.546875 98.25 L 241.546875 94.277344 L 237.574219 94.277344 Z M 237.574219 98.25 "/>
<path style=" stroke:none;fill-rule:evenodd;fill:rgb(0%,0%,0%);fill-opacity:1;" d="M 231.628906 98.25 L 235.601562 98.25 L 235.601562 94.277344 L 231.628906 94.277344 Z M 231.628906 98.25 "/>
<path style=" stroke:none;fill-rule:evenodd;fill:rgb(0%,0%,0%);fill-opacity:1;" d="M 231.628906 105.449219 L 235.601562 105.449219 L 235.601562 101.476562 L 231.628906 101.476562 Z M 231.628906 105.449219 "/>
<path style=" stroke:none;fill-rule:evenodd;fill:rgb(0%,0%,0%);fill-opacity:1;" d="M 237.574219 105.449219 L 241.546875 105.449219 L 241.546875 101.476562 L 237.574219 101.476562 Z M 237.574219 105.449219 "/>
<path style=" stroke:none;fill-rule:evenodd;fill:rgb(0%,0%,0%);fill-opacity:1;" d="M 237.574219 112.648438 L 241.546875 112.648438 L 241.546875 108.675781 L 237.574219 108.675781 Z M 237.574219 112.648438 "/>
<path style=" stroke:none;fill-rule:evenodd;fill:rgb(0%,0%,0%);fill-opacity:1;" d="M 231.628906 112.648438 L 235.601562 112.648438 L 235.601562 108.675781 L 231.628906 108.675781 Z M 231.628906 112.648438 "/>
<path style=" stroke:none;fill-rule:evenodd;fill:rgb(0%,0%,0%);fill-opacity:1;" d="M 231.628906 119.847656 L 235.601562 119.847656 L 235.601562 115.875 L 231.628906 115.875 Z M 231.628906 119.847656 "/>
<path style=" stroke:none;fill-rule:evenodd;fill:rgb(0%,0%,0%);fill-opacity:1;" d="M 237.574219 119.847656 L 241.546875 119.847656 L 241.546875 115.875 L 237.574219 115.875 Z M 237.574219 119.847656 "/>
<path style="fill:none;stroke-width:0.0794;stroke-linecap:round;stroke-linejoin:miter;stroke:rgb(0%,0%,0%);stroke-opacity:1;stroke-miterlimit:10;" d="M 2.408605 0.408311 L 2.408605 0.4796 " transform="matrix(72,0,0,-72,9.2484,149.61324)"/>
<path style="fill:none;stroke-width:0.0794;stroke-linecap:round;stroke-linejoin:miter;stroke:rgb(0%,0%,0%);stroke-opacity:1;stroke-miterlimit:10;" d="M 2.231413 0.4796 L 2.231413 0.408311 " transform="matrix(72,0,0,-72,9.2484,149.61324)"/>
<path style="fill:none;stroke-width:0.0794;stroke-linecap:round;stroke-linejoin:miter;stroke:rgb(0%,0%,0%);stroke-opacity:1;stroke-miterlimit:10;" d="M 2.133594 0.408311 L 2.133594 0.4796 " transform="matrix(72,0,0,-72,9.2484,149.61324)"/>
<path style="fill:none;stroke-width:0.0794;stroke-linecap:round;stroke-linejoin:miter;stroke:rgb(0%,0%,0%);stroke-opacity:1;stroke-miterlimit:10;" d="M 1.956402 0.4796 L 1.956402 0.408311 " transform="matrix(72,0,0,-72,9.2484,149.61324)"/>
<path style="fill:none;stroke-width:0.0794;stroke-linecap:round;stroke-linejoin:miter;stroke:rgb(0%,0%,0%);stroke-opacity:1;stroke-miterlimit:10;" d="M 1.858583 0.408311 L 1.858583 0.4796 " transform="matrix(72,0,0,-72,9.2484,149.61324)"/>
<path style="fill:none;stroke-width:0.0794;stroke-linecap:round;stroke-linejoin:miter;stroke:rgb(0%,0%,0%);stroke-opacity:1;stroke-miterlimit:10;" d="M 1.681392 0.4796 L 1.681392 0.408311 " transform="matrix(72,0,0,-72,9.2484,149.61324)"/>
<path style="fill:none;stroke-width:0.0794;stroke-linecap:round;stroke-linejoin:miter;stroke:rgb(0%,0%,0%);stroke-opacity:1;stroke-miterlimit:10;" d="M 1.583627 0.408311 L 1.583627 0.4796 " transform="matrix(72,0,0,-72,9.2484,149.61324)"/>
<path style="fill:none;stroke-width:0.0794;stroke-linecap:round;stroke-linejoin:miter;stroke:rgb(0%,0%,0%);stroke-opacity:1;stroke-miterlimit:10;" d="M 1.406381 0.4796 L 1.406381 0.408311 " transform="matrix(72,0,0,-72,9.2484,149.61324)"/>
<path style="fill:none;stroke-width:0.0794;stroke-linecap:round;stroke-linejoin:miter;stroke:rgb(0%,0%,0%);stroke-opacity:1;stroke-miterlimit:10;" d="M 1.406381 0.223686 L 1.406381 0.152397 " transform="matrix(72,0,0,-72,9.2484,149.61324)"/>
<path style="fill:none;stroke-width:0.0794;stroke-linecap:round;stroke-linejoin:miter;stroke:rgb(0%,0%,0%);stroke-opacity:1;stroke-miterlimit:10;" d="M 1.583627 0.152397 L 1.583627 0.223686 " transform="matrix(72,0,0,-72,9.2484,149.61324)"/>
<path style="fill:none;stroke-width:0.0794;stroke-linecap:round;stroke-linejoin:miter;stroke:rgb(0%,0%,0%);stroke-opacity:1;stroke-miterlimit:10;" d="M 1.681392 0.223686 L 1.681392 0.152397 " transform="matrix(72,0,0,-72,9.2484,149.61324)"/>
<path style="fill:none;stroke-width:0.0794;stroke-linecap:round;stroke-linejoin:miter;stroke:rgb(0%,0%,0%);stroke-opacity:1;stroke-miterlimit:10;" d="M 1.858583 0.152397 L 1.858583 0.223686 " transform="matrix(72,0,0,-72,9.2484,149.61324)"/>
<path style="fill:none;stroke-width:0.0794;stroke-linecap:round;stroke-linejoin:miter;stroke:rgb(0%,0%,0%);stroke-opacity:1;stroke-miterlimit:10;" d="M 1.956402 0.223686 L 1.956402 0.152397 " transform="matrix(72,0,0,-72,9.2484,149.61324)"/>
<path style="fill:none;stroke-width:0.0794;stroke-linecap:round;stroke-linejoin:miter;stroke:rgb(0%,0%,0%);stroke-opacity:1;stroke-miterlimit:10;" d="M 2.133594 0.152397 L 2.133594 0.223686 " transform="matrix(72,0,0,-72,9.2484,149.61324)"/>
<path style="fill:none;stroke-width:0.0794;stroke-linecap:round;stroke-linejoin:miter;stroke:rgb(0%,0%,0%);stroke-opacity:1;stroke-miterlimit:10;" d="M 2.231413 0.223686 L 2.231413 0.152397 " transform="matrix(72,0,0,-72,9.2484,149.61324)"/>
<path style="fill:none;stroke-width:0.0794;stroke-linecap:round;stroke-linejoin:miter;stroke:rgb(0%,0%,0%);stroke-opacity:1;stroke-miterlimit:10;" d="M 2.408605 0.152397 L 2.408605 0.223686 " transform="matrix(72,0,0,-72,9.2484,149.61324)"/>
<path style=" stroke:none;fill-rule:evenodd;fill:rgb(0%,0%,0%);fill-opacity:1;" d="M 199.867188 121.167969 L 198.179688 119.480469 L 195.796875 119.480469 L 194.109375 121.167969 L 194.109375 123.554688 L 195.796875 125.242188 L 198.179688 125.242188 L 199.867188 123.554688 L 199.867188 121.167969 "/>
<path style=" stroke:none;fill-rule:evenodd;fill:rgb(0%,0%,0%);fill-opacity:1;" d="M 212.46875 130.167969 L 210.78125 128.480469 L 208.394531 128.480469 L 206.707031 130.167969 L 206.707031 132.554688 L 208.394531 134.242188 L 210.78125 134.242188 L 212.46875 132.554688 L 212.46875 130.167969 "/>
<path style=" stroke:none;fill-rule:evenodd;fill:rgb(0%,0%,0%);fill-opacity:1;" d="M 223.269531 133.769531 L 221.582031 132.082031 L 219.195312 132.082031 L 217.507812 133.769531 L 217.507812 136.152344 L 219.195312 137.839844 L 221.582031 137.839844 L 223.269531 136.152344 L 223.269531 133.769531 "/>
<path style=" stroke:none;fill-rule:evenodd;fill:rgb(0%,0%,0%);fill-opacity:1;" d="M 242.167969 134.667969 L 240.480469 132.980469 L 238.09375 132.980469 L 236.410156 134.667969 L 236.410156 137.054688 L 238.09375 138.742188 L 240.480469 138.742188 L 242.167969 137.054688 L 242.167969 134.667969 "/>
<path style=" stroke:none;fill-rule:evenodd;fill:rgb(0%,0%,0%);fill-opacity:1;" d="M 64.53125 63.386719 L 67.65625 63.386719 L 67.65625 62.046875 L 64.53125 62.046875 Z M 64.53125 63.386719 "/>
<path style=" stroke:none;fill-rule:evenodd;fill:rgb(0%,0%,0%);fill-opacity:1;" d="M 64.53125 61.96875 L 67.65625 61.96875 L 67.65625 60.628906 L 64.53125 60.628906 Z M 64.53125 61.96875 "/>
<path style=" stroke:none;fill-rule:evenodd;fill:rgb(0%,0%,0%);fill-opacity:1;" d="M 64.53125 60.550781 L 67.65625 60.550781 L 67.65625 59.210938 L 64.53125 59.210938 Z M 64.53125 60.550781 "/>
<path style=" stroke:none;fill-rule:evenodd;fill:rgb(0%,0%,0%);fill-opacity:1;" d="M 64.53125 59.128906 L 67.65625 59.128906 L 67.65625 57.789062 L 64.53125 57.789062 Z M 64.53125 59.128906 "/>
<path style=" stroke:none;fill-rule:evenodd;fill:rgb(0%,0%,0%);fill-opacity:1;" d="M 64.53125 57.710938 L 67.65625 57.710938 L 67.65625 56.371094 L 64.53125 56.371094 Z M 64.53125 57.710938 "/>
<path style=" stroke:none;fill-rule:evenodd;fill:rgb(0%,0%,0%);fill-opacity:1;" d="M 64.53125 56.292969 L 67.65625 56.292969 L 67.65625 54.953125 L 64.53125 54.953125 Z M 64.53125 56.292969 "/>
<path style=" stroke:none;fill-rule:evenodd;fill:rgb(0%,0%,0%);fill-opacity:1;" d="M 64.53125 54.875 L 67.65625 54.875 L 67.65625 53.535156 L 64.53125 53.535156 Z M 64.53125 54.875 "/>
<path style=" stroke:none;fill-rule:evenodd;fill:rgb(0%,0%,0%);fill-opacity:1;" d="M 50.921875 54.875 L 54.046875 54.875 L 54.046875 53.535156 L 50.921875 53.535156 Z M 50.921875 54.875 "/>
<path style=" stroke:none;fill-rule:evenodd;fill:rgb(0%,0%,0%);fill-opacity:1;" d="M 50.921875 56.292969 L 54.046875 56.292969 L 54.046875 54.953125 L 50.921875 54.953125 Z M 50.921875 56.292969 "/>
<path style=" stroke:none;fill-rule:evenodd;fill:rgb(0%,0%,0%);fill-opacity:1;" d="M 50.921875 57.710938 L 54.046875 57.710938 L 54.046875 56.371094 L 50.921875 56.371094 Z M 50.921875 57.710938 "/>
<path style=" stroke:none;fill-rule:evenodd;fill:rgb(0%,0%,0%);fill-opacity:1;" d="M 50.921875 59.128906 L 54.046875 59.128906 L 54.046875 57.789062 L 50.921875 57.789062 Z M 50.921875 59.128906 "/>
<path style=" stroke:none;fill-rule:evenodd;fill:rgb(0%,0%,0%);fill-opacity:1;" d="M 50.921875 60.550781 L 54.046875 60.550781 L 54.046875 59.210938 L 50.921875 59.210938 Z M 50.921875 60.550781 "/>
<path style=" stroke:none;fill-rule:evenodd;fill:rgb(0%,0%,0%);fill-opacity:1;" d="M 50.921875 61.96875 L 54.046875 61.96875 L 54.046875 60.628906 L 50.921875 60.628906 Z M 50.921875 61.96875 "/>
<path style=" stroke:none;fill-rule:evenodd;fill:rgb(0%,0%,0%);fill-opacity:1;" d="M 50.921875 63.386719 L 54.046875 63.386719 L 54.046875 62.046875 L 50.921875 62.046875 Z M 50.921875 63.386719 "/>
<path style=" stroke:none;fill-rule:evenodd;fill:rgb(0%,0%,0%);fill-opacity:1;" d="M 54.363281 66.828125 L 55.703125 66.828125 L 55.703125 63.703125 L 54.363281 63.703125 Z M 54.363281 66.828125 "/>
<path style=" stroke:none;fill-rule:evenodd;fill:rgb(0%,0%,0%);fill-opacity:1;" d="M 55.78125 66.828125 L 57.121094 66.828125 L 57.121094 63.703125 L 55.78125 63.703125 Z M 55.78125 66.828125 "/>
<path style=" stroke:none;fill-rule:evenodd;fill:rgb(0%,0%,0%);fill-opacity:1;" d="M 57.199219 66.828125 L 58.539062 66.828125 L 58.539062 63.703125 L 57.199219 63.703125 Z M 57.199219 66.828125 "/>
<path style=" stroke:none;fill-rule:evenodd;fill:rgb(0%,0%,0%);fill-opacity:1;" d="M 58.617188 66.828125 L 59.957031 66.828125 L 59.957031 63.703125 L 58.617188 63.703125 Z M 58.617188 66.828125 "/>
<path style=" stroke:none;fill-rule:evenodd;fill:rgb(0%,0%,0%);fill-opacity:1;" d="M 60.039062 66.828125 L 61.378906 66.828125 L 61.378906 63.703125 L 60.039062 63.703125 Z M 60.039062 66.828125 "/>
<path style=" stroke:none;fill-rule:evenodd;fill:rgb(0%,0%,0%);fill-opacity:1;" d="M 61.457031 66.828125 L 62.796875 66.828125 L 62.796875 63.703125 L 61.457031 63.703125 Z M 61.457031 66.828125 "/>
<path style=" stroke:none;fill-rule:evenodd;fill:rgb(0%,0%,0%);fill-opacity:1;" d="M 62.875 66.828125 L 64.214844 66.828125 L 64.214844 63.703125 L 62.875 63.703125 Z M 62.875 66.828125 "/>
<path style=" stroke:none;fill-rule:evenodd;fill:rgb(0%,0%,0%);fill-opacity:1;" d="M 62.875 53.21875 L 64.214844 53.21875 L 64.214844 50.09375 L 62.875 50.09375 Z M 62.875 53.21875 "/>
<path style=" stroke:none;fill-rule:evenodd;fill:rgb(0%,0%,0%);fill-opacity:1;" d="M 61.457031 53.21875 L 62.796875 53.21875 L 62.796875 50.09375 L 61.457031 50.09375 Z M 61.457031 53.21875 "/>
<path style=" stroke:none;fill-rule:evenodd;fill:rgb(0%,0%,0%);fill-opacity:1;" d="M 60.039062 53.21875 L 61.378906 53.21875 L 61.378906 50.09375 L 60.039062 50.09375 Z M 60.039062 53.21875 "/>
<path style=" stroke:none;fill-rule:evenodd;fill:rgb(0%,0%,0%);fill-opacity:1;" d="M 58.617188 53.21875 L 59.957031 53.21875 L 59.957031 50.09375 L 58.617188 50.09375 Z M 58.617188 53.21875 "/>
<path style=" stroke:none;fill-rule:evenodd;fill:rgb(0%,0%,0%);fill-opacity:1;" d="M 57.199219 53.21875 L 58.539062 53.21875 L 58.539062 50.09375 L 57.199219 50.09375 Z M 57.199219 53.21875 "/>
<path style=" stroke:none;fill-rule:evenodd;fill:rgb(0%,0%,0%);fill-opacity:1;" d="M 55.78125 53.21875 L 57.121094 53.21875 L 57.121094 50.09375 L 55.78125 50.09375 Z M 55.78125 53.21875 "/>
<path style=" stroke:none;fill-rule:evenodd;fill:rgb(0%,0%,0%);fill-opacity:1;" d="M 54.363281 53.21875 L 55.703125 53.21875 L 55.703125 50.09375 L 54.363281 50.09375 Z M 54.363281 53.21875 "/>
<path style=" stroke:none;fill-rule:evenodd;fill:rgb(0%,0%,0%);fill-opacity:1;" d="M 54.464844 63.285156 L 64.113281 63.285156 L 64.113281 53.636719 L 54.464844 53.636719 Z M 54.464844 63.285156 "/>
<path style=" stroke:none;fill-rule:evenodd;fill:rgb(0%,0%,0%);fill-opacity:1;" d="M 14.554688 70.597656 L 22.214844 70.597656 L 22.214844 64.355469 L 14.554688 64.355469 Z M 14.554688 70.597656 "/>
<path style=" stroke:none;fill-rule:evenodd;fill:rgb(0%,0%,0%);fill-opacity:1;" d="M 14.554688 45.367188 L 22.214844 45.367188 L 22.214844 39.125 L 14.554688 39.125 Z M 14.554688 45.367188 "/>
<path style=" stroke:none;fill-rule:evenodd;fill:rgb(0%,0%,0%);fill-opacity:1;" d="M 30.144531 45.367188 L 40.074219 45.367188 L 40.074219 39.125 L 30.144531 39.125 Z M 30.144531 45.367188 "/>
<path style=" stroke:none;fill-rule:evenodd;fill:rgb(0%,0%,0%);fill-opacity:1;" d="M 30.144531 70.597656 L 40.074219 70.597656 L 40.074219 64.355469 L 30.144531 64.355469 Z M 30.144531 70.597656 "/>
<path style=" stroke:none;fill-rule:evenodd;fill:rgb(0%,0%,0%);fill-opacity:1;" d="M 30.710938 60.394531 L 40.070312 60.394531 L 40.070312 58.398438 L 30.710938 58.398438 Z M 30.710938 60.394531 "/>
<path style=" stroke:none;fill-rule:evenodd;fill:rgb(0%,0%,0%);fill-opacity:1;" d="M 30.710938 58.125 L 40.070312 58.125 L 40.070312 56.128906 L 30.710938 56.128906 Z M 30.710938 58.125 "/>
<path style=" stroke:none;fill-rule:evenodd;fill:rgb(0%,0%,0%);fill-opacity:1;" d="M 30.710938 55.859375 L 40.070312 55.859375 L 40.070312 53.863281 L 30.710938 53.863281 Z M 30.710938 55.859375 "/>
<path style=" stroke:none;fill-rule:evenodd;fill:rgb(0%,0%,0%);fill-opacity:1;" d="M 30.710938 53.589844 L 40.070312 53.589844 L 40.070312 51.59375 L 30.710938 51.59375 Z M 30.710938 53.589844 "/>
<path style=" stroke:none;fill-rule:evenodd;fill:rgb(0%,0%,0%);fill-opacity:1;" d="M 30.710938 51.324219 L 40.070312 51.324219 L 40.070312 49.328125 L 30.710938 49.328125 Z M 30.710938 51.324219 "/>
<path style=" stroke:none;fill-rule:evenodd;fill:rgb(0%,0%,0%);fill-opacity:1;" d="M 28.449219 61.097656 C 28.449219 59.011719 25.324219 59.011719 25.324219 61.097656 C 25.324219 63.179688 28.449219 63.179688 28.449219 61.097656 "/>
<path style=" stroke:none;fill-rule:evenodd;fill:rgb(0%,0%,0%);fill-opacity:1;" d="M 28.449219 48.625 C 28.449219 46.542969 25.324219 46.542969 25.324219 48.625 C 25.324219 50.710938 28.449219 50.710938 28.449219 48.625 "/>
<path style="fill:none;stroke-width:0.0715;stroke-linecap:round;stroke-linejoin:miter;stroke:rgb(0%,0%,0%);stroke-opacity:1;stroke-miterlimit:10;" d="M 0.244977 0.853515 L 0.308507 0.853515 " transform="matrix(72,0,0,-72,9.2484,149.61324)"/>
<path style="fill:none;stroke-width:0.0715;stroke-linecap:round;stroke-linejoin:miter;stroke:rgb(0%,0%,0%);stroke-opacity:1;stroke-miterlimit:10;" d="M 0.308507 0.753526 L 0.244977 0.753526 " transform="matrix(72,0,0,-72,9.2484,149.61324)"/>
<path style="fill:none;stroke-width:0.0715;stroke-linecap:round;stroke-linejoin:miter;stroke:rgb(0%,0%,0%);stroke-opacity:1;stroke-miterlimit:10;" d="M 0.144988 0.753526 L 0.0815109 0.753526 " transform="matrix(72,0,0,-72,9.2484,149.61324)"/>
<path style="fill:none;stroke-width:0.0715;stroke-linecap:round;stroke-linejoin:miter;stroke:rgb(0%,0%,0%);stroke-opacity:1;stroke-miterlimit:10;" d="M 0.0815109 0.853515 L 0.144988 0.853515 " transform="matrix(72,0,0,-72,9.2484,149.61324)"/>
<path style=" stroke:none;fill-rule:evenodd;fill:rgb(0%,0%,0%);fill-opacity:1;" d="M 210.128906 25.882812 L 216.394531 25.882812 L 216.394531 21.058594 L 210.128906 21.058594 Z M 210.128906 25.882812 "/>
<path style=" stroke:none;fill-rule:evenodd;fill:rgb(0%,0%,0%);fill-opacity:1;" d="M 210.128906 19.402344 L 216.394531 19.402344 L 216.394531 14.578125 L 210.128906 14.578125 Z M 210.128906 19.402344 "/>
<path style=" stroke:none;fill-rule:evenodd;fill:rgb(0%,0%,0%);fill-opacity:1;" d="M 210.128906 12.921875 L 216.394531 12.921875 L 216.394531 8.097656 L 210.128906 8.097656 Z M 210.128906 12.921875 "/>
<path style=" stroke:none;fill-rule:evenodd;fill:rgb(0%,0%,0%);fill-opacity:1;" d="M 227.984375 22.75 L 234.25 22.75 L 234.25 11.375 L 227.984375 11.375 Z M 227.984375 22.75 "/>
<path style=" stroke:none;fill-rule:evenodd;fill:rgb(0%,0%,0%);fill-opacity:1;" d="M 235.558594 32.359375 C 235.558594 28.933594 230.417969 28.933594 230.417969 32.359375 C 230.417969 35.789062 235.558594 35.789062 235.558594 32.359375 "/>
<path style=" stroke:none;fill-rule:evenodd;fill:rgb(0%,0%,0%);fill-opacity:1;" d="M 237.359375 38.660156 C 237.359375 35.234375 232.21875 35.234375 232.21875 38.660156 C 232.21875 42.089844 237.359375 42.089844 237.359375 38.660156 "/>
<path style=" stroke:none;fill-rule:evenodd;fill:rgb(0%,0%,0%);fill-opacity:1;" d="M 240.058594 44.0625 C 240.058594 40.632812 234.917969 40.632812 234.917969 44.0625 C 234.917969 47.488281 240.058594 47.488281 240.058594 44.0625 "/>
<path style=" stroke:none;fill-rule:evenodd;fill:rgb(0%,0%,0%);fill-opacity:1;" d="M 239.160156 51.261719 C 239.160156 47.835938 234.019531 47.835938 234.019531 51.261719 C 234.019531 54.6875 239.160156 54.6875 239.160156 51.261719 "/>
<path style=" stroke:none;fill-rule:evenodd;fill:rgb(0%,0%,0%);fill-opacity:1;" d="M 230.160156 69.261719 C 230.160156 65.835938 225.019531 65.835938 225.019531 69.261719 C 225.019531 72.6875 230.160156 72.6875 230.160156 69.261719 "/>
<path style=" stroke:none;fill-rule:evenodd;fill:rgb(0%,0%,0%);fill-opacity:1;" d="M 218.457031 69.261719 C 218.457031 65.835938 213.316406 65.835938 213.316406 69.261719 C 213.316406 72.6875 218.457031 72.6875 218.457031 69.261719 "/>
<path style=" stroke:none;fill-rule:evenodd;fill:rgb(0%,0%,0%);fill-opacity:1;" d="M 148.257812 69.261719 C 148.257812 65.835938 143.117188 65.835938 143.117188 69.261719 C 143.117188 72.6875 148.257812 72.6875 148.257812 69.261719 "/>
<path style=" stroke:none;fill-rule:evenodd;fill:rgb(0%,0%,0%);fill-opacity:1;" d="M 142.859375 69.261719 C 142.859375 65.835938 137.71875 65.835938 137.71875 69.261719 C 137.71875 72.6875 142.859375 72.6875 142.859375 69.261719 "/>
<path style=" stroke:none;fill-rule:evenodd;fill:rgb(0%,0%,0%);fill-opacity:1;" d="M 137.457031 68.359375 C 137.457031 64.933594 132.316406 64.933594 132.316406 68.359375 C 132.316406 71.789062 137.457031 71.789062 137.457031 68.359375 "/>
<path style=" stroke:none;fill-rule:evenodd;fill:rgb(0%,0%,0%);fill-opacity:1;" d="M 132.058594 70.160156 C 132.058594 66.734375 126.917969 66.734375 126.917969 70.160156 C 126.917969 73.589844 132.058594 73.589844 132.058594 70.160156 "/>
<path style=" stroke:none;fill-rule:evenodd;fill:rgb(0%,0%,0%);fill-opacity:1;" d="M 93.359375 73.761719 C 93.359375 70.335938 88.21875 70.335938 88.21875 73.761719 C 88.21875 77.1875 93.359375 77.1875 93.359375 73.761719 "/>
<path style=" stroke:none;fill-rule:evenodd;fill:rgb(0%,0%,0%);fill-opacity:1;" d="M 71.757812 66.5625 C 71.757812 63.132812 66.617188 63.132812 66.617188 66.5625 C 66.617188 69.988281 71.757812 69.988281 71.757812 66.5625 "/>
<path style=" stroke:none;fill-rule:evenodd;fill:rgb(0%,0%,0%);fill-opacity:1;" d="M 84.359375 41.359375 C 84.359375 37.933594 79.21875 37.933594 79.21875 41.359375 C 79.21875 44.789062 84.359375 44.789062 84.359375 41.359375 "/>
<path style=" stroke:none;fill-rule:evenodd;fill:rgb(0%,0%,0%);fill-opacity:1;" d="M 74.457031 36.859375 C 74.457031 33.433594 69.316406 33.433594 69.316406 36.859375 C 69.316406 40.289062 74.457031 40.289062 74.457031 36.859375 "/>
<path style=" stroke:none;fill-rule:evenodd;fill:rgb(0%,0%,0%);fill-opacity:1;" d="M 82.558594 26.0625 C 82.558594 22.632812 77.417969 22.632812 77.417969 26.0625 C 77.417969 29.488281 82.558594 29.488281 82.558594 26.0625 "/>
<path style=" stroke:none;fill-rule:evenodd;fill:rgb(0%,0%,0%);fill-opacity:1;" d="M 123.957031 13.460938 C 123.957031 10.035156 118.816406 10.035156 118.816406 13.460938 C 118.816406 16.886719 123.957031 16.886719 123.957031 13.460938 "/>
<path style=" stroke:none;fill-rule:evenodd;fill:rgb(0%,0%,0%);fill-opacity:1;" d="M 93.359375 94.460938 C 93.359375 91.035156 88.21875 91.035156 88.21875 94.460938 C 88.21875 97.886719 93.359375 97.886719 93.359375 94.460938 "/>
<path style=" stroke:none;fill-rule:evenodd;fill:rgb(0%,0%,0%);fill-opacity:1;" d="M 116.613281 20.660156 C 116.613281 17.425781 111.761719 17.425781 111.761719 20.660156 C 111.761719 23.894531 116.613281 23.894531 116.613281 20.660156 "/>
</g>
</svg>
