G75*
%MOIN*%
%OFA0B0*%
%FSLAX24Y24*%
%IPPOS*%
%LPD*%
%AMOC8*
5,1,8,0,0,1.08239X$1,22.5*
%
%ADD10C,0.0100*%
%ADD11C,0.0635*%
%ADD12R,0.0800X0.0260*%
%ADD13R,0.0394X0.0433*%
%ADD14R,0.0433X0.0394*%
%ADD15R,0.0630X0.0236*%
%ADD16C,0.0000*%
%ADD17C,0.0640*%
%ADD18R,0.0394X0.1339*%
%ADD19R,0.2677X0.3780*%
%ADD20R,0.0591X0.0512*%
%ADD21R,0.0551X0.0315*%
%ADD22R,0.0748X0.0315*%
%ADD23C,0.0600*%
%ADD24C,0.1200*%
%ADD25R,0.0512X0.0591*%
%ADD26R,0.0315X0.0551*%
%ADD27R,0.0315X0.0748*%
%ADD28C,0.0240*%
%ADD29C,0.0160*%
%ADD30C,0.0594*%
%ADD31C,0.0320*%
%ADD32C,0.0120*%
%ADD33C,0.1299*%
D10*
X000150Y000150D02*
X000150Y017646D01*
X029770Y017646D01*
X029770Y000150D01*
X000150Y000150D01*
X002073Y000825D02*
X002474Y000825D01*
X002073Y001225D01*
X002474Y001225D01*
X002718Y001225D02*
X003118Y000825D01*
X002718Y000825D01*
X002718Y001225D02*
X003118Y001225D01*
X003363Y001225D02*
X003763Y000825D01*
X003363Y000825D01*
X003363Y001225D02*
X003763Y001225D01*
X004007Y001426D02*
X004407Y001025D01*
X004407Y000825D01*
X004407Y001025D02*
X004407Y001426D01*
X004737Y001426D02*
X004737Y001526D01*
X004737Y001225D02*
X004737Y000825D01*
X004837Y000825D02*
X004637Y000825D01*
X004737Y001225D02*
X004837Y001225D01*
X005074Y001225D02*
X005174Y001225D01*
X005374Y001025D01*
X005374Y001225D01*
X005374Y001025D02*
X005374Y000825D01*
X005619Y000825D02*
X005619Y001025D01*
X005919Y001025D01*
X006019Y000925D01*
X005919Y000825D01*
X005619Y000825D01*
X005619Y001025D02*
X005619Y001125D01*
X005719Y001225D01*
X005919Y001225D01*
X006263Y001426D02*
X006263Y000825D01*
X006663Y000825D02*
X006663Y001426D01*
X006463Y001225D01*
X006263Y001426D01*
X006102Y001875D02*
X006502Y001875D01*
X006102Y002275D01*
X006102Y002376D01*
X006202Y002476D01*
X006402Y002476D01*
X006502Y002376D01*
X005857Y002376D02*
X005857Y001975D01*
X005457Y002376D01*
X005457Y001975D01*
X005557Y001875D01*
X005757Y001875D01*
X005857Y001975D01*
X005857Y002376D02*
X005757Y002476D01*
X005557Y002476D01*
X005457Y002376D01*
X005213Y002275D02*
X005013Y002476D01*
X005013Y001875D01*
X005213Y001875D02*
X004813Y001875D01*
X004569Y001975D02*
X004469Y001875D01*
X004268Y001875D01*
X004168Y001975D01*
X004168Y002175D01*
X004268Y002275D01*
X004368Y002275D01*
X004569Y002175D01*
X004569Y002476D01*
X004168Y002476D01*
X004307Y001125D02*
X004007Y000825D01*
X006907Y000825D02*
X007308Y000825D01*
X006907Y001225D01*
X007308Y001225D01*
X007552Y001225D02*
X007952Y000825D01*
X007552Y000825D01*
X007552Y001225D02*
X007952Y001225D01*
X008196Y001225D02*
X008597Y000825D01*
X008196Y000825D01*
X008196Y001225D02*
X008597Y001225D01*
X008900Y001275D02*
X008900Y003650D01*
X019900Y003650D01*
X022275Y006025D01*
X027025Y006025D01*
X029270Y008270D01*
X029270Y002770D01*
X027150Y000650D01*
X009525Y000650D01*
X008900Y001275D01*
X008900Y001332D02*
X027832Y001332D01*
X027734Y001234D02*
X008941Y001234D01*
X009040Y001135D02*
X027635Y001135D01*
X027537Y001037D02*
X009138Y001037D01*
X009237Y000938D02*
X027438Y000938D01*
X027340Y000840D02*
X009335Y000840D01*
X009434Y000741D02*
X027241Y000741D01*
X027931Y001431D02*
X008900Y001431D01*
X008900Y001529D02*
X028029Y001529D01*
X028128Y001628D02*
X008900Y001628D01*
X008900Y001726D02*
X028226Y001726D01*
X028325Y001825D02*
X008900Y001825D01*
X008900Y001923D02*
X028423Y001923D01*
X028522Y002022D02*
X008900Y002022D01*
X008900Y002120D02*
X028620Y002120D01*
X028719Y002219D02*
X008900Y002219D01*
X008900Y002317D02*
X028817Y002317D01*
X028916Y002416D02*
X008900Y002416D01*
X008900Y002514D02*
X029014Y002514D01*
X029113Y002613D02*
X008900Y002613D01*
X008900Y002711D02*
X029211Y002711D01*
X029270Y002810D02*
X008900Y002810D01*
X008900Y002908D02*
X029270Y002908D01*
X029270Y003007D02*
X008900Y003007D01*
X008900Y003105D02*
X029270Y003105D01*
X029270Y003204D02*
X008900Y003204D01*
X008900Y003302D02*
X029270Y003302D01*
X029270Y003401D02*
X008900Y003401D01*
X008900Y003499D02*
X029270Y003499D01*
X029270Y003598D02*
X008900Y003598D01*
X019946Y003696D02*
X029270Y003696D01*
X029270Y003795D02*
X020045Y003795D01*
X020143Y003893D02*
X029270Y003893D01*
X029270Y003992D02*
X020242Y003992D01*
X020340Y004090D02*
X029270Y004090D01*
X029270Y004189D02*
X020439Y004189D01*
X020537Y004287D02*
X029270Y004287D01*
X029270Y004386D02*
X020636Y004386D01*
X020734Y004484D02*
X029270Y004484D01*
X029270Y004583D02*
X020833Y004583D01*
X020931Y004681D02*
X029270Y004681D01*
X029270Y004780D02*
X021030Y004780D01*
X021128Y004878D02*
X029270Y004878D01*
X029270Y004977D02*
X021227Y004977D01*
X021325Y005075D02*
X029270Y005075D01*
X029270Y005174D02*
X021424Y005174D01*
X021522Y005272D02*
X029270Y005272D01*
X029270Y005371D02*
X021621Y005371D01*
X021719Y005469D02*
X029270Y005469D01*
X029270Y005568D02*
X021818Y005568D01*
X021916Y005666D02*
X029270Y005666D01*
X029270Y005765D02*
X022015Y005765D01*
X022113Y005863D02*
X029270Y005863D01*
X029270Y005962D02*
X022212Y005962D01*
X027060Y006060D02*
X029270Y006060D01*
X029270Y006159D02*
X027159Y006159D01*
X027257Y006257D02*
X029270Y006257D01*
X029270Y006356D02*
X027356Y006356D01*
X027454Y006454D02*
X029270Y006454D01*
X029270Y006553D02*
X027553Y006553D01*
X027651Y006651D02*
X029270Y006651D01*
X029270Y006750D02*
X027750Y006750D01*
X027848Y006848D02*
X029270Y006848D01*
X029270Y006947D02*
X027947Y006947D01*
X028045Y007045D02*
X029270Y007045D01*
X029270Y007144D02*
X028144Y007144D01*
X028242Y007242D02*
X029270Y007242D01*
X029270Y007341D02*
X028341Y007341D01*
X028439Y007439D02*
X029270Y007439D01*
X029270Y007538D02*
X028538Y007538D01*
X028636Y007636D02*
X029270Y007636D01*
X029270Y007735D02*
X028735Y007735D01*
X028833Y007833D02*
X029270Y007833D01*
X029270Y007932D02*
X028932Y007932D01*
X029030Y008030D02*
X029270Y008030D01*
X029270Y008129D02*
X029129Y008129D01*
X029227Y008227D02*
X029270Y008227D01*
D11*
X015275Y005650D03*
X014275Y005650D03*
X013275Y005650D03*
X012275Y005650D03*
X011275Y005650D03*
X010275Y005650D03*
X009275Y005650D03*
X008275Y005650D03*
X007275Y005650D03*
X007275Y011650D03*
X008275Y011650D03*
X009275Y011650D03*
X010275Y011650D03*
X011275Y011650D03*
X012275Y011650D03*
X013275Y011650D03*
X014275Y011650D03*
X015275Y011650D03*
D12*
X017190Y010650D03*
X017190Y010150D03*
X017190Y009650D03*
X017190Y009150D03*
X017190Y008650D03*
X017190Y008150D03*
X017190Y007650D03*
X017190Y007150D03*
X019610Y007150D03*
X019610Y007650D03*
X019610Y008150D03*
X019610Y008650D03*
X019610Y009150D03*
X019610Y009650D03*
X019610Y010150D03*
X019610Y010650D03*
X005610Y010275D03*
X005610Y009775D03*
X005610Y009275D03*
X005610Y008775D03*
X005610Y008275D03*
X005610Y007775D03*
X005610Y007275D03*
X005610Y006775D03*
X003190Y006775D03*
X003190Y007275D03*
X003190Y007775D03*
X003190Y008275D03*
X003190Y008775D03*
X003190Y009275D03*
X003190Y009775D03*
X003190Y010275D03*
D13*
X002235Y007150D03*
X001565Y007150D03*
X004190Y005775D03*
X004860Y005775D03*
X008565Y008275D03*
X009235Y008275D03*
X009235Y009150D03*
X008565Y009150D03*
X017190Y011525D03*
X017860Y011525D03*
X020815Y010900D03*
X021485Y010900D03*
X021110Y007275D03*
X020440Y007275D03*
X019735Y015275D03*
X019065Y015275D03*
D14*
X015275Y010860D03*
X014275Y010860D03*
X013275Y010860D03*
X013275Y010190D03*
X014275Y010190D03*
X015275Y010190D03*
X015275Y007110D03*
X015275Y006440D03*
X014275Y006440D03*
X014275Y007110D03*
X013275Y007110D03*
X013275Y006440D03*
X012275Y006440D03*
X012275Y007110D03*
X011275Y007110D03*
X011275Y006440D03*
X009275Y006440D03*
X009275Y007110D03*
X008275Y007110D03*
X008275Y006440D03*
X007275Y006440D03*
X007275Y007110D03*
X007275Y010190D03*
X008275Y010190D03*
X009275Y010190D03*
X009275Y010860D03*
X008275Y010860D03*
X007275Y010860D03*
D15*
X010105Y014525D03*
X010105Y015025D03*
X010105Y015525D03*
X010105Y016025D03*
X012195Y016025D03*
X012195Y015529D03*
X012195Y015029D03*
X012195Y014529D03*
D16*
X005950Y014025D02*
X005952Y014053D01*
X005958Y014080D01*
X005967Y014106D01*
X005980Y014131D01*
X005997Y014154D01*
X006016Y014174D01*
X006038Y014191D01*
X006062Y014205D01*
X006088Y014215D01*
X006115Y014222D01*
X006143Y014225D01*
X006171Y014224D01*
X006198Y014219D01*
X006225Y014210D01*
X006250Y014198D01*
X006273Y014183D01*
X006294Y014164D01*
X006312Y014143D01*
X006327Y014119D01*
X006338Y014093D01*
X006346Y014067D01*
X006350Y014039D01*
X006350Y014011D01*
X006346Y013983D01*
X006338Y013957D01*
X006327Y013931D01*
X006312Y013907D01*
X006294Y013886D01*
X006273Y013867D01*
X006250Y013852D01*
X006225Y013840D01*
X006198Y013831D01*
X006171Y013826D01*
X006143Y013825D01*
X006115Y013828D01*
X006088Y013835D01*
X006062Y013845D01*
X006038Y013859D01*
X006016Y013876D01*
X005997Y013896D01*
X005980Y013919D01*
X005967Y013944D01*
X005958Y013970D01*
X005952Y013997D01*
X005950Y014025D01*
X001950Y014025D02*
X001952Y014053D01*
X001958Y014080D01*
X001967Y014106D01*
X001980Y014131D01*
X001997Y014154D01*
X002016Y014174D01*
X002038Y014191D01*
X002062Y014205D01*
X002088Y014215D01*
X002115Y014222D01*
X002143Y014225D01*
X002171Y014224D01*
X002198Y014219D01*
X002225Y014210D01*
X002250Y014198D01*
X002273Y014183D01*
X002294Y014164D01*
X002312Y014143D01*
X002327Y014119D01*
X002338Y014093D01*
X002346Y014067D01*
X002350Y014039D01*
X002350Y014011D01*
X002346Y013983D01*
X002338Y013957D01*
X002327Y013931D01*
X002312Y013907D01*
X002294Y013886D01*
X002273Y013867D01*
X002250Y013852D01*
X002225Y013840D01*
X002198Y013831D01*
X002171Y013826D01*
X002143Y013825D01*
X002115Y013828D01*
X002088Y013835D01*
X002062Y013845D01*
X002038Y013859D01*
X002016Y013876D01*
X001997Y013896D01*
X001980Y013919D01*
X001967Y013944D01*
X001958Y013970D01*
X001952Y013997D01*
X001950Y014025D01*
D17*
X015775Y015150D03*
X016775Y015150D03*
X017775Y015150D03*
D18*
X024150Y011498D03*
X026150Y011498D03*
D19*
X025150Y007522D03*
D20*
X022400Y008526D03*
X022400Y009274D03*
X027900Y009274D03*
X027900Y008526D03*
D21*
X020995Y014060D03*
X020995Y015240D03*
D22*
X021095Y014650D03*
D23*
X022563Y014750D02*
X022563Y014550D01*
X021727Y014550D01*
X021727Y014750D01*
X022563Y014750D01*
X019500Y011612D02*
X019300Y011612D01*
X019300Y012448D01*
X019500Y012448D01*
X019500Y011612D01*
X019500Y012211D02*
X019300Y012211D01*
D24*
X023775Y014150D03*
X025525Y014150D03*
X027275Y014150D03*
X027275Y016025D03*
X025525Y016025D03*
X023775Y016025D03*
D25*
X011649Y013650D03*
X010901Y013650D03*
D26*
X018810Y013180D03*
X019990Y013180D03*
D27*
X019400Y013080D03*
D28*
X019400Y012030D01*
X018520Y012030D01*
X017775Y012775D01*
X017190Y011610D02*
X016275Y012525D01*
X013866Y012525D01*
X013008Y013383D01*
X012195Y014196D01*
X010901Y013650D02*
X010650Y013399D01*
X010650Y012525D01*
X010650Y012400D01*
X009275Y011650D02*
X009275Y010860D01*
X008275Y010860D02*
X008275Y011650D01*
X007275Y011650D02*
X007275Y010860D01*
X004650Y009025D02*
X004650Y007150D01*
X005025Y006775D01*
X005610Y006775D01*
X007275Y006440D02*
X007275Y005650D01*
X008275Y005650D02*
X008275Y006440D01*
X009275Y006440D02*
X009275Y005650D01*
X011275Y005650D02*
X011275Y006440D01*
X012275Y006440D02*
X012275Y005650D01*
X013275Y005650D02*
X013275Y006440D01*
X014275Y006440D02*
X014275Y005650D01*
X015275Y005650D02*
X015275Y006440D01*
X018775Y004400D02*
X019275Y004900D01*
X019275Y006275D01*
X019400Y006400D01*
X019400Y006940D01*
X019610Y007150D01*
X020315Y007150D01*
X020440Y007275D01*
X022400Y008525D02*
X023650Y007275D01*
X024903Y007275D01*
X025275Y007275D01*
X026650Y007275D01*
X027900Y008525D01*
X027900Y008526D01*
X027900Y009274D02*
X027900Y009275D01*
X026150Y011025D01*
X026150Y011498D01*
X024150Y011498D02*
X024150Y011024D01*
X022400Y009274D01*
X022400Y008526D02*
X022400Y008525D01*
X024903Y007275D02*
X025150Y007522D01*
X024150Y011498D02*
X024150Y011775D01*
X022275Y011775D01*
X022145Y014650D02*
X021095Y014650D01*
X022145Y014650D02*
X022145Y016155D01*
X022025Y016275D01*
X017190Y011610D02*
X017190Y011525D01*
X017190Y010650D01*
X015275Y010860D02*
X015275Y011650D01*
X014275Y011650D02*
X014275Y010860D01*
X013275Y010860D02*
X013275Y011650D01*
D29*
X013275Y010190D02*
X013275Y010025D01*
X011400Y008150D01*
X011150Y008150D01*
X010775Y007775D01*
X010775Y005275D01*
X011025Y005025D01*
X013400Y005025D01*
X013775Y004650D01*
X015775Y004650D01*
X018150Y007025D01*
X018150Y007525D01*
X018275Y007650D01*
X019610Y007650D01*
X019610Y008150D02*
X020525Y008150D01*
X019610Y008650D02*
X018275Y008650D01*
X018025Y008900D01*
X018025Y011275D01*
X017860Y011440D01*
X017860Y011525D01*
X017190Y010650D02*
X017190Y010650D01*
X017190Y010150D02*
X016025Y010150D01*
X015650Y009775D01*
X015525Y009775D01*
X015400Y009650D01*
X015275Y009650D01*
X013775Y008150D01*
X012275Y008150D01*
X011360Y007235D01*
X011275Y007110D01*
X012275Y007110D02*
X012275Y007275D01*
X012775Y007775D01*
X014025Y007775D01*
X015775Y009525D01*
X016525Y009525D01*
X016650Y009650D01*
X017190Y009650D01*
X017190Y009150D02*
X016025Y009150D01*
X014275Y007400D01*
X014275Y007110D01*
X013775Y007025D02*
X013650Y007150D01*
X013315Y007150D01*
X013275Y007110D01*
X013775Y007025D02*
X013775Y005275D01*
X014025Y005025D01*
X015650Y005025D01*
X017150Y006525D01*
X017150Y007110D01*
X017190Y007150D01*
X017190Y007650D02*
X016775Y007650D01*
X016150Y007025D01*
X015275Y007110D02*
X015275Y007775D01*
X016150Y008650D01*
X017190Y008650D01*
X017190Y008150D02*
X016650Y008150D01*
X016400Y007900D01*
X016150Y007900D01*
X014400Y009650D02*
X013775Y009025D01*
X013025Y009025D02*
X014190Y010190D01*
X014275Y010190D01*
X014400Y009650D02*
X014525Y009650D01*
X015065Y010190D01*
X015275Y010190D01*
X019610Y010150D02*
X020775Y010150D01*
X021110Y009815D01*
X021110Y007275D01*
X020150Y009150D02*
X019610Y009150D01*
X020150Y009150D02*
X020275Y009275D01*
X020275Y009400D01*
X020525Y009400D01*
X020275Y009400D02*
X020275Y009525D01*
X020150Y009650D01*
X019610Y009650D01*
X019610Y010650D02*
X020565Y010650D01*
X020815Y010900D01*
X021485Y010900D02*
X021485Y012440D01*
X020775Y013150D01*
X020020Y013150D01*
X019990Y013180D01*
X019735Y015275D02*
X020960Y015275D01*
X020995Y015240D01*
X019065Y015275D02*
X018440Y015900D01*
X014900Y015900D01*
X014029Y015029D01*
X012195Y015029D01*
X012199Y015525D02*
X012195Y015529D01*
X012199Y015525D02*
X013650Y015525D01*
X013775Y015650D01*
X013150Y016025D02*
X012195Y016025D01*
X013150Y016025D02*
X013400Y016275D01*
X014775Y015150D02*
X013008Y013383D01*
X012195Y014196D02*
X012195Y014529D01*
X012195Y014196D02*
X011649Y013650D01*
X011025Y013774D02*
X010901Y013650D01*
X011025Y013774D02*
X011025Y015900D01*
X010900Y016025D01*
X010105Y016025D01*
X010105Y015525D02*
X008775Y015525D01*
X007775Y016525D01*
X003525Y016525D01*
X005525Y015025D02*
X010105Y015025D01*
X010105Y014525D02*
X005775Y014525D01*
X003650Y012400D01*
X002275Y011025D01*
X002275Y009400D01*
X002400Y009275D01*
X003190Y009275D01*
X003190Y009775D02*
X004025Y009775D01*
X005025Y010775D01*
X006400Y010775D01*
X006985Y010190D01*
X007275Y010190D01*
X006775Y009775D02*
X006275Y010275D01*
X005610Y010275D01*
X005610Y009775D02*
X006275Y009775D01*
X006650Y009400D01*
X007900Y009400D01*
X008275Y009775D01*
X008650Y009775D01*
X009065Y010190D01*
X009275Y010190D01*
X009775Y009900D02*
X009775Y011150D01*
X010275Y011650D01*
X008275Y010190D02*
X008190Y010190D01*
X007775Y009775D01*
X006775Y009775D01*
X006275Y009275D02*
X005610Y009275D01*
X006275Y009275D02*
X006525Y009025D01*
X008275Y009025D01*
X008400Y009150D01*
X008565Y009150D01*
X009235Y009150D02*
X009235Y009360D01*
X009775Y009900D01*
X008275Y008275D02*
X008025Y008525D01*
X006525Y008525D01*
X006275Y008775D01*
X005610Y008775D01*
X005610Y008275D02*
X006275Y008275D01*
X006400Y008150D01*
X007900Y008150D01*
X008400Y007650D01*
X009025Y007650D01*
X009275Y007400D01*
X009275Y007110D01*
X009775Y007525D02*
X009775Y006150D01*
X010275Y005650D01*
X008275Y007110D02*
X007735Y007775D01*
X005610Y007775D01*
X005610Y007275D02*
X007110Y007275D01*
X007275Y007110D01*
X005650Y007235D02*
X005610Y007275D01*
X005610Y006775D02*
X004860Y006025D01*
X004860Y005775D01*
X004190Y005775D02*
X004150Y005815D01*
X004150Y008275D01*
X003650Y008775D01*
X003190Y008775D01*
X003190Y008275D02*
X002650Y008275D01*
X002525Y008150D01*
X002525Y008025D01*
X002525Y007900D01*
X002650Y007775D01*
X003190Y007775D01*
X002525Y008025D02*
X002275Y008025D01*
X001775Y008525D01*
X001775Y011275D01*
X005525Y015025D01*
X005275Y011900D02*
X005275Y011400D01*
X008275Y008275D02*
X008565Y008275D01*
X009235Y008275D02*
X009235Y008065D01*
X009775Y007525D01*
X004025Y004025D02*
X017525Y004025D01*
X018025Y004525D01*
X018650Y004525D01*
X018775Y004400D01*
X004025Y004025D02*
X001565Y006485D01*
X001565Y007150D01*
X002235Y007150D02*
X002275Y007150D01*
X002400Y007275D01*
X003190Y007275D01*
X003190Y006775D02*
X003400Y006775D01*
X003400Y005400D01*
X014775Y015150D02*
X014900Y015150D01*
D30*
X014900Y015150D03*
X013775Y015650D03*
X013400Y016275D03*
X008775Y015525D03*
X012400Y013150D03*
X017775Y012775D03*
X022275Y011775D03*
X020525Y009400D03*
X020525Y008150D03*
X019400Y006400D03*
X020150Y004775D03*
X018775Y004400D03*
X016150Y007025D03*
X016150Y007900D03*
X013775Y009025D03*
X013025Y009025D03*
X005900Y004650D03*
X003400Y005400D03*
X002275Y008025D03*
X004650Y009025D03*
X005275Y011900D03*
X003650Y012400D03*
X003525Y016525D03*
X022025Y016275D03*
X028025Y011025D03*
D31*
X026150Y011025D01*
X025150Y012900D02*
X022155Y012900D01*
X020995Y014060D01*
X018775Y014060D01*
X018810Y014025D01*
X018810Y013180D01*
X018775Y014060D02*
X017810Y014060D01*
X016275Y012525D01*
X012400Y013150D02*
X011775Y012525D01*
X010650Y012525D01*
X010650Y012400D02*
X011275Y011775D01*
X011275Y011650D01*
X012275Y011650D01*
X010650Y012400D02*
X007150Y012400D01*
X006150Y011400D01*
X005275Y011400D01*
X004315Y011400D01*
X003190Y010275D01*
X005900Y006650D02*
X005900Y004650D01*
X020150Y004775D02*
X024775Y004775D01*
X025025Y004525D01*
X025025Y007025D01*
X025275Y007275D01*
X025150Y007522D02*
X025150Y012900D01*
D32*
X005900Y006650D02*
X005735Y006650D01*
X005610Y006775D01*
D33*
X001025Y001025D03*
X001025Y016775D03*
X028900Y016775D03*
X028900Y001025D03*
M02*
