G75*
%MOIN*%
%OFA0B0*%
%FSLAX24Y24*%
%IPPOS*%
%LPD*%
%AMOC8*
5,1,8,0,0,1.08239X$1,22.5*
%
%ADD10C,0.0100*%
%ADD11C,0.0120*%
%ADD12C,0.0140*%
%ADD13C,0.0635*%
%ADD14R,0.0512X0.0591*%
%ADD15R,0.0591X0.0512*%
%ADD16C,0.0600*%
%ADD17C,0.0000*%
%ADD18C,0.0050*%
%ADD19R,0.0610X0.0512*%
%ADD20C,0.0640*%
%ADD21C,0.1200*%
%ADD22R,0.0394X0.0433*%
%ADD23R,0.0433X0.0394*%
%ADD24C,0.0240*%
%ADD25C,0.0594*%
%ADD26C,0.0160*%
%ADD27C,0.0320*%
%ADD28C,0.1299*%
D10*
X000150Y000150D02*
X000150Y017646D01*
X029770Y017646D01*
X029770Y000150D01*
X000150Y000150D01*
X002072Y000825D02*
X002472Y000825D01*
X002717Y000825D02*
X003117Y000825D01*
X003361Y000825D02*
X003761Y000825D01*
X004006Y000825D02*
X004006Y001426D01*
X004206Y001225D01*
X004406Y001426D01*
X004406Y000825D01*
X004650Y000925D02*
X004750Y001025D01*
X005051Y001025D01*
X005051Y000825D01*
X004750Y000825D01*
X004650Y000925D01*
X004750Y001225D02*
X004950Y001225D01*
X005051Y001125D01*
X005051Y001025D01*
X005295Y001025D02*
X005295Y000825D01*
X005295Y001025D02*
X005495Y001225D01*
X005595Y001225D01*
X005832Y001225D02*
X005932Y001225D01*
X005932Y000825D01*
X005832Y000825D02*
X006032Y000825D01*
X006262Y000825D02*
X006262Y001025D01*
X006362Y001125D01*
X006662Y000825D01*
X006906Y000825D02*
X007307Y000825D01*
X007551Y000825D02*
X007951Y000825D01*
X008195Y000825D02*
X008596Y000825D01*
X008596Y001225D02*
X008195Y000825D01*
X008195Y001225D02*
X008596Y001225D01*
X007951Y001225D02*
X007551Y000825D01*
X007551Y001225D02*
X007951Y001225D01*
X007307Y001225D02*
X006906Y000825D01*
X006906Y001225D02*
X007307Y001225D01*
X006662Y001426D02*
X006362Y001125D01*
X006262Y001025D02*
X006262Y001426D01*
X005932Y001426D02*
X005932Y001526D01*
X005856Y001875D02*
X005456Y001875D01*
X005656Y001875D02*
X005656Y002476D01*
X005456Y002275D01*
X005212Y002376D02*
X005212Y001975D01*
X005112Y001875D01*
X004911Y001875D01*
X004811Y001975D01*
X005212Y002376D01*
X005112Y002476D01*
X004911Y002476D01*
X004811Y002376D01*
X004811Y001975D01*
X004567Y001875D02*
X004167Y001875D01*
X004567Y002275D01*
X004567Y002376D01*
X004467Y002476D01*
X004267Y002476D01*
X004167Y002376D01*
X003761Y001225D02*
X003361Y001225D01*
X003117Y001225D02*
X002717Y000825D01*
X002717Y001225D02*
X003117Y001225D01*
X003361Y000825D02*
X003761Y001225D01*
X002472Y001225D02*
X002072Y000825D01*
X002072Y001225D02*
X002472Y001225D01*
X005295Y001225D02*
X005295Y001025D01*
X006201Y001875D02*
X006100Y001975D01*
X006201Y001875D02*
X006401Y001875D01*
X006501Y001975D01*
X006501Y002175D01*
X006401Y002275D01*
X006301Y002275D01*
X006100Y002175D01*
X006100Y002476D01*
X006501Y002476D01*
D11*
X006089Y014025D02*
X006091Y014040D01*
X006097Y014054D01*
X006106Y014067D01*
X006117Y014077D01*
X006131Y014083D01*
X006146Y014086D01*
X006161Y014085D01*
X006176Y014080D01*
X006189Y014072D01*
X006199Y014061D01*
X006207Y014047D01*
X006211Y014033D01*
X006211Y014017D01*
X006207Y014003D01*
X006199Y013989D01*
X006189Y013978D01*
X006176Y013970D01*
X006161Y013965D01*
X006146Y013964D01*
X006131Y013967D01*
X006117Y013973D01*
X006106Y013983D01*
X006097Y013996D01*
X006091Y014010D01*
X006089Y014025D01*
X002089Y014025D02*
X002091Y014040D01*
X002097Y014054D01*
X002106Y014067D01*
X002117Y014077D01*
X002131Y014083D01*
X002146Y014086D01*
X002161Y014085D01*
X002176Y014080D01*
X002189Y014072D01*
X002199Y014061D01*
X002207Y014047D01*
X002211Y014033D01*
X002211Y014017D01*
X002207Y014003D01*
X002199Y013989D01*
X002189Y013978D01*
X002176Y013970D01*
X002161Y013965D01*
X002146Y013964D01*
X002131Y013967D01*
X002117Y013973D01*
X002106Y013983D01*
X002097Y013996D01*
X002091Y014010D01*
X002089Y014025D01*
D12*
X019625Y002831D02*
X020198Y002831D01*
X019912Y002831D02*
X019912Y001970D01*
X020546Y001970D02*
X020546Y002400D01*
X020689Y002544D01*
X020976Y002544D01*
X021119Y002400D01*
X021119Y001970D01*
X021466Y002113D02*
X021466Y002257D01*
X022040Y002257D01*
X022040Y002400D01*
X021897Y002544D01*
X021610Y002544D01*
X021466Y002400D01*
X021466Y002257D01*
X021466Y002113D02*
X021610Y001970D01*
X021897Y001970D01*
X022387Y001970D02*
X022387Y002257D01*
X022674Y002544D01*
X022817Y002544D01*
X023154Y002544D02*
X023298Y002544D01*
X023441Y002400D01*
X023585Y002544D01*
X023728Y002400D01*
X023728Y001970D01*
X023441Y001970D02*
X023441Y002400D01*
X023154Y002544D02*
X023154Y001970D01*
X022387Y002257D02*
X022387Y002544D01*
X022454Y003420D02*
X022454Y003994D01*
X022310Y003994D01*
X021963Y004137D02*
X021820Y004281D01*
X021533Y004281D01*
X021390Y004137D01*
X021390Y003994D01*
X021533Y003850D01*
X021820Y003850D01*
X021963Y003707D01*
X021963Y003563D01*
X021820Y003420D01*
X021533Y003420D01*
X021390Y003563D01*
X022310Y003420D02*
X022597Y003420D01*
X022924Y003420D02*
X022924Y003994D01*
X023068Y003994D01*
X023211Y003850D01*
X023355Y003994D01*
X023498Y003850D01*
X023498Y003420D01*
X023211Y003420D02*
X023211Y003850D01*
X023845Y003994D02*
X023845Y003420D01*
X024275Y003420D01*
X024419Y003563D01*
X024419Y003850D01*
X024275Y003994D01*
X023845Y003994D01*
X023845Y003420D02*
X023845Y003133D01*
X024219Y002544D02*
X024075Y002400D01*
X024075Y002113D01*
X024219Y001970D01*
X024506Y001970D01*
X024649Y002113D01*
X024649Y002400D01*
X024506Y002544D01*
X024219Y002544D01*
X024996Y002400D02*
X025139Y002257D01*
X025426Y002257D01*
X025570Y002113D01*
X025426Y001970D01*
X024996Y001970D01*
X024996Y002400D02*
X025139Y002544D01*
X025570Y002544D01*
X025917Y002544D02*
X026204Y002544D01*
X026060Y002687D02*
X026060Y002113D01*
X026204Y001970D01*
X026531Y002113D02*
X026674Y002257D01*
X027104Y002257D01*
X027104Y001970D01*
X026674Y001970D01*
X026531Y002113D01*
X027104Y002257D02*
X027104Y002400D01*
X026961Y002544D01*
X026674Y002544D01*
X027452Y002544D02*
X027738Y002544D01*
X027595Y002687D02*
X027595Y002113D01*
X027738Y001970D01*
X025810Y003420D02*
X025523Y003420D01*
X025380Y003563D01*
X025380Y003707D01*
X025954Y003707D01*
X025954Y003850D01*
X025810Y003994D01*
X025523Y003994D01*
X025380Y003850D01*
X025380Y003707D01*
X025053Y003420D02*
X024766Y003420D01*
X024909Y003420D02*
X024909Y004281D01*
X024766Y004281D01*
X022454Y004281D02*
X022454Y004424D01*
X020546Y002831D02*
X020546Y002400D01*
D13*
X015275Y005650D03*
X014275Y005650D03*
X013275Y005650D03*
X012275Y005650D03*
X011275Y005650D03*
X010275Y005650D03*
X009275Y005650D03*
X008275Y005650D03*
X007275Y005650D03*
X007275Y011650D03*
X008275Y011650D03*
X009275Y011650D03*
X010275Y011650D03*
X011275Y011650D03*
X012275Y011650D03*
X013275Y011650D03*
X014275Y011650D03*
X015275Y011650D03*
D14*
X017776Y006400D03*
X018524Y006400D03*
D15*
X004525Y009776D03*
X004525Y010524D03*
D16*
X004150Y014025D03*
X003150Y014025D03*
X003150Y015025D03*
X004150Y015025D03*
X005150Y015025D03*
X005150Y014025D03*
D17*
X005950Y014025D02*
X005952Y014053D01*
X005958Y014080D01*
X005967Y014106D01*
X005980Y014131D01*
X005997Y014154D01*
X006016Y014174D01*
X006038Y014191D01*
X006062Y014205D01*
X006088Y014215D01*
X006115Y014222D01*
X006143Y014225D01*
X006171Y014224D01*
X006198Y014219D01*
X006225Y014210D01*
X006250Y014198D01*
X006273Y014183D01*
X006294Y014164D01*
X006312Y014143D01*
X006327Y014119D01*
X006338Y014093D01*
X006346Y014067D01*
X006350Y014039D01*
X006350Y014011D01*
X006346Y013983D01*
X006338Y013957D01*
X006327Y013931D01*
X006312Y013907D01*
X006294Y013886D01*
X006273Y013867D01*
X006250Y013852D01*
X006225Y013840D01*
X006198Y013831D01*
X006171Y013826D01*
X006143Y013825D01*
X006115Y013828D01*
X006088Y013835D01*
X006062Y013845D01*
X006038Y013859D01*
X006016Y013876D01*
X005997Y013896D01*
X005980Y013919D01*
X005967Y013944D01*
X005958Y013970D01*
X005952Y013997D01*
X005950Y014025D01*
X001950Y014025D02*
X001952Y014053D01*
X001958Y014080D01*
X001967Y014106D01*
X001980Y014131D01*
X001997Y014154D01*
X002016Y014174D01*
X002038Y014191D01*
X002062Y014205D01*
X002088Y014215D01*
X002115Y014222D01*
X002143Y014225D01*
X002171Y014224D01*
X002198Y014219D01*
X002225Y014210D01*
X002250Y014198D01*
X002273Y014183D01*
X002294Y014164D01*
X002312Y014143D01*
X002327Y014119D01*
X002338Y014093D01*
X002346Y014067D01*
X002350Y014039D01*
X002350Y014011D01*
X002346Y013983D01*
X002338Y013957D01*
X002327Y013931D01*
X002312Y013907D01*
X002294Y013886D01*
X002273Y013867D01*
X002250Y013852D01*
X002225Y013840D01*
X002198Y013831D01*
X002171Y013826D01*
X002143Y013825D01*
X002115Y013828D01*
X002088Y013835D01*
X002062Y013845D01*
X002038Y013859D01*
X002016Y013876D01*
X001997Y013896D01*
X001980Y013919D01*
X001967Y013944D01*
X001958Y013970D01*
X001952Y013997D01*
X001950Y014025D01*
D18*
X002050Y014025D02*
X002052Y014045D01*
X002058Y014063D01*
X002067Y014081D01*
X002079Y014096D01*
X002094Y014108D01*
X002112Y014117D01*
X002130Y014123D01*
X002150Y014125D01*
X002170Y014123D01*
X002188Y014117D01*
X002206Y014108D01*
X002221Y014096D01*
X002233Y014081D01*
X002242Y014063D01*
X002248Y014045D01*
X002250Y014025D01*
X002248Y014005D01*
X002242Y013987D01*
X002233Y013969D01*
X002221Y013954D01*
X002206Y013942D01*
X002188Y013933D01*
X002170Y013927D01*
X002150Y013925D01*
X002130Y013927D01*
X002112Y013933D01*
X002094Y013942D01*
X002079Y013954D01*
X002067Y013969D01*
X002058Y013987D01*
X002052Y014005D01*
X002050Y014025D01*
X006050Y014025D02*
X006052Y014045D01*
X006058Y014063D01*
X006067Y014081D01*
X006079Y014096D01*
X006094Y014108D01*
X006112Y014117D01*
X006130Y014123D01*
X006150Y014125D01*
X006170Y014123D01*
X006188Y014117D01*
X006206Y014108D01*
X006221Y014096D01*
X006233Y014081D01*
X006242Y014063D01*
X006248Y014045D01*
X006250Y014025D01*
X006248Y014005D01*
X006242Y013987D01*
X006233Y013969D01*
X006221Y013954D01*
X006206Y013942D01*
X006188Y013933D01*
X006170Y013927D01*
X006150Y013925D01*
X006130Y013927D01*
X006112Y013933D01*
X006094Y013942D01*
X006079Y013954D01*
X006067Y013969D01*
X006058Y013987D01*
X006052Y014005D01*
X006050Y014025D01*
D19*
X009710Y003286D03*
X009710Y001514D03*
X012840Y001514D03*
X012840Y003286D03*
D20*
X015775Y015150D03*
X016775Y015150D03*
X017775Y015150D03*
D21*
X023775Y016025D03*
X025525Y016025D03*
X027275Y016025D03*
X027275Y014150D03*
X025525Y014150D03*
X023775Y014150D03*
D22*
X014860Y013775D03*
X014190Y013775D03*
X005610Y012650D03*
X004940Y012650D03*
D23*
X005025Y004360D03*
X005025Y003690D03*
D24*
X003735Y003690D01*
X000900Y006525D01*
X000900Y013900D01*
X003525Y016525D01*
X005275Y011900D02*
X005275Y011274D01*
X004525Y010524D01*
X004525Y009776D02*
X004650Y009651D01*
X004650Y009025D01*
X005025Y003690D02*
X009306Y003690D01*
X009710Y003286D01*
X012840Y001514D02*
X015889Y001514D01*
X018775Y004400D01*
X018150Y005525D02*
X017776Y005899D01*
X017776Y006400D01*
X018524Y006400D02*
X019400Y006400D01*
X021650Y006400D01*
X023338Y008088D01*
X022400Y012775D02*
X017775Y012775D01*
X022400Y012775D02*
X023775Y014150D01*
X023775Y016025D02*
X023525Y016275D01*
X022025Y016275D01*
D25*
X022025Y016275D03*
X017775Y012775D03*
X014900Y015150D03*
X013775Y015650D03*
X013400Y016275D03*
X008775Y015525D03*
X012400Y013150D03*
X013025Y009025D03*
X013775Y009025D03*
X016150Y007900D03*
X016150Y007025D03*
X019400Y006400D03*
X020150Y004775D03*
X018775Y004400D03*
X020525Y008150D03*
X020525Y009400D03*
X022275Y011775D03*
X028025Y011025D03*
X005900Y004650D03*
X003400Y005400D03*
X002275Y008025D03*
X004650Y009025D03*
X005275Y011900D03*
X003650Y012400D03*
X003525Y016525D03*
D26*
X004150Y015025D02*
X003650Y014525D01*
X003650Y012400D01*
X004940Y012650D02*
X005025Y012565D01*
X005025Y011900D01*
X005275Y011900D01*
X005610Y012650D02*
X009025Y012650D01*
X012400Y016025D01*
X013150Y016025D01*
X013400Y016275D01*
X013775Y015650D02*
X013900Y015650D01*
X014025Y015525D01*
X014025Y014400D01*
X014025Y013940D01*
X014190Y013775D01*
X014860Y013775D02*
X015485Y013150D01*
X015650Y013150D01*
X017650Y015150D01*
X017775Y015150D01*
X016775Y015150D02*
X016775Y014900D01*
X016275Y014400D01*
X014025Y014400D01*
X014900Y015150D02*
X015775Y015150D01*
X015775Y015650D01*
X014650Y016775D01*
X006900Y016775D01*
X005150Y015025D01*
X004650Y014525D02*
X007150Y014525D01*
X008150Y015525D01*
X008775Y015525D01*
X005610Y013565D02*
X005610Y012650D01*
X005610Y013565D02*
X005150Y014025D01*
X004650Y014525D02*
X004150Y014025D01*
X003150Y014025D02*
X001775Y012650D01*
X001775Y008650D01*
X002275Y008150D01*
X002275Y008025D01*
X011275Y008025D01*
X012775Y009525D01*
X014150Y009525D01*
X014275Y009400D01*
X020525Y009400D01*
X020525Y008150D02*
X017275Y008150D01*
X016775Y007650D01*
X016775Y006900D01*
X016275Y006400D01*
X015400Y006400D01*
X015025Y006775D01*
X006900Y006775D01*
X006400Y006275D01*
X006400Y005400D01*
X003400Y005400D01*
X005025Y004360D02*
X005610Y004360D01*
X005900Y004650D01*
X009710Y003286D02*
X012840Y003286D01*
X012840Y001514D02*
X009710Y001514D01*
X015650Y007525D02*
X016150Y007025D01*
X015650Y007525D02*
X013775Y007525D01*
X013025Y008275D01*
X013025Y009025D01*
X013775Y009025D02*
X013775Y008400D01*
X014150Y008025D01*
X016025Y008025D01*
X016150Y007900D01*
D27*
X018275Y005650D02*
X018150Y005525D01*
X016900Y004275D01*
X006275Y004275D01*
X005900Y004650D01*
X018275Y005650D02*
X020150Y005650D01*
X020150Y004775D01*
X020150Y005650D02*
X026025Y005650D01*
X028900Y008525D01*
X028900Y012525D01*
X027275Y014150D01*
X025525Y014150D02*
X025525Y013150D01*
X024150Y011775D01*
X022275Y011775D01*
X021150Y010275D02*
X023338Y008088D01*
X026275Y011025D01*
X028025Y011025D01*
X025525Y014150D02*
X025525Y016025D01*
X027275Y016025D01*
X021150Y010275D02*
X018525Y010275D01*
X015650Y013150D01*
X015485Y013150D02*
X012400Y013150D01*
D28*
X001025Y016775D03*
X001025Y001025D03*
X028900Y001025D03*
X028900Y016775D03*
M02*
