<?xml version="1.0" encoding="UTF-8"?>
<svg xmlns="http://www.w3.org/2000/svg" xmlns:xlink="http://www.w3.org/1999/xlink" width="155pt" height="63pt" viewBox="0 0 155 63" version="1.1">
<g id="surface40489">
<path style="fill:none;stroke-width:0.012;stroke-linecap:round;stroke-linejoin:miter;stroke:rgb(0%,0%,0%);stroke-opacity:1;stroke-miterlimit:10;" d="M -0.00000928881 -0.0000223085 L -0.00000928881 0.787521 " transform="matrix(72,0,0,-72,147.8952,59.6898)"/>
<path style="fill:none;stroke-width:0.012;stroke-linecap:round;stroke-linejoin:miter;stroke:rgb(0%,0%,0%);stroke-opacity:1;stroke-miterlimit:10;" d="M -0.00000928881 0.787521 L -1.949988 0.787521 " transform="matrix(72,0,0,-72,147.8952,59.6898)"/>
<path style="fill:none;stroke-width:0.012;stroke-linecap:round;stroke-linejoin:miter;stroke:rgb(0%,0%,0%);stroke-opacity:1;stroke-miterlimit:10;" d="M -1.949988 0.787521 L -1.949988 -0.0000223085 " transform="matrix(72,0,0,-72,147.8952,59.6898)"/>
<path style="fill:none;stroke-width:0.012;stroke-linecap:round;stroke-linejoin:miter;stroke:rgb(0%,0%,0%);stroke-opacity:1;stroke-miterlimit:10;" d="M -1.949988 -0.0000223085 L -0.00000928881 -0.0000223085 " transform="matrix(72,0,0,-72,147.8952,59.6898)"/>
<path style=" stroke:none;fill-rule:evenodd;fill:rgb(0%,0%,0%);fill-opacity:1;" d="M 37.757813 26.105469 L 42.019531 26.105469 L 42.019531 21.277344 L 37.757813 21.277344 Z "/>
<path style=" stroke:none;fill-rule:evenodd;fill:rgb(0%,0%,0%);fill-opacity:1;" d="M 32.371094 26.105469 L 36.632813 26.105469 L 36.632813 21.277344 L 32.371094 21.277344 Z "/>
<path style=" stroke:none;fill-rule:evenodd;fill:rgb(0%,0%,0%);fill-opacity:1;" d="M 84.28125 49.226563 L 89.109375 49.226563 L 89.109375 44.964844 L 84.28125 44.964844 Z "/>
<path style=" stroke:none;fill-rule:evenodd;fill:rgb(0%,0%,0%);fill-opacity:1;" d="M 84.28125 54.613281 L 89.109375 54.613281 L 89.109375 50.351563 L 84.28125 50.351563 Z "/>
<path style=" stroke:none;fill-rule:evenodd;fill:rgb(0%,0%,0%);fill-opacity:1;" d="M 76.324219 48.089844 L 80.867188 48.089844 L 80.867188 42.976563 L 76.324219 42.976563 Z "/>
<path style=" stroke:none;fill-rule:evenodd;fill:rgb(0%,0%,0%);fill-opacity:1;" d="M 76.324219 56.601563 L 80.867188 56.601563 L 80.867188 51.488281 L 76.324219 51.488281 Z "/>
<path style=" stroke:none;fill-rule:evenodd;fill:rgb(0%,0%,0%);fill-opacity:1;" d="M 125.304688 32.894531 L 132.683594 32.894531 L 132.683594 25.515625 L 125.304688 25.515625 Z "/>
<path style=" stroke:none;fill-rule:evenodd;fill:rgb(0%,0%,0%);fill-opacity:1;" d="M 125.304688 47.0625 L 132.683594 47.0625 L 132.683594 39.683594 L 125.304688 39.683594 Z "/>
<path style=" stroke:none;fill-rule:evenodd;fill:rgb(0%,0%,0%);fill-opacity:1;" d="M 118.480469 37.527344 L 123.308594 37.527344 L 123.308594 33.265625 L 118.480469 33.265625 Z "/>
<path style=" stroke:none;fill-rule:evenodd;fill:rgb(0%,0%,0%);fill-opacity:1;" d="M 118.480469 42.914063 L 123.308594 42.914063 L 123.308594 38.652344 L 118.480469 38.652344 Z "/>
<path style=" stroke:none;fill-rule:evenodd;fill:rgb(0%,0%,0%);fill-opacity:1;" d="M 109.199219 46.738281 L 114.59375 46.738281 L 114.59375 41.058594 L 109.199219 41.058594 Z "/>
<path style=" stroke:none;fill-rule:evenodd;fill:rgb(0%,0%,0%);fill-opacity:1;" d="M 109.199219 35.117188 L 114.59375 35.117188 L 114.59375 29.4375 L 109.199219 29.4375 Z "/>
<path style=" stroke:none;fill-rule:evenodd;fill:rgb(0%,0%,0%);fill-opacity:1;" d="M 51.703125 11.089844 C 51.703125 4.945313 42.488281 4.945313 42.488281 11.089844 C 42.488281 17.234375 51.703125 17.234375 51.703125 11.089844 "/>
<path style=" stroke:none;fill-rule:evenodd;fill:rgb(0%,0%,0%);fill-opacity:1;" d="M 62.503906 11.089844 C 62.503906 4.945313 53.289063 4.945313 53.289063 11.089844 C 53.289063 17.234375 62.503906 17.234375 62.503906 11.089844 "/>
<path style=" stroke:none;fill-rule:evenodd;fill:rgb(0%,0%,0%);fill-opacity:1;" d="M 115.601563 11.089844 C 115.601563 4.945313 106.386719 4.945313 106.386719 11.089844 C 106.386719 17.234375 115.601563 17.234375 115.601563 11.089844 "/>
<path style=" stroke:none;fill-rule:evenodd;fill:rgb(0%,0%,0%);fill-opacity:1;" d="M 128.203125 11.089844 C 128.203125 4.945313 118.988281 4.945313 118.988281 11.089844 C 118.988281 17.234375 128.203125 17.234375 128.203125 11.089844 "/>
<path style=" stroke:none;fill-rule:evenodd;fill:rgb(0%,0%,0%);fill-opacity:1;" d="M 88.207031 42.085938 L 103.183594 42.085938 L 103.183594 32.292969 L 88.207031 32.292969 Z "/>
<path style=" stroke:none;fill-rule:evenodd;fill:rgb(0%,0%,0%);fill-opacity:1;" d="M 88.207031 22.285156 L 103.183594 22.285156 L 103.183594 12.492188 L 88.207031 12.492188 Z "/>
<path style=" stroke:none;fill-rule:evenodd;fill:rgb(0%,0%,0%);fill-opacity:1;" d="M 26.449219 53.011719 L 29.292969 53.011719 L 29.292969 50.167969 L 26.449219 50.167969 Z "/>
<path style=" stroke:none;fill-rule:evenodd;fill:rgb(0%,0%,0%);fill-opacity:1;" d="M 30.699219 53.011719 L 33.542969 53.011719 L 33.542969 50.167969 L 30.699219 50.167969 Z "/>
<path style=" stroke:none;fill-rule:evenodd;fill:rgb(0%,0%,0%);fill-opacity:1;" d="M 14.296875 35.910156 L 17.425781 35.910156 L 17.425781 33.066406 L 14.296875 33.066406 Z "/>
<path style=" stroke:none;fill-rule:evenodd;fill:rgb(0%,0%,0%);fill-opacity:1;" d="M 8.632813 38.605469 L 11.761719 38.605469 L 11.761719 35.761719 L 8.632813 35.761719 Z "/>
<path style=" stroke:none;fill-rule:evenodd;fill:rgb(0%,0%,0%);fill-opacity:1;" d="M 8.632813 33.21875 L 11.761719 33.21875 L 11.761719 30.375 L 8.632813 30.375 Z "/>
<path style=" stroke:none;fill-rule:evenodd;fill:rgb(0%,0%,0%);fill-opacity:1;" d="M 12.863281 27.8125 L 15.992188 27.8125 L 15.992188 24.96875 L 12.863281 24.96875 Z "/>
<path style=" stroke:none;fill-rule:evenodd;fill:rgb(0%,0%,0%);fill-opacity:1;" d="M 18.53125 25.117188 L 21.660156 25.117188 L 21.660156 22.273438 L 18.53125 22.273438 Z "/>
<path style=" stroke:none;fill-rule:evenodd;fill:rgb(0%,0%,0%);fill-opacity:1;" d="M 18.53125 30.503906 L 21.660156 30.503906 L 21.660156 27.660156 L 18.53125 27.660156 Z "/>
<path style=" stroke:none;fill-rule:evenodd;fill:rgb(0%,0%,0%);fill-opacity:1;" d="M 53.058594 24.304688 L 57.320313 24.304688 L 57.320313 19.476563 L 53.058594 19.476563 Z "/>
<path style=" stroke:none;fill-rule:evenodd;fill:rgb(0%,0%,0%);fill-opacity:1;" d="M 47.671875 24.304688 L 51.933594 24.304688 L 51.933594 19.476563 L 47.671875 19.476563 Z "/>
<path style=" stroke:none;fill-rule:evenodd;fill:rgb(0%,0%,0%);fill-opacity:1;" d="M 21.570313 35.105469 L 25.832031 35.105469 L 25.832031 30.277344 L 21.570313 30.277344 Z "/>
<path style=" stroke:none;fill-rule:evenodd;fill:rgb(0%,0%,0%);fill-opacity:1;" d="M 26.957031 35.105469 L 31.21875 35.105469 L 31.21875 30.277344 L 26.957031 30.277344 Z "/>
<path style=" stroke:none;fill-rule:evenodd;fill:rgb(0%,0%,0%);fill-opacity:1;" d="M 118.480469 25.828125 L 123.308594 25.828125 L 123.308594 21.566406 L 118.480469 21.566406 Z "/>
<path style=" stroke:none;fill-rule:evenodd;fill:rgb(0%,0%,0%);fill-opacity:1;" d="M 118.480469 31.214844 L 123.308594 31.214844 L 123.308594 26.953125 L 118.480469 26.953125 Z "/>
<path style=" stroke:none;fill-rule:evenodd;fill:rgb(0%,0%,0%);fill-opacity:1;" d="M 134.679688 32.113281 L 139.507813 32.113281 L 139.507813 27.851563 L 134.679688 27.851563 Z "/>
<path style=" stroke:none;fill-rule:evenodd;fill:rgb(0%,0%,0%);fill-opacity:1;" d="M 134.679688 26.726563 L 139.507813 26.726563 L 139.507813 22.464844 L 134.679688 22.464844 Z "/>
<path style=" stroke:none;fill-rule:evenodd;fill:rgb(0%,0%,0%);fill-opacity:1;" d="M 134.679688 43.8125 L 139.507813 43.8125 L 139.507813 39.550781 L 134.679688 39.550781 Z "/>
<path style=" stroke:none;fill-rule:evenodd;fill:rgb(0%,0%,0%);fill-opacity:1;" d="M 134.679688 38.425781 L 139.507813 38.425781 L 139.507813 34.164063 L 134.679688 34.164063 Z "/>
<path style=" stroke:none;fill-rule:evenodd;fill:rgb(0%,0%,0%);fill-opacity:1;" d="M 56.382813 33.027344 L 61.210938 33.027344 L 61.210938 28.765625 L 56.382813 28.765625 Z "/>
<path style=" stroke:none;fill-rule:evenodd;fill:rgb(0%,0%,0%);fill-opacity:1;" d="M 56.382813 38.414063 L 61.210938 38.414063 L 61.210938 34.152344 L 56.382813 34.152344 Z "/>
<path style=" stroke:none;fill-rule:evenodd;fill:rgb(0%,0%,0%);fill-opacity:1;" d="M 26.679688 49.214844 L 31.507813 49.214844 L 31.507813 44.953125 L 26.679688 44.953125 Z "/>
<path style=" stroke:none;fill-rule:evenodd;fill:rgb(0%,0%,0%);fill-opacity:1;" d="M 26.679688 43.828125 L 31.507813 43.828125 L 31.507813 39.566406 L 26.679688 39.566406 Z "/>
<path style="fill:none;stroke-width:0.158;stroke-linecap:round;stroke-linejoin:miter;stroke:rgb(0%,0%,0%);stroke-opacity:1;stroke-miterlimit:10;" d="M -1.099998 0.311013 L -0.949988 0.311013 " transform="matrix(72,0,0,-72,147.8952,59.6898)"/>
<path style="fill:none;stroke-width:0.158;stroke-linecap:round;stroke-linejoin:miter;stroke:rgb(0%,0%,0%);stroke-opacity:1;stroke-miterlimit:10;" d="M -0.949988 0.499978 L -1.099998 0.499978 " transform="matrix(72,0,0,-72,147.8952,59.6898)"/>
<path style="fill:none;stroke-width:0.158;stroke-linecap:round;stroke-linejoin:miter;stroke:rgb(0%,0%,0%);stroke-opacity:1;stroke-miterlimit:10;" d="M -1.099998 0.688997 L -0.949988 0.688997 " transform="matrix(72,0,0,-72,147.8952,59.6898)"/>
<path style=" stroke:none;fill-rule:evenodd;fill:rgb(0%,0%,0%);fill-opacity:1;" d="M 30.902344 19.546875 L 34.3125 19.546875 L 34.3125 17.015625 L 30.902344 17.015625 Z "/>
<path style=" stroke:none;fill-rule:evenodd;fill:rgb(0%,0%,0%);fill-opacity:1;" d="M 30.902344 16.855469 L 34.3125 16.855469 L 34.3125 14.324219 L 30.902344 14.324219 Z "/>
<path style=" stroke:none;fill-rule:evenodd;fill:rgb(0%,0%,0%);fill-opacity:1;" d="M 30.902344 14.164063 L 34.3125 14.164063 L 34.3125 11.632813 L 30.902344 11.632813 Z "/>
<path style=" stroke:none;fill-rule:evenodd;fill:rgb(0%,0%,0%);fill-opacity:1;" d="M 38.277344 14.164063 L 41.6875 14.164063 L 41.6875 11.632813 L 38.277344 11.632813 Z "/>
<path style=" stroke:none;fill-rule:evenodd;fill:rgb(0%,0%,0%);fill-opacity:1;" d="M 38.277344 16.855469 L 41.6875 16.855469 L 41.6875 14.324219 L 38.277344 14.324219 Z "/>
<path style=" stroke:none;fill-rule:evenodd;fill:rgb(0%,0%,0%);fill-opacity:1;" d="M 38.277344 19.546875 L 41.6875 19.546875 L 41.6875 17.015625 L 38.277344 17.015625 Z "/>
<path style=" stroke:none;fill-rule:evenodd;fill:rgb(0%,0%,0%);fill-opacity:1;" d="M 101.277344 46.5625 L 104.6875 46.5625 L 104.6875 44.03125 L 101.277344 44.03125 Z "/>
<path style=" stroke:none;fill-rule:evenodd;fill:rgb(0%,0%,0%);fill-opacity:1;" d="M 101.277344 49.253906 L 104.6875 49.253906 L 104.6875 46.722656 L 101.277344 46.722656 Z "/>
<path style=" stroke:none;fill-rule:evenodd;fill:rgb(0%,0%,0%);fill-opacity:1;" d="M 101.277344 51.949219 L 104.6875 51.949219 L 104.6875 49.417969 L 101.277344 49.417969 Z "/>
<path style=" stroke:none;fill-rule:evenodd;fill:rgb(0%,0%,0%);fill-opacity:1;" d="M 93.902344 51.949219 L 97.3125 51.949219 L 97.3125 49.417969 L 93.902344 49.417969 Z "/>
<path style=" stroke:none;fill-rule:evenodd;fill:rgb(0%,0%,0%);fill-opacity:1;" d="M 93.902344 49.253906 L 97.3125 49.253906 L 97.3125 46.722656 L 93.902344 46.722656 Z "/>
<path style=" stroke:none;fill-rule:evenodd;fill:rgb(0%,0%,0%);fill-opacity:1;" d="M 93.902344 46.5625 L 97.3125 46.5625 L 97.3125 44.03125 L 93.902344 44.03125 Z "/>
<path style=" stroke:none;fill-rule:evenodd;fill:rgb(0%,0%,0%);fill-opacity:1;" d="M 47.621094 40.164063 L 50.152344 40.164063 L 50.152344 36.1875 L 47.621094 36.1875 Z "/>
<path style=" stroke:none;fill-rule:evenodd;fill:rgb(0%,0%,0%);fill-opacity:1;" d="M 44.929688 40.164063 L 47.460938 40.164063 L 47.460938 36.1875 L 44.929688 36.1875 Z "/>
<path style=" stroke:none;fill-rule:evenodd;fill:rgb(0%,0%,0%);fill-opacity:1;" d="M 42.238281 40.164063 L 44.769531 40.164063 L 44.769531 36.1875 L 42.238281 36.1875 Z "/>
<path style=" stroke:none;fill-rule:evenodd;fill:rgb(0%,0%,0%);fill-opacity:1;" d="M 42.238281 32.792969 L 44.769531 32.792969 L 44.769531 28.816406 L 42.238281 28.816406 Z "/>
<path style=" stroke:none;fill-rule:evenodd;fill:rgb(0%,0%,0%);fill-opacity:1;" d="M 47.621094 32.792969 L 50.152344 32.792969 L 50.152344 28.816406 L 47.621094 28.816406 Z "/>
<path style=" stroke:none;fill-rule:evenodd;fill:rgb(0%,0%,0%);fill-opacity:1;" d="M 51.214844 46.996094 L 53.773438 46.996094 L 53.773438 43.585938 L 51.214844 43.585938 Z "/>
<path style=" stroke:none;fill-rule:evenodd;fill:rgb(0%,0%,0%);fill-opacity:1;" d="M 48.378906 46.996094 L 50.9375 46.996094 L 50.9375 43.585938 L 48.378906 43.585938 Z "/>
<path style=" stroke:none;fill-rule:evenodd;fill:rgb(0%,0%,0%);fill-opacity:1;" d="M 45.546875 46.996094 L 48.105469 46.996094 L 48.105469 43.585938 L 45.546875 43.585938 Z "/>
<path style=" stroke:none;fill-rule:evenodd;fill:rgb(0%,0%,0%);fill-opacity:1;" d="M 42.710938 46.996094 L 45.269531 46.996094 L 45.269531 43.585938 L 42.710938 43.585938 Z "/>
<path style=" stroke:none;fill-rule:evenodd;fill:rgb(0%,0%,0%);fill-opacity:1;" d="M 54.472656 46.996094 L 57.316406 46.996094 L 57.316406 43.585938 L 54.472656 43.585938 Z "/>
<path style=" stroke:none;fill-rule:evenodd;fill:rgb(0%,0%,0%);fill-opacity:1;" d="M 39.164063 46.996094 L 42.007813 46.996094 L 42.007813 43.585938 L 39.164063 43.585938 Z "/>
<path style="fill:none;stroke-width:0.051622;stroke-linecap:round;stroke-linejoin:miter;stroke:rgb(0%,0%,0%);stroke-opacity:1;stroke-miterlimit:10;" d="M -1.214799 0.1782 L -1.214799 0.22182 " transform="matrix(72,0,0,-72,147.8952,59.6898)"/>
<path style="fill:none;stroke-width:0.051622;stroke-linecap:round;stroke-linejoin:miter;stroke:rgb(0%,0%,0%);stroke-opacity:1;stroke-miterlimit:10;" d="M -1.553286 0.22182 L -1.553286 0.1782 " transform="matrix(72,0,0,-72,147.8952,59.6898)"/>
<path style="fill:none;stroke-width:0.051622;stroke-linecap:round;stroke-linejoin:miter;stroke:rgb(0%,0%,0%);stroke-opacity:1;stroke-miterlimit:10;" d="M -1.214799 0.0721891 L -1.214799 0.0286235 " transform="matrix(72,0,0,-72,147.8952,59.6898)"/>
<path style="fill:none;stroke-width:0.051622;stroke-linecap:round;stroke-linejoin:miter;stroke:rgb(0%,0%,0%);stroke-opacity:1;stroke-miterlimit:10;" d="M -1.553286 0.0286235 L -1.553286 0.0721891 " transform="matrix(72,0,0,-72,147.8952,59.6898)"/>
<path style=" stroke:none;fill-rule:evenodd;fill:rgb(0%,0%,0%);fill-opacity:1;" d="M 20.742188 40.789063 C 20.742188 37.527344 15.847656 37.527344 15.847656 40.789063 C 15.847656 44.054688 20.742188 44.054688 20.742188 40.789063 "/>
<path style=" stroke:none;fill-rule:evenodd;fill:rgb(0%,0%,0%);fill-opacity:1;" d="M 30.160156 24.589844 C 30.160156 21.324219 25.265625 21.324219 25.265625 24.589844 C 25.265625 27.855469 30.160156 27.855469 30.160156 24.589844 "/>
<path style=" stroke:none;fill-rule:evenodd;fill:rgb(0%,0%,0%);fill-opacity:1;" d="M 117.941406 49.789063 C 117.941406 46.527344 113.046875 46.527344 113.046875 49.789063 C 113.046875 53.054688 117.941406 53.054688 117.941406 49.789063 "/>
<path style=" stroke:none;fill-rule:evenodd;fill:rgb(0%,0%,0%);fill-opacity:1;" d="M 128.742188 21.890625 C 128.742188 18.625 123.847656 18.625 123.847656 21.890625 C 123.847656 25.152344 128.742188 25.152344 128.742188 21.890625 "/>
<path style=" stroke:none;fill-rule:evenodd;fill:rgb(0%,0%,0%);fill-opacity:1;" d="M 37.84375 33.589844 C 37.84375 30.324219 32.945313 30.324219 32.945313 33.589844 C 32.945313 36.855469 37.84375 36.855469 37.84375 33.589844 "/>
<path style=" stroke:none;fill-rule:evenodd;fill:rgb(0%,0%,0%);fill-opacity:1;" d="M 55.84375 36.289063 C 55.84375 33.027344 50.945313 33.027344 50.945313 36.289063 C 50.945313 39.554688 55.84375 39.554688 55.84375 36.289063 "/>
<path style=" stroke:none;fill-rule:evenodd;fill:rgb(0%,0%,0%);fill-opacity:1;" d="M 146.742188 10.191406 C 146.742188 6.847656 144.035156 4.140625 140.695313 4.140625 C 137.355469 4.140625 134.648438 6.847656 134.648438 10.191406 C 134.648438 13.53125 137.355469 16.238281 140.695313 16.238281 C 144.035156 16.238281 146.742188 13.53125 146.742188 10.191406 "/>
<path style=" stroke:none;fill-rule:evenodd;fill:rgb(0%,0%,0%);fill-opacity:1;" d="M 146.742188 52.488281 C 146.742188 49.148438 144.035156 46.441406 140.695313 46.441406 C 137.355469 46.441406 134.648438 49.148438 134.648438 52.488281 C 134.648438 55.828125 137.355469 58.539063 140.695313 58.539063 C 144.035156 58.539063 146.742188 55.828125 146.742188 52.488281 "/>
<path style=" stroke:none;fill-rule:evenodd;fill:rgb(0%,0%,0%);fill-opacity:1;" d="M 20.742188 52.488281 C 20.742188 49.148438 18.035156 46.441406 14.695313 46.441406 C 11.355469 46.441406 8.648438 49.148438 8.648438 52.488281 C 8.648438 55.828125 11.355469 58.539063 14.695313 58.539063 C 18.035156 58.539063 20.742188 55.828125 20.742188 52.488281 "/>
<path style=" stroke:none;fill-rule:evenodd;fill:rgb(0%,0%,0%);fill-opacity:1;" d="M 20.742188 10.191406 C 20.742188 6.847656 18.035156 4.140625 14.695313 4.140625 C 11.355469 4.140625 8.648438 6.847656 8.648438 10.191406 C 8.648438 13.53125 11.355469 16.238281 14.695313 16.238281 C 18.035156 16.238281 20.742188 13.53125 20.742188 10.191406 "/>
</g>
</svg>
