G04 EAGLE Gerber RS-274X export*
G75*
%MOIN*%
%FSLAX34Y34*%
%LPD*%
%INTop*%
%IPPOS*%
%AMOC8*
5,1,8,0,0,1.08239X$1,22.5*%
G01*
%ADD10C,0.012000*%
%ADD11R,0.051181X0.059055*%
%ADD12R,0.059055X0.051181*%
%ADD13R,0.055118X0.062992*%
%ADD14R,0.094488X0.094488*%
%ADD15R,0.066929X0.070866*%
%ADD16C,0.120000*%
%ADD17R,0.200000X0.128000*%
%ADD18R,0.031496X0.031496*%
%ADD19R,0.035433X0.031496*%
%ADD20C,0.150000*%
%ADD21R,0.039370X0.027165*%
%ADD22R,0.027165X0.047244*%
%ADD23R,0.027559X0.039370*%
%ADD24R,0.031496X0.039370*%
%ADD25C,0.043622*%
%ADD26C,0.006000*%
%ADD27C,0.024000*%
%ADD28C,0.032000*%
%ADD29C,0.040000*%
%ADD30C,0.050000*%
%ADD31C,0.060000*%
%ADD32C,0.030000*%
%ADD33C,0.100000*%
%ADD34C,0.160000*%


D10*
X0Y0D02*
X0Y7875D01*
X-19500Y7875D01*
X-19500Y0D01*
X0Y0D01*
D11*
X-15001Y5000D03*
X-15749Y5000D03*
D12*
X-8500Y1749D03*
X-8500Y1001D03*
D13*
X-9625Y1966D03*
X-9625Y784D03*
D14*
X-2625Y4234D03*
X-2625Y2266D03*
D12*
X-3750Y3374D03*
X-3750Y2626D03*
D15*
X-5000Y2193D03*
X-5000Y3807D03*
D16*
X-14000Y6750D03*
X-12500Y6750D03*
X-5125Y6750D03*
X-3375Y6750D03*
D17*
X-7250Y3125D03*
X-7250Y5875D03*
D18*
X-16670Y1125D03*
X-16080Y1125D03*
D19*
X-18338Y3500D03*
X-19125Y3126D03*
X-19125Y3874D03*
X-18537Y4625D03*
X-17750Y4999D03*
X-17750Y4251D03*
D11*
X-12876Y5250D03*
X-13624Y5250D03*
X-17249Y3750D03*
X-16501Y3750D03*
D12*
X-3750Y4999D03*
X-3750Y4251D03*
X-1500Y4126D03*
X-1500Y4874D03*
X-1500Y2501D03*
X-1500Y3249D03*
X-12375Y3999D03*
X-12375Y3251D03*
X-16500Y1751D03*
X-16500Y2499D03*
D20*
X-11000Y3110D02*
X-9500Y3110D01*
X-9500Y5000D02*
X-11000Y5000D01*
X-11000Y6890D02*
X-9500Y6890D01*
D21*
X-16012Y5751D03*
X-16012Y6125D03*
X-16012Y6499D03*
X-14988Y6499D03*
X-14988Y6125D03*
X-14988Y5751D03*
X-6238Y1999D03*
X-6238Y1625D03*
X-6238Y1251D03*
X-7262Y1251D03*
X-7262Y1625D03*
X-7262Y1999D03*
D22*
X-13751Y2988D03*
X-14125Y2988D03*
X-14499Y2988D03*
X-14499Y4012D03*
X-13751Y4012D03*
D23*
X-13250Y2000D03*
X-13644Y2000D03*
X-14037Y2000D03*
X-14431Y2000D03*
D24*
X-12778Y2000D03*
X-14904Y2000D03*
D25*
X-12148Y1782D02*
X-12148Y2218D01*
X-15533Y2218D02*
X-15533Y1782D01*
X-12148Y722D02*
X-12148Y286D01*
X-15533Y286D02*
X-15533Y722D01*
D26*
X-13000Y5250D02*
X-12876Y5250D01*
D27*
X-14499Y3376D02*
X-14499Y2988D01*
X-14499Y3376D02*
X-14375Y3500D01*
X-14125Y3500D01*
X-14125Y4500D01*
D28*
X-14000Y4625D01*
X-13250Y4625D01*
X-12875Y5000D01*
X-12875Y5249D02*
X-12876Y5250D01*
X-12875Y5249D02*
X-12875Y5000D01*
X-12876Y5250D02*
X-12750Y5250D01*
X-12625Y5375D01*
D29*
X-12500Y5500D01*
X-12500Y6750D01*
D30*
X-10390Y6750D01*
X-10250Y6890D01*
X-10250Y5000D01*
D26*
X-15749Y5000D02*
X-15750Y5001D01*
D28*
X-14125Y5250D02*
X-13624Y5250D01*
X-14125Y5250D02*
X-14375Y5000D01*
D27*
X-14500Y4875D01*
X-14500Y4625D02*
X-14625Y4500D01*
X-15500Y4500D01*
X-15750Y4750D01*
X-15750Y5001D01*
X-14500Y4875D02*
X-14500Y4625D01*
X-14988Y6125D02*
X-15375Y6125D01*
X-15500Y6000D01*
X-15500Y5500D01*
X-15750Y5250D01*
X-15750Y5001D01*
D26*
X-15001Y5000D02*
X-15000Y5001D01*
X-15001Y5000D02*
X-14988Y5013D01*
D30*
X-19125Y4875D02*
X-19125Y3874D01*
X-18125Y5500D02*
X-16375Y7250D01*
X-14500Y7250D01*
X-14000Y6750D01*
X-18500Y5500D02*
X-19125Y4875D01*
X-18500Y5500D02*
X-18125Y5500D01*
D27*
X-14988Y5751D02*
X-14987Y5750D01*
D28*
X-14250Y6500D02*
X-14000Y6750D01*
X-14250Y6500D02*
X-14250Y5750D01*
X-15000Y5000D01*
X-15001Y5000D01*
D27*
X-14988Y5512D02*
X-14988Y5751D01*
X-14988Y5512D02*
X-15000Y5500D01*
D28*
X-15000Y5000D01*
D29*
X-18338Y3963D02*
X-18338Y3500D01*
X-18537Y4162D02*
X-18537Y4625D01*
X-18537Y4162D02*
X-18338Y3963D01*
D31*
X-18000Y2625D03*
X-16692Y4875D03*
D27*
X-16692Y5071D02*
X-16012Y5751D01*
X-16692Y5071D02*
X-16692Y4875D01*
X-18624Y2625D02*
X-19125Y3126D01*
X-18624Y2625D02*
X-18000Y2625D01*
X-16376Y6499D02*
X-16012Y6499D01*
X-17750Y5125D02*
X-17750Y4999D01*
X-17750Y5125D02*
X-16376Y6499D01*
X-16250Y6125D02*
X-16012Y6125D01*
X-16250Y6125D02*
X-17250Y5125D01*
X-17250Y4625D01*
X-16501Y3876D02*
X-16501Y3750D01*
X-16501Y3876D02*
X-17250Y4625D01*
D26*
X-12778Y2028D02*
X-12778Y2000D01*
X-12375Y3125D02*
X-12375Y3251D01*
X-17249Y3750D02*
X-17375Y3624D01*
D28*
X-12778Y2000D02*
X-12148Y2000D01*
X-14904Y2000D02*
X-15533Y2000D01*
D30*
X-15533Y504D01*
X-12148Y504D02*
X-12148Y650D01*
X-12148Y2000D01*
X-12148Y504D02*
X-15533Y504D01*
D32*
X-14125Y2500D02*
X-14125Y2988D01*
D28*
X-14125Y2500D02*
X-12750Y2500D01*
D30*
X-17249Y3750D02*
X-17249Y500D01*
X-15537Y500D01*
X-15533Y504D01*
X-17249Y3750D02*
X-17750Y4251D01*
D29*
X-12750Y2500D02*
X-12648Y2500D01*
X-12386Y2239D01*
X-12148Y2000D01*
D28*
X-12386Y3240D02*
X-12375Y3251D01*
X-12386Y3240D02*
X-12386Y2239D01*
D30*
X-9625Y784D02*
X-9491Y650D01*
X-8500Y650D01*
X-6625Y650D01*
X-2625Y2266D02*
X-2500Y2141D01*
D27*
X-8500Y1001D02*
X-8500Y650D01*
X-6500Y1625D02*
X-6238Y1625D01*
X-6500Y1625D02*
X-6750Y1375D01*
X-6750Y775D01*
X-6625Y650D01*
D30*
X-2860Y2501D02*
X-2625Y2266D01*
X-750Y2600D02*
X-750Y5375D01*
X-1000Y5625D01*
X-1500Y2266D02*
X-2625Y2266D01*
X-1500Y2391D02*
X-959Y2391D01*
X-750Y2600D01*
D27*
X-1500Y2501D02*
X-1500Y2391D01*
X-1500Y2266D01*
D30*
X-9625Y784D02*
X-11867Y784D01*
X-12002Y650D01*
X-12148Y650D01*
X-3750Y1000D02*
X-3750Y2626D01*
X-4100Y650D02*
X-6625Y650D01*
X-4100Y650D02*
X-3750Y1000D01*
X-3749Y2625D02*
X-3750Y2626D01*
X-2984Y2625D02*
X-2625Y2266D01*
X-2984Y2625D02*
X-3749Y2625D01*
X-1625Y5625D02*
X-1000Y5625D01*
X-1625Y5625D02*
X-2750Y6750D01*
X-3375Y6750D01*
X-5750Y4375D02*
X-5750Y2375D01*
X-5568Y2193D01*
X-5000Y2193D01*
D27*
X-6126Y1999D02*
X-6238Y1999D01*
X-6126Y1999D02*
X-5750Y2375D01*
D33*
X-6000Y4625D02*
X-7250Y5875D01*
D30*
X-6000Y4625D02*
X-5750Y4375D01*
D26*
X-3751Y3375D02*
X-3750Y3374D01*
X-3610Y3374D01*
X-3750Y4251D02*
X-3642Y4359D01*
X-3750Y4251D02*
X-3876Y4251D01*
D30*
X-3750Y3374D02*
X-2876Y3374D01*
X-2625Y3625D01*
X-2625Y4234D01*
X-3141Y4234D01*
X-3250Y4125D01*
X-3624Y4125D01*
X-3750Y4251D01*
X-4126Y4251D01*
X-5125Y5250D02*
X-5125Y6750D01*
X-5125Y5250D02*
X-4126Y4251D01*
X-5000Y3807D02*
X-4567Y3374D01*
X-3750Y3374D01*
D31*
X-4500Y1375D03*
X-3000Y5250D03*
D27*
X-4624Y1251D02*
X-6238Y1251D01*
X-4624Y1251D02*
X-4500Y1375D01*
D29*
X-3750Y4999D02*
X-3501Y5248D01*
X-3501Y5249D01*
X-3500Y5250D01*
X-3000Y5250D01*
D28*
X-1626Y5000D02*
X-1500Y4874D01*
X-2250Y5250D02*
X-3000Y5250D01*
X-2000Y5000D02*
X-1626Y5000D01*
X-2000Y5000D02*
X-2250Y5250D01*
D29*
X-1500Y4126D02*
X-1500Y3249D01*
D26*
X-14431Y2056D02*
X-14431Y2000D01*
X-16000Y1205D02*
X-16080Y1125D01*
D28*
X-13375Y1500D02*
X-13250Y1625D01*
D29*
X-13375Y1500D02*
X-13500Y1375D01*
X-14000Y1375D01*
D28*
X-14125Y1375D01*
X-14375Y1625D01*
D27*
X-14431Y1681D01*
X-14431Y2000D01*
X-13250Y2000D02*
X-13250Y1625D01*
X-14499Y4012D02*
X-14738Y4012D01*
X-14750Y4000D01*
D29*
X-15000Y3750D01*
D28*
X-15000Y2625D02*
X-14875Y2500D01*
X-14750Y2500D01*
D27*
X-14625Y2500D01*
X-14431Y2306D02*
X-14431Y2000D01*
D29*
X-15000Y2625D02*
X-15000Y3750D01*
D27*
X-14625Y2500D02*
X-14431Y2306D01*
X-16070Y1125D02*
X-16080Y1125D01*
X-16070Y1125D02*
X-16025Y1171D01*
X-16025Y2475D02*
X-15750Y2750D01*
X-16025Y2475D02*
X-16025Y1171D01*
X-15750Y2750D02*
X-15125Y2750D01*
X-15000Y2625D01*
D26*
X-16500Y1500D02*
X-16670Y1331D01*
X-16500Y1751D02*
X-16500Y1751D01*
D27*
X-16500Y1295D02*
X-16670Y1125D01*
X-16500Y1295D02*
X-16500Y1500D01*
X-16500Y1751D01*
D31*
X-15625Y3625D03*
X-13125Y3250D03*
D27*
X-13739Y3000D02*
X-13751Y2988D01*
X-13739Y3000D02*
X-13125Y3000D01*
X-13125Y3250D01*
X-16500Y2750D02*
X-16500Y2499D01*
X-16500Y2750D02*
X-15625Y3625D01*
D26*
X-12388Y4012D02*
X-12375Y3999D01*
D27*
X-13739Y4000D02*
X-13751Y4012D01*
X-13739Y4000D02*
X-13500Y4000D01*
D29*
X-12376Y4000D01*
X-12375Y3999D01*
D26*
X-8500Y1749D02*
X-8376Y1749D01*
D33*
X-7265Y3110D02*
X-10250Y3110D01*
X-7265Y3110D02*
X-7250Y3125D01*
D29*
X-10250Y3110D02*
X-10250Y2591D01*
X-9625Y1966D01*
X-8717Y1966D01*
X-8500Y1749D01*
X-8376Y1625D01*
X-7875Y1625D01*
X-7750Y1500D01*
X-7750Y1375D01*
X-7375Y1375D01*
D27*
X-7262Y1262D01*
X-7262Y1251D01*
X-7375Y1512D02*
X-7262Y1625D01*
X-7375Y1512D02*
X-7375Y1375D01*
D34*
X-1000Y6875D03*
X-1000Y1000D03*
X-18500Y1000D03*
X-18500Y6875D03*
M02*
