G75*
%MOIN*%
%OFA0B0*%
%FSLAX25Y25*%
%IPPOS*%
%LPD*%
%AMOC8*
5,1,8,0,0,1.08239X$1,22.5*
%
%ADD10C,0.01200*%
%ADD11R,0.39370X0.05906*%
%ADD12R,0.16000X0.06000*%
%ADD13C,0.06000*%
%ADD14C,0.06000*%
%ADD15C,0.02400*%
D10*
X0031250Y0020000D02*
X0073750Y0020000D01*
X0081250Y0027500D01*
X0138750Y0027500D01*
X0138750Y0082500D01*
X0081250Y0082500D01*
X0073750Y0090000D01*
X0031250Y0090000D01*
X0031250Y0020000D01*
D11*
X0116250Y0035000D03*
X0116250Y0045000D03*
X0116250Y0055000D03*
X0116250Y0065000D03*
X0116250Y0075000D03*
D12*
X0041250Y0075000D03*
X0041250Y0065000D03*
X0041250Y0055000D03*
X0041250Y0045000D03*
X0041250Y0035000D03*
D13*
X0061250Y0039500D02*
X0061250Y0045500D01*
X0071250Y0045500D02*
X0071250Y0039500D01*
D14*
X0053750Y0040000D03*
X0076250Y0057500D03*
X0083750Y0062500D03*
X0068750Y0067500D03*
X0091250Y0047500D03*
D15*
X0093750Y0045000D01*
X0116250Y0045000D01*
X0116250Y0055000D02*
X0091250Y0055000D01*
X0086250Y0050000D01*
X0073750Y0050000D01*
X0071250Y0052500D01*
X0058750Y0052500D01*
X0051250Y0045000D01*
X0041250Y0045000D01*
X0053750Y0040000D02*
X0053750Y0037500D01*
X0051250Y0035000D01*
X0041250Y0035000D01*
X0046250Y0035000D01*
X0046250Y0055000D02*
X0051250Y0060000D01*
X0056250Y0060000D01*
X0058750Y0057500D01*
X0076250Y0057500D01*
X0083750Y0062500D02*
X0066250Y0062500D01*
X0053750Y0075000D01*
X0041250Y0075000D01*
X0068750Y0067500D02*
X0073750Y0067500D01*
X0076250Y0070000D01*
X0091250Y0070000D01*
X0096250Y0065000D01*
X0116250Y0065000D01*
X0046250Y0055000D02*
X0041250Y0055000D01*
M02*
