<?xml version="1.0" encoding="UTF-8"?>
<svg xmlns="http://www.w3.org/2000/svg" xmlns:xlink="http://www.w3.org/1999/xlink" width="171pt" height="150pt" viewBox="0 0 171 150" version="1.1">
<g id="surface621212">
<path style="fill:none;stroke-width:0.012;stroke-linecap:round;stroke-linejoin:miter;stroke:rgb(100%,100%,100%);stroke-opacity:1;stroke-miterlimit:10;" d="M 0.637506 0.275019 L 0.637506 0.824987 " transform="matrix(-72,-0.000000000000008817,-0.000000000000008817,72,131.544964,-7.086539)"/>
<path style="fill:none;stroke-width:0.012;stroke-linecap:round;stroke-linejoin:miter;stroke:rgb(100%,100%,100%);stroke-opacity:1;stroke-miterlimit:10;" d="M 0.637506 0.824987 L 1.212484 0.824987 " transform="matrix(-72,-0.000000000000008817,-0.000000000000008817,72,131.544964,-7.086539)"/>
<path style="fill:none;stroke-width:0.012;stroke-linecap:round;stroke-linejoin:miter;stroke:rgb(100%,100%,100%);stroke-opacity:1;stroke-miterlimit:10;" d="M 1.212484 0.824987 L 1.287517 0.900019 " transform="matrix(-72,-0.000000000000008817,-0.000000000000008817,72,131.544964,-7.086539)"/>
<path style="fill:none;stroke-width:0.012;stroke-linecap:round;stroke-linejoin:miter;stroke:rgb(100%,100%,100%);stroke-opacity:1;stroke-miterlimit:10;" d="M 1.287517 0.900019 L 1.712484 0.900019 " transform="matrix(-72,-0.000000000000008817,-0.000000000000008817,72,131.544964,-7.086539)"/>
<path style="fill:none;stroke-width:0.012;stroke-linecap:round;stroke-linejoin:miter;stroke:rgb(100%,100%,100%);stroke-opacity:1;stroke-miterlimit:10;" d="M 1.712484 0.900019 L 1.712484 0.199987 " transform="matrix(-72,-0.000000000000008817,-0.000000000000008817,72,131.544964,-7.086539)"/>
<path style="fill:none;stroke-width:0.012;stroke-linecap:round;stroke-linejoin:miter;stroke:rgb(100%,100%,100%);stroke-opacity:1;stroke-miterlimit:10;" d="M 1.712484 0.199987 L 1.287517 0.199987 " transform="matrix(-72,-0.000000000000008817,-0.000000000000008817,72,131.544964,-7.086539)"/>
<path style="fill:none;stroke-width:0.012;stroke-linecap:round;stroke-linejoin:miter;stroke:rgb(100%,100%,100%);stroke-opacity:1;stroke-miterlimit:10;" d="M 1.287517 0.199987 L 1.212484 0.275019 " transform="matrix(-72,-0.000000000000008817,-0.000000000000008817,72,131.544964,-7.086539)"/>
<path style="fill:none;stroke-width:0.012;stroke-linecap:round;stroke-linejoin:miter;stroke:rgb(100%,100%,100%);stroke-opacity:1;stroke-miterlimit:10;" d="M 1.212484 0.275019 L 0.637506 0.275019 " transform="matrix(-72,-0.000000000000008817,-0.000000000000008817,72,131.544964,-7.086539)"/>
<path style=" stroke:none;fill-rule:evenodd;fill:rgb(100%,100%,100%);fill-opacity:1;" d="M 83.617188 23.1875 L 55.269531 23.1875 L 55.269531 27.441406 L 83.617188 27.441406 Z M 83.617188 23.1875 "/>
<path style=" stroke:none;fill-rule:evenodd;fill:rgb(100%,100%,100%);fill-opacity:1;" d="M 83.617188 30.386719 L 55.269531 30.386719 L 55.269531 34.640625 L 83.617188 34.640625 Z M 83.617188 30.386719 "/>
<path style=" stroke:none;fill-rule:evenodd;fill:rgb(100%,100%,100%);fill-opacity:1;" d="M 83.617188 37.585938 L 55.269531 37.585938 L 55.269531 41.839844 L 83.617188 41.839844 Z M 83.617188 37.585938 "/>
<path style=" stroke:none;fill-rule:evenodd;fill:rgb(100%,100%,100%);fill-opacity:1;" d="M 21.203125 37.554688 L 9.683594 37.554688 L 9.683594 41.875 L 21.203125 41.875 Z M 21.203125 37.554688 "/>
<path style=" stroke:none;fill-rule:evenodd;fill:rgb(100%,100%,100%);fill-opacity:1;" d="M 21.203125 30.351562 L 9.683594 30.351562 L 9.683594 34.671875 L 21.203125 34.671875 Z M 21.203125 30.351562 "/>
<path style=" stroke:none;fill-rule:evenodd;fill:rgb(100%,100%,100%);fill-opacity:1;" d="M 21.203125 23.152344 L 9.683594 23.152344 L 9.683594 27.472656 L 21.203125 27.472656 Z M 21.203125 23.152344 "/>
<path style=" stroke:none;fill-rule:evenodd;fill:rgb(100%,100%,100%);fill-opacity:1;" d="M 21.203125 15.953125 L 9.683594 15.953125 L 9.683594 20.273438 L 21.203125 20.273438 Z M 21.203125 15.953125 "/>
<path style=" stroke:none;fill-rule:evenodd;fill:rgb(100%,100%,100%);fill-opacity:1;" d="M 21.203125 44.753906 L 9.683594 44.753906 L 9.683594 49.074219 L 21.203125 49.074219 Z M 21.203125 44.753906 "/>
<path style="fill:none;stroke-width:0.06;stroke-linecap:round;stroke-linejoin:miter;stroke:rgb(100%,100%,100%);stroke-opacity:1;stroke-miterlimit:10;" d="M 1.412517 0.454978 L 1.412517 0.394974 " transform="matrix(-72,-0.000000000000008817,-0.000000000000008817,72,131.544964,-7.086539)"/>
<path style="fill:none;stroke-width:0.06;stroke-linecap:round;stroke-linejoin:miter;stroke:rgb(100%,100%,100%);stroke-opacity:1;stroke-miterlimit:10;" d="M 1.312473 0.394974 L 1.312473 0.454978 " transform="matrix(-72,-0.000000000000008817,-0.000000000000008817,72,131.544964,-7.086539)"/>
<path style=" stroke:none;fill-rule:evenodd;fill:rgb(100%,100%,100%);fill-opacity:1;" d="M 22.285156 21.714844 C 22.285156 24.59375 26.605469 24.59375 26.605469 21.714844 C 26.605469 18.832031 22.285156 18.832031 22.285156 21.714844 "/>
<path style=" stroke:none;fill-rule:evenodd;fill:rgb(100%,100%,100%);fill-opacity:1;" d="M 38.484375 34.3125 C 38.484375 37.195312 42.804688 37.195312 42.804688 34.3125 C 42.804688 31.433594 38.484375 31.433594 38.484375 34.3125 "/>
<path style=" stroke:none;fill-rule:evenodd;fill:rgb(100%,100%,100%);fill-opacity:1;" d="M 43.886719 37.914062 C 43.886719 40.792969 48.203125 40.792969 48.203125 37.914062 C 48.203125 35.035156 43.886719 35.035156 43.886719 37.914062 "/>
<path style=" stroke:none;fill-rule:evenodd;fill:rgb(100%,100%,100%);fill-opacity:1;" d="M 33.085938 41.511719 C 33.085938 44.394531 37.40625 44.394531 37.40625 41.511719 C 37.40625 38.632812 33.085938 38.632812 33.085938 41.511719 "/>
<path style=" stroke:none;fill-rule:evenodd;fill:rgb(100%,100%,100%);fill-opacity:1;" d="M 49.285156 27.113281 C 49.285156 29.992188 53.605469 29.992188 53.605469 27.113281 C 53.605469 24.234375 49.285156 24.234375 49.285156 27.113281 "/>
<path style="fill:none;stroke-width:0.024;stroke-linecap:round;stroke-linejoin:miter;stroke:rgb(100%,100%,100%);stroke-opacity:1;stroke-miterlimit:10;" d="M 1.112495 0.474997 L 1.162517 0.474997 " transform="matrix(-72,-0.000000000000008817,-0.000000000000008817,72,131.544964,-7.086539)"/>
<path style="fill:none;stroke-width:0.024;stroke-linecap:round;stroke-linejoin:miter;stroke:rgb(100%,100%,100%);stroke-opacity:1;stroke-miterlimit:10;" d="M 1.162517 0.474997 L 1.262506 0.574987 " transform="matrix(-72,-0.000000000000008817,-0.000000000000008817,72,131.544964,-7.086539)"/>
<path style="fill:none;stroke-width:0.024;stroke-linecap:round;stroke-linejoin:miter;stroke:rgb(100%,100%,100%);stroke-opacity:1;stroke-miterlimit:10;" d="M 1.312473 0.602222 L 1.201145 0.713604 " transform="matrix(-72,-0.000000000000008817,-0.000000000000008817,72,131.544964,-7.086539)"/>
<path style="fill:none;stroke-width:0.024;stroke-linecap:round;stroke-linejoin:miter;stroke:rgb(100%,100%,100%);stroke-opacity:1;stroke-miterlimit:10;" d="M 1.201145 0.713604 L 1.137506 0.650019 " transform="matrix(-72,-0.000000000000008817,-0.000000000000008817,72,131.544964,-7.086539)"/>
<path style="fill:none;stroke-width:0.024;stroke-linecap:round;stroke-linejoin:miter;stroke:rgb(100%,100%,100%);stroke-opacity:1;stroke-miterlimit:10;" d="M 1.137506 0.650019 L 0.862495 0.650019 " transform="matrix(-72,-0.000000000000008817,-0.000000000000008817,72,131.544964,-7.086539)"/>
<path style="fill:none;stroke-width:0.024;stroke-linecap:round;stroke-linejoin:miter;stroke:rgb(100%,100%,100%);stroke-opacity:1;stroke-miterlimit:10;" d="M 0.862495 0.549976 L 1.112495 0.549976 " transform="matrix(-72,-0.000000000000008817,-0.000000000000008817,72,131.544964,-7.086539)"/>
<path style="fill:none;stroke-width:0.024;stroke-linecap:round;stroke-linejoin:miter;stroke:rgb(100%,100%,100%);stroke-opacity:1;stroke-miterlimit:10;" d="M 1.112495 0.549976 L 1.187473 0.625008 " transform="matrix(-72,-0.000000000000008817,-0.000000000000008817,72,131.544964,-7.086539)"/>
<path style="fill:none;stroke-width:0.024;stroke-linecap:round;stroke-linejoin:miter;stroke:rgb(100%,100%,100%);stroke-opacity:1;stroke-miterlimit:10;" d="M 1.312473 0.602222 L 1.312473 0.424976 " transform="matrix(-72,-0.000000000000008817,-0.000000000000008817,72,131.544964,-7.086539)"/>
<path style="fill:none;stroke-width:0.024;stroke-linecap:round;stroke-linejoin:miter;stroke:rgb(100%,100%,100%);stroke-opacity:1;stroke-miterlimit:10;" d="M 1.412517 0.424976 L 1.412517 0.32949 " transform="matrix(-72,-0.000000000000008817,-0.000000000000008817,72,131.544964,-7.086539)"/>
<path style="fill:none;stroke-width:0.024;stroke-linecap:round;stroke-linejoin:miter;stroke:rgb(100%,100%,100%);stroke-opacity:1;stroke-miterlimit:10;" d="M 1.412517 0.32949 L 1.416966 0.324987 " transform="matrix(-72,-0.000000000000008817,-0.000000000000008817,72,131.544964,-7.086539)"/>
<path style="fill:none;stroke-width:0.024;stroke-linecap:round;stroke-linejoin:miter;stroke:rgb(100%,100%,100%);stroke-opacity:1;stroke-miterlimit:10;" d="M 1.416966 0.324987 L 1.637506 0.324987 " transform="matrix(-72,-0.000000000000008817,-0.000000000000008817,72,131.544964,-7.086539)"/>
<path style="fill:none;stroke-width:0.024;stroke-linecap:round;stroke-linejoin:miter;stroke:rgb(100%,100%,100%);stroke-opacity:1;stroke-miterlimit:10;" d="M 1.637506 0.324987 L 1.612495 0.349997 " transform="matrix(-72,-0.000000000000008817,-0.000000000000008817,72,131.544964,-7.086539)"/>
<path style="fill:none;stroke-width:0.024;stroke-linecap:round;stroke-linejoin:miter;stroke:rgb(100%,100%,100%);stroke-opacity:1;stroke-miterlimit:10;" d="M 1.612495 0.349997 L 1.612495 0.449987 " transform="matrix(-72,-0.000000000000008817,-0.000000000000008817,72,131.544964,-7.086539)"/>
<path style="fill:none;stroke-width:0.024;stroke-linecap:round;stroke-linejoin:miter;stroke:rgb(100%,100%,100%);stroke-opacity:1;stroke-miterlimit:10;" d="M 1.612495 0.449987 L 1.612495 0.549976 " transform="matrix(-72,-0.000000000000008817,-0.000000000000008817,72,131.544964,-7.086539)"/>
<path style="fill:none;stroke-width:0.024;stroke-linecap:round;stroke-linejoin:miter;stroke:rgb(100%,100%,100%);stroke-opacity:1;stroke-miterlimit:10;" d="M 1.612495 0.549976 L 1.612495 0.650019 " transform="matrix(-72,-0.000000000000008817,-0.000000000000008817,72,131.544964,-7.086539)"/>
<path style="fill:none;stroke-width:0.024;stroke-linecap:round;stroke-linejoin:miter;stroke:rgb(100%,100%,100%);stroke-opacity:1;stroke-miterlimit:10;" d="M 1.462484 0.650019 L 1.462484 0.525019 " transform="matrix(-72,-0.000000000000008817,-0.000000000000008817,72,131.544964,-7.086539)"/>
<path style="fill:none;stroke-width:0.024;stroke-linecap:round;stroke-linejoin:miter;stroke:rgb(100%,100%,100%);stroke-opacity:1;stroke-miterlimit:10;" d="M 1.462484 0.525019 L 1.487495 0.500008 " transform="matrix(-72,-0.000000000000008817,-0.000000000000008817,72,131.544964,-7.086539)"/>
<path style="fill:none;stroke-width:0.024;stroke-linecap:round;stroke-linejoin:miter;stroke:rgb(100%,100%,100%);stroke-opacity:1;stroke-miterlimit:10;" d="M 1.487495 0.500008 L 1.487495 0.400019 " transform="matrix(-72,-0.000000000000008817,-0.000000000000008817,72,131.544964,-7.086539)"/>
<path style="fill:none;stroke-width:0.024;stroke-linecap:round;stroke-linejoin:miter;stroke:rgb(100%,100%,100%);stroke-opacity:1;stroke-miterlimit:10;" d="M 1.416966 0.324987 L 1.287517 0.324987 " transform="matrix(-72,-0.000000000000008817,-0.000000000000008817,72,131.544964,-7.086539)"/>
<path style="fill:none;stroke-width:0.024;stroke-linecap:round;stroke-linejoin:miter;stroke:rgb(100%,100%,100%);stroke-opacity:1;stroke-miterlimit:10;" d="M 1.287517 0.324987 L 1.262506 0.349997 " transform="matrix(-72,-0.000000000000008817,-0.000000000000008817,72,131.544964,-7.086539)"/>
<path style="fill:none;stroke-width:0.024;stroke-linecap:round;stroke-linejoin:miter;stroke:rgb(100%,100%,100%);stroke-opacity:1;stroke-miterlimit:10;" d="M 1.262506 0.349997 L 1.237495 0.349997 " transform="matrix(-72,-0.000000000000008817,-0.000000000000008817,72,131.544964,-7.086539)"/>
<path style="fill:none;stroke-width:0.024;stroke-linecap:round;stroke-linejoin:miter;stroke:rgb(100%,100%,100%);stroke-opacity:1;stroke-miterlimit:10;" d="M 1.237495 0.349997 L 1.212484 0.375008 " transform="matrix(-72,-0.000000000000008817,-0.000000000000008817,72,131.544964,-7.086539)"/>
<path style="fill:none;stroke-width:0.024;stroke-linecap:round;stroke-linejoin:miter;stroke:rgb(100%,100%,100%);stroke-opacity:1;stroke-miterlimit:10;" d="M 1.212484 0.375008 L 1.112495 0.375008 " transform="matrix(-72,-0.000000000000008817,-0.000000000000008817,72,131.544964,-7.086539)"/>
<path style="fill:none;stroke-width:0.024;stroke-linecap:round;stroke-linejoin:miter;stroke:rgb(100%,100%,100%);stroke-opacity:1;stroke-miterlimit:10;" d="M 1.112495 0.375008 L 1.037517 0.449987 " transform="matrix(-72,-0.000000000000008817,-0.000000000000008817,72,131.544964,-7.086539)"/>
<path style="fill:none;stroke-width:0.024;stroke-linecap:round;stroke-linejoin:miter;stroke:rgb(100%,100%,100%);stroke-opacity:1;stroke-miterlimit:10;" d="M 1.037517 0.449987 L 0.862495 0.449987 " transform="matrix(-72,-0.000000000000008817,-0.000000000000008817,72,131.544964,-7.086539)"/>
<path style="fill:none;stroke-width:0.024;stroke-linecap:round;stroke-linejoin:miter;stroke:rgb(100%,100%,100%);stroke-opacity:1;stroke-miterlimit:10;" d="M 1.337484 0.674976 L 1.437473 0.674976 " transform="matrix(-72,-0.000000000000008817,-0.000000000000008817,72,131.544964,-7.086539)"/>
<path style="fill:none;stroke-width:0.024;stroke-linecap:round;stroke-linejoin:miter;stroke:rgb(100%,100%,100%);stroke-opacity:1;stroke-miterlimit:10;" d="M 1.437473 0.674976 L 1.462484 0.650019 " transform="matrix(-72,-0.000000000000008817,-0.000000000000008817,72,131.544964,-7.086539)"/>
<path style="fill:none;stroke-width:0.024;stroke-linecap:round;stroke-linejoin:miter;stroke:rgb(100%,100%,100%);stroke-opacity:1;stroke-miterlimit:10;" d="M 1.612495 0.750008 L 1.237495 0.750008 " transform="matrix(-72,-0.000000000000008817,-0.000000000000008817,72,131.544964,-7.086539)"/>
<path style="fill:none;stroke-width:0.024;stroke-linecap:round;stroke-linejoin:miter;stroke:rgb(100%,100%,100%);stroke-opacity:1;stroke-miterlimit:10;" d="M 1.237495 0.750008 L 1.201145 0.713604 " transform="matrix(-72,-0.000000000000008817,-0.000000000000008817,72,131.544964,-7.086539)"/>
<path style=" stroke:none;fill-rule:evenodd;fill:rgb(0%,0%,0%);fill-opacity:1;" d="M 50.726562 27.113281 C 50.726562 28.074219 52.164062 28.074219 52.164062 27.113281 C 52.164062 26.152344 50.726562 26.152344 50.726562 27.113281 "/>
<path style=" stroke:none;fill-rule:evenodd;fill:rgb(0%,0%,0%);fill-opacity:1;" d="M 39.925781 34.3125 C 39.925781 35.273438 41.363281 35.273438 41.363281 34.3125 C 41.363281 33.351562 39.925781 33.351562 39.925781 34.3125 "/>
<path style=" stroke:none;fill-rule:evenodd;fill:rgb(0%,0%,0%);fill-opacity:1;" d="M 45.324219 37.914062 C 45.324219 38.875 46.765625 38.875 46.765625 37.914062 C 46.765625 36.953125 45.324219 36.953125 45.324219 37.914062 "/>
<path style=" stroke:none;fill-rule:evenodd;fill:rgb(0%,0%,0%);fill-opacity:1;" d="M 34.523438 41.511719 C 34.523438 42.472656 35.964844 42.472656 35.964844 41.511719 C 35.964844 40.554688 34.523438 40.554688 34.523438 41.511719 "/>
<path style=" stroke:none;fill-rule:evenodd;fill:rgb(0%,0%,0%);fill-opacity:1;" d="M 23.726562 21.714844 C 23.726562 22.671875 25.164062 22.671875 25.164062 21.714844 C 25.164062 20.753906 23.726562 20.753906 23.726562 21.714844 "/>
<path style=" stroke:none;fill-rule:evenodd;fill:rgb(0%,0%,0%);fill-opacity:1;" d="M 29.125 23.511719 C 29.125 24.472656 30.566406 24.472656 30.566406 23.511719 C 30.566406 22.554688 29.125 22.554688 29.125 23.511719 "/>
<path style=" stroke:none;fill-rule:evenodd;fill:rgb(0%,0%,0%);fill-opacity:1;" d="M 36.324219 23.511719 C 36.324219 24.472656 37.765625 24.472656 37.765625 23.511719 C 37.765625 22.554688 36.324219 22.554688 36.324219 23.511719 "/>
<path style="fill:none;stroke-width:0.012;stroke-linecap:round;stroke-linejoin:miter;stroke:rgb(100%,100%,100%);stroke-opacity:1;stroke-miterlimit:10;" d="M 0.637494 0.275013 L 0.637494 0.824981 " transform="matrix(72,0,0,-72,39.744964,72.113461)"/>
<path style="fill:none;stroke-width:0.012;stroke-linecap:round;stroke-linejoin:miter;stroke:rgb(100%,100%,100%);stroke-opacity:1;stroke-miterlimit:10;" d="M 0.637494 0.824981 L 1.212527 0.824981 " transform="matrix(72,0,0,-72,39.744964,72.113461)"/>
<path style="fill:none;stroke-width:0.012;stroke-linecap:round;stroke-linejoin:miter;stroke:rgb(100%,100%,100%);stroke-opacity:1;stroke-miterlimit:10;" d="M 1.212527 0.824981 L 1.287505 0.900013 " transform="matrix(72,0,0,-72,39.744964,72.113461)"/>
<path style="fill:none;stroke-width:0.012;stroke-linecap:round;stroke-linejoin:miter;stroke:rgb(100%,100%,100%);stroke-opacity:1;stroke-miterlimit:10;" d="M 1.287505 0.900013 L 1.712527 0.900013 " transform="matrix(72,0,0,-72,39.744964,72.113461)"/>
<path style="fill:none;stroke-width:0.012;stroke-linecap:round;stroke-linejoin:miter;stroke:rgb(100%,100%,100%);stroke-opacity:1;stroke-miterlimit:10;" d="M 1.712527 0.900013 L 1.712527 0.199981 " transform="matrix(72,0,0,-72,39.744964,72.113461)"/>
<path style="fill:none;stroke-width:0.012;stroke-linecap:round;stroke-linejoin:miter;stroke:rgb(100%,100%,100%);stroke-opacity:1;stroke-miterlimit:10;" d="M 1.712527 0.199981 L 1.287505 0.199981 " transform="matrix(72,0,0,-72,39.744964,72.113461)"/>
<path style="fill:none;stroke-width:0.012;stroke-linecap:round;stroke-linejoin:miter;stroke:rgb(100%,100%,100%);stroke-opacity:1;stroke-miterlimit:10;" d="M 1.287505 0.199981 L 1.212527 0.275013 " transform="matrix(72,0,0,-72,39.744964,72.113461)"/>
<path style="fill:none;stroke-width:0.012;stroke-linecap:round;stroke-linejoin:miter;stroke:rgb(100%,100%,100%);stroke-opacity:1;stroke-miterlimit:10;" d="M 1.212527 0.275013 L 0.637494 0.275013 " transform="matrix(72,0,0,-72,39.744964,72.113461)"/>
<path style=" stroke:none;fill-rule:evenodd;fill:rgb(100%,100%,100%);fill-opacity:1;" d="M 87.671875 41.839844 L 116.019531 41.839844 L 116.019531 37.585938 L 87.671875 37.585938 Z M 87.671875 41.839844 "/>
<path style=" stroke:none;fill-rule:evenodd;fill:rgb(100%,100%,100%);fill-opacity:1;" d="M 87.671875 34.640625 L 116.019531 34.640625 L 116.019531 30.386719 L 87.671875 30.386719 Z M 87.671875 34.640625 "/>
<path style=" stroke:none;fill-rule:evenodd;fill:rgb(100%,100%,100%);fill-opacity:1;" d="M 87.671875 27.441406 L 116.019531 27.441406 L 116.019531 23.1875 L 87.671875 23.1875 Z M 87.671875 27.441406 "/>
<path style=" stroke:none;fill-rule:evenodd;fill:rgb(100%,100%,100%);fill-opacity:1;" d="M 150.085938 27.472656 L 161.605469 27.472656 L 161.605469 23.152344 L 150.085938 23.152344 Z M 150.085938 27.472656 "/>
<path style=" stroke:none;fill-rule:evenodd;fill:rgb(100%,100%,100%);fill-opacity:1;" d="M 150.085938 34.671875 L 161.605469 34.671875 L 161.605469 30.351562 L 150.085938 30.351562 Z M 150.085938 34.671875 "/>
<path style=" stroke:none;fill-rule:evenodd;fill:rgb(100%,100%,100%);fill-opacity:1;" d="M 150.085938 41.875 L 161.605469 41.875 L 161.605469 37.554688 L 150.085938 37.554688 Z M 150.085938 41.875 "/>
<path style=" stroke:none;fill-rule:evenodd;fill:rgb(100%,100%,100%);fill-opacity:1;" d="M 150.085938 49.074219 L 161.605469 49.074219 L 161.605469 44.753906 L 150.085938 44.753906 Z M 150.085938 49.074219 "/>
<path style=" stroke:none;fill-rule:evenodd;fill:rgb(100%,100%,100%);fill-opacity:1;" d="M 150.085938 20.273438 L 161.605469 20.273438 L 161.605469 15.953125 L 150.085938 15.953125 Z M 150.085938 20.273438 "/>
<path style="fill:none;stroke-width:0.06;stroke-linecap:round;stroke-linejoin:miter;stroke:rgb(100%,100%,100%);stroke-opacity:1;stroke-miterlimit:10;" d="M 1.412505 0.455026 L 1.412505 0.395022 " transform="matrix(72,0,0,-72,39.744964,72.113461)"/>
<path style="fill:none;stroke-width:0.06;stroke-linecap:round;stroke-linejoin:miter;stroke:rgb(100%,100%,100%);stroke-opacity:1;stroke-miterlimit:10;" d="M 1.312516 0.395022 L 1.312516 0.455026 " transform="matrix(72,0,0,-72,39.744964,72.113461)"/>
<path style=" stroke:none;fill-rule:evenodd;fill:rgb(100%,100%,100%);fill-opacity:1;" d="M 149.003906 43.3125 C 149.003906 40.433594 144.683594 40.433594 144.683594 43.3125 C 144.683594 46.195312 149.003906 46.195312 149.003906 43.3125 "/>
<path style=" stroke:none;fill-rule:evenodd;fill:rgb(100%,100%,100%);fill-opacity:1;" d="M 132.804688 30.714844 C 132.804688 27.832031 128.484375 27.832031 128.484375 30.714844 C 128.484375 33.59375 132.804688 33.59375 132.804688 30.714844 "/>
<path style=" stroke:none;fill-rule:evenodd;fill:rgb(100%,100%,100%);fill-opacity:1;" d="M 127.40625 27.113281 C 127.40625 24.234375 123.085938 24.234375 123.085938 27.113281 C 123.085938 29.992188 127.40625 29.992188 127.40625 27.113281 "/>
<path style=" stroke:none;fill-rule:evenodd;fill:rgb(100%,100%,100%);fill-opacity:1;" d="M 138.203125 23.511719 C 138.203125 20.632812 133.886719 20.632812 133.886719 23.511719 C 133.886719 26.394531 138.203125 26.394531 138.203125 23.511719 "/>
<path style=" stroke:none;fill-rule:evenodd;fill:rgb(100%,100%,100%);fill-opacity:1;" d="M 122.003906 37.914062 C 122.003906 35.035156 117.683594 35.035156 117.683594 37.914062 C 117.683594 40.792969 122.003906 40.792969 122.003906 37.914062 "/>
<path style="fill:none;stroke-width:0.024;stroke-linecap:round;stroke-linejoin:miter;stroke:rgb(100%,100%,100%);stroke-opacity:1;stroke-miterlimit:10;" d="M 1.112483 0.474992 L 1.162505 0.474992 " transform="matrix(72,0,0,-72,39.744964,72.113461)"/>
<path style="fill:none;stroke-width:0.024;stroke-linecap:round;stroke-linejoin:miter;stroke:rgb(100%,100%,100%);stroke-opacity:1;stroke-miterlimit:10;" d="M 1.162505 0.474992 L 1.262494 0.574981 " transform="matrix(72,0,0,-72,39.744964,72.113461)"/>
<path style="fill:none;stroke-width:0.024;stroke-linecap:round;stroke-linejoin:miter;stroke:rgb(100%,100%,100%);stroke-opacity:1;stroke-miterlimit:10;" d="M 1.312516 0.602216 L 1.201133 0.713598 " transform="matrix(72,0,0,-72,39.744964,72.113461)"/>
<path style="fill:none;stroke-width:0.024;stroke-linecap:round;stroke-linejoin:miter;stroke:rgb(100%,100%,100%);stroke-opacity:1;stroke-miterlimit:10;" d="M 1.201133 0.713598 L 1.137494 0.650013 " transform="matrix(72,0,0,-72,39.744964,72.113461)"/>
<path style="fill:none;stroke-width:0.024;stroke-linecap:round;stroke-linejoin:miter;stroke:rgb(100%,100%,100%);stroke-opacity:1;stroke-miterlimit:10;" d="M 1.137494 0.650013 L 0.862483 0.650013 " transform="matrix(72,0,0,-72,39.744964,72.113461)"/>
<path style="fill:none;stroke-width:0.024;stroke-linecap:round;stroke-linejoin:miter;stroke:rgb(100%,100%,100%);stroke-opacity:1;stroke-miterlimit:10;" d="M 0.862483 0.550024 L 1.112483 0.550024 " transform="matrix(72,0,0,-72,39.744964,72.113461)"/>
<path style="fill:none;stroke-width:0.024;stroke-linecap:round;stroke-linejoin:miter;stroke:rgb(100%,100%,100%);stroke-opacity:1;stroke-miterlimit:10;" d="M 1.112483 0.550024 L 1.187516 0.625003 " transform="matrix(72,0,0,-72,39.744964,72.113461)"/>
<path style="fill:none;stroke-width:0.024;stroke-linecap:round;stroke-linejoin:miter;stroke:rgb(100%,100%,100%);stroke-opacity:1;stroke-miterlimit:10;" d="M 1.312516 0.602216 L 1.312516 0.425024 " transform="matrix(72,0,0,-72,39.744964,72.113461)"/>
<path style="fill:none;stroke-width:0.024;stroke-linecap:round;stroke-linejoin:miter;stroke:rgb(100%,100%,100%);stroke-opacity:1;stroke-miterlimit:10;" d="M 1.412505 0.425024 L 1.412505 0.329484 " transform="matrix(72,0,0,-72,39.744964,72.113461)"/>
<path style="fill:none;stroke-width:0.024;stroke-linecap:round;stroke-linejoin:miter;stroke:rgb(100%,100%,100%);stroke-opacity:1;stroke-miterlimit:10;" d="M 1.412505 0.329484 L 1.417008 0.324981 " transform="matrix(72,0,0,-72,39.744964,72.113461)"/>
<path style="fill:none;stroke-width:0.024;stroke-linecap:round;stroke-linejoin:miter;stroke:rgb(100%,100%,100%);stroke-opacity:1;stroke-miterlimit:10;" d="M 1.417008 0.324981 L 1.637494 0.324981 " transform="matrix(72,0,0,-72,39.744964,72.113461)"/>
<path style="fill:none;stroke-width:0.024;stroke-linecap:round;stroke-linejoin:miter;stroke:rgb(100%,100%,100%);stroke-opacity:1;stroke-miterlimit:10;" d="M 1.637494 0.324981 L 1.612483 0.349992 " transform="matrix(72,0,0,-72,39.744964,72.113461)"/>
<path style="fill:none;stroke-width:0.024;stroke-linecap:round;stroke-linejoin:miter;stroke:rgb(100%,100%,100%);stroke-opacity:1;stroke-miterlimit:10;" d="M 1.612483 0.349992 L 1.612483 0.449981 " transform="matrix(72,0,0,-72,39.744964,72.113461)"/>
<path style="fill:none;stroke-width:0.024;stroke-linecap:round;stroke-linejoin:miter;stroke:rgb(100%,100%,100%);stroke-opacity:1;stroke-miterlimit:10;" d="M 1.612483 0.449981 L 1.612483 0.550024 " transform="matrix(72,0,0,-72,39.744964,72.113461)"/>
<path style="fill:none;stroke-width:0.024;stroke-linecap:round;stroke-linejoin:miter;stroke:rgb(100%,100%,100%);stroke-opacity:1;stroke-miterlimit:10;" d="M 1.612483 0.550024 L 1.612483 0.650013 " transform="matrix(72,0,0,-72,39.744964,72.113461)"/>
<path style="fill:none;stroke-width:0.024;stroke-linecap:round;stroke-linejoin:miter;stroke:rgb(100%,100%,100%);stroke-opacity:1;stroke-miterlimit:10;" d="M 1.462527 0.650013 L 1.462527 0.525013 " transform="matrix(72,0,0,-72,39.744964,72.113461)"/>
<path style="fill:none;stroke-width:0.024;stroke-linecap:round;stroke-linejoin:miter;stroke:rgb(100%,100%,100%);stroke-opacity:1;stroke-miterlimit:10;" d="M 1.462527 0.525013 L 1.487483 0.500003 " transform="matrix(72,0,0,-72,39.744964,72.113461)"/>
<path style="fill:none;stroke-width:0.024;stroke-linecap:round;stroke-linejoin:miter;stroke:rgb(100%,100%,100%);stroke-opacity:1;stroke-miterlimit:10;" d="M 1.487483 0.500003 L 1.487483 0.400013 " transform="matrix(72,0,0,-72,39.744964,72.113461)"/>
<path style="fill:none;stroke-width:0.024;stroke-linecap:round;stroke-linejoin:miter;stroke:rgb(100%,100%,100%);stroke-opacity:1;stroke-miterlimit:10;" d="M 1.417008 0.324981 L 1.287505 0.324981 " transform="matrix(72,0,0,-72,39.744964,72.113461)"/>
<path style="fill:none;stroke-width:0.024;stroke-linecap:round;stroke-linejoin:miter;stroke:rgb(100%,100%,100%);stroke-opacity:1;stroke-miterlimit:10;" d="M 1.287505 0.324981 L 1.262494 0.349992 " transform="matrix(72,0,0,-72,39.744964,72.113461)"/>
<path style="fill:none;stroke-width:0.024;stroke-linecap:round;stroke-linejoin:miter;stroke:rgb(100%,100%,100%);stroke-opacity:1;stroke-miterlimit:10;" d="M 1.262494 0.349992 L 1.237483 0.349992 " transform="matrix(72,0,0,-72,39.744964,72.113461)"/>
<path style="fill:none;stroke-width:0.024;stroke-linecap:round;stroke-linejoin:miter;stroke:rgb(100%,100%,100%);stroke-opacity:1;stroke-miterlimit:10;" d="M 1.237483 0.349992 L 1.212527 0.375003 " transform="matrix(72,0,0,-72,39.744964,72.113461)"/>
<path style="fill:none;stroke-width:0.024;stroke-linecap:round;stroke-linejoin:miter;stroke:rgb(100%,100%,100%);stroke-opacity:1;stroke-miterlimit:10;" d="M 1.212527 0.375003 L 1.112483 0.375003 " transform="matrix(72,0,0,-72,39.744964,72.113461)"/>
<path style="fill:none;stroke-width:0.024;stroke-linecap:round;stroke-linejoin:miter;stroke:rgb(100%,100%,100%);stroke-opacity:1;stroke-miterlimit:10;" d="M 1.112483 0.375003 L 1.037505 0.449981 " transform="matrix(72,0,0,-72,39.744964,72.113461)"/>
<path style="fill:none;stroke-width:0.024;stroke-linecap:round;stroke-linejoin:miter;stroke:rgb(100%,100%,100%);stroke-opacity:1;stroke-miterlimit:10;" d="M 1.037505 0.449981 L 0.862483 0.449981 " transform="matrix(72,0,0,-72,39.744964,72.113461)"/>
<path style="fill:none;stroke-width:0.024;stroke-linecap:round;stroke-linejoin:miter;stroke:rgb(100%,100%,100%);stroke-opacity:1;stroke-miterlimit:10;" d="M 1.337527 0.675024 L 1.437516 0.675024 " transform="matrix(72,0,0,-72,39.744964,72.113461)"/>
<path style="fill:none;stroke-width:0.024;stroke-linecap:round;stroke-linejoin:miter;stroke:rgb(100%,100%,100%);stroke-opacity:1;stroke-miterlimit:10;" d="M 1.437516 0.675024 L 1.462527 0.650013 " transform="matrix(72,0,0,-72,39.744964,72.113461)"/>
<path style="fill:none;stroke-width:0.024;stroke-linecap:round;stroke-linejoin:miter;stroke:rgb(100%,100%,100%);stroke-opacity:1;stroke-miterlimit:10;" d="M 1.612483 0.750003 L 1.237483 0.750003 " transform="matrix(72,0,0,-72,39.744964,72.113461)"/>
<path style="fill:none;stroke-width:0.024;stroke-linecap:round;stroke-linejoin:miter;stroke:rgb(100%,100%,100%);stroke-opacity:1;stroke-miterlimit:10;" d="M 1.237483 0.750003 L 1.201133 0.713598 " transform="matrix(72,0,0,-72,39.744964,72.113461)"/>
<path style=" stroke:none;fill-rule:evenodd;fill:rgb(0%,0%,0%);fill-opacity:1;" d="M 120.566406 37.914062 C 120.566406 36.953125 119.125 36.953125 119.125 37.914062 C 119.125 38.875 120.566406 38.875 120.566406 37.914062 "/>
<path style=" stroke:none;fill-rule:evenodd;fill:rgb(0%,0%,0%);fill-opacity:1;" d="M 131.363281 30.714844 C 131.363281 29.753906 129.925781 29.753906 129.925781 30.714844 C 129.925781 31.671875 131.363281 31.671875 131.363281 30.714844 "/>
<path style=" stroke:none;fill-rule:evenodd;fill:rgb(0%,0%,0%);fill-opacity:1;" d="M 125.964844 27.113281 C 125.964844 26.152344 124.523438 26.152344 124.523438 27.113281 C 124.523438 28.074219 125.964844 28.074219 125.964844 27.113281 "/>
<path style=" stroke:none;fill-rule:evenodd;fill:rgb(0%,0%,0%);fill-opacity:1;" d="M 136.765625 23.511719 C 136.765625 22.554688 135.324219 22.554688 135.324219 23.511719 C 135.324219 24.472656 136.765625 24.472656 136.765625 23.511719 "/>
<path style=" stroke:none;fill-rule:evenodd;fill:rgb(0%,0%,0%);fill-opacity:1;" d="M 147.566406 43.3125 C 147.566406 42.351562 146.125 42.351562 146.125 43.3125 C 146.125 44.273438 147.566406 44.273438 147.566406 43.3125 "/>
<path style=" stroke:none;fill-rule:evenodd;fill:rgb(0%,0%,0%);fill-opacity:1;" d="M 142.164062 41.511719 C 142.164062 40.554688 140.726562 40.554688 140.726562 41.511719 C 140.726562 42.472656 142.164062 42.472656 142.164062 41.511719 "/>
<path style=" stroke:none;fill-rule:evenodd;fill:rgb(0%,0%,0%);fill-opacity:1;" d="M 134.964844 41.511719 C 134.964844 40.554688 133.523438 40.554688 133.523438 41.511719 C 133.523438 42.472656 134.964844 42.472656 134.964844 41.511719 "/>
<path style="fill:none;stroke-width:0.012;stroke-linecap:round;stroke-linejoin:miter;stroke:rgb(100%,100%,100%);stroke-opacity:1;stroke-miterlimit:10;" d="M 0.312514 0.199982 L 0.737481 0.199982 " transform="matrix(-72,-0.000000000000008817,-0.000000000000008817,72,185.516618,77.952831)"/>
<path style="fill:none;stroke-width:0.012;stroke-linecap:round;stroke-linejoin:miter;stroke:rgb(100%,100%,100%);stroke-opacity:1;stroke-miterlimit:10;" d="M 0.737481 0.199982 L 0.812514 0.275015 " transform="matrix(-72,-0.000000000000008817,-0.000000000000008817,72,185.516618,77.952831)"/>
<path style="fill:none;stroke-width:0.012;stroke-linecap:round;stroke-linejoin:miter;stroke:rgb(100%,100%,100%);stroke-opacity:1;stroke-miterlimit:10;" d="M 0.812514 0.275015 L 1.387492 0.275015 " transform="matrix(-72,-0.000000000000008817,-0.000000000000008817,72,185.516618,77.952831)"/>
<path style="fill:none;stroke-width:0.012;stroke-linecap:round;stroke-linejoin:miter;stroke:rgb(100%,100%,100%);stroke-opacity:1;stroke-miterlimit:10;" d="M 1.387492 0.275015 L 1.387492 0.824982 " transform="matrix(-72,-0.000000000000008817,-0.000000000000008817,72,185.516618,77.952831)"/>
<path style="fill:none;stroke-width:0.012;stroke-linecap:round;stroke-linejoin:miter;stroke:rgb(100%,100%,100%);stroke-opacity:1;stroke-miterlimit:10;" d="M 1.387492 0.824982 L 0.812514 0.824982 " transform="matrix(-72,-0.000000000000008817,-0.000000000000008817,72,185.516618,77.952831)"/>
<path style="fill:none;stroke-width:0.012;stroke-linecap:round;stroke-linejoin:miter;stroke:rgb(100%,100%,100%);stroke-opacity:1;stroke-miterlimit:10;" d="M 0.812514 0.824982 L 0.737481 0.900015 " transform="matrix(-72,-0.000000000000008817,-0.000000000000008817,72,185.516618,77.952831)"/>
<path style="fill:none;stroke-width:0.012;stroke-linecap:round;stroke-linejoin:miter;stroke:rgb(100%,100%,100%);stroke-opacity:1;stroke-miterlimit:10;" d="M 0.737481 0.900015 L 0.312514 0.900015 " transform="matrix(-72,-0.000000000000008817,-0.000000000000008817,72,185.516618,77.952831)"/>
<path style="fill:none;stroke-width:0.012;stroke-linecap:round;stroke-linejoin:miter;stroke:rgb(100%,100%,100%);stroke-opacity:1;stroke-miterlimit:10;" d="M 0.312514 0.900015 L 0.312514 0.199982 " transform="matrix(-72,-0.000000000000008817,-0.000000000000008817,72,185.516618,77.952831)"/>
<path style=" stroke:none;fill-rule:evenodd;fill:rgb(100%,100%,100%);fill-opacity:1;" d="M 115.988281 101.027344 L 87.640625 101.027344 L 87.640625 105.28125 L 115.988281 105.28125 Z M 115.988281 101.027344 "/>
<path style=" stroke:none;fill-rule:evenodd;fill:rgb(100%,100%,100%);fill-opacity:1;" d="M 115.988281 108.226562 L 87.640625 108.226562 L 87.640625 112.480469 L 115.988281 112.480469 Z M 115.988281 108.226562 "/>
<path style=" stroke:none;fill-rule:evenodd;fill:rgb(100%,100%,100%);fill-opacity:1;" d="M 115.988281 115.425781 L 87.640625 115.425781 L 87.640625 119.679688 L 115.988281 119.679688 Z M 115.988281 115.425781 "/>
<path style=" stroke:none;fill-rule:evenodd;fill:rgb(100%,100%,100%);fill-opacity:1;" d="M 115.988281 122.625 L 87.640625 122.625 L 87.640625 126.878906 L 115.988281 126.878906 Z M 115.988281 122.625 "/>
<path style=" stroke:none;fill-rule:evenodd;fill:rgb(100%,100%,100%);fill-opacity:1;" d="M 115.988281 129.828125 L 87.640625 129.828125 L 87.640625 134.082031 L 115.988281 134.082031 Z M 115.988281 129.828125 "/>
<path style=" stroke:none;fill-rule:evenodd;fill:rgb(100%,100%,100%);fill-opacity:1;" d="M 161.578125 129.792969 L 150.058594 129.792969 L 150.058594 134.113281 L 161.578125 134.113281 Z M 161.578125 129.792969 "/>
<path style=" stroke:none;fill-rule:evenodd;fill:rgb(100%,100%,100%);fill-opacity:1;" d="M 161.578125 122.59375 L 150.058594 122.59375 L 150.058594 126.914062 L 161.578125 126.914062 Z M 161.578125 122.59375 "/>
<path style=" stroke:none;fill-rule:evenodd;fill:rgb(100%,100%,100%);fill-opacity:1;" d="M 161.578125 115.394531 L 150.058594 115.394531 L 150.058594 119.714844 L 161.578125 119.714844 Z M 161.578125 115.394531 "/>
<path style=" stroke:none;fill-rule:evenodd;fill:rgb(100%,100%,100%);fill-opacity:1;" d="M 161.578125 108.191406 L 150.058594 108.191406 L 150.058594 112.511719 L 161.578125 112.511719 Z M 161.578125 108.191406 "/>
<path style=" stroke:none;fill-rule:evenodd;fill:rgb(100%,100%,100%);fill-opacity:1;" d="M 161.578125 100.992188 L 150.058594 100.992188 L 150.058594 105.3125 L 161.578125 105.3125 Z M 161.578125 100.992188 "/>
<path style="fill:none;stroke-width:0.06;stroke-linecap:round;stroke-linejoin:miter;stroke:rgb(100%,100%,100%);stroke-opacity:1;stroke-miterlimit:10;" d="M 0.612481 0.395024 L 0.612481 0.454974 " transform="matrix(-72,-0.000000000000008817,-0.000000000000008817,72,185.516618,77.952831)"/>
<path style="fill:none;stroke-width:0.06;stroke-linecap:round;stroke-linejoin:miter;stroke:rgb(100%,100%,100%);stroke-opacity:1;stroke-miterlimit:10;" d="M 0.712525 0.454974 L 0.712525 0.395024 " transform="matrix(-72,-0.000000000000008817,-0.000000000000008817,72,185.516618,77.952831)"/>
<path style=" stroke:none;fill-rule:evenodd;fill:rgb(100%,100%,100%);fill-opacity:1;" d="M 144.65625 106.753906 C 144.65625 109.632812 148.976562 109.632812 148.976562 106.753906 C 148.976562 103.871094 144.65625 103.871094 144.65625 106.753906 "/>
<path style=" stroke:none;fill-rule:evenodd;fill:rgb(100%,100%,100%);fill-opacity:1;" d="M 128.457031 119.351562 C 128.457031 122.234375 132.777344 122.234375 132.777344 119.351562 C 132.777344 116.472656 128.457031 116.472656 128.457031 119.351562 "/>
<path style=" stroke:none;fill-rule:evenodd;fill:rgb(100%,100%,100%);fill-opacity:1;" d="M 123.054688 122.953125 C 123.054688 125.832031 127.375 125.832031 127.375 122.953125 C 127.375 120.074219 123.054688 120.074219 123.054688 122.953125 "/>
<path style=" stroke:none;fill-rule:evenodd;fill:rgb(100%,100%,100%);fill-opacity:1;" d="M 133.855469 126.554688 C 133.855469 129.433594 138.175781 129.433594 138.175781 126.554688 C 138.175781 123.671875 133.855469 123.671875 133.855469 126.554688 "/>
<path style=" stroke:none;fill-rule:evenodd;fill:rgb(100%,100%,100%);fill-opacity:1;" d="M 117.65625 112.152344 C 117.65625 115.03125 121.976562 115.03125 121.976562 112.152344 C 121.976562 109.273438 117.65625 109.273438 117.65625 112.152344 "/>
<path style="fill:none;stroke-width:0.024;stroke-linecap:round;stroke-linejoin:miter;stroke:rgb(100%,100%,100%);stroke-opacity:1;stroke-miterlimit:10;" d="M 0.912503 0.474993 L 0.937514 0.449982 " transform="matrix(-72,-0.000000000000008817,-0.000000000000008817,72,185.516618,77.952831)"/>
<path style="fill:none;stroke-width:0.024;stroke-linecap:round;stroke-linejoin:miter;stroke:rgb(100%,100%,100%);stroke-opacity:1;stroke-miterlimit:10;" d="M 0.937514 0.449982 L 1.162503 0.449982 " transform="matrix(-72,-0.000000000000008817,-0.000000000000008817,72,185.516618,77.952831)"/>
<path style="fill:none;stroke-width:0.024;stroke-linecap:round;stroke-linejoin:miter;stroke:rgb(100%,100%,100%);stroke-opacity:1;stroke-miterlimit:10;" d="M 1.162503 0.550026 L 0.912503 0.550026 " transform="matrix(-72,-0.000000000000008817,-0.000000000000008817,72,185.516618,77.952831)"/>
<path style="fill:none;stroke-width:0.024;stroke-linecap:round;stroke-linejoin:miter;stroke:rgb(100%,100%,100%);stroke-opacity:1;stroke-miterlimit:10;" d="M 0.912503 0.550026 L 0.862481 0.500004 " transform="matrix(-72,-0.000000000000008817,-0.000000000000008817,72,185.516618,77.952831)"/>
<path style="fill:none;stroke-width:0.024;stroke-linecap:round;stroke-linejoin:miter;stroke:rgb(100%,100%,100%);stroke-opacity:1;stroke-miterlimit:10;" d="M 0.862481 0.500004 L 0.737481 0.500004 " transform="matrix(-72,-0.000000000000008817,-0.000000000000008817,72,185.516618,77.952831)"/>
<path style="fill:none;stroke-width:0.024;stroke-linecap:round;stroke-linejoin:miter;stroke:rgb(100%,100%,100%);stroke-opacity:1;stroke-miterlimit:10;" d="M 0.737481 0.500004 L 0.712525 0.525015 " transform="matrix(-72,-0.000000000000008817,-0.000000000000008817,72,185.516618,77.952831)"/>
<path style="fill:none;stroke-width:0.024;stroke-linecap:round;stroke-linejoin:miter;stroke:rgb(100%,100%,100%);stroke-opacity:1;stroke-miterlimit:10;" d="M 0.712525 0.525015 L 0.587525 0.525015 " transform="matrix(-72,-0.000000000000008817,-0.000000000000008817,72,185.516618,77.952831)"/>
<path style="fill:none;stroke-width:0.024;stroke-linecap:round;stroke-linejoin:miter;stroke:rgb(100%,100%,100%);stroke-opacity:1;stroke-miterlimit:10;" d="M 0.587525 0.525015 L 0.512492 0.449982 " transform="matrix(-72,-0.000000000000008817,-0.000000000000008817,72,185.516618,77.952831)"/>
<path style="fill:none;stroke-width:0.024;stroke-linecap:round;stroke-linejoin:miter;stroke:rgb(100%,100%,100%);stroke-opacity:1;stroke-miterlimit:10;" d="M 0.512492 0.449982 L 0.412503 0.449982 " transform="matrix(-72,-0.000000000000008817,-0.000000000000008817,72,185.516618,77.952831)"/>
<path style="fill:none;stroke-width:0.024;stroke-linecap:round;stroke-linejoin:miter;stroke:rgb(100%,100%,100%);stroke-opacity:1;stroke-miterlimit:10;" d="M 0.537503 0.400015 L 0.537503 0.375004 " transform="matrix(-72,-0.000000000000008817,-0.000000000000008817,72,185.516618,77.952831)"/>
<path style="fill:none;stroke-width:0.024;stroke-linecap:round;stroke-linejoin:miter;stroke:rgb(100%,100%,100%);stroke-opacity:1;stroke-miterlimit:10;" d="M 0.537503 0.375004 L 0.512492 0.349993 " transform="matrix(-72,-0.000000000000008817,-0.000000000000008817,72,185.516618,77.952831)"/>
<path style="fill:none;stroke-width:0.024;stroke-linecap:round;stroke-linejoin:miter;stroke:rgb(100%,100%,100%);stroke-opacity:1;stroke-miterlimit:10;" d="M 0.512492 0.349993 L 0.412503 0.349993 " transform="matrix(-72,-0.000000000000008817,-0.000000000000008817,72,185.516618,77.952831)"/>
<path style="fill:none;stroke-width:0.024;stroke-linecap:round;stroke-linejoin:miter;stroke:rgb(100%,100%,100%);stroke-opacity:1;stroke-miterlimit:10;" d="M 0.412503 0.349993 L 0.462525 0.349993 " transform="matrix(-72,-0.000000000000008817,-0.000000000000008817,72,185.516618,77.952831)"/>
<path style="fill:none;stroke-width:0.024;stroke-linecap:round;stroke-linejoin:miter;stroke:rgb(100%,100%,100%);stroke-opacity:1;stroke-miterlimit:10;" d="M 0.462525 0.550026 L 0.512492 0.599993 " transform="matrix(-72,-0.000000000000008817,-0.000000000000008817,72,185.516618,77.952831)"/>
<path style="fill:none;stroke-width:0.024;stroke-linecap:round;stroke-linejoin:miter;stroke:rgb(100%,100%,100%);stroke-opacity:1;stroke-miterlimit:10;" d="M 0.512492 0.599993 L 0.562514 0.599993 " transform="matrix(-72,-0.000000000000008817,-0.000000000000008817,72,185.516618,77.952831)"/>
<path style="fill:none;stroke-width:0.024;stroke-linecap:round;stroke-linejoin:miter;stroke:rgb(100%,100%,100%);stroke-opacity:1;stroke-miterlimit:10;" d="M 0.562514 0.599993 L 0.587525 0.574982 " transform="matrix(-72,-0.000000000000008817,-0.000000000000008817,72,185.516618,77.952831)"/>
<path style="fill:none;stroke-width:0.024;stroke-linecap:round;stroke-linejoin:miter;stroke:rgb(100%,100%,100%);stroke-opacity:1;stroke-miterlimit:10;" d="M 0.587525 0.574982 L 0.762492 0.574982 " transform="matrix(-72,-0.000000000000008817,-0.000000000000008817,72,185.516618,77.952831)"/>
<path style="fill:none;stroke-width:0.024;stroke-linecap:round;stroke-linejoin:miter;stroke:rgb(100%,100%,100%);stroke-opacity:1;stroke-miterlimit:10;" d="M 0.837525 0.625004 L 0.662503 0.625004 " transform="matrix(-72,-0.000000000000008817,-0.000000000000008817,72,185.516618,77.952831)"/>
<path style="fill:none;stroke-width:0.024;stroke-linecap:round;stroke-linejoin:miter;stroke:rgb(100%,100%,100%);stroke-opacity:1;stroke-miterlimit:10;" d="M 0.662503 0.625004 L 0.537503 0.750004 " transform="matrix(-72,-0.000000000000008817,-0.000000000000008817,72,185.516618,77.952831)"/>
<path style="fill:none;stroke-width:0.024;stroke-linecap:round;stroke-linejoin:miter;stroke:rgb(100%,100%,100%);stroke-opacity:1;stroke-miterlimit:10;" d="M 0.537503 0.750004 L 0.412503 0.750004 " transform="matrix(-72,-0.000000000000008817,-0.000000000000008817,72,185.516618,77.952831)"/>
<path style="fill:none;stroke-width:0.024;stroke-linecap:round;stroke-linejoin:miter;stroke:rgb(100%,100%,100%);stroke-opacity:1;stroke-miterlimit:10;" d="M 0.687514 0.675026 L 0.737481 0.675026 " transform="matrix(-72,-0.000000000000008817,-0.000000000000008817,72,185.516618,77.952831)"/>
<path style="fill:none;stroke-width:0.024;stroke-linecap:round;stroke-linejoin:miter;stroke:rgb(100%,100%,100%);stroke-opacity:1;stroke-miterlimit:10;" d="M 0.737481 0.675026 L 0.762492 0.699982 " transform="matrix(-72,-0.000000000000008817,-0.000000000000008817,72,185.516618,77.952831)"/>
<path style="fill:none;stroke-width:0.024;stroke-linecap:round;stroke-linejoin:miter;stroke:rgb(100%,100%,100%);stroke-opacity:1;stroke-miterlimit:10;" d="M 0.762492 0.699982 L 0.912503 0.699982 " transform="matrix(-72,-0.000000000000008817,-0.000000000000008817,72,185.516618,77.952831)"/>
<path style="fill:none;stroke-width:0.024;stroke-linecap:round;stroke-linejoin:miter;stroke:rgb(100%,100%,100%);stroke-opacity:1;stroke-miterlimit:10;" d="M 0.912503 0.699982 L 0.962525 0.650015 " transform="matrix(-72,-0.000000000000008817,-0.000000000000008817,72,185.516618,77.952831)"/>
<path style="fill:none;stroke-width:0.024;stroke-linecap:round;stroke-linejoin:miter;stroke:rgb(100%,100%,100%);stroke-opacity:1;stroke-miterlimit:10;" d="M 0.962525 0.650015 L 1.162503 0.650015 " transform="matrix(-72,-0.000000000000008817,-0.000000000000008817,72,185.516618,77.952831)"/>
<path style="fill:none;stroke-width:0.024;stroke-linecap:round;stroke-linejoin:miter;stroke:rgb(100%,100%,100%);stroke-opacity:1;stroke-miterlimit:10;" d="M 0.462525 0.550026 L 0.412503 0.550026 " transform="matrix(-72,-0.000000000000008817,-0.000000000000008817,72,185.516618,77.952831)"/>
<path style=" stroke:none;fill-rule:evenodd;fill:rgb(0%,0%,0%);fill-opacity:1;" d="M 146.097656 106.753906 C 146.097656 107.710938 147.535156 107.710938 147.535156 106.753906 C 147.535156 105.792969 146.097656 105.792969 146.097656 106.753906 "/>
<path style=" stroke:none;fill-rule:evenodd;fill:rgb(0%,0%,0%);fill-opacity:1;" d="M 129.898438 119.351562 C 129.898438 120.3125 131.335938 120.3125 131.335938 119.351562 C 131.335938 118.394531 129.898438 118.394531 129.898438 119.351562 "/>
<path style=" stroke:none;fill-rule:evenodd;fill:rgb(0%,0%,0%);fill-opacity:1;" d="M 124.496094 122.953125 C 124.496094 123.914062 125.9375 123.914062 125.9375 122.953125 C 125.9375 121.992188 124.496094 121.992188 124.496094 122.953125 "/>
<path style=" stroke:none;fill-rule:evenodd;fill:rgb(0%,0%,0%);fill-opacity:1;" d="M 135.296875 126.554688 C 135.296875 127.511719 136.738281 127.511719 136.738281 126.554688 C 136.738281 125.59375 135.296875 125.59375 135.296875 126.554688 "/>
<path style=" stroke:none;fill-rule:evenodd;fill:rgb(0%,0%,0%);fill-opacity:1;" d="M 119.097656 112.152344 C 119.097656 113.113281 120.535156 113.113281 120.535156 112.152344 C 120.535156 111.191406 119.097656 111.191406 119.097656 112.152344 "/>
<path style=" stroke:none;fill-rule:evenodd;fill:rgb(0%,0%,0%);fill-opacity:1;" d="M 133.496094 108.554688 C 133.496094 109.511719 134.9375 109.511719 134.9375 108.554688 C 134.9375 107.59375 133.496094 107.59375 133.496094 108.554688 "/>
<path style=" stroke:none;fill-rule:evenodd;fill:rgb(0%,0%,0%);fill-opacity:1;" d="M 140.695312 108.554688 C 140.695312 109.511719 142.136719 109.511719 142.136719 108.554688 C 142.136719 107.59375 140.695312 107.59375 140.695312 108.554688 "/>
<path style="fill:none;stroke-width:0.012;stroke-linecap:round;stroke-linejoin:miter;stroke:rgb(100%,100%,100%);stroke-opacity:1;stroke-miterlimit:10;" d="M 0.312475 0.199985 L 0.737497 0.199985 " transform="matrix(72,0,0,-72,-14.283382,157.152831)"/>
<path style="fill:none;stroke-width:0.012;stroke-linecap:round;stroke-linejoin:miter;stroke:rgb(100%,100%,100%);stroke-opacity:1;stroke-miterlimit:10;" d="M 0.737497 0.199985 L 0.812475 0.275018 " transform="matrix(72,0,0,-72,-14.283382,157.152831)"/>
<path style="fill:none;stroke-width:0.012;stroke-linecap:round;stroke-linejoin:miter;stroke:rgb(100%,100%,100%);stroke-opacity:1;stroke-miterlimit:10;" d="M 0.812475 0.275018 L 1.387508 0.275018 " transform="matrix(72,0,0,-72,-14.283382,157.152831)"/>
<path style="fill:none;stroke-width:0.012;stroke-linecap:round;stroke-linejoin:miter;stroke:rgb(100%,100%,100%);stroke-opacity:1;stroke-miterlimit:10;" d="M 1.387508 0.275018 L 1.387508 0.824985 " transform="matrix(72,0,0,-72,-14.283382,157.152831)"/>
<path style="fill:none;stroke-width:0.012;stroke-linecap:round;stroke-linejoin:miter;stroke:rgb(100%,100%,100%);stroke-opacity:1;stroke-miterlimit:10;" d="M 1.387508 0.824985 L 0.812475 0.824985 " transform="matrix(72,0,0,-72,-14.283382,157.152831)"/>
<path style="fill:none;stroke-width:0.012;stroke-linecap:round;stroke-linejoin:miter;stroke:rgb(100%,100%,100%);stroke-opacity:1;stroke-miterlimit:10;" d="M 0.812475 0.824985 L 0.737497 0.900018 " transform="matrix(72,0,0,-72,-14.283382,157.152831)"/>
<path style="fill:none;stroke-width:0.012;stroke-linecap:round;stroke-linejoin:miter;stroke:rgb(100%,100%,100%);stroke-opacity:1;stroke-miterlimit:10;" d="M 0.737497 0.900018 L 0.312475 0.900018 " transform="matrix(72,0,0,-72,-14.283382,157.152831)"/>
<path style="fill:none;stroke-width:0.012;stroke-linecap:round;stroke-linejoin:miter;stroke:rgb(100%,100%,100%);stroke-opacity:1;stroke-miterlimit:10;" d="M 0.312475 0.900018 L 0.312475 0.199985 " transform="matrix(72,0,0,-72,-14.283382,157.152831)"/>
<path style=" stroke:none;fill-rule:evenodd;fill:rgb(100%,100%,100%);fill-opacity:1;" d="M 55.242188 134.078125 L 83.589844 134.078125 L 83.589844 129.824219 L 55.242188 129.824219 Z M 55.242188 134.078125 "/>
<path style=" stroke:none;fill-rule:evenodd;fill:rgb(100%,100%,100%);fill-opacity:1;" d="M 55.242188 126.878906 L 83.589844 126.878906 L 83.589844 122.625 L 55.242188 122.625 Z M 55.242188 126.878906 "/>
<path style=" stroke:none;fill-rule:evenodd;fill:rgb(100%,100%,100%);fill-opacity:1;" d="M 55.242188 119.679688 L 83.589844 119.679688 L 83.589844 115.425781 L 55.242188 115.425781 Z M 55.242188 119.679688 "/>
<path style=" stroke:none;fill-rule:evenodd;fill:rgb(100%,100%,100%);fill-opacity:1;" d="M 55.242188 112.480469 L 83.589844 112.480469 L 83.589844 108.226562 L 55.242188 108.226562 Z M 55.242188 112.480469 "/>
<path style=" stroke:none;fill-rule:evenodd;fill:rgb(100%,100%,100%);fill-opacity:1;" d="M 55.242188 105.277344 L 83.589844 105.277344 L 83.589844 101.023438 L 55.242188 101.023438 Z M 55.242188 105.277344 "/>
<path style=" stroke:none;fill-rule:evenodd;fill:rgb(100%,100%,100%);fill-opacity:1;" d="M 9.65625 105.3125 L 21.175781 105.3125 L 21.175781 100.992188 L 9.65625 100.992188 Z M 9.65625 105.3125 "/>
<path style=" stroke:none;fill-rule:evenodd;fill:rgb(100%,100%,100%);fill-opacity:1;" d="M 9.65625 112.511719 L 21.175781 112.511719 L 21.175781 108.191406 L 9.65625 108.191406 Z M 9.65625 112.511719 "/>
<path style=" stroke:none;fill-rule:evenodd;fill:rgb(100%,100%,100%);fill-opacity:1;" d="M 9.65625 119.710938 L 21.175781 119.710938 L 21.175781 115.390625 L 9.65625 115.390625 Z M 9.65625 119.710938 "/>
<path style=" stroke:none;fill-rule:evenodd;fill:rgb(100%,100%,100%);fill-opacity:1;" d="M 9.65625 126.914062 L 21.175781 126.914062 L 21.175781 122.59375 L 9.65625 122.59375 Z M 9.65625 126.914062 "/>
<path style=" stroke:none;fill-rule:evenodd;fill:rgb(100%,100%,100%);fill-opacity:1;" d="M 9.65625 134.113281 L 21.175781 134.113281 L 21.175781 129.792969 L 9.65625 129.792969 Z M 9.65625 134.113281 "/>
<path style="fill:none;stroke-width:0.06;stroke-linecap:round;stroke-linejoin:miter;stroke:rgb(100%,100%,100%);stroke-opacity:1;stroke-miterlimit:10;" d="M 0.612497 0.395026 L 0.612497 0.454976 " transform="matrix(72,0,0,-72,-14.283382,157.152831)"/>
<path style="fill:none;stroke-width:0.06;stroke-linecap:round;stroke-linejoin:miter;stroke:rgb(100%,100%,100%);stroke-opacity:1;stroke-miterlimit:10;" d="M 0.712486 0.454976 L 0.712486 0.395026 " transform="matrix(72,0,0,-72,-14.283382,157.152831)"/>
<path style=" stroke:none;fill-rule:evenodd;fill:rgb(100%,100%,100%);fill-opacity:1;" d="M 26.578125 128.351562 C 26.578125 125.472656 22.257812 125.472656 22.257812 128.351562 C 22.257812 131.234375 26.578125 131.234375 26.578125 128.351562 "/>
<path style=" stroke:none;fill-rule:evenodd;fill:rgb(100%,100%,100%);fill-opacity:1;" d="M 42.777344 115.753906 C 42.777344 112.871094 38.457031 112.871094 38.457031 115.753906 C 38.457031 118.632812 42.777344 118.632812 42.777344 115.753906 "/>
<path style=" stroke:none;fill-rule:evenodd;fill:rgb(100%,100%,100%);fill-opacity:1;" d="M 48.175781 112.152344 C 48.175781 109.273438 43.855469 109.273438 43.855469 112.152344 C 43.855469 115.03125 48.175781 115.03125 48.175781 112.152344 "/>
<path style=" stroke:none;fill-rule:evenodd;fill:rgb(100%,100%,100%);fill-opacity:1;" d="M 37.375 108.554688 C 37.375 105.671875 33.054688 105.671875 33.054688 108.554688 C 33.054688 111.433594 37.375 111.433594 37.375 108.554688 "/>
<path style=" stroke:none;fill-rule:evenodd;fill:rgb(100%,100%,100%);fill-opacity:1;" d="M 53.578125 122.953125 C 53.578125 120.074219 49.257812 120.074219 49.257812 122.953125 C 49.257812 125.832031 53.578125 125.832031 53.578125 122.953125 "/>
<path style="fill:none;stroke-width:0.024;stroke-linecap:round;stroke-linejoin:miter;stroke:rgb(100%,100%,100%);stroke-opacity:1;stroke-miterlimit:10;" d="M 0.912519 0.474996 L 0.937475 0.449985 " transform="matrix(72,0,0,-72,-14.283382,157.152831)"/>
<path style="fill:none;stroke-width:0.024;stroke-linecap:round;stroke-linejoin:miter;stroke:rgb(100%,100%,100%);stroke-opacity:1;stroke-miterlimit:10;" d="M 0.937475 0.449985 L 1.162519 0.449985 " transform="matrix(72,0,0,-72,-14.283382,157.152831)"/>
<path style="fill:none;stroke-width:0.024;stroke-linecap:round;stroke-linejoin:miter;stroke:rgb(100%,100%,100%);stroke-opacity:1;stroke-miterlimit:10;" d="M 1.162519 0.549974 L 0.912519 0.549974 " transform="matrix(72,0,0,-72,-14.283382,157.152831)"/>
<path style="fill:none;stroke-width:0.024;stroke-linecap:round;stroke-linejoin:miter;stroke:rgb(100%,100%,100%);stroke-opacity:1;stroke-miterlimit:10;" d="M 0.912519 0.549974 L 0.862497 0.500007 " transform="matrix(72,0,0,-72,-14.283382,157.152831)"/>
<path style="fill:none;stroke-width:0.024;stroke-linecap:round;stroke-linejoin:miter;stroke:rgb(100%,100%,100%);stroke-opacity:1;stroke-miterlimit:10;" d="M 0.862497 0.500007 L 0.737497 0.500007 " transform="matrix(72,0,0,-72,-14.283382,157.152831)"/>
<path style="fill:none;stroke-width:0.024;stroke-linecap:round;stroke-linejoin:miter;stroke:rgb(100%,100%,100%);stroke-opacity:1;stroke-miterlimit:10;" d="M 0.737497 0.500007 L 0.712486 0.525018 " transform="matrix(72,0,0,-72,-14.283382,157.152831)"/>
<path style="fill:none;stroke-width:0.024;stroke-linecap:round;stroke-linejoin:miter;stroke:rgb(100%,100%,100%);stroke-opacity:1;stroke-miterlimit:10;" d="M 0.712486 0.525018 L 0.587486 0.525018 " transform="matrix(72,0,0,-72,-14.283382,157.152831)"/>
<path style="fill:none;stroke-width:0.024;stroke-linecap:round;stroke-linejoin:miter;stroke:rgb(100%,100%,100%);stroke-opacity:1;stroke-miterlimit:10;" d="M 0.587486 0.525018 L 0.512508 0.449985 " transform="matrix(72,0,0,-72,-14.283382,157.152831)"/>
<path style="fill:none;stroke-width:0.024;stroke-linecap:round;stroke-linejoin:miter;stroke:rgb(100%,100%,100%);stroke-opacity:1;stroke-miterlimit:10;" d="M 0.512508 0.449985 L 0.412519 0.449985 " transform="matrix(72,0,0,-72,-14.283382,157.152831)"/>
<path style="fill:none;stroke-width:0.024;stroke-linecap:round;stroke-linejoin:miter;stroke:rgb(100%,100%,100%);stroke-opacity:1;stroke-miterlimit:10;" d="M 0.537519 0.400018 L 0.537519 0.375007 " transform="matrix(72,0,0,-72,-14.283382,157.152831)"/>
<path style="fill:none;stroke-width:0.024;stroke-linecap:round;stroke-linejoin:miter;stroke:rgb(100%,100%,100%);stroke-opacity:1;stroke-miterlimit:10;" d="M 0.537519 0.375007 L 0.512508 0.349996 " transform="matrix(72,0,0,-72,-14.283382,157.152831)"/>
<path style="fill:none;stroke-width:0.024;stroke-linecap:round;stroke-linejoin:miter;stroke:rgb(100%,100%,100%);stroke-opacity:1;stroke-miterlimit:10;" d="M 0.512508 0.349996 L 0.412519 0.349996 " transform="matrix(72,0,0,-72,-14.283382,157.152831)"/>
<path style="fill:none;stroke-width:0.024;stroke-linecap:round;stroke-linejoin:miter;stroke:rgb(100%,100%,100%);stroke-opacity:1;stroke-miterlimit:10;" d="M 0.412519 0.349996 L 0.462486 0.349996 " transform="matrix(72,0,0,-72,-14.283382,157.152831)"/>
<path style="fill:none;stroke-width:0.024;stroke-linecap:round;stroke-linejoin:miter;stroke:rgb(100%,100%,100%);stroke-opacity:1;stroke-miterlimit:10;" d="M 0.462486 0.549974 L 0.512508 0.599996 " transform="matrix(72,0,0,-72,-14.283382,157.152831)"/>
<path style="fill:none;stroke-width:0.024;stroke-linecap:round;stroke-linejoin:miter;stroke:rgb(100%,100%,100%);stroke-opacity:1;stroke-miterlimit:10;" d="M 0.512508 0.599996 L 0.562475 0.599996 " transform="matrix(72,0,0,-72,-14.283382,157.152831)"/>
<path style="fill:none;stroke-width:0.024;stroke-linecap:round;stroke-linejoin:miter;stroke:rgb(100%,100%,100%);stroke-opacity:1;stroke-miterlimit:10;" d="M 0.562475 0.599996 L 0.587486 0.574985 " transform="matrix(72,0,0,-72,-14.283382,157.152831)"/>
<path style="fill:none;stroke-width:0.024;stroke-linecap:round;stroke-linejoin:miter;stroke:rgb(100%,100%,100%);stroke-opacity:1;stroke-miterlimit:10;" d="M 0.587486 0.574985 L 0.762508 0.574985 " transform="matrix(72,0,0,-72,-14.283382,157.152831)"/>
<path style="fill:none;stroke-width:0.024;stroke-linecap:round;stroke-linejoin:miter;stroke:rgb(100%,100%,100%);stroke-opacity:1;stroke-miterlimit:10;" d="M 0.837486 0.625007 L 0.662519 0.625007 " transform="matrix(72,0,0,-72,-14.283382,157.152831)"/>
<path style="fill:none;stroke-width:0.024;stroke-linecap:round;stroke-linejoin:miter;stroke:rgb(100%,100%,100%);stroke-opacity:1;stroke-miterlimit:10;" d="M 0.662519 0.625007 L 0.537519 0.750007 " transform="matrix(72,0,0,-72,-14.283382,157.152831)"/>
<path style="fill:none;stroke-width:0.024;stroke-linecap:round;stroke-linejoin:miter;stroke:rgb(100%,100%,100%);stroke-opacity:1;stroke-miterlimit:10;" d="M 0.537519 0.750007 L 0.412519 0.750007 " transform="matrix(72,0,0,-72,-14.283382,157.152831)"/>
<path style="fill:none;stroke-width:0.024;stroke-linecap:round;stroke-linejoin:miter;stroke:rgb(100%,100%,100%);stroke-opacity:1;stroke-miterlimit:10;" d="M 0.687475 0.674974 L 0.737497 0.674974 " transform="matrix(72,0,0,-72,-14.283382,157.152831)"/>
<path style="fill:none;stroke-width:0.024;stroke-linecap:round;stroke-linejoin:miter;stroke:rgb(100%,100%,100%);stroke-opacity:1;stroke-miterlimit:10;" d="M 0.737497 0.674974 L 0.762508 0.699985 " transform="matrix(72,0,0,-72,-14.283382,157.152831)"/>
<path style="fill:none;stroke-width:0.024;stroke-linecap:round;stroke-linejoin:miter;stroke:rgb(100%,100%,100%);stroke-opacity:1;stroke-miterlimit:10;" d="M 0.762508 0.699985 L 0.912519 0.699985 " transform="matrix(72,0,0,-72,-14.283382,157.152831)"/>
<path style="fill:none;stroke-width:0.024;stroke-linecap:round;stroke-linejoin:miter;stroke:rgb(100%,100%,100%);stroke-opacity:1;stroke-miterlimit:10;" d="M 0.912519 0.699985 L 0.962486 0.650018 " transform="matrix(72,0,0,-72,-14.283382,157.152831)"/>
<path style="fill:none;stroke-width:0.024;stroke-linecap:round;stroke-linejoin:miter;stroke:rgb(100%,100%,100%);stroke-opacity:1;stroke-miterlimit:10;" d="M 0.962486 0.650018 L 1.162519 0.650018 " transform="matrix(72,0,0,-72,-14.283382,157.152831)"/>
<path style="fill:none;stroke-width:0.024;stroke-linecap:round;stroke-linejoin:miter;stroke:rgb(100%,100%,100%);stroke-opacity:1;stroke-miterlimit:10;" d="M 0.462486 0.549974 L 0.412519 0.549974 " transform="matrix(72,0,0,-72,-14.283382,157.152831)"/>
<path style=" stroke:none;fill-rule:evenodd;fill:rgb(0%,0%,0%);fill-opacity:1;" d="M 25.136719 128.351562 C 25.136719 127.394531 23.695312 127.394531 23.695312 128.351562 C 23.695312 129.3125 25.136719 129.3125 25.136719 128.351562 "/>
<path style=" stroke:none;fill-rule:evenodd;fill:rgb(0%,0%,0%);fill-opacity:1;" d="M 41.335938 115.753906 C 41.335938 114.792969 39.898438 114.792969 39.898438 115.753906 C 39.898438 116.710938 41.335938 116.710938 41.335938 115.753906 "/>
<path style=" stroke:none;fill-rule:evenodd;fill:rgb(0%,0%,0%);fill-opacity:1;" d="M 46.738281 112.152344 C 46.738281 111.191406 45.296875 111.191406 45.296875 112.152344 C 45.296875 113.113281 46.738281 113.113281 46.738281 112.152344 "/>
<path style=" stroke:none;fill-rule:evenodd;fill:rgb(0%,0%,0%);fill-opacity:1;" d="M 35.9375 108.554688 C 35.9375 107.59375 34.496094 107.59375 34.496094 108.554688 C 34.496094 109.511719 35.9375 109.511719 35.9375 108.554688 "/>
<path style=" stroke:none;fill-rule:evenodd;fill:rgb(0%,0%,0%);fill-opacity:1;" d="M 52.136719 122.953125 C 52.136719 121.992188 50.695312 121.992188 50.695312 122.953125 C 50.695312 123.914062 52.136719 123.914062 52.136719 122.953125 "/>
<path style=" stroke:none;fill-rule:evenodd;fill:rgb(0%,0%,0%);fill-opacity:1;" d="M 37.738281 126.554688 C 37.738281 125.59375 36.296875 125.59375 36.296875 126.554688 C 36.296875 127.511719 37.738281 127.511719 37.738281 126.554688 "/>
<path style=" stroke:none;fill-rule:evenodd;fill:rgb(0%,0%,0%);fill-opacity:1;" d="M 30.535156 126.554688 C 30.535156 125.59375 29.097656 125.59375 29.097656 126.554688 C 29.097656 127.511719 30.535156 127.511719 30.535156 126.554688 "/>
</g>
</svg>
