<?xml version="1.0" encoding="UTF-8"?>
<svg xmlns="http://www.w3.org/2000/svg" xmlns:xlink="http://www.w3.org/1999/xlink" width="171pt" height="150pt" viewBox="0 0 171 150" version="1.1">
<g id="surface626455">
<path style="fill:none;stroke-width:0.012;stroke-linecap:round;stroke-linejoin:miter;stroke:rgb(0%,0%,0%);stroke-opacity:1;stroke-miterlimit:10;" d="M 0.637506 0.275019 L 0.637506 0.824987 " transform="matrix(-72,-0.000000000000008817,-0.000000000000008817,72,131.544964,-7.086539)"/>
<path style="fill:none;stroke-width:0.012;stroke-linecap:round;stroke-linejoin:miter;stroke:rgb(0%,0%,0%);stroke-opacity:1;stroke-miterlimit:10;" d="M 0.637506 0.824987 L 1.212484 0.824987 " transform="matrix(-72,-0.000000000000008817,-0.000000000000008817,72,131.544964,-7.086539)"/>
<path style="fill:none;stroke-width:0.012;stroke-linecap:round;stroke-linejoin:miter;stroke:rgb(0%,0%,0%);stroke-opacity:1;stroke-miterlimit:10;" d="M 1.212484 0.824987 L 1.287517 0.900019 " transform="matrix(-72,-0.000000000000008817,-0.000000000000008817,72,131.544964,-7.086539)"/>
<path style="fill:none;stroke-width:0.012;stroke-linecap:round;stroke-linejoin:miter;stroke:rgb(0%,0%,0%);stroke-opacity:1;stroke-miterlimit:10;" d="M 1.287517 0.900019 L 1.712484 0.900019 " transform="matrix(-72,-0.000000000000008817,-0.000000000000008817,72,131.544964,-7.086539)"/>
<path style="fill:none;stroke-width:0.012;stroke-linecap:round;stroke-linejoin:miter;stroke:rgb(0%,0%,0%);stroke-opacity:1;stroke-miterlimit:10;" d="M 1.712484 0.900019 L 1.712484 0.199987 " transform="matrix(-72,-0.000000000000008817,-0.000000000000008817,72,131.544964,-7.086539)"/>
<path style="fill:none;stroke-width:0.012;stroke-linecap:round;stroke-linejoin:miter;stroke:rgb(0%,0%,0%);stroke-opacity:1;stroke-miterlimit:10;" d="M 1.712484 0.199987 L 1.287517 0.199987 " transform="matrix(-72,-0.000000000000008817,-0.000000000000008817,72,131.544964,-7.086539)"/>
<path style="fill:none;stroke-width:0.012;stroke-linecap:round;stroke-linejoin:miter;stroke:rgb(0%,0%,0%);stroke-opacity:1;stroke-miterlimit:10;" d="M 1.287517 0.199987 L 1.212484 0.275019 " transform="matrix(-72,-0.000000000000008817,-0.000000000000008817,72,131.544964,-7.086539)"/>
<path style="fill:none;stroke-width:0.012;stroke-linecap:round;stroke-linejoin:miter;stroke:rgb(0%,0%,0%);stroke-opacity:1;stroke-miterlimit:10;" d="M 1.212484 0.275019 L 0.637506 0.275019 " transform="matrix(-72,-0.000000000000008817,-0.000000000000008817,72,131.544964,-7.086539)"/>
<path style=" stroke:none;fill-rule:evenodd;fill:rgb(0%,0%,0%);fill-opacity:1;" d="M 83.90625 22.898438 L 54.984375 22.898438 L 54.984375 27.726562 L 83.90625 27.726562 Z M 83.90625 22.898438 "/>
<path style=" stroke:none;fill-rule:evenodd;fill:rgb(0%,0%,0%);fill-opacity:1;" d="M 83.90625 30.097656 L 54.984375 30.097656 L 54.984375 34.925781 L 83.90625 34.925781 Z M 83.90625 30.097656 "/>
<path style=" stroke:none;fill-rule:evenodd;fill:rgb(0%,0%,0%);fill-opacity:1;" d="M 83.90625 37.300781 L 54.984375 37.300781 L 54.984375 42.128906 L 83.90625 42.128906 Z M 83.90625 37.300781 "/>
<path style=" stroke:none;fill-rule:evenodd;fill:rgb(0%,0%,0%);fill-opacity:1;" d="M 21.492188 37.265625 L 9.394531 37.265625 L 9.394531 42.160156 L 21.492188 42.160156 Z M 21.492188 37.265625 "/>
<path style=" stroke:none;fill-rule:evenodd;fill:rgb(0%,0%,0%);fill-opacity:1;" d="M 21.492188 30.066406 L 9.394531 30.066406 L 9.394531 34.960938 L 21.492188 34.960938 Z M 21.492188 30.066406 "/>
<path style=" stroke:none;fill-rule:evenodd;fill:rgb(0%,0%,0%);fill-opacity:1;" d="M 21.492188 22.867188 L 9.394531 22.867188 L 9.394531 27.761719 L 21.492188 27.761719 Z M 21.492188 22.867188 "/>
<path style=" stroke:none;fill-rule:evenodd;fill:rgb(0%,0%,0%);fill-opacity:1;" d="M 21.492188 15.664062 L 9.394531 15.664062 L 9.394531 20.558594 L 21.492188 20.558594 Z M 21.492188 15.664062 "/>
<path style=" stroke:none;fill-rule:evenodd;fill:rgb(0%,0%,0%);fill-opacity:1;" d="M 21.492188 44.464844 L 9.394531 44.464844 L 9.394531 49.359375 L 21.492188 49.359375 Z M 21.492188 44.464844 "/>
<path style="fill:none;stroke-width:0.068;stroke-linecap:round;stroke-linejoin:miter;stroke:rgb(0%,0%,0%);stroke-opacity:1;stroke-miterlimit:10;" d="M 1.412517 0.454978 L 1.412517 0.394974 " transform="matrix(-72,-0.000000000000008817,-0.000000000000008817,72,131.544964,-7.086539)"/>
<path style="fill:none;stroke-width:0.068;stroke-linecap:round;stroke-linejoin:miter;stroke:rgb(0%,0%,0%);stroke-opacity:1;stroke-miterlimit:10;" d="M 1.312473 0.394974 L 1.312473 0.454978 " transform="matrix(-72,-0.000000000000008817,-0.000000000000008817,72,131.544964,-7.086539)"/>
<path style=" stroke:none;fill-rule:evenodd;fill:rgb(0%,0%,0%);fill-opacity:1;" d="M 21.996094 21.714844 C 21.996094 24.976562 26.894531 24.976562 26.894531 21.714844 C 26.894531 18.449219 21.996094 18.449219 21.996094 21.714844 "/>
<path style=" stroke:none;fill-rule:evenodd;fill:rgb(0%,0%,0%);fill-opacity:1;" d="M 38.195312 34.3125 C 38.195312 37.578125 43.09375 37.578125 43.09375 34.3125 C 43.09375 31.050781 38.195312 31.050781 38.195312 34.3125 "/>
<path style=" stroke:none;fill-rule:evenodd;fill:rgb(0%,0%,0%);fill-opacity:1;" d="M 43.597656 37.914062 C 43.597656 41.175781 48.492188 41.175781 48.492188 37.914062 C 48.492188 34.648438 43.597656 34.648438 43.597656 37.914062 "/>
<path style=" stroke:none;fill-rule:evenodd;fill:rgb(0%,0%,0%);fill-opacity:1;" d="M 32.796875 41.511719 C 32.796875 44.777344 37.691406 44.777344 37.691406 41.511719 C 37.691406 38.25 32.796875 38.25 32.796875 41.511719 "/>
<path style=" stroke:none;fill-rule:evenodd;fill:rgb(0%,0%,0%);fill-opacity:1;" d="M 48.996094 27.113281 C 48.996094 30.378906 53.894531 30.378906 53.894531 27.113281 C 53.894531 23.847656 48.996094 23.847656 48.996094 27.113281 "/>
<path style="fill:none;stroke-width:0.012;stroke-linecap:round;stroke-linejoin:miter;stroke:rgb(0%,0%,0%);stroke-opacity:1;stroke-miterlimit:10;" d="M 0.637494 0.275013 L 0.637494 0.824981 " transform="matrix(72,0,0,-72,39.744964,72.113461)"/>
<path style="fill:none;stroke-width:0.012;stroke-linecap:round;stroke-linejoin:miter;stroke:rgb(0%,0%,0%);stroke-opacity:1;stroke-miterlimit:10;" d="M 0.637494 0.824981 L 1.212527 0.824981 " transform="matrix(72,0,0,-72,39.744964,72.113461)"/>
<path style="fill:none;stroke-width:0.012;stroke-linecap:round;stroke-linejoin:miter;stroke:rgb(0%,0%,0%);stroke-opacity:1;stroke-miterlimit:10;" d="M 1.212527 0.824981 L 1.287505 0.900013 " transform="matrix(72,0,0,-72,39.744964,72.113461)"/>
<path style="fill:none;stroke-width:0.012;stroke-linecap:round;stroke-linejoin:miter;stroke:rgb(0%,0%,0%);stroke-opacity:1;stroke-miterlimit:10;" d="M 1.287505 0.900013 L 1.712527 0.900013 " transform="matrix(72,0,0,-72,39.744964,72.113461)"/>
<path style="fill:none;stroke-width:0.012;stroke-linecap:round;stroke-linejoin:miter;stroke:rgb(0%,0%,0%);stroke-opacity:1;stroke-miterlimit:10;" d="M 1.712527 0.900013 L 1.712527 0.199981 " transform="matrix(72,0,0,-72,39.744964,72.113461)"/>
<path style="fill:none;stroke-width:0.012;stroke-linecap:round;stroke-linejoin:miter;stroke:rgb(0%,0%,0%);stroke-opacity:1;stroke-miterlimit:10;" d="M 1.712527 0.199981 L 1.287505 0.199981 " transform="matrix(72,0,0,-72,39.744964,72.113461)"/>
<path style="fill:none;stroke-width:0.012;stroke-linecap:round;stroke-linejoin:miter;stroke:rgb(0%,0%,0%);stroke-opacity:1;stroke-miterlimit:10;" d="M 1.287505 0.199981 L 1.212527 0.275013 " transform="matrix(72,0,0,-72,39.744964,72.113461)"/>
<path style="fill:none;stroke-width:0.012;stroke-linecap:round;stroke-linejoin:miter;stroke:rgb(0%,0%,0%);stroke-opacity:1;stroke-miterlimit:10;" d="M 1.212527 0.275013 L 0.637494 0.275013 " transform="matrix(72,0,0,-72,39.744964,72.113461)"/>
<path style=" stroke:none;fill-rule:evenodd;fill:rgb(0%,0%,0%);fill-opacity:1;" d="M 87.382812 42.128906 L 116.304688 42.128906 L 116.304688 37.300781 L 87.382812 37.300781 Z M 87.382812 42.128906 "/>
<path style=" stroke:none;fill-rule:evenodd;fill:rgb(0%,0%,0%);fill-opacity:1;" d="M 87.382812 34.925781 L 116.304688 34.925781 L 116.304688 30.097656 L 87.382812 30.097656 Z M 87.382812 34.925781 "/>
<path style=" stroke:none;fill-rule:evenodd;fill:rgb(0%,0%,0%);fill-opacity:1;" d="M 87.382812 27.726562 L 116.304688 27.726562 L 116.304688 22.898438 L 87.382812 22.898438 Z M 87.382812 27.726562 "/>
<path style=" stroke:none;fill-rule:evenodd;fill:rgb(0%,0%,0%);fill-opacity:1;" d="M 149.796875 27.761719 L 161.894531 27.761719 L 161.894531 22.867188 L 149.796875 22.867188 Z M 149.796875 27.761719 "/>
<path style=" stroke:none;fill-rule:evenodd;fill:rgb(0%,0%,0%);fill-opacity:1;" d="M 149.796875 34.960938 L 161.894531 34.960938 L 161.894531 30.066406 L 149.796875 30.066406 Z M 149.796875 34.960938 "/>
<path style=" stroke:none;fill-rule:evenodd;fill:rgb(0%,0%,0%);fill-opacity:1;" d="M 149.796875 42.160156 L 161.894531 42.160156 L 161.894531 37.265625 L 149.796875 37.265625 Z M 149.796875 42.160156 "/>
<path style=" stroke:none;fill-rule:evenodd;fill:rgb(0%,0%,0%);fill-opacity:1;" d="M 149.796875 49.363281 L 161.894531 49.363281 L 161.894531 44.46875 L 149.796875 44.46875 Z M 149.796875 49.363281 "/>
<path style=" stroke:none;fill-rule:evenodd;fill:rgb(0%,0%,0%);fill-opacity:1;" d="M 149.796875 20.5625 L 161.894531 20.5625 L 161.894531 15.667969 L 149.796875 15.667969 Z M 149.796875 20.5625 "/>
<path style="fill:none;stroke-width:0.068;stroke-linecap:round;stroke-linejoin:miter;stroke:rgb(0%,0%,0%);stroke-opacity:1;stroke-miterlimit:10;" d="M 1.412505 0.455026 L 1.412505 0.395022 " transform="matrix(72,0,0,-72,39.744964,72.113461)"/>
<path style="fill:none;stroke-width:0.068;stroke-linecap:round;stroke-linejoin:miter;stroke:rgb(0%,0%,0%);stroke-opacity:1;stroke-miterlimit:10;" d="M 1.312516 0.395022 L 1.312516 0.455026 " transform="matrix(72,0,0,-72,39.744964,72.113461)"/>
<path style=" stroke:none;fill-rule:evenodd;fill:rgb(0%,0%,0%);fill-opacity:1;" d="M 149.292969 43.3125 C 149.292969 40.050781 144.398438 40.050781 144.398438 43.3125 C 144.398438 46.578125 149.292969 46.578125 149.292969 43.3125 "/>
<path style=" stroke:none;fill-rule:evenodd;fill:rgb(0%,0%,0%);fill-opacity:1;" d="M 133.09375 30.714844 C 133.09375 27.449219 128.195312 27.449219 128.195312 30.714844 C 128.195312 33.976562 133.09375 33.976562 133.09375 30.714844 "/>
<path style=" stroke:none;fill-rule:evenodd;fill:rgb(0%,0%,0%);fill-opacity:1;" d="M 127.691406 27.113281 C 127.691406 23.847656 122.796875 23.847656 122.796875 27.113281 C 122.796875 30.378906 127.691406 30.378906 127.691406 27.113281 "/>
<path style=" stroke:none;fill-rule:evenodd;fill:rgb(0%,0%,0%);fill-opacity:1;" d="M 138.492188 23.511719 C 138.492188 20.25 133.597656 20.25 133.597656 23.511719 C 133.597656 26.777344 138.492188 26.777344 138.492188 23.511719 "/>
<path style=" stroke:none;fill-rule:evenodd;fill:rgb(0%,0%,0%);fill-opacity:1;" d="M 122.292969 37.914062 C 122.292969 34.648438 117.398438 34.648438 117.398438 37.914062 C 117.398438 41.175781 122.292969 41.175781 122.292969 37.914062 "/>
<path style="fill:none;stroke-width:0.012;stroke-linecap:round;stroke-linejoin:miter;stroke:rgb(0%,0%,0%);stroke-opacity:1;stroke-miterlimit:10;" d="M 0.312514 0.199982 L 0.737481 0.199982 " transform="matrix(-72,-0.000000000000008817,-0.000000000000008817,72,185.516618,77.952831)"/>
<path style="fill:none;stroke-width:0.012;stroke-linecap:round;stroke-linejoin:miter;stroke:rgb(0%,0%,0%);stroke-opacity:1;stroke-miterlimit:10;" d="M 0.737481 0.199982 L 0.812514 0.275015 " transform="matrix(-72,-0.000000000000008817,-0.000000000000008817,72,185.516618,77.952831)"/>
<path style="fill:none;stroke-width:0.012;stroke-linecap:round;stroke-linejoin:miter;stroke:rgb(0%,0%,0%);stroke-opacity:1;stroke-miterlimit:10;" d="M 0.812514 0.275015 L 1.387492 0.275015 " transform="matrix(-72,-0.000000000000008817,-0.000000000000008817,72,185.516618,77.952831)"/>
<path style="fill:none;stroke-width:0.012;stroke-linecap:round;stroke-linejoin:miter;stroke:rgb(0%,0%,0%);stroke-opacity:1;stroke-miterlimit:10;" d="M 1.387492 0.275015 L 1.387492 0.824982 " transform="matrix(-72,-0.000000000000008817,-0.000000000000008817,72,185.516618,77.952831)"/>
<path style="fill:none;stroke-width:0.012;stroke-linecap:round;stroke-linejoin:miter;stroke:rgb(0%,0%,0%);stroke-opacity:1;stroke-miterlimit:10;" d="M 1.387492 0.824982 L 0.812514 0.824982 " transform="matrix(-72,-0.000000000000008817,-0.000000000000008817,72,185.516618,77.952831)"/>
<path style="fill:none;stroke-width:0.012;stroke-linecap:round;stroke-linejoin:miter;stroke:rgb(0%,0%,0%);stroke-opacity:1;stroke-miterlimit:10;" d="M 0.812514 0.824982 L 0.737481 0.900015 " transform="matrix(-72,-0.000000000000008817,-0.000000000000008817,72,185.516618,77.952831)"/>
<path style="fill:none;stroke-width:0.012;stroke-linecap:round;stroke-linejoin:miter;stroke:rgb(0%,0%,0%);stroke-opacity:1;stroke-miterlimit:10;" d="M 0.737481 0.900015 L 0.312514 0.900015 " transform="matrix(-72,-0.000000000000008817,-0.000000000000008817,72,185.516618,77.952831)"/>
<path style="fill:none;stroke-width:0.012;stroke-linecap:round;stroke-linejoin:miter;stroke:rgb(0%,0%,0%);stroke-opacity:1;stroke-miterlimit:10;" d="M 0.312514 0.900015 L 0.312514 0.199982 " transform="matrix(-72,-0.000000000000008817,-0.000000000000008817,72,185.516618,77.952831)"/>
<path style=" stroke:none;fill-rule:evenodd;fill:rgb(0%,0%,0%);fill-opacity:1;" d="M 116.277344 100.738281 L 87.355469 100.738281 L 87.355469 105.566406 L 116.277344 105.566406 Z M 116.277344 100.738281 "/>
<path style=" stroke:none;fill-rule:evenodd;fill:rgb(0%,0%,0%);fill-opacity:1;" d="M 116.277344 107.9375 L 87.355469 107.9375 L 87.355469 112.765625 L 116.277344 112.765625 Z M 116.277344 107.9375 "/>
<path style=" stroke:none;fill-rule:evenodd;fill:rgb(0%,0%,0%);fill-opacity:1;" d="M 116.277344 115.136719 L 87.355469 115.136719 L 87.355469 119.964844 L 116.277344 119.964844 Z M 116.277344 115.136719 "/>
<path style=" stroke:none;fill-rule:evenodd;fill:rgb(0%,0%,0%);fill-opacity:1;" d="M 116.277344 122.339844 L 87.355469 122.339844 L 87.355469 127.167969 L 116.277344 127.167969 Z M 116.277344 122.339844 "/>
<path style=" stroke:none;fill-rule:evenodd;fill:rgb(0%,0%,0%);fill-opacity:1;" d="M 116.277344 129.539062 L 87.355469 129.539062 L 87.355469 134.367188 L 116.277344 134.367188 Z M 116.277344 129.539062 "/>
<path style=" stroke:none;fill-rule:evenodd;fill:rgb(0%,0%,0%);fill-opacity:1;" d="M 161.863281 129.503906 L 149.765625 129.503906 L 149.765625 134.398438 L 161.863281 134.398438 Z M 161.863281 129.503906 "/>
<path style=" stroke:none;fill-rule:evenodd;fill:rgb(0%,0%,0%);fill-opacity:1;" d="M 161.863281 122.304688 L 149.765625 122.304688 L 149.765625 127.199219 L 161.863281 127.199219 Z M 161.863281 122.304688 "/>
<path style=" stroke:none;fill-rule:evenodd;fill:rgb(0%,0%,0%);fill-opacity:1;" d="M 161.863281 115.105469 L 149.765625 115.105469 L 149.765625 120 L 161.863281 120 Z M 161.863281 115.105469 "/>
<path style=" stroke:none;fill-rule:evenodd;fill:rgb(0%,0%,0%);fill-opacity:1;" d="M 161.863281 107.90625 L 149.765625 107.90625 L 149.765625 112.800781 L 161.863281 112.800781 Z M 161.863281 107.90625 "/>
<path style=" stroke:none;fill-rule:evenodd;fill:rgb(0%,0%,0%);fill-opacity:1;" d="M 161.863281 100.703125 L 149.765625 100.703125 L 149.765625 105.597656 L 161.863281 105.597656 Z M 161.863281 100.703125 "/>
<path style="fill:none;stroke-width:0.068;stroke-linecap:round;stroke-linejoin:miter;stroke:rgb(0%,0%,0%);stroke-opacity:1;stroke-miterlimit:10;" d="M 0.612481 0.395024 L 0.612481 0.454974 " transform="matrix(-72,-0.000000000000008817,-0.000000000000008817,72,185.516618,77.952831)"/>
<path style="fill:none;stroke-width:0.068;stroke-linecap:round;stroke-linejoin:miter;stroke:rgb(0%,0%,0%);stroke-opacity:1;stroke-miterlimit:10;" d="M 0.712525 0.454974 L 0.712525 0.395024 " transform="matrix(-72,-0.000000000000008817,-0.000000000000008817,72,185.516618,77.952831)"/>
<path style=" stroke:none;fill-rule:evenodd;fill:rgb(0%,0%,0%);fill-opacity:1;" d="M 144.367188 106.753906 C 144.367188 110.015625 149.265625 110.015625 149.265625 106.753906 C 149.265625 103.488281 144.367188 103.488281 144.367188 106.753906 "/>
<path style=" stroke:none;fill-rule:evenodd;fill:rgb(0%,0%,0%);fill-opacity:1;" d="M 128.167969 119.351562 C 128.167969 122.617188 133.066406 122.617188 133.066406 119.351562 C 133.066406 116.089844 128.167969 116.089844 128.167969 119.351562 "/>
<path style=" stroke:none;fill-rule:evenodd;fill:rgb(0%,0%,0%);fill-opacity:1;" d="M 122.769531 122.953125 C 122.769531 126.21875 127.664062 126.21875 127.664062 122.953125 C 127.664062 119.6875 122.769531 119.6875 122.769531 122.953125 "/>
<path style=" stroke:none;fill-rule:evenodd;fill:rgb(0%,0%,0%);fill-opacity:1;" d="M 133.570312 126.554688 C 133.570312 129.816406 138.464844 129.816406 138.464844 126.554688 C 138.464844 123.289062 133.570312 123.289062 133.570312 126.554688 "/>
<path style=" stroke:none;fill-rule:evenodd;fill:rgb(0%,0%,0%);fill-opacity:1;" d="M 117.367188 112.152344 C 117.367188 115.417969 122.265625 115.417969 122.265625 112.152344 C 122.265625 108.890625 117.367188 108.890625 117.367188 112.152344 "/>
<path style="fill:none;stroke-width:0.012;stroke-linecap:round;stroke-linejoin:miter;stroke:rgb(0%,0%,0%);stroke-opacity:1;stroke-miterlimit:10;" d="M 0.312475 0.199985 L 0.737497 0.199985 " transform="matrix(72,0,0,-72,-14.283382,157.152831)"/>
<path style="fill:none;stroke-width:0.012;stroke-linecap:round;stroke-linejoin:miter;stroke:rgb(0%,0%,0%);stroke-opacity:1;stroke-miterlimit:10;" d="M 0.737497 0.199985 L 0.812475 0.275018 " transform="matrix(72,0,0,-72,-14.283382,157.152831)"/>
<path style="fill:none;stroke-width:0.012;stroke-linecap:round;stroke-linejoin:miter;stroke:rgb(0%,0%,0%);stroke-opacity:1;stroke-miterlimit:10;" d="M 0.812475 0.275018 L 1.387508 0.275018 " transform="matrix(72,0,0,-72,-14.283382,157.152831)"/>
<path style="fill:none;stroke-width:0.012;stroke-linecap:round;stroke-linejoin:miter;stroke:rgb(0%,0%,0%);stroke-opacity:1;stroke-miterlimit:10;" d="M 1.387508 0.275018 L 1.387508 0.824985 " transform="matrix(72,0,0,-72,-14.283382,157.152831)"/>
<path style="fill:none;stroke-width:0.012;stroke-linecap:round;stroke-linejoin:miter;stroke:rgb(0%,0%,0%);stroke-opacity:1;stroke-miterlimit:10;" d="M 1.387508 0.824985 L 0.812475 0.824985 " transform="matrix(72,0,0,-72,-14.283382,157.152831)"/>
<path style="fill:none;stroke-width:0.012;stroke-linecap:round;stroke-linejoin:miter;stroke:rgb(0%,0%,0%);stroke-opacity:1;stroke-miterlimit:10;" d="M 0.812475 0.824985 L 0.737497 0.900018 " transform="matrix(72,0,0,-72,-14.283382,157.152831)"/>
<path style="fill:none;stroke-width:0.012;stroke-linecap:round;stroke-linejoin:miter;stroke:rgb(0%,0%,0%);stroke-opacity:1;stroke-miterlimit:10;" d="M 0.737497 0.900018 L 0.312475 0.900018 " transform="matrix(72,0,0,-72,-14.283382,157.152831)"/>
<path style="fill:none;stroke-width:0.012;stroke-linecap:round;stroke-linejoin:miter;stroke:rgb(0%,0%,0%);stroke-opacity:1;stroke-miterlimit:10;" d="M 0.312475 0.900018 L 0.312475 0.199985 " transform="matrix(72,0,0,-72,-14.283382,157.152831)"/>
<path style=" stroke:none;fill-rule:evenodd;fill:rgb(0%,0%,0%);fill-opacity:1;" d="M 54.957031 134.367188 L 83.878906 134.367188 L 83.878906 129.539062 L 54.957031 129.539062 Z M 54.957031 134.367188 "/>
<path style=" stroke:none;fill-rule:evenodd;fill:rgb(0%,0%,0%);fill-opacity:1;" d="M 54.957031 127.167969 L 83.878906 127.167969 L 83.878906 122.339844 L 54.957031 122.339844 Z M 54.957031 127.167969 "/>
<path style=" stroke:none;fill-rule:evenodd;fill:rgb(0%,0%,0%);fill-opacity:1;" d="M 54.957031 119.96875 L 83.878906 119.96875 L 83.878906 115.140625 L 54.957031 115.140625 Z M 54.957031 119.96875 "/>
<path style=" stroke:none;fill-rule:evenodd;fill:rgb(0%,0%,0%);fill-opacity:1;" d="M 54.957031 112.765625 L 83.878906 112.765625 L 83.878906 107.9375 L 54.957031 107.9375 Z M 54.957031 112.765625 "/>
<path style=" stroke:none;fill-rule:evenodd;fill:rgb(0%,0%,0%);fill-opacity:1;" d="M 54.957031 105.566406 L 83.878906 105.566406 L 83.878906 100.738281 L 54.957031 100.738281 Z M 54.957031 105.566406 "/>
<path style=" stroke:none;fill-rule:evenodd;fill:rgb(0%,0%,0%);fill-opacity:1;" d="M 9.367188 105.601562 L 21.464844 105.601562 L 21.464844 100.707031 L 9.367188 100.707031 Z M 9.367188 105.601562 "/>
<path style=" stroke:none;fill-rule:evenodd;fill:rgb(0%,0%,0%);fill-opacity:1;" d="M 9.367188 112.800781 L 21.464844 112.800781 L 21.464844 107.90625 L 9.367188 107.90625 Z M 9.367188 112.800781 "/>
<path style=" stroke:none;fill-rule:evenodd;fill:rgb(0%,0%,0%);fill-opacity:1;" d="M 9.367188 120 L 21.464844 120 L 21.464844 115.105469 L 9.367188 115.105469 Z M 9.367188 120 "/>
<path style=" stroke:none;fill-rule:evenodd;fill:rgb(0%,0%,0%);fill-opacity:1;" d="M 9.367188 127.199219 L 21.464844 127.199219 L 21.464844 122.304688 L 9.367188 122.304688 Z M 9.367188 127.199219 "/>
<path style=" stroke:none;fill-rule:evenodd;fill:rgb(0%,0%,0%);fill-opacity:1;" d="M 9.367188 134.402344 L 21.464844 134.402344 L 21.464844 129.507812 L 9.367188 129.507812 Z M 9.367188 134.402344 "/>
<path style="fill:none;stroke-width:0.068;stroke-linecap:round;stroke-linejoin:miter;stroke:rgb(0%,0%,0%);stroke-opacity:1;stroke-miterlimit:10;" d="M 0.612497 0.395026 L 0.612497 0.454976 " transform="matrix(72,0,0,-72,-14.283382,157.152831)"/>
<path style="fill:none;stroke-width:0.068;stroke-linecap:round;stroke-linejoin:miter;stroke:rgb(0%,0%,0%);stroke-opacity:1;stroke-miterlimit:10;" d="M 0.712486 0.454976 L 0.712486 0.395026 " transform="matrix(72,0,0,-72,-14.283382,157.152831)"/>
<path style=" stroke:none;fill-rule:evenodd;fill:rgb(0%,0%,0%);fill-opacity:1;" d="M 26.863281 128.351562 C 26.863281 125.089844 21.96875 125.089844 21.96875 128.351562 C 21.96875 131.617188 26.863281 131.617188 26.863281 128.351562 "/>
<path style=" stroke:none;fill-rule:evenodd;fill:rgb(0%,0%,0%);fill-opacity:1;" d="M 43.066406 115.753906 C 43.066406 112.488281 38.167969 112.488281 38.167969 115.753906 C 38.167969 119.015625 43.066406 119.015625 43.066406 115.753906 "/>
<path style=" stroke:none;fill-rule:evenodd;fill:rgb(0%,0%,0%);fill-opacity:1;" d="M 48.464844 112.152344 C 48.464844 108.890625 43.570312 108.890625 43.570312 112.152344 C 43.570312 115.417969 48.464844 115.417969 48.464844 112.152344 "/>
<path style=" stroke:none;fill-rule:evenodd;fill:rgb(0%,0%,0%);fill-opacity:1;" d="M 37.664062 108.554688 C 37.664062 105.289062 32.769531 105.289062 32.769531 108.554688 C 32.769531 111.816406 37.664062 111.816406 37.664062 108.554688 "/>
<path style=" stroke:none;fill-rule:evenodd;fill:rgb(0%,0%,0%);fill-opacity:1;" d="M 53.863281 122.953125 C 53.863281 119.6875 48.96875 119.6875 48.96875 122.953125 C 48.96875 126.21875 53.863281 126.21875 53.863281 122.953125 "/>
</g>
</svg>
