G75*
%MOIN*%
%OFA0B0*%
%FSLAX24Y24*%
%IPPOS*%
%LPD*%
%AMOC8*
5,1,8,0,0,1.08239X$1,22.5*
%
%ADD10C,0.0100*%
%ADD11C,0.0320*%
%ADD12C,0.0110*%
%ADD13C,0.0000*%
%ADD14R,0.0315X0.0354*%
%ADD15C,0.0760*%
%ADD16R,0.0512X0.0591*%
%ADD17R,0.0591X0.0512*%
%ADD18R,0.0260X0.0800*%
%ADD19R,0.0800X0.0260*%
%ADD20R,0.0394X0.0433*%
%ADD21R,0.0433X0.0394*%
%ADD22R,0.0354X0.0315*%
%ADD23C,0.0790*%
%ADD24OC8,0.0640*%
%ADD25C,0.0640*%
%ADD26R,0.0866X0.0236*%
%ADD27C,0.1000*%
%ADD28C,0.0600*%
%ADD29C,0.0050*%
%ADD30C,0.0714*%
%ADD31C,0.0640*%
%ADD32C,0.1000*%
%ADD33C,0.0160*%
%ADD34C,0.0240*%
%ADD35C,0.0120*%
%ADD36C,0.0634*%
%ADD37C,0.0500*%
%ADD38C,0.0673*%
%ADD39C,0.0400*%
D10*
X000201Y000880D02*
X000201Y019384D01*
X039571Y019384D01*
X039571Y000880D01*
X000201Y000880D01*
X001076Y005505D02*
X004701Y005505D01*
X004701Y007005D01*
X001076Y007005D01*
X001076Y005505D01*
X001076Y005510D02*
X004701Y005510D01*
X004701Y005608D02*
X001076Y005608D01*
X001076Y005707D02*
X004701Y005707D01*
X004701Y005805D02*
X001076Y005805D01*
X001076Y005904D02*
X004701Y005904D01*
X004701Y006002D02*
X001076Y006002D01*
X001076Y006101D02*
X004701Y006101D01*
X004701Y006199D02*
X001076Y006199D01*
X001076Y006298D02*
X004701Y006298D01*
X004701Y006396D02*
X001076Y006396D01*
X001076Y006495D02*
X004701Y006495D01*
X004701Y006593D02*
X001076Y006593D01*
X001076Y006692D02*
X004701Y006692D01*
X004701Y006790D02*
X001076Y006790D01*
X001076Y006889D02*
X004701Y006889D01*
X004701Y006987D02*
X001076Y006987D01*
D11*
X003726Y000505D02*
X003728Y000525D01*
X003734Y000543D01*
X003743Y000561D01*
X003755Y000576D01*
X003770Y000588D01*
X003788Y000597D01*
X003806Y000603D01*
X003826Y000605D01*
X003846Y000603D01*
X003864Y000597D01*
X003882Y000588D01*
X003897Y000576D01*
X003909Y000561D01*
X003918Y000543D01*
X003924Y000525D01*
X003926Y000505D01*
X003924Y000485D01*
X003918Y000467D01*
X003909Y000449D01*
X003897Y000434D01*
X003882Y000422D01*
X003864Y000413D01*
X003846Y000407D01*
X003826Y000405D01*
X003806Y000407D01*
X003788Y000413D01*
X003770Y000422D01*
X003755Y000434D01*
X003743Y000449D01*
X003734Y000467D01*
X003728Y000485D01*
X003726Y000505D01*
X038851Y000505D02*
X038853Y000525D01*
X038859Y000543D01*
X038868Y000561D01*
X038880Y000576D01*
X038895Y000588D01*
X038913Y000597D01*
X038931Y000603D01*
X038951Y000605D01*
X038971Y000603D01*
X038989Y000597D01*
X039007Y000588D01*
X039022Y000576D01*
X039034Y000561D01*
X039043Y000543D01*
X039049Y000525D01*
X039051Y000505D01*
X039049Y000485D01*
X039043Y000467D01*
X039034Y000449D01*
X039022Y000434D01*
X039007Y000422D01*
X038989Y000413D01*
X038971Y000407D01*
X038951Y000405D01*
X038931Y000407D01*
X038913Y000413D01*
X038895Y000422D01*
X038880Y000434D01*
X038868Y000449D01*
X038859Y000467D01*
X038853Y000485D01*
X038851Y000505D01*
X010601Y019880D02*
X010603Y019900D01*
X010609Y019918D01*
X010618Y019936D01*
X010630Y019951D01*
X010645Y019963D01*
X010663Y019972D01*
X010681Y019978D01*
X010701Y019980D01*
X010721Y019978D01*
X010739Y019972D01*
X010757Y019963D01*
X010772Y019951D01*
X010784Y019936D01*
X010793Y019918D01*
X010799Y019900D01*
X010801Y019880D01*
X010799Y019860D01*
X010793Y019842D01*
X010784Y019824D01*
X010772Y019809D01*
X010757Y019797D01*
X010739Y019788D01*
X010721Y019782D01*
X010701Y019780D01*
X010681Y019782D01*
X010663Y019788D01*
X010645Y019797D01*
X010630Y019809D01*
X010618Y019824D01*
X010609Y019842D01*
X010603Y019860D01*
X010601Y019880D01*
D12*
X003521Y013052D02*
X003221Y012751D01*
X003221Y013052D01*
X003521Y013052D02*
X003521Y012751D01*
X003521Y012536D02*
X003221Y012236D01*
X003221Y012536D01*
X003521Y012536D02*
X003521Y012236D01*
X003521Y012020D02*
X003221Y011720D01*
X003221Y012020D01*
X003521Y012020D02*
X003521Y011720D01*
X003671Y011505D02*
X003371Y011205D01*
X003446Y011280D02*
X003221Y011505D01*
X003221Y011205D02*
X003671Y011205D01*
X003671Y010936D02*
X003746Y010936D01*
X003521Y010936D02*
X003521Y010861D01*
X003521Y010936D02*
X003221Y010936D01*
X003221Y010861D02*
X003221Y011011D01*
X002831Y011076D02*
X002606Y011076D01*
X002681Y011226D01*
X002681Y011301D01*
X002606Y011376D01*
X002456Y011376D01*
X002381Y011301D01*
X002381Y011151D01*
X002456Y011076D01*
X002381Y010860D02*
X002381Y010560D01*
X002381Y010710D02*
X002831Y010710D01*
X002681Y010560D01*
X002756Y010345D02*
X002456Y010044D01*
X002381Y010119D01*
X002381Y010270D01*
X002456Y010345D01*
X002756Y010345D01*
X002831Y010270D01*
X002831Y010119D01*
X002756Y010044D01*
X002456Y010044D01*
X002381Y009829D02*
X002381Y009529D01*
X002681Y009829D01*
X002756Y009829D01*
X002831Y009754D01*
X002831Y009604D01*
X002756Y009529D01*
X003221Y009400D02*
X003671Y009400D01*
X003521Y009550D01*
X003671Y009700D01*
X003221Y009700D01*
X003296Y009915D02*
X003371Y009991D01*
X003371Y010216D01*
X003446Y010216D02*
X003221Y010216D01*
X003221Y009991D01*
X003296Y009915D01*
X003521Y009991D02*
X003521Y010141D01*
X003446Y010216D01*
X003371Y010431D02*
X003521Y010581D01*
X003521Y010656D01*
X003521Y010431D02*
X003221Y010431D01*
X002831Y011076D02*
X002831Y011376D01*
X003221Y009184D02*
X003221Y008884D01*
X003521Y009184D01*
X003521Y008884D01*
X003521Y008669D02*
X003221Y008369D01*
X003221Y008669D01*
X003521Y008669D02*
X003521Y008369D01*
X003521Y008153D02*
X003221Y007853D01*
X003221Y008153D01*
X003521Y008153D02*
X003521Y007853D01*
D13*
X003708Y000505D02*
X003710Y000526D01*
X003716Y000546D01*
X003725Y000566D01*
X003737Y000583D01*
X003752Y000597D01*
X003770Y000609D01*
X003790Y000617D01*
X003810Y000622D01*
X003831Y000623D01*
X003852Y000620D01*
X003872Y000614D01*
X003891Y000603D01*
X003908Y000590D01*
X003921Y000574D01*
X003932Y000556D01*
X003940Y000536D01*
X003944Y000516D01*
X003944Y000494D01*
X003940Y000474D01*
X003932Y000454D01*
X003921Y000436D01*
X003908Y000420D01*
X003891Y000407D01*
X003872Y000396D01*
X003852Y000390D01*
X003831Y000387D01*
X003810Y000388D01*
X003790Y000393D01*
X003770Y000401D01*
X003752Y000413D01*
X003737Y000427D01*
X003725Y000444D01*
X003716Y000464D01*
X003710Y000484D01*
X003708Y000505D01*
X030301Y002980D02*
X030303Y003030D01*
X030309Y003080D01*
X030319Y003130D01*
X030332Y003178D01*
X030349Y003226D01*
X030370Y003272D01*
X030394Y003316D01*
X030422Y003358D01*
X030453Y003398D01*
X030487Y003435D01*
X030524Y003470D01*
X030563Y003501D01*
X030604Y003530D01*
X030648Y003555D01*
X030694Y003577D01*
X030741Y003595D01*
X030789Y003609D01*
X030838Y003620D01*
X030888Y003627D01*
X030938Y003630D01*
X030989Y003629D01*
X031039Y003624D01*
X031089Y003615D01*
X031137Y003603D01*
X031185Y003586D01*
X031231Y003566D01*
X031276Y003543D01*
X031319Y003516D01*
X031359Y003486D01*
X031397Y003453D01*
X031432Y003417D01*
X031465Y003378D01*
X031494Y003337D01*
X031520Y003294D01*
X031543Y003249D01*
X031562Y003202D01*
X031577Y003154D01*
X031589Y003105D01*
X031597Y003055D01*
X031601Y003005D01*
X031601Y002955D01*
X031597Y002905D01*
X031589Y002855D01*
X031577Y002806D01*
X031562Y002758D01*
X031543Y002711D01*
X031520Y002666D01*
X031494Y002623D01*
X031465Y002582D01*
X031432Y002543D01*
X031397Y002507D01*
X031359Y002474D01*
X031319Y002444D01*
X031276Y002417D01*
X031231Y002394D01*
X031185Y002374D01*
X031137Y002357D01*
X031089Y002345D01*
X031039Y002336D01*
X030989Y002331D01*
X030938Y002330D01*
X030888Y002333D01*
X030838Y002340D01*
X030789Y002351D01*
X030741Y002365D01*
X030694Y002383D01*
X030648Y002405D01*
X030604Y002430D01*
X030563Y002459D01*
X030524Y002490D01*
X030487Y002525D01*
X030453Y002562D01*
X030422Y002602D01*
X030394Y002644D01*
X030370Y002688D01*
X030349Y002734D01*
X030332Y002782D01*
X030319Y002830D01*
X030309Y002880D01*
X030303Y002930D01*
X030301Y002980D01*
X038833Y000505D02*
X038835Y000526D01*
X038841Y000546D01*
X038850Y000566D01*
X038862Y000583D01*
X038877Y000597D01*
X038895Y000609D01*
X038915Y000617D01*
X038935Y000622D01*
X038956Y000623D01*
X038977Y000620D01*
X038997Y000614D01*
X039016Y000603D01*
X039033Y000590D01*
X039046Y000574D01*
X039057Y000556D01*
X039065Y000536D01*
X039069Y000516D01*
X039069Y000494D01*
X039065Y000474D01*
X039057Y000454D01*
X039046Y000436D01*
X039033Y000420D01*
X039016Y000407D01*
X038997Y000396D01*
X038977Y000390D01*
X038956Y000387D01*
X038935Y000388D01*
X038915Y000393D01*
X038895Y000401D01*
X038877Y000413D01*
X038862Y000427D01*
X038850Y000444D01*
X038841Y000464D01*
X038835Y000484D01*
X038833Y000505D01*
X007626Y018255D02*
X007628Y018283D01*
X007634Y018310D01*
X007643Y018336D01*
X007656Y018361D01*
X007673Y018384D01*
X007692Y018404D01*
X007714Y018421D01*
X007738Y018435D01*
X007764Y018445D01*
X007791Y018452D01*
X007819Y018455D01*
X007847Y018454D01*
X007874Y018449D01*
X007901Y018440D01*
X007926Y018428D01*
X007949Y018413D01*
X007970Y018394D01*
X007988Y018373D01*
X008003Y018349D01*
X008014Y018323D01*
X008022Y018297D01*
X008026Y018269D01*
X008026Y018241D01*
X008022Y018213D01*
X008014Y018187D01*
X008003Y018161D01*
X007988Y018137D01*
X007970Y018116D01*
X007949Y018097D01*
X007926Y018082D01*
X007901Y018070D01*
X007874Y018061D01*
X007847Y018056D01*
X007819Y018055D01*
X007791Y018058D01*
X007764Y018065D01*
X007738Y018075D01*
X007714Y018089D01*
X007692Y018106D01*
X007673Y018126D01*
X007656Y018149D01*
X007643Y018174D01*
X007634Y018200D01*
X007628Y018227D01*
X007626Y018255D01*
X010583Y019880D02*
X010585Y019901D01*
X010591Y019921D01*
X010600Y019941D01*
X010612Y019958D01*
X010627Y019972D01*
X010645Y019984D01*
X010665Y019992D01*
X010685Y019997D01*
X010706Y019998D01*
X010727Y019995D01*
X010747Y019989D01*
X010766Y019978D01*
X010783Y019965D01*
X010796Y019949D01*
X010807Y019931D01*
X010815Y019911D01*
X010819Y019891D01*
X010819Y019869D01*
X010815Y019849D01*
X010807Y019829D01*
X010796Y019811D01*
X010783Y019795D01*
X010766Y019782D01*
X010747Y019771D01*
X010727Y019765D01*
X010706Y019762D01*
X010685Y019763D01*
X010665Y019768D01*
X010645Y019776D01*
X010627Y019788D01*
X010612Y019802D01*
X010600Y019819D01*
X010591Y019839D01*
X010585Y019859D01*
X010583Y019880D01*
X003626Y018255D02*
X003628Y018283D01*
X003634Y018310D01*
X003643Y018336D01*
X003656Y018361D01*
X003673Y018384D01*
X003692Y018404D01*
X003714Y018421D01*
X003738Y018435D01*
X003764Y018445D01*
X003791Y018452D01*
X003819Y018455D01*
X003847Y018454D01*
X003874Y018449D01*
X003901Y018440D01*
X003926Y018428D01*
X003949Y018413D01*
X003970Y018394D01*
X003988Y018373D01*
X004003Y018349D01*
X004014Y018323D01*
X004022Y018297D01*
X004026Y018269D01*
X004026Y018241D01*
X004022Y018213D01*
X004014Y018187D01*
X004003Y018161D01*
X003988Y018137D01*
X003970Y018116D01*
X003949Y018097D01*
X003926Y018082D01*
X003901Y018070D01*
X003874Y018061D01*
X003847Y018056D01*
X003819Y018055D01*
X003791Y018058D01*
X003764Y018065D01*
X003738Y018075D01*
X003714Y018089D01*
X003692Y018106D01*
X003673Y018126D01*
X003656Y018149D01*
X003643Y018174D01*
X003634Y018200D01*
X003628Y018227D01*
X003626Y018255D01*
D14*
X016395Y013130D03*
X017143Y013130D03*
X016769Y012343D03*
X019020Y013130D03*
X019768Y013130D03*
X020520Y013130D03*
X021268Y013130D03*
X020894Y012343D03*
X019394Y012343D03*
X022644Y006417D03*
X023018Y005630D03*
X022270Y005630D03*
D15*
X021769Y006875D02*
X021769Y007635D01*
X020769Y007635D02*
X020769Y006875D01*
X019769Y006875D02*
X019769Y007635D01*
X018769Y007635D02*
X018769Y006875D01*
X017769Y006875D02*
X017769Y007635D01*
X016769Y007635D02*
X016769Y006875D01*
X016769Y010875D02*
X016769Y011635D01*
X017769Y011635D02*
X017769Y010875D01*
X018769Y010875D02*
X018769Y011635D01*
X019769Y011635D02*
X019769Y010875D01*
X020769Y010875D02*
X020769Y011635D01*
X021769Y011635D02*
X021769Y010875D01*
X029951Y010260D02*
X029951Y009500D01*
X030951Y009500D02*
X030951Y010260D01*
X030951Y009880D02*
X030951Y008130D01*
X031826Y007255D01*
X033701Y007255D01*
X035342Y005614D01*
X035342Y005005D01*
X037326Y005146D02*
X037326Y006130D01*
X037951Y006380D01*
X037951Y013755D01*
X037310Y014396D01*
X037310Y015255D01*
X035342Y015255D02*
X035342Y013614D01*
X036201Y012755D01*
X034014Y010568D01*
X033326Y009880D01*
X031951Y009880D01*
X031951Y010260D02*
X031951Y009500D01*
D16*
X025518Y011755D03*
X024770Y011755D03*
X024768Y012630D03*
X024020Y012630D03*
X013075Y018380D03*
X012327Y018380D03*
X012518Y005630D03*
X011770Y005630D03*
X011825Y002880D03*
X011077Y002880D03*
X011077Y001880D03*
X011825Y001880D03*
D17*
X009576Y004381D03*
X008826Y004381D03*
X008076Y004381D03*
X008076Y005129D03*
X008826Y005129D03*
X009576Y005129D03*
X010519Y008631D03*
X010519Y009379D03*
X011894Y011506D03*
X012894Y011506D03*
X013894Y011506D03*
X013894Y012254D03*
X012894Y012254D03*
X011894Y012254D03*
X016519Y009754D03*
X016519Y009006D03*
X008951Y015256D03*
X008201Y015256D03*
X008201Y016004D03*
X008951Y016004D03*
X023076Y017006D03*
X023076Y017754D03*
D18*
X015519Y010215D03*
X015019Y010215D03*
X014519Y010215D03*
X014019Y010215D03*
X013519Y010215D03*
X013019Y010215D03*
X012519Y010215D03*
X012019Y010215D03*
X012019Y007795D03*
X012519Y007795D03*
X013019Y007795D03*
X013519Y007795D03*
X014019Y007795D03*
X014519Y007795D03*
X015019Y007795D03*
X015519Y007795D03*
D19*
X023684Y007880D03*
X023684Y008380D03*
X023684Y008880D03*
X023684Y009380D03*
X023684Y009880D03*
X023684Y010380D03*
X023684Y010880D03*
X026104Y010880D03*
X026104Y010380D03*
X026104Y009880D03*
X026104Y009380D03*
X026104Y008880D03*
X026104Y008380D03*
X026104Y007880D03*
X026104Y007380D03*
X023684Y007380D03*
D20*
X011269Y007795D03*
X011269Y008465D03*
D21*
X007286Y005380D03*
X006616Y005380D03*
X023559Y011755D03*
X024229Y011755D03*
X020286Y016505D03*
X019616Y016505D03*
X019616Y017755D03*
X020286Y017755D03*
X017661Y018255D03*
X016991Y018255D03*
D22*
X005332Y015027D03*
X004545Y014653D03*
X005332Y014279D03*
D23*
X003195Y014013D02*
X002405Y014013D01*
X002405Y015981D02*
X003195Y015981D01*
X035342Y015650D02*
X035342Y014860D01*
X037310Y014860D02*
X037310Y015650D01*
X037310Y005400D02*
X037310Y004610D01*
X035342Y004610D02*
X035342Y005400D01*
D24*
X036701Y007255D03*
X033701Y007255D03*
X030951Y011380D03*
X030951Y014380D03*
X030951Y015380D03*
X030951Y018380D03*
X007036Y013907D03*
X006576Y014630D03*
X006576Y015630D03*
D25*
X007836Y013907D03*
X021326Y016055D03*
X021326Y017955D03*
X005201Y006755D03*
X005201Y005755D03*
D26*
X006177Y006130D03*
X006177Y006630D03*
X006177Y007130D03*
X006177Y007630D03*
X008225Y007630D03*
X008225Y007130D03*
X008225Y006630D03*
X008225Y006130D03*
X016552Y014755D03*
X016552Y015255D03*
X016552Y015755D03*
X016552Y016255D03*
X016552Y016755D03*
X016552Y017255D03*
X016552Y017755D03*
X018600Y017755D03*
X018600Y017255D03*
X018600Y016755D03*
X018600Y016255D03*
X018600Y015755D03*
X018600Y015255D03*
X018600Y014755D03*
D27*
X005701Y011892D02*
X004701Y011892D01*
X004701Y004018D02*
X005701Y004018D01*
D28*
X005826Y017255D03*
X004826Y017255D03*
X004826Y018255D03*
X005826Y018255D03*
X006826Y018255D03*
X006826Y017255D03*
D29*
X007726Y018255D02*
X007728Y018275D01*
X007734Y018293D01*
X007743Y018311D01*
X007755Y018326D01*
X007770Y018338D01*
X007788Y018347D01*
X007806Y018353D01*
X007826Y018355D01*
X007846Y018353D01*
X007864Y018347D01*
X007882Y018338D01*
X007897Y018326D01*
X007909Y018311D01*
X007918Y018293D01*
X007924Y018275D01*
X007926Y018255D01*
X007924Y018235D01*
X007918Y018217D01*
X007909Y018199D01*
X007897Y018184D01*
X007882Y018172D01*
X007864Y018163D01*
X007846Y018157D01*
X007826Y018155D01*
X007806Y018157D01*
X007788Y018163D01*
X007770Y018172D01*
X007755Y018184D01*
X007743Y018199D01*
X007734Y018217D01*
X007728Y018235D01*
X007726Y018255D01*
X003726Y018255D02*
X003728Y018275D01*
X003734Y018293D01*
X003743Y018311D01*
X003755Y018326D01*
X003770Y018338D01*
X003788Y018347D01*
X003806Y018353D01*
X003826Y018355D01*
X003846Y018353D01*
X003864Y018347D01*
X003882Y018338D01*
X003897Y018326D01*
X003909Y018311D01*
X003918Y018293D01*
X003924Y018275D01*
X003926Y018255D01*
X003924Y018235D01*
X003918Y018217D01*
X003909Y018199D01*
X003897Y018184D01*
X003882Y018172D01*
X003864Y018163D01*
X003846Y018157D01*
X003826Y018155D01*
X003806Y018157D01*
X003788Y018163D01*
X003770Y018172D01*
X003755Y018184D01*
X003743Y018199D01*
X003734Y018217D01*
X003728Y018235D01*
X003726Y018255D01*
D30*
X014565Y004266D02*
X015278Y004266D01*
X017124Y004266D02*
X017837Y004266D01*
X020440Y004266D02*
X021153Y004266D01*
X022999Y004266D02*
X023712Y004266D01*
X023712Y002494D02*
X022999Y002494D01*
X021153Y002494D02*
X020440Y002494D01*
X017837Y002494D02*
X017124Y002494D01*
X015278Y002494D02*
X014565Y002494D01*
D31*
X025061Y015755D02*
X025701Y015755D01*
X025701Y016755D02*
X025061Y016755D01*
X025061Y017755D02*
X025701Y017755D01*
X028701Y017755D02*
X029341Y017755D01*
X029341Y016755D02*
X028701Y016755D01*
X028701Y015755D02*
X029341Y015755D01*
D32*
X033076Y017455D03*
X036201Y012755D03*
X033076Y011555D03*
X036201Y008755D03*
D33*
X037326Y005146D02*
X037326Y005021D01*
X037310Y005005D01*
X028326Y009005D02*
X028326Y013005D01*
X027326Y014005D01*
X022451Y014005D01*
X021701Y014755D01*
X020451Y014755D01*
X019701Y015505D01*
X019451Y015255D02*
X018600Y015255D01*
X019201Y015005D02*
X020201Y014005D01*
X021201Y014005D01*
X021951Y013255D01*
X026576Y013255D01*
X027201Y012630D01*
X027201Y011130D01*
X027201Y010130D01*
X026951Y009880D01*
X026104Y009880D01*
X026104Y010380D02*
X025394Y010380D01*
X025394Y011005D01*
X025644Y011255D01*
X025644Y011754D01*
X025643Y011755D01*
X025518Y011755D01*
X026104Y011533D02*
X026326Y011755D01*
X026104Y011533D02*
X026104Y010880D01*
X026701Y011380D02*
X026701Y010130D01*
X027576Y009630D02*
X027826Y009880D01*
X027826Y012755D01*
X026951Y013630D01*
X022201Y013630D01*
X021451Y014380D01*
X020326Y014380D01*
X019451Y015255D01*
X019951Y015755D02*
X020076Y015755D01*
X020701Y015130D01*
X022201Y015130D01*
X023076Y016005D01*
X023076Y017006D01*
X023076Y017754D02*
X023076Y017755D01*
X025701Y017755D01*
X025701Y016755D02*
X025076Y016755D01*
X023951Y015630D01*
X023951Y014755D01*
X022451Y016005D02*
X021951Y015505D01*
X020826Y015505D01*
X020201Y016130D01*
X019326Y016130D01*
X019201Y016255D01*
X018600Y016255D01*
X017951Y016005D02*
X017826Y016005D01*
X017576Y016255D01*
X016552Y016255D01*
X016552Y015755D02*
X017451Y015755D01*
X017701Y015505D01*
X017826Y015005D02*
X017576Y014755D01*
X016552Y014755D01*
X015326Y014755D01*
X015326Y014880D01*
X014451Y014880D02*
X014451Y015505D01*
X014326Y016130D02*
X014951Y016755D01*
X016552Y016755D01*
X016552Y017255D02*
X014826Y017255D01*
X014201Y016630D01*
X011451Y016630D01*
X011076Y016255D01*
X010326Y016255D01*
X009951Y015880D01*
X009951Y015005D01*
X009826Y014880D01*
X009826Y014380D01*
X010576Y015130D02*
X010701Y015130D01*
X011701Y016130D01*
X014326Y016130D01*
X013576Y014880D02*
X013576Y014255D01*
X012769Y013130D02*
X016395Y013130D01*
X017519Y012255D02*
X018269Y012255D01*
X018769Y012755D01*
X020145Y012755D01*
X020520Y013130D01*
X019020Y013130D02*
X018519Y013130D01*
X018144Y012755D01*
X013269Y012755D01*
X012894Y012380D01*
X012894Y012254D01*
X013894Y012254D02*
X014770Y012254D01*
X016144Y010880D01*
X016144Y010630D01*
X016519Y010255D01*
X017019Y010255D01*
X017269Y010505D01*
X017769Y010630D02*
X017769Y011255D01*
X017769Y010630D02*
X018519Y009880D01*
X022644Y009880D01*
X023144Y009380D01*
X023684Y009380D01*
X023684Y008880D02*
X023269Y008880D01*
X022769Y009380D01*
X018394Y009380D01*
X016769Y007755D01*
X016769Y007255D01*
X017769Y007255D02*
X017769Y008005D01*
X018769Y009005D01*
X022769Y009005D01*
X023394Y008380D01*
X023684Y008380D01*
X023684Y007880D02*
X023394Y007880D01*
X022519Y008755D01*
X019519Y008755D01*
X018769Y008005D01*
X018769Y007255D01*
X019769Y007255D02*
X019894Y007380D01*
X019894Y008005D01*
X020394Y008505D01*
X022269Y008505D01*
X022894Y007880D01*
X022894Y007505D01*
X023019Y007380D01*
X023684Y007380D01*
X024394Y007630D02*
X024394Y011755D01*
X024229Y011755D01*
X024770Y011755D01*
X023644Y011755D02*
X023559Y011755D01*
X023559Y012295D01*
X023644Y012380D01*
X023770Y012380D01*
X024020Y012630D01*
X024768Y012630D02*
X026326Y012630D01*
X026951Y012005D01*
X026951Y011630D01*
X026701Y011380D01*
X025326Y010005D02*
X025326Y009005D01*
X025451Y008880D01*
X026104Y008880D01*
X026104Y009380D02*
X027576Y009380D01*
X027576Y009630D01*
X028326Y009005D02*
X027701Y008380D01*
X026104Y008380D01*
X026104Y007880D02*
X026769Y007880D01*
X026894Y007755D01*
X026894Y006880D01*
X025894Y005880D01*
X025769Y005880D01*
X024519Y005880D02*
X024019Y005880D01*
X022519Y007380D01*
X022519Y007755D01*
X022019Y008255D01*
X021269Y008255D01*
X020894Y007880D01*
X020894Y007380D01*
X020769Y007255D01*
X021769Y007255D02*
X022607Y006417D01*
X022644Y006417D01*
X022644Y006005D02*
X022644Y006004D01*
X023018Y005630D01*
X022644Y006005D02*
X016519Y006005D01*
X016144Y006380D01*
X015769Y006255D02*
X016394Y005630D01*
X022270Y005630D01*
X023356Y004266D02*
X020797Y004266D01*
X018815Y004266D01*
X018201Y004880D01*
X016576Y004880D01*
X016326Y004630D01*
X016326Y004380D01*
X015451Y003505D01*
X012576Y003505D01*
X011951Y002880D01*
X011825Y002880D01*
X011077Y002880D02*
X011077Y004379D01*
X010076Y005380D01*
X010076Y007005D01*
X008951Y008130D01*
X008951Y011130D01*
X010826Y013005D01*
X011019Y013005D01*
X011144Y013130D01*
X011144Y011630D01*
X010576Y011880D02*
X010576Y010630D01*
X009826Y009880D01*
X009826Y008380D01*
X010826Y007380D01*
X010826Y005755D01*
X012315Y004266D01*
X014922Y004266D01*
X015019Y005380D02*
X012768Y005380D01*
X012518Y005630D01*
X012701Y006505D02*
X013576Y005630D01*
X014451Y005630D01*
X014519Y005698D01*
X014769Y005698D01*
X015076Y006005D01*
X015076Y006630D01*
X014576Y007130D01*
X014576Y007738D01*
X014519Y007795D01*
X015019Y007795D02*
X015019Y007255D01*
X015394Y006880D01*
X015394Y005755D01*
X015019Y005380D01*
X013894Y006130D02*
X013894Y007130D01*
X014019Y007255D01*
X014019Y007795D01*
X013519Y007795D02*
X013519Y008505D01*
X011894Y008505D01*
X011769Y008380D01*
X011269Y008465D02*
X011269Y008630D01*
X011769Y009130D01*
X010768Y009130D01*
X010519Y009379D01*
X011769Y009130D02*
X015519Y009130D01*
X015894Y008755D01*
X015894Y007255D01*
X015769Y007130D01*
X015769Y006255D01*
X013019Y007448D02*
X013019Y007795D01*
X013019Y007448D02*
X012701Y007130D01*
X012076Y007130D01*
X011826Y006880D01*
X010451Y007130D02*
X009451Y008130D01*
X009451Y010880D01*
X009826Y011255D01*
X011894Y011506D02*
X012019Y011381D01*
X012019Y010215D01*
X012519Y010215D02*
X012519Y011131D01*
X012894Y011506D01*
X013519Y011255D02*
X013643Y011255D01*
X013894Y011506D01*
X013519Y011255D02*
X013019Y010755D01*
X013019Y010215D01*
X013519Y010215D02*
X013519Y010755D01*
X013644Y010880D01*
X015644Y010880D01*
X015894Y010379D02*
X016519Y009754D01*
X015519Y010215D02*
X015519Y009130D01*
X016519Y009006D02*
X016519Y008505D01*
X016144Y008130D01*
X018769Y010880D02*
X019394Y010255D01*
X022769Y010255D01*
X023144Y009880D01*
X023684Y009880D01*
X023684Y010380D02*
X023144Y010380D01*
X022269Y011255D01*
X021769Y011255D01*
X018769Y011255D02*
X018769Y010880D01*
X017519Y012255D02*
X017269Y012005D01*
X012769Y013130D02*
X011894Y012255D01*
X011894Y012254D01*
X010519Y008631D02*
X010519Y008505D01*
X010894Y008130D01*
X011269Y007795D02*
X011270Y007794D01*
X011269Y007795D02*
X012019Y007795D01*
X012019Y007795D01*
X010451Y007130D02*
X010451Y005630D01*
X012576Y003505D01*
X011077Y002880D02*
X011077Y001880D01*
X011825Y001880D02*
X013951Y001880D01*
X014201Y001630D01*
X015826Y001630D01*
X016201Y002005D01*
X016201Y002986D01*
X017481Y004266D01*
X017481Y002494D02*
X020797Y002494D01*
X023356Y002494D01*
X023690Y002494D01*
X025076Y003880D01*
X025076Y005130D01*
X025144Y007380D02*
X024644Y007380D01*
X024394Y007630D01*
X009576Y006880D02*
X009576Y005129D01*
X009201Y005755D02*
X008826Y005380D01*
X008826Y005129D01*
X008076Y005129D02*
X008076Y005505D01*
X008326Y005755D01*
X008701Y005755D01*
X008889Y005943D01*
X008889Y006318D01*
X008576Y006630D01*
X008225Y006630D01*
X008225Y007130D02*
X008701Y007130D01*
X009201Y006630D01*
X009201Y005755D01*
X009576Y006880D02*
X008826Y007630D01*
X008225Y007630D01*
X008076Y004381D02*
X008700Y004381D01*
X008701Y004380D01*
X021701Y015755D02*
X021826Y015880D01*
X021826Y018255D01*
X021576Y018505D01*
X020076Y018505D01*
X019576Y018005D01*
X019576Y017880D01*
X019616Y017755D02*
X019451Y017755D01*
X019201Y017505D01*
X018600Y017255D02*
X020326Y017255D01*
X020286Y017295D01*
X020286Y017755D01*
X020326Y017255D02*
X020826Y017255D01*
X021326Y017755D01*
X021326Y017955D01*
X021701Y018880D02*
X022451Y018130D01*
X022451Y016005D01*
X021326Y016055D02*
X021326Y016380D01*
X020826Y016880D01*
X020326Y016880D01*
X020326Y016505D01*
X020286Y016505D01*
X019616Y016505D02*
X019326Y016505D01*
X019076Y016755D02*
X018600Y016755D01*
X019076Y016755D02*
X019201Y016880D01*
X020326Y016880D01*
X017951Y016505D02*
X017826Y016630D01*
X017826Y017505D01*
X017451Y017505D01*
X017201Y017755D01*
X016552Y017755D01*
X017951Y019130D02*
X018201Y018880D01*
X021701Y018880D01*
X017951Y019130D02*
X016326Y019130D01*
X016201Y019005D01*
X012201Y019005D01*
X012327Y018879D01*
X012327Y018380D01*
X013075Y018380D02*
X013075Y017756D01*
X013076Y017755D01*
X012201Y019005D02*
X011076Y019005D01*
X009451Y017380D01*
X008076Y017380D01*
X007201Y018255D01*
X006826Y018255D01*
X007076Y017755D02*
X006326Y017755D01*
X005826Y017255D01*
X005951Y016380D02*
X006826Y017255D01*
X007076Y017755D02*
X008076Y016755D01*
X008451Y016755D01*
X008701Y018005D02*
X007951Y018755D01*
X006326Y018755D01*
X005826Y018255D01*
X005701Y019130D02*
X004826Y018255D01*
X005701Y019130D02*
X009201Y019130D01*
X009701Y018630D01*
X005951Y016380D02*
X005451Y016380D01*
D34*
X005326Y015630D02*
X004201Y016755D01*
X002076Y016755D01*
X001326Y016005D01*
X001326Y013505D01*
X001701Y013130D01*
X001701Y008630D01*
X000701Y007630D01*
X000701Y005255D01*
X002826Y003130D01*
X006576Y003130D01*
X007286Y003840D01*
X007286Y003420D01*
X009451Y001255D01*
X016201Y001255D01*
X016576Y001630D01*
X023826Y001630D01*
X025701Y003505D01*
X025701Y004630D01*
X025201Y005130D01*
X025076Y005130D01*
X025201Y005255D01*
X025201Y007380D01*
X026104Y007380D01*
X025201Y007380D02*
X025144Y007380D01*
X025076Y005130D02*
X020451Y005130D01*
X020326Y005255D01*
X015951Y005255D01*
X015701Y005005D01*
X012201Y005005D01*
X011826Y005380D01*
X011826Y005574D01*
X011770Y005630D01*
X011270Y006130D01*
X011270Y007794D01*
X011309Y007795D02*
X011269Y007755D01*
X011309Y007795D02*
X012019Y007795D01*
X010519Y009379D02*
X011144Y010004D01*
X011144Y011630D01*
X011144Y013073D01*
X011701Y013630D01*
X017201Y013630D01*
X017143Y013572D01*
X017143Y013130D01*
X017201Y013630D02*
X019826Y013630D01*
X019768Y013572D01*
X019768Y013130D01*
X019826Y013630D02*
X020768Y013630D01*
X021268Y013130D01*
X021434Y013130D01*
X022317Y012246D01*
X022701Y012630D01*
X022701Y012755D01*
X022317Y012246D02*
X023192Y011371D01*
X023576Y011755D01*
X023644Y011755D01*
X023192Y011371D02*
X023684Y010880D01*
X020769Y011255D02*
X020769Y012218D01*
X020894Y012343D01*
X019769Y011968D02*
X019394Y012343D01*
X019769Y011968D02*
X019769Y011255D01*
X016769Y011255D02*
X016769Y012343D01*
X018326Y014255D02*
X013576Y014255D01*
X011326Y014255D01*
X008225Y011154D01*
X008225Y007630D01*
X007701Y007130D02*
X007451Y007380D01*
X007451Y011130D01*
X011826Y015505D01*
X014451Y015505D01*
X015701Y015505D01*
X015951Y015255D01*
X016552Y015255D01*
X018326Y014255D02*
X018576Y014505D01*
X018576Y014731D01*
X018600Y014755D01*
X014576Y017755D02*
X013951Y017130D01*
X011201Y017130D01*
X010826Y016755D01*
X010076Y016755D01*
X009576Y016255D01*
X009576Y015505D01*
X009327Y015256D01*
X008951Y015256D01*
X008201Y015256D01*
X008825Y015256D01*
X008826Y015255D01*
X008826Y013380D01*
X007951Y012505D01*
X007036Y013420D01*
X007036Y013907D01*
X005704Y013907D01*
X005451Y013654D01*
X005451Y013505D01*
X005704Y013907D02*
X005332Y014279D01*
X004545Y014653D02*
X003905Y014013D01*
X002800Y014013D01*
X004576Y015130D02*
X005229Y015130D01*
X005332Y015027D01*
X006179Y015027D01*
X006576Y014630D01*
X007451Y014880D02*
X007451Y015630D01*
X006701Y016380D01*
X006451Y016380D01*
X005701Y015630D01*
X005326Y015630D01*
X004576Y015130D02*
X003725Y015981D01*
X002800Y015981D01*
X006576Y015630D02*
X007451Y015630D01*
X007826Y016005D01*
X008200Y016005D01*
X008201Y016004D01*
X008951Y016004D01*
X008951Y016380D01*
X010326Y017755D01*
X013076Y017755D01*
X013826Y017755D01*
X014326Y018255D01*
X016076Y018255D01*
X016576Y018755D01*
X017451Y018755D01*
X017701Y018505D01*
X017701Y018295D01*
X017661Y018255D01*
X018100Y018255D01*
X018600Y017755D01*
X016991Y018194D02*
X016552Y017755D01*
X014576Y017755D01*
X016991Y018194D02*
X016991Y018255D01*
X008951Y015256D02*
X008826Y015131D01*
X008826Y014380D01*
X007836Y014495D02*
X007836Y013907D01*
X007836Y014495D02*
X007451Y014880D01*
X007951Y012505D02*
X007326Y011880D01*
X006576Y011130D01*
X006576Y007755D01*
X006701Y007630D01*
X006177Y007630D01*
X006701Y007630D02*
X006951Y007380D01*
X006951Y005880D01*
X006616Y005545D01*
X006616Y005380D01*
X005254Y004018D01*
X005201Y004018D01*
X005201Y004380D01*
X004326Y005255D01*
X004326Y006130D01*
X005201Y005755D02*
X005576Y006130D01*
X006177Y006130D01*
X006177Y006630D02*
X005326Y006630D01*
X005201Y006755D01*
X005701Y007130D02*
X006177Y007130D01*
X005701Y007130D02*
X005201Y007630D01*
X005201Y011892D01*
X007701Y007130D02*
X008225Y007130D01*
X008225Y006130D02*
X007701Y006130D01*
X007576Y006005D01*
X007576Y005880D01*
X007286Y005590D01*
X007286Y005380D01*
X007286Y004255D01*
X007412Y004381D01*
X008076Y004381D01*
X008826Y004381D01*
X009576Y004381D01*
X007286Y004255D02*
X007286Y003840D01*
D35*
X010894Y008130D02*
X011519Y008130D01*
X011769Y008380D01*
X015894Y010379D02*
X015894Y010630D01*
X015644Y010880D01*
X017269Y010505D02*
X017269Y012005D01*
X017826Y015005D02*
X019201Y015005D01*
X019701Y015505D02*
X017701Y015505D01*
X017951Y016005D02*
X019076Y016005D01*
X019326Y015755D01*
X019951Y015755D01*
X019326Y016505D02*
X017951Y016505D01*
X017826Y017505D02*
X019201Y017505D01*
X025451Y010130D02*
X025326Y010005D01*
X025451Y010130D02*
X026701Y010130D01*
X016144Y008130D02*
X016144Y006380D01*
D36*
X013894Y006130D03*
X011144Y010004D03*
X009826Y011255D03*
X010576Y011880D03*
X007326Y011880D03*
X005451Y013505D03*
X009826Y014380D03*
X010576Y015130D03*
X008451Y016755D03*
X008701Y018005D03*
X009701Y018630D03*
X005451Y016380D03*
X013576Y014880D03*
X014451Y014880D03*
X015326Y014880D03*
X022701Y014755D03*
X022701Y012755D03*
X026326Y011755D03*
X027201Y011130D03*
X027576Y009380D03*
X025769Y005880D03*
X024519Y005880D03*
D37*
X026826Y005005D02*
X026826Y003130D01*
X025076Y001380D01*
X026826Y005005D02*
X028951Y007130D01*
X028951Y013505D01*
X027701Y014755D01*
X027201Y014755D01*
X027201Y019005D01*
X027201Y014755D02*
X023951Y014755D01*
X022701Y014755D01*
D38*
X011826Y006880D03*
X012701Y006505D03*
X019201Y003380D03*
X001701Y002380D03*
X001701Y017880D03*
X038201Y017880D03*
X038201Y002380D03*
D39*
X036701Y007255D02*
X036201Y007755D01*
X036201Y008755D01*
X034014Y010568D02*
X033076Y011505D01*
X033076Y011555D01*
X030951Y011380D02*
X030951Y009880D01*
X029951Y009880D02*
X029951Y014505D01*
X028701Y015755D01*
X030951Y015380D02*
X030951Y014755D01*
X031076Y014880D01*
X031326Y014880D01*
X033076Y016630D01*
X033076Y017455D01*
X030951Y018380D02*
X030326Y017755D01*
X028701Y017755D01*
X030951Y014755D02*
X030951Y014380D01*
M02*
