%
M48
M72
T01C0.0198
%
T01
X3826Y505
X38951Y505
X10701Y19880
X6576Y15630
X6576Y14630
X7036Y13907
X7836Y13907
X21326Y16055
X21326Y17955
X25701Y17755
X25701Y16755
X25701Y15755
X28701Y15755
X28701Y16755
X28701Y17755
X30951Y18380
X30951Y15380
X30951Y14380
X30951Y11380
X33701Y7255
X36701Y7255
X5201Y6755
X5201Y5755
X16769Y7255
X17769Y7255
X18769Y7255
X19769Y7255
X20769Y7255
X21769Y7255
X21769Y11255
X20769Y11255
X19769Y11255
X18769Y11255
X17769Y11255
X16769Y11255
X11144Y10004
X9826Y11255
X10576Y11880
X7326Y11880
X5201Y11892
X5451Y13505
X9826Y14380
X10576Y15130
X8451Y16755
X8701Y18005
X9701Y18630
X5451Y16380
X13576Y14880
X14451Y14880
X15326Y14880
X22701Y14755
X22701Y12755
X26326Y11755
X27201Y11130
X27576Y9380
X25769Y5880
X24519Y5880
X23356Y4266
X20797Y4266
X20797Y2494
X23356Y2494
X17481Y2494
X14922Y2494
X14922Y4266
X17481Y4266
X13894Y6130
X5201Y4018
X3826Y18255
X7826Y18255
X33076Y17455
X36201Y12755
X33076Y11555
X36201Y8755
X38201Y2380
X19201Y3380
X12701Y6505
X11826Y6880
X1701Y2380
X1701Y17880
X38201Y17880
X31951Y9880
X30951Y9880
X29951Y9880
X35342Y5005
X37310Y5005
X37310Y15255
X35342Y15255
X2800Y15981
X2800Y14013
X30951Y2980
M30
