G75*
%MOIN*%
%OFA0B0*%
%FSLAX24Y24*%
%IPPOS*%
%LPD*%
%AMOC8*
5,1,8,0,0,1.08239X$1,22.5*
%
%ADD10C,0.0100*%
%ADD11C,0.0320*%
%ADD12C,0.0000*%
%ADD13C,0.0760*%
%ADD14C,0.0790*%
%ADD15OC8,0.0640*%
%ADD16C,0.0640*%
%ADD17C,0.1000*%
%ADD18C,0.0714*%
%ADD19C,0.0640*%
%ADD20C,0.1000*%
%ADD21C,0.0634*%
%ADD22C,0.0160*%
%ADD23C,0.0240*%
%ADD24C,0.0673*%
D10*
X000201Y000880D02*
X000201Y019384D01*
X039571Y019384D01*
X039571Y000880D01*
X000201Y000880D01*
D11*
X003726Y000505D02*
X003728Y000525D01*
X003734Y000543D01*
X003743Y000561D01*
X003755Y000576D01*
X003770Y000588D01*
X003788Y000597D01*
X003806Y000603D01*
X003826Y000605D01*
X003846Y000603D01*
X003864Y000597D01*
X003882Y000588D01*
X003897Y000576D01*
X003909Y000561D01*
X003918Y000543D01*
X003924Y000525D01*
X003926Y000505D01*
X003924Y000485D01*
X003918Y000467D01*
X003909Y000449D01*
X003897Y000434D01*
X003882Y000422D01*
X003864Y000413D01*
X003846Y000407D01*
X003826Y000405D01*
X003806Y000407D01*
X003788Y000413D01*
X003770Y000422D01*
X003755Y000434D01*
X003743Y000449D01*
X003734Y000467D01*
X003728Y000485D01*
X003726Y000505D01*
X038851Y000505D02*
X038853Y000525D01*
X038859Y000543D01*
X038868Y000561D01*
X038880Y000576D01*
X038895Y000588D01*
X038913Y000597D01*
X038931Y000603D01*
X038951Y000605D01*
X038971Y000603D01*
X038989Y000597D01*
X039007Y000588D01*
X039022Y000576D01*
X039034Y000561D01*
X039043Y000543D01*
X039049Y000525D01*
X039051Y000505D01*
X039049Y000485D01*
X039043Y000467D01*
X039034Y000449D01*
X039022Y000434D01*
X039007Y000422D01*
X038989Y000413D01*
X038971Y000407D01*
X038951Y000405D01*
X038931Y000407D01*
X038913Y000413D01*
X038895Y000422D01*
X038880Y000434D01*
X038868Y000449D01*
X038859Y000467D01*
X038853Y000485D01*
X038851Y000505D01*
X010601Y019880D02*
X010603Y019900D01*
X010609Y019918D01*
X010618Y019936D01*
X010630Y019951D01*
X010645Y019963D01*
X010663Y019972D01*
X010681Y019978D01*
X010701Y019980D01*
X010721Y019978D01*
X010739Y019972D01*
X010757Y019963D01*
X010772Y019951D01*
X010784Y019936D01*
X010793Y019918D01*
X010799Y019900D01*
X010801Y019880D01*
X010799Y019860D01*
X010793Y019842D01*
X010784Y019824D01*
X010772Y019809D01*
X010757Y019797D01*
X010739Y019788D01*
X010721Y019782D01*
X010701Y019780D01*
X010681Y019782D01*
X010663Y019788D01*
X010645Y019797D01*
X010630Y019809D01*
X010618Y019824D01*
X010609Y019842D01*
X010603Y019860D01*
X010601Y019880D01*
D12*
X010583Y019880D02*
X010585Y019901D01*
X010591Y019921D01*
X010600Y019941D01*
X010612Y019958D01*
X010627Y019972D01*
X010645Y019984D01*
X010665Y019992D01*
X010685Y019997D01*
X010706Y019998D01*
X010727Y019995D01*
X010747Y019989D01*
X010766Y019978D01*
X010783Y019965D01*
X010796Y019949D01*
X010807Y019931D01*
X010815Y019911D01*
X010819Y019891D01*
X010819Y019869D01*
X010815Y019849D01*
X010807Y019829D01*
X010796Y019811D01*
X010783Y019795D01*
X010766Y019782D01*
X010747Y019771D01*
X010727Y019765D01*
X010706Y019762D01*
X010685Y019763D01*
X010665Y019768D01*
X010645Y019776D01*
X010627Y019788D01*
X010612Y019802D01*
X010600Y019819D01*
X010591Y019839D01*
X010585Y019859D01*
X010583Y019880D01*
X007626Y018255D02*
X007628Y018283D01*
X007634Y018310D01*
X007643Y018336D01*
X007656Y018361D01*
X007673Y018384D01*
X007692Y018404D01*
X007714Y018421D01*
X007738Y018435D01*
X007764Y018445D01*
X007791Y018452D01*
X007819Y018455D01*
X007847Y018454D01*
X007874Y018449D01*
X007901Y018440D01*
X007926Y018428D01*
X007949Y018413D01*
X007970Y018394D01*
X007988Y018373D01*
X008003Y018349D01*
X008014Y018323D01*
X008022Y018297D01*
X008026Y018269D01*
X008026Y018241D01*
X008022Y018213D01*
X008014Y018187D01*
X008003Y018161D01*
X007988Y018137D01*
X007970Y018116D01*
X007949Y018097D01*
X007926Y018082D01*
X007901Y018070D01*
X007874Y018061D01*
X007847Y018056D01*
X007819Y018055D01*
X007791Y018058D01*
X007764Y018065D01*
X007738Y018075D01*
X007714Y018089D01*
X007692Y018106D01*
X007673Y018126D01*
X007656Y018149D01*
X007643Y018174D01*
X007634Y018200D01*
X007628Y018227D01*
X007626Y018255D01*
X003626Y018255D02*
X003628Y018283D01*
X003634Y018310D01*
X003643Y018336D01*
X003656Y018361D01*
X003673Y018384D01*
X003692Y018404D01*
X003714Y018421D01*
X003738Y018435D01*
X003764Y018445D01*
X003791Y018452D01*
X003819Y018455D01*
X003847Y018454D01*
X003874Y018449D01*
X003901Y018440D01*
X003926Y018428D01*
X003949Y018413D01*
X003970Y018394D01*
X003988Y018373D01*
X004003Y018349D01*
X004014Y018323D01*
X004022Y018297D01*
X004026Y018269D01*
X004026Y018241D01*
X004022Y018213D01*
X004014Y018187D01*
X004003Y018161D01*
X003988Y018137D01*
X003970Y018116D01*
X003949Y018097D01*
X003926Y018082D01*
X003901Y018070D01*
X003874Y018061D01*
X003847Y018056D01*
X003819Y018055D01*
X003791Y018058D01*
X003764Y018065D01*
X003738Y018075D01*
X003714Y018089D01*
X003692Y018106D01*
X003673Y018126D01*
X003656Y018149D01*
X003643Y018174D01*
X003634Y018200D01*
X003628Y018227D01*
X003626Y018255D01*
X030301Y002980D02*
X030303Y003030D01*
X030309Y003080D01*
X030319Y003130D01*
X030332Y003178D01*
X030349Y003226D01*
X030370Y003272D01*
X030394Y003316D01*
X030422Y003358D01*
X030453Y003398D01*
X030487Y003435D01*
X030524Y003470D01*
X030563Y003501D01*
X030604Y003530D01*
X030648Y003555D01*
X030694Y003577D01*
X030741Y003595D01*
X030789Y003609D01*
X030838Y003620D01*
X030888Y003627D01*
X030938Y003630D01*
X030989Y003629D01*
X031039Y003624D01*
X031089Y003615D01*
X031137Y003603D01*
X031185Y003586D01*
X031231Y003566D01*
X031276Y003543D01*
X031319Y003516D01*
X031359Y003486D01*
X031397Y003453D01*
X031432Y003417D01*
X031465Y003378D01*
X031494Y003337D01*
X031520Y003294D01*
X031543Y003249D01*
X031562Y003202D01*
X031577Y003154D01*
X031589Y003105D01*
X031597Y003055D01*
X031601Y003005D01*
X031601Y002955D01*
X031597Y002905D01*
X031589Y002855D01*
X031577Y002806D01*
X031562Y002758D01*
X031543Y002711D01*
X031520Y002666D01*
X031494Y002623D01*
X031465Y002582D01*
X031432Y002543D01*
X031397Y002507D01*
X031359Y002474D01*
X031319Y002444D01*
X031276Y002417D01*
X031231Y002394D01*
X031185Y002374D01*
X031137Y002357D01*
X031089Y002345D01*
X031039Y002336D01*
X030989Y002331D01*
X030938Y002330D01*
X030888Y002333D01*
X030838Y002340D01*
X030789Y002351D01*
X030741Y002365D01*
X030694Y002383D01*
X030648Y002405D01*
X030604Y002430D01*
X030563Y002459D01*
X030524Y002490D01*
X030487Y002525D01*
X030453Y002562D01*
X030422Y002602D01*
X030394Y002644D01*
X030370Y002688D01*
X030349Y002734D01*
X030332Y002782D01*
X030319Y002830D01*
X030309Y002880D01*
X030303Y002930D01*
X030301Y002980D01*
X038833Y000505D02*
X038835Y000526D01*
X038841Y000546D01*
X038850Y000566D01*
X038862Y000583D01*
X038877Y000597D01*
X038895Y000609D01*
X038915Y000617D01*
X038935Y000622D01*
X038956Y000623D01*
X038977Y000620D01*
X038997Y000614D01*
X039016Y000603D01*
X039033Y000590D01*
X039046Y000574D01*
X039057Y000556D01*
X039065Y000536D01*
X039069Y000516D01*
X039069Y000494D01*
X039065Y000474D01*
X039057Y000454D01*
X039046Y000436D01*
X039033Y000420D01*
X039016Y000407D01*
X038997Y000396D01*
X038977Y000390D01*
X038956Y000387D01*
X038935Y000388D01*
X038915Y000393D01*
X038895Y000401D01*
X038877Y000413D01*
X038862Y000427D01*
X038850Y000444D01*
X038841Y000464D01*
X038835Y000484D01*
X038833Y000505D01*
X003708Y000505D02*
X003710Y000526D01*
X003716Y000546D01*
X003725Y000566D01*
X003737Y000583D01*
X003752Y000597D01*
X003770Y000609D01*
X003790Y000617D01*
X003810Y000622D01*
X003831Y000623D01*
X003852Y000620D01*
X003872Y000614D01*
X003891Y000603D01*
X003908Y000590D01*
X003921Y000574D01*
X003932Y000556D01*
X003940Y000536D01*
X003944Y000516D01*
X003944Y000494D01*
X003940Y000474D01*
X003932Y000454D01*
X003921Y000436D01*
X003908Y000420D01*
X003891Y000407D01*
X003872Y000396D01*
X003852Y000390D01*
X003831Y000387D01*
X003810Y000388D01*
X003790Y000393D01*
X003770Y000401D01*
X003752Y000413D01*
X003737Y000427D01*
X003725Y000444D01*
X003716Y000464D01*
X003710Y000484D01*
X003708Y000505D01*
D13*
X016769Y006875D02*
X016769Y007635D01*
X017769Y007635D02*
X017769Y006875D01*
X018769Y006875D02*
X018769Y007635D01*
X019769Y007635D02*
X019769Y006875D01*
X020769Y006875D02*
X020769Y007635D01*
X021769Y007635D02*
X021769Y006875D01*
X021769Y010875D02*
X021769Y011635D01*
X020769Y011635D02*
X020769Y010875D01*
X019769Y010875D02*
X019769Y011635D01*
X018769Y011635D02*
X018769Y010875D01*
X017769Y010875D02*
X017769Y011635D01*
X016769Y011635D02*
X016769Y010875D01*
X029951Y010260D02*
X029951Y009500D01*
X030951Y009500D02*
X030951Y010260D01*
X031951Y010260D02*
X031951Y009500D01*
D14*
X035342Y005400D02*
X035342Y004610D01*
X037310Y004610D02*
X037310Y005400D01*
X037310Y014860D02*
X037310Y015650D01*
X035342Y015650D02*
X035342Y014860D01*
X003195Y014013D02*
X002405Y014013D01*
X002405Y015981D02*
X003195Y015981D01*
D15*
X006576Y015630D03*
X006576Y014630D03*
X007036Y013907D03*
X030951Y014380D03*
X030951Y015380D03*
X030951Y018380D03*
X030951Y011380D03*
X033701Y007255D03*
X036701Y007255D03*
D16*
X021326Y016055D03*
X021326Y017955D03*
X007836Y013907D03*
X005201Y006755D03*
X005201Y005755D03*
D17*
X005701Y004018D02*
X004701Y004018D01*
X004701Y011892D02*
X005701Y011892D01*
D18*
X014565Y004266D02*
X015278Y004266D01*
X017124Y004266D02*
X017837Y004266D01*
X020440Y004266D02*
X021153Y004266D01*
X022999Y004266D02*
X023712Y004266D01*
X023712Y002494D02*
X022999Y002494D01*
X021153Y002494D02*
X020440Y002494D01*
X017837Y002494D02*
X017124Y002494D01*
X015278Y002494D02*
X014565Y002494D01*
D19*
X025061Y015755D02*
X025701Y015755D01*
X025701Y016755D02*
X025061Y016755D01*
X025061Y017755D02*
X025701Y017755D01*
X028701Y017755D02*
X029341Y017755D01*
X029341Y016755D02*
X028701Y016755D01*
X028701Y015755D02*
X029341Y015755D01*
D20*
X033076Y017455D03*
X036201Y012755D03*
X033076Y011555D03*
X036201Y008755D03*
D21*
X027576Y009380D03*
X027201Y011130D03*
X026326Y011755D03*
X022701Y012755D03*
X022701Y014755D03*
X015326Y014880D03*
X014451Y014880D03*
X013576Y014880D03*
X010576Y015130D03*
X009826Y014380D03*
X005451Y013505D03*
X007326Y011880D03*
X009826Y011255D03*
X010576Y011880D03*
X011144Y010004D03*
X013894Y006130D03*
X024519Y005880D03*
X025769Y005880D03*
X005451Y016380D03*
X008451Y016755D03*
X008701Y018005D03*
X009701Y018630D03*
D22*
X011576Y018630D01*
X015326Y014880D01*
X014451Y014880D02*
X011326Y018005D01*
X008701Y018005D01*
X008451Y016755D02*
X011701Y016755D01*
X013576Y014880D01*
X010576Y015130D02*
X010576Y011880D01*
X009826Y011255D02*
X009826Y014380D01*
X005451Y013505D02*
X005451Y016380D01*
X014951Y010005D02*
X011826Y006880D01*
X012701Y006562D02*
X015769Y009630D01*
X026701Y009630D01*
X027201Y010130D01*
X027201Y011130D01*
X026326Y011755D02*
X026326Y010437D01*
X025894Y010005D01*
X014951Y010005D01*
X015860Y007971D02*
X017144Y009255D01*
X027451Y009255D01*
X027576Y009380D01*
X022701Y012755D02*
X022701Y014755D01*
X015860Y007971D02*
X015769Y007880D01*
X014019Y006130D01*
X013894Y006130D01*
X012701Y006505D02*
X012701Y006562D01*
X014922Y004266D02*
X017481Y004266D01*
X017481Y002494D02*
X014922Y002494D01*
X024519Y005880D02*
X025769Y005880D01*
D23*
X011144Y010004D02*
X011018Y010130D01*
X009701Y010130D01*
X007951Y011880D01*
X007326Y011880D01*
D24*
X011826Y006880D03*
X012701Y006505D03*
X019201Y003380D03*
X001701Y002380D03*
X001701Y017880D03*
X038201Y017880D03*
X038201Y002380D03*
M02*
