<?xml version="1.0" encoding="UTF-8"?>
<svg xmlns="http://www.w3.org/2000/svg" xmlns:xlink="http://www.w3.org/1999/xlink" width="312pt" height="157pt" viewBox="0 0 312 157" version="1.1">
<g id="surface23550">
<path style="fill:none;stroke-width:0.01;stroke-linecap:round;stroke-linejoin:miter;stroke:rgb(0%,0%,0%);stroke-opacity:1;stroke-miterlimit:10;" d="M 0.0201155 0.0880024 L 0.0201155 1.938426 " transform="matrix(72,0,0,-72,13.122,151.6018)"/>
<path style="fill:none;stroke-width:0.01;stroke-linecap:round;stroke-linejoin:miter;stroke:rgb(0%,0%,0%);stroke-opacity:1;stroke-miterlimit:10;" d="M 0.0201155 1.938426 L 3.957073 1.938426 " transform="matrix(72,0,0,-72,13.122,151.6018)"/>
<path style="fill:none;stroke-width:0.01;stroke-linecap:round;stroke-linejoin:miter;stroke:rgb(0%,0%,0%);stroke-opacity:1;stroke-miterlimit:10;" d="M 3.957073 1.938426 L 3.957073 0.0880024 " transform="matrix(72,0,0,-72,13.122,151.6018)"/>
<path style="fill:none;stroke-width:0.01;stroke-linecap:round;stroke-linejoin:miter;stroke:rgb(0%,0%,0%);stroke-opacity:1;stroke-miterlimit:10;" d="M 3.957073 0.0880024 L 0.0201155 0.0880024 " transform="matrix(72,0,0,-72,13.122,151.6018)"/>
<path style="fill:none;stroke-width:0.032;stroke-linecap:round;stroke-linejoin:miter;stroke:rgb(0%,0%,0%);stroke-opacity:1;stroke-miterlimit:10;" d="M 0.3726 0.0505133 L 0.372817 0.0525207 " transform="matrix(72,0,0,-72,13.122,151.6018)"/>
<path style="fill:none;stroke-width:0.032;stroke-linecap:round;stroke-linejoin:miter;stroke:rgb(0%,0%,0%);stroke-opacity:1;stroke-miterlimit:10;" d="M 0.372817 0.0525207 L 0.373414 0.054311 " transform="matrix(72,0,0,-72,13.122,151.6018)"/>
<path style="fill:none;stroke-width:0.032;stroke-linecap:round;stroke-linejoin:miter;stroke:rgb(0%,0%,0%);stroke-opacity:1;stroke-miterlimit:10;" d="M 0.373414 0.054311 L 0.374282 0.0561014 " transform="matrix(72,0,0,-72,13.122,151.6018)"/>
<path style="fill:none;stroke-width:0.032;stroke-linecap:round;stroke-linejoin:miter;stroke:rgb(0%,0%,0%);stroke-opacity:1;stroke-miterlimit:10;" d="M 0.374282 0.0561014 L 0.375476 0.0576205 " transform="matrix(72,0,0,-72,13.122,151.6018)"/>
<path style="fill:none;stroke-width:0.032;stroke-linecap:round;stroke-linejoin:miter;stroke:rgb(0%,0%,0%);stroke-opacity:1;stroke-miterlimit:10;" d="M 0.375476 0.0576205 L 0.376995 0.0588141 " transform="matrix(72,0,0,-72,13.122,151.6018)"/>
<path style="fill:none;stroke-width:0.032;stroke-linecap:round;stroke-linejoin:miter;stroke:rgb(0%,0%,0%);stroke-opacity:1;stroke-miterlimit:10;" d="M 0.376995 0.0588141 L 0.378785 0.0596821 " transform="matrix(72,0,0,-72,13.122,151.6018)"/>
<path style="fill:none;stroke-width:0.032;stroke-linecap:round;stroke-linejoin:miter;stroke:rgb(0%,0%,0%);stroke-opacity:1;stroke-miterlimit:10;" d="M 0.378785 0.0596821 L 0.380576 0.0602789 " transform="matrix(72,0,0,-72,13.122,151.6018)"/>
<path style="fill:none;stroke-width:0.032;stroke-linecap:round;stroke-linejoin:miter;stroke:rgb(0%,0%,0%);stroke-opacity:1;stroke-miterlimit:10;" d="M 0.380576 0.0602789 L 0.382583 0.0604959 " transform="matrix(72,0,0,-72,13.122,151.6018)"/>
<path style="fill:none;stroke-width:0.032;stroke-linecap:round;stroke-linejoin:miter;stroke:rgb(0%,0%,0%);stroke-opacity:1;stroke-miterlimit:10;" d="M 0.382583 0.0604959 L 0.38459 0.0602789 " transform="matrix(72,0,0,-72,13.122,151.6018)"/>
<path style="fill:none;stroke-width:0.032;stroke-linecap:round;stroke-linejoin:miter;stroke:rgb(0%,0%,0%);stroke-opacity:1;stroke-miterlimit:10;" d="M 0.38459 0.0602789 L 0.386381 0.0596821 " transform="matrix(72,0,0,-72,13.122,151.6018)"/>
<path style="fill:none;stroke-width:0.032;stroke-linecap:round;stroke-linejoin:miter;stroke:rgb(0%,0%,0%);stroke-opacity:1;stroke-miterlimit:10;" d="M 0.386381 0.0596821 L 0.388225 0.0588141 " transform="matrix(72,0,0,-72,13.122,151.6018)"/>
<path style="fill:none;stroke-width:0.032;stroke-linecap:round;stroke-linejoin:miter;stroke:rgb(0%,0%,0%);stroke-opacity:1;stroke-miterlimit:10;" d="M 0.388225 0.0588141 L 0.38969 0.0576205 " transform="matrix(72,0,0,-72,13.122,151.6018)"/>
<path style="fill:none;stroke-width:0.032;stroke-linecap:round;stroke-linejoin:miter;stroke:rgb(0%,0%,0%);stroke-opacity:1;stroke-miterlimit:10;" d="M 0.38969 0.0576205 L 0.390884 0.0561014 " transform="matrix(72,0,0,-72,13.122,151.6018)"/>
<path style="fill:none;stroke-width:0.032;stroke-linecap:round;stroke-linejoin:miter;stroke:rgb(0%,0%,0%);stroke-opacity:1;stroke-miterlimit:10;" d="M 0.390884 0.0561014 L 0.391806 0.054311 " transform="matrix(72,0,0,-72,13.122,151.6018)"/>
<path style="fill:none;stroke-width:0.032;stroke-linecap:round;stroke-linejoin:miter;stroke:rgb(0%,0%,0%);stroke-opacity:1;stroke-miterlimit:10;" d="M 0.391806 0.054311 L 0.392403 0.0525207 " transform="matrix(72,0,0,-72,13.122,151.6018)"/>
<path style="fill:none;stroke-width:0.032;stroke-linecap:round;stroke-linejoin:miter;stroke:rgb(0%,0%,0%);stroke-opacity:1;stroke-miterlimit:10;" d="M 0.392403 0.0525207 L 0.39262 0.0505133 " transform="matrix(72,0,0,-72,13.122,151.6018)"/>
<path style="fill:none;stroke-width:0.032;stroke-linecap:round;stroke-linejoin:miter;stroke:rgb(0%,0%,0%);stroke-opacity:1;stroke-miterlimit:10;" d="M 0.39262 0.0505133 L 0.392403 0.0485059 " transform="matrix(72,0,0,-72,13.122,151.6018)"/>
<path style="fill:none;stroke-width:0.032;stroke-linecap:round;stroke-linejoin:miter;stroke:rgb(0%,0%,0%);stroke-opacity:1;stroke-miterlimit:10;" d="M 0.392403 0.0485059 L 0.391806 0.0467155 " transform="matrix(72,0,0,-72,13.122,151.6018)"/>
<path style="fill:none;stroke-width:0.032;stroke-linecap:round;stroke-linejoin:miter;stroke:rgb(0%,0%,0%);stroke-opacity:1;stroke-miterlimit:10;" d="M 0.391806 0.0467155 L 0.390884 0.0449252 " transform="matrix(72,0,0,-72,13.122,151.6018)"/>
<path style="fill:none;stroke-width:0.032;stroke-linecap:round;stroke-linejoin:miter;stroke:rgb(0%,0%,0%);stroke-opacity:1;stroke-miterlimit:10;" d="M 0.390884 0.0449252 L 0.38969 0.0434061 " transform="matrix(72,0,0,-72,13.122,151.6018)"/>
<path style="fill:none;stroke-width:0.032;stroke-linecap:round;stroke-linejoin:miter;stroke:rgb(0%,0%,0%);stroke-opacity:1;stroke-miterlimit:10;" d="M 0.38969 0.0434061 L 0.388225 0.0422125 " transform="matrix(72,0,0,-72,13.122,151.6018)"/>
<path style="fill:none;stroke-width:0.032;stroke-linecap:round;stroke-linejoin:miter;stroke:rgb(0%,0%,0%);stroke-opacity:1;stroke-miterlimit:10;" d="M 0.388225 0.0422125 L 0.386381 0.0412902 " transform="matrix(72,0,0,-72,13.122,151.6018)"/>
<path style="fill:none;stroke-width:0.032;stroke-linecap:round;stroke-linejoin:miter;stroke:rgb(0%,0%,0%);stroke-opacity:1;stroke-miterlimit:10;" d="M 0.386381 0.0412902 L 0.38459 0.0406934 " transform="matrix(72,0,0,-72,13.122,151.6018)"/>
<path style="fill:none;stroke-width:0.032;stroke-linecap:round;stroke-linejoin:miter;stroke:rgb(0%,0%,0%);stroke-opacity:1;stroke-miterlimit:10;" d="M 0.38459 0.0406934 L 0.382583 0.0404764 " transform="matrix(72,0,0,-72,13.122,151.6018)"/>
<path style="fill:none;stroke-width:0.032;stroke-linecap:round;stroke-linejoin:miter;stroke:rgb(0%,0%,0%);stroke-opacity:1;stroke-miterlimit:10;" d="M 0.382583 0.0404764 L 0.380576 0.0406934 " transform="matrix(72,0,0,-72,13.122,151.6018)"/>
<path style="fill:none;stroke-width:0.032;stroke-linecap:round;stroke-linejoin:miter;stroke:rgb(0%,0%,0%);stroke-opacity:1;stroke-miterlimit:10;" d="M 0.380576 0.0406934 L 0.378785 0.0412902 " transform="matrix(72,0,0,-72,13.122,151.6018)"/>
<path style="fill:none;stroke-width:0.032;stroke-linecap:round;stroke-linejoin:miter;stroke:rgb(0%,0%,0%);stroke-opacity:1;stroke-miterlimit:10;" d="M 0.378785 0.0412902 L 0.376995 0.0422125 " transform="matrix(72,0,0,-72,13.122,151.6018)"/>
<path style="fill:none;stroke-width:0.032;stroke-linecap:round;stroke-linejoin:miter;stroke:rgb(0%,0%,0%);stroke-opacity:1;stroke-miterlimit:10;" d="M 0.376995 0.0422125 L 0.375476 0.0434061 " transform="matrix(72,0,0,-72,13.122,151.6018)"/>
<path style="fill:none;stroke-width:0.032;stroke-linecap:round;stroke-linejoin:miter;stroke:rgb(0%,0%,0%);stroke-opacity:1;stroke-miterlimit:10;" d="M 0.375476 0.0434061 L 0.374282 0.0449252 " transform="matrix(72,0,0,-72,13.122,151.6018)"/>
<path style="fill:none;stroke-width:0.032;stroke-linecap:round;stroke-linejoin:miter;stroke:rgb(0%,0%,0%);stroke-opacity:1;stroke-miterlimit:10;" d="M 0.374282 0.0449252 L 0.373414 0.0467155 " transform="matrix(72,0,0,-72,13.122,151.6018)"/>
<path style="fill:none;stroke-width:0.032;stroke-linecap:round;stroke-linejoin:miter;stroke:rgb(0%,0%,0%);stroke-opacity:1;stroke-miterlimit:10;" d="M 0.373414 0.0467155 L 0.372817 0.0485059 " transform="matrix(72,0,0,-72,13.122,151.6018)"/>
<path style="fill:none;stroke-width:0.032;stroke-linecap:round;stroke-linejoin:miter;stroke:rgb(0%,0%,0%);stroke-opacity:1;stroke-miterlimit:10;" d="M 0.372817 0.0485059 L 0.3726 0.0505133 " transform="matrix(72,0,0,-72,13.122,151.6018)"/>
<path style="fill:none;stroke-width:0.032;stroke-linecap:round;stroke-linejoin:miter;stroke:rgb(0%,0%,0%);stroke-opacity:1;stroke-miterlimit:10;" d="M 3.885079 0.0505133 L 3.885296 0.0525207 " transform="matrix(72,0,0,-72,13.122,151.6018)"/>
<path style="fill:none;stroke-width:0.032;stroke-linecap:round;stroke-linejoin:miter;stroke:rgb(0%,0%,0%);stroke-opacity:1;stroke-miterlimit:10;" d="M 3.885296 0.0525207 L 3.885892 0.054311 " transform="matrix(72,0,0,-72,13.122,151.6018)"/>
<path style="fill:none;stroke-width:0.032;stroke-linecap:round;stroke-linejoin:miter;stroke:rgb(0%,0%,0%);stroke-opacity:1;stroke-miterlimit:10;" d="M 3.885892 0.054311 L 3.886815 0.0561014 " transform="matrix(72,0,0,-72,13.122,151.6018)"/>
<path style="fill:none;stroke-width:0.032;stroke-linecap:round;stroke-linejoin:miter;stroke:rgb(0%,0%,0%);stroke-opacity:1;stroke-miterlimit:10;" d="M 3.886815 0.0561014 L 3.888008 0.0576205 " transform="matrix(72,0,0,-72,13.122,151.6018)"/>
<path style="fill:none;stroke-width:0.032;stroke-linecap:round;stroke-linejoin:miter;stroke:rgb(0%,0%,0%);stroke-opacity:1;stroke-miterlimit:10;" d="M 3.888008 0.0576205 L 3.889473 0.0588141 " transform="matrix(72,0,0,-72,13.122,151.6018)"/>
<path style="fill:none;stroke-width:0.032;stroke-linecap:round;stroke-linejoin:miter;stroke:rgb(0%,0%,0%);stroke-opacity:1;stroke-miterlimit:10;" d="M 3.889473 0.0588141 L 3.891318 0.0596821 " transform="matrix(72,0,0,-72,13.122,151.6018)"/>
<path style="fill:none;stroke-width:0.032;stroke-linecap:round;stroke-linejoin:miter;stroke:rgb(0%,0%,0%);stroke-opacity:1;stroke-miterlimit:10;" d="M 3.891318 0.0596821 L 3.893108 0.0602789 " transform="matrix(72,0,0,-72,13.122,151.6018)"/>
<path style="fill:none;stroke-width:0.032;stroke-linecap:round;stroke-linejoin:miter;stroke:rgb(0%,0%,0%);stroke-opacity:1;stroke-miterlimit:10;" d="M 3.893108 0.0602789 L 3.895115 0.0604959 " transform="matrix(72,0,0,-72,13.122,151.6018)"/>
<path style="fill:none;stroke-width:0.032;stroke-linecap:round;stroke-linejoin:miter;stroke:rgb(0%,0%,0%);stroke-opacity:1;stroke-miterlimit:10;" d="M 3.895115 0.0604959 L 3.897123 0.0602789 " transform="matrix(72,0,0,-72,13.122,151.6018)"/>
<path style="fill:none;stroke-width:0.032;stroke-linecap:round;stroke-linejoin:miter;stroke:rgb(0%,0%,0%);stroke-opacity:1;stroke-miterlimit:10;" d="M 3.897123 0.0602789 L 3.898913 0.0596821 " transform="matrix(72,0,0,-72,13.122,151.6018)"/>
<path style="fill:none;stroke-width:0.032;stroke-linecap:round;stroke-linejoin:miter;stroke:rgb(0%,0%,0%);stroke-opacity:1;stroke-miterlimit:10;" d="M 3.898913 0.0596821 L 3.900704 0.0588141 " transform="matrix(72,0,0,-72,13.122,151.6018)"/>
<path style="fill:none;stroke-width:0.032;stroke-linecap:round;stroke-linejoin:miter;stroke:rgb(0%,0%,0%);stroke-opacity:1;stroke-miterlimit:10;" d="M 3.900704 0.0588141 L 3.902223 0.0576205 " transform="matrix(72,0,0,-72,13.122,151.6018)"/>
<path style="fill:none;stroke-width:0.032;stroke-linecap:round;stroke-linejoin:miter;stroke:rgb(0%,0%,0%);stroke-opacity:1;stroke-miterlimit:10;" d="M 3.902223 0.0576205 L 3.903416 0.0561014 " transform="matrix(72,0,0,-72,13.122,151.6018)"/>
<path style="fill:none;stroke-width:0.032;stroke-linecap:round;stroke-linejoin:miter;stroke:rgb(0%,0%,0%);stroke-opacity:1;stroke-miterlimit:10;" d="M 3.903416 0.0561014 L 3.904284 0.054311 " transform="matrix(72,0,0,-72,13.122,151.6018)"/>
<path style="fill:none;stroke-width:0.032;stroke-linecap:round;stroke-linejoin:miter;stroke:rgb(0%,0%,0%);stroke-opacity:1;stroke-miterlimit:10;" d="M 3.904284 0.054311 L 3.904881 0.0525207 " transform="matrix(72,0,0,-72,13.122,151.6018)"/>
<path style="fill:none;stroke-width:0.032;stroke-linecap:round;stroke-linejoin:miter;stroke:rgb(0%,0%,0%);stroke-opacity:1;stroke-miterlimit:10;" d="M 3.904881 0.0525207 L 3.905098 0.0505133 " transform="matrix(72,0,0,-72,13.122,151.6018)"/>
<path style="fill:none;stroke-width:0.032;stroke-linecap:round;stroke-linejoin:miter;stroke:rgb(0%,0%,0%);stroke-opacity:1;stroke-miterlimit:10;" d="M 3.905098 0.0505133 L 3.904881 0.0485059 " transform="matrix(72,0,0,-72,13.122,151.6018)"/>
<path style="fill:none;stroke-width:0.032;stroke-linecap:round;stroke-linejoin:miter;stroke:rgb(0%,0%,0%);stroke-opacity:1;stroke-miterlimit:10;" d="M 3.904881 0.0485059 L 3.904284 0.0467155 " transform="matrix(72,0,0,-72,13.122,151.6018)"/>
<path style="fill:none;stroke-width:0.032;stroke-linecap:round;stroke-linejoin:miter;stroke:rgb(0%,0%,0%);stroke-opacity:1;stroke-miterlimit:10;" d="M 3.904284 0.0467155 L 3.903416 0.0449252 " transform="matrix(72,0,0,-72,13.122,151.6018)"/>
<path style="fill:none;stroke-width:0.032;stroke-linecap:round;stroke-linejoin:miter;stroke:rgb(0%,0%,0%);stroke-opacity:1;stroke-miterlimit:10;" d="M 3.903416 0.0449252 L 3.902223 0.0434061 " transform="matrix(72,0,0,-72,13.122,151.6018)"/>
<path style="fill:none;stroke-width:0.032;stroke-linecap:round;stroke-linejoin:miter;stroke:rgb(0%,0%,0%);stroke-opacity:1;stroke-miterlimit:10;" d="M 3.902223 0.0434061 L 3.900704 0.0422125 " transform="matrix(72,0,0,-72,13.122,151.6018)"/>
<path style="fill:none;stroke-width:0.032;stroke-linecap:round;stroke-linejoin:miter;stroke:rgb(0%,0%,0%);stroke-opacity:1;stroke-miterlimit:10;" d="M 3.900704 0.0422125 L 3.898913 0.0412902 " transform="matrix(72,0,0,-72,13.122,151.6018)"/>
<path style="fill:none;stroke-width:0.032;stroke-linecap:round;stroke-linejoin:miter;stroke:rgb(0%,0%,0%);stroke-opacity:1;stroke-miterlimit:10;" d="M 3.898913 0.0412902 L 3.897123 0.0406934 " transform="matrix(72,0,0,-72,13.122,151.6018)"/>
<path style="fill:none;stroke-width:0.032;stroke-linecap:round;stroke-linejoin:miter;stroke:rgb(0%,0%,0%);stroke-opacity:1;stroke-miterlimit:10;" d="M 3.897123 0.0406934 L 3.895115 0.0404764 " transform="matrix(72,0,0,-72,13.122,151.6018)"/>
<path style="fill:none;stroke-width:0.032;stroke-linecap:round;stroke-linejoin:miter;stroke:rgb(0%,0%,0%);stroke-opacity:1;stroke-miterlimit:10;" d="M 3.895115 0.0404764 L 3.893108 0.0406934 " transform="matrix(72,0,0,-72,13.122,151.6018)"/>
<path style="fill:none;stroke-width:0.032;stroke-linecap:round;stroke-linejoin:miter;stroke:rgb(0%,0%,0%);stroke-opacity:1;stroke-miterlimit:10;" d="M 3.893108 0.0406934 L 3.891318 0.0412902 " transform="matrix(72,0,0,-72,13.122,151.6018)"/>
<path style="fill:none;stroke-width:0.032;stroke-linecap:round;stroke-linejoin:miter;stroke:rgb(0%,0%,0%);stroke-opacity:1;stroke-miterlimit:10;" d="M 3.891318 0.0412902 L 3.889473 0.0422125 " transform="matrix(72,0,0,-72,13.122,151.6018)"/>
<path style="fill:none;stroke-width:0.032;stroke-linecap:round;stroke-linejoin:miter;stroke:rgb(0%,0%,0%);stroke-opacity:1;stroke-miterlimit:10;" d="M 3.889473 0.0422125 L 3.888008 0.0434061 " transform="matrix(72,0,0,-72,13.122,151.6018)"/>
<path style="fill:none;stroke-width:0.032;stroke-linecap:round;stroke-linejoin:miter;stroke:rgb(0%,0%,0%);stroke-opacity:1;stroke-miterlimit:10;" d="M 3.888008 0.0434061 L 3.886815 0.0449252 " transform="matrix(72,0,0,-72,13.122,151.6018)"/>
<path style="fill:none;stroke-width:0.032;stroke-linecap:round;stroke-linejoin:miter;stroke:rgb(0%,0%,0%);stroke-opacity:1;stroke-miterlimit:10;" d="M 3.886815 0.0449252 L 3.885892 0.0467155 " transform="matrix(72,0,0,-72,13.122,151.6018)"/>
<path style="fill:none;stroke-width:0.032;stroke-linecap:round;stroke-linejoin:miter;stroke:rgb(0%,0%,0%);stroke-opacity:1;stroke-miterlimit:10;" d="M 3.885892 0.0467155 L 3.885296 0.0485059 " transform="matrix(72,0,0,-72,13.122,151.6018)"/>
<path style="fill:none;stroke-width:0.032;stroke-linecap:round;stroke-linejoin:miter;stroke:rgb(0%,0%,0%);stroke-opacity:1;stroke-miterlimit:10;" d="M 3.885296 0.0485059 L 3.885079 0.0505133 " transform="matrix(72,0,0,-72,13.122,151.6018)"/>
<path style="fill:none;stroke-width:0.032;stroke-linecap:round;stroke-linejoin:miter;stroke:rgb(0%,0%,0%);stroke-opacity:1;stroke-miterlimit:10;" d="M 1.0601 1.988013 L 1.060317 1.990021 " transform="matrix(72,0,0,-72,13.122,151.6018)"/>
<path style="fill:none;stroke-width:0.032;stroke-linecap:round;stroke-linejoin:miter;stroke:rgb(0%,0%,0%);stroke-opacity:1;stroke-miterlimit:10;" d="M 1.060317 1.990021 L 1.060914 1.991811 " transform="matrix(72,0,0,-72,13.122,151.6018)"/>
<path style="fill:none;stroke-width:0.032;stroke-linecap:round;stroke-linejoin:miter;stroke:rgb(0%,0%,0%);stroke-opacity:1;stroke-miterlimit:10;" d="M 1.060914 1.991811 L 1.061782 1.993601 " transform="matrix(72,0,0,-72,13.122,151.6018)"/>
<path style="fill:none;stroke-width:0.032;stroke-linecap:round;stroke-linejoin:miter;stroke:rgb(0%,0%,0%);stroke-opacity:1;stroke-miterlimit:10;" d="M 1.061782 1.993601 L 1.062976 1.99512 " transform="matrix(72,0,0,-72,13.122,151.6018)"/>
<path style="fill:none;stroke-width:0.032;stroke-linecap:round;stroke-linejoin:miter;stroke:rgb(0%,0%,0%);stroke-opacity:1;stroke-miterlimit:10;" d="M 1.062976 1.99512 L 1.064495 1.996314 " transform="matrix(72,0,0,-72,13.122,151.6018)"/>
<path style="fill:none;stroke-width:0.032;stroke-linecap:round;stroke-linejoin:miter;stroke:rgb(0%,0%,0%);stroke-opacity:1;stroke-miterlimit:10;" d="M 1.064495 1.996314 L 1.066285 1.997182 " transform="matrix(72,0,0,-72,13.122,151.6018)"/>
<path style="fill:none;stroke-width:0.032;stroke-linecap:round;stroke-linejoin:miter;stroke:rgb(0%,0%,0%);stroke-opacity:1;stroke-miterlimit:10;" d="M 1.066285 1.997182 L 1.068076 1.997779 " transform="matrix(72,0,0,-72,13.122,151.6018)"/>
<path style="fill:none;stroke-width:0.032;stroke-linecap:round;stroke-linejoin:miter;stroke:rgb(0%,0%,0%);stroke-opacity:1;stroke-miterlimit:10;" d="M 1.068076 1.997779 L 1.070083 1.997996 " transform="matrix(72,0,0,-72,13.122,151.6018)"/>
<path style="fill:none;stroke-width:0.032;stroke-linecap:round;stroke-linejoin:miter;stroke:rgb(0%,0%,0%);stroke-opacity:1;stroke-miterlimit:10;" d="M 1.070083 1.997996 L 1.07209 1.997779 " transform="matrix(72,0,0,-72,13.122,151.6018)"/>
<path style="fill:none;stroke-width:0.032;stroke-linecap:round;stroke-linejoin:miter;stroke:rgb(0%,0%,0%);stroke-opacity:1;stroke-miterlimit:10;" d="M 1.07209 1.997779 L 1.073881 1.997182 " transform="matrix(72,0,0,-72,13.122,151.6018)"/>
<path style="fill:none;stroke-width:0.032;stroke-linecap:round;stroke-linejoin:miter;stroke:rgb(0%,0%,0%);stroke-opacity:1;stroke-miterlimit:10;" d="M 1.073881 1.997182 L 1.075725 1.996314 " transform="matrix(72,0,0,-72,13.122,151.6018)"/>
<path style="fill:none;stroke-width:0.032;stroke-linecap:round;stroke-linejoin:miter;stroke:rgb(0%,0%,0%);stroke-opacity:1;stroke-miterlimit:10;" d="M 1.075725 1.996314 L 1.07719 1.99512 " transform="matrix(72,0,0,-72,13.122,151.6018)"/>
<path style="fill:none;stroke-width:0.032;stroke-linecap:round;stroke-linejoin:miter;stroke:rgb(0%,0%,0%);stroke-opacity:1;stroke-miterlimit:10;" d="M 1.07719 1.99512 L 1.078384 1.993601 " transform="matrix(72,0,0,-72,13.122,151.6018)"/>
<path style="fill:none;stroke-width:0.032;stroke-linecap:round;stroke-linejoin:miter;stroke:rgb(0%,0%,0%);stroke-opacity:1;stroke-miterlimit:10;" d="M 1.078384 1.993601 L 1.079306 1.991811 " transform="matrix(72,0,0,-72,13.122,151.6018)"/>
<path style="fill:none;stroke-width:0.032;stroke-linecap:round;stroke-linejoin:miter;stroke:rgb(0%,0%,0%);stroke-opacity:1;stroke-miterlimit:10;" d="M 1.079306 1.991811 L 1.079903 1.990021 " transform="matrix(72,0,0,-72,13.122,151.6018)"/>
<path style="fill:none;stroke-width:0.032;stroke-linecap:round;stroke-linejoin:miter;stroke:rgb(0%,0%,0%);stroke-opacity:1;stroke-miterlimit:10;" d="M 1.079903 1.990021 L 1.08012 1.988013 " transform="matrix(72,0,0,-72,13.122,151.6018)"/>
<path style="fill:none;stroke-width:0.032;stroke-linecap:round;stroke-linejoin:miter;stroke:rgb(0%,0%,0%);stroke-opacity:1;stroke-miterlimit:10;" d="M 1.08012 1.988013 L 1.079903 1.986006 " transform="matrix(72,0,0,-72,13.122,151.6018)"/>
<path style="fill:none;stroke-width:0.032;stroke-linecap:round;stroke-linejoin:miter;stroke:rgb(0%,0%,0%);stroke-opacity:1;stroke-miterlimit:10;" d="M 1.079903 1.986006 L 1.079306 1.984216 " transform="matrix(72,0,0,-72,13.122,151.6018)"/>
<path style="fill:none;stroke-width:0.032;stroke-linecap:round;stroke-linejoin:miter;stroke:rgb(0%,0%,0%);stroke-opacity:1;stroke-miterlimit:10;" d="M 1.079306 1.984216 L 1.078384 1.982425 " transform="matrix(72,0,0,-72,13.122,151.6018)"/>
<path style="fill:none;stroke-width:0.032;stroke-linecap:round;stroke-linejoin:miter;stroke:rgb(0%,0%,0%);stroke-opacity:1;stroke-miterlimit:10;" d="M 1.078384 1.982425 L 1.07719 1.980906 " transform="matrix(72,0,0,-72,13.122,151.6018)"/>
<path style="fill:none;stroke-width:0.032;stroke-linecap:round;stroke-linejoin:miter;stroke:rgb(0%,0%,0%);stroke-opacity:1;stroke-miterlimit:10;" d="M 1.07719 1.980906 L 1.075725 1.979712 " transform="matrix(72,0,0,-72,13.122,151.6018)"/>
<path style="fill:none;stroke-width:0.032;stroke-linecap:round;stroke-linejoin:miter;stroke:rgb(0%,0%,0%);stroke-opacity:1;stroke-miterlimit:10;" d="M 1.075725 1.979712 L 1.073881 1.97879 " transform="matrix(72,0,0,-72,13.122,151.6018)"/>
<path style="fill:none;stroke-width:0.032;stroke-linecap:round;stroke-linejoin:miter;stroke:rgb(0%,0%,0%);stroke-opacity:1;stroke-miterlimit:10;" d="M 1.073881 1.97879 L 1.07209 1.978193 " transform="matrix(72,0,0,-72,13.122,151.6018)"/>
<path style="fill:none;stroke-width:0.032;stroke-linecap:round;stroke-linejoin:miter;stroke:rgb(0%,0%,0%);stroke-opacity:1;stroke-miterlimit:10;" d="M 1.07209 1.978193 L 1.070083 1.977976 " transform="matrix(72,0,0,-72,13.122,151.6018)"/>
<path style="fill:none;stroke-width:0.032;stroke-linecap:round;stroke-linejoin:miter;stroke:rgb(0%,0%,0%);stroke-opacity:1;stroke-miterlimit:10;" d="M 1.070083 1.977976 L 1.068076 1.978193 " transform="matrix(72,0,0,-72,13.122,151.6018)"/>
<path style="fill:none;stroke-width:0.032;stroke-linecap:round;stroke-linejoin:miter;stroke:rgb(0%,0%,0%);stroke-opacity:1;stroke-miterlimit:10;" d="M 1.068076 1.978193 L 1.066285 1.97879 " transform="matrix(72,0,0,-72,13.122,151.6018)"/>
<path style="fill:none;stroke-width:0.032;stroke-linecap:round;stroke-linejoin:miter;stroke:rgb(0%,0%,0%);stroke-opacity:1;stroke-miterlimit:10;" d="M 1.066285 1.97879 L 1.064495 1.979712 " transform="matrix(72,0,0,-72,13.122,151.6018)"/>
<path style="fill:none;stroke-width:0.032;stroke-linecap:round;stroke-linejoin:miter;stroke:rgb(0%,0%,0%);stroke-opacity:1;stroke-miterlimit:10;" d="M 1.064495 1.979712 L 1.062976 1.980906 " transform="matrix(72,0,0,-72,13.122,151.6018)"/>
<path style="fill:none;stroke-width:0.032;stroke-linecap:round;stroke-linejoin:miter;stroke:rgb(0%,0%,0%);stroke-opacity:1;stroke-miterlimit:10;" d="M 1.062976 1.980906 L 1.061782 1.982425 " transform="matrix(72,0,0,-72,13.122,151.6018)"/>
<path style="fill:none;stroke-width:0.032;stroke-linecap:round;stroke-linejoin:miter;stroke:rgb(0%,0%,0%);stroke-opacity:1;stroke-miterlimit:10;" d="M 1.061782 1.982425 L 1.060914 1.984216 " transform="matrix(72,0,0,-72,13.122,151.6018)"/>
<path style="fill:none;stroke-width:0.032;stroke-linecap:round;stroke-linejoin:miter;stroke:rgb(0%,0%,0%);stroke-opacity:1;stroke-miterlimit:10;" d="M 1.060914 1.984216 L 1.060317 1.986006 " transform="matrix(72,0,0,-72,13.122,151.6018)"/>
<path style="fill:none;stroke-width:0.032;stroke-linecap:round;stroke-linejoin:miter;stroke:rgb(0%,0%,0%);stroke-opacity:1;stroke-miterlimit:10;" d="M 1.060317 1.986006 L 1.0601 1.988013 " transform="matrix(72,0,0,-72,13.122,151.6018)"/>
<path style=" stroke:none;fill-rule:evenodd;fill:rgb(0%,0%,0%);fill-opacity:1;" d="M 41.808594 147.964844 C 41.808594 146.449219 39.53125 146.449219 39.53125 147.964844 C 39.53125 149.484375 41.808594 149.484375 41.808594 147.964844 "/>
<path style=" stroke:none;fill-rule:evenodd;fill:rgb(0%,0%,0%);fill-opacity:1;" d="M 294.707031 147.964844 C 294.707031 146.449219 292.429688 146.449219 292.429688 147.964844 C 292.429688 149.484375 294.707031 149.484375 294.707031 147.964844 "/>
<path style=" stroke:none;fill-rule:evenodd;fill:rgb(0%,0%,0%);fill-opacity:1;" d="M 91.308594 8.464844 C 91.308594 6.949219 89.03125 6.949219 89.03125 8.464844 C 89.03125 9.984375 91.308594 9.984375 91.308594 8.464844 "/>
<path style=" stroke:none;fill-rule:evenodd;fill:rgb(0%,0%,0%);fill-opacity:1;" d="M 21.773438 110.164062 L 46.074219 110.164062 L 46.074219 102.964844 L 21.773438 102.964844 Z M 21.773438 110.164062 "/>
<path style=" stroke:none;fill-rule:evenodd;fill:rgb(0%,0%,0%);fill-opacity:1;" d="M 129.742188 58.628906 L 132.585938 58.628906 L 132.585938 55.503906 L 129.742188 55.503906 Z M 129.742188 58.628906 "/>
<path style=" stroke:none;fill-rule:evenodd;fill:rgb(0%,0%,0%);fill-opacity:1;" d="M 135.128906 58.628906 L 137.972656 58.628906 L 137.972656 55.503906 L 135.128906 55.503906 Z M 135.128906 58.628906 "/>
<path style=" stroke:none;fill-rule:evenodd;fill:rgb(0%,0%,0%);fill-opacity:1;" d="M 132.4375 64.292969 L 135.28125 64.292969 L 135.28125 61.167969 L 132.4375 61.167969 Z M 132.4375 64.292969 "/>
<path style=" stroke:none;fill-rule:evenodd;fill:rgb(0%,0%,0%);fill-opacity:1;" d="M 148.644531 58.628906 L 151.488281 58.628906 L 151.488281 55.503906 L 148.644531 55.503906 Z M 148.644531 58.628906 "/>
<path style=" stroke:none;fill-rule:evenodd;fill:rgb(0%,0%,0%);fill-opacity:1;" d="M 154.03125 58.628906 L 156.875 58.628906 L 156.875 55.503906 L 154.03125 55.503906 Z M 154.03125 58.628906 "/>
<path style=" stroke:none;fill-rule:evenodd;fill:rgb(0%,0%,0%);fill-opacity:1;" d="M 159.445312 58.628906 L 162.289062 58.628906 L 162.289062 55.503906 L 159.445312 55.503906 Z M 159.445312 58.628906 "/>
<path style=" stroke:none;fill-rule:evenodd;fill:rgb(0%,0%,0%);fill-opacity:1;" d="M 164.828125 58.628906 L 167.671875 58.628906 L 167.671875 55.503906 L 164.828125 55.503906 Z M 164.828125 58.628906 "/>
<path style=" stroke:none;fill-rule:evenodd;fill:rgb(0%,0%,0%);fill-opacity:1;" d="M 162.136719 64.292969 L 164.980469 64.292969 L 164.980469 61.167969 L 162.136719 61.167969 Z M 162.136719 64.292969 "/>
<path style=" stroke:none;fill-rule:evenodd;fill:rgb(0%,0%,0%);fill-opacity:1;" d="M 151.335938 64.292969 L 154.179688 64.292969 L 154.179688 61.167969 L 151.335938 61.167969 Z M 151.335938 64.292969 "/>
<path style=" stroke:none;fill-rule:evenodd;fill:rgb(0%,0%,0%);fill-opacity:1;" d="M 174.738281 106.960938 L 177.582031 106.960938 L 177.582031 103.835938 L 174.738281 103.835938 Z M 174.738281 106.960938 "/>
<path style=" stroke:none;fill-rule:evenodd;fill:rgb(0%,0%,0%);fill-opacity:1;" d="M 177.429688 112.628906 L 180.273438 112.628906 L 180.273438 109.503906 L 177.429688 109.503906 Z M 177.429688 112.628906 "/>
<path style=" stroke:none;fill-rule:evenodd;fill:rgb(0%,0%,0%);fill-opacity:1;" d="M 172.042969 112.628906 L 174.886719 112.628906 L 174.886719 109.503906 L 172.042969 109.503906 Z M 172.042969 112.628906 "/>
<path style="fill:none;stroke-width:0.084;stroke-linecap:round;stroke-linejoin:miter;stroke:rgb(0%,0%,0%);stroke-opacity:1;stroke-miterlimit:10;" d="M 2.176908 0.687503 L 2.176908 0.763512 " transform="matrix(72,0,0,-72,13.122,151.6018)"/>
<path style="fill:none;stroke-width:0.084;stroke-linecap:round;stroke-linejoin:miter;stroke:rgb(0%,0%,0%);stroke-opacity:1;stroke-miterlimit:10;" d="M 2.076919 0.763512 L 2.076919 0.687503 " transform="matrix(72,0,0,-72,13.122,151.6018)"/>
<path style="fill:none;stroke-width:0.084;stroke-linecap:round;stroke-linejoin:miter;stroke:rgb(0%,0%,0%);stroke-opacity:1;stroke-miterlimit:10;" d="M 1.976875 0.687503 L 1.976875 0.763512 " transform="matrix(72,0,0,-72,13.122,151.6018)"/>
<path style="fill:none;stroke-width:0.084;stroke-linecap:round;stroke-linejoin:miter;stroke:rgb(0%,0%,0%);stroke-opacity:1;stroke-miterlimit:10;" d="M 1.876886 0.763512 L 1.876886 0.687503 " transform="matrix(72,0,0,-72,13.122,151.6018)"/>
<path style="fill:none;stroke-width:0.084;stroke-linecap:round;stroke-linejoin:miter;stroke:rgb(0%,0%,0%);stroke-opacity:1;stroke-miterlimit:10;" d="M 1.776897 0.687503 L 1.776897 0.763512 " transform="matrix(72,0,0,-72,13.122,151.6018)"/>
<path style="fill:none;stroke-width:0.084;stroke-linecap:round;stroke-linejoin:miter;stroke:rgb(0%,0%,0%);stroke-opacity:1;stroke-miterlimit:10;" d="M 1.676908 0.763512 L 1.676908 0.687503 " transform="matrix(72,0,0,-72,13.122,151.6018)"/>
<path style="fill:none;stroke-width:0.084;stroke-linecap:round;stroke-linejoin:miter;stroke:rgb(0%,0%,0%);stroke-opacity:1;stroke-miterlimit:10;" d="M 1.676908 1.087514 L 1.676908 1.163523 " transform="matrix(72,0,0,-72,13.122,151.6018)"/>
<path style="fill:none;stroke-width:0.084;stroke-linecap:round;stroke-linejoin:miter;stroke:rgb(0%,0%,0%);stroke-opacity:1;stroke-miterlimit:10;" d="M 1.776897 1.163523 L 1.776897 1.087514 " transform="matrix(72,0,0,-72,13.122,151.6018)"/>
<path style="fill:none;stroke-width:0.084;stroke-linecap:round;stroke-linejoin:miter;stroke:rgb(0%,0%,0%);stroke-opacity:1;stroke-miterlimit:10;" d="M 1.876886 1.087514 L 1.876886 1.163523 " transform="matrix(72,0,0,-72,13.122,151.6018)"/>
<path style="fill:none;stroke-width:0.084;stroke-linecap:round;stroke-linejoin:miter;stroke:rgb(0%,0%,0%);stroke-opacity:1;stroke-miterlimit:10;" d="M 1.976875 1.163523 L 1.976875 1.087514 " transform="matrix(72,0,0,-72,13.122,151.6018)"/>
<path style="fill:none;stroke-width:0.084;stroke-linecap:round;stroke-linejoin:miter;stroke:rgb(0%,0%,0%);stroke-opacity:1;stroke-miterlimit:10;" d="M 2.076919 1.087514 L 2.076919 1.163523 " transform="matrix(72,0,0,-72,13.122,151.6018)"/>
<path style="fill:none;stroke-width:0.084;stroke-linecap:round;stroke-linejoin:miter;stroke:rgb(0%,0%,0%);stroke-opacity:1;stroke-miterlimit:10;" d="M 2.176908 1.163523 L 2.176908 1.087514 " transform="matrix(72,0,0,-72,13.122,151.6018)"/>
<path style="fill:none;stroke-width:0.084;stroke-linecap:round;stroke-linejoin:miter;stroke:rgb(0%,0%,0%);stroke-opacity:1;stroke-miterlimit:10;" d="M 2.995105 1.025991 L 2.995105 0.949982 " transform="matrix(72,0,0,-72,13.122,151.6018)"/>
<path style="fill:none;stroke-width:0.084;stroke-linecap:round;stroke-linejoin:miter;stroke:rgb(0%,0%,0%);stroke-opacity:1;stroke-miterlimit:10;" d="M 3.095094 0.949982 L 3.095094 1.025991 " transform="matrix(72,0,0,-72,13.122,151.6018)"/>
<path style="fill:none;stroke-width:0.084;stroke-linecap:round;stroke-linejoin:miter;stroke:rgb(0%,0%,0%);stroke-opacity:1;stroke-miterlimit:10;" d="M 3.195083 1.025991 L 3.195083 0.949982 " transform="matrix(72,0,0,-72,13.122,151.6018)"/>
<path style=" stroke:none;fill-rule:evenodd;fill:rgb(0%,0%,0%);fill-opacity:1;" d="M 194.71875 69.382812 L 198.980469 69.382812 L 198.980469 64.550781 L 194.71875 64.550781 Z M 194.71875 69.382812 "/>
<path style=" stroke:none;fill-rule:evenodd;fill:rgb(0%,0%,0%);fill-opacity:1;" d="M 189.335938 69.382812 L 193.597656 69.382812 L 193.597656 64.550781 L 189.335938 64.550781 Z M 189.335938 69.382812 "/>
<path style=" stroke:none;fill-rule:evenodd;fill:rgb(0%,0%,0%);fill-opacity:1;" d="M 189.320312 63.082031 L 193.582031 63.082031 L 193.582031 58.25 L 189.320312 58.25 Z M 189.320312 63.082031 "/>
<path style=" stroke:none;fill-rule:evenodd;fill:rgb(0%,0%,0%);fill-opacity:1;" d="M 183.933594 63.082031 L 188.195312 63.082031 L 188.195312 58.25 L 183.933594 58.25 Z M 183.933594 63.082031 "/>
<path style=" stroke:none;fill-rule:evenodd;fill:rgb(0%,0%,0%);fill-opacity:1;" d="M 105.128906 21.679688 L 109.390625 21.679688 L 109.390625 16.847656 L 105.128906 16.847656 Z M 105.128906 21.679688 "/>
<path style=" stroke:none;fill-rule:evenodd;fill:rgb(0%,0%,0%);fill-opacity:1;" d="M 99.746094 21.679688 L 104.007812 21.679688 L 104.007812 16.847656 L 99.746094 16.847656 Z M 99.746094 21.679688 "/>
<path style=" stroke:none;fill-rule:evenodd;fill:rgb(0%,0%,0%);fill-opacity:1;" d="M 101.121094 113.480469 L 105.382812 113.480469 L 105.382812 108.648438 L 101.121094 108.648438 Z M 101.121094 113.480469 "/>
<path style=" stroke:none;fill-rule:evenodd;fill:rgb(0%,0%,0%);fill-opacity:1;" d="M 95.734375 113.480469 L 99.996094 113.480469 L 99.996094 108.648438 L 95.734375 108.648438 Z M 95.734375 113.480469 "/>
<path style=" stroke:none;fill-rule:evenodd;fill:rgb(0%,0%,0%);fill-opacity:1;" d="M 96.128906 133.28125 L 100.390625 133.28125 L 100.390625 128.449219 L 96.128906 128.449219 Z M 96.128906 133.28125 "/>
<path style=" stroke:none;fill-rule:evenodd;fill:rgb(0%,0%,0%);fill-opacity:1;" d="M 90.746094 133.28125 L 95.007812 133.28125 L 95.007812 128.449219 L 90.746094 128.449219 Z M 90.746094 133.28125 "/>
<path style=" stroke:none;fill-rule:evenodd;fill:rgb(0%,0%,0%);fill-opacity:1;" d="M 90.746094 140.480469 L 95.007812 140.480469 L 95.007812 135.648438 L 90.746094 135.648438 Z M 90.746094 140.480469 "/>
<path style=" stroke:none;fill-rule:evenodd;fill:rgb(0%,0%,0%);fill-opacity:1;" d="M 96.128906 140.480469 L 100.390625 140.480469 L 100.390625 135.648438 L 96.128906 135.648438 Z M 96.128906 140.480469 "/>
<path style=" stroke:none;fill-rule:evenodd;fill:rgb(0%,0%,0%);fill-opacity:1;" d="M 79.652344 122.191406 L 84.484375 122.191406 L 84.484375 117.929688 L 79.652344 117.929688 Z M 79.652344 122.191406 "/>
<path style=" stroke:none;fill-rule:evenodd;fill:rgb(0%,0%,0%);fill-opacity:1;" d="M 74.253906 122.191406 L 79.085938 122.191406 L 79.085938 117.929688 L 74.253906 117.929688 Z M 74.253906 122.191406 "/>
<path style=" stroke:none;fill-rule:evenodd;fill:rgb(0%,0%,0%);fill-opacity:1;" d="M 68.855469 122.191406 L 73.6875 122.191406 L 73.6875 117.929688 L 68.855469 117.929688 Z M 68.855469 122.191406 "/>
<path style=" stroke:none;fill-rule:evenodd;fill:rgb(0%,0%,0%);fill-opacity:1;" d="M 68.855469 116.804688 L 73.6875 116.804688 L 73.6875 112.542969 L 68.855469 112.542969 Z M 68.855469 116.804688 "/>
<path style=" stroke:none;fill-rule:evenodd;fill:rgb(0%,0%,0%);fill-opacity:1;" d="M 74.253906 116.804688 L 79.085938 116.804688 L 79.085938 112.542969 L 74.253906 112.542969 Z M 74.253906 116.804688 "/>
<path style=" stroke:none;fill-rule:evenodd;fill:rgb(0%,0%,0%);fill-opacity:1;" d="M 79.652344 116.804688 L 84.484375 116.804688 L 84.484375 112.542969 L 79.652344 112.542969 Z M 79.652344 116.804688 "/>
<path style=" stroke:none;fill-rule:evenodd;fill:rgb(0%,0%,0%);fill-opacity:1;" d="M 86.441406 91.589844 L 91.273438 91.589844 L 91.273438 87.328125 L 86.441406 87.328125 Z M 86.441406 91.589844 "/>
<path style=" stroke:none;fill-rule:evenodd;fill:rgb(0%,0%,0%);fill-opacity:1;" d="M 86.441406 86.203125 L 91.273438 86.203125 L 91.273438 81.941406 L 86.441406 81.941406 Z M 86.441406 86.203125 "/>
<path style=" stroke:none;fill-rule:evenodd;fill:rgb(0%,0%,0%);fill-opacity:1;" d="M 96.34375 70.890625 L 101.175781 70.890625 L 101.175781 66.628906 L 96.34375 66.628906 Z M 96.34375 70.890625 "/>
<path style=" stroke:none;fill-rule:evenodd;fill:rgb(0%,0%,0%);fill-opacity:1;" d="M 103.542969 70.890625 L 108.375 70.890625 L 108.375 66.628906 L 103.542969 66.628906 Z M 103.542969 70.890625 "/>
<path style=" stroke:none;fill-rule:evenodd;fill:rgb(0%,0%,0%);fill-opacity:1;" d="M 110.742188 70.890625 L 115.574219 70.890625 L 115.574219 66.628906 L 110.742188 66.628906 Z M 110.742188 70.890625 "/>
<path style=" stroke:none;fill-rule:evenodd;fill:rgb(0%,0%,0%);fill-opacity:1;" d="M 110.742188 65.503906 L 115.574219 65.503906 L 115.574219 61.242188 L 110.742188 61.242188 Z M 110.742188 65.503906 "/>
<path style=" stroke:none;fill-rule:evenodd;fill:rgb(0%,0%,0%);fill-opacity:1;" d="M 103.542969 65.503906 L 108.375 65.503906 L 108.375 61.242188 L 103.542969 61.242188 Z M 103.542969 65.503906 "/>
<path style=" stroke:none;fill-rule:evenodd;fill:rgb(0%,0%,0%);fill-opacity:1;" d="M 96.34375 65.503906 L 101.175781 65.503906 L 101.175781 61.242188 L 96.34375 61.242188 Z M 96.34375 65.503906 "/>
<path style=" stroke:none;fill-rule:evenodd;fill:rgb(0%,0%,0%);fill-opacity:1;" d="M 129.644531 83.503906 L 134.476562 83.503906 L 134.476562 79.242188 L 129.644531 79.242188 Z M 129.644531 83.503906 "/>
<path style=" stroke:none;fill-rule:evenodd;fill:rgb(0%,0%,0%);fill-opacity:1;" d="M 129.644531 88.890625 L 134.476562 88.890625 L 134.476562 84.628906 L 129.644531 84.628906 Z M 129.644531 88.890625 "/>
<path style=" stroke:none;fill-rule:evenodd;fill:rgb(0%,0%,0%);fill-opacity:1;" d="M 75.152344 43.890625 L 79.984375 43.890625 L 79.984375 39.628906 L 75.152344 39.628906 Z M 75.152344 43.890625 "/>
<path style=" stroke:none;fill-rule:evenodd;fill:rgb(0%,0%,0%);fill-opacity:1;" d="M 69.753906 43.890625 L 74.585938 43.890625 L 74.585938 39.628906 L 69.753906 39.628906 Z M 69.753906 43.890625 "/>
<path style=" stroke:none;fill-rule:evenodd;fill:rgb(0%,0%,0%);fill-opacity:1;" d="M 69.753906 38.503906 L 74.585938 38.503906 L 74.585938 34.242188 L 69.753906 34.242188 Z M 69.753906 38.503906 "/>
<path style=" stroke:none;fill-rule:evenodd;fill:rgb(0%,0%,0%);fill-opacity:1;" d="M 75.152344 38.503906 L 79.984375 38.503906 L 79.984375 34.242188 L 75.152344 34.242188 Z M 75.152344 38.503906 "/>
<path style=" stroke:none;fill-rule:evenodd;fill:rgb(0%,0%,0%);fill-opacity:1;" d="M 176.855469 31.289062 L 181.6875 31.289062 L 181.6875 27.027344 L 176.855469 27.027344 Z M 176.855469 31.289062 "/>
<path style=" stroke:none;fill-rule:evenodd;fill:rgb(0%,0%,0%);fill-opacity:1;" d="M 176.855469 25.902344 L 181.6875 25.902344 L 181.6875 21.640625 L 176.855469 21.640625 Z M 176.855469 25.902344 "/>
<path style=" stroke:none;fill-rule:evenodd;fill:rgb(0%,0%,0%);fill-opacity:1;" d="M 123.636719 81.222656 L 126.085938 81.222656 L 126.085938 74.886719 L 123.636719 74.886719 Z M 123.636719 81.222656 "/>
<path style=" stroke:none;fill-rule:evenodd;fill:rgb(0%,0%,0%);fill-opacity:1;" d="M 120.035156 81.222656 L 122.484375 81.222656 L 122.484375 74.886719 L 120.035156 74.886719 Z M 120.035156 81.222656 "/>
<path style=" stroke:none;fill-rule:evenodd;fill:rgb(0%,0%,0%);fill-opacity:1;" d="M 116.433594 81.222656 L 118.882812 81.222656 L 118.882812 74.886719 L 116.433594 74.886719 Z M 116.433594 81.222656 "/>
<path style=" stroke:none;fill-rule:evenodd;fill:rgb(0%,0%,0%);fill-opacity:1;" d="M 112.835938 81.222656 L 115.285156 81.222656 L 115.285156 74.886719 L 112.835938 74.886719 Z M 112.835938 81.222656 "/>
<path style=" stroke:none;fill-rule:evenodd;fill:rgb(0%,0%,0%);fill-opacity:1;" d="M 109.234375 81.222656 L 111.683594 81.222656 L 111.683594 74.886719 L 109.234375 74.886719 Z M 109.234375 81.222656 "/>
<path style=" stroke:none;fill-rule:evenodd;fill:rgb(0%,0%,0%);fill-opacity:1;" d="M 105.636719 81.222656 L 108.085938 81.222656 L 108.085938 74.886719 L 105.636719 74.886719 Z M 105.636719 81.222656 "/>
<path style=" stroke:none;fill-rule:evenodd;fill:rgb(0%,0%,0%);fill-opacity:1;" d="M 102.035156 81.222656 L 104.484375 81.222656 L 104.484375 74.886719 L 102.035156 74.886719 Z M 102.035156 81.222656 "/>
<path style=" stroke:none;fill-rule:evenodd;fill:rgb(0%,0%,0%);fill-opacity:1;" d="M 98.433594 81.222656 L 100.882812 81.222656 L 100.882812 74.886719 L 98.433594 74.886719 Z M 98.433594 81.222656 "/>
<path style=" stroke:none;fill-rule:evenodd;fill:rgb(0%,0%,0%);fill-opacity:1;" d="M 98.433594 98.644531 L 100.882812 98.644531 L 100.882812 92.308594 L 98.433594 92.308594 Z M 98.433594 98.644531 "/>
<path style=" stroke:none;fill-rule:evenodd;fill:rgb(0%,0%,0%);fill-opacity:1;" d="M 102.035156 98.644531 L 104.484375 98.644531 L 104.484375 92.308594 L 102.035156 92.308594 Z M 102.035156 98.644531 "/>
<path style=" stroke:none;fill-rule:evenodd;fill:rgb(0%,0%,0%);fill-opacity:1;" d="M 105.636719 98.644531 L 108.085938 98.644531 L 108.085938 92.308594 L 105.636719 92.308594 Z M 105.636719 98.644531 "/>
<path style=" stroke:none;fill-rule:evenodd;fill:rgb(0%,0%,0%);fill-opacity:1;" d="M 109.234375 98.644531 L 111.683594 98.644531 L 111.683594 92.308594 L 109.234375 92.308594 Z M 109.234375 98.644531 "/>
<path style=" stroke:none;fill-rule:evenodd;fill:rgb(0%,0%,0%);fill-opacity:1;" d="M 112.835938 98.644531 L 115.285156 98.644531 L 115.285156 92.308594 L 112.835938 92.308594 Z M 112.835938 98.644531 "/>
<path style=" stroke:none;fill-rule:evenodd;fill:rgb(0%,0%,0%);fill-opacity:1;" d="M 116.433594 98.644531 L 118.882812 98.644531 L 118.882812 92.308594 L 116.433594 92.308594 Z M 116.433594 98.644531 "/>
<path style=" stroke:none;fill-rule:evenodd;fill:rgb(0%,0%,0%);fill-opacity:1;" d="M 120.035156 98.644531 L 122.484375 98.644531 L 122.484375 92.308594 L 120.035156 92.308594 Z M 120.035156 98.644531 "/>
<path style=" stroke:none;fill-rule:evenodd;fill:rgb(0%,0%,0%);fill-opacity:1;" d="M 123.636719 98.644531 L 126.085938 98.644531 L 126.085938 92.308594 L 123.636719 92.308594 Z M 123.636719 98.644531 "/>
<path style=" stroke:none;fill-rule:evenodd;fill:rgb(0%,0%,0%);fill-opacity:1;" d="M 180.480469 96.089844 L 186.816406 96.089844 L 186.816406 93.640625 L 180.480469 93.640625 Z M 180.480469 96.089844 "/>
<path style=" stroke:none;fill-rule:evenodd;fill:rgb(0%,0%,0%);fill-opacity:1;" d="M 180.480469 92.488281 L 186.816406 92.488281 L 186.816406 90.039062 L 180.480469 90.039062 Z M 180.480469 92.488281 "/>
<path style=" stroke:none;fill-rule:evenodd;fill:rgb(0%,0%,0%);fill-opacity:1;" d="M 180.480469 88.890625 L 186.816406 88.890625 L 186.816406 86.441406 L 180.480469 86.441406 Z M 180.480469 88.890625 "/>
<path style=" stroke:none;fill-rule:evenodd;fill:rgb(0%,0%,0%);fill-opacity:1;" d="M 180.480469 85.289062 L 186.816406 85.289062 L 186.816406 82.839844 L 180.480469 82.839844 Z M 180.480469 85.289062 "/>
<path style=" stroke:none;fill-rule:evenodd;fill:rgb(0%,0%,0%);fill-opacity:1;" d="M 180.480469 81.691406 L 186.816406 81.691406 L 186.816406 79.242188 L 180.480469 79.242188 Z M 180.480469 81.691406 "/>
<path style=" stroke:none;fill-rule:evenodd;fill:rgb(0%,0%,0%);fill-opacity:1;" d="M 180.480469 78.089844 L 186.816406 78.089844 L 186.816406 75.640625 L 180.480469 75.640625 Z M 180.480469 78.089844 "/>
<path style=" stroke:none;fill-rule:evenodd;fill:rgb(0%,0%,0%);fill-opacity:1;" d="M 180.480469 74.488281 L 186.816406 74.488281 L 186.816406 72.039062 L 180.480469 72.039062 Z M 180.480469 74.488281 "/>
<path style=" stroke:none;fill-rule:evenodd;fill:rgb(0%,0%,0%);fill-opacity:1;" d="M 197.902344 74.488281 L 204.238281 74.488281 L 204.238281 72.039062 L 197.902344 72.039062 Z M 197.902344 74.488281 "/>
<path style=" stroke:none;fill-rule:evenodd;fill:rgb(0%,0%,0%);fill-opacity:1;" d="M 197.902344 78.089844 L 204.238281 78.089844 L 204.238281 75.640625 L 197.902344 75.640625 Z M 197.902344 78.089844 "/>
<path style=" stroke:none;fill-rule:evenodd;fill:rgb(0%,0%,0%);fill-opacity:1;" d="M 197.902344 81.691406 L 204.238281 81.691406 L 204.238281 79.242188 L 197.902344 79.242188 Z M 197.902344 81.691406 "/>
<path style=" stroke:none;fill-rule:evenodd;fill:rgb(0%,0%,0%);fill-opacity:1;" d="M 197.902344 85.289062 L 204.238281 85.289062 L 204.238281 82.839844 L 197.902344 82.839844 Z M 197.902344 85.289062 "/>
<path style=" stroke:none;fill-rule:evenodd;fill:rgb(0%,0%,0%);fill-opacity:1;" d="M 197.902344 88.890625 L 204.238281 88.890625 L 204.238281 86.441406 L 197.902344 86.441406 Z M 197.902344 88.890625 "/>
<path style=" stroke:none;fill-rule:evenodd;fill:rgb(0%,0%,0%);fill-opacity:1;" d="M 197.902344 92.488281 L 204.238281 92.488281 L 204.238281 90.039062 L 197.902344 90.039062 Z M 197.902344 92.488281 "/>
<path style=" stroke:none;fill-rule:evenodd;fill:rgb(0%,0%,0%);fill-opacity:1;" d="M 197.902344 96.089844 L 204.238281 96.089844 L 204.238281 93.640625 L 197.902344 93.640625 Z M 197.902344 96.089844 "/>
<path style=" stroke:none;fill-rule:evenodd;fill:rgb(0%,0%,0%);fill-opacity:1;" d="M 197.902344 99.691406 L 204.238281 99.691406 L 204.238281 97.242188 L 197.902344 97.242188 Z M 197.902344 99.691406 "/>
<path style=" stroke:none;fill-rule:evenodd;fill:rgb(0%,0%,0%);fill-opacity:1;" d="M 180.480469 99.691406 L 186.816406 99.691406 L 186.816406 97.242188 L 180.480469 97.242188 Z M 180.480469 99.691406 "/>
<path style=" stroke:none;fill-rule:evenodd;fill:rgb(0%,0%,0%);fill-opacity:1;" d="M 92.550781 97.324219 L 95.964844 97.324219 L 95.964844 93.628906 L 92.550781 93.628906 Z M 92.550781 97.324219 "/>
<path style=" stroke:none;fill-rule:evenodd;fill:rgb(0%,0%,0%);fill-opacity:1;" d="M 92.550781 92.5 L 95.964844 92.5 L 95.964844 88.804688 L 92.550781 88.804688 Z M 92.550781 92.5 "/>
<path style=" stroke:none;fill-rule:evenodd;fill:rgb(0%,0%,0%);fill-opacity:1;" d="M 63.734375 114.570312 L 67.429688 114.570312 L 67.429688 111.15625 L 63.734375 111.15625 Z M 63.734375 114.570312 "/>
<path style=" stroke:none;fill-rule:evenodd;fill:rgb(0%,0%,0%);fill-opacity:1;" d="M 58.910156 114.570312 L 62.605469 114.570312 L 62.605469 111.15625 L 58.910156 111.15625 Z M 58.910156 114.570312 "/>
<path style=" stroke:none;fill-rule:evenodd;fill:rgb(0%,0%,0%);fill-opacity:1;" d="M 180.898438 68.671875 L 184.59375 68.671875 L 184.59375 65.257812 L 180.898438 65.257812 Z M 180.898438 68.671875 "/>
<path style=" stroke:none;fill-rule:evenodd;fill:rgb(0%,0%,0%);fill-opacity:1;" d="M 185.722656 68.671875 L 189.417969 68.671875 L 189.417969 65.257812 L 185.722656 65.257812 Z M 185.722656 68.671875 "/>
<path style=" stroke:none;fill-rule:evenodd;fill:rgb(0%,0%,0%);fill-opacity:1;" d="M 157.335938 34.472656 L 161.03125 34.472656 L 161.03125 31.058594 L 157.335938 31.058594 Z M 157.335938 34.472656 "/>
<path style=" stroke:none;fill-rule:evenodd;fill:rgb(0%,0%,0%);fill-opacity:1;" d="M 152.511719 34.472656 L 156.207031 34.472656 L 156.207031 31.058594 L 152.511719 31.058594 Z M 152.511719 34.472656 "/>
<path style=" stroke:none;fill-rule:evenodd;fill:rgb(0%,0%,0%);fill-opacity:1;" d="M 152.511719 25.472656 L 156.207031 25.472656 L 156.207031 22.058594 L 152.511719 22.058594 Z M 152.511719 25.472656 "/>
<path style=" stroke:none;fill-rule:evenodd;fill:rgb(0%,0%,0%);fill-opacity:1;" d="M 157.335938 25.472656 L 161.03125 25.472656 L 161.03125 22.058594 L 157.335938 22.058594 Z M 157.335938 25.472656 "/>
<path style=" stroke:none;fill-rule:evenodd;fill:rgb(0%,0%,0%);fill-opacity:1;" d="M 138.433594 21.871094 L 142.128906 21.871094 L 142.128906 18.457031 L 138.433594 18.457031 Z M 138.433594 21.871094 "/>
<path style=" stroke:none;fill-rule:evenodd;fill:rgb(0%,0%,0%);fill-opacity:1;" d="M 133.609375 21.871094 L 137.304688 21.871094 L 137.304688 18.457031 L 133.609375 18.457031 Z M 133.609375 21.871094 "/>
<path style=" stroke:none;fill-rule:evenodd;fill:rgb(0%,0%,0%);fill-opacity:1;" d="M 49.949219 44.828125 L 53.074219 44.828125 L 53.074219 41.984375 L 49.949219 41.984375 Z M 49.949219 44.828125 "/>
<path style=" stroke:none;fill-rule:evenodd;fill:rgb(0%,0%,0%);fill-opacity:1;" d="M 44.285156 47.523438 L 47.410156 47.523438 L 47.410156 44.679688 L 44.285156 44.679688 Z M 44.285156 47.523438 "/>
<path style=" stroke:none;fill-rule:evenodd;fill:rgb(0%,0%,0%);fill-opacity:1;" d="M 49.949219 50.214844 L 53.074219 50.214844 L 53.074219 47.371094 L 49.949219 47.371094 Z M 49.949219 50.214844 "/>
<path style="fill:none;stroke-width:0.087;stroke-linecap:round;stroke-linejoin:miter;stroke:rgb(0%,0%,0%);stroke-opacity:1;stroke-miterlimit:10;" d="M 0.319486 1.401316 L 0.240493 1.401316 " transform="matrix(72,0,0,-72,13.122,151.6018)"/>
<path style="fill:none;stroke-width:0.087;stroke-linecap:round;stroke-linejoin:miter;stroke:rgb(0%,0%,0%);stroke-opacity:1;stroke-miterlimit:10;" d="M 0.240493 1.598094 L 0.319486 1.598094 " transform="matrix(72,0,0,-72,13.122,151.6018)"/>
<path style="fill:none;stroke-width:0.087;stroke-linecap:round;stroke-linejoin:miter;stroke:rgb(0%,0%,0%);stroke-opacity:1;stroke-miterlimit:10;" d="M 3.534221 1.564999 L 3.534221 1.486006 " transform="matrix(72,0,0,-72,13.122,151.6018)"/>
<path style="fill:none;stroke-width:0.087;stroke-linecap:round;stroke-linejoin:miter;stroke:rgb(0%,0%,0%);stroke-opacity:1;stroke-miterlimit:10;" d="M 3.730999 1.486006 L 3.730999 1.564999 " transform="matrix(72,0,0,-72,13.122,151.6018)"/>
<path style="fill:none;stroke-width:0.087;stroke-linecap:round;stroke-linejoin:miter;stroke:rgb(0%,0%,0%);stroke-opacity:1;stroke-miterlimit:10;" d="M 3.730999 0.539988 L 3.730999 0.460995 " transform="matrix(72,0,0,-72,13.122,151.6018)"/>
<path style="fill:none;stroke-width:0.087;stroke-linecap:round;stroke-linejoin:miter;stroke:rgb(0%,0%,0%);stroke-opacity:1;stroke-miterlimit:10;" d="M 3.534221 0.460995 L 3.534221 0.539988 " transform="matrix(72,0,0,-72,13.122,151.6018)"/>
<path style=" stroke:none;fill-rule:evenodd;fill:rgb(0%,0%,0%);fill-opacity:1;" d="M 279.960938 98.292969 L 278.441406 96.773438 L 276.296875 96.773438 L 274.777344 98.292969 L 274.777344 100.4375 L 276.296875 101.957031 L 278.441406 101.957031 L 279.960938 100.4375 L 279.960938 98.292969 "/>
<path style=" stroke:none;fill-rule:evenodd;fill:rgb(0%,0%,0%);fill-opacity:1;" d="M 258.359375 98.292969 L 256.84375 96.773438 L 254.695312 96.773438 L 253.175781 98.292969 L 253.175781 100.4375 L 254.695312 101.957031 L 256.84375 101.957031 L 258.359375 100.4375 L 258.359375 98.292969 "/>
<path style=" stroke:none;fill-rule:evenodd;fill:rgb(0%,0%,0%);fill-opacity:1;" d="M 238.5625 68.59375 L 237.042969 67.074219 L 234.894531 67.074219 L 233.378906 68.59375 L 233.378906 70.738281 L 234.894531 72.257812 L 237.042969 72.257812 L 238.5625 70.738281 L 238.5625 68.59375 "/>
<path style=" stroke:none;fill-rule:evenodd;fill:rgb(0%,0%,0%);fill-opacity:1;" d="M 238.5625 46.992188 L 237.042969 45.472656 L 234.894531 45.472656 L 233.378906 46.992188 L 233.378906 49.140625 L 234.894531 50.65625 L 237.042969 50.65625 L 238.5625 49.140625 L 238.5625 46.992188 "/>
<path style=" stroke:none;fill-rule:evenodd;fill:rgb(0%,0%,0%);fill-opacity:1;" d="M 238.5625 39.792969 L 237.042969 38.273438 L 234.894531 38.273438 L 233.378906 39.792969 L 233.378906 41.9375 L 234.894531 43.457031 L 237.042969 43.457031 L 238.5625 41.9375 L 238.5625 39.792969 "/>
<path style=" stroke:none;fill-rule:evenodd;fill:rgb(0%,0%,0%);fill-opacity:1;" d="M 238.5625 18.191406 L 237.042969 16.671875 L 234.894531 16.671875 L 233.378906 18.191406 L 233.378906 20.339844 L 234.894531 21.859375 L 237.042969 21.859375 L 238.5625 20.339844 L 238.5625 18.191406 "/>
<path style=" stroke:none;fill-rule:evenodd;fill:rgb(0%,0%,0%);fill-opacity:1;" d="M 66.375 50.398438 L 64.855469 48.878906 L 62.707031 48.878906 L 61.1875 50.398438 L 61.1875 52.546875 L 62.707031 54.0625 L 64.855469 54.0625 L 66.375 52.546875 L 66.375 50.398438 "/>
<path style=" stroke:none;fill-rule:evenodd;fill:rgb(0%,0%,0%);fill-opacity:1;" d="M 63.0625 45.191406 L 61.542969 43.671875 L 59.394531 43.671875 L 57.878906 45.191406 L 57.878906 47.339844 L 59.394531 48.859375 L 61.542969 48.859375 L 63.0625 47.339844 L 63.0625 45.191406 "/>
<path style=" stroke:none;fill-rule:evenodd;fill:rgb(0%,0%,0%);fill-opacity:1;" d="M 63.0625 37.992188 L 61.542969 36.472656 L 59.394531 36.472656 L 57.878906 37.992188 L 57.878906 40.140625 L 59.394531 41.65625 L 61.542969 41.65625 L 63.0625 40.140625 L 63.0625 37.992188 "/>
<path style=" stroke:none;fill-rule:evenodd;fill:rgb(0%,0%,0%);fill-opacity:1;" d="M 72.132812 51.472656 C 72.132812 48.015625 66.949219 48.015625 66.949219 51.472656 C 66.949219 54.925781 72.132812 54.925781 72.132812 51.472656 "/>
<path style=" stroke:none;fill-rule:evenodd;fill:rgb(0%,0%,0%);fill-opacity:1;" d="M 169.261719 36.003906 C 169.261719 32.550781 164.078125 32.550781 164.078125 36.003906 C 164.078125 39.460938 169.261719 39.460938 169.261719 36.003906 "/>
<path style=" stroke:none;fill-rule:evenodd;fill:rgb(0%,0%,0%);fill-opacity:1;" d="M 169.261719 22.324219 C 169.261719 18.871094 164.078125 18.871094 164.078125 22.324219 C 164.078125 25.78125 169.261719 25.78125 169.261719 22.324219 "/>
<path style=" stroke:none;fill-rule:evenodd;fill:rgb(0%,0%,0%);fill-opacity:1;" d="M 53.160156 102.964844 C 53.160156 99.511719 47.976562 99.511719 47.976562 102.964844 C 47.976562 106.421875 53.160156 106.421875 53.160156 102.964844 "/>
<path style=" stroke:none;fill-rule:evenodd;fill:rgb(0%,0%,0%);fill-opacity:1;" d="M 53.160156 110.164062 C 53.160156 106.710938 47.976562 106.710938 47.976562 110.164062 C 47.976562 113.621094 53.160156 113.621094 53.160156 110.164062 "/>
<path style=" stroke:none;fill-rule:evenodd;fill:rgb(0%,0%,0%);fill-opacity:1;" d="M 54.191406 108.601562 L 61.003906 108.601562 L 61.003906 106.328125 L 54.191406 106.328125 Z M 54.191406 108.601562 "/>
<path style=" stroke:none;fill-rule:evenodd;fill:rgb(0%,0%,0%);fill-opacity:1;" d="M 54.191406 105.003906 L 61.003906 105.003906 L 61.003906 102.730469 L 54.191406 102.730469 Z M 54.191406 105.003906 "/>
<path style=" stroke:none;fill-rule:evenodd;fill:rgb(0%,0%,0%);fill-opacity:1;" d="M 54.191406 101.402344 L 61.003906 101.402344 L 61.003906 99.128906 L 54.191406 99.128906 Z M 54.191406 101.402344 "/>
<path style=" stroke:none;fill-rule:evenodd;fill:rgb(0%,0%,0%);fill-opacity:1;" d="M 54.191406 97.804688 L 61.003906 97.804688 L 61.003906 95.53125 L 54.191406 95.53125 Z M 54.191406 97.804688 "/>
<path style=" stroke:none;fill-rule:evenodd;fill:rgb(0%,0%,0%);fill-opacity:1;" d="M 68.9375 97.804688 L 75.75 97.804688 L 75.75 95.53125 L 68.9375 95.53125 Z M 68.9375 97.804688 "/>
<path style=" stroke:none;fill-rule:evenodd;fill:rgb(0%,0%,0%);fill-opacity:1;" d="M 68.9375 101.402344 L 75.75 101.402344 L 75.75 99.128906 L 68.9375 99.128906 Z M 68.9375 101.402344 "/>
<path style=" stroke:none;fill-rule:evenodd;fill:rgb(0%,0%,0%);fill-opacity:1;" d="M 68.9375 105.003906 L 75.75 105.003906 L 75.75 102.730469 L 68.9375 102.730469 Z M 68.9375 105.003906 "/>
<path style=" stroke:none;fill-rule:evenodd;fill:rgb(0%,0%,0%);fill-opacity:1;" d="M 68.9375 108.601562 L 75.75 108.601562 L 75.75 106.328125 L 68.9375 106.328125 Z M 68.9375 108.601562 "/>
<path style=" stroke:none;fill-rule:evenodd;fill:rgb(0%,0%,0%);fill-opacity:1;" d="M 128.890625 46.503906 L 135.703125 46.503906 L 135.703125 44.230469 L 128.890625 44.230469 Z M 128.890625 46.503906 "/>
<path style=" stroke:none;fill-rule:evenodd;fill:rgb(0%,0%,0%);fill-opacity:1;" d="M 128.890625 42.902344 L 135.703125 42.902344 L 135.703125 40.628906 L 128.890625 40.628906 Z M 128.890625 42.902344 "/>
<path style=" stroke:none;fill-rule:evenodd;fill:rgb(0%,0%,0%);fill-opacity:1;" d="M 128.890625 39.304688 L 135.703125 39.304688 L 135.703125 37.03125 L 128.890625 37.03125 Z M 128.890625 39.304688 "/>
<path style=" stroke:none;fill-rule:evenodd;fill:rgb(0%,0%,0%);fill-opacity:1;" d="M 128.890625 35.703125 L 135.703125 35.703125 L 135.703125 33.429688 L 128.890625 33.429688 Z M 128.890625 35.703125 "/>
<path style=" stroke:none;fill-rule:evenodd;fill:rgb(0%,0%,0%);fill-opacity:1;" d="M 128.890625 32.101562 L 135.703125 32.101562 L 135.703125 29.828125 L 128.890625 29.828125 Z M 128.890625 32.101562 "/>
<path style=" stroke:none;fill-rule:evenodd;fill:rgb(0%,0%,0%);fill-opacity:1;" d="M 128.890625 28.503906 L 135.703125 28.503906 L 135.703125 26.230469 L 128.890625 26.230469 Z M 128.890625 28.503906 "/>
<path style=" stroke:none;fill-rule:evenodd;fill:rgb(0%,0%,0%);fill-opacity:1;" d="M 128.890625 24.902344 L 135.703125 24.902344 L 135.703125 22.628906 L 128.890625 22.628906 Z M 128.890625 24.902344 "/>
<path style=" stroke:none;fill-rule:evenodd;fill:rgb(0%,0%,0%);fill-opacity:1;" d="M 143.636719 24.902344 L 150.449219 24.902344 L 150.449219 22.628906 L 143.636719 22.628906 Z M 143.636719 24.902344 "/>
<path style=" stroke:none;fill-rule:evenodd;fill:rgb(0%,0%,0%);fill-opacity:1;" d="M 143.636719 28.503906 L 150.449219 28.503906 L 150.449219 26.230469 L 143.636719 26.230469 Z M 143.636719 28.503906 "/>
<path style=" stroke:none;fill-rule:evenodd;fill:rgb(0%,0%,0%);fill-opacity:1;" d="M 143.636719 32.101562 L 150.449219 32.101562 L 150.449219 29.828125 L 143.636719 29.828125 Z M 143.636719 32.101562 "/>
<path style=" stroke:none;fill-rule:evenodd;fill:rgb(0%,0%,0%);fill-opacity:1;" d="M 143.636719 35.703125 L 150.449219 35.703125 L 150.449219 33.429688 L 143.636719 33.429688 Z M 143.636719 35.703125 "/>
<path style=" stroke:none;fill-rule:evenodd;fill:rgb(0%,0%,0%);fill-opacity:1;" d="M 143.636719 39.304688 L 150.449219 39.304688 L 150.449219 37.03125 L 143.636719 37.03125 Z M 143.636719 39.304688 "/>
<path style=" stroke:none;fill-rule:evenodd;fill:rgb(0%,0%,0%);fill-opacity:1;" d="M 143.636719 42.902344 L 150.449219 42.902344 L 150.449219 40.628906 L 143.636719 40.628906 Z M 143.636719 42.902344 "/>
<path style=" stroke:none;fill-rule:evenodd;fill:rgb(0%,0%,0%);fill-opacity:1;" d="M 143.636719 46.503906 L 150.449219 46.503906 L 150.449219 44.230469 L 143.636719 44.230469 Z M 143.636719 46.503906 "/>
<path style="fill:none;stroke-width:0.108;stroke-linecap:round;stroke-linejoin:miter;stroke:rgb(0%,0%,0%);stroke-opacity:1;stroke-miterlimit:10;" d="M 0.570083 1.189185 L 0.470094 1.189185 " transform="matrix(72,0,0,-72,13.122,151.6018)"/>
<path style="fill:none;stroke-width:0.108;stroke-linecap:round;stroke-linejoin:miter;stroke:rgb(0%,0%,0%);stroke-opacity:1;stroke-miterlimit:10;" d="M 0.470094 0.401805 L 0.570083 0.401805 " transform="matrix(72,0,0,-72,13.122,151.6018)"/>
<path style=" stroke:none;fill-rule:evenodd;fill:rgb(0%,0%,0%);fill-opacity:1;" d="M 57.515625 27.367188 C 57.515625 24.101562 52.621094 24.101562 52.621094 27.367188 C 52.621094 30.628906 57.515625 30.628906 57.515625 27.367188 "/>
<path style=" stroke:none;fill-rule:evenodd;fill:rgb(0%,0%,0%);fill-opacity:1;" d="M 50.316406 27.367188 C 50.316406 24.101562 45.421875 24.101562 45.421875 27.367188 C 45.421875 30.628906 50.316406 30.628906 50.316406 27.367188 "/>
<path style=" stroke:none;fill-rule:evenodd;fill:rgb(0%,0%,0%);fill-opacity:1;" d="M 50.316406 20.164062 C 50.316406 16.902344 45.421875 16.902344 45.421875 20.164062 C 45.421875 23.429688 50.316406 23.429688 50.316406 20.164062 "/>
<path style=" stroke:none;fill-rule:evenodd;fill:rgb(0%,0%,0%);fill-opacity:1;" d="M 57.515625 20.164062 C 57.515625 16.902344 52.621094 16.902344 52.621094 20.164062 C 52.621094 23.429688 57.515625 23.429688 57.515625 20.164062 "/>
<path style=" stroke:none;fill-rule:evenodd;fill:rgb(0%,0%,0%);fill-opacity:1;" d="M 64.71875 20.164062 C 64.71875 16.902344 59.820312 16.902344 59.820312 20.164062 C 59.820312 23.429688 64.71875 23.429688 64.71875 20.164062 "/>
<path style=" stroke:none;fill-rule:evenodd;fill:rgb(0%,0%,0%);fill-opacity:1;" d="M 64.71875 27.367188 C 64.71875 24.101562 59.820312 24.101562 59.820312 27.367188 C 59.820312 30.628906 64.71875 30.628906 64.71875 27.367188 "/>
<path style=" stroke:none;fill-rule:evenodd;fill:rgb(0%,0%,0%);fill-opacity:1;" d="M 71.195312 20.164062 C 71.195312 17.863281 67.742188 17.863281 67.742188 20.164062 C 67.742188 22.46875 71.195312 22.46875 71.195312 20.164062 "/>
<path style=" stroke:none;fill-rule:evenodd;fill:rgb(0%,0%,0%);fill-opacity:1;" d="M 42.398438 20.164062 C 42.398438 17.863281 38.941406 17.863281 38.941406 20.164062 C 38.941406 22.46875 42.398438 22.46875 42.398438 20.164062 "/>
<path style="fill:none;stroke-width:0.0794;stroke-linecap:round;stroke-linejoin:miter;stroke:rgb(0%,0%,0%);stroke-opacity:1;stroke-miterlimit:10;" d="M 1.456476 0.426598 L 1.527819 0.426598 " transform="matrix(72,0,0,-72,13.122,151.6018)"/>
<path style="fill:none;stroke-width:0.0794;stroke-linecap:round;stroke-linejoin:miter;stroke:rgb(0%,0%,0%);stroke-opacity:1;stroke-miterlimit:10;" d="M 1.71239 0.426598 L 1.783679 0.426598 " transform="matrix(72,0,0,-72,13.122,151.6018)"/>
<path style="fill:none;stroke-width:0.0794;stroke-linecap:round;stroke-linejoin:miter;stroke:rgb(0%,0%,0%);stroke-opacity:1;stroke-miterlimit:10;" d="M 2.043987 0.426598 L 2.115276 0.426598 " transform="matrix(72,0,0,-72,13.122,151.6018)"/>
<path style="fill:none;stroke-width:0.0794;stroke-linecap:round;stroke-linejoin:miter;stroke:rgb(0%,0%,0%);stroke-opacity:1;stroke-miterlimit:10;" d="M 2.299901 0.426598 L 2.37119 0.426598 " transform="matrix(72,0,0,-72,13.122,151.6018)"/>
<path style="fill:none;stroke-width:0.0794;stroke-linecap:round;stroke-linejoin:miter;stroke:rgb(0%,0%,0%);stroke-opacity:1;stroke-miterlimit:10;" d="M 2.37119 0.249407 L 2.299901 0.249407 " transform="matrix(72,0,0,-72,13.122,151.6018)"/>
<path style="fill:none;stroke-width:0.0794;stroke-linecap:round;stroke-linejoin:miter;stroke:rgb(0%,0%,0%);stroke-opacity:1;stroke-miterlimit:10;" d="M 2.115276 0.249407 L 2.043987 0.249407 " transform="matrix(72,0,0,-72,13.122,151.6018)"/>
<path style="fill:none;stroke-width:0.0794;stroke-linecap:round;stroke-linejoin:miter;stroke:rgb(0%,0%,0%);stroke-opacity:1;stroke-miterlimit:10;" d="M 1.783679 0.249407 L 1.71239 0.249407 " transform="matrix(72,0,0,-72,13.122,151.6018)"/>
<path style="fill:none;stroke-width:0.0794;stroke-linecap:round;stroke-linejoin:miter;stroke:rgb(0%,0%,0%);stroke-opacity:1;stroke-miterlimit:10;" d="M 1.527819 0.249407 L 1.456476 0.249407 " transform="matrix(72,0,0,-72,13.122,151.6018)"/>
<path style=" stroke:none;fill-rule:evenodd;fill:rgb(0%,0%,0%);fill-opacity:1;" d="M 240.9375 130.144531 C 240.9375 123.523438 231 123.523438 231 130.144531 C 231 136.769531 240.9375 136.769531 240.9375 130.144531 "/>
<path style="fill:none;stroke-width:0.072;stroke-linecap:round;stroke-linejoin:miter;stroke:rgb(0%,0%,0%);stroke-opacity:1;stroke-miterlimit:10;" d="M 2.934124 1.575524 L 2.870105 1.575524 " transform="matrix(72,0,0,-72,13.122,151.6018)"/>
<path style="fill:none;stroke-width:0.072;stroke-linecap:round;stroke-linejoin:miter;stroke:rgb(0%,0%,0%);stroke-opacity:1;stroke-miterlimit:10;" d="M 2.870105 1.675513 L 2.934124 1.675513 " transform="matrix(72,0,0,-72,13.122,151.6018)"/>
<path style="fill:none;stroke-width:0.072;stroke-linecap:round;stroke-linejoin:miter;stroke:rgb(0%,0%,0%);stroke-opacity:1;stroke-miterlimit:10;" d="M 2.934124 1.775502 L 2.870105 1.775502 " transform="matrix(72,0,0,-72,13.122,151.6018)"/>
<path style="fill:none;stroke-width:0.072;stroke-linecap:round;stroke-linejoin:miter;stroke:rgb(0%,0%,0%);stroke-opacity:1;stroke-miterlimit:10;" d="M 2.570083 1.775502 L 2.506118 1.775502 " transform="matrix(72,0,0,-72,13.122,151.6018)"/>
<path style="fill:none;stroke-width:0.072;stroke-linecap:round;stroke-linejoin:miter;stroke:rgb(0%,0%,0%);stroke-opacity:1;stroke-miterlimit:10;" d="M 2.506118 1.675513 L 2.570083 1.675513 " transform="matrix(72,0,0,-72,13.122,151.6018)"/>
<path style="fill:none;stroke-width:0.072;stroke-linecap:round;stroke-linejoin:miter;stroke:rgb(0%,0%,0%);stroke-opacity:1;stroke-miterlimit:10;" d="M 2.570083 1.575524 L 2.506118 1.575524 " transform="matrix(72,0,0,-72,13.122,151.6018)"/>
<path style=" stroke:none;fill-rule:evenodd;fill:rgb(0%,0%,0%);fill-opacity:1;" d="M 255.15625 25.925781 C 255.15625 20.742188 247.382812 20.742188 247.382812 25.925781 C 247.382812 31.109375 255.15625 31.109375 255.15625 25.925781 "/>
<path style=" stroke:none;fill-rule:evenodd;fill:rgb(0%,0%,0%);fill-opacity:1;" d="M 277.65625 59.765625 C 277.65625 54.582031 269.882812 54.582031 269.882812 59.765625 C 269.882812 64.949219 277.65625 64.949219 277.65625 59.765625 "/>
<path style=" stroke:none;fill-rule:evenodd;fill:rgb(0%,0%,0%);fill-opacity:1;" d="M 255.15625 68.40625 C 255.15625 63.222656 247.382812 63.222656 247.382812 68.40625 C 247.382812 73.589844 255.15625 73.589844 255.15625 68.40625 "/>
<path style=" stroke:none;fill-rule:evenodd;fill:rgb(0%,0%,0%);fill-opacity:1;" d="M 277.65625 88.566406 C 277.65625 83.382812 269.882812 83.382812 269.882812 88.566406 C 269.882812 93.75 277.65625 93.75 277.65625 88.566406 "/>
<path style=" stroke:none;fill-rule:evenodd;fill:rgb(0%,0%,0%);fill-opacity:1;" d="M 214.238281 84.066406 C 214.238281 80.636719 209.097656 80.636719 209.097656 84.066406 C 209.097656 87.492188 214.238281 87.492188 214.238281 84.066406 "/>
<path style=" stroke:none;fill-rule:evenodd;fill:rgb(0%,0%,0%);fill-opacity:1;" d="M 211.539062 71.464844 C 211.539062 68.039062 206.398438 68.039062 206.398438 71.464844 C 206.398438 74.894531 211.539062 74.894531 211.539062 71.464844 "/>
<path style=" stroke:none;fill-rule:evenodd;fill:rgb(0%,0%,0%);fill-opacity:1;" d="M 205.238281 66.964844 C 205.238281 63.539062 200.097656 63.539062 200.097656 66.964844 C 200.097656 70.394531 205.238281 70.394531 205.238281 66.964844 "/>
<path style=" stroke:none;fill-rule:evenodd;fill:rgb(0%,0%,0%);fill-opacity:1;" d="M 179.140625 59.765625 C 179.140625 56.339844 174 56.339844 174 59.765625 C 174 63.191406 179.140625 63.191406 179.140625 59.765625 "/>
<path style=" stroke:none;fill-rule:evenodd;fill:rgb(0%,0%,0%);fill-opacity:1;" d="M 179.140625 45.367188 C 179.140625 41.9375 174 41.9375 174 45.367188 C 174 48.792969 179.140625 48.792969 179.140625 45.367188 "/>
<path style=" stroke:none;fill-rule:evenodd;fill:rgb(0%,0%,0%);fill-opacity:1;" d="M 126.039062 44.464844 C 126.039062 41.039062 120.898438 41.039062 120.898438 44.464844 C 120.898438 47.894531 126.039062 47.894531 126.039062 44.464844 "/>
<path style=" stroke:none;fill-rule:evenodd;fill:rgb(0%,0%,0%);fill-opacity:1;" d="M 119.738281 44.464844 C 119.738281 41.039062 114.597656 41.039062 114.597656 44.464844 C 114.597656 47.894531 119.738281 47.894531 119.738281 44.464844 "/>
<path style=" stroke:none;fill-rule:evenodd;fill:rgb(0%,0%,0%);fill-opacity:1;" d="M 113.441406 44.464844 C 113.441406 41.039062 108.296875 41.039062 108.296875 44.464844 C 108.296875 47.894531 113.441406 47.894531 113.441406 44.464844 "/>
<path style=" stroke:none;fill-rule:evenodd;fill:rgb(0%,0%,0%);fill-opacity:1;" d="M 91.839844 42.664062 C 91.839844 39.238281 86.699219 39.238281 86.699219 42.664062 C 86.699219 46.09375 91.839844 46.09375 91.839844 42.664062 "/>
<path style=" stroke:none;fill-rule:evenodd;fill:rgb(0%,0%,0%);fill-opacity:1;" d="M 86.441406 48.066406 C 86.441406 44.636719 81.296875 44.636719 81.296875 48.066406 C 81.296875 51.492188 86.441406 51.492188 86.441406 48.066406 "/>
<path style=" stroke:none;fill-rule:evenodd;fill:rgb(0%,0%,0%);fill-opacity:1;" d="M 54.941406 54.367188 C 54.941406 50.9375 49.796875 50.9375 49.796875 54.367188 C 49.796875 57.792969 54.941406 57.792969 54.941406 54.367188 "/>
<path style=" stroke:none;fill-rule:evenodd;fill:rgb(0%,0%,0%);fill-opacity:1;" d="M 68.441406 66.066406 C 68.441406 62.636719 63.296875 62.636719 63.296875 66.066406 C 63.296875 69.492188 68.441406 69.492188 68.441406 66.066406 "/>
<path style=" stroke:none;fill-rule:evenodd;fill:rgb(0%,0%,0%);fill-opacity:1;" d="M 86.441406 70.566406 C 86.441406 67.136719 81.296875 67.136719 81.296875 70.566406 C 81.296875 73.992188 86.441406 73.992188 86.441406 70.566406 "/>
<path style=" stroke:none;fill-rule:evenodd;fill:rgb(0%,0%,0%);fill-opacity:1;" d="M 91.839844 66.066406 C 91.839844 62.636719 86.699219 62.636719 86.699219 66.066406 C 86.699219 69.492188 91.839844 69.492188 91.839844 66.066406 "/>
<path style=" stroke:none;fill-rule:evenodd;fill:rgb(0%,0%,0%);fill-opacity:1;" d="M 95.929688 79.574219 C 95.929688 76.144531 90.789062 76.144531 90.789062 79.574219 C 90.789062 83 95.929688 83 95.929688 79.574219 "/>
<path style=" stroke:none;fill-rule:evenodd;fill:rgb(0%,0%,0%);fill-opacity:1;" d="M 115.730469 107.464844 C 115.730469 104.039062 110.589844 104.039062 110.589844 107.464844 C 110.589844 110.894531 115.730469 110.894531 115.730469 107.464844 "/>
<path style=" stroke:none;fill-rule:evenodd;fill:rgb(0%,0%,0%);fill-opacity:1;" d="M 192.230469 109.265625 C 192.230469 105.839844 187.089844 105.839844 187.089844 109.265625 C 187.089844 112.691406 192.230469 112.691406 192.230469 109.265625 "/>
<path style=" stroke:none;fill-rule:evenodd;fill:rgb(0%,0%,0%);fill-opacity:1;" d="M 201.230469 109.265625 C 201.230469 105.839844 196.089844 105.839844 196.089844 109.265625 C 196.089844 112.691406 201.230469 112.691406 201.230469 109.265625 "/>
<path style=" stroke:none;fill-rule:evenodd;fill:rgb(0%,0%,0%);fill-opacity:1;" d="M 54.941406 33.664062 C 54.941406 30.238281 49.796875 30.238281 49.796875 33.664062 C 49.796875 37.09375 54.941406 37.09375 54.941406 33.664062 "/>
<path style=" stroke:none;fill-rule:evenodd;fill:rgb(0%,0%,0%);fill-opacity:1;" d="M 76.539062 30.964844 C 76.539062 27.539062 71.398438 27.539062 71.398438 30.964844 C 71.398438 34.394531 76.539062 34.394531 76.539062 30.964844 "/>
<path style=" stroke:none;fill-rule:evenodd;fill:rgb(0%,0%,0%);fill-opacity:1;" d="M 78.339844 21.964844 C 78.339844 18.539062 73.199219 18.539062 73.199219 21.964844 C 73.199219 25.394531 78.339844 25.394531 78.339844 21.964844 "/>
<path style=" stroke:none;fill-rule:evenodd;fill:rgb(0%,0%,0%);fill-opacity:1;" d="M 85.539062 17.464844 C 85.539062 14.039062 80.398438 14.039062 80.398438 17.464844 C 80.398438 20.894531 85.539062 20.894531 85.539062 17.464844 "/>
<path style=" stroke:none;fill-rule:evenodd;fill:rgb(0%,0%,0%);fill-opacity:1;" d="M 28.078125 22.867188 C 28.078125 19.25 22.660156 19.25 22.660156 22.867188 C 22.660156 26.480469 28.078125 26.480469 28.078125 22.867188 "/>
<path style=" stroke:none;fill-rule:evenodd;fill:rgb(0%,0%,0%);fill-opacity:1;" d="M 100.980469 102.066406 C 100.980469 98.453125 95.558594 98.453125 95.558594 102.066406 C 95.558594 105.679688 100.980469 105.679688 100.980469 102.066406 "/>
<path style=" stroke:none;fill-rule:evenodd;fill:rgb(0%,0%,0%);fill-opacity:1;" d="M 107.28125 104.765625 C 107.28125 101.152344 101.859375 101.152344 101.859375 104.765625 C 101.859375 108.378906 107.28125 108.378906 107.28125 104.765625 "/>
<path style=" stroke:none;fill-rule:evenodd;fill:rgb(0%,0%,0%);fill-opacity:1;" d="M 154.078125 127.265625 C 154.078125 123.652344 148.660156 123.652344 148.660156 127.265625 C 148.660156 130.878906 154.078125 130.878906 154.078125 127.265625 "/>
<path style=" stroke:none;fill-rule:evenodd;fill:rgb(0%,0%,0%);fill-opacity:1;" d="M 28.078125 134.464844 C 28.078125 130.851562 22.660156 130.851562 22.660156 134.464844 C 22.660156 138.082031 28.078125 138.082031 28.078125 134.464844 "/>
<path style=" stroke:none;fill-rule:evenodd;fill:rgb(0%,0%,0%);fill-opacity:1;" d="M 290.878906 134.464844 C 290.878906 130.851562 285.457031 130.851562 285.457031 134.464844 C 285.457031 138.082031 290.878906 138.082031 290.878906 134.464844 "/>
<path style=" stroke:none;fill-rule:evenodd;fill:rgb(0%,0%,0%);fill-opacity:1;" d="M 290.878906 22.867188 C 290.878906 19.25 285.457031 19.25 285.457031 22.867188 C 285.457031 26.480469 290.878906 26.480469 290.878906 22.867188 "/>
</g>
</svg>
