<?xml version="1.0" encoding="UTF-8"?>
<svg xmlns="http://www.w3.org/2000/svg" xmlns:xlink="http://www.w3.org/1999/xlink" width="84pt" height="108pt" viewBox="0 0 84 108" version="1.1">
<g id="surface37343">
<path style=" stroke:none;fill-rule:evenodd;fill:rgb(100%,100%,100%);fill-opacity:1;" d="M 29.4375 79.285156 C 29.4375 74.914062 22.878906 74.914062 22.878906 79.285156 C 22.878906 83.660156 29.4375 83.660156 29.4375 79.285156 "/>
<path style=" stroke:none;fill-rule:evenodd;fill:rgb(100%,100%,100%);fill-opacity:1;" d="M 36.523438 65.109375 C 36.523438 60.738281 29.964844 60.738281 29.964844 65.109375 C 29.964844 69.480469 36.523438 69.480469 36.523438 65.109375 "/>
<path style=" stroke:none;fill-rule:evenodd;fill:rgb(100%,100%,100%);fill-opacity:1;" d="M 36.445312 44.558594 C 36.445312 40.1875 29.882812 40.1875 29.882812 44.558594 C 29.882812 48.933594 36.445312 48.933594 36.445312 44.558594 "/>
<path style=" stroke:none;fill-rule:evenodd;fill:rgb(100%,100%,100%);fill-opacity:1;" d="M 29.351562 30.382812 C 29.351562 26.011719 22.792969 26.011719 22.792969 30.382812 C 22.792969 34.757812 29.351562 34.757812 29.351562 30.382812 "/>
<path style=" stroke:none;fill-rule:evenodd;fill:rgb(100%,100%,100%);fill-opacity:1;" d="M 36.445312 16.214844 C 36.445312 11.839844 29.882812 11.839844 29.882812 16.214844 C 29.882812 20.585938 36.445312 20.585938 36.445312 16.214844 "/>
<path style=" stroke:none;fill-rule:evenodd;fill:rgb(100%,100%,100%);fill-opacity:1;" d="M 65.351562 16.214844 C 65.351562 11.839844 58.792969 11.839844 58.792969 16.214844 C 58.792969 20.585938 65.351562 20.585938 65.351562 16.214844 "/>
<path style=" stroke:none;fill-rule:evenodd;fill:rgb(100%,100%,100%);fill-opacity:1;" d="M 65.351562 44.558594 C 65.351562 40.1875 58.792969 40.1875 58.792969 44.558594 C 58.792969 48.933594 65.351562 48.933594 65.351562 44.558594 "/>
<path style=" stroke:none;fill-rule:evenodd;fill:rgb(100%,100%,100%);fill-opacity:1;" d="M 65.4375 65.109375 C 65.4375 60.738281 58.878906 60.738281 58.878906 65.109375 C 58.878906 69.480469 65.4375 69.480469 65.4375 65.109375 "/>
<path style=" stroke:none;fill-rule:evenodd;fill:rgb(100%,100%,100%);fill-opacity:1;" d="M 65.4375 93.457031 C 65.4375 89.082031 58.878906 89.082031 58.878906 93.457031 C 58.878906 97.828125 65.4375 97.828125 65.4375 93.457031 "/>
<path style=" stroke:none;fill-rule:evenodd;fill:rgb(100%,100%,100%);fill-opacity:1;" d="M 36.523438 93.457031 C 36.523438 89.082031 29.964844 89.082031 29.964844 93.457031 C 29.964844 97.828125 36.523438 97.828125 36.523438 93.457031 "/>
<path style=" stroke:none;fill-rule:evenodd;fill:rgb(100%,100%,100%);fill-opacity:1;" d="M 48.324219 71.207031 L 52.578125 71.207031 L 52.578125 67.519531 L 48.324219 67.519531 Z M 48.324219 71.207031 "/>
<path style=" stroke:none;fill-rule:evenodd;fill:rgb(100%,100%,100%);fill-opacity:1;" d="M 48.324219 65.820312 L 52.578125 65.820312 L 52.578125 62.132812 L 48.324219 62.132812 Z M 48.324219 65.820312 "/>
<path style=" stroke:none;fill-rule:evenodd;fill:rgb(100%,100%,100%);fill-opacity:1;" d="M 23.863281 58.671875 L 28.117188 58.671875 L 28.117188 54.984375 L 23.863281 54.984375 Z M 23.863281 58.671875 "/>
<path style=" stroke:none;fill-rule:evenodd;fill:rgb(100%,100%,100%);fill-opacity:1;" d="M 23.863281 53.285156 L 28.117188 53.285156 L 28.117188 49.597656 L 23.863281 49.597656 Z M 23.863281 53.285156 "/>
<path style=" stroke:none;fill-rule:evenodd;fill:rgb(100%,100%,100%);fill-opacity:1;" d="M 68.277344 90.449219 L 71.964844 90.449219 L 71.964844 86.195312 L 68.277344 86.195312 Z M 68.277344 90.449219 "/>
<path style=" stroke:none;fill-rule:evenodd;fill:rgb(100%,100%,100%);fill-opacity:1;" d="M 73.664062 90.449219 L 77.351562 90.449219 L 77.351562 86.195312 L 73.664062 86.195312 Z M 73.664062 90.449219 "/>
<path style=" stroke:none;fill-rule:evenodd;fill:rgb(100%,100%,100%);fill-opacity:1;" d="M 59.460938 83.558594 L 63.429688 83.558594 L 63.429688 81.289062 L 59.460938 81.289062 Z M 59.460938 83.558594 "/>
<path style=" stroke:none;fill-rule:evenodd;fill:rgb(100%,100%,100%);fill-opacity:1;" d="M 59.460938 75.0625 L 63.429688 75.0625 L 63.429688 72.792969 L 59.460938 72.792969 Z M 59.460938 75.0625 "/>
<path style=" stroke:none;fill-rule:evenodd;fill:rgb(100%,100%,100%);fill-opacity:1;" d="M 37.496094 59.71875 L 41.464844 59.71875 L 41.464844 57.449219 L 37.496094 57.449219 Z M 37.496094 59.71875 "/>
<path style=" stroke:none;fill-rule:evenodd;fill:rgb(100%,100%,100%);fill-opacity:1;" d="M 37.496094 51.222656 L 41.464844 51.222656 L 41.464844 48.953125 L 37.496094 48.953125 Z M 37.496094 51.222656 "/>
<path style=" stroke:none;fill-rule:evenodd;fill:rgb(100%,100%,100%);fill-opacity:1;" d="M 37.503906 55.472656 L 42.890625 55.472656 L 42.890625 53.203125 L 37.503906 53.203125 Z M 37.503906 55.472656 "/>
<path style=" stroke:none;fill-rule:evenodd;fill:rgb(100%,100%,100%);fill-opacity:1;" d="M 59.472656 79.3125 L 64.859375 79.3125 L 64.859375 77.042969 L 59.472656 77.042969 Z M 59.472656 79.3125 "/>
<path style="fill:none;stroke-width:0.06;stroke-linecap:round;stroke-linejoin:miter;stroke:rgb(100%,100%,100%);stroke-opacity:1;stroke-miterlimit:10;" d="M 1.00609 0.394803 L 1.00609 0.374783 " transform="matrix(72,0,0,-72,0.29592,105.88284)"/>
<path style="fill:none;stroke-width:0.06;stroke-linecap:round;stroke-linejoin:miter;stroke:rgb(100%,100%,100%);stroke-opacity:1;stroke-miterlimit:10;" d="M 1.00609 0.374783 L 0.922485 0.374783 " transform="matrix(72,0,0,-72,0.29592,105.88284)"/>
<path style="fill:none;stroke-width:0.06;stroke-linecap:round;stroke-linejoin:miter;stroke:rgb(100%,100%,100%);stroke-opacity:1;stroke-miterlimit:10;" d="M 0.922485 0.374783 L 0.922485 0.394803 " transform="matrix(72,0,0,-72,0.29592,105.88284)"/>
<path style="fill:none;stroke-width:0.06;stroke-linecap:round;stroke-linejoin:miter;stroke:rgb(100%,100%,100%);stroke-opacity:1;stroke-miterlimit:10;" d="M 0.922485 0.394803 L 1.00609 0.394803 " transform="matrix(72,0,0,-72,0.29592,105.88284)"/>
<path style="fill:none;stroke-width:0.06;stroke-linecap:round;stroke-linejoin:miter;stroke:rgb(100%,100%,100%);stroke-opacity:1;stroke-miterlimit:10;" d="M 0.701022 0.705892 L 0.701022 0.725912 " transform="matrix(72,0,0,-72,0.29592,105.88284)"/>
<path style="fill:none;stroke-width:0.06;stroke-linecap:round;stroke-linejoin:miter;stroke:rgb(100%,100%,100%);stroke-opacity:1;stroke-miterlimit:10;" d="M 0.701022 0.705892 L 0.617418 0.705892 " transform="matrix(72,0,0,-72,0.29592,105.88284)"/>
<path style="fill:none;stroke-width:0.06;stroke-linecap:round;stroke-linejoin:miter;stroke:rgb(100%,100%,100%);stroke-opacity:1;stroke-miterlimit:10;" d="M 0.617418 0.705892 L 0.617418 0.725912 " transform="matrix(72,0,0,-72,0.29592,105.88284)"/>
<path style="fill:none;stroke-width:0.06;stroke-linecap:round;stroke-linejoin:miter;stroke:rgb(100%,100%,100%);stroke-opacity:1;stroke-miterlimit:10;" d="M 0.617418 0.725912 L 0.701022 0.725912 " transform="matrix(72,0,0,-72,0.29592,105.88284)"/>
<path style=" stroke:none;fill-rule:evenodd;fill:rgb(100%,100%,100%);fill-opacity:1;" d="M 36.789062 38.660156 L 41.605469 38.660156 L 41.605469 33.554688 L 36.789062 33.554688 Z M 36.789062 38.660156 "/>
<path style=" stroke:none;fill-rule:evenodd;fill:rgb(100%,100%,100%);fill-opacity:1;" d="M 36.789062 27.039062 L 41.605469 27.039062 L 41.605469 21.933594 L 36.789062 21.933594 Z M 36.789062 27.039062 "/>
<path style=" stroke:none;fill-rule:evenodd;fill:rgb(100%,100%,100%);fill-opacity:1;" d="M 36.335938 76.195312 L 41.152344 76.195312 L 41.152344 71.089844 L 36.335938 71.089844 Z M 36.335938 76.195312 "/>
<path style=" stroke:none;fill-rule:evenodd;fill:rgb(100%,100%,100%);fill-opacity:1;" d="M 36.335938 87.8125 L 41.152344 87.8125 L 41.152344 82.707031 L 36.335938 82.707031 Z M 36.335938 87.8125 "/>
<path style=" stroke:none;fill-rule:evenodd;fill:rgb(100%,100%,100%);fill-opacity:1;" d="M 80.453125 34.292969 C 80.453125 28.535156 71.8125 28.535156 71.8125 34.292969 C 71.8125 40.054688 80.453125 40.054688 80.453125 34.292969 "/>
<path style=" stroke:none;fill-rule:evenodd;fill:rgb(100%,100%,100%);fill-opacity:1;" d="M 80.230469 20.546875 C 80.230469 14.789062 71.589844 14.789062 71.589844 20.546875 C 71.589844 26.308594 80.230469 26.308594 80.230469 20.546875 "/>
<path style=" stroke:none;fill-rule:evenodd;fill:rgb(100%,100%,100%);fill-opacity:1;" d="M 15.738281 13.6875 C 15.738281 7.925781 7.101562 7.925781 7.101562 13.6875 C 7.101562 19.445312 15.738281 19.445312 15.738281 13.6875 "/>
<path style=" stroke:none;fill-rule:evenodd;fill:rgb(100%,100%,100%);fill-opacity:1;" d="M 14.890625 27.152344 C 14.890625 21.390625 6.25 21.390625 6.25 27.152344 C 6.25 32.910156 14.890625 32.910156 14.890625 27.152344 "/>
<path style=" stroke:none;fill-rule:evenodd;fill:rgb(100%,100%,100%);fill-opacity:1;" d="M 19.226562 51.308594 C 19.226562 45.929688 11.160156 45.929688 11.160156 51.308594 C 11.160156 56.683594 19.226562 56.683594 19.226562 51.308594 "/>
<path style=" stroke:none;fill-rule:evenodd;fill:rgb(100%,100%,100%);fill-opacity:1;" d="M 17.804688 71.855469 C 17.804688 66.480469 9.742188 66.480469 9.742188 71.855469 C 9.742188 77.230469 17.804688 77.230469 17.804688 71.855469 "/>
<path style=" stroke:none;fill-rule:evenodd;fill:rgb(100%,100%,100%);fill-opacity:1;" d="M 17.804688 82.484375 C 17.804688 77.105469 9.742188 77.105469 9.742188 82.484375 C 9.742188 87.859375 17.804688 87.859375 17.804688 82.484375 "/>
<path style=" stroke:none;fill-rule:evenodd;fill:rgb(100%,100%,100%);fill-opacity:1;" d="M 78.746094 65.476562 C 78.746094 60.101562 70.683594 60.101562 70.683594 65.476562 C 70.683594 70.851562 78.746094 70.851562 78.746094 65.476562 "/>
<path style=" stroke:none;fill-rule:evenodd;fill:rgb(100%,100%,100%);fill-opacity:1;" d="M 78.746094 53.429688 C 78.746094 48.054688 70.683594 48.054688 70.683594 53.429688 C 70.683594 58.808594 78.746094 58.808594 78.746094 53.429688 "/>
<path style="fill:none;stroke-width:0.086;stroke-linecap:round;stroke-linejoin:miter;stroke:rgb(100%,100%,100%);stroke-opacity:1;stroke-miterlimit:10;" d="M 0.857978 0.851726 L 1.00061 0.994304 " transform="matrix(72,0,0,-72,0.29592,105.88284)"/>
<path style="fill:none;stroke-width:0.086;stroke-linecap:round;stroke-linejoin:miter;stroke:rgb(100%,100%,100%);stroke-opacity:1;stroke-miterlimit:10;" d="M 1.00061 0.994304 L 1.05329 0.994304 " transform="matrix(72,0,0,-72,0.29592,105.88284)"/>
<path style="fill:none;stroke-width:0.086;stroke-linecap:round;stroke-linejoin:miter;stroke:rgb(100%,100%,100%);stroke-opacity:1;stroke-miterlimit:10;" d="M 1.050198 1.185222 L 1.050198 1.282824 " transform="matrix(72,0,0,-72,0.29592,105.88284)"/>
<path style="fill:none;stroke-width:0.086;stroke-linecap:round;stroke-linejoin:miter;stroke:rgb(100%,100%,100%);stroke-opacity:1;stroke-miterlimit:10;" d="M 1.050198 1.282824 L 0.964694 1.368273 " transform="matrix(72,0,0,-72,0.29592,105.88284)"/>
<path style="fill:none;stroke-width:0.086;stroke-linecap:round;stroke-linejoin:miter;stroke:rgb(100%,100%,100%);stroke-opacity:1;stroke-miterlimit:10;" d="M 0.964694 1.368273 L 0.728475 1.368273 " transform="matrix(72,0,0,-72,0.29592,105.88284)"/>
<path style="fill:none;stroke-width:0.086;stroke-linecap:round;stroke-linejoin:miter;stroke:rgb(100%,100%,100%);stroke-opacity:1;stroke-miterlimit:10;" d="M 0.728475 1.368273 L 0.689087 1.368273 " transform="matrix(72,0,0,-72,0.29592,105.88284)"/>
<path style="fill:none;stroke-width:0.086;stroke-linecap:round;stroke-linejoin:miter;stroke:rgb(100%,100%,100%);stroke-opacity:1;stroke-miterlimit:10;" d="M 0.689087 1.368273 L 0.25609 1.368273 " transform="matrix(72,0,0,-72,0.29592,105.88284)"/>
<path style="fill:none;stroke-width:0.086;stroke-linecap:round;stroke-linejoin:miter;stroke:rgb(100%,100%,100%);stroke-opacity:1;stroke-miterlimit:10;" d="M 0.25609 1.368273 L 0.168308 1.280491 " transform="matrix(72,0,0,-72,0.29592,105.88284)"/>
<path style="fill:none;stroke-width:0.086;stroke-linecap:round;stroke-linejoin:miter;stroke:rgb(100%,100%,100%);stroke-opacity:1;stroke-miterlimit:10;" d="M 0.168308 1.280491 L 0.154473 1.280491 " transform="matrix(72,0,0,-72,0.29592,105.88284)"/>
<path style="fill:none;stroke-width:0.086;stroke-linecap:round;stroke-linejoin:miter;stroke:rgb(100%,100%,100%);stroke-opacity:1;stroke-miterlimit:10;" d="M 0.1427 1.093479 L 0.1427 1.088 " transform="matrix(72,0,0,-72,0.29592,105.88284)"/>
<path style="fill:none;stroke-width:0.086;stroke-linecap:round;stroke-linejoin:miter;stroke:rgb(100%,100%,100%);stroke-opacity:1;stroke-miterlimit:10;" d="M 0.1427 1.088 L 0.187188 1.043512 " transform="matrix(72,0,0,-72,0.29592,105.88284)"/>
<path style="fill:none;stroke-width:0.086;stroke-linecap:round;stroke-linejoin:miter;stroke:rgb(100%,100%,100%);stroke-opacity:1;stroke-miterlimit:10;" d="M 0.187188 1.043512 L 0.352878 1.043512 " transform="matrix(72,0,0,-72,0.29592,105.88284)"/>
<path style="fill:none;stroke-width:0.086;stroke-linecap:round;stroke-linejoin:miter;stroke:rgb(100%,100%,100%);stroke-opacity:1;stroke-miterlimit:10;" d="M 0.352878 1.043512 L 0.357978 1.048611 " transform="matrix(72,0,0,-72,0.29592,105.88284)"/>
<path style="fill:none;stroke-width:0.086;stroke-linecap:round;stroke-linejoin:miter;stroke:rgb(100%,100%,100%);stroke-opacity:1;stroke-miterlimit:10;" d="M 0.357978 1.048611 L 0.357978 1.146973 " transform="matrix(72,0,0,-72,0.29592,105.88284)"/>
<path style="fill:none;stroke-width:0.086;stroke-linecap:round;stroke-linejoin:miter;stroke:rgb(100%,100%,100%);stroke-opacity:1;stroke-miterlimit:10;" d="M 0.357978 1.146973 L 0.456502 1.245389 " transform="matrix(72,0,0,-72,0.29592,105.88284)"/>
<path style="fill:none;stroke-width:0.04;stroke-linecap:round;stroke-linejoin:miter;stroke:rgb(100%,100%,100%);stroke-opacity:1;stroke-miterlimit:10;" d="M 0.0690779 0.649794 L 0.0690779 0.187175 " transform="matrix(72,0,0,-72,0.29592,105.88284)"/>
<path style="fill:none;stroke-width:0.04;stroke-linecap:round;stroke-linejoin:miter;stroke:rgb(100%,100%,100%);stroke-opacity:1;stroke-miterlimit:10;" d="M 0.0690779 0.187175 L 0.197008 0.0591909 " transform="matrix(72,0,0,-72,0.29592,105.88284)"/>
<path style="fill:none;stroke-width:0.04;stroke-linecap:round;stroke-linejoin:miter;stroke:rgb(100%,100%,100%);stroke-opacity:1;stroke-miterlimit:10;" d="M 0.197008 0.0591909 L 0.767917 0.0591909 " transform="matrix(72,0,0,-72,0.29592,105.88284)"/>
<path style="fill:none;stroke-width:0.04;stroke-linecap:round;stroke-linejoin:miter;stroke:rgb(100%,100%,100%);stroke-opacity:1;stroke-miterlimit:10;" d="M 0.767917 0.0591909 L 0.859226 0.150608 " transform="matrix(72,0,0,-72,0.29592,105.88284)"/>
<path style="fill:none;stroke-width:0.04;stroke-linecap:round;stroke-linejoin:miter;stroke:rgb(100%,100%,100%);stroke-opacity:1;stroke-miterlimit:10;" d="M 0.859226 0.150608 L 0.859226 0.172581 " transform="matrix(72,0,0,-72,0.29592,105.88284)"/>
<path style="fill:none;stroke-width:0.04;stroke-linecap:round;stroke-linejoin:miter;stroke:rgb(100%,100%,100%);stroke-opacity:1;stroke-miterlimit:10;" d="M 0.531697 0.226509 L 0.531697 0.284017 " transform="matrix(72,0,0,-72,0.29592,105.88284)"/>
<path style="fill:none;stroke-width:0.04;stroke-linecap:round;stroke-linejoin:miter;stroke:rgb(100%,100%,100%);stroke-opacity:1;stroke-miterlimit:10;" d="M 0.531697 0.284017 L 0.533976 0.286404 " transform="matrix(72,0,0,-72,0.29592,105.88284)"/>
<path style="fill:none;stroke-width:0.04;stroke-linecap:round;stroke-linejoin:miter;stroke:rgb(100%,100%,100%);stroke-opacity:1;stroke-miterlimit:10;" d="M 0.531697 0.226509 L 0.477715 0.172581 " transform="matrix(72,0,0,-72,0.29592,105.88284)"/>
<path style="fill:none;stroke-width:0.04;stroke-linecap:round;stroke-linejoin:miter;stroke:rgb(100%,100%,100%);stroke-opacity:1;stroke-miterlimit:10;" d="M 0.477715 0.172581 L 0.457587 0.172581 " transform="matrix(72,0,0,-72,0.29592,105.88284)"/>
<path style="fill:none;stroke-width:0.04;stroke-linecap:round;stroke-linejoin:miter;stroke:rgb(100%,100%,100%);stroke-opacity:1;stroke-miterlimit:10;" d="M 0.533976 0.447809 L 0.457587 0.524197 " transform="matrix(72,0,0,-72,0.29592,105.88284)"/>
<path style="fill:none;stroke-width:0.04;stroke-linecap:round;stroke-linejoin:miter;stroke:rgb(100%,100%,100%);stroke-opacity:1;stroke-miterlimit:10;" d="M 0.457587 0.524197 L 0.457587 0.566298 " transform="matrix(72,0,0,-72,0.29592,105.88284)"/>
<path style="fill:none;stroke-width:0.04;stroke-linecap:round;stroke-linejoin:miter;stroke:rgb(100%,100%,100%);stroke-opacity:1;stroke-miterlimit:10;" d="M 0.457587 0.566298 L 0.310018 0.566298 " transform="matrix(72,0,0,-72,0.29592,105.88284)"/>
<path style="fill:none;stroke-width:0.04;stroke-linecap:round;stroke-linejoin:miter;stroke:rgb(100%,100%,100%);stroke-opacity:1;stroke-miterlimit:10;" d="M 0.310018 0.566298 L 0.275675 0.600586 " transform="matrix(72,0,0,-72,0.29592,105.88284)"/>
<path style="fill:none;stroke-width:0.04;stroke-linecap:round;stroke-linejoin:miter;stroke:rgb(100%,100%,100%);stroke-opacity:1;stroke-miterlimit:10;" d="M 0.275675 0.600586 L 0.167494 0.600586 " transform="matrix(72,0,0,-72,0.29592,105.88284)"/>
<path style="fill:none;stroke-width:0.04;stroke-linecap:round;stroke-linejoin:miter;stroke:rgb(100%,100%,100%);stroke-opacity:1;stroke-miterlimit:10;" d="M 0.167494 0.600586 L 0.0985918 0.66938 " transform="matrix(72,0,0,-72,0.29592,105.88284)"/>
<path style="fill:none;stroke-width:0.04;stroke-linecap:round;stroke-linejoin:miter;stroke:rgb(100%,100%,100%);stroke-opacity:1;stroke-miterlimit:10;" d="M 0.0985918 0.66938 L 0.0985918 0.679308 " transform="matrix(72,0,0,-72,0.29592,105.88284)"/>
<path style="fill:none;stroke-width:0.04;stroke-linecap:round;stroke-linejoin:miter;stroke:rgb(100%,100%,100%);stroke-opacity:1;stroke-miterlimit:10;" d="M 0.0985918 0.679308 L 0.0690779 0.649794 " transform="matrix(72,0,0,-72,0.29592,105.88284)"/>
<path style="fill:none;stroke-width:0.04;stroke-linecap:round;stroke-linejoin:miter;stroke:rgb(100%,100%,100%);stroke-opacity:1;stroke-miterlimit:10;" d="M 0.0985918 0.679308 L 0.0985918 1.049425 " transform="matrix(72,0,0,-72,0.29592,105.88284)"/>
<path style="fill:none;stroke-width:0.04;stroke-linecap:round;stroke-linejoin:miter;stroke:rgb(100%,100%,100%);stroke-opacity:1;stroke-miterlimit:10;" d="M 0.0985918 1.049425 L 0.1427 1.093479 " transform="matrix(72,0,0,-72,0.29592,105.88284)"/>
<path style="fill:none;stroke-width:0.04;stroke-linecap:round;stroke-linejoin:miter;stroke:rgb(100%,100%,100%);stroke-opacity:1;stroke-miterlimit:10;" d="M 0.456502 1.214302 L 0.540324 1.13048 " transform="matrix(72,0,0,-72,0.29592,105.88284)"/>
<path style="fill:none;stroke-width:0.04;stroke-linecap:round;stroke-linejoin:miter;stroke:rgb(100%,100%,100%);stroke-opacity:1;stroke-miterlimit:10;" d="M 0.456502 1.214302 L 0.456502 1.245389 " transform="matrix(72,0,0,-72,0.29592,105.88284)"/>
<path style="fill:none;stroke-width:0.04;stroke-linecap:round;stroke-linejoin:miter;stroke:rgb(100%,100%,100%);stroke-opacity:1;stroke-miterlimit:10;" d="M 0.540324 0.969076 L 0.462795 0.891493 " transform="matrix(72,0,0,-72,0.29592,105.88284)"/>
<path style="fill:none;stroke-width:0.04;stroke-linecap:round;stroke-linejoin:miter;stroke:rgb(100%,100%,100%);stroke-opacity:1;stroke-miterlimit:10;" d="M 0.462795 0.891493 L 0.462795 0.846626 " transform="matrix(72,0,0,-72,0.29592,105.88284)"/>
<path style="fill:none;stroke-width:0.04;stroke-linecap:round;stroke-linejoin:miter;stroke:rgb(100%,100%,100%);stroke-opacity:1;stroke-miterlimit:10;" d="M 0.462795 0.846626 L 0.462795 0.845378 " transform="matrix(72,0,0,-72,0.29592,105.88284)"/>
<path style="fill:none;stroke-width:0.024;stroke-linecap:round;stroke-linejoin:miter;stroke:rgb(100%,100%,100%);stroke-opacity:1;stroke-miterlimit:10;" d="M 0.462795 0.845378 L 0.462795 0.728516 " transform="matrix(72,0,0,-72,0.29592,105.88284)"/>
<path style="fill:none;stroke-width:0.024;stroke-linecap:round;stroke-linejoin:miter;stroke:rgb(100%,100%,100%);stroke-opacity:1;stroke-miterlimit:10;" d="M 0.462795 0.728516 L 0.472615 0.718696 " transform="matrix(72,0,0,-72,0.29592,105.88284)"/>
<path style="fill:none;stroke-width:0.024;stroke-linecap:round;stroke-linejoin:miter;stroke:rgb(100%,100%,100%);stroke-opacity:1;stroke-miterlimit:10;" d="M 0.472615 0.718696 L 0.5515 0.718696 " transform="matrix(72,0,0,-72,0.29592,105.88284)"/>
<path style="fill:none;stroke-width:0.024;stroke-linecap:round;stroke-linejoin:miter;stroke:rgb(100%,100%,100%);stroke-opacity:1;stroke-miterlimit:10;" d="M 0.5515 0.718696 L 0.554212 0.715875 " transform="matrix(72,0,0,-72,0.29592,105.88284)"/>
<path style="fill:none;stroke-width:0.024;stroke-linecap:round;stroke-linejoin:miter;stroke:rgb(100%,100%,100%);stroke-opacity:1;stroke-miterlimit:10;" d="M 0.548516 0.774903 L 0.600599 0.826878 " transform="matrix(72,0,0,-72,0.29592,105.88284)"/>
<path style="fill:none;stroke-width:0.024;stroke-linecap:round;stroke-linejoin:miter;stroke:rgb(100%,100%,100%);stroke-opacity:1;stroke-miterlimit:10;" d="M 0.600599 0.826878 L 0.630113 0.826878 " transform="matrix(72,0,0,-72,0.29592,105.88284)"/>
<path style="fill:none;stroke-width:0.024;stroke-linecap:round;stroke-linejoin:miter;stroke:rgb(100%,100%,100%);stroke-opacity:1;stroke-miterlimit:10;" d="M 0.630113 0.826878 L 0.669393 0.86632 " transform="matrix(72,0,0,-72,0.29592,105.88284)"/>
<path style="fill:none;stroke-width:0.024;stroke-linecap:round;stroke-linejoin:miter;stroke:rgb(100%,100%,100%);stroke-opacity:1;stroke-miterlimit:10;" d="M 0.669393 0.86632 L 0.787611 0.74821 " transform="matrix(72,0,0,-72,0.29592,105.88284)"/>
<path style="fill:none;stroke-width:0.024;stroke-linecap:round;stroke-linejoin:miter;stroke:rgb(100%,100%,100%);stroke-opacity:1;stroke-miterlimit:10;" d="M 0.787611 0.74821 L 0.787611 0.659614 " transform="matrix(72,0,0,-72,0.29592,105.88284)"/>
<path style="fill:none;stroke-width:0.024;stroke-linecap:round;stroke-linejoin:miter;stroke:rgb(100%,100%,100%);stroke-opacity:1;stroke-miterlimit:10;" d="M 0.787611 0.659614 L 0.767917 0.63992 " transform="matrix(72,0,0,-72,0.29592,105.88284)"/>
<path style="fill:none;stroke-width:0.024;stroke-linecap:round;stroke-linejoin:miter;stroke:rgb(100%,100%,100%);stroke-opacity:1;stroke-miterlimit:10;" d="M 0.767917 0.63992 L 0.767917 0.492296 " transform="matrix(72,0,0,-72,0.29592,105.88284)"/>
<path style="fill:none;stroke-width:0.024;stroke-linecap:round;stroke-linejoin:miter;stroke:rgb(100%,100%,100%);stroke-opacity:1;stroke-miterlimit:10;" d="M 0.767917 0.492296 L 0.816311 0.443794 " transform="matrix(72,0,0,-72,0.29592,105.88284)"/>
<path style="fill:none;stroke-width:0.024;stroke-linecap:round;stroke-linejoin:miter;stroke:rgb(100%,100%,100%);stroke-opacity:1;stroke-miterlimit:10;" d="M 0.816311 0.443794 L 0.849297 0.443794 " transform="matrix(72,0,0,-72,0.29592,105.88284)"/>
<path style="fill:none;stroke-width:0.024;stroke-linecap:round;stroke-linejoin:miter;stroke:rgb(100%,100%,100%);stroke-opacity:1;stroke-miterlimit:10;" d="M 0.696574 0.507216 L 0.669393 0.480089 " transform="matrix(72,0,0,-72,0.29592,105.88284)"/>
<path style="fill:none;stroke-width:0.024;stroke-linecap:round;stroke-linejoin:miter;stroke:rgb(100%,100%,100%);stroke-opacity:1;stroke-miterlimit:10;" d="M 0.669393 0.480089 L 0.669393 0.4037 " transform="matrix(72,0,0,-72,0.29592,105.88284)"/>
<path style="fill:none;stroke-width:0.024;stroke-linecap:round;stroke-linejoin:miter;stroke:rgb(100%,100%,100%);stroke-opacity:1;stroke-miterlimit:10;" d="M 0.669393 0.4037 L 0.635213 0.369412 " transform="matrix(72,0,0,-72,0.29592,105.88284)"/>
<path style="fill:none;stroke-width:0.024;stroke-linecap:round;stroke-linejoin:miter;stroke:rgb(100%,100%,100%);stroke-opacity:1;stroke-miterlimit:10;" d="M 0.635213 0.369412 L 0.359226 0.369412 " transform="matrix(72,0,0,-72,0.29592,105.88284)"/>
<path style="fill:none;stroke-width:0.024;stroke-linecap:round;stroke-linejoin:miter;stroke:rgb(100%,100%,100%);stroke-opacity:1;stroke-miterlimit:10;" d="M 0.6191 0.581977 L 0.544176 0.656901 " transform="matrix(72,0,0,-72,0.29592,105.88284)"/>
<path style="fill:none;stroke-width:0.024;stroke-linecap:round;stroke-linejoin:miter;stroke:rgb(100%,100%,100%);stroke-opacity:1;stroke-miterlimit:10;" d="M 0.544176 0.656901 L 0.495022 0.656901 " transform="matrix(72,0,0,-72,0.29592,105.88284)"/>
<path style="fill:none;stroke-width:0.024;stroke-linecap:round;stroke-linejoin:miter;stroke:rgb(100%,100%,100%);stroke-opacity:1;stroke-miterlimit:10;" d="M 0.495022 0.656901 L 0.492309 0.659614 " transform="matrix(72,0,0,-72,0.29592,105.88284)"/>
<path style="fill:none;stroke-width:0.024;stroke-linecap:round;stroke-linejoin:miter;stroke:rgb(100%,100%,100%);stroke-opacity:1;stroke-miterlimit:10;" d="M 0.492309 0.659614 L 0.378485 0.659614 " transform="matrix(72,0,0,-72,0.29592,105.88284)"/>
<path style="fill:none;stroke-width:0.024;stroke-linecap:round;stroke-linejoin:miter;stroke:rgb(100%,100%,100%);stroke-opacity:1;stroke-miterlimit:10;" d="M 0.378485 0.659614 L 0.356893 0.681315 " transform="matrix(72,0,0,-72,0.29592,105.88284)"/>
<path style="fill:none;stroke-width:0.024;stroke-linecap:round;stroke-linejoin:miter;stroke:rgb(100%,100%,100%);stroke-opacity:1;stroke-miterlimit:10;" d="M 0.356893 0.756077 L 0.208781 0.756077 " transform="matrix(72,0,0,-72,0.29592,105.88284)"/>
<path style="fill:none;stroke-width:0.024;stroke-linecap:round;stroke-linejoin:miter;stroke:rgb(100%,100%,100%);stroke-opacity:1;stroke-miterlimit:10;" d="M 0.208781 0.756077 L 0.206882 0.757976 " transform="matrix(72,0,0,-72,0.29592,105.88284)"/>
<path style="fill:none;stroke-width:0.024;stroke-linecap:round;stroke-linejoin:miter;stroke:rgb(100%,100%,100%);stroke-opacity:1;stroke-miterlimit:10;" d="M 0.456502 0.851726 L 0.457587 0.851726 " transform="matrix(72,0,0,-72,0.29592,105.88284)"/>
<path style="fill:none;stroke-width:0.024;stroke-linecap:round;stroke-linejoin:miter;stroke:rgb(100%,100%,100%);stroke-opacity:1;stroke-miterlimit:10;" d="M 0.457587 0.851726 L 0.462795 0.846626 " transform="matrix(72,0,0,-72,0.29592,105.88284)"/>
<path style="fill:none;stroke-width:0.024;stroke-linecap:round;stroke-linejoin:miter;stroke:rgb(100%,100%,100%);stroke-opacity:1;stroke-miterlimit:10;" d="M 0.544176 0.774903 L 0.548516 0.774903 " transform="matrix(72,0,0,-72,0.29592,105.88284)"/>
<path style="fill:none;stroke-width:0.024;stroke-linecap:round;stroke-linejoin:miter;stroke:rgb(100%,100%,100%);stroke-opacity:1;stroke-miterlimit:10;" d="M 0.669393 0.86632 L 0.689087 0.886014 " transform="matrix(72,0,0,-72,0.29592,105.88284)"/>
<path style="fill:none;stroke-width:0.024;stroke-linecap:round;stroke-linejoin:miter;stroke:rgb(100%,100%,100%);stroke-opacity:1;stroke-miterlimit:10;" d="M 0.689087 0.886014 L 0.689087 1.368273 " transform="matrix(72,0,0,-72,0.29592,105.88284)"/>
<path style="fill:none;stroke-width:0.024;stroke-linecap:round;stroke-linejoin:miter;stroke:rgb(100%,100%,100%);stroke-opacity:1;stroke-miterlimit:10;" d="M 0.728475 1.368273 L 0.735582 1.36122 " transform="matrix(72,0,0,-72,0.29592,105.88284)"/>
<path style="fill:none;stroke-width:0.024;stroke-linecap:round;stroke-linejoin:miter;stroke:rgb(100%,100%,100%);stroke-opacity:1;stroke-miterlimit:10;" d="M 0.696574 0.581977 L 0.6191 0.581977 " transform="matrix(72,0,0,-72,0.29592,105.88284)"/>
<path style="fill:none;stroke-width:0.032;stroke-linecap:round;stroke-linejoin:miter;stroke:rgb(100%,100%,100%);stroke-opacity:1;stroke-miterlimit:10;" d="M 0.767917 0.384006 L 0.85852 0.384006 " transform="matrix(72,0,0,-72,0.29592,105.88284)"/>
<path style="fill:none;stroke-width:0.032;stroke-linecap:round;stroke-linejoin:miter;stroke:rgb(100%,100%,100%);stroke-opacity:1;stroke-miterlimit:10;" d="M 0.85852 0.384006 L 0.85928 0.38482 " transform="matrix(72,0,0,-72,0.29592,105.88284)"/>
<path style="fill:none;stroke-width:0.032;stroke-linecap:round;stroke-linejoin:miter;stroke:rgb(100%,100%,100%);stroke-opacity:1;stroke-miterlimit:10;" d="M 0.849297 0.325792 L 0.931274 0.243924 " transform="matrix(72,0,0,-72,0.29592,105.88284)"/>
<path style="fill:none;stroke-width:0.032;stroke-linecap:round;stroke-linejoin:miter;stroke:rgb(100%,100%,100%);stroke-opacity:1;stroke-miterlimit:10;" d="M 0.931274 0.243924 L 0.969794 0.243924 " transform="matrix(72,0,0,-72,0.29592,105.88284)"/>
<path style="fill:none;stroke-width:0.032;stroke-linecap:round;stroke-linejoin:miter;stroke:rgb(100%,100%,100%);stroke-opacity:1;stroke-miterlimit:10;" d="M 1.04461 0.243924 L 1.04461 0.247396 " transform="matrix(72,0,0,-72,0.29592,105.88284)"/>
<path style="fill:none;stroke-width:0.032;stroke-linecap:round;stroke-linejoin:miter;stroke:rgb(100%,100%,100%);stroke-opacity:1;stroke-miterlimit:10;" d="M 1.04461 0.247396 L 1.092678 0.295411 " transform="matrix(72,0,0,-72,0.29592,105.88284)"/>
<path style="fill:none;stroke-width:0.032;stroke-linecap:round;stroke-linejoin:miter;stroke:rgb(100%,100%,100%);stroke-opacity:1;stroke-miterlimit:10;" d="M 1.092678 0.295411 L 1.092678 0.502116 " transform="matrix(72,0,0,-72,0.29592,105.88284)"/>
<path style="fill:none;stroke-width:0.032;stroke-linecap:round;stroke-linejoin:miter;stroke:rgb(100%,100%,100%);stroke-opacity:1;stroke-miterlimit:10;" d="M 1.092678 0.502116 L 1.033596 0.561198 " transform="matrix(72,0,0,-72,0.29592,105.88284)"/>
<path style="fill:none;stroke-width:0.032;stroke-linecap:round;stroke-linejoin:miter;stroke:rgb(100%,100%,100%);stroke-opacity:1;stroke-miterlimit:10;" d="M 1.033596 0.728516 L 0.974623 0.728516 " transform="matrix(72,0,0,-72,0.29592,105.88284)"/>
<path style="fill:none;stroke-width:0.032;stroke-linecap:round;stroke-linejoin:miter;stroke:rgb(100%,100%,100%);stroke-opacity:1;stroke-miterlimit:10;" d="M 0.974623 0.728516 L 0.859226 0.613119 " transform="matrix(72,0,0,-72,0.29592,105.88284)"/>
<path style="fill:none;stroke-width:0.032;stroke-linecap:round;stroke-linejoin:miter;stroke:rgb(100%,100%,100%);stroke-opacity:1;stroke-miterlimit:10;" d="M 0.859226 0.613119 L 0.859226 0.566298 " transform="matrix(72,0,0,-72,0.29592,105.88284)"/>
<path style="fill:none;stroke-width:0.032;stroke-linecap:round;stroke-linejoin:miter;stroke:rgb(100%,100%,100%);stroke-opacity:1;stroke-miterlimit:10;" d="M 0.767917 0.384006 L 0.670206 0.286404 " transform="matrix(72,0,0,-72,0.29592,105.88284)"/>
<path style="fill:none;stroke-width:0.032;stroke-linecap:round;stroke-linejoin:miter;stroke:rgb(100%,100%,100%);stroke-opacity:1;stroke-miterlimit:10;" d="M 0.670206 0.286404 L 0.533976 0.286404 " transform="matrix(72,0,0,-72,0.29592,105.88284)"/>
<path style="fill:none;stroke-width:0.05;stroke-linecap:round;stroke-linejoin:miter;stroke:rgb(100%,100%,100%);stroke-opacity:1;stroke-miterlimit:10;" d="M 0.359226 0.369412 L 0.315117 0.369412 " transform="matrix(72,0,0,-72,0.29592,105.88284)"/>
<path style="fill:none;stroke-width:0.05;stroke-linecap:round;stroke-linejoin:miter;stroke:rgb(100%,100%,100%);stroke-opacity:1;stroke-miterlimit:10;" d="M 0.315117 0.369412 L 0.211982 0.472602 " transform="matrix(72,0,0,-72,0.29592,105.88284)"/>
<path style="fill:none;stroke-width:0.05;stroke-linecap:round;stroke-linejoin:miter;stroke:rgb(100%,100%,100%);stroke-opacity:1;stroke-miterlimit:10;" d="M 0.211982 0.472602 L 0.187188 0.472602 " transform="matrix(72,0,0,-72,0.29592,105.88284)"/>
<path style="fill:none;stroke-width:0.05;stroke-linecap:round;stroke-linejoin:miter;stroke:rgb(100%,100%,100%);stroke-opacity:1;stroke-miterlimit:10;" d="M 0.231676 0.369412 L 0.187188 0.324979 " transform="matrix(72,0,0,-72,0.29592,105.88284)"/>
<path style="fill:none;stroke-width:0.05;stroke-linecap:round;stroke-linejoin:miter;stroke:rgb(100%,100%,100%);stroke-opacity:1;stroke-miterlimit:10;" d="M 0.231676 0.369412 L 0.315117 0.369412 " transform="matrix(72,0,0,-72,0.29592,105.88284)"/>
<path style=" stroke:none;fill-rule:evenodd;fill:rgb(0%,0%,0%);fill-opacity:1;" d="M 14.496094 82.484375 C 14.496094 81.523438 13.054688 81.523438 13.054688 82.484375 C 13.054688 83.441406 14.496094 83.441406 14.496094 82.484375 "/>
<path style=" stroke:none;fill-rule:evenodd;fill:rgb(0%,0%,0%);fill-opacity:1;" d="M 14.496094 71.855469 C 14.496094 70.894531 13.054688 70.894531 13.054688 71.855469 C 13.054688 72.816406 14.496094 72.816406 14.496094 71.855469 "/>
<path style=" stroke:none;fill-rule:evenodd;fill:rgb(0%,0%,0%);fill-opacity:1;" d="M 15.914062 51.308594 C 15.914062 50.347656 14.472656 50.347656 14.472656 51.308594 C 14.472656 52.265625 15.914062 52.265625 15.914062 51.308594 "/>
<path style=" stroke:none;fill-rule:evenodd;fill:rgb(0%,0%,0%);fill-opacity:1;" d="M 75.433594 53.429688 C 75.433594 52.472656 73.996094 52.472656 73.996094 53.429688 C 73.996094 54.390625 75.433594 54.390625 75.433594 53.429688 "/>
<path style=" stroke:none;fill-rule:evenodd;fill:rgb(0%,0%,0%);fill-opacity:1;" d="M 75.433594 65.476562 C 75.433594 64.515625 73.996094 64.515625 73.996094 65.476562 C 73.996094 66.4375 75.433594 66.4375 75.433594 65.476562 "/>
<path style=" stroke:none;fill-rule:evenodd;fill:rgb(0%,0%,0%);fill-opacity:1;" d="M 76.855469 34.292969 C 76.855469 33.332031 75.414062 33.332031 75.414062 34.292969 C 75.414062 35.253906 76.855469 35.253906 76.855469 34.292969 "/>
<path style=" stroke:none;fill-rule:evenodd;fill:rgb(0%,0%,0%);fill-opacity:1;" d="M 76.628906 20.546875 C 76.628906 19.589844 75.191406 19.589844 75.191406 20.546875 C 75.191406 21.507812 76.628906 21.507812 76.628906 20.546875 "/>
<path style=" stroke:none;fill-rule:evenodd;fill:rgb(0%,0%,0%);fill-opacity:1;" d="M 12.140625 13.6875 C 12.140625 12.726562 10.699219 12.726562 10.699219 13.6875 C 10.699219 14.648438 12.140625 14.648438 12.140625 13.6875 "/>
<path style=" stroke:none;fill-rule:evenodd;fill:rgb(0%,0%,0%);fill-opacity:1;" d="M 11.289062 27.152344 C 11.289062 26.191406 9.851562 26.191406 9.851562 27.152344 C 9.851562 28.109375 11.289062 28.109375 11.289062 27.152344 "/>
<path style=" stroke:none;fill-rule:evenodd;fill:rgb(0%,0%,0%);fill-opacity:1;" d="M 26.792969 30.382812 C 26.792969 29.421875 25.351562 29.421875 25.351562 30.382812 C 25.351562 31.34375 26.792969 31.34375 26.792969 30.382812 "/>
<path style=" stroke:none;fill-rule:evenodd;fill:rgb(0%,0%,0%);fill-opacity:1;" d="M 33.882812 44.558594 C 33.882812 43.601562 32.445312 43.601562 32.445312 44.558594 C 32.445312 45.519531 33.882812 45.519531 33.882812 44.558594 "/>
<path style=" stroke:none;fill-rule:evenodd;fill:rgb(0%,0%,0%);fill-opacity:1;" d="M 33.964844 65.109375 C 33.964844 64.148438 32.523438 64.148438 32.523438 65.109375 C 32.523438 66.070312 33.964844 66.070312 33.964844 65.109375 "/>
<path style=" stroke:none;fill-rule:evenodd;fill:rgb(0%,0%,0%);fill-opacity:1;" d="M 26.878906 79.285156 C 26.878906 78.324219 25.4375 78.324219 25.4375 79.285156 C 25.4375 80.246094 26.878906 80.246094 26.878906 79.285156 "/>
<path style=" stroke:none;fill-rule:evenodd;fill:rgb(0%,0%,0%);fill-opacity:1;" d="M 33.964844 93.457031 C 33.964844 92.496094 32.523438 92.496094 32.523438 93.457031 C 32.523438 94.414062 33.964844 94.414062 33.964844 93.457031 "/>
<path style=" stroke:none;fill-rule:evenodd;fill:rgb(0%,0%,0%);fill-opacity:1;" d="M 62.878906 93.457031 C 62.878906 92.496094 61.4375 92.496094 61.4375 93.457031 C 61.4375 94.414062 62.878906 94.414062 62.878906 93.457031 "/>
<path style=" stroke:none;fill-rule:evenodd;fill:rgb(0%,0%,0%);fill-opacity:1;" d="M 62.878906 65.109375 C 62.878906 64.148438 61.4375 64.148438 61.4375 65.109375 C 61.4375 66.070312 62.878906 66.070312 62.878906 65.109375 "/>
<path style=" stroke:none;fill-rule:evenodd;fill:rgb(0%,0%,0%);fill-opacity:1;" d="M 62.792969 44.558594 C 62.792969 43.601562 61.351562 43.601562 61.351562 44.558594 C 61.351562 45.519531 62.792969 45.519531 62.792969 44.558594 "/>
<path style=" stroke:none;fill-rule:evenodd;fill:rgb(0%,0%,0%);fill-opacity:1;" d="M 62.792969 16.214844 C 62.792969 15.253906 61.351562 15.253906 61.351562 16.214844 C 61.351562 17.175781 62.792969 17.175781 62.792969 16.214844 "/>
<path style=" stroke:none;fill-rule:evenodd;fill:rgb(0%,0%,0%);fill-opacity:1;" d="M 33.882812 16.214844 C 33.882812 15.253906 32.445312 15.253906 32.445312 16.214844 C 32.445312 17.175781 33.882812 17.175781 33.882812 16.214844 "/>
</g>
</svg>
