<?xml version="1.0" encoding="UTF-8"?>
<svg xmlns="http://www.w3.org/2000/svg" xmlns:xlink="http://www.w3.org/1999/xlink" width="103pt" height="154pt" viewBox="0 0 103 154" version="1.1">
<g id="surface45431">
<path style="fill:none;stroke-width:0.016;stroke-linecap:round;stroke-linejoin:miter;stroke:rgb(0%,0%,0%);stroke-opacity:1;stroke-miterlimit:10;" d="M 0.0179832 0.017976 L 0.0179832 1.955096 " transform="matrix(72,0,0,-72,3.970836,147.688804)"/>
<path style="fill:none;stroke-width:0.016;stroke-linecap:round;stroke-linejoin:miter;stroke:rgb(0%,0%,0%);stroke-opacity:1;stroke-miterlimit:10;" d="M 0.0179832 1.955096 L 1.304984 1.955096 " transform="matrix(72,0,0,-72,3.970836,147.688804)"/>
<path style="fill:none;stroke-width:0.016;stroke-linecap:round;stroke-linejoin:miter;stroke:rgb(0%,0%,0%);stroke-opacity:1;stroke-miterlimit:10;" d="M 1.304984 1.955096 L 1.304984 0.017976 " transform="matrix(72,0,0,-72,3.970836,147.688804)"/>
<path style="fill:none;stroke-width:0.016;stroke-linecap:round;stroke-linejoin:miter;stroke:rgb(0%,0%,0%);stroke-opacity:1;stroke-miterlimit:10;" d="M 1.304984 0.017976 L 0.0179832 0.017976 " transform="matrix(72,0,0,-72,3.970836,147.688804)"/>
<path style=" stroke:none;fill-rule:evenodd;fill:rgb(0%,0%,0%);fill-opacity:1;" d="M 19.234375 16.792969 C 19.234375 12.570312 12.898438 12.570312 12.898438 16.792969 C 12.898438 21.015625 19.234375 21.015625 19.234375 16.792969 "/>
<path style=" stroke:none;fill-rule:evenodd;fill:rgb(0%,0%,0%);fill-opacity:1;" d="M 91.234375 16.792969 C 91.234375 12.570312 84.898438 12.570312 84.898438 16.792969 C 84.898438 21.015625 91.234375 21.015625 91.234375 16.792969 "/>
<path style=" stroke:none;fill-rule:evenodd;fill:rgb(0%,0%,0%);fill-opacity:1;" d="M 91.234375 135.59375 C 91.234375 131.367188 84.898438 131.367188 84.898438 135.59375 C 84.898438 139.816406 91.234375 139.816406 91.234375 135.59375 "/>
<path style=" stroke:none;fill-rule:evenodd;fill:rgb(0%,0%,0%);fill-opacity:1;" d="M 19.234375 135.59375 C 19.234375 131.367188 12.898438 131.367188 12.898438 135.59375 C 12.898438 139.816406 19.234375 139.816406 19.234375 135.59375 "/>
<path style=" stroke:none;fill-rule:evenodd;fill:rgb(0%,0%,0%);fill-opacity:1;" d="M 20.027344 77.097656 L 18.761719 75.832031 L 16.972656 75.832031 L 15.707031 77.097656 L 15.707031 78.886719 L 16.972656 80.152344 L 18.761719 80.152344 L 20.027344 78.886719 L 20.027344 77.097656 "/>
<path style=" stroke:none;fill-rule:evenodd;fill:rgb(0%,0%,0%);fill-opacity:1;" d="M 20.027344 62.699219 L 18.761719 61.433594 L 16.972656 61.433594 L 15.707031 62.699219 L 15.707031 64.488281 L 16.972656 65.753906 L 18.761719 65.753906 L 20.027344 64.488281 L 20.027344 62.699219 "/>
<path style=" stroke:none;fill-rule:evenodd;fill:rgb(0%,0%,0%);fill-opacity:1;" d="M 44.328125 24 L 43.0625 22.734375 L 41.273438 22.734375 L 40.007812 24 L 40.007812 25.789062 L 41.273438 27.054688 L 43.0625 27.054688 L 44.328125 25.789062 L 44.328125 24 "/>
<path style=" stroke:none;fill-rule:evenodd;fill:rgb(0%,0%,0%);fill-opacity:1;" d="M 58.726562 24 L 57.460938 22.734375 L 55.671875 22.734375 L 54.40625 24 L 54.40625 25.789062 L 55.671875 27.054688 L 57.460938 27.054688 L 58.726562 25.789062 L 58.726562 24 "/>
<path style=" stroke:none;fill-rule:evenodd;fill:rgb(0%,0%,0%);fill-opacity:1;" d="M 58.726562 34.796875 L 57.460938 33.53125 L 55.671875 33.53125 L 54.40625 34.796875 L 54.40625 36.585938 L 55.671875 37.851562 L 57.460938 37.851562 L 58.726562 36.585938 L 58.726562 34.796875 "/>
<path style=" stroke:none;fill-rule:evenodd;fill:rgb(0%,0%,0%);fill-opacity:1;" d="M 58.726562 49.199219 L 57.460938 47.933594 L 55.671875 47.933594 L 54.40625 49.199219 L 54.40625 50.988281 L 55.671875 52.253906 L 57.460938 52.253906 L 58.726562 50.988281 L 58.726562 49.199219 "/>
<path style=" stroke:none;fill-rule:evenodd;fill:rgb(0%,0%,0%);fill-opacity:1;" d="M 55.125 60 L 53.863281 58.734375 L 52.070312 58.734375 L 50.808594 60 L 50.808594 61.789062 L 52.070312 63.054688 L 53.863281 63.054688 L 55.125 61.789062 L 55.125 60 "/>
<path style=" stroke:none;fill-rule:evenodd;fill:rgb(0%,0%,0%);fill-opacity:1;" d="M 55.125 74.398438 L 53.863281 73.132812 L 52.070312 73.132812 L 50.808594 74.398438 L 50.808594 76.1875 L 52.070312 77.453125 L 53.863281 77.453125 L 55.125 76.1875 L 55.125 74.398438 "/>
<path style=" stroke:none;fill-rule:evenodd;fill:rgb(0%,0%,0%);fill-opacity:1;" d="M 65.925781 74.398438 L 64.660156 73.132812 L 62.871094 73.132812 L 61.605469 74.398438 L 61.605469 76.1875 L 62.871094 77.453125 L 64.660156 77.453125 L 65.925781 76.1875 L 65.925781 74.398438 "/>
<path style=" stroke:none;fill-rule:evenodd;fill:rgb(0%,0%,0%);fill-opacity:1;" d="M 80.328125 74.398438 L 79.0625 73.132812 L 77.273438 73.132812 L 76.007812 74.398438 L 76.007812 76.1875 L 77.273438 77.453125 L 79.0625 77.453125 L 80.328125 76.1875 L 80.328125 74.398438 "/>
<path style=" stroke:none;fill-rule:evenodd;fill:rgb(0%,0%,0%);fill-opacity:1;" d="M 80.328125 89.699219 L 79.0625 88.433594 L 77.273438 88.433594 L 76.007812 89.699219 L 76.007812 91.488281 L 77.273438 92.753906 L 79.0625 92.753906 L 80.328125 91.488281 L 80.328125 89.699219 "/>
<path style=" stroke:none;fill-rule:evenodd;fill:rgb(0%,0%,0%);fill-opacity:1;" d="M 94.726562 89.699219 L 93.460938 88.433594 L 91.671875 88.433594 L 90.40625 89.699219 L 90.40625 91.488281 L 91.671875 92.753906 L 93.460938 92.753906 L 94.726562 91.488281 L 94.726562 89.699219 "/>
<path style=" stroke:none;fill-rule:evenodd;fill:rgb(0%,0%,0%);fill-opacity:1;" d="M 70.824219 46.335938 L 69.324219 44.835938 L 67.207031 44.835938 L 65.710938 46.335938 L 65.710938 48.453125 L 67.207031 49.949219 L 69.324219 49.949219 L 70.824219 48.453125 L 70.824219 46.335938 "/>
<path style=" stroke:none;fill-rule:evenodd;fill:rgb(0%,0%,0%);fill-opacity:1;" d="M 75.324219 30.132812 L 73.824219 28.636719 L 71.707031 28.636719 L 70.210938 30.132812 L 70.210938 32.25 L 71.707031 33.75 L 73.824219 33.75 L 75.324219 32.25 L 75.324219 30.132812 "/>
<path style=" stroke:none;fill-rule:evenodd;fill:rgb(0%,0%,0%);fill-opacity:1;" d="M 41.121094 74.234375 L 39.625 72.738281 L 37.507812 72.738281 L 36.011719 74.234375 L 36.011719 76.351562 L 37.507812 77.847656 L 39.625 77.847656 L 41.121094 76.351562 L 41.121094 74.234375 "/>
<path style=" stroke:none;fill-rule:evenodd;fill:rgb(0%,0%,0%);fill-opacity:1;" d="M 21.324219 50.835938 L 19.824219 49.335938 L 17.707031 49.335938 L 16.210938 50.835938 L 16.210938 52.953125 L 17.707031 54.449219 L 19.824219 54.449219 L 21.324219 52.953125 L 21.324219 50.835938 "/>
<path style=" stroke:none;fill-rule:evenodd;fill:rgb(0%,0%,0%);fill-opacity:1;" d="M 60.921875 109.335938 L 59.425781 107.835938 L 57.308594 107.835938 L 55.8125 109.335938 L 55.8125 111.453125 L 57.308594 112.949219 L 59.425781 112.949219 L 60.921875 111.453125 L 60.921875 109.335938 "/>
<path style=" stroke:none;fill-rule:evenodd;fill:rgb(0%,0%,0%);fill-opacity:1;" d="M 64.523438 98.535156 L 63.027344 97.035156 L 60.90625 97.035156 L 59.410156 98.535156 L 59.410156 100.652344 L 60.90625 102.148438 L 63.027344 102.148438 L 64.523438 100.652344 L 64.523438 98.535156 "/>
<path style=" stroke:none;fill-rule:evenodd;fill:rgb(0%,0%,0%);fill-opacity:1;" d="M 50.121094 118.335938 L 48.625 116.835938 L 46.507812 116.835938 L 45.011719 118.335938 L 45.011719 120.453125 L 46.507812 121.949219 L 48.625 121.949219 L 50.121094 120.453125 L 50.121094 118.335938 "/>
<path style=" stroke:none;fill-rule:evenodd;fill:rgb(0%,0%,0%);fill-opacity:1;" d="M 42.921875 119.394531 C 42.921875 115.984375 37.8125 115.984375 37.8125 119.394531 C 37.8125 122.800781 42.921875 122.800781 42.921875 119.394531 "/>
<path style=" stroke:none;fill-rule:evenodd;fill:rgb(0%,0%,0%);fill-opacity:1;" d="M 60.921875 117.59375 C 60.921875 114.183594 55.8125 114.183594 55.8125 117.59375 C 55.8125 121 60.921875 121 60.921875 117.59375 "/>
<path style=" stroke:none;fill-rule:evenodd;fill:rgb(0%,0%,0%);fill-opacity:1;" d="M 64.523438 92.394531 C 64.523438 88.984375 59.410156 88.984375 59.410156 92.394531 C 59.410156 95.800781 64.523438 95.800781 64.523438 92.394531 "/>
<path style=" stroke:none;fill-rule:evenodd;fill:rgb(0%,0%,0%);fill-opacity:1;" d="M 41.121094 68.09375 C 41.121094 64.683594 36.011719 64.683594 36.011719 68.09375 C 36.011719 71.5 41.121094 71.5 41.121094 68.09375 "/>
<path style=" stroke:none;fill-rule:evenodd;fill:rgb(0%,0%,0%);fill-opacity:1;" d="M 14.121094 51.894531 C 14.121094 48.484375 9.011719 48.484375 9.011719 51.894531 C 9.011719 55.300781 14.121094 55.300781 14.121094 51.894531 "/>
<path style=" stroke:none;fill-rule:evenodd;fill:rgb(0%,0%,0%);fill-opacity:1;" d="M 70.824219 40.191406 C 70.824219 36.785156 65.710938 36.785156 65.710938 40.191406 C 65.710938 43.601562 70.824219 43.601562 70.824219 40.191406 "/>
<path style=" stroke:none;fill-rule:evenodd;fill:rgb(0%,0%,0%);fill-opacity:1;" d="M 75.324219 23.992188 C 75.324219 20.585938 70.210938 20.585938 70.210938 23.992188 C 70.210938 27.402344 75.324219 27.402344 75.324219 23.992188 "/>
<path style=" stroke:none;fill-rule:evenodd;fill:rgb(0%,0%,0%);fill-opacity:1;" d="M 30.269531 70.8125 L 33.820312 70.8125 L 33.820312 67.175781 L 30.269531 67.175781 Z M 30.269531 70.8125 "/>
<path style=" stroke:none;fill-rule:evenodd;fill:rgb(0%,0%,0%);fill-opacity:1;" d="M 25.308594 70.8125 L 28.859375 70.8125 L 28.859375 67.175781 L 25.308594 67.175781 Z M 25.308594 70.8125 "/>
<path style=" stroke:none;fill-rule:evenodd;fill:rgb(0%,0%,0%);fill-opacity:1;" d="M 36.109375 92.410156 L 39.660156 92.410156 L 39.660156 88.773438 L 36.109375 88.773438 Z M 36.109375 92.410156 "/>
<path style=" stroke:none;fill-rule:evenodd;fill:rgb(0%,0%,0%);fill-opacity:1;" d="M 41.070312 92.410156 L 44.621094 92.410156 L 44.621094 88.773438 L 41.070312 88.773438 Z M 41.070312 92.410156 "/>
<path style=" stroke:none;fill-rule:evenodd;fill:rgb(0%,0%,0%);fill-opacity:1;" d="M 29.371094 103.210938 L 32.921875 103.210938 L 32.921875 99.574219 L 29.371094 99.574219 Z M 29.371094 103.210938 "/>
<path style=" stroke:none;fill-rule:evenodd;fill:rgb(0%,0%,0%);fill-opacity:1;" d="M 24.410156 103.210938 L 27.960938 103.210938 L 27.960938 99.574219 L 24.410156 99.574219 Z M 24.410156 103.210938 "/>
<path style=" stroke:none;fill-rule:evenodd;fill:rgb(0%,0%,0%);fill-opacity:1;" d="M 59.90625 69.222656 L 67.710938 69.222656 L 67.710938 61.558594 L 59.90625 61.558594 Z M 59.90625 69.222656 "/>
<path style=" stroke:none;fill-rule:evenodd;fill:rgb(0%,0%,0%);fill-opacity:1;" d="M 74.222656 69.222656 L 82.027344 69.222656 L 82.027344 61.558594 L 74.222656 61.558594 Z M 74.222656 69.222656 "/>
<path style=" stroke:none;fill-rule:evenodd;fill:rgb(0%,0%,0%);fill-opacity:1;" d="M 74.308594 104.324219 L 82.113281 104.324219 L 82.113281 96.660156 L 74.308594 96.660156 Z M 74.308594 104.324219 "/>
<path style=" stroke:none;fill-rule:evenodd;fill:rgb(0%,0%,0%);fill-opacity:1;" d="M 88.621094 104.324219 L 96.425781 104.324219 L 96.425781 96.660156 L 88.621094 96.660156 Z M 88.621094 104.324219 "/>
<path style=" stroke:none;fill-rule:evenodd;fill:rgb(0%,0%,0%);fill-opacity:1;" d="M 94.476562 113.09375 C 94.476562 106.949219 85.257812 106.949219 85.257812 113.09375 C 85.257812 119.238281 94.476562 119.238281 94.476562 113.09375 "/>
<path style=" stroke:none;fill-rule:evenodd;fill:rgb(0%,0%,0%);fill-opacity:1;" d="M 83.675781 113.09375 C 83.675781 106.949219 74.457031 106.949219 74.457031 113.09375 C 74.457031 119.238281 83.675781 119.238281 83.675781 113.09375 "/>
<path style=" stroke:none;fill-rule:evenodd;fill:rgb(0%,0%,0%);fill-opacity:1;" d="M 51.273438 131.992188 C 51.273438 125.847656 42.058594 125.847656 42.058594 131.992188 C 42.058594 138.136719 51.273438 138.136719 51.273438 131.992188 "/>
<path style=" stroke:none;fill-rule:evenodd;fill:rgb(0%,0%,0%);fill-opacity:1;" d="M 39.574219 131.992188 C 39.574219 125.847656 30.359375 125.847656 30.359375 131.992188 C 30.359375 138.136719 39.574219 138.136719 39.574219 131.992188 "/>
<path style=" stroke:none;fill-rule:evenodd;fill:rgb(0%,0%,0%);fill-opacity:1;" d="M 19.773438 104.09375 C 19.773438 97.949219 10.558594 97.949219 10.558594 104.09375 C 10.558594 110.238281 19.773438 110.238281 19.773438 104.09375 "/>
<path style=" stroke:none;fill-rule:evenodd;fill:rgb(0%,0%,0%);fill-opacity:1;" d="M 19.773438 91.492188 C 19.773438 85.347656 10.558594 85.347656 10.558594 91.492188 C 10.558594 97.636719 19.773438 97.636719 19.773438 91.492188 "/>
<path style=" stroke:none;fill-rule:evenodd;fill:rgb(0%,0%,0%);fill-opacity:1;" d="M 30.828125 85.191406 C 30.828125 82.3125 26.507812 82.3125 26.507812 85.191406 C 26.507812 88.074219 30.828125 88.074219 30.828125 85.191406 "/>
<path style=" stroke:none;fill-rule:evenodd;fill:rgb(0%,0%,0%);fill-opacity:1;" d="M 38.027344 85.191406 C 38.027344 82.3125 33.707031 82.3125 33.707031 85.191406 C 33.707031 88.074219 38.027344 88.074219 38.027344 85.191406 "/>
<path style=" stroke:none;fill-rule:evenodd;fill:rgb(0%,0%,0%);fill-opacity:1;" d="M 45.226562 85.191406 C 45.226562 82.3125 40.90625 82.3125 40.90625 85.191406 C 40.90625 88.074219 45.226562 88.074219 45.226562 85.191406 "/>
<path style=" stroke:none;fill-rule:evenodd;fill:rgb(0%,0%,0%);fill-opacity:1;" d="M 52.425781 85.191406 C 52.425781 82.3125 48.105469 82.3125 48.105469 85.191406 C 48.105469 88.074219 52.425781 88.074219 52.425781 85.191406 "/>
<path style=" stroke:none;fill-rule:evenodd;fill:rgb(0%,0%,0%);fill-opacity:1;" d="M 52.425781 106.792969 C 52.425781 103.914062 48.105469 103.914062 48.105469 106.792969 C 48.105469 109.671875 52.425781 109.671875 52.425781 106.792969 "/>
<path style=" stroke:none;fill-rule:evenodd;fill:rgb(0%,0%,0%);fill-opacity:1;" d="M 45.226562 106.792969 C 45.226562 103.914062 40.90625 103.914062 40.90625 106.792969 C 40.90625 109.671875 45.226562 109.671875 45.226562 106.792969 "/>
<path style=" stroke:none;fill-rule:evenodd;fill:rgb(0%,0%,0%);fill-opacity:1;" d="M 38.027344 106.792969 C 38.027344 103.914062 33.707031 103.914062 33.707031 106.792969 C 33.707031 109.671875 38.027344 109.671875 38.027344 106.792969 "/>
<path style=" stroke:none;fill-rule:evenodd;fill:rgb(0%,0%,0%);fill-opacity:1;" d="M 30.828125 106.792969 C 30.828125 103.914062 26.507812 103.914062 26.507812 106.792969 C 26.507812 109.671875 30.828125 109.671875 30.828125 106.792969 "/>
<path style=" stroke:none;fill-rule:evenodd;fill:rgb(0%,0%,0%);fill-opacity:1;" d="M 29.027344 53.691406 C 29.027344 50.8125 24.707031 50.8125 24.707031 53.691406 C 24.707031 56.574219 29.027344 56.574219 29.027344 53.691406 "/>
<path style=" stroke:none;fill-rule:evenodd;fill:rgb(0%,0%,0%);fill-opacity:1;" d="M 36.226562 53.691406 C 36.226562 50.8125 31.90625 50.8125 31.90625 53.691406 C 31.90625 56.574219 36.226562 56.574219 36.226562 53.691406 "/>
<path style=" stroke:none;fill-rule:evenodd;fill:rgb(0%,0%,0%);fill-opacity:1;" d="M 43.425781 53.691406 C 43.425781 50.8125 39.105469 50.8125 39.105469 53.691406 C 39.105469 56.574219 43.425781 56.574219 43.425781 53.691406 "/>
<path style=" stroke:none;fill-rule:evenodd;fill:rgb(0%,0%,0%);fill-opacity:1;" d="M 50.625 53.691406 C 50.625 50.8125 46.308594 50.8125 46.308594 53.691406 C 46.308594 56.574219 50.625 56.574219 50.625 53.691406 "/>
<path style=" stroke:none;fill-rule:evenodd;fill:rgb(0%,0%,0%);fill-opacity:1;" d="M 50.625 32.09375 C 50.625 29.210938 46.308594 29.210938 46.308594 32.09375 C 46.308594 34.972656 50.625 34.972656 50.625 32.09375 "/>
<path style=" stroke:none;fill-rule:evenodd;fill:rgb(0%,0%,0%);fill-opacity:1;" d="M 43.425781 32.09375 C 43.425781 29.210938 39.105469 29.210938 39.105469 32.09375 C 39.105469 34.972656 43.425781 34.972656 43.425781 32.09375 "/>
<path style=" stroke:none;fill-rule:evenodd;fill:rgb(0%,0%,0%);fill-opacity:1;" d="M 36.226562 32.09375 C 36.226562 29.210938 31.90625 29.210938 31.90625 32.09375 C 31.90625 34.972656 36.226562 34.972656 36.226562 32.09375 "/>
<path style=" stroke:none;fill-rule:evenodd;fill:rgb(0%,0%,0%);fill-opacity:1;" d="M 29.027344 32.09375 C 29.027344 29.210938 24.707031 29.210938 24.707031 32.09375 C 24.707031 34.972656 29.027344 34.972656 29.027344 32.09375 "/>
<path style=" stroke:none;fill-rule:evenodd;fill:rgb(0%,0%,0%);fill-opacity:1;" d="M 22.652344 43.230469 L 27.480469 43.230469 L 27.480469 38.96875 L 22.652344 38.96875 Z M 22.652344 43.230469 "/>
<path style=" stroke:none;fill-rule:evenodd;fill:rgb(0%,0%,0%);fill-opacity:1;" d="M 22.652344 48.617188 L 27.480469 48.617188 L 27.480469 44.355469 L 22.652344 44.355469 Z M 22.652344 48.617188 "/>
<path style=" stroke:none;fill-rule:evenodd;fill:rgb(0%,0%,0%);fill-opacity:1;" d="M 15.730469 42.605469 L 19.992188 42.605469 L 19.992188 37.777344 L 15.730469 37.777344 Z M 15.730469 42.605469 "/>
<path style=" stroke:none;fill-rule:evenodd;fill:rgb(0%,0%,0%);fill-opacity:1;" d="M 10.34375 42.605469 L 14.605469 42.605469 L 14.605469 37.777344 L 10.34375 37.777344 Z M 10.34375 42.605469 "/>
<path style=" stroke:none;fill-rule:evenodd;fill:rgb(0%,0%,0%);fill-opacity:1;" d="M 24.742188 64.207031 L 29.003906 64.207031 L 29.003906 59.378906 L 24.742188 59.378906 Z M 24.742188 64.207031 "/>
<path style=" stroke:none;fill-rule:evenodd;fill:rgb(0%,0%,0%);fill-opacity:1;" d="M 30.128906 64.207031 L 34.390625 64.207031 L 34.390625 59.378906 L 30.128906 59.378906 Z M 30.128906 64.207031 "/>
<path style=" stroke:none;fill-rule:evenodd;fill:rgb(0%,0%,0%);fill-opacity:1;" d="M 37.34375 64.207031 L 41.605469 64.207031 L 41.605469 59.378906 L 37.34375 59.378906 Z M 37.34375 64.207031 "/>
<path style=" stroke:none;fill-rule:evenodd;fill:rgb(0%,0%,0%);fill-opacity:1;" d="M 42.730469 64.207031 L 46.992188 64.207031 L 46.992188 59.378906 L 42.730469 59.378906 Z M 42.730469 64.207031 "/>
<path style=" stroke:none;fill-rule:evenodd;fill:rgb(0%,0%,0%);fill-opacity:1;" d="M 38.230469 39.90625 L 42.492188 39.90625 L 42.492188 35.078125 L 38.230469 35.078125 Z M 38.230469 39.90625 "/>
<path style=" stroke:none;fill-rule:evenodd;fill:rgb(0%,0%,0%);fill-opacity:1;" d="M 32.84375 39.90625 L 37.105469 39.90625 L 37.105469 35.078125 L 32.84375 35.078125 Z M 32.84375 39.90625 "/>
<path style=" stroke:none;fill-rule:evenodd;fill:rgb(0%,0%,0%);fill-opacity:1;" d="M 31.027344 29.105469 L 35.289062 29.105469 L 35.289062 24.277344 L 31.027344 24.277344 Z M 31.027344 29.105469 "/>
<path style=" stroke:none;fill-rule:evenodd;fill:rgb(0%,0%,0%);fill-opacity:1;" d="M 25.644531 29.105469 L 29.90625 29.105469 L 29.90625 24.277344 L 25.644531 24.277344 Z M 25.644531 29.105469 "/>
<path style=" stroke:none;fill-rule:evenodd;fill:rgb(0%,0%,0%);fill-opacity:1;" d="M 58.945312 32.707031 L 63.207031 32.707031 L 63.207031 27.878906 L 58.945312 27.878906 Z M 58.945312 32.707031 "/>
<path style=" stroke:none;fill-rule:evenodd;fill:rgb(0%,0%,0%);fill-opacity:1;" d="M 64.328125 32.707031 L 68.589844 32.707031 L 68.589844 27.878906 L 64.328125 27.878906 Z M 64.328125 32.707031 "/>
<path style=" stroke:none;fill-rule:evenodd;fill:rgb(0%,0%,0%);fill-opacity:1;" d="M 51.730469 94.808594 L 55.992188 94.808594 L 55.992188 89.980469 L 51.730469 89.980469 Z M 51.730469 94.808594 "/>
<path style=" stroke:none;fill-rule:evenodd;fill:rgb(0%,0%,0%);fill-opacity:1;" d="M 46.34375 94.808594 L 50.605469 94.808594 L 50.605469 89.980469 L 46.34375 89.980469 Z M 46.34375 94.808594 "/>
<path style=" stroke:none;fill-rule:evenodd;fill:rgb(0%,0%,0%);fill-opacity:1;" d="M 40.027344 100.207031 L 44.289062 100.207031 L 44.289062 95.378906 L 40.027344 95.378906 Z M 40.027344 100.207031 "/>
<path style=" stroke:none;fill-rule:evenodd;fill:rgb(0%,0%,0%);fill-opacity:1;" d="M 34.644531 100.207031 L 38.90625 100.207031 L 38.90625 95.378906 L 34.644531 95.378906 Z M 34.644531 100.207031 "/>
<path style=" stroke:none;fill-rule:evenodd;fill:rgb(0%,0%,0%);fill-opacity:1;" d="M 32.828125 114.605469 L 37.089844 114.605469 L 37.089844 109.777344 L 32.828125 109.777344 Z M 32.828125 114.605469 "/>
<path style=" stroke:none;fill-rule:evenodd;fill:rgb(0%,0%,0%);fill-opacity:1;" d="M 27.445312 114.605469 L 31.707031 114.605469 L 31.707031 109.777344 L 27.445312 109.777344 Z M 27.445312 114.605469 "/>
<path style=" stroke:none;fill-rule:evenodd;fill:rgb(0%,0%,0%);fill-opacity:1;" d="M 25.644531 123.605469 L 29.90625 123.605469 L 29.90625 118.777344 L 25.644531 118.777344 Z M 25.644531 123.605469 "/>
<path style=" stroke:none;fill-rule:evenodd;fill:rgb(0%,0%,0%);fill-opacity:1;" d="M 31.027344 123.605469 L 35.289062 123.605469 L 35.289062 118.777344 L 31.027344 118.777344 Z M 31.027344 123.605469 "/>
<path style=" stroke:none;fill-rule:evenodd;fill:rgb(0%,0%,0%);fill-opacity:1;" d="M 40.042969 115.507812 L 44.304688 115.507812 L 44.304688 110.679688 L 40.042969 110.679688 Z M 40.042969 115.507812 "/>
<path style=" stroke:none;fill-rule:evenodd;fill:rgb(0%,0%,0%);fill-opacity:1;" d="M 45.429688 115.507812 L 49.691406 115.507812 L 49.691406 110.679688 L 45.429688 110.679688 Z M 45.429688 115.507812 "/>
<path style=" stroke:none;fill-rule:evenodd;fill:rgb(0%,0%,0%);fill-opacity:1;" d="M 51.742188 126.308594 L 56.003906 126.308594 L 56.003906 121.480469 L 51.742188 121.480469 Z M 51.742188 126.308594 "/>
<path style=" stroke:none;fill-rule:evenodd;fill:rgb(0%,0%,0%);fill-opacity:1;" d="M 57.128906 126.308594 L 61.390625 126.308594 L 61.390625 121.480469 L 57.128906 121.480469 Z M 57.128906 126.308594 "/>
<path style=" stroke:none;fill-rule:evenodd;fill:rgb(0%,0%,0%);fill-opacity:1;" d="M 86.375 81.59375 C 86.375 77.847656 80.757812 77.847656 80.757812 81.59375 C 80.757812 85.335938 86.375 85.335938 86.375 81.59375 "/>
<path style=" stroke:none;fill-rule:evenodd;fill:rgb(0%,0%,0%);fill-opacity:1;" d="M 27.875 81.59375 C 27.875 77.847656 22.257812 77.847656 22.257812 81.59375 C 22.257812 85.335938 27.875 85.335938 27.875 81.59375 "/>
</g>
</svg>
