%
M48
M72
T01C0.0197
%
T01
X2930Y9180
X11055Y9180
X10305Y10055
X10305Y7930
X12305Y7930
X8305Y10055
X6805Y10055
X6430Y8680
X5430Y8680
X4805Y10055
X4805Y11055
X5180Y13055
X6180Y13055
X6805Y12055
X7305Y13555
X7305Y15555
X7305Y17055
X6180Y16055
X5305Y17055
X5180Y16055
X4180Y16055
X3180Y16055
X2055Y13305
X1055Y13305
X1930Y11680
X3180Y13055
X4180Y13055
X1930Y9680
X3430Y8680
X4430Y8680
X4430Y5680
X3430Y5680
X5055Y3930
X6055Y3930
X6430Y5680
X5430Y5680
X7555Y5180
X7555Y4180
X8055Y6680
X8055Y7680
X8930Y13930
X8930Y14930
X9555Y16180
X9555Y17180
X1555Y7805
X1555Y6055
X4305Y2180
X5930Y2180
X10430Y4805
X11930Y4805
X1680Y1680
X11680Y1680
X11680Y18180
X1680Y18180
M30
