<?xml version="1.0" encoding="UTF-8"?>
<svg xmlns="http://www.w3.org/2000/svg" xmlns:xlink="http://www.w3.org/1999/xlink" width="312pt" height="250pt" viewBox="0 0 312 250" version="1.1">
<g id="surface213931">
<path style="fill:none;stroke-width:0.01;stroke-linecap:round;stroke-linejoin:miter;stroke:rgb(0%,0%,0%);stroke-opacity:1;stroke-miterlimit:10;" d="M 0.0000154501 -0.00000248697 L 3.936973 -0.00000248697 " transform="matrix(72,0,0,-72,14.5692,238.265446)"/>
<path style="fill:none;stroke-width:0.01;stroke-linecap:round;stroke-linejoin:miter;stroke:rgb(0%,0%,0%);stroke-opacity:1;stroke-miterlimit:10;" d="M 3.936973 -0.00000248697 L 3.936973 3.149574 " transform="matrix(72,0,0,-72,14.5692,238.265446)"/>
<path style="fill:none;stroke-width:0.01;stroke-linecap:round;stroke-linejoin:miter;stroke:rgb(0%,0%,0%);stroke-opacity:1;stroke-miterlimit:10;" d="M 3.936973 3.149574 L 0.0000154501 3.149574 " transform="matrix(72,0,0,-72,14.5692,238.265446)"/>
<path style="fill:none;stroke-width:0.01;stroke-linecap:round;stroke-linejoin:miter;stroke:rgb(0%,0%,0%);stroke-opacity:1;stroke-miterlimit:10;" d="M 0.0000154501 3.149574 L 0.0000154501 -0.00000248697 " transform="matrix(72,0,0,-72,14.5692,238.265446)"/>
<path style="fill:none;stroke-width:0.108;stroke-linecap:round;stroke-linejoin:miter;stroke:rgb(0%,0%,0%);stroke-opacity:1;stroke-miterlimit:10;" d="M 0.861344 0.581269 L 0.861344 0.681258 " transform="matrix(72,0,0,-72,14.5692,238.265446)"/>
<path style="fill:none;stroke-width:0.108;stroke-linecap:round;stroke-linejoin:miter;stroke:rgb(0%,0%,0%);stroke-opacity:1;stroke-miterlimit:10;" d="M 1.648724 0.681258 L 1.648724 0.581269 " transform="matrix(72,0,0,-72,14.5692,238.265446)"/>
<path style=" stroke:none;fill-rule:evenodd;fill:rgb(0%,0%,0%);fill-opacity:1;" d="M 107.382813 160.578125 L 111.644531 160.578125 L 111.644531 155.75 L 107.382813 155.75 Z "/>
<path style=" stroke:none;fill-rule:evenodd;fill:rgb(0%,0%,0%);fill-opacity:1;" d="M 101.996094 160.578125 L 106.257813 160.578125 L 106.257813 155.75 L 101.996094 155.75 Z "/>
<path style=" stroke:none;fill-rule:evenodd;fill:rgb(0%,0%,0%);fill-opacity:1;" d="M 107.382813 167.328125 L 111.644531 167.328125 L 111.644531 162.5 L 107.382813 162.5 Z "/>
<path style=" stroke:none;fill-rule:evenodd;fill:rgb(0%,0%,0%);fill-opacity:1;" d="M 101.996094 167.328125 L 106.257813 167.328125 L 106.257813 162.5 L 101.996094 162.5 Z "/>
<path style=" stroke:none;fill-rule:evenodd;fill:rgb(0%,0%,0%);fill-opacity:1;" d="M 115.164063 166.171875 L 118.859375 166.171875 L 118.859375 162.761719 L 115.164063 162.761719 Z "/>
<path style=" stroke:none;fill-rule:evenodd;fill:rgb(0%,0%,0%);fill-opacity:1;" d="M 119.980469 166.171875 L 123.675781 166.171875 L 123.675781 162.761719 L 119.980469 162.761719 Z "/>
<path style=" stroke:none;fill-rule:evenodd;fill:rgb(0%,0%,0%);fill-opacity:1;" d="M 50.484375 157.503906 L 57.296875 157.503906 L 57.296875 155.226563 L 50.484375 155.226563 Z "/>
<path style=" stroke:none;fill-rule:evenodd;fill:rgb(0%,0%,0%);fill-opacity:1;" d="M 35.742188 157.503906 L 42.554688 157.503906 L 42.554688 155.226563 L 35.742188 155.226563 Z "/>
<path style=" stroke:none;fill-rule:evenodd;fill:rgb(0%,0%,0%);fill-opacity:1;" d="M 50.484375 153.902344 L 57.296875 153.902344 L 57.296875 151.625 L 50.484375 151.625 Z "/>
<path style=" stroke:none;fill-rule:evenodd;fill:rgb(0%,0%,0%);fill-opacity:1;" d="M 50.484375 161.105469 L 57.296875 161.105469 L 57.296875 158.828125 L 50.484375 158.828125 Z "/>
<path style=" stroke:none;fill-rule:evenodd;fill:rgb(0%,0%,0%);fill-opacity:1;" d="M 50.484375 164.703125 L 57.296875 164.703125 L 57.296875 162.425781 L 50.484375 162.425781 Z "/>
<path style=" stroke:none;fill-rule:evenodd;fill:rgb(0%,0%,0%);fill-opacity:1;" d="M 35.742188 153.902344 L 42.554688 153.902344 L 42.554688 151.625 L 35.742188 151.625 Z "/>
<path style=" stroke:none;fill-rule:evenodd;fill:rgb(0%,0%,0%);fill-opacity:1;" d="M 35.742188 161.105469 L 42.554688 161.105469 L 42.554688 158.828125 L 35.742188 158.828125 Z "/>
<path style=" stroke:none;fill-rule:evenodd;fill:rgb(0%,0%,0%);fill-opacity:1;" d="M 35.742188 164.703125 L 42.554688 164.703125 L 42.554688 162.425781 L 35.742188 162.425781 Z "/>
<path style=" stroke:none;fill-rule:evenodd;fill:rgb(0%,0%,0%);fill-opacity:1;" d="M 50.484375 171.902344 L 57.296875 171.902344 L 57.296875 169.625 L 50.484375 169.625 Z "/>
<path style=" stroke:none;fill-rule:evenodd;fill:rgb(0%,0%,0%);fill-opacity:1;" d="M 35.742188 171.902344 L 42.554688 171.902344 L 42.554688 169.625 L 35.742188 169.625 Z "/>
<path style=" stroke:none;fill-rule:evenodd;fill:rgb(0%,0%,0%);fill-opacity:1;" d="M 50.484375 168.304688 L 57.296875 168.304688 L 57.296875 166.027344 L 50.484375 166.027344 Z "/>
<path style=" stroke:none;fill-rule:evenodd;fill:rgb(0%,0%,0%);fill-opacity:1;" d="M 50.484375 175.503906 L 57.296875 175.503906 L 57.296875 173.226563 L 50.484375 173.226563 Z "/>
<path style=" stroke:none;fill-rule:evenodd;fill:rgb(0%,0%,0%);fill-opacity:1;" d="M 35.742188 168.304688 L 42.554688 168.304688 L 42.554688 166.027344 L 35.742188 166.027344 Z "/>
<path style=" stroke:none;fill-rule:evenodd;fill:rgb(0%,0%,0%);fill-opacity:1;" d="M 35.742188 175.503906 L 42.554688 175.503906 L 42.554688 173.226563 L 35.742188 173.226563 Z "/>
<path style=" stroke:none;fill-rule:evenodd;fill:rgb(0%,0%,0%);fill-opacity:1;" d="M 76.113281 147.726563 C 76.113281 144.269531 70.925781 144.269531 70.925781 147.726563 C 70.925781 151.179688 76.113281 151.179688 76.113281 147.726563 "/>
<path style=" stroke:none;fill-rule:evenodd;fill:rgb(0%,0%,0%);fill-opacity:1;" d="M 76.113281 161.40625 C 76.113281 157.949219 70.925781 157.949219 70.925781 161.40625 C 70.925781 164.863281 76.113281 164.863281 76.113281 161.40625 "/>
<path style=" stroke:none;fill-rule:evenodd;fill:rgb(0%,0%,0%);fill-opacity:1;" d="M 59.363281 150.871094 L 63.058594 150.871094 L 63.058594 147.460938 L 59.363281 147.460938 Z "/>
<path style=" stroke:none;fill-rule:evenodd;fill:rgb(0%,0%,0%);fill-opacity:1;" d="M 64.183594 150.871094 L 67.878906 150.871094 L 67.878906 147.460938 L 64.183594 147.460938 Z "/>
<path style=" stroke:none;fill-rule:evenodd;fill:rgb(0%,0%,0%);fill-opacity:1;" d="M 60.261719 165.269531 L 63.957031 165.269531 L 63.957031 161.859375 L 60.261719 161.859375 Z "/>
<path style=" stroke:none;fill-rule:evenodd;fill:rgb(0%,0%,0%);fill-opacity:1;" d="M 65.082031 165.269531 L 68.777344 165.269531 L 68.777344 161.859375 L 65.082031 161.859375 Z "/>
<path style=" stroke:none;fill-rule:evenodd;fill:rgb(0%,0%,0%);fill-opacity:1;" d="M 45.28125 148.171875 L 48.976563 148.171875 L 48.976563 144.761719 L 45.28125 144.761719 Z "/>
<path style=" stroke:none;fill-rule:evenodd;fill:rgb(0%,0%,0%);fill-opacity:1;" d="M 40.460938 148.171875 L 44.15625 148.171875 L 44.15625 144.761719 L 40.460938 144.761719 Z "/>
<path style=" stroke:none;fill-rule:evenodd;fill:rgb(0%,0%,0%);fill-opacity:1;" d="M 53.394531 187.578125 L 57.65625 187.578125 L 57.65625 182.75 L 53.394531 182.75 Z "/>
<path style=" stroke:none;fill-rule:evenodd;fill:rgb(0%,0%,0%);fill-opacity:1;" d="M 58.78125 187.578125 L 63.042969 187.578125 L 63.042969 182.75 L 58.78125 182.75 Z "/>
<path style=" stroke:none;fill-rule:evenodd;fill:rgb(0%,0%,0%);fill-opacity:1;" d="M 48.066406 192.367188 C 48.066406 189.101563 43.171875 189.101563 43.171875 192.367188 C 43.171875 195.628906 48.066406 195.628906 48.066406 192.367188 "/>
<path style=" stroke:none;fill-rule:evenodd;fill:rgb(0%,0%,0%);fill-opacity:1;" d="M 48.066406 199.566406 C 48.066406 196.300781 43.171875 196.300781 43.171875 199.566406 C 43.171875 202.828125 48.066406 202.828125 48.066406 199.566406 "/>
<path style=" stroke:none;fill-rule:evenodd;fill:rgb(0%,0%,0%);fill-opacity:1;" d="M 55.265625 192.367188 C 55.265625 189.101563 50.371094 189.101563 50.371094 192.367188 C 50.371094 195.628906 55.265625 195.628906 55.265625 192.367188 "/>
<path style=" stroke:none;fill-rule:evenodd;fill:rgb(0%,0%,0%);fill-opacity:1;" d="M 55.265625 199.566406 C 55.265625 196.300781 50.371094 196.300781 50.371094 199.566406 C 50.371094 202.828125 55.265625 202.828125 55.265625 199.566406 "/>
<path style=" stroke:none;fill-rule:evenodd;fill:rgb(0%,0%,0%);fill-opacity:1;" d="M 62.46875 192.367188 C 62.46875 189.101563 57.570313 189.101563 57.570313 192.367188 C 57.570313 195.628906 62.46875 195.628906 62.46875 192.367188 "/>
<path style=" stroke:none;fill-rule:evenodd;fill:rgb(0%,0%,0%);fill-opacity:1;" d="M 62.46875 199.566406 C 62.46875 196.300781 57.570313 196.300781 57.570313 199.566406 C 57.570313 202.828125 62.46875 202.828125 62.46875 199.566406 "/>
<path style="fill:none;stroke-width:0.084;stroke-linecap:round;stroke-linejoin:miter;stroke:rgb(0%,0%,0%);stroke-opacity:1;stroke-miterlimit:10;" d="M 1.218277 2.349987 L 1.294232 2.349987 " transform="matrix(72,0,0,-72,14.5692,238.265446)"/>
<path style="fill:none;stroke-width:0.084;stroke-linecap:round;stroke-linejoin:miter;stroke:rgb(0%,0%,0%);stroke-opacity:1;stroke-miterlimit:10;" d="M 1.294232 2.249998 L 1.218277 2.249998 " transform="matrix(72,0,0,-72,14.5692,238.265446)"/>
<path style="fill:none;stroke-width:0.084;stroke-linecap:round;stroke-linejoin:miter;stroke:rgb(0%,0%,0%);stroke-opacity:1;stroke-miterlimit:10;" d="M 1.218277 2.150008 L 1.294232 2.150008 " transform="matrix(72,0,0,-72,14.5692,238.265446)"/>
<path style=" stroke:none;fill-rule:evenodd;fill:rgb(0%,0%,0%);fill-opacity:1;" d="M 159.667969 76.265625 C 159.667969 69.640625 149.730469 69.640625 149.730469 76.265625 C 149.730469 82.890625 159.667969 82.890625 159.667969 76.265625 "/>
<path style="fill:none;stroke-width:0.072;stroke-linecap:round;stroke-linejoin:miter;stroke:rgb(0%,0%,0%);stroke-opacity:1;stroke-miterlimit:10;" d="M 1.056276 1.862519 L 0.992257 1.862519 " transform="matrix(72,0,0,-72,14.5692,238.265446)"/>
<path style="fill:none;stroke-width:0.072;stroke-linecap:round;stroke-linejoin:miter;stroke:rgb(0%,0%,0%);stroke-opacity:1;stroke-miterlimit:10;" d="M 0.992257 1.762476 L 1.056276 1.762476 " transform="matrix(72,0,0,-72,14.5692,238.265446)"/>
<path style="fill:none;stroke-width:0.072;stroke-linecap:round;stroke-linejoin:miter;stroke:rgb(0%,0%,0%);stroke-opacity:1;stroke-miterlimit:10;" d="M 1.356244 1.762476 L 1.420263 1.762476 " transform="matrix(72,0,0,-72,14.5692,238.265446)"/>
<path style="fill:none;stroke-width:0.072;stroke-linecap:round;stroke-linejoin:miter;stroke:rgb(0%,0%,0%);stroke-opacity:1;stroke-miterlimit:10;" d="M 1.420263 1.862519 L 1.356244 1.862519 " transform="matrix(72,0,0,-72,14.5692,238.265446)"/>
<path style="fill:none;stroke-width:0.072;stroke-linecap:round;stroke-linejoin:miter;stroke:rgb(0%,0%,0%);stroke-opacity:1;stroke-miterlimit:10;" d="M 1.056276 1.662487 L 0.992257 1.662487 " transform="matrix(72,0,0,-72,14.5692,238.265446)"/>
<path style="fill:none;stroke-width:0.072;stroke-linecap:round;stroke-linejoin:miter;stroke:rgb(0%,0%,0%);stroke-opacity:1;stroke-miterlimit:10;" d="M 1.356244 1.662487 L 1.420263 1.662487 " transform="matrix(72,0,0,-72,14.5692,238.265446)"/>
<path style=" stroke:none;fill-rule:evenodd;fill:rgb(0%,0%,0%);fill-opacity:1;" d="M 46.632813 123.230469 L 50.894531 123.230469 L 50.894531 118.402344 L 46.632813 118.402344 Z "/>
<path style=" stroke:none;fill-rule:evenodd;fill:rgb(0%,0%,0%);fill-opacity:1;" d="M 41.246094 123.230469 L 45.507813 123.230469 L 45.507813 118.402344 L 41.246094 118.402344 Z "/>
<path style=" stroke:none;fill-rule:evenodd;fill:rgb(0%,0%,0%);fill-opacity:1;" d="M 106.710938 94.542969 L 105.191406 93.023438 L 103.046875 93.023438 L 101.527344 94.542969 L 101.527344 96.6875 L 103.046875 98.207031 L 105.191406 98.207031 L 106.710938 96.6875 L 106.710938 94.542969 "/>
<path style=" stroke:none;fill-rule:evenodd;fill:rgb(0%,0%,0%);fill-opacity:1;" d="M 128.3125 94.542969 L 126.792969 93.023438 L 124.644531 93.023438 L 123.128906 94.542969 L 123.128906 96.6875 L 124.644531 98.207031 L 126.792969 98.207031 L 128.3125 96.6875 L 128.3125 94.542969 "/>
<path style=" stroke:none;fill-rule:evenodd;fill:rgb(0%,0%,0%);fill-opacity:1;" d="M 89.996094 83.125 L 88.476563 84.640625 L 88.476563 86.789063 L 89.996094 88.308594 L 92.144531 88.308594 L 93.660156 86.789063 L 93.660156 84.640625 L 92.144531 83.125 L 89.996094 83.125 "/>
<path style=" stroke:none;fill-rule:evenodd;fill:rgb(0%,0%,0%);fill-opacity:1;" d="M 89.996094 61.523438 L 88.476563 63.042969 L 88.476563 65.1875 L 89.996094 66.707031 L 92.144531 66.707031 L 93.660156 65.1875 L 93.660156 63.042969 L 92.144531 61.523438 L 89.996094 61.523438 "/>
<path style=" stroke:none;fill-rule:evenodd;fill:rgb(0%,0%,0%);fill-opacity:1;" d="M 121.597656 172.4375 L 127.933594 172.4375 L 127.933594 169.988281 L 121.597656 169.988281 Z "/>
<path style=" stroke:none;fill-rule:evenodd;fill:rgb(0%,0%,0%);fill-opacity:1;" d="M 121.597656 176.039063 L 127.933594 176.039063 L 127.933594 173.589844 L 121.597656 173.589844 Z "/>
<path style=" stroke:none;fill-rule:evenodd;fill:rgb(0%,0%,0%);fill-opacity:1;" d="M 121.597656 179.640625 L 127.933594 179.640625 L 127.933594 177.191406 L 121.597656 177.191406 Z "/>
<path style=" stroke:none;fill-rule:evenodd;fill:rgb(0%,0%,0%);fill-opacity:1;" d="M 121.597656 183.238281 L 127.933594 183.238281 L 127.933594 180.789063 L 121.597656 180.789063 Z "/>
<path style=" stroke:none;fill-rule:evenodd;fill:rgb(0%,0%,0%);fill-opacity:1;" d="M 121.597656 186.839844 L 127.933594 186.839844 L 127.933594 184.390625 L 121.597656 184.390625 Z "/>
<path style=" stroke:none;fill-rule:evenodd;fill:rgb(0%,0%,0%);fill-opacity:1;" d="M 121.597656 190.4375 L 127.933594 190.4375 L 127.933594 187.988281 L 121.597656 187.988281 Z "/>
<path style=" stroke:none;fill-rule:evenodd;fill:rgb(0%,0%,0%);fill-opacity:1;" d="M 121.597656 194.039063 L 127.933594 194.039063 L 127.933594 191.589844 L 121.597656 191.589844 Z "/>
<path style=" stroke:none;fill-rule:evenodd;fill:rgb(0%,0%,0%);fill-opacity:1;" d="M 121.597656 197.640625 L 127.933594 197.640625 L 127.933594 195.191406 L 121.597656 195.191406 Z "/>
<path style=" stroke:none;fill-rule:evenodd;fill:rgb(0%,0%,0%);fill-opacity:1;" d="M 93.804688 197.640625 L 100.140625 197.640625 L 100.140625 195.191406 L 93.804688 195.191406 Z "/>
<path style=" stroke:none;fill-rule:evenodd;fill:rgb(0%,0%,0%);fill-opacity:1;" d="M 93.804688 194.039063 L 100.140625 194.039063 L 100.140625 191.589844 L 93.804688 191.589844 Z "/>
<path style=" stroke:none;fill-rule:evenodd;fill:rgb(0%,0%,0%);fill-opacity:1;" d="M 93.804688 190.4375 L 100.140625 190.4375 L 100.140625 187.988281 L 93.804688 187.988281 Z "/>
<path style=" stroke:none;fill-rule:evenodd;fill:rgb(0%,0%,0%);fill-opacity:1;" d="M 93.804688 186.839844 L 100.140625 186.839844 L 100.140625 184.390625 L 93.804688 184.390625 Z "/>
<path style=" stroke:none;fill-rule:evenodd;fill:rgb(0%,0%,0%);fill-opacity:1;" d="M 93.804688 183.238281 L 100.140625 183.238281 L 100.140625 180.789063 L 93.804688 180.789063 Z "/>
<path style=" stroke:none;fill-rule:evenodd;fill:rgb(0%,0%,0%);fill-opacity:1;" d="M 93.804688 179.640625 L 100.140625 179.640625 L 100.140625 177.191406 L 93.804688 177.191406 Z "/>
<path style=" stroke:none;fill-rule:evenodd;fill:rgb(0%,0%,0%);fill-opacity:1;" d="M 93.804688 176.039063 L 100.140625 176.039063 L 100.140625 173.589844 L 93.804688 173.589844 Z "/>
<path style=" stroke:none;fill-rule:evenodd;fill:rgb(0%,0%,0%);fill-opacity:1;" d="M 93.804688 172.4375 L 100.140625 172.4375 L 100.140625 169.988281 L 93.804688 169.988281 Z "/>
<path style=" stroke:none;fill-rule:evenodd;fill:rgb(0%,0%,0%);fill-opacity:1;" d="M 45.730469 136.730469 L 49.992188 136.730469 L 49.992188 131.902344 L 45.730469 131.902344 Z "/>
<path style=" stroke:none;fill-rule:evenodd;fill:rgb(0%,0%,0%);fill-opacity:1;" d="M 40.347656 136.730469 L 44.609375 136.730469 L 44.609375 131.902344 L 40.347656 131.902344 Z "/>
<path style="fill:none;stroke-width:0.08;stroke-linecap:round;stroke-linejoin:miter;stroke:rgb(0%,0%,0%);stroke-opacity:1;stroke-miterlimit:10;" d="M 0.908978 2.281248 L 0.981027 2.281248 " transform="matrix(72,0,0,-72,14.5692,238.265446)"/>
<path style="fill:none;stroke-width:0.08;stroke-linecap:round;stroke-linejoin:miter;stroke:rgb(0%,0%,0%);stroke-opacity:1;stroke-miterlimit:10;" d="M 0.840999 1.981226 L 0.769004 1.981226 " transform="matrix(72,0,0,-72,14.5692,238.265446)"/>
<path style=" stroke:none;fill-rule:evenodd;fill:rgb(0%,0%,0%);fill-opacity:1;" d="M 227.84375 129.128906 L 230.6875 129.128906 L 230.6875 126 L 227.84375 126 Z "/>
<path style=" stroke:none;fill-rule:evenodd;fill:rgb(0%,0%,0%);fill-opacity:1;" d="M 233.230469 129.128906 L 236.074219 129.128906 L 236.074219 126 L 233.230469 126 Z "/>
<path style=" stroke:none;fill-rule:evenodd;fill:rgb(0%,0%,0%);fill-opacity:1;" d="M 230.535156 134.796875 L 233.378906 134.796875 L 233.378906 131.667969 L 230.535156 131.667969 Z "/>
<path style=" stroke:none;fill-rule:evenodd;fill:rgb(0%,0%,0%);fill-opacity:1;" d="M 193.457031 161.871094 L 196.585938 161.871094 L 196.585938 159.027344 L 193.457031 159.027344 Z "/>
<path style=" stroke:none;fill-rule:evenodd;fill:rgb(0%,0%,0%);fill-opacity:1;" d="M 193.457031 156.484375 L 196.585938 156.484375 L 196.585938 153.640625 L 193.457031 153.640625 Z "/>
<path style=" stroke:none;fill-rule:evenodd;fill:rgb(0%,0%,0%);fill-opacity:1;" d="M 199.125 159.175781 L 202.253906 159.175781 L 202.253906 156.332031 L 199.125 156.332031 Z "/>
<path style=" stroke:none;fill-rule:evenodd;fill:rgb(0%,0%,0%);fill-opacity:1;" d="M 217.492188 129.128906 L 220.335938 129.128906 L 220.335938 126 L 217.492188 126 Z "/>
<path style=" stroke:none;fill-rule:evenodd;fill:rgb(0%,0%,0%);fill-opacity:1;" d="M 222.878906 129.128906 L 225.722656 129.128906 L 225.722656 126 L 222.878906 126 Z "/>
<path style=" stroke:none;fill-rule:evenodd;fill:rgb(0%,0%,0%);fill-opacity:1;" d="M 220.1875 134.796875 L 223.03125 134.796875 L 223.03125 131.667969 L 220.1875 131.667969 Z "/>
<path style=" stroke:none;fill-rule:evenodd;fill:rgb(0%,0%,0%);fill-opacity:1;" d="M 193.644531 127.777344 L 196.488281 127.777344 L 196.488281 124.648438 L 193.644531 124.648438 Z "/>
<path style=" stroke:none;fill-rule:evenodd;fill:rgb(0%,0%,0%);fill-opacity:1;" d="M 199.027344 127.777344 L 201.871094 127.777344 L 201.871094 124.648438 L 199.027344 124.648438 Z "/>
<path style=" stroke:none;fill-rule:evenodd;fill:rgb(0%,0%,0%);fill-opacity:1;" d="M 196.335938 133.449219 L 199.179688 133.449219 L 199.179688 130.320313 L 196.335938 130.320313 Z "/>
<path style="fill:none;stroke-width:0.084;stroke-linecap:round;stroke-linejoin:miter;stroke:rgb(0%,0%,0%);stroke-opacity:1;stroke-miterlimit:10;" d="M 2.556765 0.775497 L 2.556765 0.699488 " transform="matrix(72,0,0,-72,14.5692,238.265446)"/>
<path style="fill:none;stroke-width:0.084;stroke-linecap:round;stroke-linejoin:miter;stroke:rgb(0%,0%,0%);stroke-opacity:1;stroke-miterlimit:10;" d="M 2.656808 0.699488 L 2.656808 0.775497 " transform="matrix(72,0,0,-72,14.5692,238.265446)"/>
<path style="fill:none;stroke-width:0.084;stroke-linecap:round;stroke-linejoin:miter;stroke:rgb(0%,0%,0%);stroke-opacity:1;stroke-miterlimit:10;" d="M 2.756797 0.775497 L 2.756797 0.699488 " transform="matrix(72,0,0,-72,14.5692,238.265446)"/>
<path style="fill:none;stroke-width:0.084;stroke-linecap:round;stroke-linejoin:miter;stroke:rgb(0%,0%,0%);stroke-opacity:1;stroke-miterlimit:10;" d="M 2.856786 0.699488 L 2.856786 0.775497 " transform="matrix(72,0,0,-72,14.5692,238.265446)"/>
<path style="fill:none;stroke-width:0.084;stroke-linecap:round;stroke-linejoin:miter;stroke:rgb(0%,0%,0%);stroke-opacity:1;stroke-miterlimit:10;" d="M 2.956775 0.775497 L 2.956775 0.699488 " transform="matrix(72,0,0,-72,14.5692,238.265446)"/>
<path style="fill:none;stroke-width:0.084;stroke-linecap:round;stroke-linejoin:miter;stroke:rgb(0%,0%,0%);stroke-opacity:1;stroke-miterlimit:10;" d="M 3.056765 0.699488 L 3.056765 0.775497 " transform="matrix(72,0,0,-72,14.5692,238.265446)"/>
<path style="fill:none;stroke-width:0.084;stroke-linecap:round;stroke-linejoin:miter;stroke:rgb(0%,0%,0%);stroke-opacity:1;stroke-miterlimit:10;" d="M 3.056765 1.299477 L 3.056765 1.375486 " transform="matrix(72,0,0,-72,14.5692,238.265446)"/>
<path style="fill:none;stroke-width:0.084;stroke-linecap:round;stroke-linejoin:miter;stroke:rgb(0%,0%,0%);stroke-opacity:1;stroke-miterlimit:10;" d="M 2.956775 1.375486 L 2.956775 1.299477 " transform="matrix(72,0,0,-72,14.5692,238.265446)"/>
<path style="fill:none;stroke-width:0.084;stroke-linecap:round;stroke-linejoin:miter;stroke:rgb(0%,0%,0%);stroke-opacity:1;stroke-miterlimit:10;" d="M 2.856786 1.299477 L 2.856786 1.375486 " transform="matrix(72,0,0,-72,14.5692,238.265446)"/>
<path style="fill:none;stroke-width:0.084;stroke-linecap:round;stroke-linejoin:miter;stroke:rgb(0%,0%,0%);stroke-opacity:1;stroke-miterlimit:10;" d="M 2.756797 1.375486 L 2.756797 1.299477 " transform="matrix(72,0,0,-72,14.5692,238.265446)"/>
<path style="fill:none;stroke-width:0.084;stroke-linecap:round;stroke-linejoin:miter;stroke:rgb(0%,0%,0%);stroke-opacity:1;stroke-miterlimit:10;" d="M 2.656808 1.299477 L 2.656808 1.375486 " transform="matrix(72,0,0,-72,14.5692,238.265446)"/>
<path style="fill:none;stroke-width:0.084;stroke-linecap:round;stroke-linejoin:miter;stroke:rgb(0%,0%,0%);stroke-opacity:1;stroke-miterlimit:10;" d="M 2.556765 1.375486 L 2.556765 1.299477 " transform="matrix(72,0,0,-72,14.5692,238.265446)"/>
<path style=" stroke:none;fill-rule:evenodd;fill:rgb(0%,0%,0%);fill-opacity:1;" d="M 261.785156 139.429688 L 266.046875 139.429688 L 266.046875 134.601563 L 261.785156 134.601563 Z "/>
<path style=" stroke:none;fill-rule:evenodd;fill:rgb(0%,0%,0%);fill-opacity:1;" d="M 267.171875 139.429688 L 271.433594 139.429688 L 271.433594 134.601563 L 267.171875 134.601563 Z "/>
<path style=" stroke:none;fill-rule:evenodd;fill:rgb(0%,0%,0%);fill-opacity:1;" d="M 263.121094 146.179688 L 267.382813 146.179688 L 267.382813 141.351563 L 263.121094 141.351563 Z "/>
<path style=" stroke:none;fill-rule:evenodd;fill:rgb(0%,0%,0%);fill-opacity:1;" d="M 257.734375 146.179688 L 261.996094 146.179688 L 261.996094 141.351563 L 257.734375 141.351563 Z "/>
<path style=" stroke:none;fill-rule:evenodd;fill:rgb(0%,0%,0%);fill-opacity:1;" d="M 160.753906 177.558594 L 164.210938 177.558594 L 164.210938 172.949219 L 160.753906 172.949219 Z "/>
<path style=" stroke:none;fill-rule:evenodd;fill:rgb(0%,0%,0%);fill-opacity:1;" d="M 167.273438 177.558594 L 170.730469 177.558594 L 170.730469 172.949219 L 167.273438 172.949219 Z "/>
<path style=" stroke:none;fill-rule:evenodd;fill:rgb(0%,0%,0%);fill-opacity:1;" d="M 186.753906 185.527344 L 191.582031 185.527344 L 191.582031 181.265625 L 186.753906 181.265625 Z "/>
<path style=" stroke:none;fill-rule:evenodd;fill:rgb(0%,0%,0%);fill-opacity:1;" d="M 186.753906 180.140625 L 191.582031 180.140625 L 191.582031 175.878906 L 186.753906 175.878906 Z "/>
<path style=" stroke:none;fill-rule:evenodd;fill:rgb(0%,0%,0%);fill-opacity:1;" d="M 158.246094 153.972656 L 160.695313 153.972656 L 160.695313 147.636719 L 158.246094 147.636719 Z "/>
<path style=" stroke:none;fill-rule:evenodd;fill:rgb(0%,0%,0%);fill-opacity:1;" d="M 158.246094 171.394531 L 160.695313 171.394531 L 160.695313 165.058594 L 158.246094 165.058594 Z "/>
<path style=" stroke:none;fill-rule:evenodd;fill:rgb(0%,0%,0%);fill-opacity:1;" d="M 161.84375 153.972656 L 164.292969 153.972656 L 164.292969 147.636719 L 161.84375 147.636719 Z "/>
<path style=" stroke:none;fill-rule:evenodd;fill:rgb(0%,0%,0%);fill-opacity:1;" d="M 165.445313 153.972656 L 167.894531 153.972656 L 167.894531 147.636719 L 165.445313 147.636719 Z "/>
<path style=" stroke:none;fill-rule:evenodd;fill:rgb(0%,0%,0%);fill-opacity:1;" d="M 161.84375 171.394531 L 164.292969 171.394531 L 164.292969 165.058594 L 161.84375 165.058594 Z "/>
<path style=" stroke:none;fill-rule:evenodd;fill:rgb(0%,0%,0%);fill-opacity:1;" d="M 165.445313 171.394531 L 167.894531 171.394531 L 167.894531 165.058594 L 165.445313 165.058594 Z "/>
<path style=" stroke:none;fill-rule:evenodd;fill:rgb(0%,0%,0%);fill-opacity:1;" d="M 169.046875 153.972656 L 171.496094 153.972656 L 171.496094 147.636719 L 169.046875 147.636719 Z "/>
<path style=" stroke:none;fill-rule:evenodd;fill:rgb(0%,0%,0%);fill-opacity:1;" d="M 169.046875 171.394531 L 171.496094 171.394531 L 171.496094 165.058594 L 169.046875 165.058594 Z "/>
<path style=" stroke:none;fill-rule:evenodd;fill:rgb(0%,0%,0%);fill-opacity:1;" d="M 172.644531 153.972656 L 175.09375 153.972656 L 175.09375 147.636719 L 172.644531 147.636719 Z "/>
<path style=" stroke:none;fill-rule:evenodd;fill:rgb(0%,0%,0%);fill-opacity:1;" d="M 172.644531 171.394531 L 175.09375 171.394531 L 175.09375 165.058594 L 172.644531 165.058594 Z "/>
<path style=" stroke:none;fill-rule:evenodd;fill:rgb(0%,0%,0%);fill-opacity:1;" d="M 176.246094 153.972656 L 178.695313 153.972656 L 178.695313 147.636719 L 176.246094 147.636719 Z "/>
<path style=" stroke:none;fill-rule:evenodd;fill:rgb(0%,0%,0%);fill-opacity:1;" d="M 179.84375 153.972656 L 182.292969 153.972656 L 182.292969 147.636719 L 179.84375 147.636719 Z "/>
<path style=" stroke:none;fill-rule:evenodd;fill:rgb(0%,0%,0%);fill-opacity:1;" d="M 176.246094 171.394531 L 178.695313 171.394531 L 178.695313 165.058594 L 176.246094 165.058594 Z "/>
<path style=" stroke:none;fill-rule:evenodd;fill:rgb(0%,0%,0%);fill-opacity:1;" d="M 179.84375 171.394531 L 182.292969 171.394531 L 182.292969 165.058594 L 179.84375 165.058594 Z "/>
<path style=" stroke:none;fill-rule:evenodd;fill:rgb(0%,0%,0%);fill-opacity:1;" d="M 183.445313 153.972656 L 185.894531 153.972656 L 185.894531 147.636719 L 183.445313 147.636719 Z "/>
<path style=" stroke:none;fill-rule:evenodd;fill:rgb(0%,0%,0%);fill-opacity:1;" d="M 183.445313 171.394531 L 185.894531 171.394531 L 185.894531 165.058594 L 183.445313 165.058594 Z "/>
<path style=" stroke:none;fill-rule:evenodd;fill:rgb(0%,0%,0%);fill-opacity:1;" d="M 249.777344 176.488281 L 256.113281 176.488281 L 256.113281 174.039063 L 249.777344 174.039063 Z "/>
<path style=" stroke:none;fill-rule:evenodd;fill:rgb(0%,0%,0%);fill-opacity:1;" d="M 267.203125 176.488281 L 273.539063 176.488281 L 273.539063 174.039063 L 267.203125 174.039063 Z "/>
<path style=" stroke:none;fill-rule:evenodd;fill:rgb(0%,0%,0%);fill-opacity:1;" d="M 249.777344 172.890625 L 256.113281 172.890625 L 256.113281 170.441406 L 249.777344 170.441406 Z "/>
<path style=" stroke:none;fill-rule:evenodd;fill:rgb(0%,0%,0%);fill-opacity:1;" d="M 249.777344 169.289063 L 256.113281 169.289063 L 256.113281 166.839844 L 249.777344 166.839844 Z "/>
<path style=" stroke:none;fill-rule:evenodd;fill:rgb(0%,0%,0%);fill-opacity:1;" d="M 267.203125 172.890625 L 273.539063 172.890625 L 273.539063 170.441406 L 267.203125 170.441406 Z "/>
<path style=" stroke:none;fill-rule:evenodd;fill:rgb(0%,0%,0%);fill-opacity:1;" d="M 267.203125 169.289063 L 273.539063 169.289063 L 273.539063 166.839844 L 267.203125 166.839844 Z "/>
<path style=" stroke:none;fill-rule:evenodd;fill:rgb(0%,0%,0%);fill-opacity:1;" d="M 249.777344 165.6875 L 256.113281 165.6875 L 256.113281 163.238281 L 249.777344 163.238281 Z "/>
<path style=" stroke:none;fill-rule:evenodd;fill:rgb(0%,0%,0%);fill-opacity:1;" d="M 267.203125 165.6875 L 273.539063 165.6875 L 273.539063 163.238281 L 267.203125 163.238281 Z "/>
<path style=" stroke:none;fill-rule:evenodd;fill:rgb(0%,0%,0%);fill-opacity:1;" d="M 249.777344 162.089844 L 256.113281 162.089844 L 256.113281 159.640625 L 249.777344 159.640625 Z "/>
<path style=" stroke:none;fill-rule:evenodd;fill:rgb(0%,0%,0%);fill-opacity:1;" d="M 267.203125 162.089844 L 273.539063 162.089844 L 273.539063 159.640625 L 267.203125 159.640625 Z "/>
<path style=" stroke:none;fill-rule:evenodd;fill:rgb(0%,0%,0%);fill-opacity:1;" d="M 249.777344 158.488281 L 256.113281 158.488281 L 256.113281 156.039063 L 249.777344 156.039063 Z "/>
<path style=" stroke:none;fill-rule:evenodd;fill:rgb(0%,0%,0%);fill-opacity:1;" d="M 249.777344 154.890625 L 256.113281 154.890625 L 256.113281 152.441406 L 249.777344 152.441406 Z "/>
<path style=" stroke:none;fill-rule:evenodd;fill:rgb(0%,0%,0%);fill-opacity:1;" d="M 267.203125 158.488281 L 273.539063 158.488281 L 273.539063 156.039063 L 267.203125 156.039063 Z "/>
<path style=" stroke:none;fill-rule:evenodd;fill:rgb(0%,0%,0%);fill-opacity:1;" d="M 267.203125 154.890625 L 273.539063 154.890625 L 273.539063 152.441406 L 267.203125 152.441406 Z "/>
<path style=" stroke:none;fill-rule:evenodd;fill:rgb(0%,0%,0%);fill-opacity:1;" d="M 249.777344 151.289063 L 256.113281 151.289063 L 256.113281 148.839844 L 249.777344 148.839844 Z "/>
<path style=" stroke:none;fill-rule:evenodd;fill:rgb(0%,0%,0%);fill-opacity:1;" d="M 267.203125 151.289063 L 273.539063 151.289063 L 273.539063 148.839844 L 267.203125 148.839844 Z "/>
<path style=" stroke:none;fill-rule:evenodd;fill:rgb(0%,0%,0%);fill-opacity:1;" d="M 151.503906 163.320313 L 154.914063 163.320313 L 154.914063 159.625 L 151.503906 159.625 Z "/>
<path style=" stroke:none;fill-rule:evenodd;fill:rgb(0%,0%,0%);fill-opacity:1;" d="M 151.503906 158.503906 L 154.914063 158.503906 L 154.914063 154.808594 L 151.503906 154.808594 Z "/>
<path style=" stroke:none;fill-rule:evenodd;fill:rgb(0%,0%,0%);fill-opacity:1;" d="M 251.871094 145.472656 L 255.566406 145.472656 L 255.566406 142.0625 L 251.871094 142.0625 Z "/>
<path style=" stroke:none;fill-rule:evenodd;fill:rgb(0%,0%,0%);fill-opacity:1;" d="M 247.050781 145.472656 L 250.746094 145.472656 L 250.746094 142.0625 L 247.050781 142.0625 Z "/>
<path style=" stroke:none;fill-rule:evenodd;fill:rgb(0%,0%,0%);fill-opacity:1;" d="M 164.546875 133.617188 L 168.808594 133.617188 L 168.808594 128.789063 L 164.546875 128.789063 Z "/>
<path style=" stroke:none;fill-rule:evenodd;fill:rgb(0%,0%,0%);fill-opacity:1;" d="M 169.929688 133.617188 L 174.191406 133.617188 L 174.191406 128.789063 L 169.929688 128.789063 Z "/>
<path style=" stroke:none;fill-rule:evenodd;fill:rgb(0%,0%,0%);fill-opacity:1;" d="M 203.246094 133.167969 L 207.507813 133.167969 L 207.507813 128.339844 L 203.246094 128.339844 Z "/>
<path style=" stroke:none;fill-rule:evenodd;fill:rgb(0%,0%,0%);fill-opacity:1;" d="M 208.632813 133.167969 L 212.894531 133.167969 L 212.894531 128.339844 L 208.632813 128.339844 Z "/>
<path style=" stroke:none;fill-rule:evenodd;fill:rgb(0%,0%,0%);fill-opacity:1;" d="M 165.445313 143.070313 L 169.707031 143.070313 L 169.707031 138.242188 L 165.445313 138.242188 Z "/>
<path style=" stroke:none;fill-rule:evenodd;fill:rgb(0%,0%,0%);fill-opacity:1;" d="M 170.832031 143.070313 L 175.09375 143.070313 L 175.09375 138.242188 L 170.832031 138.242188 Z "/>
<path style=" stroke:none;fill-rule:evenodd;fill:rgb(0%,0%,0%);fill-opacity:1;" d="M 177.144531 146.589844 L 181.40625 146.589844 L 181.40625 141.761719 L 177.144531 141.761719 Z "/>
<path style=" stroke:none;fill-rule:evenodd;fill:rgb(0%,0%,0%);fill-opacity:1;" d="M 182.53125 146.589844 L 186.792969 146.589844 L 186.792969 141.761719 L 182.53125 141.761719 Z "/>
<path style=" stroke:none;fill-rule:evenodd;fill:rgb(0%,0%,0%);fill-opacity:1;" d="M 237.429688 223.128906 L 241.691406 223.128906 L 241.691406 218.300781 L 237.429688 218.300781 Z "/>
<path style=" stroke:none;fill-rule:evenodd;fill:rgb(0%,0%,0%);fill-opacity:1;" d="M 232.046875 223.128906 L 236.308594 223.128906 L 236.308594 218.300781 L 232.046875 218.300781 Z "/>
<path style=" stroke:none;fill-rule:evenodd;fill:rgb(0%,0%,0%);fill-opacity:1;" d="M 191.097656 223.128906 L 195.359375 223.128906 L 195.359375 218.300781 L 191.097656 218.300781 Z "/>
<path style=" stroke:none;fill-rule:evenodd;fill:rgb(0%,0%,0%);fill-opacity:1;" d="M 196.480469 223.128906 L 200.742188 223.128906 L 200.742188 218.300781 L 196.480469 218.300781 Z "/>
<path style=" stroke:none;fill-rule:evenodd;fill:rgb(0%,0%,0%);fill-opacity:1;" d="M 217.632813 159.679688 L 221.894531 159.679688 L 221.894531 154.851563 L 217.632813 154.851563 Z "/>
<path style=" stroke:none;fill-rule:evenodd;fill:rgb(0%,0%,0%);fill-opacity:1;" d="M 212.246094 159.679688 L 216.507813 159.679688 L 216.507813 154.851563 L 212.246094 154.851563 Z "/>
<path style=" stroke:none;fill-rule:evenodd;fill:rgb(0%,0%,0%);fill-opacity:1;" d="M 238.957031 148.589844 L 243.785156 148.589844 L 243.785156 144.328125 L 238.957031 144.328125 Z "/>
<path style=" stroke:none;fill-rule:evenodd;fill:rgb(0%,0%,0%);fill-opacity:1;" d="M 238.957031 143.203125 L 243.785156 143.203125 L 243.785156 138.941406 L 238.957031 138.941406 Z "/>
<path style=" stroke:none;fill-rule:evenodd;fill:rgb(0%,0%,0%);fill-opacity:1;" d="M 227.082031 175.878906 L 231.34375 175.878906 L 231.34375 171.050781 L 227.082031 171.050781 Z "/>
<path style=" stroke:none;fill-rule:evenodd;fill:rgb(0%,0%,0%);fill-opacity:1;" d="M 221.695313 175.878906 L 225.957031 175.878906 L 225.957031 171.050781 L 221.695313 171.050781 Z "/>
<path style=" stroke:none;fill-rule:evenodd;fill:rgb(0%,0%,0%);fill-opacity:1;" d="M 207.003906 172.003906 L 211.832031 172.003906 L 211.832031 167.742188 L 207.003906 167.742188 Z "/>
<path style=" stroke:none;fill-rule:evenodd;fill:rgb(0%,0%,0%);fill-opacity:1;" d="M 207.003906 177.390625 L 211.832031 177.390625 L 211.832031 173.128906 L 207.003906 173.128906 Z "/>
<path style=" stroke:none;fill-rule:evenodd;fill:rgb(0%,0%,0%);fill-opacity:1;" d="M 200.707031 172.003906 L 205.535156 172.003906 L 205.535156 167.742188 L 200.707031 167.742188 Z "/>
<path style=" stroke:none;fill-rule:evenodd;fill:rgb(0%,0%,0%);fill-opacity:1;" d="M 200.707031 177.390625 L 205.535156 177.390625 L 205.535156 173.128906 L 200.707031 173.128906 Z "/>
<path style=" stroke:none;fill-rule:evenodd;fill:rgb(0%,0%,0%);fill-opacity:1;" d="M 217.632813 153.378906 L 221.894531 153.378906 L 221.894531 148.550781 L 217.632813 148.550781 Z "/>
<path style=" stroke:none;fill-rule:evenodd;fill:rgb(0%,0%,0%);fill-opacity:1;" d="M 212.246094 153.378906 L 216.507813 153.378906 L 216.507813 148.550781 L 212.246094 148.550781 Z "/>
<path style=" stroke:none;fill-rule:evenodd;fill:rgb(0%,0%,0%);fill-opacity:1;" d="M 251.832031 185.78125 L 256.09375 185.78125 L 256.09375 180.953125 L 251.832031 180.953125 Z "/>
<path style=" stroke:none;fill-rule:evenodd;fill:rgb(0%,0%,0%);fill-opacity:1;" d="M 246.445313 185.78125 L 250.707031 185.78125 L 250.707031 180.953125 L 246.445313 180.953125 Z "/>
<path style=" stroke:none;fill-rule:evenodd;fill:rgb(0%,0%,0%);fill-opacity:1;" d="M 213.753906 172.003906 L 218.582031 172.003906 L 218.582031 167.742188 L 213.753906 167.742188 Z "/>
<path style=" stroke:none;fill-rule:evenodd;fill:rgb(0%,0%,0%);fill-opacity:1;" d="M 213.753906 177.390625 L 218.582031 177.390625 L 218.582031 173.128906 L 213.753906 173.128906 Z "/>
<path style="fill:none;stroke-width:0.0793701;stroke-linecap:round;stroke-linejoin:miter;stroke:rgb(0%,0%,0%);stroke-opacity:1;stroke-miterlimit:10;" d="M 2.151491 0.419811 L 2.080094 0.419811 " transform="matrix(72,0,0,-72,14.5692,238.265446)"/>
<path style="fill:none;stroke-width:0.0793701;stroke-linecap:round;stroke-linejoin:miter;stroke:rgb(0%,0%,0%);stroke-opacity:1;stroke-miterlimit:10;" d="M 2.336007 0.419811 L 2.407405 0.419811 " transform="matrix(72,0,0,-72,14.5692,238.265446)"/>
<path style="fill:none;stroke-width:0.0793701;stroke-linecap:round;stroke-linejoin:miter;stroke:rgb(0%,0%,0%);stroke-opacity:1;stroke-miterlimit:10;" d="M 2.151491 0.242673 L 2.080094 0.242673 " transform="matrix(72,0,0,-72,14.5692,238.265446)"/>
<path style="fill:none;stroke-width:0.0793701;stroke-linecap:round;stroke-linejoin:miter;stroke:rgb(0%,0%,0%);stroke-opacity:1;stroke-miterlimit:10;" d="M 2.336007 0.242673 L 2.407405 0.242673 " transform="matrix(72,0,0,-72,14.5692,238.265446)"/>
<path style="fill:none;stroke-width:0.0793701;stroke-linecap:round;stroke-linejoin:miter;stroke:rgb(0%,0%,0%);stroke-opacity:1;stroke-miterlimit:10;" d="M 2.642594 0.419811 L 2.713991 0.419811 " transform="matrix(72,0,0,-72,14.5692,238.265446)"/>
<path style="fill:none;stroke-width:0.0793701;stroke-linecap:round;stroke-linejoin:miter;stroke:rgb(0%,0%,0%);stroke-opacity:1;stroke-miterlimit:10;" d="M 2.898507 0.419811 L 2.969905 0.419811 " transform="matrix(72,0,0,-72,14.5692,238.265446)"/>
<path style="fill:none;stroke-width:0.0793701;stroke-linecap:round;stroke-linejoin:miter;stroke:rgb(0%,0%,0%);stroke-opacity:1;stroke-miterlimit:10;" d="M 2.713991 0.242673 L 2.642594 0.242673 " transform="matrix(72,0,0,-72,14.5692,238.265446)"/>
<path style="fill:none;stroke-width:0.0793701;stroke-linecap:round;stroke-linejoin:miter;stroke:rgb(0%,0%,0%);stroke-opacity:1;stroke-miterlimit:10;" d="M 2.898507 0.242673 L 2.969905 0.242673 " transform="matrix(72,0,0,-72,14.5692,238.265446)"/>
<path style="fill:none;stroke-width:0.0793701;stroke-linecap:round;stroke-linejoin:miter;stroke:rgb(0%,0%,0%);stroke-opacity:1;stroke-miterlimit:10;" d="M 3.205094 0.419811 L 3.276491 0.419811 " transform="matrix(72,0,0,-72,14.5692,238.265446)"/>
<path style="fill:none;stroke-width:0.0793701;stroke-linecap:round;stroke-linejoin:miter;stroke:rgb(0%,0%,0%);stroke-opacity:1;stroke-miterlimit:10;" d="M 3.461007 0.419811 L 3.532405 0.419811 " transform="matrix(72,0,0,-72,14.5692,238.265446)"/>
<path style="fill:none;stroke-width:0.0793701;stroke-linecap:round;stroke-linejoin:miter;stroke:rgb(0%,0%,0%);stroke-opacity:1;stroke-miterlimit:10;" d="M 3.276491 0.242673 L 3.205094 0.242673 " transform="matrix(72,0,0,-72,14.5692,238.265446)"/>
<path style="fill:none;stroke-width:0.0793701;stroke-linecap:round;stroke-linejoin:miter;stroke:rgb(0%,0%,0%);stroke-opacity:1;stroke-miterlimit:10;" d="M 3.461007 0.242673 L 3.532405 0.242673 " transform="matrix(72,0,0,-72,14.5692,238.265446)"/>
<path style=" stroke:none;fill-rule:evenodd;fill:rgb(0%,0%,0%);fill-opacity:1;" d="M 179.015625 87.875 C 179.015625 84.734375 176.46875 82.1875 173.328125 82.1875 C 170.1875 82.1875 167.640625 84.734375 167.640625 87.875 C 167.640625 91.015625 170.1875 93.5625 173.328125 93.5625 C 176.46875 93.5625 179.015625 91.015625 179.015625 87.875 "/>
<path style=" stroke:none;fill-rule:evenodd;fill:rgb(0%,0%,0%);fill-opacity:1;" d="M 193.417969 87.875 C 193.417969 84.734375 190.871094 82.1875 187.730469 82.1875 C 184.585938 82.1875 182.042969 84.734375 182.042969 87.875 C 182.042969 91.015625 184.585938 93.5625 187.730469 93.5625 C 190.871094 93.5625 193.417969 91.015625 193.417969 87.875 "/>
<path style=" stroke:none;fill-rule:evenodd;fill:rgb(0%,0%,0%);fill-opacity:1;" d="M 265.417969 87.875 C 265.417969 84.734375 262.871094 82.1875 259.730469 82.1875 C 256.585938 82.1875 254.042969 84.734375 254.042969 87.875 C 254.042969 91.015625 256.585938 93.5625 259.730469 93.5625 C 262.871094 93.5625 265.417969 91.015625 265.417969 87.875 "/>
<path style=" stroke:none;fill-rule:evenodd;fill:rgb(0%,0%,0%);fill-opacity:1;" d="M 265.417969 37.476563 C 265.417969 34.332031 262.871094 31.789063 259.730469 31.789063 C 256.585938 31.789063 254.042969 34.332031 254.042969 37.476563 C 254.042969 40.617188 256.585938 43.164063 259.730469 43.164063 C 262.871094 43.164063 265.417969 40.617188 265.417969 37.476563 "/>
<path style=" stroke:none;fill-rule:evenodd;fill:rgb(0%,0%,0%);fill-opacity:1;" d="M 251.015625 37.476563 C 251.015625 34.332031 248.46875 31.789063 245.328125 31.789063 C 242.1875 31.789063 239.640625 34.332031 239.640625 37.476563 C 239.640625 40.617188 242.1875 43.164063 245.328125 43.164063 C 248.46875 43.164063 251.015625 40.617188 251.015625 37.476563 "/>
<path style=" stroke:none;fill-rule:evenodd;fill:rgb(0%,0%,0%);fill-opacity:1;" d="M 225.082031 102.429688 L 234.019531 102.429688 L 234.019531 94.199219 L 225.082031 94.199219 Z "/>
<path style=" stroke:none;fill-rule:evenodd;fill:rgb(0%,0%,0%);fill-opacity:1;" d="M 244.21875 102.429688 L 253.15625 102.429688 L 253.15625 94.199219 L 244.21875 94.199219 Z "/>
<path style=" stroke:none;fill-rule:evenodd;fill:rgb(0%,0%,0%);fill-opacity:1;" d="M 227.402344 111.222656 L 231.664063 111.222656 L 231.664063 106.109375 L 227.402344 106.109375 Z "/>
<path style=" stroke:none;fill-rule:evenodd;fill:rgb(0%,0%,0%);fill-opacity:1;" d="M 233.074219 111.222656 L 237.335938 111.222656 L 237.335938 106.109375 L 233.074219 106.109375 Z "/>
<path style="fill:none;stroke-width:0.108;stroke-linecap:round;stroke-linejoin:miter;stroke:rgb(0%,0%,0%);stroke-opacity:1;stroke-miterlimit:10;" d="M 0.907025 2.687498 L 0.907025 2.787487 " transform="matrix(72,0,0,-72,14.5692,238.265446)"/>
<path style="fill:none;stroke-width:0.108;stroke-linecap:round;stroke-linejoin:miter;stroke:rgb(0%,0%,0%);stroke-opacity:1;stroke-miterlimit:10;" d="M 1.792984 2.787487 L 1.792984 2.687498 " transform="matrix(72,0,0,-72,14.5692,238.265446)"/>
<path style="fill:none;stroke-width:0.087;stroke-linecap:round;stroke-linejoin:miter;stroke:rgb(0%,0%,0%);stroke-opacity:1;stroke-miterlimit:10;" d="M 0.608251 2.364093 L 0.529258 2.364093 " transform="matrix(72,0,0,-72,14.5692,238.265446)"/>
<path style="fill:none;stroke-width:0.087;stroke-linecap:round;stroke-linejoin:miter;stroke:rgb(0%,0%,0%);stroke-opacity:1;stroke-miterlimit:10;" d="M 0.529258 2.560924 L 0.608251 2.560924 " transform="matrix(72,0,0,-72,14.5692,238.265446)"/>
<path style="fill:none;stroke-width:0.087;stroke-linecap:round;stroke-linejoin:miter;stroke:rgb(0%,0%,0%);stroke-opacity:1;stroke-miterlimit:10;" d="M 0.608251 1.94531 L 0.529258 1.94531 " transform="matrix(72,0,0,-72,14.5692,238.265446)"/>
<path style="fill:none;stroke-width:0.087;stroke-linecap:round;stroke-linejoin:miter;stroke:rgb(0%,0%,0%);stroke-opacity:1;stroke-miterlimit:10;" d="M 0.529258 2.142196 L 0.608251 2.142196 " transform="matrix(72,0,0,-72,14.5692,238.265446)"/>
<path style=" stroke:none;fill-rule:evenodd;fill:rgb(0%,0%,0%);fill-opacity:1;" d="M 177.230469 182.941406 L 180.6875 182.941406 L 180.6875 178.332031 L 177.230469 178.332031 Z "/>
<path style=" stroke:none;fill-rule:evenodd;fill:rgb(0%,0%,0%);fill-opacity:1;" d="M 170.710938 182.941406 L 174.167969 182.941406 L 174.167969 178.332031 L 170.710938 178.332031 Z "/>
<path style=" stroke:none;fill-rule:evenodd;fill:rgb(0%,0%,0%);fill-opacity:1;" d="M 259.65625 128.015625 C 259.65625 124.03125 253.679688 124.03125 253.679688 128.015625 C 253.679688 132 259.65625 132 259.65625 128.015625 "/>
<path style=" stroke:none;fill-rule:evenodd;fill:rgb(0%,0%,0%);fill-opacity:1;" d="M 192.390625 172.566406 C 192.390625 170.070313 188.648438 170.070313 188.648438 172.566406 C 188.648438 175.0625 192.390625 175.0625 192.390625 172.566406 "/>
<path style=" stroke:none;fill-rule:evenodd;fill:rgb(0%,0%,0%);fill-opacity:1;" d="M 58.058594 146.464844 C 58.058594 142.480469 52.082031 142.480469 52.082031 146.464844 C 52.082031 150.449219 58.058594 150.449219 58.058594 146.464844 "/>
<path style=" stroke:none;fill-rule:evenodd;fill:rgb(0%,0%,0%);fill-opacity:1;" d="M 58.058594 130.265625 C 58.058594 126.28125 52.082031 126.28125 52.082031 130.265625 C 52.082031 134.25 58.058594 134.25 58.058594 130.265625 "/>
<path style=" stroke:none;fill-rule:evenodd;fill:rgb(0%,0%,0%);fill-opacity:1;" d="M 120.15625 150.066406 C 120.15625 146.082031 114.179688 146.082031 114.179688 150.066406 C 114.179688 154.050781 120.15625 154.050781 120.15625 150.066406 "/>
<path style=" stroke:none;fill-rule:evenodd;fill:rgb(0%,0%,0%);fill-opacity:1;" d="M 120.15625 131.617188 C 120.15625 127.632813 114.179688 127.632813 114.179688 131.617188 C 114.179688 135.597656 120.15625 135.597656 120.15625 131.617188 "/>
<path style=" stroke:none;fill-rule:evenodd;fill:rgb(0%,0%,0%);fill-opacity:1;" d="M 166.058594 112.265625 C 166.058594 108.28125 160.082031 108.28125 160.082031 112.265625 C 160.082031 116.25 166.058594 116.25 166.058594 112.265625 "/>
<path style=" stroke:none;fill-rule:evenodd;fill:rgb(0%,0%,0%);fill-opacity:1;" d="M 220.957031 101.914063 C 220.957031 97.929688 214.980469 97.929688 214.980469 101.914063 C 214.980469 105.898438 220.957031 105.898438 220.957031 101.914063 "/>
<path style=" stroke:none;fill-rule:evenodd;fill:rgb(0%,0%,0%);fill-opacity:1;" d="M 61.207031 121.714844 C 61.207031 117.730469 55.230469 117.730469 55.230469 121.714844 C 55.230469 125.699219 61.207031 125.699219 61.207031 121.714844 "/>
<path style=" stroke:none;fill-rule:evenodd;fill:rgb(0%,0%,0%);fill-opacity:1;" d="M 75.605469 115.867188 C 75.605469 111.882813 69.632813 111.882813 69.632813 115.867188 C 69.632813 119.847656 75.605469 119.847656 75.605469 115.867188 "/>
<path style=" stroke:none;fill-rule:evenodd;fill:rgb(0%,0%,0%);fill-opacity:1;" d="M 72.007813 177.515625 C 72.007813 173.53125 66.03125 173.53125 66.03125 177.515625 C 66.03125 181.5 72.007813 181.5 72.007813 177.515625 "/>
<path style=" stroke:none;fill-rule:evenodd;fill:rgb(0%,0%,0%);fill-opacity:1;" d="M 35.558594 181.566406 C 35.558594 177.582031 29.582031 177.582031 29.582031 181.566406 C 29.582031 185.550781 35.558594 185.550781 35.558594 181.566406 "/>
<path style=" stroke:none;fill-rule:evenodd;fill:rgb(0%,0%,0%);fill-opacity:1;" d="M 283.507813 143.765625 C 283.507813 139.78125 277.53125 139.78125 277.53125 143.765625 C 277.53125 147.75 283.507813 147.75 283.507813 143.765625 "/>
<path style=" stroke:none;fill-rule:evenodd;fill:rgb(0%,0%,0%);fill-opacity:1;" d="M 282.605469 165.816406 C 282.605469 161.832031 276.632813 161.832031 276.632813 165.816406 C 276.632813 169.800781 282.605469 169.800781 282.605469 165.816406 "/>
<path style=" stroke:none;fill-rule:evenodd;fill:rgb(0%,0%,0%);fill-opacity:1;" d="M 172.808594 195.066406 C 172.808594 191.082031 166.832031 191.082031 166.832031 195.066406 C 166.832031 199.050781 172.808594 199.050781 172.808594 195.066406 "/>
<path style=" stroke:none;fill-rule:evenodd;fill:rgb(0%,0%,0%);fill-opacity:1;" d="M 153.007813 195.066406 C 153.007813 191.082031 147.03125 191.082031 147.03125 195.066406 C 147.03125 199.050781 153.007813 199.050781 153.007813 195.066406 "/>
<path style=" stroke:none;fill-rule:evenodd;fill:rgb(0%,0%,0%);fill-opacity:1;" d="M 189.007813 189.664063 C 189.007813 185.679688 183.03125 185.679688 183.03125 189.664063 C 183.03125 193.648438 189.007813 193.648438 189.007813 189.664063 "/>
<path style=" stroke:none;fill-rule:evenodd;fill:rgb(0%,0%,0%);fill-opacity:1;" d="M 129.605469 145.117188 C 129.605469 141.132813 123.632813 141.132813 123.632813 145.117188 C 123.632813 149.097656 129.605469 149.097656 129.605469 145.117188 "/>
<path style=" stroke:none;fill-rule:evenodd;fill:rgb(0%,0%,0%);fill-opacity:1;" d="M 191.707031 133.867188 C 191.707031 129.882813 185.730469 129.882813 185.730469 133.867188 C 185.730469 137.847656 191.707031 137.847656 191.707031 133.867188 "/>
<path style=" stroke:none;fill-rule:evenodd;fill:rgb(0%,0%,0%);fill-opacity:1;" d="M 243.457031 133.414063 C 243.457031 129.429688 237.480469 129.429688 237.480469 133.414063 C 237.480469 137.398438 243.457031 137.398438 243.457031 133.414063 "/>
<path style=" stroke:none;fill-rule:evenodd;fill:rgb(0%,0%,0%);fill-opacity:1;" d="M 31.058594 126.664063 C 31.058594 122.679688 25.082031 122.679688 25.082031 126.664063 C 25.082031 130.648438 31.058594 130.648438 31.058594 126.664063 "/>
<path style=" stroke:none;fill-rule:evenodd;fill:rgb(0%,0%,0%);fill-opacity:1;" d="M 36.457031 138.367188 C 36.457031 134.382813 30.480469 134.382813 30.480469 138.367188 C 30.480469 142.347656 36.457031 142.347656 36.457031 138.367188 "/>
<path style=" stroke:none;fill-rule:evenodd;fill:rgb(0%,0%,0%);fill-opacity:1;" d="M 281.707031 183.367188 C 281.707031 179.382813 275.730469 179.382813 275.730469 183.367188 C 275.730469 187.347656 281.707031 187.347656 281.707031 183.367188 "/>
<path style=" stroke:none;fill-rule:evenodd;fill:rgb(0%,0%,0%);fill-opacity:1;" d="M 281.707031 205.414063 C 281.707031 201.429688 275.730469 201.429688 275.730469 205.414063 C 275.730469 209.398438 281.707031 209.398438 281.707031 205.414063 "/>
</g>
</svg>
